<svg xmlns="http://www.w3.org/2000/svg" xmlns:xlink="http://www.w3.org/1999/xlink" contentStyleType="text/css" height="1991px" preserveAspectRatio="none" style="width:964px;height:1991px;background:#FFFFFF;" version="1.1" viewBox="0 0 964 1991" width="964px" zoomAndPan="magnify"><defs/><g><rect fill="#FFFFFF" height="500.6563" style="stroke:#181818;stroke-width:1.0;" width="10" x="22.8413" y="93.6211"/><rect fill="#FFFFFF" height="1781.9473" style="stroke:#181818;stroke-width:1.0;" width="10" x="252.3965" y="116.9121"/><rect fill="#FFFFFF" height="62.582" style="stroke:#181818;stroke-width:1.0;" width="10" x="560.7451" y="148.2031"/><rect fill="#FFFFFF" height="62.582" style="stroke:#181818;stroke-width:1.0;" width="10" x="560.7451" y="242.0762"/><rect fill="#FFFFFF" height="93.873" style="stroke:#181818;stroke-width:1.0;" width="10" x="560.7451" y="442.8223"/><rect fill="#FFFFFF" height="31.291" style="stroke:#181818;stroke-width:1.0;" width="10" x="560.7451" y="736.0723"/><rect fill="#FFFFFF" height="62.582" style="stroke:#181818;stroke-width:1.0;" width="10" x="560.7451" y="948.4492"/><rect fill="#FFFFFF" height="93.873" style="stroke:#181818;stroke-width:1.0;" width="10" x="560.7451" y="1482.7363"/><rect fill="#FFFFFF" height="62.582" style="stroke:#181818;stroke-width:1.0;" width="10" x="560.7451" y="1814.2773"/><rect fill="none" height="1340.1641" style="stroke:#000000;stroke-width:1.5;" width="834.1621" x="123.6279" y="551.6953"/><rect fill="none" height="1102.4961" style="stroke:#000000;stroke-width:1.5;" width="814.1621" x="133.6279" y="782.3633"/><rect fill="none" height="350.832" style="stroke:#000000;stroke-width:1.5;" width="794.1621" x="143.6279" y="1101.6133"/><rect fill="none" height="161.0859" style="stroke:#000000;stroke-width:1.5;" width="774.1621" x="153.6279" y="1284.3594"/><rect fill="none" height="192.377" style="stroke:#000000;stroke-width:1.5;" width="774.1621" x="153.6279" y="1591.6094"/><line style="stroke:#181818;stroke-width:0.5;stroke-dasharray:5.0,5.0;" x1="27" x2="27" y1="83.6211" y2="1908.8594"/><line style="stroke:#181818;stroke-width:0.5;stroke-dasharray:5.0,5.0;" x1="256.6279" x2="256.6279" y1="83.6211" y2="1908.8594"/><line style="stroke:#181818;stroke-width:0.5;stroke-dasharray:5.0,5.0;" x1="565.6318" x2="565.6318" y1="83.6211" y2="1908.8594"/><line style="stroke:#181818;stroke-width:0.5;stroke-dasharray:5.0,5.0;" x1="737.501" x2="737.501" y1="83.6211" y2="1908.8594"/><line style="stroke:#181818;stroke-width:0.5;stroke-dasharray:5.0,5.0;" x1="821.0869" x2="821.0869" y1="83.6211" y2="1908.8594"/><line style="stroke:#181818;stroke-width:0.5;stroke-dasharray:5.0,5.0;" x1="896.5693" x2="896.5693" y1="83.6211" y2="1908.8594"/><text fill="#000000" font-family="sans-serif" font-size="14" lengthAdjust="spacing" textLength="39.6826" x="5" y="80.1074">Player</text><ellipse cx="27.8413" cy="13.5" fill="#E2E2F0" rx="8" ry="8" style="stroke:#181818;stroke-width:0.5;"/><path d="M27.8413,21.5 L27.8413,48.5 M14.8413,29.5 L40.8413,29.5 M27.8413,48.5 L14.8413,63.5 M27.8413,48.5 L40.8413,63.5 " fill="none" style="stroke:#181818;stroke-width:0.5;"/><text fill="#000000" font-family="sans-serif" font-size="14" lengthAdjust="spacing" textLength="39.6826" x="5" y="1922.9668">Player</text><ellipse cx="27.8413" cy="1934.9805" fill="#E2E2F0" rx="8" ry="8" style="stroke:#181818;stroke-width:0.5;"/><path d="M27.8413,1942.9805 L27.8413,1969.9805 M14.8413,1950.9805 L40.8413,1950.9805 M27.8413,1969.9805 L14.8413,1984.9805 M27.8413,1969.9805 L40.8413,1984.9805 " fill="none" style="stroke:#181818;stroke-width:0.5;"/><rect fill="#E2E2F0" height="32.6211" rx="2.5" ry="2.5" style="stroke:#181818;stroke-width:0.5;" width="187.5371" x="163.6279" y="50"/><text fill="#000000" font-family="sans-serif" font-size="14" lengthAdjust="spacing" textLength="173.5371" x="170.6279" y="72.1074">:MaintenanceRailwayLineUI</text><rect fill="#E2E2F0" height="32.6211" rx="2.5" ry="2.5" style="stroke:#181818;stroke-width:0.5;" width="187.5371" x="163.6279" y="1907.8594"/><text fill="#000000" font-family="sans-serif" font-size="14" lengthAdjust="spacing" textLength="173.5371" x="170.6279" y="1929.9668">:MaintenanceRailwayLineUI</text><rect fill="#E2E2F0" height="32.6211" rx="2.5" ry="2.5" style="stroke:#181818;stroke-width:0.5;" width="234.2266" x="448.6318" y="50"/><text fill="#000000" font-family="sans-serif" font-size="14" lengthAdjust="spacing" textLength="220.2266" x="455.6318" y="72.1074">:MaintenanceRailwayLineController</text><rect fill="#E2E2F0" height="32.6211" rx="2.5" ry="2.5" style="stroke:#181818;stroke-width:0.5;" width="234.2266" x="448.6318" y="1907.8594"/><text fill="#000000" font-family="sans-serif" font-size="14" lengthAdjust="spacing" textLength="220.2266" x="455.6318" y="1929.9668">:MaintenanceRailwayLineController</text><rect fill="#E2E2F0" height="32.6211" rx="2.5" ry="2.5" style="stroke:#181818;stroke-width:0.5;" width="57.5859" x="709.501" y="50"/><text fill="#000000" font-family="sans-serif" font-size="14" lengthAdjust="spacing" textLength="43.5859" x="716.501" y="72.1074">Station</text><rect fill="#E2E2F0" height="32.6211" rx="2.5" ry="2.5" style="stroke:#181818;stroke-width:0.5;" width="57.5859" x="709.501" y="1907.8594"/><text fill="#000000" font-family="sans-serif" font-size="14" lengthAdjust="spacing" textLength="43.5859" x="716.501" y="1929.9668">Station</text><rect fill="#E2E2F0" height="32.6211" rx="2.5" ry="2.5" style="stroke:#181818;stroke-width:0.5;" width="89.4824" x="777.0869" y="50"/><text fill="#000000" font-family="sans-serif" font-size="14" lengthAdjust="spacing" textLength="75.4824" x="784.0869" y="72.1074">RailwayLine</text><rect fill="#E2E2F0" height="32.6211" rx="2.5" ry="2.5" style="stroke:#181818;stroke-width:0.5;" width="89.4824" x="777.0869" y="1907.8594"/><text fill="#000000" font-family="sans-serif" font-size="14" lengthAdjust="spacing" textLength="75.4824" x="784.0869" y="1929.9668">RailwayLine</text><rect fill="#E2E2F0" height="32.6211" rx="2.5" ry="2.5" style="stroke:#181818;stroke-width:0.5;" width="41.2207" x="876.5693" y="50"/><text fill="#000000" font-family="sans-serif" font-size="14" lengthAdjust="spacing" textLength="27.2207" x="883.5693" y="72.1074">Utils</text><rect fill="#E2E2F0" height="32.6211" rx="2.5" ry="2.5" style="stroke:#181818;stroke-width:0.5;" width="41.2207" x="876.5693" y="1907.8594"/><text fill="#000000" font-family="sans-serif" font-size="14" lengthAdjust="spacing" textLength="27.2207" x="883.5693" y="1929.9668">Utils</text><rect fill="#FFFFFF" height="500.6563" style="stroke:#181818;stroke-width:1.0;" width="10" x="22.8413" y="93.6211"/><rect fill="#FFFFFF" height="1781.9473" style="stroke:#181818;stroke-width:1.0;" width="10" x="252.3965" y="116.9121"/><rect fill="#FFFFFF" height="62.582" style="stroke:#181818;stroke-width:1.0;" width="10" x="560.7451" y="148.2031"/><rect fill="#FFFFFF" height="62.582" style="stroke:#181818;stroke-width:1.0;" width="10" x="560.7451" y="242.0762"/><rect fill="#FFFFFF" height="93.873" style="stroke:#181818;stroke-width:1.0;" width="10" x="560.7451" y="442.8223"/><rect fill="#FFFFFF" height="31.291" style="stroke:#181818;stroke-width:1.0;" width="10" x="560.7451" y="736.0723"/><rect fill="#FFFFFF" height="62.582" style="stroke:#181818;stroke-width:1.0;" width="10" x="560.7451" y="948.4492"/><rect fill="#FFFFFF" height="93.873" style="stroke:#181818;stroke-width:1.0;" width="10" x="560.7451" y="1482.7363"/><rect fill="#FFFFFF" height="62.582" style="stroke:#181818;stroke-width:1.0;" width="10" x="560.7451" y="1814.2773"/><polygon fill="#181818" points="240.3965,112.9121,250.3965,116.9121,240.3965,120.9121,244.3965,116.9121" style="stroke:#181818;stroke-width:1.0;"/><line style="stroke:#181818;stroke-width:1.0;" x1="32.8413" x2="246.3965" y1="116.9121" y2="116.9121"/><text fill="#000000" font-family="sans-serif" font-size="13" font-weight="bold" lengthAdjust="spacing" textLength="7.23" x="39.8413" y="111.6494">1</text><text fill="#000000" font-family="sans-serif" font-size="13" lengthAdjust="spacing" textLength="189.3252" x="51.0713" y="111.6494">request railway line maintenance</text><polygon fill="#181818" points="548.7451,144.2031,558.7451,148.2031,548.7451,152.2031,552.7451,148.2031" style="stroke:#181818;stroke-width:1.0;"/><line style="stroke:#181818;stroke-width:1.0;" x1="262.3965" x2="554.7451" y1="148.2031" y2="148.2031"/><text fill="#000000" font-family="sans-serif" font-size="13" font-weight="bold" lengthAdjust="spacing" textLength="7.23" x="269.3965" y="142.9404">2</text><text fill="#000000" font-family="sans-serif" font-size="13" lengthAdjust="spacing" textLength="72.2554" x="280.6265" y="142.9404">getAllLines()</text><polygon fill="#181818" points="809.8281,175.4941,819.8281,179.4941,809.8281,183.4941,813.8281,179.4941" style="stroke:#181818;stroke-width:1.0;"/><line style="stroke:#181818;stroke-width:1.0;" x1="570.7451" x2="815.8281" y1="179.4941" y2="179.4941"/><text fill="#000000" font-family="sans-serif" font-size="13" font-weight="bold" lengthAdjust="spacing" textLength="7.23" x="577.7451" y="174.2314">3</text><text fill="#000000" font-family="sans-serif" font-size="13" lengthAdjust="spacing" textLength="104.7617" x="588.9751" y="174.2314">access list of lines</text><polygon fill="#181818" points="273.3965,206.7852,263.3965,210.7852,273.3965,214.7852,269.3965,210.7852" style="stroke:#181818;stroke-width:1.0;"/><line style="stroke:#181818;stroke-width:1.0;stroke-dasharray:2.0,2.0;" x1="267.3965" x2="564.7451" y1="210.7852" y2="210.7852"/><text fill="#000000" font-family="sans-serif" font-size="13" font-weight="bold" lengthAdjust="spacing" textLength="7.23" x="279.3965" y="205.5225">4</text><text fill="#000000" font-family="sans-serif" font-size="13" lengthAdjust="spacing" textLength="60.6899" x="290.6265" y="205.5225">list of lines</text><polygon fill="#181818" points="548.7451,238.0762,558.7451,242.0762,548.7451,246.0762,552.7451,242.0762" style="stroke:#181818;stroke-width:1.0;"/><line style="stroke:#181818;stroke-width:1.0;" x1="262.3965" x2="554.7451" y1="242.0762" y2="242.0762"/><text fill="#000000" font-family="sans-serif" font-size="13" font-weight="bold" lengthAdjust="spacing" textLength="7.23" x="269.3965" y="236.8135">5</text><text fill="#000000" font-family="sans-serif" font-size="13" lengthAdjust="spacing" textLength="112.7217" x="280.6265" y="236.8135">getSizeStationList()</text><polygon fill="#181818" points="726.2939,269.3672,736.2939,273.3672,726.2939,277.3672,730.2939,273.3672" style="stroke:#181818;stroke-width:1.0;"/><line style="stroke:#181818;stroke-width:1.0;" x1="570.7451" x2="732.2939" y1="273.3672" y2="273.3672"/><text fill="#000000" font-family="sans-serif" font-size="13" font-weight="bold" lengthAdjust="spacing" textLength="7.23" x="577.7451" y="268.1045">6</text><text fill="#000000" font-family="sans-serif" font-size="13" lengthAdjust="spacing" textLength="122.8271" x="588.9751" y="268.1045">access list of stations</text><polygon fill="#181818" points="273.3965,300.6582,263.3965,304.6582,273.3965,308.6582,269.3965,304.6582" style="stroke:#181818;stroke-width:1.0;"/><line style="stroke:#181818;stroke-width:1.0;stroke-dasharray:2.0,2.0;" x1="267.3965" x2="564.7451" y1="304.6582" y2="304.6582"/><text fill="#000000" font-family="sans-serif" font-size="13" font-weight="bold" lengthAdjust="spacing" textLength="7.23" x="279.3965" y="299.3955">7</text><text fill="#000000" font-family="sans-serif" font-size="13" lengthAdjust="spacing" textLength="106.9453" x="290.6265" y="299.3955">number of stations</text><line style="stroke:#181818;stroke-width:1.0;" x1="262.3965" x2="304.3965" y1="335.9492" y2="335.9492"/><line style="stroke:#181818;stroke-width:1.0;" x1="304.3965" x2="304.3965" y1="335.9492" y2="348.9492"/><line style="stroke:#181818;stroke-width:1.0;" x1="263.3965" x2="304.3965" y1="348.9492" y2="348.9492"/><polygon fill="#181818" points="273.3965,344.9492,263.3965,348.9492,273.3965,352.9492,269.3965,348.9492" style="stroke:#181818;stroke-width:1.0;"/><text fill="#000000" font-family="sans-serif" font-size="13" font-weight="bold" lengthAdjust="spacing" textLength="7.23" x="269.3965" y="330.6865">8</text><text fill="#000000" font-family="sans-serif" font-size="13" lengthAdjust="spacing" textLength="149.5698" x="280.6265" y="330.6865">chooseRailwayLineType()</text><polygon fill="#181818" points="553.7451,376.2402,563.7451,380.2402,553.7451,384.2402,557.7451,380.2402" style="stroke:#181818;stroke-width:1.0;"/><line style="stroke:#181818;stroke-width:1.0;" x1="262.3965" x2="559.7451" y1="380.2402" y2="380.2402"/><text fill="#000000" font-family="sans-serif" font-size="13" font-weight="bold" lengthAdjust="spacing" textLength="7.23" x="269.3965" y="374.9775">9</text><text fill="#000000" font-family="sans-serif" font-size="13" lengthAdjust="spacing" textLength="156.0635" x="280.6265" y="374.9775">setRailwayLinesType(type)</text><polygon fill="#181818" points="553.7451,407.5313,563.7451,411.5313,553.7451,415.5313,557.7451,411.5313" style="stroke:#181818;stroke-width:1.0;"/><line style="stroke:#181818;stroke-width:1.0;" x1="262.3965" x2="559.7451" y1="411.5313" y2="411.5313"/><text fill="#000000" font-family="sans-serif" font-size="13" font-weight="bold" lengthAdjust="spacing" textLength="14.46" x="269.3965" y="406.2686">10</text><text fill="#000000" font-family="sans-serif" font-size="13" lengthAdjust="spacing" textLength="138.709" x="287.8564" y="406.2686">filterRailwayLinesType()</text><polygon fill="#181818" points="548.7451,438.8223,558.7451,442.8223,548.7451,446.8223,552.7451,442.8223" style="stroke:#181818;stroke-width:1.0;"/><line style="stroke:#181818;stroke-width:1.0;" x1="262.3965" x2="554.7451" y1="442.8223" y2="442.8223"/><text fill="#000000" font-family="sans-serif" font-size="13" font-weight="bold" lengthAdjust="spacing" textLength="14.46" x="269.3965" y="437.5596">11</text><text fill="#000000" font-family="sans-serif" font-size="13" lengthAdjust="spacing" textLength="137.2871" x="287.8564" y="437.5596">isNotGraphConnected()</text><polygon fill="#181818" points="809.8281,470.1133,819.8281,474.1133,809.8281,478.1133,813.8281,474.1133" style="stroke:#181818;stroke-width:1.0;"/><line style="stroke:#181818;stroke-width:1.0;" x1="570.7451" x2="815.8281" y1="474.1133" y2="474.1133"/><text fill="#000000" font-family="sans-serif" font-size="13" font-weight="bold" lengthAdjust="spacing" textLength="14.46" x="577.7451" y="468.8506">12</text><text fill="#000000" font-family="sans-serif" font-size="13" lengthAdjust="spacing" textLength="106.9517" x="596.2051" y="468.8506">check connections</text><polygon fill="#181818" points="726.2939,501.4043,736.2939,505.4043,726.2939,509.4043,730.2939,505.4043" style="stroke:#181818;stroke-width:1.0;"/><line style="stroke:#181818;stroke-width:1.0;" x1="570.7451" x2="732.2939" y1="505.4043" y2="505.4043"/><text fill="#000000" font-family="sans-serif" font-size="13" font-weight="bold" lengthAdjust="spacing" textLength="14.46" x="577.7451" y="500.1416">13</text><text fill="#000000" font-family="sans-serif" font-size="13" lengthAdjust="spacing" textLength="122.8335" x="596.2051" y="500.1416">check visited stations</text><polygon fill="#181818" points="273.3965,532.6953,263.3965,536.6953,273.3965,540.6953,269.3965,536.6953" style="stroke:#181818;stroke-width:1.0;"/><line style="stroke:#181818;stroke-width:1.0;stroke-dasharray:2.0,2.0;" x1="267.3965" x2="564.7451" y1="536.6953" y2="536.6953"/><text fill="#000000" font-family="sans-serif" font-size="13" font-weight="bold" lengthAdjust="spacing" textLength="14.46" x="279.3965" y="531.4326">14</text><text fill="#000000" font-family="sans-serif" font-size="13" lengthAdjust="spacing" textLength="53.4727" x="297.8564" y="531.4326">true/false</text><path d="M123.6279,551.6953 L183.7988,551.6953 L183.7988,560.9863 L173.7988,570.9863 L123.6279,570.9863 L123.6279,551.6953 " fill="#EEEEEE" style="stroke:#000000;stroke-width:1.5;"/><rect fill="none" height="1340.1641" style="stroke:#000000;stroke-width:1.5;" width="834.1621" x="123.6279" y="551.6953"/><text fill="#000000" font-family="sans-serif" font-size="13" font-weight="bold" lengthAdjust="spacing" textLength="15.1709" x="138.6279" y="566.7236">alt</text><text fill="#000000" font-family="sans-serif" font-size="11" font-weight="bold" lengthAdjust="spacing" textLength="116.1069" x="198.7988" y="565.5654">[graph not connected]</text><polygon fill="#181818" points="885.1797,590.2773,895.1797,594.2773,885.1797,598.2773,889.1797,594.2773" style="stroke:#181818;stroke-width:1.0;"/><line style="stroke:#181818;stroke-width:1.0;" x1="262.3965" x2="891.1797" y1="594.2773" y2="594.2773"/><text fill="#000000" font-family="sans-serif" font-size="13" font-weight="bold" lengthAdjust="spacing" textLength="14.46" x="269.3965" y="589.0146">15</text><text fill="#000000" font-family="sans-serif" font-size="13" lengthAdjust="spacing" textLength="132.2217" x="287.8564" y="589.0146">printMessage(warning)</text><line style="stroke:#000000;stroke-width:1.0;stroke-dasharray:2.0,2.0;" x1="123.6279" x2="957.79" y1="603.2773" y2="603.2773"/><text fill="#000000" font-family="sans-serif" font-size="11" font-weight="bold" lengthAdjust="spacing" textLength="95.9492" x="128.6279" y="615.1475">[graph connected]</text><polygon fill="#181818" points="885.1797,638.1992,895.1797,642.1992,885.1797,646.1992,889.1797,642.1992" style="stroke:#181818;stroke-width:1.0;"/><line style="stroke:#181818;stroke-width:1.0;" x1="262.3965" x2="891.1797" y1="642.1992" y2="642.1992"/><text fill="#000000" font-family="sans-serif" font-size="13" font-weight="bold" lengthAdjust="spacing" textLength="14.46" x="269.3965" y="636.9365">16</text><text fill="#000000" font-family="sans-serif" font-size="13" lengthAdjust="spacing" textLength="146.688" x="287.8564" y="636.9365">printMessage(connected)</text><polygon fill="#181818" points="553.7451,669.4902,563.7451,673.4902,553.7451,677.4902,557.7451,673.4902" style="stroke:#181818;stroke-width:1.0;"/><line style="stroke:#181818;stroke-width:1.0;" x1="262.3965" x2="559.7451" y1="673.4902" y2="673.4902"/><text fill="#000000" font-family="sans-serif" font-size="13" font-weight="bold" lengthAdjust="spacing" textLength="14.46" x="269.3965" y="668.2275">17</text><text fill="#000000" font-family="sans-serif" font-size="13" lengthAdjust="spacing" textLength="195.8379" x="287.8564" y="668.2275">setValidStationsConnectedLines()</text><polygon fill="#181818" points="553.7451,700.7813,563.7451,704.7813,553.7451,708.7813,557.7451,704.7813" style="stroke:#181818;stroke-width:1.0;"/><line style="stroke:#181818;stroke-width:1.0;" x1="262.3965" x2="559.7451" y1="704.7813" y2="704.7813"/><text fill="#000000" font-family="sans-serif" font-size="13" font-weight="bold" lengthAdjust="spacing" textLength="14.46" x="269.3965" y="699.5186">18</text><text fill="#000000" font-family="sans-serif" font-size="13" lengthAdjust="spacing" textLength="146.6753" x="287.8564" y="699.5186">calculateVertexDegrees()</text><polygon fill="#181818" points="548.7451,732.0723,558.7451,736.0723,548.7451,740.0723,552.7451,736.0723" style="stroke:#181818;stroke-width:1.0;"/><line style="stroke:#181818;stroke-width:1.0;" x1="262.3965" x2="554.7451" y1="736.0723" y2="736.0723"/><text fill="#000000" font-family="sans-serif" font-size="13" font-weight="bold" lengthAdjust="spacing" textLength="14.46" x="269.3965" y="730.8096">19</text><text fill="#000000" font-family="sans-serif" font-size="13" lengthAdjust="spacing" textLength="129.3398" x="287.8564" y="730.8096">setEulerianPathType()</text><polygon fill="#181818" points="273.3965,763.3633,263.3965,767.3633,273.3965,771.3633,269.3965,767.3633" style="stroke:#181818;stroke-width:1.0;"/><line style="stroke:#181818;stroke-width:1.0;stroke-dasharray:2.0,2.0;" x1="267.3965" x2="564.7451" y1="767.3633" y2="767.3633"/><text fill="#000000" font-family="sans-serif" font-size="13" font-weight="bold" lengthAdjust="spacing" textLength="14.46" x="279.3965" y="762.1006">20</text><text fill="#000000" font-family="sans-serif" font-size="13" lengthAdjust="spacing" textLength="53.4727" x="297.8564" y="762.1006">true/false</text><path d="M133.6279,782.3633 L193.7988,782.3633 L193.7988,791.6543 L183.7988,801.6543 L133.6279,801.6543 L133.6279,782.3633 " fill="#EEEEEE" style="stroke:#000000;stroke-width:1.5;"/><rect fill="none" height="1102.4961" style="stroke:#000000;stroke-width:1.5;" width="814.1621" x="133.6279" y="782.3633"/><text fill="#000000" font-family="sans-serif" font-size="13" font-weight="bold" lengthAdjust="spacing" textLength="15.1709" x="148.6279" y="797.3916">alt</text><text fill="#000000" font-family="sans-serif" font-size="11" font-weight="bold" lengthAdjust="spacing" textLength="149.123" x="208.7988" y="796.2334">[not possible Eulerian route]</text><polygon fill="#181818" points="885.1797,820.9453,895.1797,824.9453,885.1797,828.9453,889.1797,824.9453" style="stroke:#181818;stroke-width:1.0;"/><line style="stroke:#181818;stroke-width:1.0;" x1="262.3965" x2="891.1797" y1="824.9453" y2="824.9453"/><text fill="#000000" font-family="sans-serif" font-size="13" font-weight="bold" lengthAdjust="spacing" textLength="14.46" x="269.3965" y="819.6826">21</text><text fill="#000000" font-family="sans-serif" font-size="13" lengthAdjust="spacing" textLength="205.9053" x="287.8564" y="819.6826">printMessage(impossibility warning)</text><line style="stroke:#000000;stroke-width:1.0;stroke-dasharray:2.0,2.0;" x1="133.6279" x2="947.79" y1="833.9453" y2="833.9453"/><text fill="#000000" font-family="sans-serif" font-size="11" font-weight="bold" lengthAdjust="spacing" textLength="128.9653" x="138.6279" y="845.8154">[possible Eulerian route]</text><polygon fill="#181818" points="885.1797,868.8672,895.1797,872.8672,885.1797,876.8672,889.1797,872.8672" style="stroke:#181818;stroke-width:1.0;"/><line style="stroke:#181818;stroke-width:1.0;" x1="262.3965" x2="891.1797" y1="872.8672" y2="872.8672"/><text fill="#000000" font-family="sans-serif" font-size="13" font-weight="bold" lengthAdjust="spacing" textLength="14.46" x="269.3965" y="867.6045">22</text><text fill="#000000" font-family="sans-serif" font-size="13" lengthAdjust="spacing" textLength="148.1289" x="287.8564" y="867.6045">printMessage(graph type)</text><line style="stroke:#181818;stroke-width:1.0;" x1="262.3965" x2="304.3965" y1="904.1582" y2="904.1582"/><line style="stroke:#181818;stroke-width:1.0;" x1="304.3965" x2="304.3965" y1="904.1582" y2="917.1582"/><line style="stroke:#181818;stroke-width:1.0;" x1="263.3965" x2="304.3965" y1="917.1582" y2="917.1582"/><polygon fill="#181818" points="273.3965,913.1582,263.3965,917.1582,273.3965,921.1582,269.3965,917.1582" style="stroke:#181818;stroke-width:1.0;"/><text fill="#000000" font-family="sans-serif" font-size="13" font-weight="bold" lengthAdjust="spacing" textLength="14.46" x="269.3965" y="898.8955">23</text><text fill="#000000" font-family="sans-serif" font-size="13" lengthAdjust="spacing" textLength="121.3989" x="287.8564" y="898.8955">chooseInitialStation()</text><polygon fill="#181818" points="548.7451,944.4492,558.7451,948.4492,548.7451,952.4492,552.7451,948.4492" style="stroke:#181818;stroke-width:1.0;"/><line style="stroke:#181818;stroke-width:1.0;" x1="262.3965" x2="554.7451" y1="948.4492" y2="948.4492"/><text fill="#000000" font-family="sans-serif" font-size="13" font-weight="bold" lengthAdjust="spacing" textLength="14.46" x="269.3965" y="943.1865">24</text><text fill="#000000" font-family="sans-serif" font-size="13" lengthAdjust="spacing" textLength="132.958" x="287.8564" y="943.1865">getValidInitialStations()</text><polygon fill="#181818" points="726.2939,975.7402,736.2939,979.7402,726.2939,983.7402,730.2939,979.7402" style="stroke:#181818;stroke-width:1.0;"/><line style="stroke:#181818;stroke-width:1.0;" x1="570.7451" x2="732.2939" y1="979.7402" y2="979.7402"/><text fill="#000000" font-family="sans-serif" font-size="13" font-weight="bold" lengthAdjust="spacing" textLength="14.46" x="577.7451" y="974.4775">25</text><text fill="#000000" font-family="sans-serif" font-size="13" lengthAdjust="spacing" textLength="96.8335" x="596.2051" y="974.4775">get valid stations</text><polygon fill="#181818" points="273.3965,1007.0313,263.3965,1011.0313,273.3965,1015.0313,269.3965,1011.0313" style="stroke:#181818;stroke-width:1.0;"/><line style="stroke:#181818;stroke-width:1.0;stroke-dasharray:2.0,2.0;" x1="267.3965" x2="564.7451" y1="1011.0313" y2="1011.0313"/><text fill="#000000" font-family="sans-serif" font-size="13" font-weight="bold" lengthAdjust="spacing" textLength="14.46" x="279.3965" y="1005.7686">26</text><text fill="#000000" font-family="sans-serif" font-size="13" lengthAdjust="spacing" textLength="109.1035" x="297.8564" y="1005.7686">list of valid stations</text><polygon fill="#181818" points="553.7451,1038.3223,563.7451,1042.3223,553.7451,1046.3223,557.7451,1042.3223" style="stroke:#181818;stroke-width:1.0;"/><line style="stroke:#181818;stroke-width:1.0;" x1="262.3965" x2="559.7451" y1="1042.3223" y2="1042.3223"/><text fill="#000000" font-family="sans-serif" font-size="13" font-weight="bold" lengthAdjust="spacing" textLength="14.46" x="269.3965" y="1037.0596">27</text><text fill="#000000" font-family="sans-serif" font-size="13" lengthAdjust="spacing" textLength="216.0679" x="287.8564" y="1037.0596">addStationToStartingStations(station)</text><line style="stroke:#181818;stroke-width:1.0;" x1="262.3965" x2="304.3965" y1="1073.6133" y2="1073.6133"/><line style="stroke:#181818;stroke-width:1.0;" x1="304.3965" x2="304.3965" y1="1073.6133" y2="1086.6133"/><line style="stroke:#181818;stroke-width:1.0;" x1="263.3965" x2="304.3965" y1="1086.6133" y2="1086.6133"/><polygon fill="#181818" points="273.3965,1082.6133,263.3965,1086.6133,273.3965,1090.6133,269.3965,1086.6133" style="stroke:#181818;stroke-width:1.0;"/><text fill="#000000" font-family="sans-serif" font-size="13" font-weight="bold" lengthAdjust="spacing" textLength="14.46" x="269.3965" y="1068.3506">28</text><text fill="#000000" font-family="sans-serif" font-size="13" lengthAdjust="spacing" textLength="146.6816" x="287.8564" y="1068.3506">chooseTheNextStations()</text><path d="M143.6279,1101.6133 L216.0625,1101.6133 L216.0625,1110.9043 L206.0625,1120.9043 L143.6279,1120.9043 L143.6279,1101.6133 " fill="#EEEEEE" style="stroke:#000000;stroke-width:1.5;"/><rect fill="none" height="350.832" style="stroke:#000000;stroke-width:1.5;" width="794.1621" x="143.6279" y="1101.6133"/><text fill="#000000" font-family="sans-serif" font-size="13" font-weight="bold" lengthAdjust="spacing" textLength="27.4346" x="158.6279" y="1116.6416">loop</text><text fill="#000000" font-family="sans-serif" font-size="11" font-weight="bold" lengthAdjust="spacing" textLength="109.4199" x="231.0625" y="1115.4834">[select next stations]</text><polygon fill="#181818" points="553.7451,1140.1953,563.7451,1144.1953,553.7451,1148.1953,557.7451,1144.1953" style="stroke:#181818;stroke-width:1.0;"/><line style="stroke:#181818;stroke-width:1.0;" x1="262.3965" x2="559.7451" y1="1144.1953" y2="1144.1953"/><text fill="#000000" font-family="sans-serif" font-size="13" font-weight="bold" lengthAdjust="spacing" textLength="14.46" x="269.3965" y="1138.9326">29</text><text fill="#000000" font-family="sans-serif" font-size="13" lengthAdjust="spacing" textLength="136.5762" x="287.8564" y="1138.9326">getLastStartingStation()</text><polygon fill="#181818" points="553.7451,1171.4863,563.7451,1175.4863,553.7451,1179.4863,557.7451,1175.4863" style="stroke:#181818;stroke-width:1.0;"/><line style="stroke:#181818;stroke-width:1.0;" x1="262.3965" x2="559.7451" y1="1175.4863" y2="1175.4863"/><text fill="#000000" font-family="sans-serif" font-size="13" font-weight="bold" lengthAdjust="spacing" textLength="14.46" x="269.3965" y="1170.2236">30</text><text fill="#000000" font-family="sans-serif" font-size="13" lengthAdjust="spacing" textLength="260.8887" x="287.8564" y="1170.2236">getStationsConnectedAnotherStation(station)</text><polygon fill="#181818" points="809.8281,1202.7773,819.8281,1206.7773,809.8281,1210.7773,813.8281,1206.7773" style="stroke:#181818;stroke-width:1.0;"/><line style="stroke:#181818;stroke-width:1.0;" x1="565.7451" x2="815.8281" y1="1206.7773" y2="1206.7773"/><text fill="#000000" font-family="sans-serif" font-size="13" font-weight="bold" lengthAdjust="spacing" textLength="14.46" x="572.7451" y="1201.5146">31</text><text fill="#000000" font-family="sans-serif" font-size="13" lengthAdjust="spacing" textLength="112.0234" x="591.2051" y="1201.5146">get connected lines</text><polygon fill="#181818" points="726.2939,1234.0684,736.2939,1238.0684,726.2939,1242.0684,730.2939,1238.0684" style="stroke:#181818;stroke-width:1.0;"/><line style="stroke:#181818;stroke-width:1.0;" x1="565.7451" x2="732.2939" y1="1238.0684" y2="1238.0684"/><text fill="#000000" font-family="sans-serif" font-size="13" font-weight="bold" lengthAdjust="spacing" textLength="14.46" x="572.7451" y="1232.8057">32</text><text fill="#000000" font-family="sans-serif" font-size="13" lengthAdjust="spacing" textLength="130.0889" x="591.2051" y="1232.8057">get connected stations</text><polygon fill="#181818" points="553.7451,1265.3594,563.7451,1269.3594,553.7451,1273.3594,557.7451,1269.3594" style="stroke:#181818;stroke-width:1.0;"/><line style="stroke:#181818;stroke-width:1.0;" x1="262.3965" x2="559.7451" y1="1269.3594" y2="1269.3594"/><text fill="#000000" font-family="sans-serif" font-size="13" font-weight="bold" lengthAdjust="spacing" textLength="14.46" x="269.3965" y="1264.0967">33</text><text fill="#000000" font-family="sans-serif" font-size="13" lengthAdjust="spacing" textLength="246.3906" x="287.8564" y="1264.0967">removeStationsInList(list, alreadySelected)</text><path d="M153.6279,1284.3594 L213.7988,1284.3594 L213.7988,1293.6504 L203.7988,1303.6504 L153.6279,1303.6504 L153.6279,1284.3594 " fill="#EEEEEE" style="stroke:#000000;stroke-width:1.5;"/><rect fill="none" height="161.0859" style="stroke:#000000;stroke-width:1.5;" width="774.1621" x="153.6279" y="1284.3594"/><text fill="#000000" font-family="sans-serif" font-size="13" font-weight="bold" lengthAdjust="spacing" textLength="15.1709" x="168.6279" y="1299.3877">alt</text><text fill="#000000" font-family="sans-serif" font-size="11" font-weight="bold" lengthAdjust="spacing" textLength="150.3477" x="228.7988" y="1298.2295">[more than one valid station]</text><polygon fill="#181818" points="885.1797,1322.9414,895.1797,1326.9414,885.1797,1330.9414,889.1797,1326.9414" style="stroke:#181818;stroke-width:1.0;"/><line style="stroke:#181818;stroke-width:1.0;" x1="262.3965" x2="891.1797" y1="1326.9414" y2="1326.9414"/><text fill="#000000" font-family="sans-serif" font-size="13" font-weight="bold" lengthAdjust="spacing" textLength="14.46" x="269.3965" y="1321.6787">34</text><text fill="#000000" font-family="sans-serif" font-size="13" lengthAdjust="spacing" textLength="135.8398" x="287.8564" y="1321.6787">printMenu(current path)</text><polygon fill="#181818" points="885.1797,1354.2324,895.1797,1358.2324,885.1797,1362.2324,889.1797,1358.2324" style="stroke:#181818;stroke-width:1.0;"/><line style="stroke:#181818;stroke-width:1.0;" x1="262.3965" x2="891.1797" y1="1358.2324" y2="1358.2324"/><text fill="#000000" font-family="sans-serif" font-size="13" font-weight="bold" lengthAdjust="spacing" textLength="14.46" x="269.3965" y="1352.9697">35</text><text fill="#000000" font-family="sans-serif" font-size="13" lengthAdjust="spacing" textLength="252.916" x="287.8564" y="1352.9697">chooseOptionPrintMenuAndManualReturn()</text><polygon fill="#181818" points="553.7451,1385.5234,563.7451,1389.5234,553.7451,1393.5234,557.7451,1389.5234" style="stroke:#181818;stroke-width:1.0;"/><line style="stroke:#181818;stroke-width:1.0;" x1="262.3965" x2="559.7451" y1="1389.5234" y2="1389.5234"/><text fill="#000000" font-family="sans-serif" font-size="13" font-weight="bold" lengthAdjust="spacing" textLength="14.46" x="269.3965" y="1384.2607">36</text><text fill="#000000" font-family="sans-serif" font-size="13" lengthAdjust="spacing" textLength="216.0679" x="287.8564" y="1384.2607">addStationToStartingStations(station)</text><line style="stroke:#000000;stroke-width:1.0;stroke-dasharray:2.0,2.0;" x1="153.6279" x2="927.79" y1="1398.5234" y2="1398.5234"/><text fill="#000000" font-family="sans-serif" font-size="11" font-weight="bold" lengthAdjust="spacing" textLength="119.7861" x="158.6279" y="1410.3936">[only one valid station]</text><polygon fill="#181818" points="553.7451,1433.4453,563.7451,1437.4453,553.7451,1441.4453,557.7451,1437.4453" style="stroke:#181818;stroke-width:1.0;"/><line style="stroke:#181818;stroke-width:1.0;" x1="262.3965" x2="559.7451" y1="1437.4453" y2="1437.4453"/><text fill="#000000" font-family="sans-serif" font-size="13" font-weight="bold" lengthAdjust="spacing" textLength="14.46" x="269.3965" y="1432.1826">37</text><text fill="#000000" font-family="sans-serif" font-size="13" lengthAdjust="spacing" textLength="216.0679" x="287.8564" y="1432.1826">addStationToStartingStations(station)</text><polygon fill="#181818" points="548.7451,1478.7363,558.7451,1482.7363,548.7451,1486.7363,552.7451,1482.7363" style="stroke:#181818;stroke-width:1.0;"/><line style="stroke:#181818;stroke-width:1.0;" x1="262.3965" x2="554.7451" y1="1482.7363" y2="1482.7363"/><text fill="#000000" font-family="sans-serif" font-size="13" font-weight="bold" lengthAdjust="spacing" textLength="14.46" x="269.3965" y="1477.4736">38</text><text fill="#000000" font-family="sans-serif" font-size="13" lengthAdjust="spacing" textLength="80.9199" x="287.8564" y="1477.4736">setFinalPath()</text><polygon fill="#181818" points="809.8281,1510.0273,819.8281,1514.0273,809.8281,1518.0273,813.8281,1514.0273" style="stroke:#181818;stroke-width:1.0;"/><line style="stroke:#181818;stroke-width:1.0;" x1="570.7451" x2="815.8281" y1="1514.0273" y2="1514.0273"/><text fill="#000000" font-family="sans-serif" font-size="13" font-weight="bold" lengthAdjust="spacing" textLength="14.46" x="577.7451" y="1508.7646">39</text><text fill="#000000" font-family="sans-serif" font-size="13" lengthAdjust="spacing" textLength="62.8735" x="596.2051" y="1508.7646">check path</text><polygon fill="#181818" points="726.2939,1541.3184,736.2939,1545.3184,726.2939,1549.3184,730.2939,1545.3184" style="stroke:#181818;stroke-width:1.0;"/><line style="stroke:#181818;stroke-width:1.0;" x1="570.7451" x2="732.2939" y1="1545.3184" y2="1545.3184"/><text fill="#000000" font-family="sans-serif" font-size="13" font-weight="bold" lengthAdjust="spacing" textLength="14.46" x="577.7451" y="1540.0557">40</text><text fill="#000000" font-family="sans-serif" font-size="13" lengthAdjust="spacing" textLength="62.8735" x="596.2051" y="1540.0557">check path</text><polygon fill="#181818" points="273.3965,1572.6094,263.3965,1576.6094,273.3965,1580.6094,269.3965,1576.6094" style="stroke:#181818;stroke-width:1.0;"/><line style="stroke:#181818;stroke-width:1.0;stroke-dasharray:2.0,2.0;" x1="267.3965" x2="564.7451" y1="1576.6094" y2="1576.6094"/><text fill="#000000" font-family="sans-serif" font-size="13" font-weight="bold" lengthAdjust="spacing" textLength="14.46" x="279.3965" y="1571.3467">41</text><text fill="#000000" font-family="sans-serif" font-size="13" lengthAdjust="spacing" textLength="53.4727" x="297.8564" y="1571.3467">true/false</text><path d="M153.6279,1591.6094 L213.7988,1591.6094 L213.7988,1600.9004 L203.7988,1610.9004 L153.6279,1610.9004 L153.6279,1591.6094 " fill="#EEEEEE" style="stroke:#000000;stroke-width:1.5;"/><rect fill="none" height="192.377" style="stroke:#000000;stroke-width:1.5;" width="774.1621" x="153.6279" y="1591.6094"/><text fill="#000000" font-family="sans-serif" font-size="13" font-weight="bold" lengthAdjust="spacing" textLength="15.1709" x="168.6279" y="1606.6377">alt</text><text fill="#000000" font-family="sans-serif" font-size="11" font-weight="bold" lengthAdjust="spacing" textLength="84.2993" x="228.7988" y="1605.4795">[path not found]</text><polygon fill="#181818" points="885.1797,1630.1914,895.1797,1634.1914,885.1797,1638.1914,889.1797,1634.1914" style="stroke:#181818;stroke-width:1.0;"/><line style="stroke:#181818;stroke-width:1.0;" x1="262.3965" x2="891.1797" y1="1634.1914" y2="1634.1914"/><text fill="#000000" font-family="sans-serif" font-size="13" font-weight="bold" lengthAdjust="spacing" textLength="14.46" x="269.3965" y="1628.9287">42</text><text fill="#000000" font-family="sans-serif" font-size="13" lengthAdjust="spacing" textLength="132.2217" x="287.8564" y="1628.9287">printMessage(warning)</text><line style="stroke:#000000;stroke-width:1.0;stroke-dasharray:2.0,2.0;" x1="153.6279" x2="927.79" y1="1643.1914" y2="1643.1914"/><text fill="#000000" font-family="sans-serif" font-size="11" font-weight="bold" lengthAdjust="spacing" textLength="64.1416" x="158.6279" y="1655.0615">[path found]</text><polygon fill="#181818" points="553.7451,1678.1133,563.7451,1682.1133,553.7451,1686.1133,557.7451,1682.1133" style="stroke:#181818;stroke-width:1.0;"/><line style="stroke:#181818;stroke-width:1.0;" x1="262.3965" x2="559.7451" y1="1682.1133" y2="1682.1133"/><text fill="#000000" font-family="sans-serif" font-size="13" font-weight="bold" lengthAdjust="spacing" textLength="14.46" x="269.3965" y="1676.8506">43</text><text fill="#000000" font-family="sans-serif" font-size="13" lengthAdjust="spacing" textLength="156.0889" x="287.8564" y="1676.8506">getFinalMaintenancePath()</text><polygon fill="#181818" points="726.2939,1709.4043,736.2939,1713.4043,726.2939,1717.4043,730.2939,1713.4043" style="stroke:#181818;stroke-width:1.0;"/><line style="stroke:#181818;stroke-width:1.0;" x1="565.7451" x2="732.2939" y1="1713.4043" y2="1713.4043"/><text fill="#000000" font-family="sans-serif" font-size="13" font-weight="bold" lengthAdjust="spacing" textLength="14.46" x="572.7451" y="1708.1416">44</text><text fill="#000000" font-family="sans-serif" font-size="13" lengthAdjust="spacing" textLength="95.3989" x="591.2051" y="1708.1416">get path stations</text><polygon fill="#181818" points="553.7451,1740.6953,563.7451,1744.6953,553.7451,1748.6953,557.7451,1744.6953" style="stroke:#181818;stroke-width:1.0;"/><line style="stroke:#181818;stroke-width:1.0;" x1="262.3965" x2="559.7451" y1="1744.6953" y2="1744.6953"/><text fill="#000000" font-family="sans-serif" font-size="13" font-weight="bold" lengthAdjust="spacing" textLength="14.46" x="269.3965" y="1739.4326">45</text><text fill="#000000" font-family="sans-serif" font-size="13" lengthAdjust="spacing" textLength="154.6099" x="287.8564" y="1739.4326">convertStationsToNames()</text><polygon fill="#181818" points="885.1797,1771.9863,895.1797,1775.9863,885.1797,1779.9863,889.1797,1775.9863" style="stroke:#181818;stroke-width:1.0;"/><line style="stroke:#181818;stroke-width:1.0;" x1="262.3965" x2="891.1797" y1="1775.9863" y2="1775.9863"/><text fill="#000000" font-family="sans-serif" font-size="13" font-weight="bold" lengthAdjust="spacing" textLength="14.46" x="269.3965" y="1770.7236">46</text><text fill="#000000" font-family="sans-serif" font-size="13" lengthAdjust="spacing" textLength="119.228" x="287.8564" y="1770.7236">printMenu(final path)</text><polygon fill="#181818" points="548.7451,1810.2773,558.7451,1814.2773,548.7451,1818.2773,552.7451,1814.2773" style="stroke:#181818;stroke-width:1.0;"/><line style="stroke:#181818;stroke-width:1.0;" x1="262.3965" x2="554.7451" y1="1814.2773" y2="1814.2773"/><text fill="#000000" font-family="sans-serif" font-size="13" font-weight="bold" lengthAdjust="spacing" textLength="14.46" x="269.3965" y="1809.0146">47</text><text fill="#000000" font-family="sans-serif" font-size="13" lengthAdjust="spacing" textLength="186.3862" x="287.8564" y="1809.0146">visualisationOfRailwayNetwork()</text><polygon fill="#181818" points="885.1797,1841.5684,895.1797,1845.5684,885.1797,1849.5684,889.1797,1845.5684" style="stroke:#181818;stroke-width:1.0;"/><line style="stroke:#181818;stroke-width:1.0;" x1="570.7451" x2="891.1797" y1="1845.5684" y2="1845.5684"/><text fill="#000000" font-family="sans-serif" font-size="13" font-weight="bold" lengthAdjust="spacing" textLength="14.46" x="577.7451" y="1840.3057">48</text><text fill="#000000" font-family="sans-serif" font-size="13" lengthAdjust="spacing" textLength="204.439" x="596.2051" y="1840.3057">visualizeRailwayNetworkStream(...)</text><polygon fill="#181818" points="885.1797,1872.8594,895.1797,1876.8594,885.1797,1880.8594,889.1797,1876.8594" style="stroke:#181818;stroke-width:1.0;"/><line style="stroke:#181818;stroke-width:1.0;" x1="565.7451" x2="891.1797" y1="1876.8594" y2="1876.8594"/><text fill="#000000" font-family="sans-serif" font-size="13" font-weight="bold" lengthAdjust="spacing" textLength="14.46" x="572.7451" y="1871.5967">49</text><text fill="#000000" font-family="sans-serif" font-size="13" lengthAdjust="spacing" textLength="183.4854" x="591.2051" y="1871.5967">visualizeRailwayNetworkFile(...)</text><!--SRC=[hLTDR-8m4BtpAwoUGDhjtdjO2NNR5L9A4QHTzJXD1h0mTjPsQEcltx7pGG99I9VcW2AOD_FcuusDsN2PW8OjIo3Qm0eNTY-GQOmio9N0WIaDp1fYzSRbYYr161mC8BLAfjjNrFGUMQNPrKp07lKL0yDcmVZbRZuWhEKHJq1QTdNp05nQb20Zd0CNRx0FkCIdYKSyJNfPtoffjH8YZtCRpeCwRc71SYNzhujm74uUftM3YZDlD1zFWZ_Zbs0olQiRFbakJCOjd0GBdoRVWSKYEqPFzig-_wG4s0sLxc-AnZAT1M62eh3j8HEFAVrGpluBzn2SdBXyoCqAxLW8Hz4CHwL9YVDPiyhZOGIlv49U88hG6E90XDJISp4Di89xirsCzR2jX1Vy0_FY1-JfKxppHfroDfd3BjhP43OQd-7kuT5QALETi72VO8LyBKs3jc9flAcbZnRp9HSMzGbYr594RgRA_jQGh6dA9OaGumkw7wqnsh0eyzHImshbC_iTDvpYzYcyrId-oBR1sOA3i6pbCcDIsO8KnZNlULESriXxeaaq3pGBj9Q6Rw0bxPvHpRuIh298zo1noiDzEbG963KW3cFm38B7-RYRibt7YZr1HY2YL13bPzGMtt_XIcCtWcBTfRJkECWPsFNHT7OFHg-UTVQjw9thMgACuQzqFXHyc5QfnPE87SNbsym95zpkMMDNkpjRTlSBo6G3KfTlwuAOI6uvYBpZmpR4OHtw0QcZJ0EiktdDIYNlREVSDwkqUxkV0NPEmacU41SQ21MzqE4fLsMoUOmUnGtNECLtsr4ceLH2KX2aCYR9j3lpuru4OEmHlOOOZOVQiSB7f8Grwi9BQuxjUzbrhrmo3OToTzyFoFuLqBXLk-9iDfFiU7Rpy8sqhH7Y_S9NzdZdLHV0LcbaTaqwKtIZgGrH8wPLUp8THgdMI3UiXFRPg2Sw6vJ7n0MS5Px6Cdu0cOAOeqrrMq-_Q6hBrQEas7-w2fU7bl6WwRjkWTBfSSyb27TqNBHzckuMhdyzHxSNuCmXrMizkLbrOVo9jLHfGzN-vwvnE7USxtD-3_l35x_oJwQb3-rwz_7wIvtMmuvk5iL8XMeAMpITo-vKdqj7kaMTvqUERf2aI6uyWyTbVlkTedrJUdFH31PCymWVMFUziBJBjiFhw-lH9MxkkS1c9yV3roRFuhrYJ__qJYyr_m00]--></g></svg>