<svg xmlns="http://www.w3.org/2000/svg" xmlns:xlink="http://www.w3.org/1999/xlink" contentStyleType="text/css" height="678px" preserveAspectRatio="none" style="width:1258px;height:678px;background:#FFFFFF;" version="1.1" viewBox="0 0 1258 678" width="1258px" zoomAndPan="magnify"><title>Relevant Domain Model excerpt for US10 - Assign train to route</title><defs/><g><text fill="#000000" font-family="sans-serif" font-size="14" font-weight="bold" lengthAdjust="spacing" textLength="422.4131" x="411.0234" y="25.1074">Relevant Domain Model excerpt for US10 - Assign train to route</text><!--class Player--><g id="elem_Player"><rect codeLine="12" fill="#F1F1F1" height="73.8633" id="Player" rx="2.5" ry="2.5" style="stroke:#181818;stroke-width:0.5;" width="109.2617" x="428" y="55.6211"/><text fill="#000000" font-family="sans-serif" font-size="14" lengthAdjust="spacing" textLength="39.6826" x="462.7896" y="75.7285">Player</text><line style="stroke:#181818;stroke-width:0.5;" x1="429" x2="536.2617" y1="84.2422" y2="84.2422"/><text fill="#000000" font-family="sans-serif" font-size="14" lengthAdjust="spacing" textLength="97.2617" x="434" y="103.3496">username: Text</text><text fill="#000000" font-family="sans-serif" font-size="14" lengthAdjust="spacing" textLength="94.9238" x="434" y="121.9707">password: Text</text></g><!--class Train--><g id="elem_Train"><rect codeLine="17" fill="#F1F1F1" height="92.4844" id="Train" rx="2.5" ry="2.5" style="stroke:#181818;stroke-width:0.5;" width="181.6475" x="755.5" y="46.6211"/><text fill="#000000" font-family="sans-serif" font-size="14" lengthAdjust="spacing" textLength="31.8965" x="830.3755" y="66.7285">Train</text><line style="stroke:#181818;stroke-width:0.5;" x1="756.5" x2="936.1475" y1="75.2422" y2="75.2422"/><text fill="#000000" font-family="sans-serif" font-size="14" lengthAdjust="spacing" textLength="70.0273" x="761.5" y="94.3496">name: Text</text><text fill="#000000" font-family="sans-serif" font-size="14" lengthAdjust="spacing" textLength="169.6475" x="761.5" y="112.9707">startYearOperation: Integer</text><text fill="#000000" font-family="sans-serif" font-size="14" lengthAdjust="spacing" textLength="156.3926" x="761.5" y="131.5918">acquisitionPrice: Decimal</text></g><!--class Locomotive--><g id="elem_Locomotive"><rect codeLine="23" fill="#F1F1F1" height="148.3477" id="Locomotive" rx="2.5" ry="2.5" style="stroke:#181818;stroke-width:0.5;" width="181.6475" x="860.5" y="370.6211"/><text fill="#000000" font-family="sans-serif" font-size="14" lengthAdjust="spacing" textLength="71.5928" x="915.5273" y="390.7285">Locomotive</text><line style="stroke:#181818;stroke-width:0.5;" x1="861.5" x2="1041.1475" y1="399.2422" y2="399.2422"/><text fill="#000000" font-family="sans-serif" font-size="14" lengthAdjust="spacing" textLength="70.0273" x="866.5" y="418.3496">name: Text</text><text fill="#000000" font-family="sans-serif" font-size="14" lengthAdjust="spacing" textLength="96.4756" x="866.5" y="436.9707">power: Decimal</text><text fill="#000000" font-family="sans-serif" font-size="14" lengthAdjust="spacing" textLength="133.834" x="866.5" y="455.5918">acceleration: Decimal</text><text fill="#000000" font-family="sans-serif" font-size="14" lengthAdjust="spacing" textLength="118.2891" x="866.5" y="474.2129">topSpeed: Decimal</text><text fill="#000000" font-family="sans-serif" font-size="14" lengthAdjust="spacing" textLength="169.6475" x="866.5" y="492.834">startYearOperation: Integer</text><text fill="#000000" font-family="sans-serif" font-size="14" lengthAdjust="spacing" textLength="156.3926" x="866.5" y="511.4551">acquisitionPrice: Decimal</text></g><!--class Carriage--><g id="elem_Carriage"><rect codeLine="32" fill="#F1F1F1" height="73.8633" id="Carriage" rx="2.5" ry="2.5" style="stroke:#181818;stroke-width:0.5;" width="181.6475" x="594.5" y="217.6211"/><text fill="#000000" font-family="sans-serif" font-size="14" lengthAdjust="spacing" textLength="53.6895" x="658.479" y="237.7285">Carriage</text><line style="stroke:#181818;stroke-width:0.5;" x1="595.5" x2="775.1475" y1="246.2422" y2="246.2422"/><text fill="#000000" font-family="sans-serif" font-size="14" lengthAdjust="spacing" textLength="70.0273" x="600.5" y="265.3496">name: Text</text><text fill="#000000" font-family="sans-serif" font-size="14" lengthAdjust="spacing" textLength="169.6475" x="600.5" y="283.9707">startYearOperation: Integer</text></g><!--class route--><g id="elem_Route"><rect codeLine="37" fill="#F1F1F1" height="73.8633" id="Route" rx="2.5" ry="2.5" style="stroke:#181818;stroke-width:0.5;" width="110.041" x="302.5" y="217.6211"/><text fill="#000000" font-family="sans-serif" font-size="14" lengthAdjust="spacing" textLength="37.3584" x="338.8413" y="237.7285">Route</text><line style="stroke:#181818;stroke-width:0.5;" x1="303.5" x2="411.541" y1="246.2422" y2="246.2422"/><text fill="#000000" font-family="sans-serif" font-size="14" lengthAdjust="spacing" textLength="70.0273" x="308.5" y="265.3496">name: Text</text><text fill="#000000" font-family="sans-serif" font-size="14" lengthAdjust="spacing" textLength="98.041" x="308.5" y="283.9707">routeType: Text</text></g><!--class Cargo--><g id="elem_Cargo"><rect codeLine="42" fill="#F1F1F1" height="55.2422" id="Cargo" rx="2.5" ry="2.5" style="stroke:#181818;stroke-width:0.5;" width="113.1514" x="455" y="417.1211"/><text fill="#000000" font-family="sans-serif" font-size="14" lengthAdjust="spacing" textLength="38.1309" x="492.5103" y="437.2285">Cargo</text><line style="stroke:#181818;stroke-width:0.5;" x1="456" x2="567.1514" y1="445.7422" y2="445.7422"/><text fill="#000000" font-family="sans-serif" font-size="14" lengthAdjust="spacing" textLength="101.1514" x="461" y="464.8496">cargoType: Text</text></g><!--class Fuel--><g id="elem_Fuel"><rect codeLine="46" fill="#F1F1F1" height="55.2422" id="Fuel" rx="2.5" ry="2.5" style="stroke:#181818;stroke-width:0.5;" width="104.5996" x="1063" y="227.1211"/><text fill="#000000" font-family="sans-serif" font-size="14" lengthAdjust="spacing" textLength="27.2344" x="1101.6826" y="247.2285">Fuel</text><line style="stroke:#181818;stroke-width:0.5;" x1="1064" x2="1166.5996" y1="255.7422" y2="255.7422"/><text fill="#000000" font-family="sans-serif" font-size="14" lengthAdjust="spacing" textLength="92.5996" x="1069" y="274.8496">fuelType: Type</text></g><!--class Station--><g id="elem_Station"><rect codeLine="50" fill="#F1F1F1" height="92.4844" id="Station" rx="2.5" ry="2.5" style="stroke:#181818;stroke-width:0.5;" width="181.6133" x="157.5" y="398.6211"/><text fill="#000000" font-family="sans-serif" font-size="14" lengthAdjust="spacing" textLength="43.5859" x="226.5137" y="418.7285">Station</text><line style="stroke:#181818;stroke-width:0.5;" x1="158.5" x2="338.1133" y1="427.2422" y2="427.2422"/><text fill="#000000" font-family="sans-serif" font-size="14" lengthAdjust="spacing" textLength="70.0273" x="163.5" y="446.3496">name: Text</text><text fill="#000000" font-family="sans-serif" font-size="14" lengthAdjust="spacing" textLength="169.6133" x="163.5" y="464.9707">constructionCosts: Decimal</text><text fill="#000000" font-family="sans-serif" font-size="14" lengthAdjust="spacing" textLength="111.2754" x="163.5" y="483.5918">stationType: Type</text></g><!--class Size--><g id="elem_Size"><rect codeLine="56" fill="#F1F1F1" height="73.8633" id="Size" rx="2.5" ry="2.5" style="stroke:#181818;stroke-width:0.5;" width="101.5098" x="197.5" y="597.6211"/><text fill="#000000" font-family="sans-serif" font-size="14" lengthAdjust="spacing" textLength="27.2344" x="234.6377" y="617.7285">Size</text><line style="stroke:#181818;stroke-width:0.5;" x1="198.5" x2="298.0098" y1="626.2422" y2="626.2422"/><text fill="#000000" font-family="sans-serif" font-size="14" lengthAdjust="spacing" textLength="84.0479" x="203.5" y="645.3496">width: Integer</text><text fill="#000000" font-family="sans-serif" font-size="14" lengthAdjust="spacing" textLength="89.5098" x="203.5" y="663.9707">height: Integer</text></g><!--class Position--><g id="elem_Position"><rect codeLine="61" fill="#F1F1F1" height="73.8633" id="Position" rx="2.5" ry="2.5" style="stroke:#181818;stroke-width:0.5;" width="120.958" x="922" y="597.6211"/><text fill="#000000" font-family="sans-serif" font-size="14" lengthAdjust="spacing" textLength="49.8066" x="957.5757" y="617.7285">Position</text><line style="stroke:#181818;stroke-width:0.5;" x1="923" x2="1041.958" y1="626.2422" y2="626.2422"/><text fill="#000000" font-family="sans-serif" font-size="14" lengthAdjust="spacing" textLength="108.958" x="928" y="645.3496">Xposition: Integer</text><text fill="#000000" font-family="sans-serif" font-size="14" lengthAdjust="spacing" textLength="108.958" x="928" y="663.9707">Yposition: Integer</text></g><!--class FuelType--><g id="elem_FuelType"><rect codeLine="68" fill="#F1F1F1" height="92.4844" id="FuelType" rx="2.5" ry="2.5" style="stroke:#181818;stroke-width:0.5;" width="71.8965" x="1079.5" y="398.6211"/><text fill="#000000" font-family="sans-serif" font-size="14" font-style="italic" lengthAdjust="spacing" textLength="58.3584" x="1086.269" y="418.7285">FuelType</text><line style="stroke:#181818;stroke-width:0.5;" x1="1080.5" x2="1150.3965" y1="427.2422" y2="427.2422"/><text fill="#000000" font-family="sans-serif" font-size="14" lengthAdjust="spacing" textLength="40.4619" x="1085.5" y="446.3496">Steam</text><text fill="#000000" font-family="sans-serif" font-size="14" lengthAdjust="spacing" textLength="38.9033" x="1085.5" y="464.9707">Diesel</text><text fill="#000000" font-family="sans-serif" font-size="14" lengthAdjust="spacing" textLength="59.8965" x="1085.5" y="483.5918">Electricity</text></g><!--class StationType--><g id="elem_StationType"><rect codeLine="74" fill="#F1F1F1" height="92.4844" id="StationType" rx="2.5" ry="2.5" style="stroke:#181818;stroke-width:0.5;" width="80.71" x="7" y="398.6211"/><text fill="#000000" font-family="sans-serif" font-size="14" font-style="italic" lengthAdjust="spacing" textLength="74.71" x="10" y="418.7285">StationType</text><line style="stroke:#181818;stroke-width:0.5;" x1="8" x2="86.71" y1="427.2422" y2="427.2422"/><text fill="#000000" font-family="sans-serif" font-size="14" lengthAdjust="spacing" textLength="44.3584" x="13" y="446.3496">Depots</text><text fill="#000000" font-family="sans-serif" font-size="14" lengthAdjust="spacing" textLength="50.5859" x="13" y="464.9707">Stations</text><text fill="#000000" font-family="sans-serif" font-size="14" lengthAdjust="spacing" textLength="61.4551" x="13" y="483.5918">Terminals</text></g><!--link Player to Station--><g id="link_Player_Station"><path codeLine="83" d="M427.75,96.9111 C354.89,104.6611 229.34,130.6411 178.5,217.6211 C144.82,275.2511 182.1,350.7811 213.83,398.2611 " fill="none" id="Player-Station" style="stroke:#181818;stroke-width:1.0;"/><polygon fill="#000000" points="180.6057,258.8438,188.238,253.1693,183.445,249.7669,180.6057,258.8438" style="stroke:#000000;stroke-width:1.0;"/><text fill="#000000" font-family="sans-serif" font-size="13" lengthAdjust="spacing" textLength="91.7808" x="192.5" y="260.1494">build / manages</text><text fill="#000000" font-family="sans-serif" font-size="13" lengthAdjust="spacing" textLength="7.23" x="398.4165" y="93.4274">1</text><text fill="#000000" font-family="sans-serif" font-size="13" lengthAdjust="spacing" textLength="5.0591" x="192.0199" y="387.2177">*</text></g><!--link Player to Train--><g id="link_Player_Train"><path codeLine="84" d="M537.39,92.6211 C595.08,92.6211 686.82,92.6211 755.39,92.6211 " fill="none" id="Player-Train" style="stroke:#181818;stroke-width:1.0;"/><polygon fill="#000000" points="633.75,80.2666,624.7049,77.3277,624.7049,83.2055,633.75,80.2666" style="stroke:#000000;stroke-width:1.0;"/><text fill="#000000" font-family="sans-serif" font-size="13" lengthAdjust="spacing" textLength="30.3481" x="637.75" y="85.6494">owns</text><text fill="#000000" font-family="sans-serif" font-size="13" lengthAdjust="spacing" textLength="7.23" x="545.234" y="88.536">1</text><text fill="#000000" font-family="sans-serif" font-size="13" lengthAdjust="spacing" textLength="5.0591" x="742.3631" y="88.9106">*</text></g><!--link Player to route--><g id="link_Player_Route"><path codeLine="85" d="M427.92,97.0311 C379.69,103.2811 311.97,120.6511 278.5,168.6211 C264.72,188.3611 281.02,208.2011 302.32,223.7311 " fill="none" id="Player-Route" style="stroke:#181818;stroke-width:1.0;"/><polygon fill="#000000" points="279.9799,181.8175,288.435,177.4629,284.2606,173.3248,279.9799,181.8175" style="stroke:#000000;stroke-width:1.0;"/><text fill="#000000" font-family="sans-serif" font-size="13" lengthAdjust="spacing" textLength="42.6309" x="292.5" y="183.6494">creates</text><text fill="#000000" font-family="sans-serif" font-size="13" lengthAdjust="spacing" textLength="7.23" x="409.2118" y="112.987">1</text><text fill="#000000" font-family="sans-serif" font-size="13" lengthAdjust="spacing" textLength="5.0591" x="274.8099" y="215.9848">*</text></g><!--link Player to Locomotive--><g id="link_Player_Locomotive"><path codeLine="86" d="M474.76,129.6511 C467.68,172.9011 463.15,245.3711 499.5,291.6211 C585.95,401.6311 755.24,432.6411 860.33,441.0011 " fill="none" id="Player-Locomotive" style="stroke:#181818;stroke-width:1.0;"/><polygon fill="#000000" points="508.3901,257.9078,503.1993,249.9388,499.5065,254.5118,508.3901,257.9078" style="stroke:#000000;stroke-width:1.0;"/><text fill="#000000" font-family="sans-serif" font-size="13" lengthAdjust="spacing" textLength="62.1436" x="513.5" y="260.1494">buy / owns</text><text fill="#000000" font-family="sans-serif" font-size="13" lengthAdjust="spacing" textLength="7.23" x="462.6202" y="151.5416">1</text><text fill="#000000" font-family="sans-serif" font-size="13" lengthAdjust="spacing" textLength="5.0591" x="847.2979" y="436.9854">*</text></g><!--link Player to Carriage--><g id="link_Player_Carriage"><path codeLine="87" d="M528.31,129.7311 C561.52,155.9011 606.25,191.1611 639.51,217.3711 " fill="none" id="Player-Carriage" style="stroke:#181818;stroke-width:1.0;"/><polygon fill="#000000" points="605.427,181.3616,600.1422,173.4545,596.5038,178.0709,605.427,181.3616" style="stroke:#000000;stroke-width:1.0;"/><text fill="#000000" font-family="sans-serif" font-size="13" lengthAdjust="spacing" textLength="30.3481" x="610.5" y="183.6494">owns</text><text fill="#000000" font-family="sans-serif" font-size="13" lengthAdjust="spacing" textLength="7.23" x="528.5793" y="151.6354">1</text><text fill="#000000" font-family="sans-serif" font-size="13" lengthAdjust="spacing" textLength="5.0591" x="625.9094" y="206.2883">*</text></g><!--link Train to Cargo--><g id="link_Train_Cargo"><path codeLine="90" d="M845.02,138.8311 C841.39,182.3411 829.89,247.8011 794.5,291.6211 C735.72,364.4011 632.46,407.0711 568.25,427.8311 " fill="none" id="Train-Cargo" style="stroke:#181818;stroke-width:1.0;"/><polygon fill="#000000" points="832.0417,258.3777,840.4204,253.8779,836.1753,249.8124,832.0417,258.3777" style="stroke:#000000;stroke-width:1.0;"/><text fill="#000000" font-family="sans-serif" font-size="13" lengthAdjust="spacing" textLength="20.96" x="844.5" y="260.1494">has</text><text fill="#000000" font-family="sans-serif" font-size="13" lengthAdjust="spacing" textLength="18.0718" x="817.9289" y="161.2221">0,1</text><text fill="#000000" font-family="sans-serif" font-size="13" lengthAdjust="spacing" textLength="5.0591" x="576.2055" y="421.4644">*</text></g><!--link Train to Fuel--><g id="link_Train_Fuel"><path codeLine="91" d="M926.06,138.6211 C943.09,148.4111 960.94,158.7811 977.5,168.6211 C1009.8,187.8011 1045.94,210.1011 1073.13,227.0411 " fill="none" id="Train-Fuel" style="stroke:#181818;stroke-width:1.0;"/><polygon fill="#000000" points="1016.7852,180.8429,1010.5475,173.6636,1007.5189,178.7011,1016.7852,180.8429" style="stroke:#000000;stroke-width:1.0;"/><text fill="#000000" font-family="sans-serif" font-size="13" lengthAdjust="spacing" textLength="65.019" x="1021.5" y="183.6494">moves with</text><text fill="#000000" font-family="sans-serif" font-size="13" lengthAdjust="spacing" textLength="5.0591" x="932.8913" y="160.9799">*</text><text fill="#000000" font-family="sans-serif" font-size="13" lengthAdjust="spacing" textLength="7.23" x="1040.0284" y="215.7316">1</text></g><!--link Train to Locomotive--><g id="link_Train_Locomotive"><path codeLine="92" d="M862.95,138.7311 C871.28,162.1511 881.33,191.2911 889.5,217.6211 C905.23,268.3311 921.03,326.0711 932.75,370.4911 " fill="none" id="Train-Locomotive" style="stroke:#181818;stroke-width:1.0;"/><polygon fill="#000000" points="916.9419,259.5542,917.1476,250.0458,911.5194,251.7409,916.9419,259.5542" style="stroke:#000000;stroke-width:1.0;"/><text fill="#000000" font-family="sans-serif" font-size="13" lengthAdjust="spacing" textLength="61.4136" x="924.5" y="260.1494">consists of</text><text fill="#000000" font-family="sans-serif" font-size="13" lengthAdjust="spacing" textLength="18.0718" x="874.6562" y="161.1068">0,1</text><text fill="#000000" font-family="sans-serif" font-size="13" lengthAdjust="spacing" textLength="18.0718" x="904.7057" y="359.3827">1,2</text></g><!--link Train to Carriage--><g id="link_Train_Carriage"><path codeLine="93" d="M778.6,138.6411 C766.65,147.9011 754.77,158.0711 744.5,168.6211 C730.34,183.1711 717.19,201.4311 706.91,217.3011 " fill="none" id="Train-Carriage" style="stroke:#181818;stroke-width:1.0;"/><polygon fill="#000000" points="746.132,181.9621,754.3969,177.2566,750.0526,173.2972,746.132,181.9621" style="stroke:#000000;stroke-width:1.0;"/><text fill="#000000" font-family="sans-serif" font-size="13" lengthAdjust="spacing" textLength="61.4136" x="758.5" y="183.6494">consists of</text><text fill="#000000" font-family="sans-serif" font-size="13" lengthAdjust="spacing" textLength="18.0718" x="729.4836" y="161.003">0,1</text><text fill="#000000" font-family="sans-serif" font-size="13" lengthAdjust="spacing" textLength="19.5127" x="690.0314" y="206.4909">1..*</text></g><!--link Train to route--><g id="link_Train_Route"><path codeLine="94" d="M755.42,103.4511 C681.62,113.5811 576.06,133.0811 489.5,168.6211 C459.37,180.9911 428.61,200.3311 404.37,217.4411 " fill="none" id="Train-Route" style="stroke:#181818;stroke-width:1.0;"/><polygon fill="#000000" points="489.7444,179.8108,499.255,179.8126,497.4397,174.2221,489.7444,179.8108" style="stroke:#000000;stroke-width:1.0;"/><text fill="#000000" font-family="sans-serif" font-size="13" lengthAdjust="spacing" textLength="66.4917" x="503.5" y="183.6494">assigned to</text><text fill="#000000" font-family="sans-serif" font-size="13" lengthAdjust="spacing" textLength="5.0591" x="742.3957" y="119.1323">*</text><text fill="#000000" font-family="sans-serif" font-size="13" lengthAdjust="spacing" textLength="7.23" x="405.1121" y="206.3708">1</text></g><!--link Train to Position--><g id="link_Train_Position"><path codeLine="95" d="M937.62,97.0411 C1019.87,105.7411 1135.4,133.3011 1185.5,217.6211 C1216.52,269.8411 1241.26,400.2311 1169.5,518.6211 C1141.25,565.2311 1086.21,595.6511 1043.13,613.4211 " fill="none" id="Train-Position" style="stroke:#181818;stroke-width:1.0;"/><polygon fill="#000000" points="1221.501,336.1654,1222.5696,326.7151,1216.8108,327.8917,1221.501,336.1654" style="stroke:#000000;stroke-width:1.0;"/><text fill="#000000" font-family="sans-serif" font-size="13" lengthAdjust="spacing" textLength="20.96" x="1229.5" y="336.6494">has</text><text fill="#000000" font-family="sans-serif" font-size="13" lengthAdjust="spacing" textLength="18.0718" x="945.3017" y="93.7496">0,1</text><text fill="#000000" font-family="sans-serif" font-size="13" lengthAdjust="spacing" textLength="5.0591" x="1050.8301" y="606.8558">*</text></g><!--link route to Cargo--><g id="link_Route_Cargo"><path codeLine="98" d="M359.46,291.6611 C361.71,307.6611 366.28,326.1011 375.5,340.6211 C396.14,373.1311 430.88,399.1811 460.09,416.9511 " fill="none" id="Route-Cargo" style="stroke:#181818;stroke-width:1.0;"/><polygon fill="#000000" points="383.631,335.1649,380.2583,326.2724,375.6756,329.9532,383.631,335.1649" style="stroke:#000000;stroke-width:1.0;"/><text fill="#000000" font-family="sans-serif" font-size="13" lengthAdjust="spacing" textLength="66.4917" x="389.5" y="336.6494">assigned to</text><text fill="#000000" font-family="sans-serif" font-size="13" lengthAdjust="spacing" textLength="5.0591" x="354.3687" y="313.5534">*</text><text fill="#000000" font-family="sans-serif" font-size="13" lengthAdjust="spacing" textLength="5.0591" x="443.2871" y="406.0726">*</text></g><!--link route to Station--><g id="link_Route_Station"><path codeLine="99" d="M302.25,281.5911 C277.46,294.5011 252.25,309.8111 245.5,321.6211 C232.36,344.6111 232.77,374.2411 236.63,398.5411 " fill="none" id="Route-Station" style="stroke:#181818;stroke-width:1.0;"/><polygon fill="#000000" points="248.0534,335.6271,255.0424,329.177,249.9163,326.3008,248.0534,335.6271" style="stroke:#000000;stroke-width:1.0;"/><text fill="#000000" font-family="sans-serif" font-size="13" lengthAdjust="spacing" textLength="75.8926" x="259.5" y="336.6494">goes through</text><text fill="#000000" font-family="sans-serif" font-size="13" lengthAdjust="spacing" textLength="5.0591" x="285.6476" y="281.1301">*</text><text fill="#000000" font-family="sans-serif" font-size="13" lengthAdjust="spacing" textLength="19.5127" x="240.5008" y="387.197">2..*</text></g><!--link Fuel to FuelType--><g id="link_Fuel_FuelType"><path codeLine="102" d="M1115.5,282.1611 C1115.5,312.3211 1115.5,362.0711 1115.5,398.3911 " fill="none" id="Fuel-FuelType" style="stroke:#181818;stroke-width:1.0;"/><polygon fill="#000000" points="1120.5,336.2666,1123.4389,327.2215,1117.5611,327.2215,1120.5,336.2666" style="stroke:#000000;stroke-width:1.0;"/><text fill="#000000" font-family="sans-serif" font-size="13" lengthAdjust="spacing" textLength="20.96" x="1129.5" y="336.6494">has</text><text fill="#000000" font-family="sans-serif" font-size="13" lengthAdjust="spacing" textLength="5.0591" x="1105.8033" y="304.5293">*</text><text fill="#000000" font-family="sans-serif" font-size="13" lengthAdjust="spacing" textLength="7.23" x="1104.835" y="387.3667">1</text></g><!--link Fuel to Locomotive--><g id="link_Fuel_Locomotive"><path codeLine="103" d="M1088.51,282.4311 C1076.89,294.2311 1063.29,308.4011 1051.5,321.6211 C1037.65,337.1511 1023.2,354.2211 1009.74,370.5311 " fill="none" id="Fuel-Locomotive" style="stroke:#181818;stroke-width:1.0;"/><polygon fill="#000000" points="1053.1673,334.994,1061.3871,330.21,1057.0053,326.2922,1053.1673,334.994" style="stroke:#000000;stroke-width:1.0;"/><text fill="#000000" font-family="sans-serif" font-size="13" lengthAdjust="spacing" textLength="41.9072" x="1065.5" y="336.6494">powers</text><text fill="#000000" font-family="sans-serif" font-size="13" lengthAdjust="spacing" textLength="7.23" x="1054.947" y="304.4076">1</text><text fill="#000000" font-family="sans-serif" font-size="13" lengthAdjust="spacing" textLength="5.0591" x="1010.7414" y="359.4267">*</text></g><!--link Station to Cargo--><g id="link_Station_Cargo"><path codeLine="106" d="M339.75,444.6211 C378.02,444.6211 421.34,444.6211 454.89,444.6211 " fill="none" id="Station-Cargo" style="stroke:#181818;stroke-width:1.0;"/><polygon fill="#000000" points="366.75,432.2666,357.7049,429.3277,357.7049,435.2055,366.75,432.2666" style="stroke:#000000;stroke-width:1.0;"/><text fill="#000000" font-family="sans-serif" font-size="13" lengthAdjust="spacing" textLength="66.4917" x="370.75" y="437.6494">assigned to</text><text fill="#000000" font-family="sans-serif" font-size="13" lengthAdjust="spacing" textLength="5.0591" x="347.2385" y="440.9644">*</text><text fill="#000000" font-family="sans-serif" font-size="13" lengthAdjust="spacing" textLength="5.0591" x="441.9409" y="440.5105">*</text></g><!--link StationType to Station--><g id="link_StationType_Station"><path codeLine="107" d="M88.18,444.6211 C108.14,444.6211 133.05,444.6211 157.24,444.6211 " fill="none" id="StationType-Station" style="stroke:#181818;stroke-width:1.0;"/><polygon fill="#000000" points="105.25,432.2666,114.2951,435.2055,114.2951,429.3277,105.25,432.2666" style="stroke:#000000;stroke-width:1.0;"/><text fill="#000000" font-family="sans-serif" font-size="13" lengthAdjust="spacing" textLength="20.96" x="119.25" y="437.6494">has</text><text fill="#000000" font-family="sans-serif" font-size="13" lengthAdjust="spacing" textLength="7.23" x="95.8181" y="440.1719">1</text><text fill="#000000" font-family="sans-serif" font-size="13" lengthAdjust="spacing" textLength="5.0591" x="144.494" y="440.9375">*</text></g><!--link Station to Position--><g id="link_Station_Position"><path codeLine="108" d="M339.76,484.2711 C370.45,496.3511 405.13,509.0211 437.5,518.6211 C610.17,569.8211 820.07,607.3911 921.63,624.0611 " fill="none" id="Station-Position" style="stroke:#181818;stroke-width:1.0;"/><polygon fill="#000000" points="624.3617,559.4346,616.2533,554.4641,614.8803,560.1793,624.3617,559.4346" style="stroke:#000000;stroke-width:1.0;"/><text fill="#000000" font-family="sans-serif" font-size="13" lengthAdjust="spacing" textLength="20.96" x="628.5" y="563.6494">has</text><text fill="#000000" font-family="sans-serif" font-size="13" lengthAdjust="spacing" textLength="18.0718" x="347.1397" y="483.5799">0,1</text><text fill="#000000" font-family="sans-serif" font-size="13" lengthAdjust="spacing" textLength="7.23" x="906.8015" y="618.7925">1</text></g><!--link Station to Size--><g id="link_Station_Size"><path codeLine="109" d="M248.5,490.6511 C248.5,523.3511 248.5,567.0111 248.5,597.4511 " fill="none" id="Station-Size" style="stroke:#181818;stroke-width:1.0;"/><polygon fill="#000000" points="253.5,563.2666,256.4389,554.2215,250.5611,554.2215,253.5,563.2666" style="stroke:#000000;stroke-width:1.0;"/><text fill="#000000" font-family="sans-serif" font-size="13" lengthAdjust="spacing" textLength="20.96" x="262.5" y="563.6494">has</text><text fill="#000000" font-family="sans-serif" font-size="13" lengthAdjust="spacing" textLength="5.0591" x="239.2443" y="513.0145">*</text><text fill="#000000" font-family="sans-serif" font-size="13" lengthAdjust="spacing" textLength="7.23" x="237.728" y="586.3825">1</text></g><!--SRC=[hLNVRzem47xFNt7Y1GbrNUbZf4r2G3MahaM4IUkZwno9rIJER5FAflxlkzXEuW2RD6ayjERk- -x7vpkZNqHLCyLAA6KbUQvaYM3K7YFTUMh6NrY6YJaM20gvOLLMX02TirGUH9N1ZXKwzF22QJqpHeddlS4LbrKYVYBSHBb84RXGd0BPSuacbwcE8YCCfTbWWQ-iCh2G9HCLV9Kf5e1l75LjO2SLV4kcD_01PbgBhAAI6vIHe2GbYg8nV0e_CB-V9SbO3wrHPEk3TS6EgE1N1FJPQrGLAp66BRuPQwe9T90gzQRtbhUrIHtjXA8DK-O9cNgiKJ4ZP1N3gZAOeR9-nd_iXHQDOwq49-e2kIXPqKU_broMqeXNl9oYbWTKFSz5vQHRco_q65adDM8wjFw7AkTCAK7JyUyoT24spPLTvjlRt1vhF9MUqcRIStXplWIwszFCD9WT7Jo0_lQ0nDYQB6QGcGPLqnRmnZkNskXGD-rO5mCsqsshEeZKv0CrSnHPRYxqlvPEOaVyNlkl0_BJkVNzVCfN3zlbvcusNvvFkY2MsZ6ELfMcQgzUOf2LzhGGgD4DnhAWDQSR5-ROvEd9IT-xvo-mbaRxKDRflcnHbQAYz-2yKDWixsVRrUD3ycMrFYcLi7uTwGugv2wWDuscJUGHhVq89lRKtc0CptjHfF0HIbRHE6hut9CiOJBo-ng3F5G3Vn2H_hbnZ84hP0RFW2vKlvnDvYFbFGtQGTiDwV96OrT8sA2pZ6wkfW0XauOyXfmrD0-PEBTNmevuJ8_tArLw42RlWG0KpOElRXjmyAB4TiG5JJR8NS-n-Q4jONfz7TJ_9qvRKAySisyofirx78Rk6kiclkqj6ZjkA8cpjE43EORXFOnkpm7XbgeUJ4OcIHj3FstxBBUvh6XXAcleGqozi7RAsn8T9fG79YUIsXVPjTDc3xEqDjlINpeQu0hS6Ijkk7bjJHsol-aBudQeGOFsgMeXlm40]--></g></svg>