<svg xmlns="http://www.w3.org/2000/svg" xmlns:xlink="http://www.w3.org/1999/xlink" contentStyleType="text/css" height="637px" preserveAspectRatio="none" style="width:1329px;height:637px;background:#FFFFFF;" version="1.1" viewBox="0 0 1329 637" width="1329px" zoomAndPan="magnify"><defs/><g><rect fill="#FFFFFF" height="455.6582" style="stroke:#181818;stroke-width:1.0;" width="10" x="23.1797" y="91.4883"/><rect fill="#FFFFFF" height="434.3477" style="stroke:#181818;stroke-width:1.0;" width="10" x="247.5488" y="112.7988"/><rect fill="#FFFFFF" height="405.0371" style="stroke:#181818;stroke-width:1.0;" width="10" x="567.5645" y="142.1094"/><rect fill="#FFFFFF" height="29.3105" style="stroke:#181818;stroke-width:1.0;" width="10" x="782.9434" y="195.7305"/><rect fill="#FFFFFF" height="29.3105" style="stroke:#181818;stroke-width:1.0;" width="10" x="892.9531" y="254.3516"/><rect fill="#FFFFFF" height="29.3105" style="stroke:#181818;stroke-width:1.0;" width="10" x="1038.2603" y="312.9727"/><rect fill="#FFFFFF" height="29.3105" style="stroke:#181818;stroke-width:1.0;" width="10" x="1170.3228" y="371.5938"/><rect fill="#FFFFFF" height="29.3105" style="stroke:#181818;stroke-width:1.0;" width="10" x="1263.2529" y="430.2148"/><rect fill="none" height="382.0371" style="stroke:#000000;stroke-width:1.5;" width="1147.793" x="175.5225" y="157.1094"/><line style="stroke:#181818;stroke-width:0.5;stroke-dasharray:5.0,5.0;" x1="28" x2="28" y1="81.4883" y2="556.1465"/><line style="stroke:#181818;stroke-width:0.5;stroke-dasharray:5.0,5.0;" x1="252.5225" x2="252.5225" y1="81.4883" y2="556.1465"/><line style="stroke:#181818;stroke-width:0.5;stroke-dasharray:5.0,5.0;" x1="572.5" x2="572.5" y1="81.4883" y2="556.1465"/><line style="stroke:#181818;stroke-width:0.5;stroke-dasharray:5.0,5.0;" x1="787.0459" x2="787.0459" y1="81.4883" y2="556.1465"/><line style="stroke:#181818;stroke-width:0.5;stroke-dasharray:5.0,5.0;" x1="897.8408" x2="897.8408" y1="81.4883" y2="556.1465"/><line style="stroke:#181818;stroke-width:0.5;stroke-dasharray:5.0,5.0;" x1="1043.0654" x2="1043.0654" y1="81.4883" y2="556.1465"/><line style="stroke:#181818;stroke-width:0.5;stroke-dasharray:5.0,5.0;" x1="1174.4551" x2="1174.4551" y1="81.4883" y2="556.1465"/><line style="stroke:#181818;stroke-width:0.5;stroke-dasharray:5.0,5.0;" x1="1268.1904" x2="1268.1904" y1="81.4883" y2="556.1465"/><text fill="#000000" font-family="sans-serif" font-size="14" lengthAdjust="spacing" textLength="40.3594" x="5" y="78.5352">Player</text><ellipse cx="28.1797" cy="13.5" fill="#E2E2F0" rx="8" ry="8" style="stroke:#181818;stroke-width:0.5;"/><path d="M28.1797,21.5 L28.1797,48.5 M15.1797,29.5 L41.1797,29.5 M28.1797,48.5 L15.1797,63.5 M28.1797,48.5 L41.1797,63.5 " fill="none" style="stroke:#181818;stroke-width:0.5;"/><text fill="#000000" font-family="sans-serif" font-size="14" lengthAdjust="spacing" textLength="40.3594" x="5" y="568.6816">Player</text><ellipse cx="28.1797" cy="580.1348" fill="#E2E2F0" rx="8" ry="8" style="stroke:#181818;stroke-width:0.5;"/><path d="M28.1797,588.1348 L28.1797,615.1348 M15.1797,596.1348 L41.1797,596.1348 M28.1797,615.1348 L15.1797,630.1348 M28.1797,615.1348 L41.1797,630.1348 " fill="none" style="stroke:#181818;stroke-width:0.5;"/><rect fill="#E2E2F0" height="30.4883" rx="2.5" ry="2.5" style="stroke:#181818;stroke-width:0.5;" width="134.0527" x="185.5225" y="50"/><text fill="#000000" font-family="sans-serif" font-size="14" lengthAdjust="spacing" textLength="120.0527" x="192.5225" y="70.5352">:BuyLocomotiveUI</text><rect fill="#E2E2F0" height="30.4883" rx="2.5" ry="2.5" style="stroke:#181818;stroke-width:0.5;" width="134.0527" x="185.5225" y="555.1465"/><text fill="#000000" font-family="sans-serif" font-size="14" lengthAdjust="spacing" textLength="120.0527" x="192.5225" y="575.6816">:BuyLocomotiveUI</text><rect fill="#E2E2F0" height="30.4883" rx="2.5" ry="2.5" style="stroke:#181818;stroke-width:0.5;" width="172.1289" x="486.5" y="50"/><text fill="#000000" font-family="sans-serif" font-size="14" lengthAdjust="spacing" textLength="158.1289" x="493.5" y="70.5352">:BuyTrainPartController</text><rect fill="#E2E2F0" height="30.4883" rx="2.5" ry="2.5" style="stroke:#181818;stroke-width:0.5;" width="172.1289" x="486.5" y="555.1465"/><text fill="#000000" font-family="sans-serif" font-size="14" lengthAdjust="spacing" textLength="158.1289" x="493.5" y="575.6816">:BuyTrainPartController</text><rect fill="#E2E2F0" height="30.4883" rx="2.5" ry="2.5" style="stroke:#181818;stroke-width:0.5;" width="97.7949" x="739.0459" y="50"/><text fill="#000000" font-family="sans-serif" font-size="14" lengthAdjust="spacing" textLength="83.7949" x="746.0459" y="70.5352">Repositories</text><rect fill="#E2E2F0" height="30.4883" rx="2.5" ry="2.5" style="stroke:#181818;stroke-width:0.5;" width="97.7949" x="739.0459" y="555.1465"/><text fill="#000000" font-family="sans-serif" font-size="14" lengthAdjust="spacing" textLength="83.7949" x="746.0459" y="575.6816">Repositories</text><rect fill="#E2E2F0" height="46.9766" rx="2.5" ry="2.5" style="stroke:#181818;stroke-width:0.5;" width="102.2246" x="846.8408" y="33.5117"/><text fill="#000000" font-family="sans-serif" font-size="14" lengthAdjust="spacing" textLength="80.6709" x="857.6177" y="54.0469">repositories</text><text fill="#000000" font-family="sans-serif" font-size="14" lengthAdjust="spacing" textLength="88.2246" x="853.8408" y="70.5352">:Repositories</text><rect fill="#E2E2F0" height="46.9766" rx="2.5" ry="2.5" style="stroke:#181818;stroke-width:0.5;" width="102.2246" x="846.8408" y="555.1465"/><text fill="#000000" font-family="sans-serif" font-size="14" lengthAdjust="spacing" textLength="80.6709" x="857.6177" y="575.6816">repositories</text><text fill="#000000" font-family="sans-serif" font-size="14" lengthAdjust="spacing" textLength="88.2246" x="853.8408" y="592.1699">:Repositories</text><rect fill="#E2E2F0" height="46.9766" rx="2.5" ry="2.5" style="stroke:#181818;stroke-width:0.5;" width="168.3896" x="959.0654" y="33.5117"/><text fill="#000000" font-family="sans-serif" font-size="14" lengthAdjust="spacing" textLength="146.542" x="969.9893" y="54.0469">locomotiveRepository</text><text fill="#000000" font-family="sans-serif" font-size="14" lengthAdjust="spacing" textLength="154.3896" x="966.0654" y="70.5352">:LocomotiveRepository</text><rect fill="#E2E2F0" height="46.9766" rx="2.5" ry="2.5" style="stroke:#181818;stroke-width:0.5;" width="168.3896" x="959.0654" y="555.1465"/><text fill="#000000" font-family="sans-serif" font-size="14" lengthAdjust="spacing" textLength="146.542" x="969.9893" y="575.6816">locomotiveRepository</text><text fill="#000000" font-family="sans-serif" font-size="14" lengthAdjust="spacing" textLength="154.3896" x="966.0654" y="592.1699">:LocomotiveRepository</text><rect fill="#E2E2F0" height="30.4883" rx="2.5" ry="2.5" style="stroke:#181818;stroke-width:0.5;" width="75.7354" x="1137.4551" y="50"/><text fill="#000000" font-family="sans-serif" font-size="14" lengthAdjust="spacing" textLength="61.7354" x="1144.4551" y="70.5352">:Scenario</text><rect fill="#E2E2F0" height="30.4883" rx="2.5" ry="2.5" style="stroke:#181818;stroke-width:0.5;" width="75.7354" x="1137.4551" y="555.1465"/><text fill="#000000" font-family="sans-serif" font-size="14" lengthAdjust="spacing" textLength="61.7354" x="1144.4551" y="575.6816">:Scenario</text><rect fill="#E2E2F0" height="30.4883" rx="2.5" ry="2.5" style="stroke:#181818;stroke-width:0.5;" width="90.125" x="1223.1904" y="50"/><text fill="#000000" font-family="sans-serif" font-size="14" lengthAdjust="spacing" textLength="76.125" x="1230.1904" y="70.5352">:Simulation</text><rect fill="#E2E2F0" height="30.4883" rx="2.5" ry="2.5" style="stroke:#181818;stroke-width:0.5;" width="90.125" x="1223.1904" y="555.1465"/><text fill="#000000" font-family="sans-serif" font-size="14" lengthAdjust="spacing" textLength="76.125" x="1230.1904" y="575.6816">:Simulation</text><rect fill="#FFFFFF" height="455.6582" style="stroke:#181818;stroke-width:1.0;" width="10" x="23.1797" y="91.4883"/><rect fill="#FFFFFF" height="434.3477" style="stroke:#181818;stroke-width:1.0;" width="10" x="247.5488" y="112.7988"/><rect fill="#FFFFFF" height="405.0371" style="stroke:#181818;stroke-width:1.0;" width="10" x="567.5645" y="142.1094"/><rect fill="#FFFFFF" height="29.3105" style="stroke:#181818;stroke-width:1.0;" width="10" x="782.9434" y="195.7305"/><rect fill="#FFFFFF" height="29.3105" style="stroke:#181818;stroke-width:1.0;" width="10" x="892.9531" y="254.3516"/><rect fill="#FFFFFF" height="29.3105" style="stroke:#181818;stroke-width:1.0;" width="10" x="1038.2603" y="312.9727"/><rect fill="#FFFFFF" height="29.3105" style="stroke:#181818;stroke-width:1.0;" width="10" x="1170.3228" y="371.5938"/><rect fill="#FFFFFF" height="29.3105" style="stroke:#181818;stroke-width:1.0;" width="10" x="1263.2529" y="430.2148"/><polygon fill="#181818" points="235.5488,108.7988,245.5488,112.7988,235.5488,116.7988,239.5488,112.7988" style="stroke:#181818;stroke-width:1.0;"/><line style="stroke:#181818;stroke-width:1.0;" x1="33.1797" x2="241.5488" y1="112.7988" y2="112.7988"/><text fill="#000000" font-family="sans-serif" font-size="13" font-weight="bold" lengthAdjust="spacing" textLength="8.5757" x="40.1797" y="108.0566">1</text><text fill="#000000" font-family="sans-serif" font-size="13" lengthAdjust="spacing" textLength="182.7935" x="52.7554" y="108.0566">requests to buy a locomotive</text><polygon fill="#181818" points="555.5645,138.1094,565.5645,142.1094,555.5645,146.1094,559.5645,142.1094" style="stroke:#181818;stroke-width:1.0;"/><line style="stroke:#181818;stroke-width:1.0;" x1="257.5488" x2="561.5645" y1="142.1094" y2="142.1094"/><text fill="#000000" font-family="sans-serif" font-size="13" font-weight="bold" lengthAdjust="spacing" textLength="8.5757" x="264.5488" y="137.3672">2</text><text fill="#000000" font-family="sans-serif" font-size="13" lengthAdjust="spacing" textLength="278.4399" x="277.1245" y="137.3672">BuyTrainPartController(scenario, simulation)</text><path d="M175.5225,157.1094 L429.6841,157.1094 L429.6841,164.4199 L419.6841,174.4199 L175.5225,174.4199 L175.5225,157.1094 " fill="#EEEEEE" style="stroke:#000000;stroke-width:1.5;"/><rect fill="none" height="382.0371" style="stroke:#000000;stroke-width:1.5;" width="1147.793" x="175.5225" y="157.1094"/><text fill="#000000" font-family="sans-serif" font-size="13" font-weight="bold" lengthAdjust="spacing" textLength="209.1616" x="190.5225" y="170.6777">Retrieve Available Locomotives</text><polygon fill="#181818" points="770.9434,191.7305,780.9434,195.7305,770.9434,199.7305,774.9434,195.7305" style="stroke:#181818;stroke-width:1.0;"/><line style="stroke:#181818;stroke-width:1.0;" x1="577.5645" x2="776.9434" y1="195.7305" y2="195.7305"/><text fill="#000000" font-family="sans-serif" font-size="13" font-weight="bold" lengthAdjust="spacing" textLength="8.5757" x="584.5645" y="190.9883">3</text><text fill="#000000" font-family="sans-serif" font-size="13" lengthAdjust="spacing" textLength="81.1167" x="597.1401" y="190.9883">getInstance()</text><polygon fill="#181818" points="588.5645,221.041,578.5645,225.041,588.5645,229.041,584.5645,225.041" style="stroke:#181818;stroke-width:1.0;"/><line style="stroke:#181818;stroke-width:1.0;stroke-dasharray:2.0,2.0;" x1="582.5645" x2="786.9434" y1="225.041" y2="225.041"/><text fill="#000000" font-family="sans-serif" font-size="13" font-weight="bold" lengthAdjust="spacing" textLength="8.5757" x="594.5645" y="220.2988">4</text><text fill="#000000" font-family="sans-serif" font-size="13" lengthAdjust="spacing" textLength="74.9087" x="607.1401" y="220.2988">repositories</text><polygon fill="#181818" points="880.9531,250.3516,890.9531,254.3516,880.9531,258.3516,884.9531,254.3516" style="stroke:#181818;stroke-width:1.0;"/><line style="stroke:#181818;stroke-width:1.0;" x1="577.5645" x2="886.9531" y1="254.3516" y2="254.3516"/><text fill="#000000" font-family="sans-serif" font-size="13" font-weight="bold" lengthAdjust="spacing" textLength="8.5757" x="584.5645" y="249.6094">5</text><text fill="#000000" font-family="sans-serif" font-size="13" lengthAdjust="spacing" textLength="167.9146" x="597.1401" y="249.6094">getLocomotiveRepository()</text><polygon fill="#181818" points="588.5645,279.6621,578.5645,283.6621,588.5645,287.6621,584.5645,283.6621" style="stroke:#181818;stroke-width:1.0;"/><line style="stroke:#181818;stroke-width:1.0;stroke-dasharray:2.0,2.0;" x1="582.5645" x2="896.9531" y1="283.6621" y2="283.6621"/><text fill="#000000" font-family="sans-serif" font-size="13" font-weight="bold" lengthAdjust="spacing" textLength="8.5757" x="594.5645" y="278.9199">6</text><text fill="#000000" font-family="sans-serif" font-size="13" lengthAdjust="spacing" textLength="136.0747" x="607.1401" y="278.9199">locomotiveRepository</text><polygon fill="#181818" points="1026.2603,308.9727,1036.2603,312.9727,1026.2603,316.9727,1030.2603,312.9727" style="stroke:#181818;stroke-width:1.0;"/><line style="stroke:#181818;stroke-width:1.0;" x1="577.5645" x2="1032.2603" y1="312.9727" y2="312.9727"/><text fill="#000000" font-family="sans-serif" font-size="13" font-weight="bold" lengthAdjust="spacing" textLength="8.5757" x="584.5645" y="308.2305">7</text><text fill="#000000" font-family="sans-serif" font-size="13" lengthAdjust="spacing" textLength="124.0522" x="597.1401" y="308.2305">getAllLocomotives()</text><polygon fill="#181818" points="588.5645,338.2832,578.5645,342.2832,588.5645,346.2832,584.5645,342.2832" style="stroke:#181818;stroke-width:1.0;"/><line style="stroke:#181818;stroke-width:1.0;stroke-dasharray:2.0,2.0;" x1="582.5645" x2="1042.2603" y1="342.2832" y2="342.2832"/><text fill="#000000" font-family="sans-serif" font-size="13" font-weight="bold" lengthAdjust="spacing" textLength="8.5757" x="594.5645" y="337.541">8</text><text fill="#000000" font-family="sans-serif" font-size="13" lengthAdjust="spacing" textLength="93.5962" x="607.1401" y="337.541">allLocomotives</text><polygon fill="#181818" points="1158.3228,367.5938,1168.3228,371.5938,1158.3228,375.5938,1162.3228,371.5938" style="stroke:#181818;stroke-width:1.0;"/><line style="stroke:#181818;stroke-width:1.0;" x1="577.5645" x2="1164.3228" y1="371.5938" y2="371.5938"/><text fill="#000000" font-family="sans-serif" font-size="13" font-weight="bold" lengthAdjust="spacing" textLength="8.5757" x="584.5645" y="366.8516">9</text><text fill="#000000" font-family="sans-serif" font-size="13" lengthAdjust="spacing" textLength="179.8735" x="597.1401" y="366.8516">getAvailableLocomotiveList()</text><polygon fill="#181818" points="588.5645,396.9043,578.5645,400.9043,588.5645,404.9043,584.5645,400.9043" style="stroke:#181818;stroke-width:1.0;"/><line style="stroke:#181818;stroke-width:1.0;stroke-dasharray:2.0,2.0;" x1="582.5645" x2="1174.3228" y1="400.9043" y2="400.9043"/><text fill="#000000" font-family="sans-serif" font-size="13" font-weight="bold" lengthAdjust="spacing" textLength="17.1514" x="594.5645" y="396.1621">10</text><text fill="#000000" font-family="sans-serif" font-size="13" lengthAdjust="spacing" textLength="133.8657" x="615.7158" y="396.1621">availableLocomotives</text><polygon fill="#181818" points="1251.2529,426.2148,1261.2529,430.2148,1251.2529,434.2148,1255.2529,430.2148" style="stroke:#181818;stroke-width:1.0;"/><line style="stroke:#181818;stroke-width:1.0;" x1="577.5645" x2="1257.2529" y1="430.2148" y2="430.2148"/><text fill="#000000" font-family="sans-serif" font-size="13" font-weight="bold" lengthAdjust="spacing" textLength="17.1514" x="584.5645" y="425.4727">11</text><text fill="#000000" font-family="sans-serif" font-size="13" lengthAdjust="spacing" textLength="107.8975" x="605.7158" y="425.4727">getCurrentTime()</text><polygon fill="#181818" points="588.5645,455.5254,578.5645,459.5254,588.5645,463.5254,584.5645,459.5254" style="stroke:#181818;stroke-width:1.0;"/><line style="stroke:#181818;stroke-width:1.0;stroke-dasharray:2.0,2.0;" x1="582.5645" x2="1267.2529" y1="459.5254" y2="459.5254"/><text fill="#000000" font-family="sans-serif" font-size="13" font-weight="bold" lengthAdjust="spacing" textLength="17.1514" x="594.5645" y="454.7832">12</text><text fill="#000000" font-family="sans-serif" font-size="13" lengthAdjust="spacing" textLength="76.8955" x="615.7158" y="454.7832">currentTime</text><line style="stroke:#181818;stroke-width:1.0;" x1="577.5645" x2="619.5645" y1="488.8359" y2="488.8359"/><line style="stroke:#181818;stroke-width:1.0;" x1="619.5645" x2="619.5645" y1="488.8359" y2="501.8359"/><line style="stroke:#181818;stroke-width:1.0;" x1="578.5645" x2="619.5645" y1="501.8359" y2="501.8359"/><polygon fill="#181818" points="588.5645,497.8359,578.5645,501.8359,588.5645,505.8359,584.5645,501.8359" style="stroke:#181818;stroke-width:1.0;"/><text fill="#000000" font-family="sans-serif" font-size="13" font-weight="bold" lengthAdjust="spacing" textLength="17.1514" x="584.5645" y="484.0938">13</text><text fill="#000000" font-family="sans-serif" font-size="13" lengthAdjust="spacing" textLength="160.2275" x="605.7158" y="484.0938">filter locomotives by date</text><polygon fill="#181818" points="268.5488,527.1465,258.5488,531.1465,268.5488,535.1465,264.5488,531.1465" style="stroke:#181818;stroke-width:1.0;"/><line style="stroke:#181818;stroke-width:1.0;stroke-dasharray:2.0,2.0;" x1="262.5488" x2="566.5645" y1="531.1465" y2="531.1465"/><text fill="#000000" font-family="sans-serif" font-size="13" font-weight="bold" lengthAdjust="spacing" textLength="17.1514" x="274.5488" y="526.4043">14</text><text fill="#000000" font-family="sans-serif" font-size="13" lengthAdjust="spacing" textLength="124.0459" x="295.7002" y="526.4043">filteredLocomotives</text><!--SRC=[RPF1RgCm48RlFCKefrRQla0EAwMe1oIQH40EAwrKJSYKMZKsQvjKlFqw9Z4sWCJ5_Fy_7pDZ_Sr4XmfRwB3-nePACt02HRL1qN1Aj1VeBxp87oOQ-4Ikmo-S2J93Ho2L-P89zaQAlZsJIXAiZLImEN8SI6q0DHppFucr6LQp3eM1pVQr7t9PorOQTgLJvbIdR2cg539njAUf54P9pk-9QLNaiRgWJcfcApFIJbAy7Gzbh561vg_Ohbi-idrPnJxkKRrbiFvyvTZbv8VqmsQj96tBcWGg9fskJD_sko8xp3MixJaQ9iMeojvF-QxA3dlNMtP5GwwbzeMNtxPliBNJ-zUJDXgCX7C_0C84FRbiYwtQUcxziwxr3Z_fE-Glq1xbUKfnpKyQ9ViE2ZAsVLU2tHKPnxDTfAajEW7xk5gsfkkkBTgGoOIskrRJqxDJ-EHnPhUZKVmoeOQpSueBpMpBOcu0OyMrMQrM7uVc4SQ8W6Dj5rPvng08AjoB4Ml7UT2kEL2qHxSlKK00XL7C72UAYO0U2tY7UOnmoigPDdCglxMtKvyGqYnp5am-9ERngpuIfRrI94p5siMg1BV2SKpEWAIU_0k0u5Q527Vd9-E6L31j3US1BjOPg1-NRnJJ9VnV4fV_]--></g></svg>