<svg xmlns="http://www.w3.org/2000/svg" xmlns:xlink="http://www.w3.org/1999/xlink" contentStyleType="text/css" height="1149px" preserveAspectRatio="none" style="width:1563px;height:1149px;background:#FFFFFF;" version="1.1" viewBox="0 0 1563 1149" width="1563.6px" zoomAndPan="magnify"><defs/><g><!--class User--><g id="elem_User"><rect codeLine="13" fill="#F1F1F1" height="28.8" id="User" rx="1.5" ry="1.5" style="stroke:#181818;stroke-width:0.3;" width="37.4191" x="144.114" y="4.2"/><ellipse cx="153.114" cy="13.8" fill="#ADD1B2" rx="6.6" ry="6.6" style="stroke:#181818;stroke-width:0.6;"/><path d="M154.8979,17.1858 Q154.5493,17.3651 154.1658,17.4548 Q153.7823,17.5444 153.3589,17.5444 Q151.8548,17.5444 151.0629,16.5533 Q150.271,15.5622 150.271,13.6896 Q150.271,11.8119 151.0629,10.8208 Q151.8548,9.8297 153.3589,9.8297 Q153.7823,9.8297 154.1707,9.9193 Q154.5592,10.009 154.8979,10.1883 L154.8979,11.8219 Q154.5194,11.4732 154.1633,11.3114 Q153.8072,11.1495 153.4286,11.1495 Q152.6218,11.1495 152.2109,11.7895 Q151.8,12.4295 151.8,13.6896 Q151.8,14.9446 152.2109,15.5846 Q152.6218,16.2246 153.4286,16.2246 Q153.8072,16.2246 154.1633,16.0627 Q154.5194,15.9009 154.8979,15.5522 Z " fill="#000000"/><text fill="#000000" font-family="sans-serif" font-size="8.4" lengthAdjust="spacing" textLength="18.2191" x="161.514" y="16.9746">User</text><line style="stroke:#181818;stroke-width:0.3;" x1="144.714" x2="180.9331" y1="23.4" y2="23.4"/><line style="stroke:#181818;stroke-width:0.3;" x1="144.714" x2="180.9331" y1="28.2" y2="28.2"/></g><!--class Player--><g id="elem_Player"><rect codeLine="16" fill="#F1F1F1" height="28.8" id="Player" rx="1.5" ry="1.5" style="stroke:#181818;stroke-width:0.3;" width="43.4156" x="141.114" y="105.6"/><ellipse cx="150.114" cy="115.2" fill="#ADD1B2" rx="6.6" ry="6.6" style="stroke:#181818;stroke-width:0.6;"/><path d="M151.8979,118.5858 Q151.5493,118.7651 151.1658,118.8548 Q150.7823,118.9444 150.3589,118.9444 Q148.8548,118.9444 148.0629,117.9533 Q147.271,116.9622 147.271,115.0896 Q147.271,113.2119 148.0629,112.2208 Q148.8548,111.2297 150.3589,111.2297 Q150.7823,111.2297 151.1707,111.3193 Q151.5592,111.409 151.8979,111.5883 L151.8979,113.2219 Q151.5194,112.8732 151.1633,112.7114 Q150.8072,112.5495 150.4286,112.5495 Q149.6218,112.5495 149.2109,113.1895 Q148.8,113.8295 148.8,115.0896 Q148.8,116.3446 149.2109,116.9846 Q149.6218,117.6246 150.4286,117.6246 Q150.8072,117.6246 151.1633,117.4627 Q151.5194,117.3009 151.8979,116.9522 Z " fill="#000000"/><text fill="#000000" font-family="sans-serif" font-size="8.4" lengthAdjust="spacing" textLength="24.2156" x="158.514" y="118.3746">Player</text><line style="stroke:#181818;stroke-width:0.3;" x1="141.714" x2="183.9296" y1="124.8" y2="124.8"/><line style="stroke:#181818;stroke-width:0.3;" x1="141.714" x2="183.9296" y1="129.6" y2="129.6"/></g><!--class Locomotive--><g id="elem_Locomotive"><rect codeLine="19" fill="#F1F1F1" height="216.7664" id="Locomotive" rx="1.5" ry="1.5" style="stroke:#181818;stroke-width:0.3;" width="612.0861" x="947.58" y="772.602"/><ellipse cx="1227.7229" cy="782.202" fill="#ADD1B2" rx="6.6" ry="6.6" style="stroke:#181818;stroke-width:0.6;"/><path d="M1229.5068,785.5878 Q1229.1581,785.7671 1228.7746,785.8568 Q1228.3911,785.9464 1227.9678,785.9464 Q1226.4637,785.9464 1225.6718,784.9553 Q1224.8799,783.9642 1224.8799,782.0916 Q1224.8799,780.2139 1225.6718,779.2228 Q1226.4637,778.2317 1227.9678,778.2317 Q1228.3911,778.2317 1228.7796,778.3213 Q1229.1681,778.411 1229.5068,778.5903 L1229.5068,780.2239 Q1229.1282,779.8752 1228.7721,779.7134 Q1228.416,779.5515 1228.0375,779.5515 Q1227.2307,779.5515 1226.8198,780.1915 Q1226.4089,780.8315 1226.4089,782.0916 Q1226.4089,783.3466 1226.8198,783.9866 Q1227.2307,784.6266 1228.0375,784.6266 Q1228.416,784.6266 1228.7721,784.4647 Q1229.1282,784.3029 1229.5068,783.9542 Z " fill="#000000"/><text fill="#000000" font-family="sans-serif" font-size="8.4" lengthAdjust="spacing" textLength="46.7004" x="1240.0229" y="785.3766">Locomotive</text><line style="stroke:#181818;stroke-width:0.3;" x1="948.18" x2="1559.0661" y1="791.802" y2="791.802"/><text fill="#000000" font-family="sans-serif" font-size="8.4" lengthAdjust="spacing" textLength="59.1896" x="951.18" y="802.3231">-name : String</text><text fill="#000000" font-family="sans-serif" font-size="8.4" lengthAdjust="spacing" textLength="65.9244" x="951.18" y="812.2161">-power : double</text><text fill="#000000" font-family="sans-serif" font-size="8.4" lengthAdjust="spacing" textLength="89.9391" x="951.18" y="822.109">-acceleration : double</text><text fill="#000000" font-family="sans-serif" font-size="8.4" lengthAdjust="spacing" textLength="78.9346" x="951.18" y="832.002">-topSpeed : double</text><text fill="#000000" font-family="sans-serif" font-size="8.4" lengthAdjust="spacing" textLength="100.759" x="951.18" y="841.895">-startYearOperation : int</text><text fill="#000000" font-family="sans-serif" font-size="8.4" lengthAdjust="spacing" textLength="87.6299" x="951.18" y="851.7879">-acquisitionPrice : int</text><text fill="#000000" font-family="sans-serif" font-size="8.4" lengthAdjust="spacing" textLength="84.402" x="951.18" y="861.6809">-fuelType : FuelType</text><text fill="#000000" font-family="sans-serif" font-size="8.4" lengthAdjust="spacing" textLength="115.8691" x="951.18" y="871.5739">-railroadLineAssociated : int</text><line style="stroke:#181818;stroke-width:0.3;" x1="948.18" x2="1559.0661" y1="875.7458" y2="875.7458"/><text fill="#000000" font-family="sans-serif" font-size="8.4" lengthAdjust="spacing" textLength="604.8861" x="951.18" y="886.2668">+Locomotive(name: String, power: double, acceleration: double, topSpeed: double, startYearOperation: int, acquisitionPrice: int, fuelType: FuelType)</text><text fill="#000000" font-family="sans-serif" font-size="8.4" lengthAdjust="spacing" textLength="77.8641" x="951.18" y="896.1598">+getName(): String</text><text fill="#000000" font-family="sans-serif" font-size="8.4" lengthAdjust="spacing" textLength="82.9623" x="951.18" y="906.0528">+getPower(): double</text><text fill="#000000" font-family="sans-serif" font-size="8.4" lengthAdjust="spacing" textLength="108.7775" x="951.18" y="915.9458">+getAcceleration(): double</text><text fill="#000000" font-family="sans-serif" font-size="8.4" lengthAdjust="spacing" textLength="98.7861" x="951.18" y="925.8387">+getTopSpeed(): double</text><text fill="#000000" font-family="sans-serif" font-size="8.4" lengthAdjust="spacing" textLength="118.6828" x="951.18" y="935.7317">+getStartYearOperation(): int</text><text fill="#000000" font-family="sans-serif" font-size="8.4" lengthAdjust="spacing" textLength="106.4684" x="951.18" y="945.6247">+getAcquisitionPrice(): int</text><text fill="#000000" font-family="sans-serif" font-size="8.4" lengthAdjust="spacing" textLength="103.4988" x="951.18" y="955.5176">+getFuelType(): FuelType</text><text fill="#000000" font-family="sans-serif" font-size="8.4" lengthAdjust="spacing" textLength="135.4254" x="951.18" y="965.4106">+getRailroadLineAssociated(): int</text><text fill="#000000" font-family="sans-serif" font-size="8.4" lengthAdjust="spacing" textLength="73.7215" x="951.18" y="975.3036">+toString(): String</text><text fill="#000000" font-family="sans-serif" font-size="8.4" lengthAdjust="spacing" textLength="13.4367" x="951.18" y="985.1965">...()</text></g><!--class Scenario--><g id="elem_Scenario"><rect codeLine="41" fill="#F1F1F1" height="137.6227" id="Scenario" rx="1.5" ry="1.5" style="stroke:#181818;stroke-width:0.3;" width="229.2545" x="1125.192" y="547.794"/><ellipse cx="1220.0775" cy="557.394" fill="#ADD1B2" rx="6.6" ry="6.6" style="stroke:#181818;stroke-width:0.6;"/><path d="M1221.8614,560.7798 Q1221.5128,560.9591 1221.1293,561.0488 Q1220.7458,561.1384 1220.3225,561.1384 Q1218.8184,561.1384 1218.0265,560.1473 Q1217.2346,559.1562 1217.2346,557.2836 Q1217.2346,555.4059 1218.0265,554.4148 Q1218.8184,553.4237 1220.3225,553.4237 Q1220.7458,553.4237 1221.1343,553.5133 Q1221.5228,553.603 1221.8614,553.7823 L1221.8614,555.4159 Q1221.4829,555.0672 1221.1268,554.9054 Q1220.7707,554.7435 1220.3922,554.7435 Q1219.5854,554.7435 1219.1745,555.3835 Q1218.7636,556.0235 1218.7636,557.2836 Q1218.7636,558.5386 1219.1745,559.1786 Q1219.5854,559.8186 1220.3922,559.8186 Q1220.7707,559.8186 1221.1268,559.6567 Q1221.4829,559.4949 1221.8614,559.1462 Z " fill="#000000"/><text fill="#000000" font-family="sans-serif" font-size="8.4" lengthAdjust="spacing" textLength="34.3834" x="1232.3775" y="560.5686">Scenario</text><line style="stroke:#181818;stroke-width:0.3;" x1="1125.792" x2="1353.8465" y1="566.994" y2="566.994"/><text fill="#000000" font-family="sans-serif" font-size="8.4" lengthAdjust="spacing" textLength="47.7627" x="1128.792" y="577.5151">-map : Map</text><text fill="#000000" font-family="sans-serif" font-size="8.4" lengthAdjust="spacing" textLength="59.1896" x="1128.792" y="587.4081">-name : String</text><text fill="#000000" font-family="sans-serif" font-size="8.4" lengthAdjust="spacing" textLength="72.9996" x="1128.792" y="597.301">-initialMoney : int</text><text fill="#000000" font-family="sans-serif" font-size="8.4" lengthAdjust="spacing" textLength="111.1031" x="1128.792" y="607.194">-stationList : List&lt;Station&gt;</text><text fill="#000000" font-family="sans-serif" font-size="8.4" lengthAdjust="spacing" textLength="183.7664" x="1128.792" y="617.087">-availableLocomotiveList : List&lt;Locomotive&gt;</text><text fill="#000000" font-family="sans-serif" font-size="8.4" lengthAdjust="spacing" textLength="167.4545" x="1128.792" y="626.9799">-boughtLocomotives : List&lt;Locomotive&gt;</text><line style="stroke:#181818;stroke-width:0.3;" x1="1125.792" x2="1353.8465" y1="631.1518" y2="631.1518"/><text fill="#000000" font-family="sans-serif" font-size="8.4" lengthAdjust="spacing" textLength="193.2574" x="1128.792" y="641.6729">+addLocomotive(locomotive: Locomotive): void</text><text fill="#000000" font-family="sans-serif" font-size="8.4" lengthAdjust="spacing" textLength="202.6049" x="1128.792" y="651.5659">+getAvailableLocomotiveList(): List&lt;Locomotive&gt;</text><text fill="#000000" font-family="sans-serif" font-size="8.4" lengthAdjust="spacing" textLength="222.0545" x="1128.792" y="661.4588">+addBoughtLocomotive(locomotive: Locomotive): void</text><text fill="#000000" font-family="sans-serif" font-size="8.4" lengthAdjust="spacing" textLength="184.6811" x="1128.792" y="671.3518">+getBoughtLocomotives(): List&lt;Locomotive&gt;</text><text fill="#000000" font-family="sans-serif" font-size="8.4" lengthAdjust="spacing" textLength="13.4367" x="1128.792" y="681.2448">...()</text></g><!--class TimeDate--><g id="elem_TimeDate"><rect codeLine="55" fill="#F1F1F1" height="117.8367" id="TimeDate" rx="1.5" ry="1.5" style="stroke:#181818;stroke-width:0.3;" width="171.5619" x="183.84" y="822.066"/><ellipse cx="247.5639" cy="831.666" fill="#ADD1B2" rx="6.6" ry="6.6" style="stroke:#181818;stroke-width:0.6;"/><path d="M249.3478,835.0518 Q248.9992,835.2311 248.6157,835.3208 Q248.2322,835.4104 247.8088,835.4104 Q246.3047,835.4104 245.5129,834.4193 Q244.721,833.4282 244.721,831.5556 Q244.721,829.6779 245.5129,828.6868 Q246.3047,827.6957 247.8088,827.6957 Q248.2322,827.6957 248.6207,827.7853 Q249.0091,827.875 249.3478,828.0543 L249.3478,829.6879 Q248.9693,829.3392 248.6132,829.1774 Q248.2571,829.0155 247.8786,829.0155 Q247.0717,829.0155 246.6608,829.6555 Q246.25,830.2955 246.25,831.5556 Q246.25,832.8106 246.6608,833.4506 Q247.0717,834.0906 247.8786,834.0906 Q248.2571,834.0906 248.6132,833.9287 Q248.9693,833.7669 249.3478,833.4182 Z " fill="#000000"/><text fill="#000000" font-family="sans-serif" font-size="8.4" lengthAdjust="spacing" textLength="39.0141" x="259.8639" y="834.8406">TimeDate</text><line style="stroke:#181818;stroke-width:0.3;" x1="184.44" x2="354.8019" y1="841.266" y2="841.266"/><text fill="#000000" font-family="sans-serif" font-size="8.4" lengthAdjust="spacing" textLength="40.7613" x="187.44" y="851.7871">-year : int</text><text fill="#000000" font-family="sans-serif" font-size="8.4" lengthAdjust="spacing" textLength="50.1867" x="187.44" y="861.6801">-month : int</text><line style="stroke:#181818;stroke-width:0.3;" x1="184.44" x2="354.8019" y1="865.8519" y2="865.8519"/><text fill="#000000" font-family="sans-serif" font-size="8.4" lengthAdjust="spacing" textLength="132.382" x="187.44" y="876.373">+TimeDate(year: int, month: int)</text><text fill="#000000" font-family="sans-serif" font-size="8.4" lengthAdjust="spacing" textLength="59.2881" x="187.44" y="886.266">+getYear(): int</text><text fill="#000000" font-family="sans-serif" font-size="8.4" lengthAdjust="spacing" textLength="67.2615" x="187.44" y="896.159">+getMonth(): int</text><text fill="#000000" font-family="sans-serif" font-size="8.4" lengthAdjust="spacing" textLength="92.2236" x="187.44" y="906.0519">+getTotalMonths(): int</text><text fill="#000000" font-family="sans-serif" font-size="8.4" lengthAdjust="spacing" textLength="164.3619" x="187.44" y="915.9449">+getDifference(timeDate: TimeDate): int</text><text fill="#000000" font-family="sans-serif" font-size="8.4" lengthAdjust="spacing" textLength="157.5287" x="187.44" y="925.8379">+before(timeDate: TimeDate): boolean</text><text fill="#000000" font-family="sans-serif" font-size="8.4" lengthAdjust="spacing" textLength="73.7215" x="187.44" y="935.7308">+toString(): String</text></g><!--class Simulation--><g id="elem_Simulation"><rect codeLine="67" fill="#F1F1F1" height="107.9438" id="Simulation" rx="1.5" ry="1.5" style="stroke:#181818;stroke-width:0.3;" width="254.8441" x="4.2" y="562.632"/><ellipse cx="107.5635" cy="572.232" fill="#ADD1B2" rx="6.6" ry="6.6" style="stroke:#181818;stroke-width:0.6;"/><path d="M109.3474,575.6178 Q108.9987,575.7971 108.6152,575.8868 Q108.2317,575.9764 107.8084,575.9764 Q106.3043,575.9764 105.5124,574.9853 Q104.7205,573.9942 104.7205,572.1216 Q104.7205,570.2439 105.5124,569.2528 Q106.3043,568.2617 107.8084,568.2617 Q108.2317,568.2617 108.6202,568.3513 Q109.0087,568.441 109.3474,568.6203 L109.3474,570.2539 Q108.9688,569.9052 108.6127,569.7434 Q108.2566,569.5815 107.8781,569.5815 Q107.0713,569.5815 106.6604,570.2215 Q106.2495,570.8615 106.2495,572.1216 Q106.2495,573.3766 106.6604,574.0166 Q107.0713,574.6566 107.8781,574.6566 Q108.2566,574.6566 108.6127,574.4947 Q108.9688,574.3329 109.3474,573.9842 Z " fill="#000000"/><text fill="#000000" font-family="sans-serif" font-size="8.4" lengthAdjust="spacing" textLength="43.0172" x="119.8635" y="575.4066">Simulation</text><line style="stroke:#181818;stroke-width:0.3;" x1="4.8" x2="258.4441" y1="581.832" y2="581.832"/><text fill="#000000" font-family="sans-serif" font-size="8.4" lengthAdjust="spacing" textLength="73.3031" x="7.8" y="592.3531">-currentTime : int</text><text fill="#000000" font-family="sans-serif" font-size="8.4" lengthAdjust="spacing" textLength="61.5111" x="7.8" y="602.2461">-maxTime : int</text><text fill="#000000" font-family="sans-serif" font-size="8.4" lengthAdjust="spacing" textLength="74.6566" x="7.8" y="612.139">-actualMoney : int</text><line style="stroke:#181818;stroke-width:0.3;" x1="4.8" x2="258.4441" y1="616.3109" y2="616.3109"/><text fill="#000000" font-family="sans-serif" font-size="8.4" lengthAdjust="spacing" textLength="247.6441" x="7.8" y="626.832">+Simulation(maxTime: int, actualMoney: int, actualTime: int)</text><text fill="#000000" font-family="sans-serif" font-size="8.4" lengthAdjust="spacing" textLength="92.4943" x="7.8" y="636.725">+getCurrentTime(): int</text><text fill="#000000" font-family="sans-serif" font-size="8.4" lengthAdjust="spacing" textLength="93.4951" x="7.8" y="646.6179">+getActualMoney(): int</text><text fill="#000000" font-family="sans-serif" font-size="8.4" lengthAdjust="spacing" textLength="166.1174" x="7.8" y="656.5109">+setActualMoney(actualMoney: int): void</text><text fill="#000000" font-family="sans-serif" font-size="8.4" lengthAdjust="spacing" textLength="13.4367" x="7.8" y="666.4039">...()</text></g><!--class FuelType--><g id="elem_FuelType"><rect codeLine="78" fill="#F1F1F1" height="68.3719" id="FuelType" rx="1.5" ry="1.5" style="stroke:#181818;stroke-width:0.3;" width="55.6916" x="887.976" y="1076.556"/><ellipse cx="896.976" cy="1086.156" fill="#EB937F" rx="6.6" ry="6.6" style="stroke:#181818;stroke-width:0.6;"/><path d="M899.4446,1089.756 L894.8127,1089.756 L894.8127,1082.3202 L899.4446,1082.3202 L899.4446,1083.6151 L896.282,1083.6151 L896.282,1085.2188 L899.1457,1085.2188 L899.1457,1086.5137 L896.282,1086.5137 L896.282,1088.4611 L899.4446,1088.4611 Z " fill="#000000"/><text fill="#000000" font-family="sans-serif" font-size="8.4" lengthAdjust="spacing" textLength="36.4916" x="905.376" y="1089.3306">FuelType</text><line style="stroke:#181818;stroke-width:0.3;" x1="888.576" x2="943.0676" y1="1095.756" y2="1095.756"/><text fill="#000000" font-family="sans-serif" font-size="8.4" lengthAdjust="spacing" textLength="26.8201" x="891.576" y="1106.2771">DIESEL</text><text fill="#000000" font-family="sans-serif" font-size="8.4" lengthAdjust="spacing" textLength="38.2512" x="891.576" y="1116.1701">ELECTRIC</text><text fill="#000000" font-family="sans-serif" font-size="8.4" lengthAdjust="spacing" textLength="27.4189" x="891.576" y="1126.063">STEAM</text><line style="stroke:#181818;stroke-width:0.3;" x1="888.576" x2="943.0676" y1="1130.2349" y2="1130.2349"/><text fill="#000000" font-family="sans-serif" font-size="8.4" lengthAdjust="spacing" textLength="13.4367" x="891.576" y="1140.756">...()</text></g><!--class BuyLocomotiveUI--><g id="elem_BuyLocomotiveUI"><rect codeLine="88" fill="#F1F1F1" height="68.3719" id="BuyLocomotiveUI" rx="1.5" ry="1.5" style="stroke:#181818;stroke-width:0.3;" width="283.5838" x="196.23" y="207"/><ellipse cx="300.785" cy="216.6" fill="#ADD1B2" rx="6.6" ry="6.6" style="stroke:#181818;stroke-width:0.6;"/><path d="M302.5689,219.9858 Q302.2202,220.1651 301.8367,220.2548 Q301.4532,220.3444 301.0299,220.3444 Q299.5258,220.3444 298.7339,219.3533 Q297.942,218.3622 297.942,216.4896 Q297.942,214.6119 298.7339,213.6208 Q299.5258,212.6297 301.0299,212.6297 Q301.4532,212.6297 301.8417,212.7193 Q302.2302,212.809 302.5689,212.9883 L302.5689,214.6219 Q302.1904,214.2732 301.8342,214.1114 Q301.4781,213.9495 301.0996,213.9495 Q300.2928,213.9495 299.8819,214.5895 Q299.471,215.2295 299.471,216.4896 Q299.471,217.7446 299.8819,218.3846 Q300.2928,219.0246 301.0996,219.0246 Q301.4781,219.0246 301.8342,218.8627 Q302.1904,218.7009 302.5689,218.3522 Z " fill="#000000"/><text fill="#000000" font-family="sans-serif" font-size="8.4" lengthAdjust="spacing" textLength="69.3738" x="313.085" y="219.7746">BuyLocomotiveUI</text><line style="stroke:#181818;stroke-width:0.3;" x1="196.83" x2="479.2138" y1="226.2" y2="226.2"/><text fill="#000000" font-family="sans-serif" font-size="8.4" lengthAdjust="spacing" textLength="98.6262" x="199.83" y="236.7211">-simulation : Simulation</text><text fill="#000000" font-family="sans-serif" font-size="8.4" lengthAdjust="spacing" textLength="144.4406" x="199.83" y="246.6141">-controller : BuyTrainPartController</text><line style="stroke:#181818;stroke-width:0.3;" x1="196.83" x2="479.2138" y1="250.7859" y2="250.7859"/><text fill="#000000" font-family="sans-serif" font-size="8.4" lengthAdjust="spacing" textLength="276.3838" x="199.83" y="261.307">+BuyLocomotiveUI(actualScenario: Scenario, simulation: Simulation)</text><text fill="#000000" font-family="sans-serif" font-size="8.4" lengthAdjust="spacing" textLength="48.542" x="199.83" y="271.2">+run(): void</text></g><!--class BuyTrainPartController--><g id="elem_BuyTrainPartController"><rect codeLine="98" fill="#F1F1F1" height="98.0508" id="BuyTrainPartController" rx="1.5" ry="1.5" style="stroke:#181818;stroke-width:0.3;" width="292.0043" x="448.818" y="362.556"/><ellipse cx="546.1604" cy="372.156" fill="#ADD1B2" rx="6.6" ry="6.6" style="stroke:#181818;stroke-width:0.6;"/><path d="M547.9443,375.5418 Q547.5956,375.7211 547.2121,375.8108 Q546.8286,375.9004 546.4053,375.9004 Q544.9012,375.9004 544.1093,374.9093 Q543.3174,373.9182 543.3174,372.0456 Q543.3174,370.1679 544.1093,369.1768 Q544.9012,368.1857 546.4053,368.1857 Q546.8286,368.1857 547.2171,368.2753 Q547.6056,368.365 547.9443,368.5443 L547.9443,370.1779 Q547.5658,369.8292 547.2097,369.6674 Q546.8535,369.5055 546.475,369.5055 Q545.6682,369.5055 545.2573,370.1455 Q544.8464,370.7855 544.8464,372.0456 Q544.8464,373.3006 545.2573,373.9406 Q545.6682,374.5806 546.475,374.5806 Q546.8535,374.5806 547.2097,374.4187 Q547.5658,374.2569 547.9443,373.9082 Z " fill="#000000"/><text fill="#000000" font-family="sans-serif" font-size="8.4" lengthAdjust="spacing" textLength="92.2195" x="558.4604" y="375.3306">BuyTrainPartController</text><line style="stroke:#181818;stroke-width:0.3;" x1="449.418" x2="740.2223" y1="381.756" y2="381.756"/><text fill="#000000" font-family="sans-serif" font-size="8.4" lengthAdjust="spacing" textLength="166.4947" x="452.418" y="392.2771">-carriageRepository : CarriageRepository</text><text fill="#000000" font-family="sans-serif" font-size="8.4" lengthAdjust="spacing" textLength="81.3586" x="452.418" y="402.1701">-scenario : Scenario</text><text fill="#000000" font-family="sans-serif" font-size="8.4" lengthAdjust="spacing" textLength="98.6262" x="452.418" y="412.063">-simulation : Simulation</text><line style="stroke:#181818;stroke-width:0.3;" x1="449.418" x2="740.2223" y1="416.2349" y2="416.2349"/><text fill="#000000" font-family="sans-serif" font-size="8.4" lengthAdjust="spacing" textLength="274.6242" x="452.418" y="426.756">+BuyTrainPartController(scenario: Scenario, simulation: Simulation)</text><text fill="#000000" font-family="sans-serif" font-size="8.4" lengthAdjust="spacing" textLength="284.8043" x="452.418" y="436.649">+getAvailableLocomotivesByDate(currentDate: int): List&lt;Locomotive&gt;</text><text fill="#000000" font-family="sans-serif" font-size="8.4" lengthAdjust="spacing" textLength="208.2773" x="452.418" y="446.5419">+buyLocomotive(locomotive: Locomotive): boolean</text><text fill="#000000" font-family="sans-serif" font-size="8.4" lengthAdjust="spacing" textLength="13.4367" x="452.418" y="456.4349">...()</text></g><!--class LocomotiveRepository--><g id="elem_LocomotiveRepository"><rect codeLine="111" fill="#F1F1F1" height="88.1578" id="LocomotiveRepository" rx="1.5" ry="1.5" style="stroke:#181818;stroke-width:0.3;" width="173.7357" x="709.554" y="572.526"/><ellipse cx="748.8839" cy="582.126" fill="#ADD1B2" rx="6.6" ry="6.6" style="stroke:#181818;stroke-width:0.6;"/><path d="M750.6678,585.5118 Q750.3191,585.6911 749.9356,585.7808 Q749.5521,585.8704 749.1288,585.8704 Q747.6247,585.8704 746.8328,584.8793 Q746.0409,583.8882 746.0409,582.0156 Q746.0409,580.1379 746.8328,579.1468 Q747.6247,578.1557 749.1288,578.1557 Q749.5521,578.1557 749.9406,578.2453 Q750.3291,578.335 750.6678,578.5143 L750.6678,580.1479 Q750.2893,579.7992 749.9332,579.6374 Q749.577,579.4755 749.1985,579.4755 Q748.3917,579.4755 747.9808,580.1155 Q747.5699,580.7555 747.5699,582.0156 Q747.5699,583.2706 747.9808,583.9106 Q748.3917,584.5506 749.1985,584.5506 Q749.577,584.5506 749.9332,584.3887 Q750.2893,584.2269 750.6678,583.8782 Z " fill="#000000"/><text fill="#000000" font-family="sans-serif" font-size="8.4" lengthAdjust="spacing" textLength="89.976" x="761.1839" y="585.3006">LocomotiveRepository</text><line style="stroke:#181818;stroke-width:0.3;" x1="710.154" x2="882.6897" y1="591.726" y2="591.726"/><text fill="#000000" font-family="sans-serif" font-size="8.4" lengthAdjust="spacing" textLength="146.2002" x="713.154" y="602.2471">-locomotiveList : List&lt;Locomotive&gt;</text><line style="stroke:#181818;stroke-width:0.3;" x1="710.154" x2="882.6897" y1="606.419" y2="606.419"/><text fill="#000000" font-family="sans-serif" font-size="8.4" lengthAdjust="spacing" textLength="102.1166" x="713.154" y="616.9401">+LocomotiveRepository()</text><text fill="#000000" font-family="sans-serif" font-size="8.4" lengthAdjust="spacing" textLength="149.2928" x="713.154" y="626.833">+save(locomotive: Locomotive): void</text><text fill="#000000" font-family="sans-serif" font-size="8.4" lengthAdjust="spacing" textLength="166.5357" x="713.154" y="636.726">+getAllLocomotives(): List&lt;Locomotive&gt;</text><text fill="#000000" font-family="sans-serif" font-size="8.4" lengthAdjust="spacing" textLength="54.1652" x="713.154" y="646.619">+clear(): void</text><text fill="#000000" font-family="sans-serif" font-size="8.4" lengthAdjust="spacing" textLength="13.4367" x="713.154" y="656.5119">...()</text></g><!--class Repositories--><g id="elem_Repositories"><rect codeLine="120" fill="#F1F1F1" height="68.3719" id="Repositories" rx="1.5" ry="1.5" style="stroke:#181818;stroke-width:0.3;" width="217.6676" x="666.588" y="846.798"/><ellipse cx="747.7333" cy="856.398" fill="#ADD1B2" rx="6.6" ry="6.6" style="stroke:#181818;stroke-width:0.6;"/><path d="M749.5172,859.7838 Q749.1686,859.9631 748.7851,860.0528 Q748.4016,860.1424 747.9782,860.1424 Q746.4741,860.1424 745.6822,859.1513 Q744.8903,858.1602 744.8903,856.2876 Q744.8903,854.4099 745.6822,853.4188 Q746.4741,852.4277 747.9782,852.4277 Q748.4016,852.4277 748.7901,852.5173 Q749.1785,852.607 749.5172,852.7863 L749.5172,854.4199 Q749.1387,854.0712 748.7826,853.9094 Q748.4265,853.7475 748.048,853.7475 Q747.2411,853.7475 746.8302,854.3875 Q746.4193,855.0275 746.4193,856.2876 Q746.4193,857.5426 746.8302,858.1826 Q747.2411,858.8226 748.048,858.8226 Q748.4265,858.8226 748.7826,858.6607 Q749.1387,858.4989 749.5172,858.1502 Z " fill="#000000"/><text fill="#000000" font-family="sans-serif" font-size="8.4" lengthAdjust="spacing" textLength="50.277" x="760.0333" y="859.5726">Repositories</text><line style="stroke:#181818;stroke-width:0.3;" x1="667.188" x2="883.6556" y1="865.998" y2="865.998"/><text fill="#000000" font-family="sans-serif" font-size="8.4" lengthAdjust="spacing" textLength="97.0102" x="670.188" y="876.5191">-instance : Repositories</text><line style="stroke:#181818;stroke-width:0.3;" x1="667.188" x2="883.6556" y1="880.691" y2="880.691"/><text fill="#000000" font-family="sans-serif" font-size="8.4" lengthAdjust="spacing" text-decoration="underline" textLength="114.6838" x="670.188" y="891.2121">+getInstance(): Repositories</text><text fill="#000000" font-family="sans-serif" font-size="8.4" lengthAdjust="spacing" textLength="210.4676" x="670.188" y="901.105">+getLocomotiveRepository(): LocomotiveRepository</text><text fill="#000000" font-family="sans-serif" font-size="8.4" lengthAdjust="spacing" textLength="13.4367" x="670.188" y="910.998">...()</text></g><g id="elem_GMN33"><path d="M1091.838,1025.37 L1091.838,1040.5563 A0,0 0 0 0 1091.838,1040.5563 L1415.4021,1040.5563 A0,0 0 0 0 1415.4021,1040.5563 L1415.4021,1031.37 L1409.4021,1025.37 L1256.022,1025.37 L1253.622,989.616 L1251.222,1025.37 L1091.838,1025.37 A0,0 0 0 0 1091.838,1025.37 " fill="#FEFFDD" style="stroke:#181818;stroke-width:0.3;"/><path d="M1409.4021,1025.37 L1409.4021,1031.37 L1415.4021,1031.37 L1409.4021,1025.37 " fill="#FEFFDD" style="stroke:#181818;stroke-width:0.3;"/><text fill="#000000" font-family="sans-serif" font-size="7.8" lengthAdjust="spacing" textLength="310.9641" x="1095.438" y="1035.911">Represents a train locomotive with attributes such as power, speed, and fuel type.</text></g><g id="elem_GMN36"><path d="M1271.73,721.416 L1271.73,736.6023 A0,0 0 0 0 1271.73,736.6023 L1534.3147,736.6023 A0,0 0 0 0 1534.3147,736.6023 L1534.3147,727.416 L1528.3147,721.416 L1315.488,721.416 L1313.088,685.71 L1310.688,721.416 L1271.73,721.416 A0,0 0 0 0 1271.73,721.416 " fill="#FEFFDD" style="stroke:#181818;stroke-width:0.3;"/><path d="M1528.3147,721.416 L1528.3147,727.416 L1534.3147,727.416 L1528.3147,721.416 " fill="#FEFFDD" style="stroke:#181818;stroke-width:0.3;"/><text fill="#000000" font-family="sans-serif" font-size="7.8" lengthAdjust="spacing" textLength="249.9847" x="1275.33" y="731.957">Manages the available and bought locomotives for the simulation.</text></g><g id="elem_GMN39"><path d="M322.218,496.608 L322.218,511.7943 A0,0 0 0 0 322.218,511.7943 L603.4305,511.7943 A0,0 0 0 0 603.4305,511.7943 L603.4305,502.608 L597.4305,496.608 L528.522,496.608 L526.122,460.872 L523.722,496.608 L322.218,496.608 A0,0 0 0 0 322.218,496.608 " fill="#FEFFDD" style="stroke:#181818;stroke-width:0.3;"/><path d="M597.4305,496.608 L597.4305,502.608 L603.4305,502.608 L597.4305,496.608 " fill="#FEFFDD" style="stroke:#181818;stroke-width:0.3;"/><text fill="#000000" font-family="sans-serif" font-size="7.8" lengthAdjust="spacing" textLength="268.6125" x="325.818" y="507.149">Handles the logic for buying locomotives and retrieving available ones.</text></g><g id="elem_GMN42"><path d="M237.18,311.37 L237.18,326.5563 A0,0 0 0 0 237.18,326.5563 L442.4682,326.5563 A0,0 0 0 0 442.4682,326.5563 L442.4682,317.37 L436.4682,311.37 L342.222,311.37 L339.822,275.526 L337.422,311.37 L237.18,311.37 A0,0 0 0 0 237.18,311.37 " fill="#FEFFDD" style="stroke:#181818;stroke-width:0.3;"/><path d="M436.4682,311.37 L436.4682,317.37 L442.4682,317.37 L436.4682,311.37 " fill="#FEFFDD" style="stroke:#181818;stroke-width:0.3;"/><text fill="#000000" font-family="sans-serif" font-size="7.8" lengthAdjust="spacing" textLength="192.6882" x="240.78" y="321.911">Provides the user interface for buying locomotives.</text></g><!--link User to Player--><g id="link_User_Player"><path codeLine="130" d="M162.822,33.126 C162.822,52.344 162.822,82.44 162.822,101.73 " fill="none" id="User-to-Player" style="stroke:#181818;stroke-width:0.6;"/><polygon fill="#181818" points="162.822,105.33,165.222,99.93,162.822,102.33,160.422,99.93,162.822,105.33" style="stroke:#181818;stroke-width:0.6;"/><text fill="#000000" font-family="sans-serif" font-size="7.8" lengthAdjust="spacing" textLength="32.7463" x="129.822" y="67.169">interacts</text><text fill="#000000" font-family="sans-serif" font-size="7.8" lengthAdjust="spacing" textLength="4.9321" x="157.4527" y="45.3273">1</text><text fill="#000000" font-family="sans-serif" font-size="7.8" lengthAdjust="spacing" textLength="3.7591" x="158.8027" y="99.221">*</text></g><!--link Player to Simulation--><g id="link_Player_Simulation"><path codeLine="131" d="M151.968,134.592 C151.968,197.874 151.968,446.802 151.968,558.912 " fill="none" id="Player-to-Simulation" style="stroke:#181818;stroke-width:0.6;"/><polygon fill="#181818" points="151.968,562.512,154.368,557.112,151.968,559.512,149.568,557.112,151.968,562.512" style="stroke:#181818;stroke-width:0.6;"/><text fill="#000000" font-family="sans-serif" font-size="7.8" lengthAdjust="spacing" textLength="51.237" x="100.368" y="346.493">interacts with</text><text fill="#000000" font-family="sans-serif" font-size="7.8" lengthAdjust="spacing" textLength="4.9321" x="143.9535" y="146.8094">1</text><text fill="#000000" font-family="sans-serif" font-size="7.8" lengthAdjust="spacing" textLength="4.9321" x="148.6596" y="556.2086">1</text></g><!--link Player to BuyLocomotiveUI--><g id="link_Player_BuyLocomotiveUI"><path codeLine="132" d="M173.676,134.634 C173.676,166.902 173.676,241.326 173.676,241.326 C173.676,241.326 178.878,241.326 192.414,241.326 " fill="none" id="Player-to-BuyLocomotiveUI" style="stroke:#181818;stroke-width:0.6;"/><polygon fill="#181818" points="196.014,241.326,190.614,238.926,193.014,241.326,190.614,243.726,196.014,241.326" style="stroke:#181818;stroke-width:0.6;"/><text fill="#000000" font-family="sans-serif" font-size="7.8" lengthAdjust="spacing" textLength="17.1387" x="156.276" y="197.087">uses</text><text fill="#000000" font-family="sans-serif" font-size="7.8" lengthAdjust="spacing" textLength="4.9321" x="170.8463" y="146.6213">1</text><text fill="#000000" font-family="sans-serif" font-size="7.8" lengthAdjust="spacing" textLength="4.9321" x="186.4778" y="239.727">1</text></g><!--link Player to BuyTrainPartController--><g id="link_Player_BuyTrainPartController"><path codeLine="133" d="M162.822,134.55 C162.822,190.29 162.822,387.126 162.822,387.126 C162.822,387.126 319.638,387.126 444.966,387.126 " fill="none" id="Player-to-BuyTrainPartController" style="stroke:#181818;stroke-width:0.6;stroke-dasharray:7.0,7.0;"/><polygon fill="#181818" points="448.566,387.126,443.166,384.726,445.566,387.126,443.166,389.526,448.566,387.126" style="stroke:#181818;stroke-width:0.6;"/><text fill="#000000" font-family="sans-serif" font-size="7.8" lengthAdjust="spacing" textLength="51.237" x="127.806" y="385.067">interacts with</text><text fill="#000000" font-family="sans-serif" font-size="7.8" lengthAdjust="spacing" textLength="4.9321" x="157.4531" y="146.7572">1</text><text fill="#000000" font-family="sans-serif" font-size="7.8" lengthAdjust="spacing" textLength="4.9321" x="438.8905" y="384.72">1</text></g><!--link BuyLocomotiveUI to BuyTrainPartController--><g id="link_BuyLocomotiveUI_BuyTrainPartController"><path codeLine="135" d="M464.316,275.664 C464.316,300.558 464.316,330.942 464.316,358.692 " fill="none" id="BuyLocomotiveUI-to-BuyTrainPartController" style="stroke:#181818;stroke-width:0.6;stroke-dasharray:7.0,7.0;"/><polygon fill="#181818" points="464.316,362.292,466.716,356.892,464.316,359.292,461.916,356.892,464.316,362.292" style="stroke:#181818;stroke-width:0.6;"/><text fill="#000000" font-family="sans-serif" font-size="7.8" lengthAdjust="spacing" textLength="51.237" x="464.916" y="316.919">interacts with</text><text fill="#000000" font-family="sans-serif" font-size="7.8" lengthAdjust="spacing" textLength="4.9321" x="473.8489" y="287.7226">1</text><text fill="#000000" font-family="sans-serif" font-size="7.8" lengthAdjust="spacing" textLength="4.9321" x="447.6851" y="356.0507">1</text></g><!--link BuyLocomotiveUI to Simulation--><g id="link_BuyLocomotiveUI_Simulation"><path codeLine="136" d="M216.702,275.664 C216.702,341.142 216.702,480.354 216.702,558.768 " fill="none" id="BuyLocomotiveUI-to-Simulation" style="stroke:#181818;stroke-width:0.6;stroke-dasharray:7.0,7.0;"/><polygon fill="#181818" points="216.702,562.368,219.102,556.968,216.702,559.368,214.302,556.968,216.702,562.368" style="stroke:#181818;stroke-width:0.6;"/><text fill="#000000" font-family="sans-serif" font-size="7.8" lengthAdjust="spacing" textLength="17.1387" x="199.302" y="416.957">uses</text><text fill="#000000" font-family="sans-serif" font-size="7.8" lengthAdjust="spacing" textLength="4.9321" x="197.6045" y="287.7226">1</text><text fill="#000000" font-family="sans-serif" font-size="7.8" lengthAdjust="spacing" textLength="4.9321" x="218.4958" y="556.2359">1</text></g><!--link BuyTrainPartController to Scenario--><g id="link_BuyTrainPartController_Scenario"><path codeLine="138" d="M730.398,460.782 C730.398,502.332 730.398,555.126 730.398,555.126 C730.398,555.126 971.184,555.126 1121.424,555.126 " fill="none" id="BuyTrainPartController-to-Scenario" style="stroke:#181818;stroke-width:0.6;stroke-dasharray:7.0,7.0;"/><polygon fill="#181818" points="1125.024,555.126,1119.624,552.726,1122.024,555.126,1119.624,557.526,1125.024,555.126" style="stroke:#181818;stroke-width:0.6;"/><text fill="#000000" font-family="sans-serif" font-size="7.8" lengthAdjust="spacing" textLength="33.9231" x="846.336" y="553.067">manages</text><text fill="#000000" font-family="sans-serif" font-size="7.8" lengthAdjust="spacing" textLength="4.9321" x="737.0486" y="472.9459">1</text><text fill="#000000" font-family="sans-serif" font-size="7.8" lengthAdjust="spacing" textLength="4.9321" x="1115.2826" y="550.8874">1</text></g><!--link BuyTrainPartController to Simulation--><g id="link_BuyTrainPartController_Simulation"><path codeLine="139" d="M448.542,411.726 C353.85,411.726 248.112,411.726 248.112,411.726 C248.112,411.726 248.112,498.21 248.112,558.906 " fill="none" id="BuyTrainPartController-to-Simulation" style="stroke:#181818;stroke-width:0.6;stroke-dasharray:7.0,7.0;"/><polygon fill="#181818" points="248.112,562.506,250.512,557.106,248.112,559.506,245.712,557.106,248.112,562.506" style="stroke:#181818;stroke-width:0.6;"/><text fill="#000000" font-family="sans-serif" font-size="7.8" lengthAdjust="spacing" textLength="17.1387" x="255.534" y="409.667">uses</text><text fill="#000000" font-family="sans-serif" font-size="7.8" lengthAdjust="spacing" textLength="4.9321" x="438.8657" y="410.1272">1</text><text fill="#000000" font-family="sans-serif" font-size="7.8" lengthAdjust="spacing" textLength="4.9321" x="252.7655" y="556.2021">1</text></g><!--link BuyTrainPartController to LocomotiveRepository--><g id="link_BuyTrainPartController_LocomotiveRepository"><path codeLine="140" d="M719.976,460.686 C719.976,494.628 719.976,535.806 719.976,568.662 " fill="none" id="BuyTrainPartController-to-LocomotiveRepository" style="stroke:#181818;stroke-width:0.6;stroke-dasharray:7.0,7.0;"/><polygon fill="#181818" points="719.976,572.262,722.376,566.862,719.976,569.262,717.576,566.862,719.976,572.262" style="stroke:#181818;stroke-width:0.6;"/><text fill="#000000" font-family="sans-serif" font-size="7.8" lengthAdjust="spacing" textLength="32.6054" x="686.976" y="514.415">retrieves</text><text fill="#000000" font-family="sans-serif" font-size="7.8" lengthAdjust="spacing" textLength="4.9321" x="726.1148" y="473.0095">1</text><text fill="#000000" font-family="sans-serif" font-size="7.8" lengthAdjust="spacing" textLength="4.9321" x="707.6673" y="566.1566">1</text></g><!--link BuyTrainPartController to TimeDate--><g id="link_BuyTrainPartController_TimeDate"><path codeLine="141" d="M448.74,436.326 C370.74,436.326 290.628,436.326 290.628,436.326 C290.628,436.326 290.628,697.38 290.628,818.34 " fill="none" id="BuyTrainPartController-to-TimeDate" style="stroke:#181818;stroke-width:0.6;stroke-dasharray:7.0,7.0;"/><polygon fill="#181818" points="290.628,821.94,293.028,816.54,290.628,818.94,288.228,816.54,290.628,821.94" style="stroke:#181818;stroke-width:0.6;"/><text fill="#000000" font-family="sans-serif" font-size="7.8" lengthAdjust="spacing" textLength="17.1387" x="273.228" y="548.015">uses</text><text fill="#000000" font-family="sans-serif" font-size="7.8" lengthAdjust="spacing" textLength="4.9321" x="439.0702" y="435.5343">1</text><text fill="#000000" font-family="sans-serif" font-size="7.8" lengthAdjust="spacing" textLength="4.9321" x="287.2577" y="815.623">1</text></g><!--link BuyTrainPartController to Repositories--><g id="link_BuyTrainPartController_Repositories"><path codeLine="142" d="M680.91,460.71 C680.91,556.098 680.91,760.644 680.91,842.922 " fill="none" id="BuyTrainPartController-to-Repositories" style="stroke:#181818;stroke-width:0.6;stroke-dasharray:7.0,7.0;"/><polygon fill="#181818" points="680.91,846.522,683.31,841.122,680.91,843.522,678.51,841.122,680.91,846.522" style="stroke:#181818;stroke-width:0.6;"/><text fill="#000000" font-family="sans-serif" font-size="7.8" lengthAdjust="spacing" textLength="17.1387" x="663.51" y="651.557">uses</text><text fill="#000000" font-family="sans-serif" font-size="7.8" lengthAdjust="spacing" textLength="4.9321" x="683.3078" y="472.8677">1</text><text fill="#000000" font-family="sans-serif" font-size="7.8" lengthAdjust="spacing" textLength="4.9321" x="664.3069" y="840.3259">1</text></g><!--link BuyTrainPartController to Locomotive--><g id="link_BuyTrainPartController_Locomotive"><path codeLine="143" d="M695.232,460.854 C695.232,566.502 695.232,805.326 695.232,805.326 C695.232,805.326 813.816,805.326 943.872,805.326 " fill="none" id="BuyTrainPartController-to-Locomotive" style="stroke:#181818;stroke-width:0.6;stroke-dasharray:7.0,7.0;"/><polygon fill="#181818" points="947.472,805.326,942.072,802.926,944.472,805.326,942.072,807.726,947.472,805.326" style="stroke:#181818;stroke-width:0.6;"/><text fill="#000000" font-family="sans-serif" font-size="7.8" lengthAdjust="spacing" textLength="33.9231" x="661.032" y="757.151">manages</text><text fill="#000000" font-family="sans-serif" font-size="7.8" lengthAdjust="spacing" textLength="4.9321" x="698.8606" y="473.0241">1</text><text fill="#000000" font-family="sans-serif" font-size="7.8" lengthAdjust="spacing" textLength="4.9321" x="937.3699" y="802.4909">1</text></g><!--link BuyTrainPartController to FuelType--><g id="link_BuyTrainPartController_FuelType"><path codeLine="144" d="M741,411.726 C825.726,411.726 915.822,411.726 915.822,411.726 C915.822,411.726 915.822,932.022 915.822,1072.716 " fill="none" id="BuyTrainPartController-to-FuelType" style="stroke:#181818;stroke-width:0.6;"/><polygon fill="#181818" points="915.822,1076.316,918.222,1070.916,915.822,1073.316,913.422,1070.916,915.822,1076.316" style="stroke:#181818;stroke-width:0.6;"/><text fill="#000000" font-family="sans-serif" font-size="7.8" lengthAdjust="spacing" textLength="17.1387" x="898.422" y="654.551">uses</text><text fill="#000000" font-family="sans-serif" font-size="7.8" lengthAdjust="spacing" textLength="4.9321" x="745.4129" y="410.1405">1</text><text fill="#000000" font-family="sans-serif" font-size="7.8" lengthAdjust="spacing" textLength="4.9321" x="910.7376" y="1070.1243">1</text></g><!--link Scenario to Locomotive--><g id="link_Scenario_Locomotive"><path codeLine="146" d="M1198.464,685.548 C1198.464,712.092 1198.464,739.488 1198.464,768.876 " fill="none" id="Scenario-to-Locomotive" style="stroke:#181818;stroke-width:0.6;"/><polygon fill="#181818" points="1198.464,772.476,1200.864,767.076,1198.464,769.476,1196.064,767.076,1198.464,772.476" style="stroke:#181818;stroke-width:0.6;"/><text fill="#000000" font-family="sans-serif" font-size="7.8" lengthAdjust="spacing" textLength="31.9236" x="1166.064" y="726.953">contains</text><text fill="#000000" font-family="sans-serif" font-size="7.8" lengthAdjust="spacing" textLength="4.9321" x="1190.8652" y="697.7999">1</text><text fill="#000000" font-family="sans-serif" font-size="7.8" lengthAdjust="spacing" textLength="3.7591" x="1192.4644" y="766.2534">*</text></g><!--link Simulation to TimeDate--><g id="link_Simulation_TimeDate"><path codeLine="148" d="M221.442,670.746 C221.442,714.702 221.442,773.01 221.442,818.262 " fill="none" id="Simulation-to-TimeDate" style="stroke:#181818;stroke-width:0.6;"/><polygon fill="#181818" points="221.442,821.862,223.842,816.462,221.442,818.862,219.042,816.462,221.442,821.862" style="stroke:#181818;stroke-width:0.6;"/><text fill="#000000" font-family="sans-serif" font-size="7.8" lengthAdjust="spacing" textLength="62.1829" x="159.042" y="744.245">has current time</text><text fill="#000000" font-family="sans-serif" font-size="7.8" lengthAdjust="spacing" textLength="4.9321" x="223.6135" y="682.9675">1</text><text fill="#000000" font-family="sans-serif" font-size="7.8" lengthAdjust="spacing" textLength="4.9321" x="212.7746" y="815.5391">1</text></g><!--link Locomotive to FuelType--><g id="link_Locomotive_FuelType"><path codeLine="150" d="M947.388,964.926 C936.24,964.926 929.742,964.926 929.742,964.926 C929.742,964.926 929.742,1029.66 929.742,1072.77 " fill="none" id="Locomotive-to-FuelType" style="stroke:#181818;stroke-width:0.6;"/><polygon fill="#181818" points="929.742,1076.37,932.142,1070.97,929.742,1073.37,927.342,1070.97,929.742,1076.37" style="stroke:#181818;stroke-width:0.6;"/><text fill="#000000" font-family="sans-serif" font-size="7.8" lengthAdjust="spacing" textLength="17.1387" x="912.342" y="1009.769">uses</text><text fill="#000000" font-family="sans-serif" font-size="7.8" lengthAdjust="spacing" textLength="3.7591" x="939.4574" y="964.5855">*</text><text fill="#000000" font-family="sans-serif" font-size="7.8" lengthAdjust="spacing" textLength="4.9321" x="926.3541" y="1070.1849">1</text></g><!--link Repositories to LocomotiveRepository--><g id="link_Repositories_LocomotiveRepository"><path codeLine="152" d="M752.988,846.69 C752.988,799.188 752.988,716.91 752.988,664.572 " fill="none" id="Repositories-to-LocomotiveRepository" style="stroke:#181818;stroke-width:0.6;"/><polygon fill="#181818" points="752.988,660.972,750.588,666.372,752.988,663.972,755.388,666.372,752.988,660.972" style="stroke:#181818;stroke-width:0.6;"/><text fill="#000000" font-family="sans-serif" font-size="7.8" lengthAdjust="spacing" textLength="32.4149" x="719.988" y="751.775">provides</text><text fill="#000000" font-family="sans-serif" font-size="7.8" lengthAdjust="spacing" textLength="4.9321" x="745.0146" y="840.2725">1</text><text fill="#000000" font-family="sans-serif" font-size="7.8" lengthAdjust="spacing" textLength="4.9321" x="743.9688" y="673.0265">1</text></g><!--link LocomotiveRepository to Repositories--><g id="link_LocomotiveRepository_Repositories"><path codeLine="154" d="M796.422,660.858 C796.422,713.112 796.422,795.324 796.422,842.904 " fill="none" id="LocomotiveRepository-to-Repositories" style="stroke:#181818;stroke-width:0.6;stroke-dasharray:7.0,7.0;"/><polygon fill="#181818" points="796.422,846.504,798.822,841.104,796.422,843.504,794.022,841.104,796.422,846.504" style="stroke:#181818;stroke-width:0.6;"/><text fill="#000000" font-family="sans-serif" font-size="7.8" lengthAdjust="spacing" textLength="17.1387" x="779.022" y="751.619">uses</text><text fill="#000000" font-family="sans-serif" font-size="7.8" lengthAdjust="spacing" textLength="4.9321" x="791.3996" y="673.0547">1</text><text fill="#000000" font-family="sans-serif" font-size="7.8" lengthAdjust="spacing" textLength="4.9321" x="793.897" y="840.3057">1</text></g><!--link LocomotiveRepository to Locomotive--><g id="link_LocomotiveRepository_Locomotive"><path codeLine="153" d="M839.856,660.81 C839.856,711.924 839.856,789.126 839.856,789.126 C839.856,789.126 882.408,789.126 943.89,789.126 " fill="none" id="LocomotiveRepository-to-Locomotive" style="stroke:#181818;stroke-width:0.6;"/><polygon fill="#181818" points="947.49,789.126,942.09,786.726,944.49,789.126,942.09,791.526,947.49,789.126" style="stroke:#181818;stroke-width:0.6;"/><text fill="#000000" font-family="sans-serif" font-size="7.8" lengthAdjust="spacing" textLength="31.9236" x="807.456" y="776.723">contains</text><text fill="#000000" font-family="sans-serif" font-size="7.8" lengthAdjust="spacing" textLength="4.9321" x="838.9734" y="673.0021">1</text><text fill="#000000" font-family="sans-serif" font-size="7.8" lengthAdjust="spacing" textLength="3.7591" x="938.5988" y="786.0124">*</text></g><!--link LocomotiveRepository to FuelType--><g id="link_LocomotiveRepository_FuelType"><path codeLine="155" d="M883.524,616.326 C894.456,616.326 901.902,616.326 901.902,616.326 C901.902,616.326 901.902,960.642 901.902,1072.764 " fill="none" id="LocomotiveRepository-to-FuelType" style="stroke:#181818;stroke-width:0.6;"/><polygon fill="#181818" points="901.902,1076.364,904.302,1070.964,901.902,1073.364,899.502,1070.964,901.902,1076.364" style="stroke:#181818;stroke-width:0.6;"/><text fill="#000000" font-family="sans-serif" font-size="7.8" lengthAdjust="spacing" textLength="17.1387" x="884.502" y="835.103">uses</text><text fill="#000000" font-family="sans-serif" font-size="7.8" lengthAdjust="spacing" textLength="4.9321" x="888.1424" y="614.6254">1</text><text fill="#000000" font-family="sans-serif" font-size="7.8" lengthAdjust="spacing" textLength="4.9321" x="895.1211" y="1070.1781">1</text></g><!--SRC=[bHZBRkeuT9-liBePEhHePej6bIZbwaQ2WaYwcAK91gmRuepjjCDStN-VOyVn8mzAsP2Szyld74Vye4M9EJwZ4cS_y94ayf8Jn4acSN7CIIGiWJZXFVkWnH4TS2vyJ4uB8YybGINBB-gb3yUuFB78msGv5c8c9QUxIf8uOqL2_oFeZoYIh4IIeHsJaftHdYfhA2kYw3VqsFC3yCjwDOjVqNmvIv95CaIdDQ8tGJZw6VsApFicnvSGicGPEpD9tmb04VmUKO7F14rH0jOMHmChsGVmJT6ULJk8L0t4MKPomh4ok8q3lvAIa7qRBYJcyc-2-RfqdBIGLkG_5HLKmJUSPYH07YgIfog-K_JDF1eCnpJd3E-Na86P42oZM6hT3VFOStIa76pyUwXTQwny29noqCOT1-awehKzT5mmuCPuP_kziUn8v2jODBeFOgxX6sMRGdWnr8YPPsKVFZNszk6IZkMAoaLAYmzzw10qFYX4a0kDtVQc8nGYMUrio-t9P3AwT-MPPAJ0d39Rd6TSGbfNkBnIhBG0ot6-OWMv10K4ELCkBQcG05T_VoKrwAcfltSm7KEuNBdur0xQCEnOTJn91nT3f6E4ztkl27FxEFLg4uBnpkZUoqI_GIfgmsgUMqRTggpD9mRLjDAKqZDvWHpRD5sWl8BGdraXJy61R7X6YjOS4asbdxt3eKgrKu0hHTc1fapglCkJwE1UwE50E2cWcgLHFRL61CGxSc1yW6h7M4vmCLp4hdJfkShh3jT49Qiu622Lk30u-DyE36UowjRms1CxCcosxrY60699l93EdI4zPz_A2N4YnBNr-TLaouCKrTas21E7btYHB9RwSR5SpDDjFDSlIRgOhKBsmI7u5byVVC_LnPNiMsmp85nIfbuec_n0vN2MvthKWOWKvagnWMuvjmWJYvPy4uocMqrjtthmDFeAcrpmIZTV7RXh_ixNh-bslLmkjicdZlTOxIeGSqvXzTcIaa5_PrmLrxm3RABLT5_dq0rn70yOCH9V3az_0nJF5zqup76gpsXTWGCzSUUdQxWR-eVxynhSBZRh94xNs_YpDSmfyUBUf2I_QTACUuMCca09_8MHakUtjFWnRAscytRFTUsNDOJ2tFjffo-CsKAlRZxUoFofPt3sInaI6qgbeeSKAFfzdlR6ukQiBMTfl7vDliURmRJflVdkppk5VK9tlzyrcxEkCzYQCYaY0z9aJ_elyK-59KGVL9u2waT3t-vIKrG94WYUMCA-KzrH4hKbQXcJBqhf5zBZehOs6X0Rg4vS9pdZ0dgDk8sje-qMhjxZDeMB7aneylw9a5g4NMXkKLkp18VXTZRl0dPJR9hQ-UOkGtKQR8Y3kWt4g_a6KXMn2snGaPxV9ooQXGMfLIYAF5bAzEEWAK4eVAC7CbDozaxtmDcBjm86tHbacrnBpdLbVNuDTvNNTJey10e60JKtV7RmVD0j2vHp8Y3A0c4aLTQzaQ0F9CBDbmE1H9N1kwXlhJ0-rIKFDhrYho-OI7r-cC3MjKTAQTHM7KpnLLriI9w8k_TeKVMbnZD38DY8DQ6RrrVKN5cTleFyt2ZDsP5cMZBCP_MnnLUex30dLg6SWR1mYkkw_UQbbMvCVMcjbUhjkkCTC4ofVlMUWly1]--></g></svg>