<svg xmlns="http://www.w3.org/2000/svg" xmlns:xlink="http://www.w3.org/1999/xlink" contentStyleType="text/css" height="1157px" preserveAspectRatio="none" style="width:1497px;height:1157px;background:#FFFFFF;" version="1.1" viewBox="0 0 1497 1157" width="1497px" zoomAndPan="magnify"><defs/><g><rect fill="#FFFFFF" height="975.2715" style="stroke:#181818;stroke-width:1.0;" width="10" x="48.1797" y="91.4883"/><rect fill="#FFFFFF" height="29.3105" style="stroke:#181818;stroke-width:1.0;" width="10" x="53.1797" y="591.7676"/><rect fill="#FFFFFF" height="30" style="stroke:#181818;stroke-width:1.0;" width="10" x="53.1797" y="823.252"/><rect fill="#FFFFFF" height="30" style="stroke:#181818;stroke-width:1.0;" width="10" x="53.1797" y="1014.7598"/><rect fill="#FFFFFF" height="740.4531" style="stroke:#181818;stroke-width:1.0;" width="10" x="319.7373" y="112.7988"/><rect fill="#FFFFFF" height="711.1426" style="stroke:#181818;stroke-width:1.0;" width="10" x="639.7529" y="142.1094"/><rect fill="#FFFFFF" height="29.3105" style="stroke:#181818;stroke-width:1.0;" width="10" x="855.1318" y="195.7305"/><rect fill="#FFFFFF" height="29.3105" style="stroke:#181818;stroke-width:1.0;" width="10" x="965.1416" y="254.3516"/><rect fill="#FFFFFF" height="29.3105" style="stroke:#181818;stroke-width:1.0;" width="10" x="1110.4487" y="312.9727"/><rect fill="#FFFFFF" height="29.3105" style="stroke:#181818;stroke-width:1.0;" width="10" x="1242.5112" y="371.5938"/><rect fill="#FFFFFF" height="29.3105" style="stroke:#181818;stroke-width:1.0;" width="10" x="1335.4414" y="430.2148"/><rect fill="#FFFFFF" height="29.3105" style="stroke:#181818;stroke-width:1.0;" width="10" x="1335.4414" y="711.0098"/><rect fill="none" height="382.0371" style="stroke:#000000;stroke-width:1.5;" width="1147.793" x="247.7109" y="157.1094"/><rect fill="none" height="105.2422" style="stroke:#000000;stroke-width:1.5;" width="720.8174" x="20" y="553.1465"/><rect fill="none" height="387.3711" style="stroke:#000000;stroke-width:1.5;" width="1395.5039" x="10" y="672.3887"/><rect fill="none" height="297.4395" style="stroke:#000000;stroke-width:1.5;" width="1375.5039" x="20" y="755.3203"/><line style="stroke:#181818;stroke-width:0.5;stroke-dasharray:5.0,5.0;" x1="53" x2="53" y1="81.4883" y2="1076.7598"/><line style="stroke:#181818;stroke-width:0.5;stroke-dasharray:5.0,5.0;" x1="324.7109" x2="324.7109" y1="81.4883" y2="1076.7598"/><line style="stroke:#181818;stroke-width:0.5;stroke-dasharray:5.0,5.0;" x1="644.6885" x2="644.6885" y1="81.4883" y2="1076.7598"/><line style="stroke:#181818;stroke-width:0.5;stroke-dasharray:5.0,5.0;" x1="859.2344" x2="859.2344" y1="81.4883" y2="1076.7598"/><line style="stroke:#181818;stroke-width:0.5;stroke-dasharray:5.0,5.0;" x1="970.0293" x2="970.0293" y1="81.4883" y2="1076.7598"/><line style="stroke:#181818;stroke-width:0.5;stroke-dasharray:5.0,5.0;" x1="1115.2539" x2="1115.2539" y1="81.4883" y2="1076.7598"/><line style="stroke:#181818;stroke-width:0.5;stroke-dasharray:5.0,5.0;" x1="1246.6436" x2="1246.6436" y1="81.4883" y2="1076.7598"/><line style="stroke:#181818;stroke-width:0.5;stroke-dasharray:5.0,5.0;" x1="1340.3789" x2="1340.3789" y1="81.4883" y2="1076.7598"/><line style="stroke:#181818;stroke-width:0.5;stroke-dasharray:5.0,5.0;" x1="1443.5039" x2="1443.5039" y1="81.4883" y2="1076.7598"/><text fill="#000000" font-family="sans-serif" font-size="14" lengthAdjust="spacing" textLength="40.3594" x="30" y="78.5352">Player</text><ellipse cx="53.1797" cy="13.5" fill="#E2E2F0" rx="8" ry="8" style="stroke:#181818;stroke-width:0.5;"/><path d="M53.1797,21.5 L53.1797,48.5 M40.1797,29.5 L66.1797,29.5 M53.1797,48.5 L40.1797,63.5 M53.1797,48.5 L66.1797,63.5 " fill="none" style="stroke:#181818;stroke-width:0.5;"/><text fill="#000000" font-family="sans-serif" font-size="14" lengthAdjust="spacing" textLength="40.3594" x="30" y="1089.2949">Player</text><ellipse cx="53.1797" cy="1100.748" fill="#E2E2F0" rx="8" ry="8" style="stroke:#181818;stroke-width:0.5;"/><path d="M53.1797,1108.748 L53.1797,1135.748 M40.1797,1116.748 L66.1797,1116.748 M53.1797,1135.748 L40.1797,1150.748 M53.1797,1135.748 L66.1797,1150.748 " fill="none" style="stroke:#181818;stroke-width:0.5;"/><rect fill="#E2E2F0" height="30.4883" rx="2.5" ry="2.5" style="stroke:#181818;stroke-width:0.5;" width="134.0527" x="257.7109" y="50"/><text fill="#000000" font-family="sans-serif" font-size="14" lengthAdjust="spacing" textLength="120.0527" x="264.7109" y="70.5352">:BuyLocomotiveUI</text><rect fill="#E2E2F0" height="30.4883" rx="2.5" ry="2.5" style="stroke:#181818;stroke-width:0.5;" width="134.0527" x="257.7109" y="1075.7598"/><text fill="#000000" font-family="sans-serif" font-size="14" lengthAdjust="spacing" textLength="120.0527" x="264.7109" y="1096.2949">:BuyLocomotiveUI</text><rect fill="#E2E2F0" height="30.4883" rx="2.5" ry="2.5" style="stroke:#181818;stroke-width:0.5;" width="172.1289" x="558.6885" y="50"/><text fill="#000000" font-family="sans-serif" font-size="14" lengthAdjust="spacing" textLength="158.1289" x="565.6885" y="70.5352">:BuyTrainPartController</text><rect fill="#E2E2F0" height="30.4883" rx="2.5" ry="2.5" style="stroke:#181818;stroke-width:0.5;" width="172.1289" x="558.6885" y="1075.7598"/><text fill="#000000" font-family="sans-serif" font-size="14" lengthAdjust="spacing" textLength="158.1289" x="565.6885" y="1096.2949">:BuyTrainPartController</text><rect fill="#E2E2F0" height="30.4883" rx="2.5" ry="2.5" style="stroke:#181818;stroke-width:0.5;" width="97.7949" x="811.2344" y="50"/><text fill="#000000" font-family="sans-serif" font-size="14" lengthAdjust="spacing" textLength="83.7949" x="818.2344" y="70.5352">Repositories</text><rect fill="#E2E2F0" height="30.4883" rx="2.5" ry="2.5" style="stroke:#181818;stroke-width:0.5;" width="97.7949" x="811.2344" y="1075.7598"/><text fill="#000000" font-family="sans-serif" font-size="14" lengthAdjust="spacing" textLength="83.7949" x="818.2344" y="1096.2949">Repositories</text><rect fill="#E2E2F0" height="46.9766" rx="2.5" ry="2.5" style="stroke:#181818;stroke-width:0.5;" width="102.2246" x="919.0293" y="33.5117"/><text fill="#000000" font-family="sans-serif" font-size="14" lengthAdjust="spacing" textLength="80.6709" x="929.8062" y="54.0469">repositories</text><text fill="#000000" font-family="sans-serif" font-size="14" lengthAdjust="spacing" textLength="88.2246" x="926.0293" y="70.5352">:Repositories</text><rect fill="#E2E2F0" height="46.9766" rx="2.5" ry="2.5" style="stroke:#181818;stroke-width:0.5;" width="102.2246" x="919.0293" y="1075.7598"/><text fill="#000000" font-family="sans-serif" font-size="14" lengthAdjust="spacing" textLength="80.6709" x="929.8062" y="1096.2949">repositories</text><text fill="#000000" font-family="sans-serif" font-size="14" lengthAdjust="spacing" textLength="88.2246" x="926.0293" y="1112.7832">:Repositories</text><rect fill="#E2E2F0" height="46.9766" rx="2.5" ry="2.5" style="stroke:#181818;stroke-width:0.5;" width="168.3896" x="1031.2539" y="33.5117"/><text fill="#000000" font-family="sans-serif" font-size="14" lengthAdjust="spacing" textLength="146.542" x="1042.1777" y="54.0469">locomotiveRepository</text><text fill="#000000" font-family="sans-serif" font-size="14" lengthAdjust="spacing" textLength="154.3896" x="1038.2539" y="70.5352">:LocomotiveRepository</text><rect fill="#E2E2F0" height="46.9766" rx="2.5" ry="2.5" style="stroke:#181818;stroke-width:0.5;" width="168.3896" x="1031.2539" y="1075.7598"/><text fill="#000000" font-family="sans-serif" font-size="14" lengthAdjust="spacing" textLength="146.542" x="1042.1777" y="1096.2949">locomotiveRepository</text><text fill="#000000" font-family="sans-serif" font-size="14" lengthAdjust="spacing" textLength="154.3896" x="1038.2539" y="1112.7832">:LocomotiveRepository</text><rect fill="#E2E2F0" height="30.4883" rx="2.5" ry="2.5" style="stroke:#181818;stroke-width:0.5;" width="75.7354" x="1209.6436" y="50"/><text fill="#000000" font-family="sans-serif" font-size="14" lengthAdjust="spacing" textLength="61.7354" x="1216.6436" y="70.5352">:Scenario</text><rect fill="#E2E2F0" height="30.4883" rx="2.5" ry="2.5" style="stroke:#181818;stroke-width:0.5;" width="75.7354" x="1209.6436" y="1075.7598"/><text fill="#000000" font-family="sans-serif" font-size="14" lengthAdjust="spacing" textLength="61.7354" x="1216.6436" y="1096.2949">:Scenario</text><rect fill="#E2E2F0" height="30.4883" rx="2.5" ry="2.5" style="stroke:#181818;stroke-width:0.5;" width="90.125" x="1295.3789" y="50"/><text fill="#000000" font-family="sans-serif" font-size="14" lengthAdjust="spacing" textLength="76.125" x="1302.3789" y="70.5352">:Simulation</text><rect fill="#E2E2F0" height="30.4883" rx="2.5" ry="2.5" style="stroke:#181818;stroke-width:0.5;" width="90.125" x="1295.3789" y="1075.7598"/><text fill="#000000" font-family="sans-serif" font-size="14" lengthAdjust="spacing" textLength="76.125" x="1302.3789" y="1096.2949">:Simulation</text><rect fill="#E2E2F0" height="30.4883" rx="2.5" ry="2.5" style="stroke:#181818;stroke-width:0.5;" width="96.2637" x="1395.5039" y="50"/><text fill="#000000" font-family="sans-serif" font-size="14" lengthAdjust="spacing" textLength="82.2637" x="1402.5039" y="70.5352">:Locomotive</text><rect fill="#E2E2F0" height="30.4883" rx="2.5" ry="2.5" style="stroke:#181818;stroke-width:0.5;" width="96.2637" x="1395.5039" y="1075.7598"/><text fill="#000000" font-family="sans-serif" font-size="14" lengthAdjust="spacing" textLength="82.2637" x="1402.5039" y="1096.2949">:Locomotive</text><rect fill="#FFFFFF" height="975.2715" style="stroke:#181818;stroke-width:1.0;" width="10" x="48.1797" y="91.4883"/><rect fill="#FFFFFF" height="29.3105" style="stroke:#181818;stroke-width:1.0;" width="10" x="53.1797" y="591.7676"/><rect fill="#FFFFFF" height="30" style="stroke:#181818;stroke-width:1.0;" width="10" x="53.1797" y="823.252"/><rect fill="#FFFFFF" height="30" style="stroke:#181818;stroke-width:1.0;" width="10" x="53.1797" y="1014.7598"/><rect fill="#FFFFFF" height="740.4531" style="stroke:#181818;stroke-width:1.0;" width="10" x="319.7373" y="112.7988"/><rect fill="#FFFFFF" height="711.1426" style="stroke:#181818;stroke-width:1.0;" width="10" x="639.7529" y="142.1094"/><rect fill="#FFFFFF" height="29.3105" style="stroke:#181818;stroke-width:1.0;" width="10" x="855.1318" y="195.7305"/><rect fill="#FFFFFF" height="29.3105" style="stroke:#181818;stroke-width:1.0;" width="10" x="965.1416" y="254.3516"/><rect fill="#FFFFFF" height="29.3105" style="stroke:#181818;stroke-width:1.0;" width="10" x="1110.4487" y="312.9727"/><rect fill="#FFFFFF" height="29.3105" style="stroke:#181818;stroke-width:1.0;" width="10" x="1242.5112" y="371.5938"/><rect fill="#FFFFFF" height="29.3105" style="stroke:#181818;stroke-width:1.0;" width="10" x="1335.4414" y="430.2148"/><rect fill="#FFFFFF" height="29.3105" style="stroke:#181818;stroke-width:1.0;" width="10" x="1335.4414" y="711.0098"/><polygon fill="#181818" points="307.7373,108.7988,317.7373,112.7988,307.7373,116.7988,311.7373,112.7988" style="stroke:#181818;stroke-width:1.0;"/><line style="stroke:#181818;stroke-width:1.0;" x1="58.1797" x2="313.7373" y1="112.7988" y2="112.7988"/><text fill="#000000" font-family="sans-serif" font-size="13" font-weight="bold" lengthAdjust="spacing" textLength="8.5757" x="65.1797" y="108.0566">1</text><text fill="#000000" font-family="sans-serif" font-size="13" lengthAdjust="spacing" textLength="182.7935" x="77.7554" y="108.0566">requests to buy a locomotive</text><polygon fill="#181818" points="627.7529,138.1094,637.7529,142.1094,627.7529,146.1094,631.7529,142.1094" style="stroke:#181818;stroke-width:1.0;"/><line style="stroke:#181818;stroke-width:1.0;" x1="329.7373" x2="633.7529" y1="142.1094" y2="142.1094"/><text fill="#000000" font-family="sans-serif" font-size="13" font-weight="bold" lengthAdjust="spacing" textLength="8.5757" x="336.7373" y="137.3672">2</text><text fill="#000000" font-family="sans-serif" font-size="13" lengthAdjust="spacing" textLength="278.4399" x="349.313" y="137.3672">BuyTrainPartController(scenario, simulation)</text><path d="M247.7109,157.1094 L501.8726,157.1094 L501.8726,164.4199 L491.8726,174.4199 L247.7109,174.4199 L247.7109,157.1094 " fill="#EEEEEE" style="stroke:#000000;stroke-width:1.5;"/><rect fill="none" height="382.0371" style="stroke:#000000;stroke-width:1.5;" width="1147.793" x="247.7109" y="157.1094"/><text fill="#000000" font-family="sans-serif" font-size="13" font-weight="bold" lengthAdjust="spacing" textLength="209.1616" x="262.7109" y="170.6777">Retrieve Available Locomotives</text><polygon fill="#181818" points="843.1318,191.7305,853.1318,195.7305,843.1318,199.7305,847.1318,195.7305" style="stroke:#181818;stroke-width:1.0;"/><line style="stroke:#181818;stroke-width:1.0;" x1="649.7529" x2="849.1318" y1="195.7305" y2="195.7305"/><text fill="#000000" font-family="sans-serif" font-size="13" font-weight="bold" lengthAdjust="spacing" textLength="8.5757" x="656.7529" y="190.9883">3</text><text fill="#000000" font-family="sans-serif" font-size="13" lengthAdjust="spacing" textLength="81.1167" x="669.3286" y="190.9883">getInstance()</text><polygon fill="#181818" points="660.7529,221.041,650.7529,225.041,660.7529,229.041,656.7529,225.041" style="stroke:#181818;stroke-width:1.0;"/><line style="stroke:#181818;stroke-width:1.0;stroke-dasharray:2.0,2.0;" x1="654.7529" x2="859.1318" y1="225.041" y2="225.041"/><text fill="#000000" font-family="sans-serif" font-size="13" font-weight="bold" lengthAdjust="spacing" textLength="8.5757" x="666.7529" y="220.2988">4</text><text fill="#000000" font-family="sans-serif" font-size="13" lengthAdjust="spacing" textLength="74.9087" x="679.3286" y="220.2988">repositories</text><polygon fill="#181818" points="953.1416,250.3516,963.1416,254.3516,953.1416,258.3516,957.1416,254.3516" style="stroke:#181818;stroke-width:1.0;"/><line style="stroke:#181818;stroke-width:1.0;" x1="649.7529" x2="959.1416" y1="254.3516" y2="254.3516"/><text fill="#000000" font-family="sans-serif" font-size="13" font-weight="bold" lengthAdjust="spacing" textLength="8.5757" x="656.7529" y="249.6094">5</text><text fill="#000000" font-family="sans-serif" font-size="13" lengthAdjust="spacing" textLength="167.9146" x="669.3286" y="249.6094">getLocomotiveRepository()</text><polygon fill="#181818" points="660.7529,279.6621,650.7529,283.6621,660.7529,287.6621,656.7529,283.6621" style="stroke:#181818;stroke-width:1.0;"/><line style="stroke:#181818;stroke-width:1.0;stroke-dasharray:2.0,2.0;" x1="654.7529" x2="969.1416" y1="283.6621" y2="283.6621"/><text fill="#000000" font-family="sans-serif" font-size="13" font-weight="bold" lengthAdjust="spacing" textLength="8.5757" x="666.7529" y="278.9199">6</text><text fill="#000000" font-family="sans-serif" font-size="13" lengthAdjust="spacing" textLength="136.0747" x="679.3286" y="278.9199">locomotiveRepository</text><polygon fill="#181818" points="1098.4487,308.9727,1108.4487,312.9727,1098.4487,316.9727,1102.4487,312.9727" style="stroke:#181818;stroke-width:1.0;"/><line style="stroke:#181818;stroke-width:1.0;" x1="649.7529" x2="1104.4487" y1="312.9727" y2="312.9727"/><text fill="#000000" font-family="sans-serif" font-size="13" font-weight="bold" lengthAdjust="spacing" textLength="8.5757" x="656.7529" y="308.2305">7</text><text fill="#000000" font-family="sans-serif" font-size="13" lengthAdjust="spacing" textLength="124.0522" x="669.3286" y="308.2305">getAllLocomotives()</text><polygon fill="#181818" points="660.7529,338.2832,650.7529,342.2832,660.7529,346.2832,656.7529,342.2832" style="stroke:#181818;stroke-width:1.0;"/><line style="stroke:#181818;stroke-width:1.0;stroke-dasharray:2.0,2.0;" x1="654.7529" x2="1114.4487" y1="342.2832" y2="342.2832"/><text fill="#000000" font-family="sans-serif" font-size="13" font-weight="bold" lengthAdjust="spacing" textLength="8.5757" x="666.7529" y="337.541">8</text><text fill="#000000" font-family="sans-serif" font-size="13" lengthAdjust="spacing" textLength="93.5962" x="679.3286" y="337.541">allLocomotives</text><polygon fill="#181818" points="1230.5112,367.5938,1240.5112,371.5938,1230.5112,375.5938,1234.5112,371.5938" style="stroke:#181818;stroke-width:1.0;"/><line style="stroke:#181818;stroke-width:1.0;" x1="649.7529" x2="1236.5112" y1="371.5938" y2="371.5938"/><text fill="#000000" font-family="sans-serif" font-size="13" font-weight="bold" lengthAdjust="spacing" textLength="8.5757" x="656.7529" y="366.8516">9</text><text fill="#000000" font-family="sans-serif" font-size="13" lengthAdjust="spacing" textLength="179.8735" x="669.3286" y="366.8516">getAvailableLocomotiveList()</text><polygon fill="#181818" points="660.7529,396.9043,650.7529,400.9043,660.7529,404.9043,656.7529,400.9043" style="stroke:#181818;stroke-width:1.0;"/><line style="stroke:#181818;stroke-width:1.0;stroke-dasharray:2.0,2.0;" x1="654.7529" x2="1246.5112" y1="400.9043" y2="400.9043"/><text fill="#000000" font-family="sans-serif" font-size="13" font-weight="bold" lengthAdjust="spacing" textLength="17.1514" x="666.7529" y="396.1621">10</text><text fill="#000000" font-family="sans-serif" font-size="13" lengthAdjust="spacing" textLength="133.8657" x="687.9043" y="396.1621">availableLocomotives</text><polygon fill="#181818" points="1323.4414,426.2148,1333.4414,430.2148,1323.4414,434.2148,1327.4414,430.2148" style="stroke:#181818;stroke-width:1.0;"/><line style="stroke:#181818;stroke-width:1.0;" x1="649.7529" x2="1329.4414" y1="430.2148" y2="430.2148"/><text fill="#000000" font-family="sans-serif" font-size="13" font-weight="bold" lengthAdjust="spacing" textLength="17.1514" x="656.7529" y="425.4727">11</text><text fill="#000000" font-family="sans-serif" font-size="13" lengthAdjust="spacing" textLength="107.8975" x="677.9043" y="425.4727">getCurrentTime()</text><polygon fill="#181818" points="660.7529,455.5254,650.7529,459.5254,660.7529,463.5254,656.7529,459.5254" style="stroke:#181818;stroke-width:1.0;"/><line style="stroke:#181818;stroke-width:1.0;stroke-dasharray:2.0,2.0;" x1="654.7529" x2="1339.4414" y1="459.5254" y2="459.5254"/><text fill="#000000" font-family="sans-serif" font-size="13" font-weight="bold" lengthAdjust="spacing" textLength="17.1514" x="666.7529" y="454.7832">12</text><text fill="#000000" font-family="sans-serif" font-size="13" lengthAdjust="spacing" textLength="76.8955" x="687.9043" y="454.7832">currentTime</text><line style="stroke:#181818;stroke-width:1.0;" x1="649.7529" x2="691.7529" y1="488.8359" y2="488.8359"/><line style="stroke:#181818;stroke-width:1.0;" x1="691.7529" x2="691.7529" y1="488.8359" y2="501.8359"/><line style="stroke:#181818;stroke-width:1.0;" x1="650.7529" x2="691.7529" y1="501.8359" y2="501.8359"/><polygon fill="#181818" points="660.7529,497.8359,650.7529,501.8359,660.7529,505.8359,656.7529,501.8359" style="stroke:#181818;stroke-width:1.0;"/><text fill="#000000" font-family="sans-serif" font-size="13" font-weight="bold" lengthAdjust="spacing" textLength="17.1514" x="656.7529" y="484.0938">13</text><text fill="#000000" font-family="sans-serif" font-size="13" lengthAdjust="spacing" textLength="160.2275" x="677.9043" y="484.0938">filter locomotives by date</text><polygon fill="#181818" points="340.7373,527.1465,330.7373,531.1465,340.7373,535.1465,336.7373,531.1465" style="stroke:#181818;stroke-width:1.0;"/><line style="stroke:#181818;stroke-width:1.0;stroke-dasharray:2.0,2.0;" x1="334.7373" x2="638.7529" y1="531.1465" y2="531.1465"/><text fill="#000000" font-family="sans-serif" font-size="13" font-weight="bold" lengthAdjust="spacing" textLength="17.1514" x="346.7373" y="526.4043">14</text><text fill="#000000" font-family="sans-serif" font-size="13" lengthAdjust="spacing" textLength="124.0459" x="367.8887" y="526.4043">filteredLocomotives</text><path d="M20,553.1465 L185.1802,553.1465 L185.1802,560.457 L175.1802,570.457 L20,570.457 L20,553.1465 " fill="#EEEEEE" style="stroke:#000000;stroke-width:1.5;"/><rect fill="none" height="105.2422" style="stroke:#000000;stroke-width:1.5;" width="720.8174" x="20" y="553.1465"/><text fill="#000000" font-family="sans-serif" font-size="13" font-weight="bold" lengthAdjust="spacing" textLength="120.1802" x="35" y="566.7148">Select Locomotive</text><polygon fill="#181818" points="74.1797,587.7676,64.1797,591.7676,74.1797,595.7676,70.1797,591.7676" style="stroke:#181818;stroke-width:1.0;"/><line style="stroke:#181818;stroke-width:1.0;stroke-dasharray:2.0,2.0;" x1="68.1797" x2="318.7373" y1="591.7676" y2="591.7676"/><text fill="#000000" font-family="sans-serif" font-size="13" font-weight="bold" lengthAdjust="spacing" textLength="17.1514" x="80.1797" y="587.0254">15</text><text fill="#000000" font-family="sans-serif" font-size="13" lengthAdjust="spacing" textLength="171.6152" x="101.3311" y="587.0254">show available locomotives</text><polygon fill="#181818" points="307.7373,617.0781,317.7373,621.0781,307.7373,625.0781,311.7373,621.0781" style="stroke:#181818;stroke-width:1.0;"/><line style="stroke:#181818;stroke-width:1.0;" x1="58.1797" x2="313.7373" y1="621.0781" y2="621.0781"/><text fill="#000000" font-family="sans-serif" font-size="13" font-weight="bold" lengthAdjust="spacing" textLength="17.1514" x="65.1797" y="616.3359">16</text><text fill="#000000" font-family="sans-serif" font-size="13" lengthAdjust="spacing" textLength="109.605" x="86.3311" y="616.3359">select locomotive</text><polygon fill="#181818" points="627.7529,646.3887,637.7529,650.3887,627.7529,654.3887,631.7529,650.3887" style="stroke:#181818;stroke-width:1.0;"/><line style="stroke:#181818;stroke-width:1.0;" x1="329.7373" x2="633.7529" y1="650.3887" y2="650.3887"/><text fill="#000000" font-family="sans-serif" font-size="13" font-weight="bold" lengthAdjust="spacing" textLength="17.1514" x="336.7373" y="645.6465">17</text><text fill="#000000" font-family="sans-serif" font-size="13" lengthAdjust="spacing" textLength="227.8618" x="357.8887" y="645.6465">buyLocomotive(selectedLocomotive)</text><path d="M10,672.3887 L174.0947,672.3887 L174.0947,679.6992 L164.0947,689.6992 L10,689.6992 L10,672.3887 " fill="#EEEEEE" style="stroke:#000000;stroke-width:1.5;"/><rect fill="none" height="387.3711" style="stroke:#000000;stroke-width:1.5;" width="1395.5039" x="10" y="672.3887"/><text fill="#000000" font-family="sans-serif" font-size="13" font-weight="bold" lengthAdjust="spacing" textLength="119.0947" x="25" y="685.957">Validate Purchase</text><polygon fill="#181818" points="1323.4414,707.0098,1333.4414,711.0098,1323.4414,715.0098,1327.4414,711.0098" style="stroke:#181818;stroke-width:1.0;"/><line style="stroke:#181818;stroke-width:1.0;" x1="649.7529" x2="1329.4414" y1="711.0098" y2="711.0098"/><text fill="#000000" font-family="sans-serif" font-size="13" font-weight="bold" lengthAdjust="spacing" textLength="17.1514" x="656.7529" y="706.2676">18</text><text fill="#000000" font-family="sans-serif" font-size="13" lengthAdjust="spacing" textLength="109.4463" x="677.9043" y="706.2676">getActualMoney()</text><polygon fill="#181818" points="660.7529,736.3203,650.7529,740.3203,660.7529,744.3203,656.7529,740.3203" style="stroke:#181818;stroke-width:1.0;"/><line style="stroke:#181818;stroke-width:1.0;stroke-dasharray:2.0,2.0;" x1="654.7529" x2="1339.4414" y1="740.3203" y2="740.3203"/><text fill="#000000" font-family="sans-serif" font-size="13" font-weight="bold" lengthAdjust="spacing" textLength="17.1514" x="666.7529" y="735.5781">19</text><text fill="#000000" font-family="sans-serif" font-size="13" lengthAdjust="spacing" textLength="78.9902" x="687.9043" y="735.5781">actualMoney</text><path d="M20,755.3203 L82.1387,755.3203 L82.1387,762.6309 L72.1387,772.6309 L20,772.6309 L20,755.3203 " fill="#EEEEEE" style="stroke:#000000;stroke-width:1.5;"/><rect fill="none" height="297.4395" style="stroke:#000000;stroke-width:1.5;" width="1375.5039" x="20" y="755.3203"/><text fill="#000000" font-family="sans-serif" font-size="13" font-weight="bold" lengthAdjust="spacing" textLength="17.1387" x="35" y="768.8887">alt</text><text fill="#000000" font-family="sans-serif" font-size="11" font-weight="bold" lengthAdjust="spacing" textLength="115.5161" x="97.1387" y="767.9551">[Not enough money]</text><polygon fill="#181818" points="340.7373,789.9414,330.7373,793.9414,340.7373,797.9414,336.7373,793.9414" style="stroke:#181818;stroke-width:1.0;"/><line style="stroke:#181818;stroke-width:1.0;stroke-dasharray:2.0,2.0;" x1="334.7373" x2="638.7529" y1="793.9414" y2="793.9414"/><text fill="#000000" font-family="sans-serif" font-size="13" font-weight="bold" lengthAdjust="spacing" textLength="17.1514" x="346.7373" y="789.1992">20</text><text fill="#000000" font-family="sans-serif" font-size="13" lengthAdjust="spacing" textLength="210.4946" x="367.8887" y="789.1992">"You do not have enough money"</text><polygon fill="#181818" points="74.1797,819.252,64.1797,823.252,74.1797,827.252,70.1797,823.252" style="stroke:#181818;stroke-width:1.0;"/><line style="stroke:#181818;stroke-width:1.0;stroke-dasharray:2.0,2.0;" x1="68.1797" x2="318.7373" y1="823.252" y2="823.252"/><text fill="#000000" font-family="sans-serif" font-size="13" font-weight="bold" lengthAdjust="spacing" textLength="17.1514" x="80.1797" y="818.5098">21</text><text fill="#000000" font-family="sans-serif" font-size="13" lengthAdjust="spacing" textLength="202.2935" x="101.3311" y="818.5098">showError("Not enough money")</text><polygon fill="#181818" points="312.7373,878.5625,322.7373,882.5625,312.7373,886.5625,316.7373,882.5625" style="stroke:#181818;stroke-width:1.0;"/><line style="stroke:#181818;stroke-width:1.0;stroke-dasharray:2.0,2.0;" x1="58.1797" x2="318.7373" y1="882.5625" y2="882.5625"/><text fill="#000000" font-family="sans-serif" font-size="13" font-weight="bold" lengthAdjust="spacing" textLength="17.1514" x="65.1797" y="877.8203">22</text><text fill="#000000" font-family="sans-serif" font-size="13" lengthAdjust="spacing" textLength="4.1133" x="86.3311" y="877.8203">&#160;</text><line style="stroke:#000000;stroke-width:1.0;stroke-dasharray:2.0,2.0;" x1="20" x2="1395.5039" y1="891.5625" y2="891.5625"/><text fill="#000000" font-family="sans-serif" font-size="11" font-weight="bold" lengthAdjust="spacing" textLength="103.3184" x="25" y="902.1973">[Sufficient money]</text><polygon fill="#181818" points="1328.4414,922.8281,1338.4414,926.8281,1328.4414,930.8281,1332.4414,926.8281" style="stroke:#181818;stroke-width:1.0;"/><line style="stroke:#181818;stroke-width:1.0;" x1="644.7529" x2="1334.4414" y1="926.8281" y2="926.8281"/><text fill="#000000" font-family="sans-serif" font-size="13" font-weight="bold" lengthAdjust="spacing" textLength="17.1514" x="651.7529" y="922.0859">23</text><text fill="#000000" font-family="sans-serif" font-size="13" lengthAdjust="spacing" textLength="233.8667" x="672.9043" y="922.0859">setActualMoney(actualMoney - price)</text><polygon fill="#181818" points="1235.5112,952.1387,1245.5112,956.1387,1235.5112,960.1387,1239.5112,956.1387" style="stroke:#181818;stroke-width:1.0;"/><line style="stroke:#181818;stroke-width:1.0;" x1="644.7529" x2="1241.5112" y1="956.1387" y2="956.1387"/><text fill="#000000" font-family="sans-serif" font-size="13" font-weight="bold" lengthAdjust="spacing" textLength="17.1514" x="651.7529" y="951.3965">24</text><text fill="#000000" font-family="sans-serif" font-size="13" lengthAdjust="spacing" textLength="272.9302" x="672.9043" y="951.3965">addBoughtLocomotive(selectedLocomotive)</text><polygon fill="#181818" points="335.7373,981.4492,325.7373,985.4492,335.7373,989.4492,331.7373,985.4492" style="stroke:#181818;stroke-width:1.0;"/><line style="stroke:#181818;stroke-width:1.0;stroke-dasharray:2.0,2.0;" x1="329.7373" x2="643.7529" y1="985.4492" y2="985.4492"/><text fill="#000000" font-family="sans-serif" font-size="13" font-weight="bold" lengthAdjust="spacing" textLength="17.1514" x="341.7373" y="980.707">25</text><text fill="#000000" font-family="sans-serif" font-size="13" lengthAdjust="spacing" textLength="211.1484" x="362.8887" y="980.707">"Locomotive bought successfully"</text><polygon fill="#181818" points="74.1797,1010.7598,64.1797,1014.7598,74.1797,1018.7598,70.1797,1014.7598" style="stroke:#181818;stroke-width:1.0;"/><line style="stroke:#181818;stroke-width:1.0;stroke-dasharray:2.0,2.0;" x1="68.1797" x2="323.7373" y1="1014.7598" y2="1014.7598"/><text fill="#000000" font-family="sans-serif" font-size="13" font-weight="bold" lengthAdjust="spacing" textLength="17.1514" x="80.1797" y="1010.0176">26</text><text fill="#000000" font-family="sans-serif" font-size="13" lengthAdjust="spacing" textLength="221.4063" x="101.3311" y="1010.0176">showSuccess("Locomotive bought")</text><!--SRC=[hLRRRk8m47tdAqPv0cdx0poiH14FaL90X5QgjDBA90DODNRM5why_JeE97OkR5UgNwewCsUEvvonKH-K5qII2nGa-o0dJ7N942Hccl0Jmubg0jIPvEAJyXCS2LF-5qOvwh9045AVnOGOBRYv751E9YJJGaAqPQH46G5Hi4tU9pPDqumMX6k8vi-cJ4GcBaBJAxx6BkerxWVj9Q5yQtUNWcif6BiXBlUx98pUOI4KjPKfAXUoMsqtQHWZlPXVV3wSyZjUf_imZpLKcvJIvYS3smudsIn_Mwm1f7cQ8IUI2XUNBbVhnIxUT6FenJ2YgU1rLFpocYpsyMRTYMlhtwjkNZRx-6tbDA1Nej6r7kooV-7ff-qnpAtIVmmghK0BE9WI2BG7TC5DjfMa-jzcsTogvpPxM9MfkXti1wY6_Yn4SwAvhMgTf305x53RzbyH5bT26JbO8xR7KarmjLnzoyEfP8cSKCTSMSzcE9q5aKt5sWF-fphvgJsExuaWCiSEp3WP9tJDQCWJ3zdL9kbHh24zdaCUVCYt1XuaxVkpfhrWp6lx6E70rtv40EYH9W7i6Dq0Tf3mVL1kPEzMQR4JglGOwsRAeBCQL9zn7tkKTmCypBaPsvhrqaY9NE_fPTIktgJtkBPe7jkinHmbsM8EqhmX7IdJA3sNAJYKa5k4WQpxHL8dOJxKA-HvTzPJPFQDyUOxWAuk6GjSNLHp-_28prOBdzPmv-xNt7tvrvsgoxBXibwhkY31jNVmNwnfZUcVVFRev6-4qToLC38x4uLVSimYquQm5y6n_3R7a1RpVnr3c8QrqFPymfpESEbXz0qIlGi3kG1kqyx4tl9-RjHBxbbW9QMGqwXRDPhrKaT5_8V6dS_kYNhm_VOW-akYDf87ssX_Aq5gZaVxLjlnVDYgZkmgbDsJ2vwWa3J3sJXGUqkIF7-k-gM_wDaH-TfGE3WuK2RBKAcZOUmh0gPr-BIFz8qQLWFN6xwkgA688TfV]--></g></svg>