<svg xmlns="http://www.w3.org/2000/svg" xmlns:xlink="http://www.w3.org/1999/xlink" contentStyleType="text/css" height="463.2px" preserveAspectRatio="none" style="width:572px;height:463px;background:#FFFFFF;" version="1.1" viewBox="0 0 572 463" width="572.4px" zoomAndPan="magnify"><defs/><g><rect fill="#FFFFFF" height="385.4766" style="stroke:#181818;stroke-width:0.4000000000000001;" width="4" x="8.5145" y="37.4484"/><rect fill="#FFFFFF" height="376.1602" style="stroke:#181818;stroke-width:0.4000000000000001;" width="4" x="117.0867" y="46.7648"/><rect fill="#FFFFFF" height="359.6438" style="stroke:#181818;stroke-width:0.4000000000000001;" width="4" x="267.5578" y="63.2813"/><rect fill="#FFFFFF" height="12.5164" style="stroke:#181818;stroke-width:0.4000000000000001;" width="4" x="415.6875" y="312.5414"/><rect fill="#FFFFFF" height="25.0328" style="stroke:#181818;stroke-width:0.4000000000000001;" width="4" x="451.1205" y="337.5742"/><rect fill="#FFFFFF" height="12.5164" style="stroke:#181818;stroke-width:0.4000000000000001;" width="4" x="513.7535" y="350.0906"/><rect fill="#FFFFFF" height="20.8969" style="stroke:#181818;stroke-width:0.4000000000000001;" width="4" x="555.7271" y="181.6609"/><rect fill="none" height="32.7492" style="stroke:#000000;stroke-width:0.6000000000000001;" width="214.8074" x="91.5875" y="120.2789"/><rect fill="none" height="134.4688" style="stroke:#000000;stroke-width:0.6000000000000001;" width="457.8445" x="87.5875" y="276.3398"/><rect fill="none" height="39.4016" style="stroke:#000000;stroke-width:0.6000000000000001;" width="214.8074" x="91.5875" y="368.607"/><line style="stroke:#181818;stroke-width:0.20000000000000004;stroke-dasharray:5.0,5.0;" x1="10.4" x2="10.4" y1="33.4484" y2="430.125"/><line style="stroke:#181818;stroke-width:0.20000000000000004;stroke-dasharray:5.0,5.0;" x1="118.7875" x2="118.7875" y1="33.4484" y2="430.125"/><line style="stroke:#181818;stroke-width:0.20000000000000004;stroke-dasharray:5.0,5.0;" x1="269.5207" x2="269.5207" y1="62.6891" y2="430.125"/><line style="stroke:#181818;stroke-width:0.20000000000000004;stroke-dasharray:5.0,5.0;" x1="372.5539" x2="372.5539" y1="33.4484" y2="430.125"/><line style="stroke:#181818;stroke-width:0.20000000000000004;stroke-dasharray:5.0,5.0;" x1="417.6793" x2="417.6793" y1="33.4484" y2="430.125"/><line style="stroke:#181818;stroke-width:0.20000000000000004;stroke-dasharray:5.0,5.0;" x1="452.8957" x2="452.8957" y1="33.4484" y2="430.125"/><line style="stroke:#181818;stroke-width:0.20000000000000004;stroke-dasharray:5.0,5.0;" x1="515.675" x2="515.675" y1="33.4484" y2="430.125"/><line style="stroke:#181818;stroke-width:0.20000000000000004;stroke-dasharray:5.0,5.0;" x1="557.432" x2="557.432" y1="184.793" y2="430.125"/><text fill="#000000" font-family="sans-serif" font-size="5.6" lengthAdjust="spacing" textLength="14.6289" x="2" y="32.043">Editor</text><ellipse cx="10.5145" cy="5.4" fill="#E2E2F0" rx="3.2" ry="3.2" style="stroke:#181818;stroke-width:0.20000000000000004;"/><path d="M10.5145,8.6 L10.5145,19.4 M5.3145,11.8 L15.7145,11.8 M10.5145,19.4 L5.3145,25.4 M10.5145,19.4 L15.7145,25.4 " fill="none" style="stroke:#181818;stroke-width:0.20000000000000004;"/><text fill="#000000" font-family="sans-serif" font-size="5.6" lengthAdjust="spacing" textLength="14.6289" x="2" y="435.768">Editor</text><ellipse cx="10.5145" cy="440.5734" fill="#E2E2F0" rx="3.2" ry="3.2" style="stroke:#181818;stroke-width:0.20000000000000004;"/><path d="M10.5145,443.7734 L10.5145,454.5734 M5.3145,446.9734 L15.7145,446.9734 M10.5145,454.5734 L5.3145,460.5734 M10.5145,454.5734 L15.7145,460.5734 " fill="none" style="stroke:#181818;stroke-width:0.20000000000000004;"/><rect fill="#E2E2F0" height="13.0484" rx="1" ry="1" style="stroke:#181818;stroke-width:0.20000000000000004;" width="46.9984" x="95.5875" y="20"/><text fill="#000000" font-family="sans-serif" font-size="5.6" lengthAdjust="spacing" textLength="41.3984" x="98.3875" y="28.843">:CreateStationUI</text><rect fill="#E2E2F0" height="13.0484" rx="1" ry="1" style="stroke:#181818;stroke-width:0.20000000000000004;" width="46.9984" x="95.5875" y="429.725"/><text fill="#000000" font-family="sans-serif" font-size="5.6" lengthAdjust="spacing" textLength="41.3984" x="98.3875" y="438.568">:CreateStationUI</text><rect fill="#E2E2F0" height="13.0484" rx="1" ry="1" style="stroke:#181818;stroke-width:0.20000000000000004;" width="65.6742" x="236.7207" y="429.725"/><text fill="#000000" font-family="sans-serif" font-size="5.6" lengthAdjust="spacing" textLength="60.0742" x="239.5207" y="438.568">:CreateStationController</text><rect fill="#E2E2F0" height="13.0484" rx="1" ry="1" style="stroke:#181818;stroke-width:0.20000000000000004;" width="36.7254" x="354.5539" y="20"/><text fill="#000000" font-family="sans-serif" font-size="5.6" lengthAdjust="spacing" textLength="31.1254" x="357.3539" y="28.843">Repositories</text><rect fill="#E2E2F0" height="13.0484" rx="1" ry="1" style="stroke:#181818;stroke-width:0.20000000000000004;" width="36.7254" x="354.5539" y="429.725"/><text fill="#000000" font-family="sans-serif" font-size="5.6" lengthAdjust="spacing" textLength="31.1254" x="357.3539" y="438.568">Repositories</text><rect fill="#E2E2F0" height="20.4969" rx="1" ry="1" style="stroke:#181818;stroke-width:0.20000000000000004;" width="44.8164" x="395.2793" y="12.5516"/><text fill="#000000" font-family="sans-serif" font-size="5.6" lengthAdjust="spacing" textLength="37.6605" x="398.8572" y="21.3945">mapRepository</text><text fill="#000000" font-family="sans-serif" font-size="5.6" lengthAdjust="spacing" textLength="39.2164" x="398.0793" y="28.843">:MapRepository</text><rect fill="#E2E2F0" height="20.4969" rx="1" ry="1" style="stroke:#181818;stroke-width:0.20000000000000004;" width="44.8164" x="395.2793" y="429.725"/><text fill="#000000" font-family="sans-serif" font-size="5.6" lengthAdjust="spacing" textLength="37.6605" x="398.8572" y="438.568">mapRepository</text><text fill="#000000" font-family="sans-serif" font-size="5.6" lengthAdjust="spacing" textLength="39.2164" x="398.0793" y="446.0164">:MapRepository</text><rect fill="#E2E2F0" height="13.0484" rx="1" ry="1" style="stroke:#181818;stroke-width:0.20000000000000004;" width="18.0496" x="444.0957" y="20"/><text fill="#000000" font-family="sans-serif" font-size="5.6" lengthAdjust="spacing" textLength="12.4496" x="446.8957" y="28.843">:Map</text><rect fill="#E2E2F0" height="13.0484" rx="1" ry="1" style="stroke:#181818;stroke-width:0.20000000000000004;" width="18.0496" x="444.0957" y="429.725"/><text fill="#000000" font-family="sans-serif" font-size="5.6" lengthAdjust="spacing" textLength="12.4496" x="446.8957" y="438.568">:Map</text><rect fill="#E2E2F0" height="20.4969" rx="1" ry="1" style="stroke:#181818;stroke-width:0.20000000000000004;" width="51.357" x="490.075" y="12.5516"/><text fill="#000000" font-family="sans-serif" font-size="5.6" lengthAdjust="spacing" textLength="43.266" x="494.1205" y="21.3945">stationRepository</text><text fill="#000000" font-family="sans-serif" font-size="5.6" lengthAdjust="spacing" textLength="45.757" x="492.875" y="28.843">:StationRepository</text><rect fill="#E2E2F0" height="20.4969" rx="1" ry="1" style="stroke:#181818;stroke-width:0.20000000000000004;" width="51.357" x="490.075" y="429.725"/><text fill="#000000" font-family="sans-serif" font-size="5.6" lengthAdjust="spacing" textLength="43.266" x="494.1205" y="438.568">stationRepository</text><text fill="#000000" font-family="sans-serif" font-size="5.6" lengthAdjust="spacing" textLength="45.757" x="492.875" y="446.0164">:StationRepository</text><rect fill="#E2E2F0" height="20.4969" rx="1" ry="1" style="stroke:#181818;stroke-width:0.20000000000000004;" width="24.5902" x="545.432" y="429.725"/><text fill="#000000" font-family="sans-serif" font-size="5.6" lengthAdjust="spacing" textLength="16.4992" x="549.4775" y="438.568">station</text><text fill="#000000" font-family="sans-serif" font-size="5.6" lengthAdjust="spacing" textLength="18.9902" x="548.232" y="446.0164">:Station</text><rect fill="#FFFFFF" height="385.4766" style="stroke:#181818;stroke-width:0.4000000000000001;" width="4" x="8.5145" y="37.4484"/><rect fill="#FFFFFF" height="376.1602" style="stroke:#181818;stroke-width:0.4000000000000001;" width="4" x="117.0867" y="46.7648"/><rect fill="#FFFFFF" height="359.6438" style="stroke:#181818;stroke-width:0.4000000000000001;" width="4" x="267.5578" y="63.2813"/><rect fill="#FFFFFF" height="12.5164" style="stroke:#181818;stroke-width:0.4000000000000001;" width="4" x="415.6875" y="312.5414"/><rect fill="#FFFFFF" height="25.0328" style="stroke:#181818;stroke-width:0.4000000000000001;" width="4" x="451.1205" y="337.5742"/><rect fill="#FFFFFF" height="12.5164" style="stroke:#181818;stroke-width:0.4000000000000001;" width="4" x="513.7535" y="350.0906"/><rect fill="#FFFFFF" height="20.8969" style="stroke:#181818;stroke-width:0.4000000000000001;" width="4" x="555.7271" y="181.6609"/><polygon fill="#181818" points="112.2867,45.1648,116.2867,46.7648,112.2867,48.3648,113.8867,46.7648" style="stroke:#181818;stroke-width:0.4000000000000001;"/><line style="stroke:#181818;stroke-width:0.4000000000000001;" x1="12.5145" x2="114.6867" y1="46.7648" y2="46.7648"/><text fill="#000000" font-family="sans-serif" font-size="5.2" font-weight="bold" lengthAdjust="spacing" textLength="2.892" x="15.3145" y="44.6598">1</text><text fill="#000000" font-family="sans-serif" font-size="5.2" lengthAdjust="spacing" textLength="92.4803" x="19.8064" y="44.6598">start CreateStationUI(idMap, simulation)</text><polygon fill="#181818" points="231.9207,57.6813,235.9207,59.2813,231.9207,60.8813,233.5207,59.2813" style="stroke:#181818;stroke-width:0.4000000000000001;"/><line style="stroke:#181818;stroke-width:0.4000000000000001;" x1="121.0867" x2="234.3207" y1="59.2813" y2="59.2813"/><text fill="#000000" font-family="sans-serif" font-size="5.2" font-weight="bold" lengthAdjust="spacing" textLength="2.892" x="123.8867" y="57.1762">2</text><text fill="#000000" font-family="sans-serif" font-size="5.2" lengthAdjust="spacing" textLength="98.2643" x="128.3787" y="57.1762">CreateStationController(idMap, simulation)</text><rect fill="#E2E2F0" height="13.0484" rx="1" ry="1" style="stroke:#181818;stroke-width:0.20000000000000004;" width="65.6742" x="236.7207" y="49.9648"/><text fill="#000000" font-family="sans-serif" font-size="5.6" lengthAdjust="spacing" textLength="60.0742" x="239.5207" y="58.8078">:CreateStationController</text><polygon fill="#181818" points="262.7578,75.1297,266.7578,76.7297,262.7578,78.3297,264.3578,76.7297" style="stroke:#181818;stroke-width:0.4000000000000001;"/><line style="stroke:#181818;stroke-width:0.4000000000000001;" x1="121.0867" x2="265.1578" y1="76.7297" y2="76.7297"/><text fill="#000000" font-family="sans-serif" font-size="5.2" font-weight="bold" lengthAdjust="spacing" textLength="2.892" x="123.8867" y="74.6246">3</text><text fill="#000000" font-family="sans-serif" font-size="5.2" lengthAdjust="spacing" textLength="44.7967" x="128.3787" y="74.6246">selectStationType()</text><polygon fill="#181818" points="125.4867,87.6461,121.4867,89.2461,125.4867,90.8461,123.8867,89.2461" style="stroke:#181818;stroke-width:0.4000000000000001;"/><line style="stroke:#181818;stroke-width:0.4000000000000001;stroke-dasharray:2.0,2.0;" x1="123.0867" x2="267.1578" y1="89.2461" y2="89.2461"/><text fill="#000000" font-family="sans-serif" font-size="5.2" font-weight="bold" lengthAdjust="spacing" textLength="2.892" x="127.8867" y="87.141">4</text><text fill="#000000" font-family="sans-serif" font-size="5.2" lengthAdjust="spacing" textLength="26.8811" x="132.3787" y="87.141">stationType</text><polygon fill="#181818" points="262.7578,100.1625,266.7578,101.7625,262.7578,103.3625,264.3578,101.7625" style="stroke:#181818;stroke-width:0.4000000000000001;"/><line style="stroke:#181818;stroke-width:0.4000000000000001;" x1="121.0867" x2="265.1578" y1="101.7625" y2="101.7625"/><text fill="#000000" font-family="sans-serif" font-size="5.2" font-weight="bold" lengthAdjust="spacing" textLength="2.892" x="123.8867" y="99.6574">5</text><text fill="#000000" font-family="sans-serif" font-size="5.2" lengthAdjust="spacing" textLength="48.5596" x="128.3787" y="99.6574">readStationPosition()</text><polygon fill="#181818" points="125.4867,112.6789,121.4867,114.2789,125.4867,115.8789,123.8867,114.2789" style="stroke:#181818;stroke-width:0.4000000000000001;"/><line style="stroke:#181818;stroke-width:0.4000000000000001;stroke-dasharray:2.0,2.0;" x1="123.0867" x2="267.1578" y1="114.2789" y2="114.2789"/><text fill="#000000" font-family="sans-serif" font-size="5.2" font-weight="bold" lengthAdjust="spacing" textLength="2.892" x="127.8867" y="112.1738">6</text><text fill="#000000" font-family="sans-serif" font-size="5.2" lengthAdjust="spacing" textLength="17.9232" x="132.3787" y="112.1738">position</text><path d="M91.5875,120.2789 L115.6559,120.2789 L115.6559,123.9953 L111.6559,127.9953 L91.5875,127.9953 L91.5875,120.2789 " fill="#EEEEEE" style="stroke:#000000;stroke-width:0.6000000000000001;"/><rect fill="none" height="32.7492" style="stroke:#000000;stroke-width:0.6000000000000001;" width="214.8074" x="91.5875" y="120.2789"/><text fill="#000000" font-family="sans-serif" font-size="5.2" font-weight="bold" lengthAdjust="spacing" textLength="6.0684" x="97.5875" y="126.2902">alt</text><text fill="#000000" font-family="sans-serif" font-size="4.4" font-weight="bold" lengthAdjust="spacing" textLength="36.3021" x="121.6559" y="125.827">[type = STATION]</text><polygon fill="#181818" points="262.7578,135.7117,266.7578,137.3117,262.7578,138.9117,264.3578,137.3117" style="stroke:#181818;stroke-width:0.4000000000000001;"/><line style="stroke:#181818;stroke-width:0.4000000000000001;" x1="121.0867" x2="265.1578" y1="137.3117" y2="137.3117"/><text fill="#000000" font-family="sans-serif" font-size="5.2" font-weight="bold" lengthAdjust="spacing" textLength="2.892" x="123.8867" y="135.2066">7</text><text fill="#000000" font-family="sans-serif" font-size="5.2" lengthAdjust="spacing" textLength="53.7545" x="128.3787" y="135.2066">selectStationDirection()</text><polygon fill="#181818" points="125.4867,148.2281,121.4867,149.8281,125.4867,151.4281,123.8867,149.8281" style="stroke:#181818;stroke-width:0.4000000000000001;"/><line style="stroke:#181818;stroke-width:0.4000000000000001;stroke-dasharray:2.0,2.0;" x1="123.0867" x2="267.1578" y1="149.8281" y2="149.8281"/><text fill="#000000" font-family="sans-serif" font-size="5.2" font-weight="bold" lengthAdjust="spacing" textLength="2.892" x="127.8867" y="147.723">8</text><text fill="#000000" font-family="sans-serif" font-size="5.2" lengthAdjust="spacing" textLength="19.6549" x="132.3787" y="147.723">direction</text><polygon fill="#181818" points="262.7578,163.5445,266.7578,165.1445,262.7578,166.7445,264.3578,165.1445" style="stroke:#181818;stroke-width:0.4000000000000001;"/><line style="stroke:#181818;stroke-width:0.4000000000000001;" x1="121.0867" x2="265.1578" y1="165.1445" y2="165.1445"/><text fill="#000000" font-family="sans-serif" font-size="5.2" font-weight="bold" lengthAdjust="spacing" textLength="2.892" x="123.8867" y="163.0395">9</text><text fill="#000000" font-family="sans-serif" font-size="5.2" lengthAdjust="spacing" textLength="112.7293" x="128.3787" y="163.0395">requestSuggestedName(type, position, direction)</text><polygon fill="#181818" points="540.632,176.0609,544.632,177.6609,540.632,179.2609,542.232,177.6609" style="stroke:#181818;stroke-width:0.4000000000000001;"/><line style="stroke:#181818;stroke-width:0.4000000000000001;" x1="271.5578" x2="543.032" y1="177.6609" y2="177.6609"/><text fill="#000000" font-family="sans-serif" font-size="5.2" font-weight="bold" lengthAdjust="spacing" textLength="5.784" x="274.3578" y="175.5559">10</text><text fill="#000000" font-family="sans-serif" font-size="5.2" lengthAdjust="spacing" textLength="100.8744" x="281.7418" y="175.5559">new Station(type, position, idMap, direction)</text><rect fill="#E2E2F0" height="20.4969" rx="1" ry="1" style="stroke:#181818;stroke-width:0.20000000000000004;" width="24.5902" x="545.432" y="168.3445"/><text fill="#000000" font-family="sans-serif" font-size="5.6" lengthAdjust="spacing" textLength="16.4992" x="549.4775" y="177.1875">station</text><text fill="#000000" font-family="sans-serif" font-size="5.6" lengthAdjust="spacing" textLength="18.9902" x="548.232" y="184.6359">:Station</text><polygon fill="#181818" points="275.9578,200.9578,271.9578,202.5578,275.9578,204.1578,274.3578,202.5578" style="stroke:#181818;stroke-width:0.4000000000000001;"/><line style="stroke:#181818;stroke-width:0.4000000000000001;stroke-dasharray:2.0,2.0;" x1="273.5578" x2="557.3271" y1="202.5578" y2="202.5578"/><text fill="#000000" font-family="sans-serif" font-size="5.2" font-weight="bold" lengthAdjust="spacing" textLength="5.784" x="278.3578" y="200.4527">11</text><text fill="#000000" font-family="sans-serif" font-size="5.2" lengthAdjust="spacing" textLength="37.8676" x="285.7418" y="200.4527">suggestedName</text><polygon fill="#181818" points="125.4867,213.4742,121.4867,215.0742,125.4867,216.6742,123.8867,215.0742" style="stroke:#181818;stroke-width:0.4000000000000001;"/><line style="stroke:#181818;stroke-width:0.4000000000000001;stroke-dasharray:2.0,2.0;" x1="123.0867" x2="267.1578" y1="215.0742" y2="215.0742"/><text fill="#000000" font-family="sans-serif" font-size="5.2" font-weight="bold" lengthAdjust="spacing" textLength="5.784" x="127.8867" y="212.9691">12</text><text fill="#000000" font-family="sans-serif" font-size="5.2" lengthAdjust="spacing" textLength="37.8676" x="135.2707" y="212.9691">suggestedName</text><polygon fill="#181818" points="16.9145,225.9906,12.9145,227.5906,16.9145,229.1906,15.3145,227.5906" style="stroke:#181818;stroke-width:0.4000000000000001;"/><line style="stroke:#181818;stroke-width:0.4000000000000001;stroke-dasharray:2.0,2.0;" x1="14.5145" x2="116.6867" y1="227.5906" y2="227.5906"/><text fill="#000000" font-family="sans-serif" font-size="5.2" font-weight="bold" lengthAdjust="spacing" textLength="5.784" x="19.3145" y="225.4855">13</text><text fill="#000000" font-family="sans-serif" font-size="5.2" lengthAdjust="spacing" textLength="52.033" x="26.6984" y="225.4855">show suggested name</text><polygon fill="#181818" points="112.2867,238.507,116.2867,240.107,112.2867,241.707,113.8867,240.107" style="stroke:#181818;stroke-width:0.4000000000000001;"/><line style="stroke:#181818;stroke-width:0.4000000000000001;" x1="12.5145" x2="114.6867" y1="240.107" y2="240.107"/><text fill="#000000" font-family="sans-serif" font-size="5.2" font-weight="bold" lengthAdjust="spacing" textLength="5.784" x="15.3145" y="238.002">14</text><text fill="#000000" font-family="sans-serif" font-size="5.2" lengthAdjust="spacing" textLength="67.3436" x="22.6984" y="238.002">accept or enter custom name</text><polygon fill="#181818" points="262.7578,251.0234,266.7578,252.6234,262.7578,254.2234,264.3578,252.6234" style="stroke:#181818;stroke-width:0.4000000000000001;"/><line style="stroke:#181818;stroke-width:0.4000000000000001;" x1="121.0867" x2="265.1578" y1="252.6234" y2="252.6234"/><text fill="#000000" font-family="sans-serif" font-size="5.2" font-weight="bold" lengthAdjust="spacing" textLength="5.784" x="123.8867" y="250.5184">15</text><text fill="#000000" font-family="sans-serif" font-size="5.2" lengthAdjust="spacing" textLength="129.4871" x="131.2707" y="250.5184">createStation(type, position, direction, name, simulation)</text><line style="stroke:#181818;stroke-width:0.4000000000000001;" x1="271.5578" x2="288.3578" y1="265.1398" y2="265.1398"/><line style="stroke:#181818;stroke-width:0.4000000000000001;" x1="288.3578" x2="288.3578" y1="265.1398" y2="270.3398"/><line style="stroke:#181818;stroke-width:0.4000000000000001;" x1="271.9578" x2="288.3578" y1="270.3398" y2="270.3398"/><polygon fill="#181818" points="275.9578,268.7398,271.9578,270.3398,275.9578,271.9398,274.3578,270.3398" style="stroke:#181818;stroke-width:0.4000000000000001;"/><text fill="#000000" font-family="sans-serif" font-size="5.2" font-weight="bold" lengthAdjust="spacing" textLength="5.784" x="274.3578" y="263.0348">16</text><text fill="#000000" font-family="sans-serif" font-size="5.2" lengthAdjust="spacing" textLength="82.3748" x="281.7418" y="263.0348">doYouHaveMoney(simulation, type)</text><path d="M87.5875,276.3398 L111.6559,276.3398 L111.6559,280.0563 L107.6559,284.0563 L87.5875,284.0563 L87.5875,276.3398 " fill="#EEEEEE" style="stroke:#000000;stroke-width:0.6000000000000001;"/><rect fill="none" height="134.4688" style="stroke:#000000;stroke-width:0.6000000000000001;" width="457.8445" x="87.5875" y="276.3398"/><text fill="#000000" font-family="sans-serif" font-size="5.2" font-weight="bold" lengthAdjust="spacing" textLength="6.0684" x="93.5875" y="282.3512">alt</text><text fill="#000000" font-family="sans-serif" font-size="4.4" font-weight="bold" lengthAdjust="spacing" textLength="44.0064" x="117.6559" y="281.8879">[insufficient balance]</text><polygon fill="#181818" points="125.4867,291.7727,121.4867,293.3727,125.4867,294.9727,123.8867,293.3727" style="stroke:#181818;stroke-width:0.4000000000000001;"/><line style="stroke:#181818;stroke-width:0.4000000000000001;stroke-dasharray:2.0,2.0;" x1="123.0867" x2="267.1578" y1="293.3727" y2="293.3727"/><text fill="#000000" font-family="sans-serif" font-size="5.2" font-weight="bold" lengthAdjust="spacing" textLength="5.784" x="127.8867" y="291.2676">17</text><text fill="#000000" font-family="sans-serif" font-size="5.2" lengthAdjust="spacing" textLength="60.6328" x="135.2707" y="291.2676">error "Insufficient balance"</text><line style="stroke:#000000;stroke-width:0.4000000000000001;stroke-dasharray:2.0,2.0;" x1="87.5875" x2="545.432" y1="296.9727" y2="296.9727"/><text fill="#000000" font-family="sans-serif" font-size="4.4" font-weight="bold" lengthAdjust="spacing" textLength="40.0963" x="89.5875" y="301.7207">[sufficient balance]</text><polygon fill="#181818" points="410.8875,310.9414,414.8875,312.5414,410.8875,314.1414,412.4875,312.5414" style="stroke:#181818;stroke-width:0.4000000000000001;"/><line style="stroke:#181818;stroke-width:0.4000000000000001;" x1="271.5578" x2="413.2875" y1="312.5414" y2="312.5414"/><text fill="#000000" font-family="sans-serif" font-size="5.2" font-weight="bold" lengthAdjust="spacing" textLength="5.784" x="274.3578" y="310.4363">18</text><text fill="#000000" font-family="sans-serif" font-size="5.2" lengthAdjust="spacing" textLength="45.3756" x="281.7418" y="310.4363">getMapById(idMap)</text><polygon fill="#181818" points="275.9578,323.4578,271.9578,325.0578,275.9578,326.6578,274.3578,325.0578" style="stroke:#181818;stroke-width:0.4000000000000001;"/><line style="stroke:#181818;stroke-width:0.4000000000000001;stroke-dasharray:2.0,2.0;" x1="273.5578" x2="417.2875" y1="325.0578" y2="325.0578"/><text fill="#000000" font-family="sans-serif" font-size="5.2" font-weight="bold" lengthAdjust="spacing" textLength="5.784" x="278.3578" y="322.9527">19</text><text fill="#000000" font-family="sans-serif" font-size="5.2" lengthAdjust="spacing" textLength="10.1156" x="285.7418" y="322.9527">Map</text><polygon fill="#181818" points="446.3205,335.9742,450.3205,337.5742,446.3205,339.1742,447.9205,337.5742" style="stroke:#181818;stroke-width:0.4000000000000001;"/><line style="stroke:#181818;stroke-width:0.4000000000000001;" x1="271.5578" x2="448.7205" y1="337.5742" y2="337.5742"/><text fill="#000000" font-family="sans-serif" font-size="5.2" font-weight="bold" lengthAdjust="spacing" textLength="5.784" x="274.3578" y="335.4691">20</text><text fill="#000000" font-family="sans-serif" font-size="5.2" lengthAdjust="spacing" textLength="46.5359" x="281.7418" y="335.4691">addElement(station)</text><polygon fill="#181818" points="508.9535,348.4906,512.9535,350.0906,508.9535,351.6906,510.5535,350.0906" style="stroke:#181818;stroke-width:0.4000000000000001;"/><line style="stroke:#181818;stroke-width:0.4000000000000001;" x1="455.1205" x2="511.3535" y1="350.0906" y2="350.0906"/><text fill="#000000" font-family="sans-serif" font-size="5.2" font-weight="bold" lengthAdjust="spacing" textLength="5.784" x="457.9205" y="347.9855">21</text><text fill="#000000" font-family="sans-serif" font-size="5.2" lengthAdjust="spacing" textLength="43.649" x="465.3045" y="347.9855">addStation(station)</text><polygon fill="#181818" points="457.5205,361.007,453.5205,362.607,457.5205,364.207,455.9205,362.607" style="stroke:#181818;stroke-width:0.4000000000000001;"/><line style="stroke:#181818;stroke-width:0.4000000000000001;stroke-dasharray:2.0,2.0;" x1="455.1205" x2="515.3535" y1="362.607" y2="362.607"/><text fill="#000000" font-family="sans-serif" font-size="5.2" font-weight="bold" lengthAdjust="spacing" textLength="5.784" x="459.9205" y="360.502">22</text><text fill="#000000" font-family="sans-serif" font-size="5.2" lengthAdjust="spacing" textLength="12.7156" x="467.3045" y="360.502">result</text><path d="M91.5875,368.607 L115.6559,368.607 L115.6559,372.3234 L111.6559,376.3234 L91.5875,376.3234 L91.5875,368.607 " fill="#EEEEEE" style="stroke:#000000;stroke-width:0.6000000000000001;"/><rect fill="none" height="39.4016" style="stroke:#000000;stroke-width:0.6000000000000001;" width="214.8074" x="91.5875" y="368.607"/><text fill="#000000" font-family="sans-serif" font-size="5.2" font-weight="bold" lengthAdjust="spacing" textLength="6.0684" x="97.5875" y="374.6184">alt</text><text fill="#000000" font-family="sans-serif" font-size="4.4" font-weight="bold" lengthAdjust="spacing" textLength="20.3006" x="121.6559" y="374.1551">[success]</text><polygon fill="#181818" points="125.4867,384.0398,121.4867,385.6398,125.4867,387.2398,123.8867,385.6398" style="stroke:#181818;stroke-width:0.4000000000000001;"/><line style="stroke:#181818;stroke-width:0.4000000000000001;stroke-dasharray:2.0,2.0;" x1="123.0867" x2="267.1578" y1="385.6398" y2="385.6398"/><text fill="#000000" font-family="sans-serif" font-size="5.2" font-weight="bold" lengthAdjust="spacing" textLength="5.784" x="127.8867" y="383.5348">23</text><text fill="#000000" font-family="sans-serif" font-size="5.2" lengthAdjust="spacing" textLength="34.1098" x="135.2707" y="383.5348">station created</text><line style="stroke:#000000;stroke-width:0.4000000000000001;stroke-dasharray:2.0,2.0;" x1="91.5875" x2="306.3949" y1="389.2398" y2="389.2398"/><text fill="#000000" font-family="sans-serif" font-size="4.4" font-weight="bold" lengthAdjust="spacing" textLength="16.1348" x="93.5875" y="393.9879">[failure]</text><polygon fill="#181818" points="125.4867,403.2086,121.4867,404.8086,125.4867,406.4086,123.8867,404.8086" style="stroke:#181818;stroke-width:0.4000000000000001;"/><line style="stroke:#181818;stroke-width:0.4000000000000001;stroke-dasharray:2.0,2.0;" x1="123.0867" x2="267.1578" y1="404.8086" y2="404.8086"/><text fill="#000000" font-family="sans-serif" font-size="5.2" font-weight="bold" lengthAdjust="spacing" textLength="5.784" x="127.8867" y="402.7035">24</text><text fill="#000000" font-family="sans-serif" font-size="5.2" lengthAdjust="spacing" textLength="109.8271" x="135.2707" y="402.7035">error (position occupied or name already exists)</text><polygon fill="#181818" points="14.9145,421.325,10.9145,422.925,14.9145,424.525,13.3145,422.925" style="stroke:#181818;stroke-width:0.4000000000000001;"/><line style="stroke:#181818;stroke-width:0.4000000000000001;stroke-dasharray:2.0,2.0;" x1="12.5145" x2="118.6867" y1="422.925" y2="422.925"/><text fill="#000000" font-family="sans-serif" font-size="5.2" font-weight="bold" lengthAdjust="spacing" textLength="5.784" x="17.3145" y="420.8199">25</text><text fill="#000000" font-family="sans-serif" font-size="5.2" lengthAdjust="spacing" textLength="26.2996" x="24.6984" y="420.8199">show result</text><!--SRC=[ZLN9Rjim4BtxAmQ-L36S7p3G0AbZe0QQ1PPoA52WOAInJPWYLP5Awh_lYAOaKejJNGIHRzviRqRwn6N1IfP3mT8JEs1ipWAXnDGmUH0uqor07rccFhWym9u9xTy8Bj6S2mHLcgEQiSeeMULlMCvcB3MgXFacu_IU0zEmUKXcP6PuoWic3SnNwnAP8SVCS2LVjnRrkhq6MYjfIYK4NYZNoUv72DzXeNJjagEsaDtcvJaECJahMjZvbrmz-j_MwF7-vJSPzY8XN7CRtkXBS05ft3-pfd4ov7NMdOr3pcmH-JjbRsi7zD0RRk-eIB02iYiDz6eOyOp2N8BcUINisOqrR9celk0UOY6kkeQmMAnWej1JZ06hRSGOCOM9WZJbQ1CIIzJPMyYjbr23cU2Y23F7z5ANbTwJR8K3T5HC6B1g_KhLlK-spq_jrVMe7tWz5g6peSEiGRKOb5dd_Gliy4-5se2k3WTwOmQIvJYLgSN63VI9a54T_B9DRDbvxDVWZX9SB8X6uWUu90RMhgyZ96rRuwGzYnERQLCUFwuMa-6OPQ_9WMMGF45gVHFcg3wcgkHF04jJB0mj7wgqmHBIIXkLN_3ZPKrzZK_NSsavGirxZLmVCJt1dlpgQh-dGIRtyCO4aob2nFUU7U1VheqUDiW5bAcVglhEtl5HIJn7dU7IIlKc42-NGtzN18bbMQ_WxOZLlDCeRNJuBzgxPYqIzG4DYUVRUPjTraCu5wqAcZtgNpOadfg8881uEceOfkAfLP1b6u4v1H-v3J8TJJ-IowYuf8YeKSPr8hV5_Jj7Sjj6LQAkX9bAQuGXJ3fCk6w-haZjMWVdaplK2JqBqBRLUyP5LU8dD1VfHCreW4hJgk0qYtHQZmP5LE_Yyq3UpTeRNO738UzLoQk1_QFqpkZVvNqHpJy0]--></g></svg>