<svg xmlns="http://www.w3.org/2000/svg" xmlns:xlink="http://www.w3.org/1999/xlink" contentStyleType="text/css" height="766px" preserveAspectRatio="none" style="width:848px;height:766px;background:#FFFFFF;" version="1.1" viewBox="0 0 848 766" width="848px" zoomAndPan="magnify"><defs/><g><!--class Station--><g id="elem_Station"><rect codeLine="11" fill="#F1F1F1" height="135.7266" id="Station" rx="1.25" ry="1.25" style="stroke:#181818;stroke-width:0.25;" width="234.5903" x="351.75" y="508"/><ellipse cx="456.0237" cy="516" fill="#ADD1B2" rx="5.5" ry="5.5" style="stroke:#181818;stroke-width:0.5;"/><path d="M457.4065,513.9375 Q457.4846,513.8281 457.5784,513.7734 Q457.6721,513.7188 457.7815,513.7188 Q457.969,513.7188 458.0862,513.8516 Q458.2034,513.9766 458.2034,514.2813 L458.2034,515.0078 Q458.2034,515.3125 458.0862,515.4453 Q457.969,515.5781 457.7815,515.5781 Q457.6096,515.5781 457.5081,515.4766 Q457.4065,515.3828 457.3518,515.125 Q457.3284,514.9453 457.2346,514.8516 Q457.0706,514.6641 456.7659,514.5547 Q456.4612,514.4453 456.1487,514.4453 Q455.7659,514.4453 455.4456,514.6094 Q455.1331,514.7734 454.8831,515.1484 Q454.6409,515.5234 454.6409,516.0391 L454.6409,516.5859 Q454.6409,517.2031 455.0862,517.6172 Q455.5315,518.0234 456.3284,518.0234 Q456.7971,518.0234 457.1252,517.8984 Q457.3206,517.8203 457.5315,517.6016 Q457.6643,517.4688 457.7346,517.4297 Q457.8127,517.3906 457.9143,517.3906 Q458.0784,517.3906 458.2034,517.5234 Q458.3362,517.6484 458.3362,517.8203 Q458.3362,517.9922 458.1643,518.1953 Q457.9143,518.4844 457.5159,518.6484 Q456.9768,518.875 456.3284,518.875 Q455.5706,518.875 454.969,518.5625 Q454.4768,518.3125 454.1331,517.7813 Q453.7893,517.2422 453.7893,516.6016 L453.7893,516.0234 Q453.7893,515.3594 454.094,514.7891 Q454.4065,514.2109 454.9534,513.9063 Q455.5002,513.5938 456.1174,513.5938 Q456.4846,513.5938 456.8049,513.6797 Q457.1331,513.7578 457.4065,513.9375 Z " fill="#000000"/><text fill="#000000" font-family="sans-serif" font-size="7" lengthAdjust="spacing" textLength="21.793" x="466.2737" y="518.8984">Station</text><line style="stroke:#181818;stroke-width:0.25;" x1="352.25" x2="585.8403" y1="524" y2="524"/><text fill="#000000" font-family="sans-serif" font-size="7" lengthAdjust="spacing" textLength="43.9619" x="354.75" y="533.5537">-name : String</text><text fill="#000000" font-family="sans-serif" font-size="7" lengthAdjust="spacing" textLength="42.0171" x="354.75" y="542.8643">-identifier : int</text><text fill="#000000" font-family="sans-serif" font-size="7" lengthAdjust="spacing" textLength="58.7515" x="354.75" y="552.1748">-type : StationType</text><text fill="#000000" font-family="sans-serif" font-size="7" lengthAdjust="spacing" textLength="57.1963" x="354.75" y="561.4854">-position : Position</text><text fill="#000000" font-family="sans-serif" font-size="7" lengthAdjust="spacing" textLength="52.9102" x="354.75" y="570.7959">-direction : String</text><line style="stroke:#181818;stroke-width:0.25;" x1="352.25" x2="585.8403" y1="574.5527" y2="574.5527"/><text fill="#000000" font-family="sans-serif" font-size="7" lengthAdjust="spacing" textLength="228.5903" x="354.75" y="584.1064">+Station(type: StationType, position: Position, idMap: int, direction: String)</text><text fill="#000000" font-family="sans-serif" font-size="7" lengthAdjust="spacing" textLength="59.3291" x="354.75" y="593.417">+getName(): String</text><text fill="#000000" font-family="sans-serif" font-size="7" lengthAdjust="spacing" textLength="72.1772" x="354.75" y="602.7275">+getPosition(): Position</text><text fill="#000000" font-family="sans-serif" font-size="7" lengthAdjust="spacing" textLength="78.0117" x="354.75" y="612.0381">+getStationType(): String</text><text fill="#000000" font-family="sans-serif" font-size="7" lengthAdjust="spacing" textLength="68.2773" x="354.75" y="621.3486">+getDirection(): String</text><text fill="#000000" font-family="sans-serif" font-size="7" lengthAdjust="spacing" textLength="107.1807" x="354.75" y="630.6592">+setName(newName: String): void</text><text fill="#000000" font-family="sans-serif" font-size="7" lengthAdjust="spacing" textLength="55.0498" x="354.75" y="639.9697">+toString(): String</text></g><!--class StationType--><g id="elem_StationType"><rect codeLine="26" fill="#F1F1F1" height="61.2422" id="StationType" rx="1.25" ry="1.25" style="stroke:#181818;stroke-width:0.25;" width="53.355" x="296.75" y="687.5"/><ellipse cx="304.25" cy="695.5" fill="#EB937F" rx="5.5" ry="5.5" style="stroke:#181818;stroke-width:0.5;"/><path d="M303.6797,695.8984 L303.6797,697.1484 L305.8438,697.1484 L305.8438,696.6875 Q305.8438,696.3828 305.9609,696.25 Q306.0859,696.1172 306.2734,696.1172 Q306.4609,696.1172 306.5781,696.25 Q306.6953,696.3828 306.6953,696.6875 L306.6953,698 L302.6953,698 Q302.3828,698 302.25,697.8828 Q302.125,697.7656 302.125,697.5703 Q302.125,697.3828 302.2578,697.2656 Q302.3906,697.1484 302.6953,697.1484 L302.8281,697.1484 L302.8281,693.8203 L302.6953,693.8203 Q302.3828,693.8203 302.25,693.7031 Q302.125,693.5859 302.125,693.3906 Q302.125,693.2031 302.25,693.0859 Q302.3828,692.9688 302.6953,692.9688 L306.5078,692.9688 L306.5078,694.2656 Q306.5078,694.5703 306.3906,694.7031 Q306.2813,694.8281 306.0859,694.8281 Q305.8984,694.8281 305.7813,694.7031 Q305.6641,694.5703 305.6641,694.2656 L305.6641,693.8203 L303.6797,693.8203 L303.6797,695.0469 L304.4219,695.0469 Q304.4219,694.7188 304.4844,694.625 Q304.6172,694.4219 304.8516,694.4219 Q305.0391,694.4219 305.1563,694.5547 Q305.2734,694.6797 305.2734,694.9844 L305.2734,695.9688 Q305.2734,696.2422 305.2109,696.3359 Q305.0781,696.5313 304.8516,696.5313 Q304.6172,696.5313 304.4844,696.3281 Q304.4219,696.2344 304.4219,695.8984 L303.6797,695.8984 Z " fill="#000000"/><text fill="#000000" font-family="sans-serif" font-size="7" lengthAdjust="spacing" textLength="37.355" x="311.25" y="698.3984">StationType</text><line style="stroke:#181818;stroke-width:0.25;" x1="297.25" x2="349.605" y1="703.5" y2="703.5"/><text fill="#000000" font-family="sans-serif" font-size="7" lengthAdjust="spacing" textLength="24.1138" x="299.75" y="713.0537">DEPOT</text><text fill="#000000" font-family="sans-serif" font-size="7" lengthAdjust="spacing" textLength="30.3345" x="299.75" y="722.3643">STATION</text><text fill="#000000" font-family="sans-serif" font-size="7" lengthAdjust="spacing" textLength="35.3931" x="299.75" y="731.6748">TERMINAL</text><line style="stroke:#181818;stroke-width:0.25;" x1="297.25" x2="349.605" y1="735.4316" y2="735.4316"/><text fill="#000000" font-family="sans-serif" font-size="7" lengthAdjust="spacing" textLength="10.4966" x="299.75" y="744.9854">...()</text></g><!--class Position--><g id="elem_Position"><rect codeLine="33" fill="#F1F1F1" height="89.1738" id="Position" rx="1.25" ry="1.25" style="stroke:#181818;stroke-width:0.25;" width="145.894" x="605" y="673.5"/><ellipse cx="663.3704" cy="681.5" fill="#ADD1B2" rx="5.5" ry="5.5" style="stroke:#181818;stroke-width:0.5;"/><path d="M664.7532,679.4375 Q664.8313,679.3281 664.925,679.2734 Q665.0188,679.2188 665.1282,679.2188 Q665.3157,679.2188 665.4329,679.3516 Q665.55,679.4766 665.55,679.7813 L665.55,680.5078 Q665.55,680.8125 665.4329,680.9453 Q665.3157,681.0781 665.1282,681.0781 Q664.9563,681.0781 664.8547,680.9766 Q664.7532,680.8828 664.6985,680.625 Q664.675,680.4453 664.5813,680.3516 Q664.4172,680.1641 664.1125,680.0547 Q663.8079,679.9453 663.4954,679.9453 Q663.1125,679.9453 662.7922,680.1094 Q662.4797,680.2734 662.2297,680.6484 Q661.9875,681.0234 661.9875,681.5391 L661.9875,682.0859 Q661.9875,682.7031 662.4329,683.1172 Q662.8782,683.5234 663.675,683.5234 Q664.1438,683.5234 664.4719,683.3984 Q664.6672,683.3203 664.8782,683.1016 Q665.011,682.9688 665.0813,682.9297 Q665.1594,682.8906 665.261,682.8906 Q665.425,682.8906 665.55,683.0234 Q665.6829,683.1484 665.6829,683.3203 Q665.6829,683.4922 665.511,683.6953 Q665.261,683.9844 664.8625,684.1484 Q664.3235,684.375 663.675,684.375 Q662.9172,684.375 662.3157,684.0625 Q661.8235,683.8125 661.4797,683.2813 Q661.136,682.7422 661.136,682.1016 L661.136,681.5234 Q661.136,680.8594 661.4407,680.2891 Q661.7532,679.7109 662.3,679.4063 Q662.8469,679.0938 663.4641,679.0938 Q663.8313,679.0938 664.1516,679.1797 Q664.4797,679.2578 664.7532,679.4375 Z " fill="#000000"/><text fill="#000000" font-family="sans-serif" font-size="7" lengthAdjust="spacing" textLength="24.9033" x="673.6204" y="684.3984">Position</text><line style="stroke:#181818;stroke-width:0.25;" x1="605.5" x2="750.394" y1="689.5" y2="689.5"/><text fill="#000000" font-family="sans-serif" font-size="7" lengthAdjust="spacing" textLength="19.0586" x="608" y="699.0537">-x : int</text><text fill="#000000" font-family="sans-serif" font-size="7" lengthAdjust="spacing" textLength="19.0586" x="608" y="708.3643">-y : int</text><line style="stroke:#181818;stroke-width:0.25;" x1="605.5" x2="750.394" y1="712.1211" y2="712.1211"/><text fill="#000000" font-family="sans-serif" font-size="7" lengthAdjust="spacing" textLength="70.998" x="608" y="721.6748">+Position(x : int, y : int)</text><text fill="#000000" font-family="sans-serif" font-size="7" lengthAdjust="spacing" textLength="36.3774" x="608" y="730.9854">+getX() : int</text><text fill="#000000" font-family="sans-serif" font-size="7" lengthAdjust="spacing" textLength="36.3774" x="608" y="740.2959">+getY() : int</text><text fill="#000000" font-family="sans-serif" font-size="7" lengthAdjust="spacing" textLength="139.894" x="608" y="749.6064">+equalsPosition(position : Position) : boolean</text><text fill="#000000" font-family="sans-serif" font-size="7" lengthAdjust="spacing" textLength="56.9946" x="608" y="758.917">+toString() : String</text></g><!--class Map--><g id="elem_Map"><rect codeLine="43" fill="#F1F1F1" height="79.8633" id="Map" rx="1.25" ry="1.25" style="stroke:#181818;stroke-width:0.25;" width="160.6631" x="597.75" y="398"/><ellipse cx="669.1479" cy="406" fill="#ADD1B2" rx="5.5" ry="5.5" style="stroke:#181818;stroke-width:0.5;"/><path d="M670.5308,403.9375 Q670.6089,403.8281 670.7026,403.7734 Q670.7964,403.7188 670.9058,403.7188 Q671.0933,403.7188 671.2104,403.8516 Q671.3276,403.9766 671.3276,404.2813 L671.3276,405.0078 Q671.3276,405.3125 671.2104,405.4453 Q671.0933,405.5781 670.9058,405.5781 Q670.7339,405.5781 670.6323,405.4766 Q670.5308,405.3828 670.4761,405.125 Q670.4526,404.9453 670.3589,404.8516 Q670.1948,404.6641 669.8901,404.5547 Q669.5854,404.4453 669.2729,404.4453 Q668.8901,404.4453 668.5698,404.6094 Q668.2573,404.7734 668.0073,405.1484 Q667.7651,405.5234 667.7651,406.0391 L667.7651,406.5859 Q667.7651,407.2031 668.2104,407.6172 Q668.6558,408.0234 669.4526,408.0234 Q669.9214,408.0234 670.2495,407.8984 Q670.4448,407.8203 670.6558,407.6016 Q670.7886,407.4688 670.8589,407.4297 Q670.937,407.3906 671.0386,407.3906 Q671.2026,407.3906 671.3276,407.5234 Q671.4604,407.6484 671.4604,407.8203 Q671.4604,407.9922 671.2886,408.1953 Q671.0386,408.4844 670.6401,408.6484 Q670.1011,408.875 669.4526,408.875 Q668.6948,408.875 668.0933,408.5625 Q667.6011,408.3125 667.2573,407.7813 Q666.9136,407.2422 666.9136,406.6016 L666.9136,406.0234 Q666.9136,405.3594 667.2183,404.7891 Q667.5308,404.2109 668.0776,403.9063 Q668.6245,403.5938 669.2417,403.5938 Q669.6089,403.5938 669.9292,403.6797 Q670.2573,403.7578 670.5308,403.9375 Z " fill="#000000"/><text fill="#000000" font-family="sans-serif" font-size="7" lengthAdjust="spacing" textLength="13.6172" x="679.3979" y="408.8984">Map</text><line style="stroke:#181818;stroke-width:0.25;" x1="598.25" x2="757.9131" y1="414" y2="414"/><line style="stroke:#181818;stroke-width:0.25;" x1="598.25" x2="757.9131" y1="418" y2="418"/><text fill="#000000" font-family="sans-serif" font-size="7" lengthAdjust="spacing" textLength="143.001" x="600.75" y="427.5537">+addElement(element: MapElement): boolean</text><text fill="#000000" font-family="sans-serif" font-size="7" lengthAdjust="spacing" textLength="154.6631" x="600.75" y="436.8643">+removeElement(element: MapElement): boolean</text><text fill="#000000" font-family="sans-serif" font-size="7" lengthAdjust="spacing" textLength="124.3184" x="600.75" y="446.1748">+getOccupiedPositions(): List&lt;Position&gt;</text><text fill="#000000" font-family="sans-serif" font-size="7" lengthAdjust="spacing" textLength="95.9185" x="600.75" y="455.4854">+getStationList(): List&lt;Station&gt;</text><text fill="#000000" font-family="sans-serif" font-size="7" lengthAdjust="spacing" textLength="35.6016" x="600.75" y="464.7959">+getId(): int</text><text fill="#000000" font-family="sans-serif" font-size="7" lengthAdjust="spacing" textLength="10.4966" x="600.75" y="474.1064">...()</text></g><!--class MapElement--><g id="elem_MapElement"><rect codeLine="52" fill="#F1F1F1" height="79.8633" id="MapElement" rx="1.25" ry="1.25" style="stroke:#181818;stroke-width:0.25;" width="132.2632" x="611.75" y="535.75"/><ellipse cx="656.1084" cy="543.75" fill="#A9DCDF" rx="5.5" ry="5.5" style="stroke:#181818;stroke-width:0.5;"/><path d="M657.2021,544.6328 L655.1318,544.6328 L654.9209,545.1484 L655.1318,545.1484 Q655.4365,545.1484 655.5693,545.2656 Q655.7021,545.3828 655.7021,545.5781 Q655.7021,545.7656 655.5693,545.8828 Q655.4365,546 655.1318,546 L653.9834,546 Q653.6787,546 653.5537,545.8828 Q653.4209,545.7656 653.4209,545.5703 Q653.4209,545.3828 653.5615,545.2656 Q653.6943,545.1406 654.0068,545.1484 L655.3428,541.8203 L654.7881,541.8203 Q654.4834,541.8203 654.3506,541.7031 Q654.2178,541.5859 654.2178,541.3906 Q654.2178,541.2031 654.3506,541.0859 Q654.4834,540.9688 654.7881,540.9688 L656.624,540.9688 L658.3193,545.1484 Q658.6162,545.1484 658.71,545.2188 Q658.9053,545.3516 658.9053,545.5781 Q658.9053,545.7656 658.7725,545.8828 Q658.6475,546 658.3428,546 L657.1943,546 Q656.8896,546 656.7568,545.8828 Q656.624,545.7656 656.624,545.5703 Q656.624,545.3828 656.7568,545.2656 Q656.8896,545.1484 657.1943,545.1484 L657.4053,545.1484 L657.2021,544.6328 Z M656.8428,543.7813 L656.1631,542.0938 L655.4756,543.7813 L656.8428,543.7813 Z " fill="#000000"/><text fill="#000000" font-family="sans-serif" font-size="7" font-style="italic" lengthAdjust="spacing" textLength="39.2964" x="666.3584" y="546.6484">MapElement</text><line style="stroke:#181818;stroke-width:0.25;" x1="612.25" x2="743.5132" y1="551.75" y2="551.75"/><text fill="#000000" font-family="sans-serif" font-size="7" lengthAdjust="spacing" textLength="57.1963" x="614.75" y="561.3037">-position : Position</text><text fill="#000000" font-family="sans-serif" font-size="7" lengthAdjust="spacing" textLength="108.5615" x="614.75" y="570.6143">-occupiedPositions : List&lt;Position&gt;</text><line style="stroke:#181818;stroke-width:0.25;" x1="612.25" x2="743.5132" y1="574.3711" y2="574.3711"/><text fill="#000000" font-family="sans-serif" font-size="7" lengthAdjust="spacing" textLength="74.1221" x="614.75" y="583.9248">+getPosition() : Position</text><text fill="#000000" font-family="sans-serif" font-size="7" lengthAdjust="spacing" textLength="116.5322" x="614.75" y="593.2354">+setPosition(position : Position) : void</text><text fill="#000000" font-family="sans-serif" font-size="7" lengthAdjust="spacing" textLength="126.2632" x="614.75" y="602.5459">+getOccupiedPositions() : List&lt;Position&gt;</text><text fill="#000000" font-family="sans-serif" font-size="7" lengthAdjust="spacing" textLength="10.4966" x="614.75" y="611.8564">...()</text></g><!--class Simulation--><g id="elem_Simulation"><rect codeLine="61" fill="#F1F1F1" height="61.2422" id="Simulation" rx="1.25" ry="1.25" style="stroke:#181818;stroke-width:0.25;" width="113.5771" x="373.25" y="302.25"/><ellipse cx="411.5723" cy="310.25" fill="#ADD1B2" rx="5.5" ry="5.5" style="stroke:#181818;stroke-width:0.5;"/><path d="M412.9551,308.1875 Q413.0332,308.0781 413.127,308.0234 Q413.2207,307.9688 413.3301,307.9688 Q413.5176,307.9688 413.6348,308.1016 Q413.752,308.2266 413.752,308.5313 L413.752,309.2578 Q413.752,309.5625 413.6348,309.6953 Q413.5176,309.8281 413.3301,309.8281 Q413.1582,309.8281 413.0566,309.7266 Q412.9551,309.6328 412.9004,309.375 Q412.877,309.1953 412.7832,309.1016 Q412.6191,308.9141 412.3145,308.8047 Q412.0098,308.6953 411.6973,308.6953 Q411.3145,308.6953 410.9941,308.8594 Q410.6816,309.0234 410.4316,309.3984 Q410.1895,309.7734 410.1895,310.2891 L410.1895,310.8359 Q410.1895,311.4531 410.6348,311.8672 Q411.0801,312.2734 411.877,312.2734 Q412.3457,312.2734 412.6738,312.1484 Q412.8691,312.0703 413.0801,311.8516 Q413.2129,311.7188 413.2832,311.6797 Q413.3613,311.6406 413.4629,311.6406 Q413.627,311.6406 413.752,311.7734 Q413.8848,311.8984 413.8848,312.0703 Q413.8848,312.2422 413.7129,312.4453 Q413.4629,312.7344 413.0645,312.8984 Q412.5254,313.125 411.877,313.125 Q411.1191,313.125 410.5176,312.8125 Q410.0254,312.5625 409.6816,312.0313 Q409.3379,311.4922 409.3379,310.8516 L409.3379,310.2734 Q409.3379,309.6094 409.6426,309.0391 Q409.9551,308.4609 410.502,308.1563 Q411.0488,307.8438 411.666,307.8438 Q412.0332,307.8438 412.3535,307.9297 Q412.6816,308.0078 412.9551,308.1875 Z " fill="#000000"/><text fill="#000000" font-family="sans-serif" font-size="7" lengthAdjust="spacing" textLength="32.6826" x="421.8223" y="313.1484">Simulation</text><line style="stroke:#181818;stroke-width:0.25;" x1="373.75" x2="486.3271" y1="318.25" y2="318.25"/><text fill="#000000" font-family="sans-serif" font-size="7" lengthAdjust="spacing" textLength="55.248" x="376.25" y="327.8037">-actualMoney : int</text><line style="stroke:#181818;stroke-width:0.25;" x1="373.75" x2="486.3271" y1="331.5605" y2="331.5605"/><text fill="#000000" font-family="sans-serif" font-size="7" lengthAdjust="spacing" textLength="70.229" x="376.25" y="341.1143">+getActualMoney(): int</text><text fill="#000000" font-family="sans-serif" font-size="7" lengthAdjust="spacing" textLength="107.5771" x="376.25" y="350.4248">+setActualMoney(money: int): void</text><text fill="#000000" font-family="sans-serif" font-size="7" lengthAdjust="spacing" textLength="10.4966" x="376.25" y="359.7354">...()</text></g><!--class CreateStationController--><g id="elem_CreateStationController"><rect codeLine="71" fill="#F1F1F1" height="172.9688" id="CreateStationController" rx="1.25" ry="1.25" style="stroke:#181818;stroke-width:0.25;" width="384.7656" x="246.5" y="94.5"/><ellipse cx="400.1838" cy="102.5" fill="#ADD1B2" rx="5.5" ry="5.5" style="stroke:#181818;stroke-width:0.5;"/><path d="M401.5667,100.4375 Q401.6448,100.3281 401.7385,100.2734 Q401.8323,100.2188 401.9417,100.2188 Q402.1292,100.2188 402.2463,100.3516 Q402.3635,100.4766 402.3635,100.7813 L402.3635,101.5078 Q402.3635,101.8125 402.2463,101.9453 Q402.1292,102.0781 401.9417,102.0781 Q401.7698,102.0781 401.6682,101.9766 Q401.5667,101.8828 401.512,101.625 Q401.4885,101.4453 401.3948,101.3516 Q401.2307,101.1641 400.926,101.0547 Q400.6213,100.9453 400.3088,100.9453 Q399.926,100.9453 399.6057,101.1094 Q399.2932,101.2734 399.0432,101.6484 Q398.801,102.0234 398.801,102.5391 L398.801,103.0859 Q398.801,103.7031 399.2463,104.1172 Q399.6917,104.5234 400.4885,104.5234 Q400.9573,104.5234 401.2854,104.3984 Q401.4807,104.3203 401.6917,104.1016 Q401.8245,103.9688 401.8948,103.9297 Q401.9729,103.8906 402.0745,103.8906 Q402.2385,103.8906 402.3635,104.0234 Q402.4963,104.1484 402.4963,104.3203 Q402.4963,104.4922 402.3245,104.6953 Q402.0745,104.9844 401.676,105.1484 Q401.137,105.375 400.4885,105.375 Q399.7307,105.375 399.1292,105.0625 Q398.637,104.8125 398.2932,104.2813 Q397.9495,103.7422 397.9495,103.1016 L397.9495,102.5234 Q397.9495,101.8594 398.2542,101.2891 Q398.5667,100.7109 399.1135,100.4063 Q399.6604,100.0938 400.2776,100.0938 Q400.6448,100.0938 400.9651,100.1797 Q401.2932,100.2578 401.5667,100.4375 Z " fill="#000000"/><text fill="#000000" font-family="sans-serif" font-size="7" lengthAdjust="spacing" textLength="73.1479" x="410.4338" y="105.3984">CreateStationController</text><line style="stroke:#181818;stroke-width:0.25;" x1="247" x2="630.7656" y1="110.5" y2="110.5"/><text fill="#000000" font-family="sans-serif" font-size="7" lengthAdjust="spacing" textLength="102.3169" x="249.5" y="120.0537">-mapRepository : MapRepository</text><text fill="#000000" font-family="sans-serif" font-size="7" lengthAdjust="spacing" textLength="54.0791" x="249.5" y="129.3643">-actualMap : Map</text><text fill="#000000" font-family="sans-serif" font-size="7" lengthAdjust="spacing" textLength="81.7065" x="249.5" y="138.6748">-stationType : StationType</text><text fill="#000000" font-family="sans-serif" font-size="7" lengthAdjust="spacing" textLength="57.1963" x="249.5" y="147.9854">-position : Position</text><text fill="#000000" font-family="sans-serif" font-size="7" lengthAdjust="spacing" textLength="52.9102" x="249.5" y="157.2959">-direction : String</text><text fill="#000000" font-family="sans-serif" font-size="7" lengthAdjust="spacing" textLength="72.3618" x="249.5" y="166.6064">-simulation : Simulation</text><line style="stroke:#181818;stroke-width:0.25;" x1="247" x2="630.7656" y1="170.3633" y2="170.3633"/><text fill="#000000" font-family="sans-serif" font-size="7" lengthAdjust="spacing" textLength="184.2217" x="249.5" y="179.917">+CreateStationController(idMap: int, simulation: Simulation)</text><text fill="#000000" font-family="sans-serif" font-size="7" lengthAdjust="spacing" textLength="93.1943" x="249.5" y="189.2275">+selectStationType(): boolean</text><text fill="#000000" font-family="sans-serif" font-size="7" lengthAdjust="spacing" textLength="98.2598" x="249.5" y="198.5381">+readPositionStation(): boolean</text><text fill="#000000" font-family="sans-serif" font-size="7" lengthAdjust="spacing" textLength="105.2529" x="249.5" y="207.8486">+selectStationDirection(): boolean</text><text fill="#000000" font-family="sans-serif" font-size="7" lengthAdjust="spacing" textLength="378.7656" x="249.5" y="217.1592">+createStation(type: StationType, position: Position, direction: String, customName: String, simulation: Simulation): Station</text><text fill="#000000" font-family="sans-serif" font-size="7" lengthAdjust="spacing" textLength="97.0806" x="249.5" y="226.4697">+getStationType(): StationType</text><text fill="#000000" font-family="sans-serif" font-size="7" lengthAdjust="spacing" textLength="72.1772" x="249.5" y="235.7803">+getPosition(): Position</text><text fill="#000000" font-family="sans-serif" font-size="7" lengthAdjust="spacing" textLength="68.2773" x="249.5" y="245.0908">+getDirection(): String</text><text fill="#000000" font-family="sans-serif" font-size="7" lengthAdjust="spacing" textLength="69.0601" x="249.5" y="254.4014">+getActualMap(): Map</text><text fill="#000000" font-family="sans-serif" font-size="7" lengthAdjust="spacing" textLength="87.7358" x="249.5" y="263.7119">+getSimulation(): Simulation</text></g><!--class CreateStationUI--><g id="elem_CreateStationUI"><rect codeLine="93" fill="#F1F1F1" height="61.2422" id="CreateStationUI" rx="1.25" ry="1.25" style="stroke:#181818;stroke-width:0.25;" width="166.877" x="355.5" y="3.5"/><ellipse cx="411.9119" cy="11.5" fill="#ADD1B2" rx="5.5" ry="5.5" style="stroke:#181818;stroke-width:0.5;"/><path d="M413.2947,9.4375 Q413.3728,9.3281 413.4666,9.2734 Q413.5603,9.2188 413.6697,9.2188 Q413.8572,9.2188 413.9744,9.3516 Q414.0916,9.4766 414.0916,9.7813 L414.0916,10.5078 Q414.0916,10.8125 413.9744,10.9453 Q413.8572,11.0781 413.6697,11.0781 Q413.4978,11.0781 413.3962,10.9766 Q413.2947,10.8828 413.24,10.625 Q413.2166,10.4453 413.1228,10.3516 Q412.9587,10.1641 412.6541,10.0547 Q412.3494,9.9453 412.0369,9.9453 Q411.6541,9.9453 411.3337,10.1094 Q411.0212,10.2734 410.7712,10.6484 Q410.5291,11.0234 410.5291,11.5391 L410.5291,12.0859 Q410.5291,12.7031 410.9744,13.1172 Q411.4197,13.5234 412.2166,13.5234 Q412.6853,13.5234 413.0134,13.3984 Q413.2087,13.3203 413.4197,13.1016 Q413.5525,12.9688 413.6228,12.9297 Q413.7009,12.8906 413.8025,12.8906 Q413.9666,12.8906 414.0916,13.0234 Q414.2244,13.1484 414.2244,13.3203 Q414.2244,13.4922 414.0525,13.6953 Q413.8025,13.9844 413.4041,14.1484 Q412.865,14.375 412.2166,14.375 Q411.4587,14.375 410.8572,14.0625 Q410.365,13.8125 410.0212,13.2813 Q409.6775,12.7422 409.6775,12.1016 L409.6775,11.5234 Q409.6775,10.8594 409.9822,10.2891 Q410.2947,9.7109 410.8416,9.4063 Q411.3884,9.0938 412.0056,9.0938 Q412.3728,9.0938 412.6931,9.1797 Q413.0212,9.2578 413.2947,9.4375 Z " fill="#000000"/><text fill="#000000" font-family="sans-serif" font-size="7" lengthAdjust="spacing" textLength="49.8032" x="422.1619" y="14.3984">CreateStationUI</text><line style="stroke:#181818;stroke-width:0.25;" x1="356" x2="521.877" y1="19.5" y2="19.5"/><text fill="#000000" font-family="sans-serif" font-size="7" lengthAdjust="spacing" textLength="110.103" x="358.5" y="29.0537">-controller : CreateStationController</text><text fill="#000000" font-family="sans-serif" font-size="7" lengthAdjust="spacing" textLength="75.0996" x="358.5" y="38.3643">-createdStation : Station</text><line style="stroke:#181818;stroke-width:0.25;" x1="356" x2="521.877" y1="42.1211" y2="42.1211"/><text fill="#000000" font-family="sans-serif" font-size="7" lengthAdjust="spacing" textLength="160.877" x="358.5" y="51.6748">+CreateStationUI(idMap: int, simulation: Simulation)</text><text fill="#000000" font-family="sans-serif" font-size="7" lengthAdjust="spacing" textLength="35.5981" x="358.5" y="60.9854">+run(): void</text></g><!--class StationRepository--><g id="elem_StationRepository"><rect codeLine="103" fill="#F1F1F1" height="70.5527" id="StationRepository" rx="1.25" ry="1.25" style="stroke:#181818;stroke-width:0.25;" width="142.3735" x="504.25" y="297.5"/><ellipse cx="545.686" cy="305.5" fill="#ADD1B2" rx="5.5" ry="5.5" style="stroke:#181818;stroke-width:0.5;"/><path d="M547.0688,303.4375 Q547.147,303.3281 547.2407,303.2734 Q547.3345,303.2188 547.4438,303.2188 Q547.6313,303.2188 547.7485,303.3516 Q547.8657,303.4766 547.8657,303.7813 L547.8657,304.5078 Q547.8657,304.8125 547.7485,304.9453 Q547.6313,305.0781 547.4438,305.0781 Q547.272,305.0781 547.1704,304.9766 Q547.0688,304.8828 547.0142,304.625 Q546.9907,304.4453 546.897,304.3516 Q546.7329,304.1641 546.4282,304.0547 Q546.1235,303.9453 545.811,303.9453 Q545.4282,303.9453 545.1079,304.1094 Q544.7954,304.2734 544.5454,304.6484 Q544.3032,305.0234 544.3032,305.5391 L544.3032,306.0859 Q544.3032,306.7031 544.7485,307.1172 Q545.1938,307.5234 545.9907,307.5234 Q546.4595,307.5234 546.7876,307.3984 Q546.9829,307.3203 547.1938,307.1016 Q547.3267,306.9688 547.397,306.9297 Q547.4751,306.8906 547.5767,306.8906 Q547.7407,306.8906 547.8657,307.0234 Q547.9985,307.1484 547.9985,307.3203 Q547.9985,307.4922 547.8267,307.6953 Q547.5767,307.9844 547.1782,308.1484 Q546.6392,308.375 545.9907,308.375 Q545.2329,308.375 544.6313,308.0625 Q544.1392,307.8125 543.7954,307.2813 Q543.4517,306.7422 543.4517,306.1016 L543.4517,305.5234 Q543.4517,304.8594 543.7563,304.2891 Q544.0688,303.7109 544.6157,303.4063 Q545.1626,303.0938 545.7798,303.0938 Q546.147,303.0938 546.4673,303.1797 Q546.7954,303.2578 547.0688,303.4375 Z " fill="#000000"/><text fill="#000000" font-family="sans-serif" font-size="7" lengthAdjust="spacing" textLength="55.2515" x="555.936" y="308.3984">StationRepository</text><line style="stroke:#181818;stroke-width:0.25;" x1="504.75" x2="646.1235" y1="313.5" y2="313.5"/><text fill="#000000" font-family="sans-serif" font-size="7" lengthAdjust="spacing" textLength="73.1514" x="507.25" y="323.0537">-stations : List&lt;Station&gt;</text><line style="stroke:#181818;stroke-width:0.25;" x1="504.75" x2="646.1235" y1="326.8105" y2="326.8105"/><text fill="#000000" font-family="sans-serif" font-size="7" lengthAdjust="spacing" textLength="117.332" x="507.25" y="336.3643">+addStation(station: Station): boolean</text><text fill="#000000" font-family="sans-serif" font-size="7" lengthAdjust="spacing" textLength="128.9941" x="507.25" y="345.6748">+removeStation(station: Station): boolean</text><text fill="#000000" font-family="sans-serif" font-size="7" lengthAdjust="spacing" textLength="136.3735" x="507.25" y="354.9854">+StationNameExists(name: String): boolean</text><text fill="#000000" font-family="sans-serif" font-size="7" lengthAdjust="spacing" textLength="88.5254" x="507.25" y="364.2959">+getStations(): List&lt;Station&gt;</text></g><!--class MapRepository--><g id="elem_MapRepository"><rect codeLine="111" fill="#F1F1F1" height="42.6211" id="MapRepository" rx="1.25" ry="1.25" style="stroke:#181818;stroke-width:0.25;" width="90.2324" x="700" y="311.5"/><ellipse cx="719.7205" cy="319.5" fill="#ADD1B2" rx="5.5" ry="5.5" style="stroke:#181818;stroke-width:0.5;"/><path d="M721.1033,317.4375 Q721.1815,317.3281 721.2752,317.2734 Q721.369,317.2188 721.4783,317.2188 Q721.6658,317.2188 721.783,317.3516 Q721.9002,317.4766 721.9002,317.7813 L721.9002,318.5078 Q721.9002,318.8125 721.783,318.9453 Q721.6658,319.0781 721.4783,319.0781 Q721.3065,319.0781 721.2049,318.9766 Q721.1033,318.8828 721.0487,318.625 Q721.0252,318.4453 720.9315,318.3516 Q720.7674,318.1641 720.4627,318.0547 Q720.158,317.9453 719.8455,317.9453 Q719.4627,317.9453 719.1424,318.1094 Q718.8299,318.2734 718.5799,318.6484 Q718.3377,319.0234 718.3377,319.5391 L718.3377,320.0859 Q718.3377,320.7031 718.783,321.1172 Q719.2283,321.5234 720.0252,321.5234 Q720.494,321.5234 720.8221,321.3984 Q721.0174,321.3203 721.2283,321.1016 Q721.3612,320.9688 721.4315,320.9297 Q721.5096,320.8906 721.6112,320.8906 Q721.7752,320.8906 721.9002,321.0234 Q722.033,321.1484 722.033,321.3203 Q722.033,321.4922 721.8612,321.6953 Q721.6112,321.9844 721.2127,322.1484 Q720.6737,322.375 720.0252,322.375 Q719.2674,322.375 718.6658,322.0625 Q718.1737,321.8125 717.8299,321.2813 Q717.4862,320.7422 717.4862,320.1016 L717.4862,319.5234 Q717.4862,318.8594 717.7908,318.2891 Q718.1033,317.7109 718.6502,317.4063 Q719.1971,317.0938 719.8143,317.0938 Q720.1815,317.0938 720.5018,317.1797 Q720.8299,317.2578 721.1033,317.4375 Z " fill="#000000"/><text fill="#000000" font-family="sans-serif" font-size="7" lengthAdjust="spacing" textLength="47.0757" x="729.4362" y="322.3984">MapRepository</text><line style="stroke:#181818;stroke-width:0.25;" x1="700.5" x2="789.7324" y1="327.5" y2="327.5"/><line style="stroke:#181818;stroke-width:0.25;" x1="700.5" x2="789.7324" y1="331.5" y2="331.5"/><text fill="#000000" font-family="sans-serif" font-size="7" lengthAdjust="spacing" textLength="84.2324" x="703" y="341.0537">+getMapById(id : int) : Map</text><text fill="#000000" font-family="sans-serif" font-size="7" lengthAdjust="spacing" textLength="10.4966" x="703" y="350.3643">...()</text></g><!--class Repositories--><g id="elem_Repositories"><rect codeLine="116" fill="#F1F1F1" height="61.2422" id="Repositories" rx="1.25" ry="1.25" style="stroke:#181818;stroke-width:0.25;" width="138.8735" x="666.5" y="150.5"/><ellipse cx="714.3584" cy="158.5" fill="#ADD1B2" rx="5.5" ry="5.5" style="stroke:#181818;stroke-width:0.5;"/><path d="M715.7412,156.4375 Q715.8193,156.3281 715.9131,156.2734 Q716.0068,156.2188 716.1162,156.2188 Q716.3037,156.2188 716.4209,156.3516 Q716.5381,156.4766 716.5381,156.7813 L716.5381,157.5078 Q716.5381,157.8125 716.4209,157.9453 Q716.3037,158.0781 716.1162,158.0781 Q715.9443,158.0781 715.8428,157.9766 Q715.7412,157.8828 715.6865,157.625 Q715.6631,157.4453 715.5693,157.3516 Q715.4053,157.1641 715.1006,157.0547 Q714.7959,156.9453 714.4834,156.9453 Q714.1006,156.9453 713.7803,157.1094 Q713.4678,157.2734 713.2178,157.6484 Q712.9756,158.0234 712.9756,158.5391 L712.9756,159.0859 Q712.9756,159.7031 713.4209,160.1172 Q713.8662,160.5234 714.6631,160.5234 Q715.1318,160.5234 715.46,160.3984 Q715.6553,160.3203 715.8662,160.1016 Q715.999,159.9688 716.0693,159.9297 Q716.1475,159.8906 716.249,159.8906 Q716.4131,159.8906 716.5381,160.0234 Q716.6709,160.1484 716.6709,160.3203 Q716.6709,160.4922 716.499,160.6953 Q716.249,160.9844 715.8506,161.1484 Q715.3115,161.375 714.6631,161.375 Q713.9053,161.375 713.3037,161.0625 Q712.8115,160.8125 712.4678,160.2813 Q712.124,159.7422 712.124,159.1016 L712.124,158.5234 Q712.124,157.8594 712.4287,157.2891 Q712.7412,156.7109 713.2881,156.4063 Q713.835,156.0938 714.4521,156.0938 Q714.8193,156.0938 715.1396,156.1797 Q715.4678,156.2578 715.7412,156.4375 Z " fill="#000000"/><text fill="#000000" font-family="sans-serif" font-size="7" lengthAdjust="spacing" textLength="38.9067" x="724.6084" y="161.3984">Repositories</text><line style="stroke:#181818;stroke-width:0.25;" x1="667" x2="804.8735" y1="166.5" y2="166.5"/><line style="stroke:#181818;stroke-width:0.25;" x1="667" x2="804.8735" y1="170.5" y2="170.5"/><text fill="#000000" font-family="sans-serif" font-size="7" lengthAdjust="spacing" text-decoration="underline" textLength="44.9429" x="669.5" y="180.0537">+getInstance()</text><text fill="#000000" font-family="sans-serif" font-size="7" lengthAdjust="spacing" textLength="132.8735" x="669.5" y="189.3643">+getStationRepository(): StationRepository</text><text fill="#000000" font-family="sans-serif" font-size="7" lengthAdjust="spacing" textLength="116.522" x="669.5" y="198.6748">+getMapRepository(): MapRepository</text><text fill="#000000" font-family="sans-serif" font-size="7" lengthAdjust="spacing" textLength="10.4966" x="669.5" y="207.9854">...()</text></g><g id="elem_GMN29"><path d="M3,169.75 L3,192.041 A0,0 0 0 0 3,192.041 L229.2251,192.041 A0,0 0 0 0 229.2251,192.041 L229.2251,183 L246.475,181 L229.2251,179 L229.2251,174.75 L224.2251,169.75 L3,169.75 A0,0 0 0 0 3,169.75 " fill="#FEFFDD" style="stroke:#181818;stroke-width:0.25;"/><path d="M224.2251,169.75 L224.2251,174.75 L229.2251,174.75 L224.2251,169.75 " fill="#FEFFDD" style="stroke:#181818;stroke-width:0.25;"/><text fill="#000000" font-family="sans-serif" font-size="6.5" lengthAdjust="spacing" textLength="195.4634" x="6" y="179.2642">The &#8216;CreateStationController&#8217; manages the station creation process,</text><text fill="#000000" font-family="sans-serif" font-size="6.5" lengthAdjust="spacing" textLength="215.7251" x="6" y="187.9097">including selection of type, position, direction and name validation.end note</text></g><g id="elem_GMN32"><path d="M214.25,14.25 L214.25,53.832 A0,0 0 0 0 214.25,53.832 L337.8303,53.832 A0,0 0 0 0 337.8303,53.832 L337.8303,36 L355.44,34 L337.8303,32 L337.8303,19.25 L332.8303,14.25 L214.25,14.25 A0,0 0 0 0 214.25,14.25 " fill="#FEFFDD" style="stroke:#181818;stroke-width:0.25;"/><path d="M332.8303,14.25 L332.8303,19.25 L337.8303,19.25 L332.8303,14.25 " fill="#FEFFDD" style="stroke:#181818;stroke-width:0.25;"/><text fill="#000000" font-family="sans-serif" font-size="6.5" lengthAdjust="spacing" textLength="113.0803" x="217.25" y="23.7642">The &#8216;CreateStationUI&#8217; is responsible for</text><text fill="#000000" font-family="sans-serif" font-size="6.5" lengthAdjust="spacing" textLength="112.0076" x="217.25" y="32.4097">interacting with the user,collecting data</text><text fill="#000000" font-family="sans-serif" font-size="6.5" lengthAdjust="spacing" textLength="112.3757" x="217.25" y="41.0552">and displaying the results of the station</text><text fill="#000000" font-family="sans-serif" font-size="6.5" lengthAdjust="spacing" textLength="49.4958" x="217.25" y="49.7007">creation process.</text></g><g id="elem_GMN35"><path d="M383.25,706.75 L383.25,729.041 A0,0 0 0 0 383.25,729.041 L554.8884,729.041 A0,0 0 0 0 554.8884,729.041 L554.8884,711.75 L549.8884,706.75 L471,706.75 L469,643.54 L467,706.75 L383.25,706.75 A0,0 0 0 0 383.25,706.75 " fill="#FEFFDD" style="stroke:#181818;stroke-width:0.25;"/><path d="M549.8884,706.75 L549.8884,711.75 L554.8884,711.75 L549.8884,706.75 " fill="#FEFFDD" style="stroke:#181818;stroke-width:0.25;"/><text fill="#000000" font-family="sans-serif" font-size="6.5" lengthAdjust="spacing" textLength="161.1384" x="386.25" y="716.2642">The &#8216;Station&#8217; class represents a station on the map, with</text><text fill="#000000" font-family="sans-serif" font-size="6.5" lengthAdjust="spacing" textLength="151.7534" x="386.25" y="724.9097">attributes such as name, type, position and direction.</text></g><g id="elem_GMN38"><path d="M389.75,422.5 L389.75,453.4365 A0,0 0 0 0 389.75,453.4365 L544.053,453.4365 A0,0 0 0 0 544.053,453.4365 L544.053,427.5 L539.053,422.5 L526.25,422.5 L524.25,368.09 L522.25,422.5 L389.75,422.5 A0,0 0 0 0 389.75,422.5 " fill="#FEFFDD" style="stroke:#181818;stroke-width:0.25;"/><path d="M539.053,422.5 L539.053,427.5 L544.053,427.5 L539.053,422.5 " fill="#FEFFDD" style="stroke:#181818;stroke-width:0.25;"/><text fill="#000000" font-family="sans-serif" font-size="6.5" lengthAdjust="spacing" textLength="143.803" x="392.75" y="432.0142">StationRepository&#8217; is able to manage how stations</text><text fill="#000000" font-family="sans-serif" font-size="6.5" lengthAdjust="spacing" textLength="121.7607" x="394.5559" y="440.6597">are stored and allows you to consult them.</text><text fill="#000000" font-family="sans-serif" font-size="6.5" lengthAdjust="spacing" textLength="1.8059" x="392.75" y="449.3052">&#160;</text></g><!--link CreateStationUI to CreateStationController--><g id="link_CreateStationUI_CreateStationController"><path codeLine="126" d="M439,64.635 C439,73.555 439,80.77 439,91.36 " fill="none" id="CreateStationUI-to-CreateStationController" style="stroke:#181818;stroke-width:0.5;stroke-dasharray:7.0,7.0;"/><polygon fill="#181818" points="439,94.36,441,89.86,439,91.86,437,89.86,439,94.36" style="stroke:#181818;stroke-width:0.5;"/><text fill="#000000" font-family="sans-serif" font-size="6.5" lengthAdjust="spacing" textLength="3.615" x="435.3114" y="75.6771">1</text><text fill="#000000" font-family="sans-serif" font-size="6.5" lengthAdjust="spacing" textLength="3.615" x="435.4286" y="88.7597">1</text></g><!--link CreateStationController to Map--><g id="link_CreateStationController_Map"><path codeLine="127" d="M631.66,239.5 C646.94,239.5 656.625,239.5 656.625,239.5 C656.625,239.5 656.625,336.83 656.625,394.83 " fill="none" id="CreateStationController-to-Map" style="stroke:#181818;stroke-width:0.5;stroke-dasharray:7.0,7.0;"/><polygon fill="#181818" points="656.625,397.83,658.625,393.33,656.625,395.33,654.625,393.33,656.625,397.83" style="stroke:#181818;stroke-width:0.5;"/><text fill="#000000" font-family="sans-serif" font-size="6.5" lengthAdjust="spacing" textLength="26.7395" x="657.125" y="304.1992">manages</text><text fill="#000000" font-family="sans-serif" font-size="6.5" lengthAdjust="spacing" textLength="3.615" x="635.0044" y="238.9481">1</text><text fill="#000000" font-family="sans-serif" font-size="6.5" lengthAdjust="spacing" textLength="3.615" x="651.0633" y="392.4006">1</text></g><!--link CreateStationController to MapRepository--><g id="link_CreateStationController_MapRepository"><path codeLine="128" d="M631.685,225.5 C685.71,225.5 730,225.5 730,225.5 C730,225.5 730,277.155 730,308.435 " fill="none" id="CreateStationController-to-MapRepository" style="stroke:#181818;stroke-width:0.5;stroke-dasharray:7.0,7.0;"/><polygon fill="#181818" points="730,311.435,732,306.935,730,308.935,728,306.935,730,311.435" style="stroke:#181818;stroke-width:0.5;"/><text fill="#000000" font-family="sans-serif" font-size="6.5" lengthAdjust="spacing" textLength="3.615" x="635.0299" y="224.7075">1</text><text fill="#000000" font-family="sans-serif" font-size="6.5" lengthAdjust="spacing" textLength="3.615" x="723.8211" y="305.8767">1</text></g><!--link CreateStationController to StationRepository--><g id="link_CreateStationController_StationRepository"><path codeLine="129" d="M567.875,267.515 C567.875,278.03 567.875,285.27 567.875,294.4 " fill="none" id="CreateStationController-to-StationRepository" style="stroke:#181818;stroke-width:0.5;stroke-dasharray:7.0,7.0;"/><polygon fill="#181818" points="567.875,297.4,569.875,292.9,567.875,294.9,565.875,292.9,567.875,297.4" style="stroke:#181818;stroke-width:0.5;"/><text fill="#000000" font-family="sans-serif" font-size="6.5" lengthAdjust="spacing" textLength="3.615" x="569.7455" y="278.362">1</text><text fill="#000000" font-family="sans-serif" font-size="6.5" lengthAdjust="spacing" textLength="3.615" x="563.4207" y="291.8352">1</text></g><!--link CreateStationController to Simulation--><g id="link_CreateStationController_Simulation"><path codeLine="130" d="M430,267.515 C430,279.895 430,288.89 430,299.145 " fill="none" id="CreateStationController-to-Simulation" style="stroke:#181818;stroke-width:0.5;stroke-dasharray:7.0,7.0;"/><polygon fill="#181818" points="430,302.145,432,297.645,430,299.645,428,297.645,430,302.145" style="stroke:#181818;stroke-width:0.5;"/><text fill="#000000" font-family="sans-serif" font-size="6.5" lengthAdjust="spacing" textLength="3.615" x="426.0539" y="278.362">1</text><text fill="#000000" font-family="sans-serif" font-size="6.5" lengthAdjust="spacing" textLength="3.615" x="426.2998" y="296.6235">1</text></g><!--link CreateStationController to Station--><g id="link_CreateStationController_Station"><path codeLine="131" d="M362.5,267.63 C362.5,339.915 362.5,438.5 362.5,504.96 " fill="none" id="CreateStationController-to-Station" style="stroke:#181818;stroke-width:0.5;stroke-dasharray:7.0,7.0;"/><polygon fill="#181818" points="362.5,507.96,364.5,503.46,362.5,505.46,360.5,503.46,362.5,507.96" style="stroke:#181818;stroke-width:0.5;"/><text fill="#000000" font-family="sans-serif" font-size="6.5" lengthAdjust="spacing" textLength="3.615" x="355.7062" y="278.4819">1</text><text fill="#000000" font-family="sans-serif" font-size="6.5" lengthAdjust="spacing" textLength="3.615" x="352.7425" y="502.307">1</text></g><!--link CreateStationController to StationType--><g id="link_CreateStationController_StationType"><path codeLine="132" d="M323.5,267.575 C323.5,389.95 323.5,604.505 323.5,684.445 " fill="none" id="CreateStationController-to-StationType" style="stroke:#181818;stroke-width:0.5;stroke-dasharray:7.0,7.0;"/><polygon fill="#181818" points="323.5,687.445,325.5,682.945,323.5,684.945,321.5,682.945,323.5,687.445" style="stroke:#181818;stroke-width:0.5;"/><text fill="#000000" font-family="sans-serif" font-size="6.5" lengthAdjust="spacing" textLength="13.73" x="309.5" y="475.5242">uses</text></g><!--link Station to StationType--><g id="link_Station_StationType"><path codeLine="134" d="M367.5,643.565 C367.5,671.525 367.5,697.5 367.5,697.5 C367.5,697.5 362.525,697.5 353.36,697.5 " fill="none" id="Station-to-StationType" style="stroke:#181818;stroke-width:0.5;stroke-dasharray:7.0,7.0;"/><polygon fill="#181818" points="350.36,697.5,354.86,699.5,352.86,697.5,354.86,695.5,350.36,697.5" style="stroke:#181818;stroke-width:0.5;"/><text fill="#000000" font-family="sans-serif" font-size="6.5" lengthAdjust="spacing" textLength="13.73" x="353.5" y="677.1142">uses</text></g><!--link Map to MapElement--><g id="link_Map_MapElement"><path codeLine="137" d="M678,484.03 C678,502.14 678,514.5 678,532.62 " fill="none" id="Map-MapElement" style="stroke:#181818;stroke-width:0.5;"/><polygon fill="#181818" points="678,478.03,676,481.03,678,484.03,680,481.03,678,478.03" style="stroke:#181818;stroke-width:0.5;"/><polygon fill="#181818" points="678,535.62,680,531.12,678,533.12,676,531.12,678,535.62" style="stroke:#181818;stroke-width:0.5;"/><text fill="#000000" font-family="sans-serif" font-size="6.5" lengthAdjust="spacing" textLength="24.21" x="653.5" y="504.8392">contains</text><text fill="#000000" font-family="sans-serif" font-size="6.5" lengthAdjust="spacing" textLength="3.615" x="674.3475" y="488.8616">1</text><text fill="#000000" font-family="sans-serif" font-size="6.5" lengthAdjust="spacing" textLength="2.5295" x="675.397" y="530.0559">*</text></g><!--link Map to Station--><g id="link_Map_Station"><path codeLine="138" d="M601.375,478.03 C601.375,499.665 601.375,522 601.375,522 C601.375,522 598.54,522 589.32,522 " fill="none" id="Map-to-Station" style="stroke:#181818;stroke-width:0.5;"/><polygon fill="#181818" points="586.32,522,590.82,524,588.82,522,590.82,520,586.32,522" style="stroke:#181818;stroke-width:0.5;"/><text fill="#000000" font-family="sans-serif" font-size="6.5" lengthAdjust="spacing" textLength="24.21" x="576.875" y="505.5592">contains</text><text fill="#000000" font-family="sans-serif" font-size="6.5" lengthAdjust="spacing" textLength="3.615" x="591.1376" y="488.8616">1</text><text fill="#000000" font-family="sans-serif" font-size="6.5" lengthAdjust="spacing" textLength="2.5295" x="590.2096" y="518.6097">*</text></g><!--link MapElement to Position--><g id="link_MapElement_Position"><path codeLine="139" d="M678,615.755 C678,633.71 678,651.96 678,670.425 " fill="none" id="MapElement-to-Position" style="stroke:#181818;stroke-width:0.5;"/><polygon fill="#181818" points="678,673.425,680,668.925,678,670.925,676,668.925,678,673.425" style="stroke:#181818;stroke-width:0.5;"/><text fill="#000000" font-family="sans-serif" font-size="6.5" lengthAdjust="spacing" textLength="28.1868" x="649.5" y="642.6042">located at</text><text fill="#000000" font-family="sans-serif" font-size="6.5" lengthAdjust="spacing" textLength="3.615" x="674.3647" y="626.5845">1</text><text fill="#000000" font-family="sans-serif" font-size="6.5" lengthAdjust="spacing" textLength="3.615" x="674.3642" y="667.8947">1</text></g><!--link Repositories to Repositories--><g id="link_Repositories_Repositories"><path codeLine="141" d="M736,150.38 C736,136.225 736,122.5 736,122.5 C736,122.5 814.5,122.5 814.5,122.5 C814.5,122.5 814.5,253.5 814.5,253.5 C814.5,253.5 797.75,253.5 797.75,253.5 C797.75,253.5 797.75,234.35 797.75,214.535 " fill="none" id="Repositories-to-Repositories" style="stroke:#181818;stroke-width:0.5;"/><polygon fill="#181818" points="797.75,211.535,795.75,216.035,797.75,214.035,799.75,216.035,797.75,211.535" style="stroke:#181818;stroke-width:0.5;"/><text fill="#000000" font-family="sans-serif" font-size="6.5" lengthAdjust="spacing" textLength="24.21" x="817.5" y="159.6792">instance</text><text fill="#000000" font-family="sans-serif" font-size="6.5" lengthAdjust="spacing" textLength="3.615" x="801.5772" y="222.7827">1</text></g><!--link Repositories to StationRepository--><g id="link_Repositories_StationRepository"><path codeLine="142" d="M683.25,211.53 C683.25,248.1 683.25,304.5 683.25,304.5 C683.25,304.5 669.81,304.5 649.77,304.5 " fill="none" id="Repositories-to-StationRepository" style="stroke:#181818;stroke-width:0.5;"/><polygon fill="#181818" points="646.77,304.5,651.27,306.5,649.27,304.5,651.27,302.5,646.77,304.5" style="stroke:#181818;stroke-width:0.5;"/><text fill="#000000" font-family="sans-serif" font-size="6.5" lengthAdjust="spacing" textLength="3.615" x="673.1225" y="222.7771">1</text><text fill="#000000" font-family="sans-serif" font-size="6.5" lengthAdjust="spacing" textLength="3.615" x="650.5413" y="301.3408">1</text></g><!--link Repositories to MapRepository--><g id="link_Repositories_MapRepository"><path codeLine="143" d="M760,211.525 C760,241.125 760,282.27 760,308.32 " fill="none" id="Repositories-to-MapRepository" style="stroke:#181818;stroke-width:0.5;"/><polygon fill="#181818" points="760,311.32,762,306.82,760,308.82,758,306.82,760,311.32" style="stroke:#181818;stroke-width:0.5;"/><text fill="#000000" font-family="sans-serif" font-size="6.5" lengthAdjust="spacing" textLength="24.5686" x="735" y="259.4392">provides</text><text fill="#000000" font-family="sans-serif" font-size="6.5" lengthAdjust="spacing" textLength="3.615" x="759.2264" y="222.7715">1</text><text fill="#000000" font-family="sans-serif" font-size="6.5" lengthAdjust="spacing" textLength="3.615" x="758.5199" y="305.9038">1</text></g><!--link StationRepository to Station--><g id="link_StationRepository_Station"><path codeLine="144" d="M565.25,368.085 C565.25,404.61 565.25,459.545 565.25,504.955 " fill="none" id="StationRepository-to-Station" style="stroke:#181818;stroke-width:0.5;"/><polygon fill="#181818" points="565.25,507.955,567.25,503.455,565.25,505.455,563.25,503.455,565.25,507.955" style="stroke:#181818;stroke-width:0.5;"/><text fill="#000000" font-family="sans-serif" font-size="6.5" lengthAdjust="spacing" textLength="26.7395" x="565.75" y="436.0342">manages</text><text fill="#000000" font-family="sans-serif" font-size="6.5" lengthAdjust="spacing" textLength="3.615" x="560.525" y="379.1861">1</text><text fill="#000000" font-family="sans-serif" font-size="6.5" lengthAdjust="spacing" textLength="2.5295" x="568.2404" y="502.3017">*</text></g><!--link MapRepository to Map--><g id="link_MapRepository_Map"><path codeLine="145" d="M729.125,354.05 C729.125,366.665 729.125,380.055 729.125,395 " fill="none" id="MapRepository-to-Map" style="stroke:#181818;stroke-width:0.5;"/><polygon fill="#181818" points="729.125,398,731.125,393.5,729.125,395.5,727.125,393.5,729.125,398" style="stroke:#181818;stroke-width:0.5;"/><text fill="#000000" font-family="sans-serif" font-size="6.5" lengthAdjust="spacing" textLength="26.7395" x="702.125" y="374.0392">manages</text><text fill="#000000" font-family="sans-serif" font-size="6.5" lengthAdjust="spacing" textLength="3.615" x="722.8067" y="365.1381">1</text><text fill="#000000" font-family="sans-serif" font-size="6.5" lengthAdjust="spacing" textLength="2.5295" x="731.3723" y="392.31">*</text></g><!--SRC=[hLZDRkCs4BxhAOXSQkywHdirYWNSn405-2Um763tI4jqJAn4gYALn0qMsCTeNs-Vf4EAf2Z9z3f0Wo2MPeOpymq_pj0HNoahSOKBLEBqAtuYYJpb15KabPWzvIGIpa0SSSPVA7j21vmBNvDJHkIf9AZa-KczdDFnIXwvfqXpBCHSoehkQqdYbBE4_atGhr7q2xezymFY-yrg7g_HtNAU98iaPASTeqHYIJb3Rn62drl4S47G3CGL830ocX4cwO6I2ZIKIIFMwSwiXnsy6KN91TLEP-Z1F1fDHbN56fKNugDrCb8-EoudpblhR08PhN2fSvcqFgtBiV7vHEGQq8p6lLWWjvwKhfEYrdhXpos-jm47Ic4YClAYFbr2C_JCQMQC96-atkflKKHONVYupORSBnusE_sKxEQxUBFMpxl5TXMlvqlzCfrEHsFbejbG2ySu-EW4erTaAdPg7hmwVHwDlQtLeYyz4Vch1ZexPsVsMDdlESy9PWEeVKgzTfXa4cf1mEww_76MBN9I00L7fFcSARsHZVinArBmP_AU5G1sawPrIKbceGYrEKigvEzMycb03wLsPaRcMSMPKbgCRfFmNiWAfn8ve2OjTmB3fuVtiqJX95k6em75XQSExAF7r_FbEH-wnyM45dNUxIy07NYqueoS-eoRjog_T3fVNrUelms3lKHTw61RlDkiTzlDShdONcw9TnN1afWTlUDCLZpFeVTP20KkjqJNZLSAnCf_xy846ckzaGhlVFylZHDSjYMUUVKsbGj06Vdzi_NWEnYxskSGkDSH-oSEEsROFZumwlZfTD2kNUfdVEqu68o02Kfh8NdXT-4WKXVWmWJexjGLCoGy95gcur8fBJsQm2ujlQxTpql4VepVGUZ7s14vRRaz2r75ccfjPcyB_PBr8ho3NrMjaUfZV0dZ5WPX4kyss_ZA6urtHD-wny-rpLxJXa5ZUMSi7Sp0bBdQtCWL7HUl45gCMFT-C9X8PeKOJXX_I0v0whMW-EC4yuTcPj1xJQZNePq3IeHpyQRnfD_q66Fmmb8u1eFSsk3U6UbrGfjFrtROCN_UlRUBfRu09N_63q46z9b-yziDkFwaFqC43xLxlRPPslJn0ZEu-8lB2zeL7i9hLWphTzMgjaEy8qZGLXicdIbL2u0SsOCVD8XKZLI83xUt4El3ZN-rcUbMWoaJpinQ9VRe-1PsdJE4puTsDkOyLSq8OHb57G8RquvCdO26mbrRt_Umza7JLM_ubnL_Xkz78XgsdJCmFHPr7VcsNRQ5JyHwimltGiObGJavICGFbthxxaZGZ-__12n-VF_N9e8aM9f6rum3zG3mKoB4HBcYBCthJ7tnROQzqaDmsHdRth16c6NDzyrddDDCEvmI9OFS8_Tm0GeCFXJ0y1YhtAc0JYrAwADq3r_N3xoPPz0JYRg4grnVg3ngRC3ZQf8gs8q24iBQMgMPKL7c-AJaoXQSrhaK6bvR5ctTBysqZsJF9TnCr59_XXeCHgHoRnfqHKe81eT18EpA3xygB5n49ph_9atxFmA1H9qU4HQwk9FU1XWuPWz-dbslKG-afinOrLTomnPqv2zktEfr25UgJhnIvnP2uZpdBmATUArMmU5N1LMeYcdKvlGV]--></g></svg>