<svg xmlns="http://www.w3.org/2000/svg" xmlns:xlink="http://www.w3.org/1999/xlink" contentStyleType="text/css" height="679px" preserveAspectRatio="none" style="width:1484px;height:679px;background:#FFFFFF;" version="1.1" viewBox="0 0 1484 679" width="1484px" zoomAndPan="magnify"><defs/><g><rect fill="#FFFFFF" height="30" style="stroke:#181818;stroke-width:1.0;" width="10" x="38.1797" y="439.9043"/><rect fill="#FFFFFF" height="30" style="stroke:#181818;stroke-width:1.0;" width="10" x="38.1797" y="543.4805"/><rect fill="#FFFFFF" height="29.3105" style="stroke:#181818;stroke-width:1.0;" width="10" x="1426.1123" y="184.4199"/><rect fill="none" height="209.5078" style="stroke:#000000;stroke-width:1.5;" width="774.0566" x="10" y="371.9727"/><line style="stroke:#181818;stroke-width:0.5;stroke-dasharray:5.0,5.0;" x1="43" x2="43" y1="81.4883" y2="598.4805"/><line style="stroke:#181818;stroke-width:0.5;stroke-dasharray:5.0,5.0;" x1="370.0215" x2="370.0215" y1="81.4883" y2="598.4805"/><line style="stroke:#181818;stroke-width:0.5;stroke-dasharray:5.0,5.0;" x1="633.3252" x2="633.3252" y1="81.4883" y2="598.4805"/><line style="stroke:#181818;stroke-width:0.5;stroke-dasharray:5.0,5.0;" x1="1100.8315" x2="1100.8315" y1="81.4883" y2="598.4805"/><line style="stroke:#181818;stroke-width:0.5;stroke-dasharray:5.0,5.0;" x1="1285.7749" x2="1285.7749" y1="81.4883" y2="598.4805"/><line style="stroke:#181818;stroke-width:0.5;stroke-dasharray:5.0,5.0;" x1="1430.6265" x2="1430.6265" y1="81.4883" y2="598.4805"/><text fill="#000000" font-family="sans-serif" font-size="14" lengthAdjust="spacing" textLength="40.3594" x="20" y="78.5352">Player</text><ellipse cx="43.1797" cy="13.5" fill="#E2E2F0" rx="8" ry="8" style="stroke:#181818;stroke-width:0.5;"/><path d="M43.1797,21.5 L43.1797,48.5 M30.1797,29.5 L56.1797,29.5 M43.1797,48.5 L30.1797,63.5 M43.1797,48.5 L56.1797,63.5 " fill="none" style="stroke:#181818;stroke-width:0.5;"/><text fill="#000000" font-family="sans-serif" font-size="14" lengthAdjust="spacing" textLength="40.3594" x="20" y="611.0156">Player</text><ellipse cx="43.1797" cy="622.4688" fill="#E2E2F0" rx="8" ry="8" style="stroke:#181818;stroke-width:0.5;"/><path d="M43.1797,630.4688 L43.1797,657.4688 M30.1797,638.4688 L56.1797,638.4688 M43.1797,657.4688 L30.1797,672.4688 M43.1797,657.4688 L56.1797,672.4688 " fill="none" style="stroke:#181818;stroke-width:0.5;"/><rect fill="#E2E2F0" height="30.4883" rx="2.5" ry="2.5" style="stroke:#181818;stroke-width:0.5;" width="226.3037" x="257.0215" y="50"/><text fill="#000000" font-family="sans-serif" font-size="14" lengthAdjust="spacing" textLength="212.3037" x="264.0215" y="70.5352">:ConnectivityBetweenStationsUI</text><rect fill="#E2E2F0" height="30.4883" rx="2.5" ry="2.5" style="stroke:#181818;stroke-width:0.5;" width="226.3037" x="257.0215" y="597.4805"/><text fill="#000000" font-family="sans-serif" font-size="14" lengthAdjust="spacing" textLength="212.3037" x="264.0215" y="618.0156">:ConnectivityBetweenStationsUI</text><rect fill="#E2E2F0" height="30.4883" rx="2.5" ry="2.5" style="stroke:#181818;stroke-width:0.5;" width="280.7314" x="493.3252" y="50"/><text fill="#000000" font-family="sans-serif" font-size="14" lengthAdjust="spacing" textLength="266.7314" x="500.3252" y="70.5352">:ConnectivityBetweenStationsController</text><rect fill="#E2E2F0" height="30.4883" rx="2.5" ry="2.5" style="stroke:#181818;stroke-width:0.5;" width="280.7314" x="493.3252" y="597.4805"/><text fill="#000000" font-family="sans-serif" font-size="14" lengthAdjust="spacing" textLength="266.7314" x="500.3252" y="618.0156">:ConnectivityBetweenStationsController</text><rect fill="#E2E2F0" height="46.9766" rx="2.5" ry="2.5" style="stroke:#181818;stroke-width:0.5;" width="175.9434" x="1013.8315" y="33.5117"/><text fill="#000000" font-family="sans-serif" font-size="14" lengthAdjust="spacing" textLength="116.4229" x="1043.5918" y="54.0469">Adjacency Matrix</text><text fill="#000000" font-family="sans-serif" font-size="14" lengthAdjust="spacing" textLength="161.9434" x="1020.8315" y="70.5352">:ViewAdjacencyMatrixUI</text><rect fill="#E2E2F0" height="46.9766" rx="2.5" ry="2.5" style="stroke:#181818;stroke-width:0.5;" width="175.9434" x="1013.8315" y="597.4805"/><text fill="#000000" font-family="sans-serif" font-size="14" lengthAdjust="spacing" textLength="116.4229" x="1043.5918" y="618.0156">Adjacency Matrix</text><text fill="#000000" font-family="sans-serif" font-size="14" lengthAdjust="spacing" textLength="161.9434" x="1020.8315" y="634.5039">:ViewAdjacencyMatrixUI</text><rect fill="#E2E2F0" height="46.9766" rx="2.5" ry="2.5" style="stroke:#181818;stroke-width:0.5;" width="173.8516" x="1199.7749" y="33.5117"/><text fill="#000000" font-family="sans-serif" font-size="14" lengthAdjust="spacing" textLength="114.3311" x="1229.5352" y="54.0469">Transitive Matrix</text><text fill="#000000" font-family="sans-serif" font-size="14" lengthAdjust="spacing" textLength="159.8516" x="1206.7749" y="70.5352">:ViewTransitiveMatrixUI</text><rect fill="#E2E2F0" height="46.9766" rx="2.5" ry="2.5" style="stroke:#181818;stroke-width:0.5;" width="173.8516" x="1199.7749" y="597.4805"/><text fill="#000000" font-family="sans-serif" font-size="14" lengthAdjust="spacing" textLength="114.3311" x="1229.5352" y="618.0156">Transitive Matrix</text><text fill="#000000" font-family="sans-serif" font-size="14" lengthAdjust="spacing" textLength="159.8516" x="1206.7749" y="634.5039">:ViewTransitiveMatrixUI</text><rect fill="#E2E2F0" height="30.4883" rx="2.5" ry="2.5" style="stroke:#181818;stroke-width:0.5;" width="94.9717" x="1383.6265" y="50"/><text fill="#000000" font-family="sans-serif" font-size="14" lengthAdjust="spacing" textLength="80.9717" x="1390.6265" y="70.5352">Utils_MDISC</text><rect fill="#E2E2F0" height="30.4883" rx="2.5" ry="2.5" style="stroke:#181818;stroke-width:0.5;" width="94.9717" x="1383.6265" y="597.4805"/><text fill="#000000" font-family="sans-serif" font-size="14" lengthAdjust="spacing" textLength="80.9717" x="1390.6265" y="618.0156">Utils_MDISC</text><rect fill="#FFFFFF" height="30" style="stroke:#181818;stroke-width:1.0;" width="10" x="38.1797" y="439.9043"/><rect fill="#FFFFFF" height="30" style="stroke:#181818;stroke-width:1.0;" width="10" x="38.1797" y="543.4805"/><rect fill="#FFFFFF" height="29.3105" style="stroke:#181818;stroke-width:1.0;" width="10" x="1426.1123" y="184.4199"/><polygon fill="#181818" points="621.6909,108.7988,631.6909,112.7988,621.6909,116.7988,625.6909,112.7988" style="stroke:#181818;stroke-width:1.0;"/><line style="stroke:#181818;stroke-width:1.0;" x1="370.1733" x2="627.6909" y1="112.7988" y2="112.7988"/><text fill="#000000" font-family="sans-serif" font-size="13" font-weight="bold" lengthAdjust="spacing" textLength="8.5757" x="377.1733" y="108.0566">1</text><text fill="#000000" font-family="sans-serif" font-size="13" lengthAdjust="spacing" textLength="197.1709" x="389.749" y="108.0566">Filter railway lines by train type</text><line style="stroke:#181818;stroke-width:1.0;" x1="633.6909" x2="675.6909" y1="142.1094" y2="142.1094"/><line style="stroke:#181818;stroke-width:1.0;" x1="675.6909" x2="675.6909" y1="142.1094" y2="155.1094"/><line style="stroke:#181818;stroke-width:1.0;" x1="634.6909" x2="675.6909" y1="155.1094" y2="155.1094"/><polygon fill="#181818" points="644.6909,151.1094,634.6909,155.1094,644.6909,159.1094,640.6909,155.1094" style="stroke:#181818;stroke-width:1.0;"/><text fill="#000000" font-family="sans-serif" font-size="13" font-weight="bold" lengthAdjust="spacing" textLength="8.5757" x="640.6909" y="137.3672">2</text><text fill="#000000" font-family="sans-serif" font-size="13" lengthAdjust="spacing" textLength="265.8462" x="653.2666" y="137.3672">Filter railway lines (filterRailwayLinesType)</text><polygon fill="#181818" points="1414.1123,180.4199,1424.1123,184.4199,1414.1123,188.4199,1418.1123,184.4199" style="stroke:#181818;stroke-width:1.0;"/><line style="stroke:#181818;stroke-width:1.0;" x1="633.6909" x2="1420.1123" y1="184.4199" y2="184.4199"/><text fill="#000000" font-family="sans-serif" font-size="13" font-weight="bold" lengthAdjust="spacing" textLength="8.5757" x="640.6909" y="179.6777">3</text><text fill="#000000" font-family="sans-serif" font-size="13" lengthAdjust="spacing" textLength="305.7349" x="653.2666" y="179.6777">buildAdjacencyMatrix(stationList, availableLines)</text><polygon fill="#181818" points="644.6909,209.7305,634.6909,213.7305,644.6909,217.7305,640.6909,213.7305" style="stroke:#181818;stroke-width:1.0;"/><line style="stroke:#181818;stroke-width:1.0;stroke-dasharray:2.0,2.0;" x1="638.6909" x2="1430.1123" y1="213.7305" y2="213.7305"/><text fill="#000000" font-family="sans-serif" font-size="13" font-weight="bold" lengthAdjust="spacing" textLength="8.5757" x="650.6909" y="208.9883">4</text><text fill="#000000" font-family="sans-serif" font-size="13" lengthAdjust="spacing" textLength="102.2036" x="663.2666" y="208.9883">adjacencyMatrix</text><polygon fill="#181818" points="1089.8032,239.041,1099.8032,243.041,1089.8032,247.041,1093.8032,243.041" style="stroke:#181818;stroke-width:1.0;"/><line style="stroke:#181818;stroke-width:1.0;" x1="633.6909" x2="1095.8032" y1="243.041" y2="243.041"/><text fill="#000000" font-family="sans-serif" font-size="13" font-weight="bold" lengthAdjust="spacing" textLength="8.5757" x="640.6909" y="238.2988">5</text><text fill="#000000" font-family="sans-serif" font-size="13" lengthAdjust="spacing" textLength="157.4028" x="653.2666" y="238.2988">Display adjacency matrix</text><line style="stroke:#181818;stroke-width:1.0;" x1="633.6909" x2="675.6909" y1="272.3516" y2="272.3516"/><line style="stroke:#181818;stroke-width:1.0;" x1="675.6909" x2="675.6909" y1="272.3516" y2="285.3516"/><line style="stroke:#181818;stroke-width:1.0;" x1="634.6909" x2="675.6909" y1="285.3516" y2="285.3516"/><polygon fill="#181818" points="644.6909,281.3516,634.6909,285.3516,644.6909,289.3516,640.6909,285.3516" style="stroke:#181818;stroke-width:1.0;"/><text fill="#000000" font-family="sans-serif" font-size="13" font-weight="bold" lengthAdjust="spacing" textLength="8.5757" x="640.6909" y="267.6094">6</text><text fill="#000000" font-family="sans-serif" font-size="13" lengthAdjust="spacing" textLength="398.1567" x="653.2666" y="267.6094">Calculate transitive closure matrix (getTransitiveClosureMatrix)</text><polygon fill="#181818" points="1274.7007,310.6621,1284.7007,314.6621,1274.7007,318.6621,1278.7007,314.6621" style="stroke:#181818;stroke-width:1.0;"/><line style="stroke:#181818;stroke-width:1.0;" x1="633.6909" x2="1280.7007" y1="314.6621" y2="314.6621"/><text fill="#000000" font-family="sans-serif" font-size="13" font-weight="bold" lengthAdjust="spacing" textLength="8.5757" x="640.6909" y="309.9199">7</text><text fill="#000000" font-family="sans-serif" font-size="13" lengthAdjust="spacing" textLength="203.6646" x="653.2666" y="309.9199">Display transitive closure matrix</text><line style="stroke:#181818;stroke-width:1.0;" x1="633.6909" x2="675.6909" y1="343.9727" y2="343.9727"/><line style="stroke:#181818;stroke-width:1.0;" x1="675.6909" x2="675.6909" y1="343.9727" y2="356.9727"/><line style="stroke:#181818;stroke-width:1.0;" x1="634.6909" x2="675.6909" y1="356.9727" y2="356.9727"/><polygon fill="#181818" points="644.6909,352.9727,634.6909,356.9727,644.6909,360.9727,640.6909,356.9727" style="stroke:#181818;stroke-width:1.0;"/><text fill="#000000" font-family="sans-serif" font-size="13" font-weight="bold" lengthAdjust="spacing" textLength="8.5757" x="640.6909" y="339.2305">8</text><text fill="#000000" font-family="sans-serif" font-size="13" lengthAdjust="spacing" textLength="441.5366" x="653.2666" y="339.2305">Verify transitive connectivity between stations (isConnectedTransitive)</text><path d="M10,371.9727 L72.1387,371.9727 L72.1387,379.2832 L62.1387,389.2832 L10,389.2832 L10,371.9727 " fill="#EEEEEE" style="stroke:#000000;stroke-width:1.5;"/><rect fill="none" height="209.5078" style="stroke:#000000;stroke-width:1.5;" width="774.0566" x="10" y="371.9727"/><text fill="#000000" font-family="sans-serif" font-size="13" font-weight="bold" lengthAdjust="spacing" textLength="17.1387" x="25" y="385.541">alt</text><text fill="#000000" font-family="sans-serif" font-size="11" font-weight="bold" lengthAdjust="spacing" textLength="115.312" x="87.1387" y="384.6074">[Stations connected]</text><polygon fill="#181818" points="381.1733,406.5938,371.1733,410.5938,381.1733,414.5938,377.1733,410.5938" style="stroke:#181818;stroke-width:1.0;"/><line style="stroke:#181818;stroke-width:1.0;stroke-dasharray:2.0,2.0;" x1="375.1733" x2="632.6909" y1="410.5938" y2="410.5938"/><text fill="#000000" font-family="sans-serif" font-size="13" font-weight="bold" lengthAdjust="spacing" textLength="8.5757" x="387.1733" y="405.8516">9</text><text fill="#000000" font-family="sans-serif" font-size="13" lengthAdjust="spacing" textLength="143.2793" x="399.749" y="405.8516">Stations are connected</text><polygon fill="#181818" points="59.1797,435.9043,49.1797,439.9043,59.1797,443.9043,55.1797,439.9043" style="stroke:#181818;stroke-width:1.0;"/><line style="stroke:#181818;stroke-width:1.0;stroke-dasharray:2.0,2.0;" x1="53.1797" x2="369.1733" y1="439.9043" y2="439.9043"/><text fill="#000000" font-family="sans-serif" font-size="13" font-weight="bold" lengthAdjust="spacing" textLength="17.1514" x="65.1797" y="435.1621">10</text><text fill="#000000" font-family="sans-serif" font-size="13" lengthAdjust="spacing" textLength="256.8135" x="86.3311" y="435.1621">Display message: Stations are connected</text><line style="stroke:#000000;stroke-width:1.0;stroke-dasharray:2.0,2.0;" x1="10" x2="784.0566" y1="478.9043" y2="478.9043"/><text fill="#000000" font-family="sans-serif" font-size="11" font-weight="bold" lengthAdjust="spacing" textLength="137.645" x="15" y="489.5391">[Stations not connected]</text><polygon fill="#181818" points="381.1733,510.1699,371.1733,514.1699,381.1733,518.1699,377.1733,514.1699" style="stroke:#181818;stroke-width:1.0;"/><line style="stroke:#181818;stroke-width:1.0;stroke-dasharray:2.0,2.0;" x1="375.1733" x2="632.6909" y1="514.1699" y2="514.1699"/><text fill="#000000" font-family="sans-serif" font-size="13" font-weight="bold" lengthAdjust="spacing" textLength="17.1514" x="387.1733" y="509.4277">11</text><text fill="#000000" font-family="sans-serif" font-size="13" lengthAdjust="spacing" textLength="168.3081" x="408.3247" y="509.4277">Stations are not connected</text><polygon fill="#181818" points="59.1797,539.4805,49.1797,543.4805,59.1797,547.4805,55.1797,543.4805" style="stroke:#181818;stroke-width:1.0;"/><line style="stroke:#181818;stroke-width:1.0;stroke-dasharray:2.0,2.0;" x1="53.1797" x2="369.1733" y1="543.4805" y2="543.4805"/><text fill="#000000" font-family="sans-serif" font-size="13" font-weight="bold" lengthAdjust="spacing" textLength="17.1514" x="65.1797" y="538.7383">12</text><text fill="#000000" font-family="sans-serif" font-size="13" lengthAdjust="spacing" textLength="281.8423" x="86.3311" y="538.7383">Display message: Stations are not connected</text><!--SRC=[bLJ1Zjem4BtxAqQSMAdx0nnMea6LKi6g8c7LGoKqIGRMNMD7zWIQlwyJXuHajLlAANgUz-PvtXZt9dM95azGOlw6HqguLWIMSaPzL2HSN-1UiJ0NgOzmGELkJvJKn7L9O2o_6e4L6rsTCh92OCx6mko7mfhi3D11-1IUoJAN9Mg6sI8oMlkMyYov_afy8T898qkZtIvkQRluVee_OckKwZf6wNOz9Y-BtvYJpclO85lvvvTUl4Ywz710kyxBrVVzPfbkuv_xgOdKedRIUw2nq82FbDBjyZdvI6l7KhdzPXKdKRXm6gyJ8NOnF3wrLu05V9EAoO95gIvOjtDtaDN07j7GH23QodymveSMtGPmtM2fvpxqvBQtPsULLCLaAdCNfhoMZhy0dhq8PefQbOScRtb6fiv-47eS_E1OJ1GqOLmjZARkYIlfIhyvWm2SWiBamX6gl5AD7W_XvCguob97WVcHU8We2eV1q323ILWt5ZuKddfv8IiFu_gRfOKiR2rq0_MvIDTjDHM3FpzKnN3TxQi45GByBtHi8ciSzaLeQLBOx94l2w_lvZ8dSiu_-q-vVKJTsssmc-0wbFoVmg2Y3TzlzNtn_zbzpx_JiYx-0W00]--></g></svg>