<svg xmlns="http://www.w3.org/2000/svg" xmlns:xlink="http://www.w3.org/1999/xlink" contentStyleType="text/css" height="1483px" preserveAspectRatio="none" style="width:1999px;height:1483px;background:#FFFFFF;" version="1.1" viewBox="0 0 1999 1483" width="1999px" zoomAndPan="magnify"><defs/><g><rect fill="#FFFFFF" height="1301.0449" style="stroke:#181818;stroke-width:1.0;" width="10" x="58.1797" y="91.4883"/><rect fill="#FFFFFF" height="29.3105" style="stroke:#181818;stroke-width:1.0;" width="10" x="63.1797" y="220.041"/><rect fill="#FFFFFF" height="30" style="stroke:#181818;stroke-width:1.0;" width="10" x="63.1797" y="332.2832"/><rect fill="#FFFFFF" height="29.3105" style="stroke:#181818;stroke-width:1.0;" width="10" x="63.1797" y="577.1016"/><rect fill="#FFFFFF" height="30" style="stroke:#181818;stroke-width:1.0;" width="10" x="63.1797" y="689.3438"/><rect fill="#FFFFFF" height="30" style="stroke:#181818;stroke-width:1.0;" width="10" x="63.1797" y="1236.957"/><rect fill="#FFFFFF" height="30" style="stroke:#181818;stroke-width:1.0;" width="10" x="63.1797" y="1340.5332"/><rect fill="#FFFFFF" height="1279.7344" style="stroke:#181818;stroke-width:1.0;" width="10" x="395.1733" y="112.7988"/><rect fill="#FFFFFF" height="1250.4238" style="stroke:#181818;stroke-width:1.0;" width="10" x="866.9233" y="142.1094"/><rect fill="#FFFFFF" height="29.3105" style="stroke:#181818;stroke-width:1.0;" width="10" x="1930.5869" y="981.4727"/><rect fill="none" height="343.0605" style="stroke:#000000;stroke-width:1.5;" width="1108.1313" x="10" y="157.1094"/><rect fill="none" height="311.75" style="stroke:#000000;stroke-width:1.5;" width="1088.1313" x="20" y="181.4199"/><rect fill="none" height="192.5078" style="stroke:#000000;stroke-width:1.5;" width="1068.1313" x="30" y="293.6621"/><rect fill="none" height="343.0605" style="stroke:#000000;stroke-width:1.5;" width="1150.3052" x="10" y="514.1699"/><rect fill="none" height="311.75" style="stroke:#000000;stroke-width:1.5;" width="1130.3052" x="20" y="538.4805"/><rect fill="none" height="192.5078" style="stroke:#000000;stroke-width:1.5;" width="1110.3052" x="30" y="650.7227"/><rect fill="none" height="514.3027" style="stroke:#000000;stroke-width:1.5;" width="1973.0728" x="20" y="871.2305"/><rect fill="none" height="209.5078" style="stroke:#000000;stroke-width:1.5;" width="992.2891" x="30" y="1169.0254"/><line style="stroke:#181818;stroke-width:0.5;stroke-dasharray:5.0,5.0;" x1="63" x2="63" y1="81.4883" y2="1402.5332"/><line style="stroke:#181818;stroke-width:0.5;stroke-dasharray:5.0,5.0;" x1="400.0215" x2="400.0215" y1="81.4883" y2="1402.5332"/><line style="stroke:#181818;stroke-width:0.5;stroke-dasharray:5.0,5.0;" x1="871.5576" x2="871.5576" y1="81.4883" y2="1402.5332"/><line style="stroke:#181818;stroke-width:0.5;stroke-dasharray:5.0,5.0;" x1="1367.8569" x2="1367.8569" y1="81.4883" y2="1402.5332"/><line style="stroke:#181818;stroke-width:0.5;stroke-dasharray:5.0,5.0;" x1="1459.3657" x2="1459.3657" y1="81.4883" y2="1402.5332"/><line style="stroke:#181818;stroke-width:0.5;stroke-dasharray:5.0,5.0;" x1="1605.3062" x2="1605.3062" y1="81.4883" y2="1402.5332"/><line style="stroke:#181818;stroke-width:0.5;stroke-dasharray:5.0,5.0;" x1="1790.2495" x2="1790.2495" y1="81.4883" y2="1402.5332"/><line style="stroke:#181818;stroke-width:0.5;stroke-dasharray:5.0,5.0;" x1="1935.1011" x2="1935.1011" y1="81.4883" y2="1402.5332"/><text fill="#000000" font-family="sans-serif" font-size="14" lengthAdjust="spacing" textLength="40.3594" x="40" y="78.5352">Player</text><ellipse cx="63.1797" cy="13.5" fill="#E2E2F0" rx="8" ry="8" style="stroke:#181818;stroke-width:0.5;"/><path d="M63.1797,21.5 L63.1797,48.5 M50.1797,29.5 L76.1797,29.5 M63.1797,48.5 L50.1797,63.5 M63.1797,48.5 L76.1797,63.5 " fill="none" style="stroke:#181818;stroke-width:0.5;"/><text fill="#000000" font-family="sans-serif" font-size="14" lengthAdjust="spacing" textLength="40.3594" x="40" y="1415.0684">Player</text><ellipse cx="63.1797" cy="1426.5215" fill="#E2E2F0" rx="8" ry="8" style="stroke:#181818;stroke-width:0.5;"/><path d="M63.1797,1434.5215 L63.1797,1461.5215 M50.1797,1442.5215 L76.1797,1442.5215 M63.1797,1461.5215 L50.1797,1476.5215 M63.1797,1461.5215 L76.1797,1476.5215 " fill="none" style="stroke:#181818;stroke-width:0.5;"/><rect fill="#E2E2F0" height="30.4883" rx="2.5" ry="2.5" style="stroke:#181818;stroke-width:0.5;" width="226.3037" x="287.0215" y="50"/><text fill="#000000" font-family="sans-serif" font-size="14" lengthAdjust="spacing" textLength="212.3037" x="294.0215" y="70.5352">:ConnectivityBetweenStationsUI</text><rect fill="#E2E2F0" height="30.4883" rx="2.5" ry="2.5" style="stroke:#181818;stroke-width:0.5;" width="226.3037" x="287.0215" y="1401.5332"/><text fill="#000000" font-family="sans-serif" font-size="14" lengthAdjust="spacing" textLength="212.3037" x="294.0215" y="1422.0684">:ConnectivityBetweenStationsUI</text><rect fill="#E2E2F0" height="30.4883" rx="2.5" ry="2.5" style="stroke:#181818;stroke-width:0.5;" width="280.7314" x="731.5576" y="50"/><text fill="#000000" font-family="sans-serif" font-size="14" lengthAdjust="spacing" textLength="266.7314" x="738.5576" y="70.5352">:ConnectivityBetweenStationsController</text><rect fill="#E2E2F0" height="30.4883" rx="2.5" ry="2.5" style="stroke:#181818;stroke-width:0.5;" width="280.7314" x="731.5576" y="1401.5332"/><text fill="#000000" font-family="sans-serif" font-size="14" lengthAdjust="spacing" textLength="266.7314" x="738.5576" y="1422.0684">:ConnectivityBetweenStationsController</text><rect fill="#E2E2F0" height="46.9766" rx="2.5" ry="2.5" style="stroke:#181818;stroke-width:0.5;" width="65.5088" x="1335.8569" y="33.5117"/><text fill="#000000" font-family="sans-serif" font-size="14" lengthAdjust="spacing" textLength="47.0791" x="1345.0718" y="54.0469">Station</text><text fill="#000000" font-family="sans-serif" font-size="14" lengthAdjust="spacing" textLength="51.5088" x="1342.8569" y="70.5352">:Station</text><rect fill="#E2E2F0" height="46.9766" rx="2.5" ry="2.5" style="stroke:#181818;stroke-width:0.5;" width="65.5088" x="1335.8569" y="1401.5332"/><text fill="#000000" font-family="sans-serif" font-size="14" lengthAdjust="spacing" textLength="47.0791" x="1345.0718" y="1422.0684">Station</text><text fill="#000000" font-family="sans-serif" font-size="14" lengthAdjust="spacing" textLength="51.5088" x="1342.8569" y="1438.5566">:Station</text><rect fill="#E2E2F0" height="46.9766" rx="2.5" ry="2.5" style="stroke:#181818;stroke-width:0.5;" width="96.9404" x="1411.3657" y="33.5117"/><text fill="#000000" font-family="sans-serif" font-size="14" lengthAdjust="spacing" textLength="82.9404" x="1418.3657" y="54.0469">Railway Line</text><text fill="#000000" font-family="sans-serif" font-size="14" lengthAdjust="spacing" textLength="82.9404" x="1418.3657" y="70.5352">:RailwayLine</text><rect fill="#E2E2F0" height="46.9766" rx="2.5" ry="2.5" style="stroke:#181818;stroke-width:0.5;" width="96.9404" x="1411.3657" y="1401.5332"/><text fill="#000000" font-family="sans-serif" font-size="14" lengthAdjust="spacing" textLength="82.9404" x="1418.3657" y="1422.0684">Railway Line</text><text fill="#000000" font-family="sans-serif" font-size="14" lengthAdjust="spacing" textLength="82.9404" x="1418.3657" y="1438.5566">:RailwayLine</text><rect fill="#E2E2F0" height="46.9766" rx="2.5" ry="2.5" style="stroke:#181818;stroke-width:0.5;" width="175.9434" x="1518.3062" y="33.5117"/><text fill="#000000" font-family="sans-serif" font-size="14" lengthAdjust="spacing" textLength="116.4229" x="1548.0664" y="54.0469">Adjacency Matrix</text><text fill="#000000" font-family="sans-serif" font-size="14" lengthAdjust="spacing" textLength="161.9434" x="1525.3062" y="70.5352">:ViewAdjacencyMatrixUI</text><rect fill="#E2E2F0" height="46.9766" rx="2.5" ry="2.5" style="stroke:#181818;stroke-width:0.5;" width="175.9434" x="1518.3062" y="1401.5332"/><text fill="#000000" font-family="sans-serif" font-size="14" lengthAdjust="spacing" textLength="116.4229" x="1548.0664" y="1422.0684">Adjacency Matrix</text><text fill="#000000" font-family="sans-serif" font-size="14" lengthAdjust="spacing" textLength="161.9434" x="1525.3062" y="1438.5566">:ViewAdjacencyMatrixUI</text><rect fill="#E2E2F0" height="46.9766" rx="2.5" ry="2.5" style="stroke:#181818;stroke-width:0.5;" width="173.8516" x="1704.2495" y="33.5117"/><text fill="#000000" font-family="sans-serif" font-size="14" lengthAdjust="spacing" textLength="114.3311" x="1734.0098" y="54.0469">Transitive Matrix</text><text fill="#000000" font-family="sans-serif" font-size="14" lengthAdjust="spacing" textLength="159.8516" x="1711.2495" y="70.5352">:ViewTransitiveMatrixUI</text><rect fill="#E2E2F0" height="46.9766" rx="2.5" ry="2.5" style="stroke:#181818;stroke-width:0.5;" width="173.8516" x="1704.2495" y="1401.5332"/><text fill="#000000" font-family="sans-serif" font-size="14" lengthAdjust="spacing" textLength="114.3311" x="1734.0098" y="1422.0684">Transitive Matrix</text><text fill="#000000" font-family="sans-serif" font-size="14" lengthAdjust="spacing" textLength="159.8516" x="1711.2495" y="1438.5566">:ViewTransitiveMatrixUI</text><rect fill="#E2E2F0" height="30.4883" rx="2.5" ry="2.5" style="stroke:#181818;stroke-width:0.5;" width="94.9717" x="1888.1011" y="50"/><text fill="#000000" font-family="sans-serif" font-size="14" lengthAdjust="spacing" textLength="80.9717" x="1895.1011" y="70.5352">Utils_MDISC</text><rect fill="#E2E2F0" height="30.4883" rx="2.5" ry="2.5" style="stroke:#181818;stroke-width:0.5;" width="94.9717" x="1888.1011" y="1401.5332"/><text fill="#000000" font-family="sans-serif" font-size="14" lengthAdjust="spacing" textLength="80.9717" x="1895.1011" y="1422.0684">Utils_MDISC</text><rect fill="#FFFFFF" height="1301.0449" style="stroke:#181818;stroke-width:1.0;" width="10" x="58.1797" y="91.4883"/><rect fill="#FFFFFF" height="29.3105" style="stroke:#181818;stroke-width:1.0;" width="10" x="63.1797" y="220.041"/><rect fill="#FFFFFF" height="30" style="stroke:#181818;stroke-width:1.0;" width="10" x="63.1797" y="332.2832"/><rect fill="#FFFFFF" height="29.3105" style="stroke:#181818;stroke-width:1.0;" width="10" x="63.1797" y="577.1016"/><rect fill="#FFFFFF" height="30" style="stroke:#181818;stroke-width:1.0;" width="10" x="63.1797" y="689.3438"/><rect fill="#FFFFFF" height="30" style="stroke:#181818;stroke-width:1.0;" width="10" x="63.1797" y="1236.957"/><rect fill="#FFFFFF" height="30" style="stroke:#181818;stroke-width:1.0;" width="10" x="63.1797" y="1340.5332"/><rect fill="#FFFFFF" height="1279.7344" style="stroke:#181818;stroke-width:1.0;" width="10" x="395.1733" y="112.7988"/><rect fill="#FFFFFF" height="1250.4238" style="stroke:#181818;stroke-width:1.0;" width="10" x="866.9233" y="142.1094"/><rect fill="#FFFFFF" height="29.3105" style="stroke:#181818;stroke-width:1.0;" width="10" x="1930.5869" y="981.4727"/><polygon fill="#181818" points="383.1733,108.7988,393.1733,112.7988,383.1733,116.7988,387.1733,112.7988" style="stroke:#181818;stroke-width:1.0;"/><line style="stroke:#181818;stroke-width:1.0;" x1="68.1797" x2="389.1733" y1="112.7988" y2="112.7988"/><text fill="#000000" font-family="sans-serif" font-size="13" font-weight="bold" lengthAdjust="spacing" textLength="8.5757" x="75.1797" y="108.0566">1</text><text fill="#000000" font-family="sans-serif" font-size="13" lengthAdjust="spacing" textLength="162.8809" x="87.7554" y="108.0566">Start connectivity analysis</text><polygon fill="#181818" points="854.9233,138.1094,864.9233,142.1094,854.9233,146.1094,858.9233,142.1094" style="stroke:#181818;stroke-width:1.0;"/><line style="stroke:#181818;stroke-width:1.0;" x1="405.1733" x2="860.9233" y1="142.1094" y2="142.1094"/><text fill="#000000" font-family="sans-serif" font-size="13" font-weight="bold" lengthAdjust="spacing" textLength="8.5757" x="412.1733" y="137.3672">2</text><text fill="#000000" font-family="sans-serif" font-size="13" lengthAdjust="spacing" textLength="430.1743" x="424.749" y="137.3672">new ConnectivityBetweenStationsController(stations, lines, scenario)</text><path d="M10,157.1094 L230.9507,157.1094 L230.9507,164.4199 L220.9507,174.4199 L10,174.4199 L10,157.1094 " fill="#EEEEEE" style="stroke:#000000;stroke-width:1.5;"/><rect fill="none" height="343.0605" style="stroke:#000000;stroke-width:1.5;" width="1108.1313" x="10" y="157.1094"/><text fill="#000000" font-family="sans-serif" font-size="13" font-weight="bold" lengthAdjust="spacing" textLength="175.9507" x="25" y="170.6777">Station Selection - ORIGIN</text><path d="M20,181.4199 L94.4468,181.4199 L94.4468,188.7305 L84.4468,198.7305 L20,198.7305 L20,181.4199 " fill="#EEEEEE" style="stroke:#000000;stroke-width:1.5;"/><rect fill="none" height="311.75" style="stroke:#000000;stroke-width:1.5;" width="1088.1313" x="20" y="181.4199"/><text fill="#000000" font-family="sans-serif" font-size="13" font-weight="bold" lengthAdjust="spacing" textLength="29.4468" x="35" y="194.9883">loop</text><text fill="#000000" font-family="sans-serif" font-size="11" font-weight="bold" lengthAdjust="spacing" textLength="195.9751" x="109.4468" y="194.0547">[until valid origin station selected]</text><polygon fill="#181818" points="84.1797,216.041,74.1797,220.041,84.1797,224.041,80.1797,220.041" style="stroke:#181818;stroke-width:1.0;"/><line style="stroke:#181818;stroke-width:1.0;stroke-dasharray:2.0,2.0;" x1="78.1797" x2="394.1733" y1="220.041" y2="220.041"/><text fill="#000000" font-family="sans-serif" font-size="13" font-weight="bold" lengthAdjust="spacing" textLength="8.5757" x="90.1797" y="215.2988">3</text><text fill="#000000" font-family="sans-serif" font-size="13" lengthAdjust="spacing" textLength="176.0586" x="102.7554" y="215.2988">Request origin station input</text><polygon fill="#181818" points="383.1733,245.3516,393.1733,249.3516,383.1733,253.3516,387.1733,249.3516" style="stroke:#181818;stroke-width:1.0;"/><line style="stroke:#181818;stroke-width:1.0;" x1="68.1797" x2="389.1733" y1="249.3516" y2="249.3516"/><text fill="#000000" font-family="sans-serif" font-size="13" font-weight="bold" lengthAdjust="spacing" textLength="8.5757" x="75.1797" y="244.6094">4</text><text fill="#000000" font-family="sans-serif" font-size="13" lengthAdjust="spacing" textLength="159.8403" x="87.7554" y="244.6094">Enter origin station name</text><polygon fill="#181818" points="854.9233,274.6621,864.9233,278.6621,854.9233,282.6621,858.9233,278.6621" style="stroke:#181818;stroke-width:1.0;"/><line style="stroke:#181818;stroke-width:1.0;" x1="405.1733" x2="860.9233" y1="278.6621" y2="278.6621"/><text fill="#000000" font-family="sans-serif" font-size="13" font-weight="bold" lengthAdjust="spacing" textLength="8.5757" x="412.1733" y="273.9199">5</text><text fill="#000000" font-family="sans-serif" font-size="13" lengthAdjust="spacing" textLength="177.9629" x="424.749" y="273.9199">Validate origin station name</text><path d="M30,293.6621 L92.1387,293.6621 L92.1387,300.9727 L82.1387,310.9727 L30,310.9727 L30,293.6621 " fill="#EEEEEE" style="stroke:#000000;stroke-width:1.5;"/><rect fill="none" height="192.5078" style="stroke:#000000;stroke-width:1.5;" width="1068.1313" x="30" y="293.6621"/><text fill="#000000" font-family="sans-serif" font-size="13" font-weight="bold" lengthAdjust="spacing" textLength="17.1387" x="45" y="307.2305">alt</text><text fill="#000000" font-family="sans-serif" font-size="11" font-weight="bold" lengthAdjust="spacing" textLength="126.8008" x="107.1387" y="306.2969">[Invalid origin station]</text><polygon fill="#181818" points="84.1797,328.2832,74.1797,332.2832,84.1797,336.2832,80.1797,332.2832" style="stroke:#181818;stroke-width:1.0;"/><line style="stroke:#181818;stroke-width:1.0;stroke-dasharray:2.0,2.0;" x1="78.1797" x2="394.1733" y1="332.2832" y2="332.2832"/><text fill="#000000" font-family="sans-serif" font-size="13" font-weight="bold" lengthAdjust="spacing" textLength="8.5757" x="90.1797" y="327.541">6</text><text fill="#000000" font-family="sans-serif" font-size="13" lengthAdjust="spacing" textLength="187.3638" x="102.7554" y="327.541">Error message: Invalid station</text><line style="stroke:#000000;stroke-width:1.0;stroke-dasharray:2.0,2.0;" x1="30" x2="1098.1313" y1="371.2832" y2="371.2832"/><text fill="#000000" font-family="sans-serif" font-size="11" font-weight="bold" lengthAdjust="spacing" textLength="117.0898" x="35" y="381.918">[Valid origin station]</text><polygon fill="#181818" points="854.9233,402.5488,864.9233,406.5488,854.9233,410.5488,858.9233,406.5488" style="stroke:#181818;stroke-width:1.0;"/><line style="stroke:#181818;stroke-width:1.0;" x1="405.1733" x2="860.9233" y1="406.5488" y2="406.5488"/><text fill="#000000" font-family="sans-serif" font-size="13" font-weight="bold" lengthAdjust="spacing" textLength="8.5757" x="412.1733" y="401.8066">7</text><text fill="#000000" font-family="sans-serif" font-size="13" lengthAdjust="spacing" textLength="116.7144" x="424.749" y="401.8066">Save origin station</text><line style="stroke:#181818;stroke-width:1.0;" x1="876.9233" x2="918.9233" y1="435.8594" y2="435.8594"/><line style="stroke:#181818;stroke-width:1.0;" x1="918.9233" x2="918.9233" y1="435.8594" y2="448.8594"/><line style="stroke:#181818;stroke-width:1.0;" x1="877.9233" x2="918.9233" y1="448.8594" y2="448.8594"/><polygon fill="#181818" points="887.9233,444.8594,877.9233,448.8594,887.9233,452.8594,883.9233,448.8594" style="stroke:#181818;stroke-width:1.0;"/><text fill="#000000" font-family="sans-serif" font-size="13" font-weight="bold" lengthAdjust="spacing" textLength="8.5757" x="883.9233" y="431.1172">8</text><text fill="#000000" font-family="sans-serif" font-size="13" lengthAdjust="spacing" textLength="179.6323" x="896.499" y="431.1172">Save origin station internally</text><polygon fill="#181818" points="416.1733,474.1699,406.1733,478.1699,416.1733,482.1699,412.1733,478.1699" style="stroke:#181818;stroke-width:1.0;"/><line style="stroke:#181818;stroke-width:1.0;stroke-dasharray:2.0,2.0;" x1="410.1733" x2="865.9233" y1="478.1699" y2="478.1699"/><text fill="#000000" font-family="sans-serif" font-size="13" font-weight="bold" lengthAdjust="spacing" textLength="8.5757" x="422.1733" y="473.4277">9</text><text fill="#000000" font-family="sans-serif" font-size="13" lengthAdjust="spacing" textLength="146.8848" x="434.749" y="473.4277">Origin station accepted</text><path d="M10,514.1699 L275.3335,514.1699 L275.3335,521.4805 L265.3335,531.4805 L10,531.4805 L10,514.1699 " fill="#EEEEEE" style="stroke:#000000;stroke-width:1.5;"/><rect fill="none" height="343.0605" style="stroke:#000000;stroke-width:1.5;" width="1150.3052" x="10" y="514.1699"/><text fill="#000000" font-family="sans-serif" font-size="13" font-weight="bold" lengthAdjust="spacing" textLength="220.3335" x="25" y="527.7383">Station Selection - DESTINATION</text><path d="M20,538.4805 L94.4468,538.4805 L94.4468,545.791 L84.4468,555.791 L20,555.791 L20,538.4805 " fill="#EEEEEE" style="stroke:#000000;stroke-width:1.5;"/><rect fill="none" height="311.75" style="stroke:#000000;stroke-width:1.5;" width="1130.3052" x="20" y="538.4805"/><text fill="#000000" font-family="sans-serif" font-size="13" font-weight="bold" lengthAdjust="spacing" textLength="29.4468" x="35" y="552.0488">loop</text><text fill="#000000" font-family="sans-serif" font-size="11" font-weight="bold" lengthAdjust="spacing" textLength="226.2788" x="109.4468" y="551.1152">[until valid destination station selected]</text><polygon fill="#181818" points="84.1797,573.1016,74.1797,577.1016,84.1797,581.1016,80.1797,577.1016" style="stroke:#181818;stroke-width:1.0;"/><line style="stroke:#181818;stroke-width:1.0;stroke-dasharray:2.0,2.0;" x1="78.1797" x2="394.1733" y1="577.1016" y2="577.1016"/><text fill="#000000" font-family="sans-serif" font-size="13" font-weight="bold" lengthAdjust="spacing" textLength="17.1514" x="90.1797" y="572.3594">10</text><text fill="#000000" font-family="sans-serif" font-size="13" lengthAdjust="spacing" textLength="209.6567" x="111.3311" y="572.3594">Request destination station input</text><polygon fill="#181818" points="383.1733,602.4121,393.1733,606.4121,383.1733,610.4121,387.1733,606.4121" style="stroke:#181818;stroke-width:1.0;"/><line style="stroke:#181818;stroke-width:1.0;" x1="68.1797" x2="389.1733" y1="606.4121" y2="606.4121"/><text fill="#000000" font-family="sans-serif" font-size="13" font-weight="bold" lengthAdjust="spacing" textLength="17.1514" x="75.1797" y="601.6699">11</text><text fill="#000000" font-family="sans-serif" font-size="13" lengthAdjust="spacing" textLength="193.4385" x="96.3311" y="601.6699">Enter destination station name</text><polygon fill="#181818" points="854.9233,631.7227,864.9233,635.7227,854.9233,639.7227,858.9233,635.7227" style="stroke:#181818;stroke-width:1.0;"/><line style="stroke:#181818;stroke-width:1.0;" x1="405.1733" x2="860.9233" y1="635.7227" y2="635.7227"/><text fill="#000000" font-family="sans-serif" font-size="13" font-weight="bold" lengthAdjust="spacing" textLength="17.1514" x="412.1733" y="630.9805">12</text><text fill="#000000" font-family="sans-serif" font-size="13" lengthAdjust="spacing" textLength="211.561" x="433.3247" y="630.9805">Validate destination station name</text><path d="M30,650.7227 L92.1387,650.7227 L92.1387,658.0332 L82.1387,668.0332 L30,668.0332 L30,650.7227 " fill="#EEEEEE" style="stroke:#000000;stroke-width:1.5;"/><rect fill="none" height="192.5078" style="stroke:#000000;stroke-width:1.5;" width="1110.3052" x="30" y="650.7227"/><text fill="#000000" font-family="sans-serif" font-size="13" font-weight="bold" lengthAdjust="spacing" textLength="17.1387" x="45" y="664.291">alt</text><text fill="#000000" font-family="sans-serif" font-size="11" font-weight="bold" lengthAdjust="spacing" textLength="157.1045" x="107.1387" y="663.3574">[Invalid destination station]</text><polygon fill="#181818" points="84.1797,685.3438,74.1797,689.3438,84.1797,693.3438,80.1797,689.3438" style="stroke:#181818;stroke-width:1.0;"/><line style="stroke:#181818;stroke-width:1.0;stroke-dasharray:2.0,2.0;" x1="78.1797" x2="394.1733" y1="689.3438" y2="689.3438"/><text fill="#000000" font-family="sans-serif" font-size="13" font-weight="bold" lengthAdjust="spacing" textLength="17.1514" x="90.1797" y="684.6016">13</text><text fill="#000000" font-family="sans-serif" font-size="13" lengthAdjust="spacing" textLength="187.3638" x="111.3311" y="684.6016">Error message: Invalid station</text><line style="stroke:#000000;stroke-width:1.0;stroke-dasharray:2.0,2.0;" x1="30" x2="1140.3052" y1="728.3438" y2="728.3438"/><text fill="#000000" font-family="sans-serif" font-size="11" font-weight="bold" lengthAdjust="spacing" textLength="147.3936" x="35" y="738.9785">[Valid destination station]</text><polygon fill="#181818" points="854.9233,759.6094,864.9233,763.6094,854.9233,767.6094,858.9233,763.6094" style="stroke:#181818;stroke-width:1.0;"/><line style="stroke:#181818;stroke-width:1.0;" x1="405.1733" x2="860.9233" y1="763.6094" y2="763.6094"/><text fill="#000000" font-family="sans-serif" font-size="13" font-weight="bold" lengthAdjust="spacing" textLength="17.1514" x="412.1733" y="758.8672">14</text><text fill="#000000" font-family="sans-serif" font-size="13" lengthAdjust="spacing" textLength="150.3125" x="433.3247" y="758.8672">Save destination station</text><line style="stroke:#181818;stroke-width:1.0;" x1="876.9233" x2="918.9233" y1="792.9199" y2="792.9199"/><line style="stroke:#181818;stroke-width:1.0;" x1="918.9233" x2="918.9233" y1="792.9199" y2="805.9199"/><line style="stroke:#181818;stroke-width:1.0;" x1="877.9233" x2="918.9233" y1="805.9199" y2="805.9199"/><polygon fill="#181818" points="887.9233,801.9199,877.9233,805.9199,887.9233,809.9199,883.9233,805.9199" style="stroke:#181818;stroke-width:1.0;"/><text fill="#000000" font-family="sans-serif" font-size="13" font-weight="bold" lengthAdjust="spacing" textLength="17.1514" x="883.9233" y="788.1777">15</text><text fill="#000000" font-family="sans-serif" font-size="13" lengthAdjust="spacing" textLength="213.2305" x="905.0747" y="788.1777">Save destination station internally</text><polygon fill="#181818" points="416.1733,831.2305,406.1733,835.2305,416.1733,839.2305,412.1733,835.2305" style="stroke:#181818;stroke-width:1.0;"/><line style="stroke:#181818;stroke-width:1.0;stroke-dasharray:2.0,2.0;" x1="410.1733" x2="865.9233" y1="835.2305" y2="835.2305"/><text fill="#000000" font-family="sans-serif" font-size="13" font-weight="bold" lengthAdjust="spacing" textLength="17.1514" x="422.1733" y="830.4883">16</text><text fill="#000000" font-family="sans-serif" font-size="13" lengthAdjust="spacing" textLength="179.9243" x="443.3247" y="830.4883">Destination station accepted</text><path d="M20,871.2305 L230.0962,871.2305 L230.0962,878.541 L220.0962,888.541 L20,888.541 L20,871.2305 " fill="#EEEEEE" style="stroke:#000000;stroke-width:1.5;"/><rect fill="none" height="514.3027" style="stroke:#000000;stroke-width:1.5;" width="1973.0728" x="20" y="871.2305"/><text fill="#000000" font-family="sans-serif" font-size="13" font-weight="bold" lengthAdjust="spacing" textLength="165.0962" x="35" y="884.7988">Connectivity Verification</text><polygon fill="#181818" points="854.9233,905.8516,864.9233,909.8516,854.9233,913.8516,858.9233,909.8516" style="stroke:#181818;stroke-width:1.0;"/><line style="stroke:#181818;stroke-width:1.0;" x1="405.1733" x2="860.9233" y1="909.8516" y2="909.8516"/><text fill="#000000" font-family="sans-serif" font-size="13" font-weight="bold" lengthAdjust="spacing" textLength="17.1514" x="412.1733" y="905.1094">17</text><text fill="#000000" font-family="sans-serif" font-size="13" lengthAdjust="spacing" textLength="197.1709" x="433.3247" y="905.1094">Filter railway lines by train type</text><line style="stroke:#181818;stroke-width:1.0;" x1="876.9233" x2="918.9233" y1="939.1621" y2="939.1621"/><line style="stroke:#181818;stroke-width:1.0;" x1="918.9233" x2="918.9233" y1="939.1621" y2="952.1621"/><line style="stroke:#181818;stroke-width:1.0;" x1="877.9233" x2="918.9233" y1="952.1621" y2="952.1621"/><polygon fill="#181818" points="887.9233,948.1621,877.9233,952.1621,887.9233,956.1621,883.9233,952.1621" style="stroke:#181818;stroke-width:1.0;"/><text fill="#000000" font-family="sans-serif" font-size="13" font-weight="bold" lengthAdjust="spacing" textLength="17.1514" x="883.9233" y="934.4199">18</text><text fill="#000000" font-family="sans-serif" font-size="13" lengthAdjust="spacing" textLength="265.8462" x="905.0747" y="934.4199">Filter railway lines (filterRailwayLinesType)</text><polygon fill="#181818" points="1918.5869,977.4727,1928.5869,981.4727,1918.5869,985.4727,1922.5869,981.4727" style="stroke:#181818;stroke-width:1.0;"/><line style="stroke:#181818;stroke-width:1.0;" x1="876.9233" x2="1924.5869" y1="981.4727" y2="981.4727"/><text fill="#000000" font-family="sans-serif" font-size="13" font-weight="bold" lengthAdjust="spacing" textLength="17.1514" x="883.9233" y="976.7305">19</text><text fill="#000000" font-family="sans-serif" font-size="13" lengthAdjust="spacing" textLength="305.7349" x="905.0747" y="976.7305">buildAdjacencyMatrix(stationList, availableLines)</text><polygon fill="#181818" points="887.9233,1006.7832,877.9233,1010.7832,887.9233,1014.7832,883.9233,1010.7832" style="stroke:#181818;stroke-width:1.0;"/><line style="stroke:#181818;stroke-width:1.0;stroke-dasharray:2.0,2.0;" x1="881.9233" x2="1934.5869" y1="1010.7832" y2="1010.7832"/><text fill="#000000" font-family="sans-serif" font-size="13" font-weight="bold" lengthAdjust="spacing" textLength="17.1514" x="893.9233" y="1006.041">20</text><text fill="#000000" font-family="sans-serif" font-size="13" lengthAdjust="spacing" textLength="102.2036" x="915.0747" y="1006.041">adjacencyMatrix</text><polygon fill="#181818" points="1594.2778,1036.0938,1604.2778,1040.0938,1594.2778,1044.0938,1598.2778,1040.0938" style="stroke:#181818;stroke-width:1.0;"/><line style="stroke:#181818;stroke-width:1.0;" x1="876.9233" x2="1600.2778" y1="1040.0938" y2="1040.0938"/><text fill="#000000" font-family="sans-serif" font-size="13" font-weight="bold" lengthAdjust="spacing" textLength="17.1514" x="883.9233" y="1035.3516">21</text><text fill="#000000" font-family="sans-serif" font-size="13" lengthAdjust="spacing" textLength="157.4028" x="905.0747" y="1035.3516">Display adjacency matrix</text><line style="stroke:#181818;stroke-width:1.0;" x1="876.9233" x2="918.9233" y1="1069.4043" y2="1069.4043"/><line style="stroke:#181818;stroke-width:1.0;" x1="918.9233" x2="918.9233" y1="1069.4043" y2="1082.4043"/><line style="stroke:#181818;stroke-width:1.0;" x1="877.9233" x2="918.9233" y1="1082.4043" y2="1082.4043"/><polygon fill="#181818" points="887.9233,1078.4043,877.9233,1082.4043,887.9233,1086.4043,883.9233,1082.4043" style="stroke:#181818;stroke-width:1.0;"/><text fill="#000000" font-family="sans-serif" font-size="13" font-weight="bold" lengthAdjust="spacing" textLength="17.1514" x="883.9233" y="1064.6621">22</text><text fill="#000000" font-family="sans-serif" font-size="13" lengthAdjust="spacing" textLength="398.1567" x="905.0747" y="1064.6621">Calculate transitive closure matrix (getTransitiveClosureMatrix)</text><polygon fill="#181818" points="1779.1753,1107.7148,1789.1753,1111.7148,1779.1753,1115.7148,1783.1753,1111.7148" style="stroke:#181818;stroke-width:1.0;"/><line style="stroke:#181818;stroke-width:1.0;" x1="876.9233" x2="1785.1753" y1="1111.7148" y2="1111.7148"/><text fill="#000000" font-family="sans-serif" font-size="13" font-weight="bold" lengthAdjust="spacing" textLength="17.1514" x="883.9233" y="1106.9727">23</text><text fill="#000000" font-family="sans-serif" font-size="13" lengthAdjust="spacing" textLength="203.6646" x="905.0747" y="1106.9727">Display transitive closure matrix</text><line style="stroke:#181818;stroke-width:1.0;" x1="876.9233" x2="918.9233" y1="1141.0254" y2="1141.0254"/><line style="stroke:#181818;stroke-width:1.0;" x1="918.9233" x2="918.9233" y1="1141.0254" y2="1154.0254"/><line style="stroke:#181818;stroke-width:1.0;" x1="877.9233" x2="918.9233" y1="1154.0254" y2="1154.0254"/><polygon fill="#181818" points="887.9233,1150.0254,877.9233,1154.0254,887.9233,1158.0254,883.9233,1154.0254" style="stroke:#181818;stroke-width:1.0;"/><text fill="#000000" font-family="sans-serif" font-size="13" font-weight="bold" lengthAdjust="spacing" textLength="17.1514" x="883.9233" y="1136.2832">24</text><text fill="#000000" font-family="sans-serif" font-size="13" lengthAdjust="spacing" textLength="441.5366" x="905.0747" y="1136.2832">Verify transitive connectivity between stations (isConnectedTransitive)</text><path d="M30,1169.0254 L92.1387,1169.0254 L92.1387,1176.3359 L82.1387,1186.3359 L30,1186.3359 L30,1169.0254 " fill="#EEEEEE" style="stroke:#000000;stroke-width:1.5;"/><rect fill="none" height="209.5078" style="stroke:#000000;stroke-width:1.5;" width="992.2891" x="30" y="1169.0254"/><text fill="#000000" font-family="sans-serif" font-size="13" font-weight="bold" lengthAdjust="spacing" textLength="17.1387" x="45" y="1182.5938">alt</text><text fill="#000000" font-family="sans-serif" font-size="11" font-weight="bold" lengthAdjust="spacing" textLength="115.312" x="107.1387" y="1181.6602">[Stations connected]</text><polygon fill="#181818" points="416.1733,1203.6465,406.1733,1207.6465,416.1733,1211.6465,412.1733,1207.6465" style="stroke:#181818;stroke-width:1.0;"/><line style="stroke:#181818;stroke-width:1.0;stroke-dasharray:2.0,2.0;" x1="410.1733" x2="865.9233" y1="1207.6465" y2="1207.6465"/><text fill="#000000" font-family="sans-serif" font-size="13" font-weight="bold" lengthAdjust="spacing" textLength="17.1514" x="422.1733" y="1202.9043">25</text><text fill="#000000" font-family="sans-serif" font-size="13" lengthAdjust="spacing" textLength="143.2793" x="443.3247" y="1202.9043">Stations are connected</text><polygon fill="#181818" points="84.1797,1232.957,74.1797,1236.957,84.1797,1240.957,80.1797,1236.957" style="stroke:#181818;stroke-width:1.0;"/><line style="stroke:#181818;stroke-width:1.0;stroke-dasharray:2.0,2.0;" x1="78.1797" x2="394.1733" y1="1236.957" y2="1236.957"/><text fill="#000000" font-family="sans-serif" font-size="13" font-weight="bold" lengthAdjust="spacing" textLength="17.1514" x="90.1797" y="1232.2148">26</text><text fill="#000000" font-family="sans-serif" font-size="13" lengthAdjust="spacing" textLength="256.8135" x="111.3311" y="1232.2148">Display message: Stations are connected</text><line style="stroke:#000000;stroke-width:1.0;stroke-dasharray:2.0,2.0;" x1="30" x2="1022.2891" y1="1275.957" y2="1275.957"/><text fill="#000000" font-family="sans-serif" font-size="11" font-weight="bold" lengthAdjust="spacing" textLength="137.645" x="35" y="1286.5918">[Stations not connected]</text><polygon fill="#181818" points="416.1733,1307.2227,406.1733,1311.2227,416.1733,1315.2227,412.1733,1311.2227" style="stroke:#181818;stroke-width:1.0;"/><line style="stroke:#181818;stroke-width:1.0;stroke-dasharray:2.0,2.0;" x1="410.1733" x2="865.9233" y1="1311.2227" y2="1311.2227"/><text fill="#000000" font-family="sans-serif" font-size="13" font-weight="bold" lengthAdjust="spacing" textLength="17.1514" x="422.1733" y="1306.4805">27</text><text fill="#000000" font-family="sans-serif" font-size="13" lengthAdjust="spacing" textLength="168.3081" x="443.3247" y="1306.4805">Stations are not connected</text><polygon fill="#181818" points="84.1797,1336.5332,74.1797,1340.5332,84.1797,1344.5332,80.1797,1340.5332" style="stroke:#181818;stroke-width:1.0;"/><line style="stroke:#181818;stroke-width:1.0;stroke-dasharray:2.0,2.0;" x1="78.1797" x2="394.1733" y1="1340.5332" y2="1340.5332"/><text fill="#000000" font-family="sans-serif" font-size="13" font-weight="bold" lengthAdjust="spacing" textLength="17.1514" x="90.1797" y="1335.791">28</text><text fill="#000000" font-family="sans-serif" font-size="13" lengthAdjust="spacing" textLength="281.8423" x="111.3311" y="1335.791">Display message: Stations are not connected</text><!--SRC=[pLPDRzim3BtdLn0zjS3w1t8Oa2NTu25DXzZjDc10eDXigbMHFKbEvdy_MlwKQoTkqSDyiIJpFOdaCodzp6N25Dj3mi9djaFVP091OMYOt0cSwDf0Fx4eFdAvWqScTFkBu19DbY34oZp54vQQMARxBQh9X8KcLd3nJR0CrGKm3SLmGaZ3GvumQU1YEe-bf2tvWPli4veZelGDCpoM-jwpi7jlF8G-6HKBKUuu3zPB5rmQ_fBJScJj_60MU7ShrtJDk3Yo39Ra8zcNqtncCUkPj_m- -xbPUgiR5pYBVhCGPPZ1BJEA_oNm0yTZlLoibjxD5bytjxDWxVtOT1qD59EQav_e4ZNh3bEmdgty8QvxmuNUt2uyVru4DV2MlaqIFp23LMw0dc88rnyfyZ05YfCo4BPY3amoaMckhNbDGLlcSm8HD8yyWIKUOLIwBdMvzC5gYbwQOiKKZw_SNMnAxT9EnMa29HNuAF9DQ7GDTsllYxUoHlaZuZY1L584uC04ZqYiVCSbb5k2jb2CQa3b1lbH1cCAQ_oJeZPTBFq8gN60VI6jdaveRwIXMOTHiZqwe0XFKJhXViZTomtFSJ9Xm9DzqN3C-W9nenJzrtlKcch6j6OPWfyw-tdlaCfDuTMOOzPnyDa1pm6iwKa89PVoGreNsG2wIkITYsDXY4bNK2YRUJNEtsUqlBZn0szLbAT1GKUaJ2vBDRz5rNq4xo3jFjftqVSeuhR8Um3_hTB7djNLxXXKd-RxKpzI-8iUy5lLt-uJy82AF_BGTSDn-ZCNkSHKsQLjru1j1ePM9EINaic0sxt8oqUxskhoEY2EgnSajdCIopRb8khqzAgBBRas7u0TY8nj1LgsXgdfcBO9rzvPuklcdCmbd_G8oMMeZkZSAV8iSPsGuXf2sBkCdG3DcGXJaVERvWeIYbYd2aieNExGD1UHUV6nEEZBc7Mk9gqZ3MumT3Oh31VNrissk61KOgIySbqA2wFclAraK96ehYCLLKUxhkHhOwPm0D0j99MpTIaPmN6gLWnN4bj5QdOPczUxD0nwdLl3F6zqhLqrMcRsGjZ-9Rp92v9_]--></g></svg>