<svg xmlns="http://www.w3.org/2000/svg" xmlns:xlink="http://www.w3.org/1999/xlink" contentStyleType="text/css" height="583.2px" preserveAspectRatio="none" style="width:444px;height:583px;background:#FFFFFF;" version="1.1" viewBox="0 0 444 583" width="444.8px" zoomAndPan="magnify"><title>System Sequence Diagram (SSD) - US09 - Buy a locomotive</title><defs/><g><text fill="#000000" font-family="sans-serif" font-size="11.2" font-weight="bold" lengthAdjust="spacing" textLength="318.0516" x="69.2754" y="24.0859">System Sequence Diagram (SSD) - US09 - Buy a locomotive</text><rect fill="#FFFFFF" height="403.5313" style="stroke:#181818;stroke-width:0.8000000000000002;" width="8" x="30.273" y="106.5938"/><rect fill="#FFFFFF" height="131.3313" style="stroke:#181818;stroke-width:0.8000000000000002;" width="8" x="257.0797" y="125.2266"/><rect fill="#FFFFFF" height="221.3344" style="stroke:#181818;stroke-width:0.8000000000000002;" width="8" x="257.0797" y="281.5906"/><rect fill="none" height="78.8031" style="stroke:#000000;stroke-width:1.2000000000000002;" width="286.9059" x="8" y="329.0234"/><line style="stroke:#181818;stroke-width:0.4000000000000001;stroke-dasharray:5.0,5.0;" x1="33.6" x2="33.6" y1="98.5938" y2="517.325"/><line style="stroke:#181818;stroke-width:0.4000000000000001;stroke-dasharray:5.0,5.0;" x1="260.8535" x2="260.8535" y1="98.5938" y2="517.325"/><text fill="#000000" font-family="sans-serif" font-size="11.2" lengthAdjust="spacing" textLength="31.7461" x="16" y="95.7828">Player</text><ellipse cx="34.273" cy="42.4969" fill="#E3E3E3" rx="6.4" ry="6.4" style="stroke:#181818;stroke-width:0.4000000000000001;"/><path d="M34.273,48.8969 L34.273,70.4969 M23.873,55.2969 L44.673,55.2969 M34.273,70.4969 L23.873,82.4969 M34.273,70.4969 L44.673,82.4969 " fill="none" style="stroke:#181818;stroke-width:0.4000000000000001;"/><text fill="#000000" font-family="sans-serif" font-size="11.2" lengthAdjust="spacing" textLength="31.7461" x="16" y="528.6109">Player</text><ellipse cx="34.273" cy="538.2219" fill="#E3E3E3" rx="6.4" ry="6.4" style="stroke:#181818;stroke-width:0.4000000000000001;"/><path d="M34.273,544.6219 L34.273,566.2219 M23.873,551.0219 L44.673,551.0219 M34.273,566.2219 L23.873,578.2219 M34.273,566.2219 L44.673,578.2219 " fill="none" style="stroke:#181818;stroke-width:0.4000000000000001;"/><rect fill="#E3E3E3" height="26.0969" rx="2" ry="2" style="stroke:#181818;stroke-width:0.4000000000000001;" width="51.6523" x="235.2535" y="71.6969"/><text fill="#000000" font-family="sans-serif" font-size="11.2" lengthAdjust="spacing" textLength="40.4523" x="240.8535" y="89.3828">:System</text><rect fill="#E3E3E3" height="26.0969" rx="2" ry="2" style="stroke:#181818;stroke-width:0.4000000000000001;" width="51.6523" x="235.2535" y="516.525"/><text fill="#000000" font-family="sans-serif" font-size="11.2" lengthAdjust="spacing" textLength="40.4523" x="240.8535" y="534.2109">:System</text><rect fill="#FFFFFF" height="403.5313" style="stroke:#181818;stroke-width:0.8000000000000002;" width="8" x="30.273" y="106.5938"/><rect fill="#FFFFFF" height="131.3313" style="stroke:#181818;stroke-width:0.8000000000000002;" width="8" x="257.0797" y="125.2266"/><rect fill="#FFFFFF" height="221.3344" style="stroke:#181818;stroke-width:0.8000000000000002;" width="8" x="257.0797" y="281.5906"/><polygon fill="#181818" points="247.4797,122.0266,255.4797,125.2266,247.4797,128.4266,250.6797,125.2266" style="stroke:#181818;stroke-width:0.8000000000000002;"/><line style="stroke:#181818;stroke-width:0.8000000000000002;" x1="38.273" x2="252.2797" y1="125.2266" y2="125.2266"/><text fill="#000000" font-family="sans-serif" font-size="10.4" font-weight="bold" lengthAdjust="spacing" textLength="5.784" x="43.873" y="121.0164">1</text><text fill="#000000" font-family="sans-serif" font-size="10.4" lengthAdjust="spacing" textLength="131.2289" x="52.857" y="121.0164">Request to buy a locomotive</text><line style="stroke:#181818;stroke-width:0.8000000000000002;" x1="265.0797" x2="298.6797" y1="150.2594" y2="150.2594"/><line style="stroke:#181818;stroke-width:0.8000000000000002;" x1="298.6797" x2="298.6797" y1="150.2594" y2="160.6594"/><line style="stroke:#181818;stroke-width:0.8000000000000002;" x1="265.8797" x2="298.6797" y1="160.6594" y2="160.6594"/><polygon fill="#181818" points="273.8797,157.4594,265.8797,160.6594,273.8797,163.8594,270.6797,160.6594" style="stroke:#181818;stroke-width:0.8000000000000002;"/><text fill="#000000" font-family="sans-serif" font-size="10.4" font-weight="bold" lengthAdjust="spacing" textLength="5.784" x="270.6797" y="146.0492">2</text><text fill="#000000" font-family="sans-serif" font-size="10.4" lengthAdjust="spacing" textLength="71.6777" x="279.6637" y="146.0492">Check scenario</text><line style="stroke:#181818;stroke-width:0.8000000000000002;" x1="265.0797" x2="298.6797" y1="185.6922" y2="185.6922"/><line style="stroke:#181818;stroke-width:0.8000000000000002;" x1="298.6797" x2="298.6797" y1="185.6922" y2="196.0922"/><line style="stroke:#181818;stroke-width:0.8000000000000002;" x1="265.8797" x2="298.6797" y1="196.0922" y2="196.0922"/><polygon fill="#181818" points="273.8797,192.8922,265.8797,196.0922,273.8797,199.2922,270.6797,196.0922" style="stroke:#181818;stroke-width:0.8000000000000002;"/><text fill="#000000" font-family="sans-serif" font-size="10.4" font-weight="bold" lengthAdjust="spacing" textLength="5.784" x="270.6797" y="181.482">3</text><text fill="#000000" font-family="sans-serif" font-size="10.4" lengthAdjust="spacing" textLength="52.6094" x="279.6637" y="181.482">Check date</text><line style="stroke:#181818;stroke-width:0.8000000000000002;" x1="265.0797" x2="298.6797" y1="221.125" y2="221.125"/><line style="stroke:#181818;stroke-width:0.8000000000000002;" x1="298.6797" x2="298.6797" y1="221.125" y2="231.525"/><line style="stroke:#181818;stroke-width:0.8000000000000002;" x1="265.8797" x2="298.6797" y1="231.525" y2="231.525"/><polygon fill="#181818" points="273.8797,228.325,265.8797,231.525,273.8797,234.725,270.6797,231.525" style="stroke:#181818;stroke-width:0.8000000000000002;"/><text fill="#000000" font-family="sans-serif" font-size="10.4" font-weight="bold" lengthAdjust="spacing" textLength="5.784" x="270.6797" y="216.9148">4</text><text fill="#000000" font-family="sans-serif" font-size="10.4" lengthAdjust="spacing" textLength="117.9242" x="279.6637" y="216.9148">List available locomotives</text><polygon fill="#181818" points="47.073,253.3578,39.073,256.5578,47.073,259.7578,43.873,256.5578" style="stroke:#181818;stroke-width:0.8000000000000002;"/><line style="stroke:#181818;stroke-width:0.8000000000000002;stroke-dasharray:2.0,2.0;" x1="42.273" x2="260.2797" y1="256.5578" y2="256.5578"/><text fill="#000000" font-family="sans-serif" font-size="10.4" font-weight="bold" lengthAdjust="spacing" textLength="5.784" x="51.873" y="252.3477">5</text><text fill="#000000" font-family="sans-serif" font-size="10.4" lengthAdjust="spacing" textLength="121.3773" x="60.857" y="252.3477">Returns list of locomotives</text><polygon fill="#181818" points="247.4797,278.3906,255.4797,281.5906,247.4797,284.7906,250.6797,281.5906" style="stroke:#181818;stroke-width:0.8000000000000002;"/><line style="stroke:#181818;stroke-width:0.8000000000000002;" x1="38.273" x2="252.2797" y1="281.5906" y2="281.5906"/><text fill="#000000" font-family="sans-serif" font-size="10.4" font-weight="bold" lengthAdjust="spacing" textLength="5.784" x="43.873" y="277.3805">6</text><text fill="#000000" font-family="sans-serif" font-size="10.4" lengthAdjust="spacing" textLength="81.5039" x="52.857" y="277.3805">Select locomotive</text><line style="stroke:#181818;stroke-width:0.8000000000000002;" x1="265.0797" x2="298.6797" y1="306.6234" y2="306.6234"/><line style="stroke:#181818;stroke-width:0.8000000000000002;" x1="298.6797" x2="298.6797" y1="306.6234" y2="317.0234"/><line style="stroke:#181818;stroke-width:0.8000000000000002;" x1="265.8797" x2="298.6797" y1="317.0234" y2="317.0234"/><polygon fill="#181818" points="273.8797,313.8234,265.8797,317.0234,273.8797,320.2234,270.6797,317.0234" style="stroke:#181818;stroke-width:0.8000000000000002;"/><text fill="#000000" font-family="sans-serif" font-size="10.4" font-weight="bold" lengthAdjust="spacing" textLength="5.784" x="270.6797" y="302.4133">7</text><text fill="#000000" font-family="sans-serif" font-size="10.4" lengthAdjust="spacing" textLength="160.1387" x="279.6637" y="302.4133">Check if playerExample has enough money</text><path d="M8,329.0234 L56.1367,329.0234 L56.1367,336.4563 L48.1367,344.4563 L8,344.4563 L8,329.0234 " fill="#EEEEEE" style="stroke:#000000;stroke-width:1.2000000000000002;"/><rect fill="none" height="78.8031" style="stroke:#000000;stroke-width:1.2000000000000002;" width="286.9059" x="8" y="329.0234"/><text fill="#000000" font-family="sans-serif" font-size="10.4" font-weight="bold" lengthAdjust="spacing" textLength="12.1367" x="20" y="341.0461">alt</text><text fill="#000000" font-family="sans-serif" font-size="8.8" font-weight="bold" lengthAdjust="spacing" textLength="48.4" x="68.1367" y="340.1195">[No money]</text><polygon fill="#181818" points="47.073,359.8891,39.073,363.0891,47.073,366.2891,43.873,363.0891" style="stroke:#181818;stroke-width:0.8000000000000002;"/><line style="stroke:#181818;stroke-width:0.8000000000000002;stroke-dasharray:2.0,2.0;" x1="42.273" x2="256.2797" y1="363.0891" y2="363.0891"/><text fill="#000000" font-family="sans-serif" font-size="10.4" font-weight="bold" lengthAdjust="spacing" textLength="5.784" x="51.873" y="358.8789">8</text><text fill="#000000" font-family="sans-serif" font-size="10.4" lengthAdjust="spacing" textLength="153.0395" x="60.857" y="358.8789">Display "Insufficient money" error</text><line style="stroke:#000000;stroke-width:0.8000000000000002;stroke-dasharray:2.0,2.0;" x1="8" x2="294.9059" y1="370.2891" y2="370.2891"/><text fill="#000000" font-family="sans-serif" font-size="8.8" font-weight="bold" lengthAdjust="spacing" textLength="73.3563" x="12" y="379.7852">[Money available]</text><polygon fill="#181818" points="47.073,398.2266,39.073,401.4266,47.073,404.6266,43.873,401.4266" style="stroke:#181818;stroke-width:0.8000000000000002;"/><line style="stroke:#181818;stroke-width:0.8000000000000002;stroke-dasharray:2.0,2.0;" x1="42.273" x2="256.2797" y1="401.4266" y2="401.4266"/><text fill="#000000" font-family="sans-serif" font-size="10.4" font-weight="bold" lengthAdjust="spacing" textLength="5.784" x="51.873" y="397.2164">9</text><text fill="#000000" font-family="sans-serif" font-size="10.4" lengthAdjust="spacing" textLength="70.5199" x="60.857" y="397.2164">Buy locomotive</text><line style="stroke:#181818;stroke-width:0.8000000000000002;" x1="265.0797" x2="298.6797" y1="432.0594" y2="432.0594"/><line style="stroke:#181818;stroke-width:0.8000000000000002;" x1="298.6797" x2="298.6797" y1="432.0594" y2="442.4594"/><line style="stroke:#181818;stroke-width:0.8000000000000002;" x1="265.8797" x2="298.6797" y1="442.4594" y2="442.4594"/><polygon fill="#181818" points="273.8797,439.2594,265.8797,442.4594,273.8797,445.6594,270.6797,442.4594" style="stroke:#181818;stroke-width:0.8000000000000002;"/><text fill="#000000" font-family="sans-serif" font-size="10.4" font-weight="bold" lengthAdjust="spacing" textLength="11.568" x="270.6797" y="427.8492">10</text><text fill="#000000" font-family="sans-serif" font-size="10.4" lengthAdjust="spacing" textLength="129.477" x="285.4477" y="427.8492">Take money from the playerExample</text><line style="stroke:#181818;stroke-width:0.8000000000000002;" x1="265.0797" x2="298.6797" y1="467.4922" y2="467.4922"/><line style="stroke:#181818;stroke-width:0.8000000000000002;" x1="298.6797" x2="298.6797" y1="467.4922" y2="477.8922"/><line style="stroke:#181818;stroke-width:0.8000000000000002;" x1="265.8797" x2="298.6797" y1="477.8922" y2="477.8922"/><polygon fill="#181818" points="273.8797,474.6922,265.8797,477.8922,273.8797,481.0922,270.6797,477.8922" style="stroke:#181818;stroke-width:0.8000000000000002;"/><text fill="#000000" font-family="sans-serif" font-size="10.4" font-weight="bold" lengthAdjust="spacing" textLength="11.568" x="270.6797" y="463.282">11</text><text fill="#000000" font-family="sans-serif" font-size="10.4" lengthAdjust="spacing" textLength="143.6145" x="285.4477" y="463.282">Add locomotive to playerExample's fleet</text><polygon fill="#181818" points="47.073,499.725,39.073,502.925,47.073,506.125,43.873,502.925" style="stroke:#181818;stroke-width:0.8000000000000002;"/><line style="stroke:#181818;stroke-width:0.8000000000000002;" x1="42.273" x2="260.2797" y1="502.925" y2="502.925"/><text fill="#000000" font-family="sans-serif" font-size="10.4" font-weight="bold" lengthAdjust="spacing" textLength="11.568" x="51.873" y="498.7148">12</text><text fill="#000000" font-family="sans-serif" font-size="10.4" lengthAdjust="spacing" textLength="184.8387" x="66.641" y="498.7148">Display "Purchase successful" message</text><!--SRC=[ZLFBJiCm4BpdArQv08TANEa12UW52L15u0EspYQnwjZ5NXVbxrcJa8OsHUHYEvxPcNquRBNTeSSMMcUTQhnh2TX7oi9uiqErnPeAxWo19yLeQpC5X0PBzwbj3HMQG5d6cWLQT86fXO8-8bb5iD9O9_XbKQokO07lnVMDBFUn0mJZb6iTwxtGCRApiTsGbxrYvs5ji4idqMEjz0ujGxxi1NB0C6WbjDuZqqZeLrZS_hXPlYOxWO4TR8wLH_eGRk1Cs0yDgIq4HHQzTcS1fGIPkNpI8enxr0OtKg23SXZ1WXuyYrEEtWOmYUMgN_2IZhsUPbgGaMRzbTzP_xg2NH-laUAITR5kqeHG9nqn32zkE47wPholT4W187-q8LQLz8oaPT-S7CXxvpEIKO7dzETGahFnqf1C4Y5RPja_slM6M-fLePBH1cveI6m6V5UM4uqq83tq8a1bY7X2EKbp7RsIKX64g1I5K4MJGoiRUJWppVe2]--></g></svg>