<svg xmlns="http://www.w3.org/2000/svg" xmlns:xlink="http://www.w3.org/1999/xlink" contentStyleType="text/css" height="700.8px" preserveAspectRatio="none" style="width:573px;height:700px;background:#FFFFFF;" version="1.1" viewBox="0 0 573 700" width="573.2px" zoomAndPan="magnify"><defs/><g><rect fill="#FFFFFF" height="623.5328" style="stroke:#181818;stroke-width:0.4000000000000001;" width="4" x="31.1365" y="37.4484"/><rect fill="#FFFFFF" height="614.2164" style="stroke:#181818;stroke-width:0.4000000000000001;" width="4" x="154.4582" y="46.7648"/><rect fill="#FFFFFF" height="12.5164" style="stroke:#181818;stroke-width:0.4000000000000001;" width="4" x="324.2566" y="59.2813"/><rect fill="#FFFFFF" height="62.582" style="stroke:#181818;stroke-width:0.4000000000000001;" width="4" x="324.2566" y="105.3469"/><rect fill="#FFFFFF" height="401.0492" style="stroke:#181818;stroke-width:0.4000000000000001;" width="4" x="324.2566" y="254.332"/><rect fill="#FFFFFF" height="12.5164" style="stroke:#181818;stroke-width:0.4000000000000001;" width="4" x="424.7521" y="142.8961"/><rect fill="#FFFFFF" height="12.5164" style="stroke:#181818;stroke-width:0.4000000000000001;" width="4" x="424.7521" y="328.2305"/><rect fill="#FFFFFF" height="12.5164" style="stroke:#181818;stroke-width:0.4000000000000001;" width="4" x="424.7521" y="395.4648"/><rect fill="#FFFFFF" height="12.5164" style="stroke:#181818;stroke-width:0.4000000000000001;" width="4" x="424.7521" y="420.4977"/><rect fill="#FFFFFF" height="12.5164" style="stroke:#181818;stroke-width:0.4000000000000001;" width="4" x="424.7521" y="470.5633"/><rect fill="#FFFFFF" height="12.5164" style="stroke:#181818;stroke-width:0.4000000000000001;" width="4" x="424.7521" y="583.9992"/><rect fill="#FFFFFF" height="12.5164" style="stroke:#181818;stroke-width:0.4000000000000001;" width="4" x="457.6982" y="117.8633"/><rect fill="#FFFFFF" height="12.5164" style="stroke:#181818;stroke-width:0.4000000000000001;" width="4" x="457.6982" y="266.8484"/><rect fill="#FFFFFF" height="12.5164" style="stroke:#181818;stroke-width:0.4000000000000001;" width="4" x="457.6982" y="609.032"/><rect fill="#FFFFFF" height="12.5164" style="stroke:#181818;stroke-width:0.4000000000000001;" width="4" x="535.4207" y="445.5305"/><rect fill="#FFFFFF" height="12.5164" style="stroke:#181818;stroke-width:0.4000000000000001;" width="4" x="535.4207" y="558.9664"/><rect fill="none" height="583.1836" style="stroke:#000000;stroke-width:0.6000000000000001;" width="566.9613" x="4" y="77.7977"/><rect fill="none" height="569.8672" style="stroke:#000000;stroke-width:0.6000000000000001;" width="558.9613" x="8" y="88.3141"/><rect fill="none" height="456.4195" style="stroke:#000000;stroke-width:0.6000000000000001;" width="550.9613" x="12" y="198.9617"/><rect fill="none" height="367.2164" style="stroke:#000000;stroke-width:0.6000000000000001;" width="542.9613" x="16" y="285.3648"/><rect fill="none" height="303.0344" style="stroke:#000000;stroke-width:0.6000000000000001;" width="534.9613" x="20" y="346.7469"/><line style="stroke:#181818;stroke-width:0.20000000000000004;stroke-dasharray:5.0,5.0;" x1="32.8" x2="32.8" y1="33.4484" y2="667.7813"/><line style="stroke:#181818;stroke-width:0.20000000000000004;stroke-dasharray:5.0,5.0;" x1="156.4404" x2="156.4404" y1="33.4484" y2="667.7813"/><line style="stroke:#181818;stroke-width:0.20000000000000004;stroke-dasharray:5.0,5.0;" x1="326.101" x2="326.101" y1="33.4484" y2="667.7813"/><line style="stroke:#181818;stroke-width:0.20000000000000004;stroke-dasharray:5.0,5.0;" x1="426.457" x2="426.457" y1="33.4484" y2="667.7813"/><line style="stroke:#181818;stroke-width:0.20000000000000004;stroke-dasharray:5.0,5.0;" x1="459.4473" x2="459.4473" y1="33.4484" y2="667.7813"/><line style="stroke:#181818;stroke-width:0.20000000000000004;stroke-dasharray:5.0,5.0;" x1="499.9492" x2="499.9492" y1="33.4484" y2="667.7813"/><line style="stroke:#181818;stroke-width:0.20000000000000004;stroke-dasharray:5.0,5.0;" x1="537.0801" x2="537.0801" y1="33.4484" y2="667.7813"/><text fill="#000000" font-family="sans-serif" font-size="5.6" lengthAdjust="spacing" textLength="15.873" x="24" y="32.043">Player</text><ellipse cx="33.1365" cy="5.4" fill="#E2E2F0" rx="3.2" ry="3.2" style="stroke:#181818;stroke-width:0.20000000000000004;"/><path d="M33.1365,8.6 L33.1365,19.4 M27.9365,11.8 L38.3365,11.8 M33.1365,19.4 L27.9365,25.4 M33.1365,19.4 L38.3365,25.4 " fill="none" style="stroke:#181818;stroke-width:0.20000000000000004;"/><text fill="#000000" font-family="sans-serif" font-size="5.6" lengthAdjust="spacing" textLength="15.873" x="24" y="673.4242">Player</text><ellipse cx="33.1365" cy="678.2297" fill="#E2E2F0" rx="3.2" ry="3.2" style="stroke:#181818;stroke-width:0.20000000000000004;"/><path d="M33.1365,681.4297 L33.1365,692.2297 M27.9365,684.6297 L38.3365,684.6297 M33.1365,692.2297 L27.9365,698.2297 M33.1365,692.2297 L38.3365,698.2297 " fill="none" style="stroke:#181818;stroke-width:0.20000000000000004;"/><rect fill="#E2E2F0" height="13.0484" rx="1" ry="1" style="stroke:#181818;stroke-width:0.20000000000000004;" width="61.6355" x="125.6404" y="20"/><text fill="#000000" font-family="sans-serif" font-size="5.6" lengthAdjust="spacing" textLength="56.0355" x="128.4404" y="28.843">:AddUpgradeStationUI</text><rect fill="#E2E2F0" height="13.0484" rx="1" ry="1" style="stroke:#181818;stroke-width:0.20000000000000004;" width="61.6355" x="125.6404" y="667.3813"/><text fill="#000000" font-family="sans-serif" font-size="5.6" lengthAdjust="spacing" textLength="56.0355" x="128.4404" y="676.2242">:AddUpgradeStationUI</text><rect fill="#E2E2F0" height="13.0484" rx="1" ry="1" style="stroke:#181818;stroke-width:0.20000000000000004;" width="80.3113" x="286.101" y="20"/><text fill="#000000" font-family="sans-serif" font-size="5.6" lengthAdjust="spacing" textLength="74.7113" x="288.901" y="28.843">:AddUpgradeStationController</text><rect fill="#E2E2F0" height="13.0484" rx="1" ry="1" style="stroke:#181818;stroke-width:0.20000000000000004;" width="80.3113" x="286.101" y="667.3813"/><text fill="#000000" font-family="sans-serif" font-size="5.6" lengthAdjust="spacing" textLength="74.7113" x="288.901" y="676.2242">:AddUpgradeStationController</text><rect fill="#E2E2F0" height="20.4969" rx="1" ry="1" style="stroke:#181818;stroke-width:0.20000000000000004;" width="24.5902" x="414.457" y="12.5516"/><text fill="#000000" font-family="sans-serif" font-size="5.6" lengthAdjust="spacing" textLength="16.4992" x="418.5025" y="21.3945">station</text><text fill="#000000" font-family="sans-serif" font-size="5.6" lengthAdjust="spacing" textLength="18.9902" x="417.257" y="28.843">:Station</text><rect fill="#E2E2F0" height="20.4969" rx="1" ry="1" style="stroke:#181818;stroke-width:0.20000000000000004;" width="24.5902" x="414.457" y="667.3813"/><text fill="#000000" font-family="sans-serif" font-size="5.6" lengthAdjust="spacing" textLength="16.4992" x="418.5025" y="676.2242">station</text><text fill="#000000" font-family="sans-serif" font-size="5.6" lengthAdjust="spacing" textLength="18.9902" x="417.257" y="683.6727">:Station</text><rect fill="#E2E2F0" height="20.4969" rx="1" ry="1" style="stroke:#181818;stroke-width:0.20000000000000004;" width="33.302" x="443.0473" y="12.5516"/><text fill="#000000" font-family="sans-serif" font-size="5.6" lengthAdjust="spacing" textLength="25.2109" x="447.0928" y="21.3945">simulation</text><text fill="#000000" font-family="sans-serif" font-size="5.6" lengthAdjust="spacing" textLength="27.702" x="445.8473" y="28.843">:Simulation</text><rect fill="#E2E2F0" height="20.4969" rx="1" ry="1" style="stroke:#181818;stroke-width:0.20000000000000004;" width="33.302" x="443.0473" y="667.3813"/><text fill="#000000" font-family="sans-serif" font-size="5.6" lengthAdjust="spacing" textLength="25.2109" x="447.0928" y="676.2242">simulation</text><text fill="#000000" font-family="sans-serif" font-size="5.6" lengthAdjust="spacing" textLength="27.702" x="445.8473" y="683.6727">:Simulation</text><rect fill="#E2E2F0" height="20.4969" rx="1" ry="1" style="stroke:#181818;stroke-width:0.20000000000000004;" width="39.5309" x="480.3492" y="12.5516"/><text fill="#000000" font-family="sans-serif" font-size="5.6" lengthAdjust="spacing" textLength="31.7543" x="484.2375" y="21.3945">buildingType</text><text fill="#000000" font-family="sans-serif" font-size="5.6" lengthAdjust="spacing" textLength="33.9309" x="483.1492" y="28.843">:BuildingType</text><rect fill="#E2E2F0" height="20.4969" rx="1" ry="1" style="stroke:#181818;stroke-width:0.20000000000000004;" width="39.5309" x="480.3492" y="667.3813"/><text fill="#000000" font-family="sans-serif" font-size="5.6" lengthAdjust="spacing" textLength="31.7543" x="484.2375" y="676.2242">buildingType</text><text fill="#000000" font-family="sans-serif" font-size="5.6" lengthAdjust="spacing" textLength="33.9309" x="483.1492" y="683.6727">:BuildingType</text><rect fill="#E2E2F0" height="20.4969" rx="1" ry="1" style="stroke:#181818;stroke-width:0.20000000000000004;" width="27.0813" x="523.8801" y="12.5516"/><text fill="#000000" font-family="sans-serif" font-size="5.6" lengthAdjust="spacing" textLength="19.3047" x="527.7684" y="21.3945">building</text><text fill="#000000" font-family="sans-serif" font-size="5.6" lengthAdjust="spacing" textLength="21.4813" x="526.6801" y="28.843">:Building</text><rect fill="#E2E2F0" height="20.4969" rx="1" ry="1" style="stroke:#181818;stroke-width:0.20000000000000004;" width="27.0813" x="523.8801" y="667.3813"/><text fill="#000000" font-family="sans-serif" font-size="5.6" lengthAdjust="spacing" textLength="19.3047" x="527.7684" y="676.2242">building</text><text fill="#000000" font-family="sans-serif" font-size="5.6" lengthAdjust="spacing" textLength="21.4813" x="526.6801" y="683.6727">:Building</text><rect fill="#FFFFFF" height="623.5328" style="stroke:#181818;stroke-width:0.4000000000000001;" width="4" x="31.1365" y="37.4484"/><rect fill="#FFFFFF" height="614.2164" style="stroke:#181818;stroke-width:0.4000000000000001;" width="4" x="154.4582" y="46.7648"/><rect fill="#FFFFFF" height="12.5164" style="stroke:#181818;stroke-width:0.4000000000000001;" width="4" x="324.2566" y="59.2813"/><rect fill="#FFFFFF" height="62.582" style="stroke:#181818;stroke-width:0.4000000000000001;" width="4" x="324.2566" y="105.3469"/><rect fill="#FFFFFF" height="401.0492" style="stroke:#181818;stroke-width:0.4000000000000001;" width="4" x="324.2566" y="254.332"/><rect fill="#FFFFFF" height="12.5164" style="stroke:#181818;stroke-width:0.4000000000000001;" width="4" x="424.7521" y="142.8961"/><rect fill="#FFFFFF" height="12.5164" style="stroke:#181818;stroke-width:0.4000000000000001;" width="4" x="424.7521" y="328.2305"/><rect fill="#FFFFFF" height="12.5164" style="stroke:#181818;stroke-width:0.4000000000000001;" width="4" x="424.7521" y="395.4648"/><rect fill="#FFFFFF" height="12.5164" style="stroke:#181818;stroke-width:0.4000000000000001;" width="4" x="424.7521" y="420.4977"/><rect fill="#FFFFFF" height="12.5164" style="stroke:#181818;stroke-width:0.4000000000000001;" width="4" x="424.7521" y="470.5633"/><rect fill="#FFFFFF" height="12.5164" style="stroke:#181818;stroke-width:0.4000000000000001;" width="4" x="424.7521" y="583.9992"/><rect fill="#FFFFFF" height="12.5164" style="stroke:#181818;stroke-width:0.4000000000000001;" width="4" x="457.6982" y="117.8633"/><rect fill="#FFFFFF" height="12.5164" style="stroke:#181818;stroke-width:0.4000000000000001;" width="4" x="457.6982" y="266.8484"/><rect fill="#FFFFFF" height="12.5164" style="stroke:#181818;stroke-width:0.4000000000000001;" width="4" x="457.6982" y="609.032"/><rect fill="#FFFFFF" height="12.5164" style="stroke:#181818;stroke-width:0.4000000000000001;" width="4" x="535.4207" y="445.5305"/><rect fill="#FFFFFF" height="12.5164" style="stroke:#181818;stroke-width:0.4000000000000001;" width="4" x="535.4207" y="558.9664"/><polygon fill="#181818" points="149.6582,45.1648,153.6582,46.7648,149.6582,48.3648,151.2582,46.7648" style="stroke:#181818;stroke-width:0.4000000000000001;"/><line style="stroke:#181818;stroke-width:0.4000000000000001;" x1="35.1365" x2="152.0582" y1="46.7648" y2="46.7648"/><text fill="#000000" font-family="sans-serif" font-size="5.2" font-weight="bold" lengthAdjust="spacing" textLength="2.892" x="37.9365" y="44.6598">1</text><text fill="#000000" font-family="sans-serif" font-size="5.2" lengthAdjust="spacing" textLength="107.2297" x="42.4285" y="44.6598">start AddUpgradeStationUI(station, simulation)</text><polygon fill="#181818" points="319.4566,57.6813,323.4566,59.2813,319.4566,60.8813,321.0566,59.2813" style="stroke:#181818;stroke-width:0.4000000000000001;"/><line style="stroke:#181818;stroke-width:0.4000000000000001;" x1="158.4582" x2="321.8566" y1="59.2813" y2="59.2813"/><text fill="#000000" font-family="sans-serif" font-size="5.2" font-weight="bold" lengthAdjust="spacing" textLength="2.892" x="161.2582" y="57.1762">2</text><text fill="#000000" font-family="sans-serif" font-size="5.2" lengthAdjust="spacing" textLength="123.9977" x="165.7502" y="57.1762">new AddUpgradeStationController(station, simulation)</text><polygon fill="#181818" points="162.8582,70.1977,158.8582,71.7977,162.8582,73.3977,161.2582,71.7977" style="stroke:#181818;stroke-width:0.4000000000000001;"/><line style="stroke:#181818;stroke-width:0.4000000000000001;stroke-dasharray:2.0,2.0;" x1="160.4582" x2="325.8566" y1="71.7977" y2="71.7977"/><text fill="#000000" font-family="sans-serif" font-size="5.2" font-weight="bold" lengthAdjust="spacing" textLength="2.892" x="165.2582" y="69.6926">3</text><text fill="#000000" font-family="sans-serif" font-size="5.2" lengthAdjust="spacing" textLength="40.1756" x="169.7502" y="69.6926">controller created</text><path d="M4,77.7977 L67.3578,77.7977 L67.3578,81.5141 L63.3578,85.5141 L4,85.5141 L4,77.7977 " fill="#EEEEEE" style="stroke:#000000;stroke-width:0.6000000000000001;"/><rect fill="none" height="583.1836" style="stroke:#000000;stroke-width:0.6000000000000001;" width="566.9613" x="4" y="77.7977"/><text fill="#000000" font-family="sans-serif" font-size="5.2" font-weight="bold" lengthAdjust="spacing" textLength="45.3578" x="10" y="83.809">Building Selection</text><path d="M8,88.3141 L36.9738,88.3141 L36.9738,92.0305 L32.9738,96.0305 L8,96.0305 L8,88.3141 " fill="#EEEEEE" style="stroke:#000000;stroke-width:0.6000000000000001;"/><rect fill="none" height="569.8672" style="stroke:#000000;stroke-width:0.6000000000000001;" width="558.9613" x="8" y="88.3141"/><text fill="#000000" font-family="sans-serif" font-size="5.2" font-weight="bold" lengthAdjust="spacing" textLength="10.9738" x="14" y="94.3254">loop</text><text fill="#000000" font-family="sans-serif" font-size="4.4" font-weight="bold" lengthAdjust="spacing" textLength="58.6695" x="42.9738" y="93.8621">[until valid option or cancel]</text><polygon fill="#181818" points="319.4566,103.7469,323.4566,105.3469,319.4566,106.9469,321.0566,105.3469" style="stroke:#181818;stroke-width:0.4000000000000001;"/><line style="stroke:#181818;stroke-width:0.4000000000000001;" x1="158.4582" x2="321.8566" y1="105.3469" y2="105.3469"/><text fill="#000000" font-family="sans-serif" font-size="5.2" font-weight="bold" lengthAdjust="spacing" textLength="2.892" x="161.2582" y="103.2418">4</text><text fill="#000000" font-family="sans-serif" font-size="5.2" lengthAdjust="spacing" textLength="64.4566" x="165.7502" y="103.2418">getAvailableBuildingTypes()</text><polygon fill="#181818" points="452.8982,116.2633,456.8982,117.8633,452.8982,119.4633,454.4982,117.8633" style="stroke:#181818;stroke-width:0.4000000000000001;"/><line style="stroke:#181818;stroke-width:0.4000000000000001;" x1="328.2566" x2="455.2982" y1="117.8633" y2="117.8633"/><text fill="#000000" font-family="sans-serif" font-size="5.2" font-weight="bold" lengthAdjust="spacing" textLength="2.892" x="331.0566" y="115.7582">5</text><text fill="#000000" font-family="sans-serif" font-size="5.2" lengthAdjust="spacing" textLength="39.5865" x="335.5486" y="115.7582">getCurrentTime()</text><polygon fill="#181818" points="332.6566,128.7797,328.6566,130.3797,332.6566,131.9797,331.0566,130.3797" style="stroke:#181818;stroke-width:0.4000000000000001;"/><line style="stroke:#181818;stroke-width:0.4000000000000001;stroke-dasharray:2.0,2.0;" x1="330.2566" x2="459.2982" y1="130.3797" y2="130.3797"/><text fill="#000000" font-family="sans-serif" font-size="5.2" font-weight="bold" lengthAdjust="spacing" textLength="2.892" x="335.0566" y="128.2746">6</text><text fill="#000000" font-family="sans-serif" font-size="5.2" lengthAdjust="spacing" textLength="27.7393" x="339.5486" y="128.2746">currentTime</text><polygon fill="#181818" points="419.9521,141.2961,423.9521,142.8961,419.9521,144.4961,421.5521,142.8961" style="stroke:#181818;stroke-width:0.4000000000000001;"/><line style="stroke:#181818;stroke-width:0.4000000000000001;" x1="328.2566" x2="422.3521" y1="142.8961" y2="142.8961"/><text fill="#000000" font-family="sans-serif" font-size="5.2" font-weight="bold" lengthAdjust="spacing" textLength="2.892" x="331.0566" y="140.791">7</text><text fill="#000000" font-family="sans-serif" font-size="5.2" lengthAdjust="spacing" textLength="31.7941" x="335.5486" y="140.791">getBuildings()</text><polygon fill="#181818" points="332.6566,153.8125,328.6566,155.4125,332.6566,157.0125,331.0566,155.4125" style="stroke:#181818;stroke-width:0.4000000000000001;"/><line style="stroke:#181818;stroke-width:0.4000000000000001;stroke-dasharray:2.0,2.0;" x1="330.2566" x2="426.3521" y1="155.4125" y2="155.4125"/><text fill="#000000" font-family="sans-serif" font-size="5.2" font-weight="bold" lengthAdjust="spacing" textLength="2.892" x="335.0566" y="153.3074">8</text><text fill="#000000" font-family="sans-serif" font-size="5.2" lengthAdjust="spacing" textLength="53.1832" x="339.5486" y="153.3074">list of existing buildings</text><polygon fill="#181818" points="162.8582,166.3289,158.8582,167.9289,162.8582,169.5289,161.2582,167.9289" style="stroke:#181818;stroke-width:0.4000000000000001;"/><line style="stroke:#181818;stroke-width:0.4000000000000001;stroke-dasharray:2.0,2.0;" x1="160.4582" x2="325.8566" y1="167.9289" y2="167.9289"/><text fill="#000000" font-family="sans-serif" font-size="5.2" font-weight="bold" lengthAdjust="spacing" textLength="2.892" x="165.2582" y="165.8238">9</text><text fill="#000000" font-family="sans-serif" font-size="5.2" lengthAdjust="spacing" textLength="67.3512" x="169.7502" y="165.8238">list of available building types</text><polygon fill="#181818" points="39.5365,178.8453,35.5365,180.4453,39.5365,182.0453,37.9365,180.4453" style="stroke:#181818;stroke-width:0.4000000000000001;"/><line style="stroke:#181818;stroke-width:0.4000000000000001;stroke-dasharray:2.0,2.0;" x1="37.1365" x2="154.0582" y1="180.4453" y2="180.4453"/><text fill="#000000" font-family="sans-serif" font-size="5.2" font-weight="bold" lengthAdjust="spacing" textLength="5.784" x="41.9365" y="178.3402">10</text><text fill="#000000" font-family="sans-serif" font-size="5.2" lengthAdjust="spacing" textLength="71.693" x="49.3205" y="178.3402">show available building options</text><polygon fill="#181818" points="149.6582,191.3617,153.6582,192.9617,149.6582,194.5617,151.2582,192.9617" style="stroke:#181818;stroke-width:0.4000000000000001;"/><line style="stroke:#181818;stroke-width:0.4000000000000001;" x1="35.1365" x2="152.0582" y1="192.9617" y2="192.9617"/><text fill="#000000" font-family="sans-serif" font-size="5.2" font-weight="bold" lengthAdjust="spacing" textLength="5.784" x="37.9365" y="190.8566">11</text><text fill="#000000" font-family="sans-serif" font-size="5.2" lengthAdjust="spacing" textLength="75.4355" x="45.3205" y="190.8566">selects building type (or cancels)</text><path d="M12,198.9617 L36.0684,198.9617 L36.0684,202.6781 L32.0684,206.6781 L12,206.6781 L12,198.9617 " fill="#EEEEEE" style="stroke:#000000;stroke-width:0.6000000000000001;"/><rect fill="none" height="456.4195" style="stroke:#000000;stroke-width:0.6000000000000001;" width="550.9613" x="12" y="198.9617"/><text fill="#000000" font-family="sans-serif" font-size="5.2" font-weight="bold" lengthAdjust="spacing" textLength="6.0684" x="18" y="204.973">alt</text><text fill="#000000" font-family="sans-serif" font-size="4.4" font-weight="bold" lengthAdjust="spacing" textLength="16.6289" x="42.0684" y="204.5098">[cancel]</text><polygon fill="#181818" points="39.5365,214.3945,35.5365,215.9945,39.5365,217.5945,37.9365,215.9945" style="stroke:#181818;stroke-width:0.4000000000000001;"/><line style="stroke:#181818;stroke-width:0.4000000000000001;stroke-dasharray:2.0,2.0;" x1="37.1365" x2="154.0582" y1="215.9945" y2="215.9945"/><text fill="#000000" font-family="sans-serif" font-size="5.2" font-weight="bold" lengthAdjust="spacing" textLength="5.784" x="41.9365" y="213.8895">12</text><text fill="#000000" font-family="sans-serif" font-size="5.2" lengthAdjust="spacing" textLength="45.0988" x="49.3205" y="213.8895">operation cancelled</text><line style="stroke:#000000;stroke-width:0.4000000000000001;stroke-dasharray:2.0,2.0;" x1="12" x2="562.9613" y1="219.5945" y2="219.5945"/><text fill="#000000" font-family="sans-serif" font-size="4.4" font-weight="bold" lengthAdjust="spacing" textLength="31.5283" x="14" y="224.3426">[invalid option]</text><polygon fill="#181818" points="39.5365,233.5633,35.5365,235.1633,39.5365,236.7633,37.9365,235.1633" style="stroke:#181818;stroke-width:0.4000000000000001;"/><line style="stroke:#181818;stroke-width:0.4000000000000001;stroke-dasharray:2.0,2.0;" x1="37.1365" x2="154.0582" y1="235.1633" y2="235.1633"/><text fill="#000000" font-family="sans-serif" font-size="5.2" font-weight="bold" lengthAdjust="spacing" textLength="5.784" x="41.9365" y="233.0582">13</text><text fill="#000000" font-family="sans-serif" font-size="5.2" lengthAdjust="spacing" textLength="33.5232" x="49.3205" y="233.0582">error message</text><line style="stroke:#000000;stroke-width:0.4000000000000001;stroke-dasharray:2.0,2.0;" x1="12" x2="562.9613" y1="238.7633" y2="238.7633"/><text fill="#000000" font-family="sans-serif" font-size="4.4" font-weight="bold" lengthAdjust="spacing" textLength="27.6182" x="14" y="243.5113">[valid option]</text><polygon fill="#181818" points="319.4566,252.732,323.4566,254.332,319.4566,255.932,321.0566,254.332" style="stroke:#181818;stroke-width:0.4000000000000001;"/><line style="stroke:#181818;stroke-width:0.4000000000000001;" x1="158.4582" x2="321.8566" y1="254.332" y2="254.332"/><text fill="#000000" font-family="sans-serif" font-size="5.2" font-weight="bold" lengthAdjust="spacing" textLength="5.784" x="161.2582" y="252.227">14</text><text fill="#000000" font-family="sans-serif" font-size="5.2" lengthAdjust="spacing" textLength="82.385" x="168.6422" y="252.227">addBuildingToStation(buildingType)</text><polygon fill="#181818" points="452.8982,265.2484,456.8982,266.8484,452.8982,268.4484,454.4982,266.8484" style="stroke:#181818;stroke-width:0.4000000000000001;"/><line style="stroke:#181818;stroke-width:0.4000000000000001;" x1="328.2566" x2="455.2982" y1="266.8484" y2="266.8484"/><text fill="#000000" font-family="sans-serif" font-size="5.2" font-weight="bold" lengthAdjust="spacing" textLength="5.784" x="331.0566" y="264.7434">15</text><text fill="#000000" font-family="sans-serif" font-size="5.2" lengthAdjust="spacing" textLength="40.752" x="338.4406" y="264.7434">getActualMoney()</text><polygon fill="#181818" points="332.6566,277.7648,328.6566,279.3648,332.6566,280.9648,331.0566,279.3648" style="stroke:#181818;stroke-width:0.4000000000000001;"/><line style="stroke:#181818;stroke-width:0.4000000000000001;stroke-dasharray:2.0,2.0;" x1="330.2566" x2="459.2982" y1="279.3648" y2="279.3648"/><text fill="#000000" font-family="sans-serif" font-size="5.2" font-weight="bold" lengthAdjust="spacing" textLength="5.784" x="335.0566" y="277.2598">16</text><text fill="#000000" font-family="sans-serif" font-size="5.2" lengthAdjust="spacing" textLength="29.4836" x="342.4406" y="277.2598">actualMoney</text><path d="M16,285.3648 L40.0684,285.3648 L40.0684,289.0813 L36.0684,293.0813 L16,293.0813 L16,285.3648 " fill="#EEEEEE" style="stroke:#000000;stroke-width:0.6000000000000001;"/><rect fill="none" height="367.2164" style="stroke:#000000;stroke-width:0.6000000000000001;" width="542.9613" x="16" y="285.3648"/><text fill="#000000" font-family="sans-serif" font-size="5.2" font-weight="bold" lengthAdjust="spacing" textLength="6.0684" x="22" y="291.3762">alt</text><text fill="#000000" font-family="sans-serif" font-size="4.4" font-weight="bold" lengthAdjust="spacing" textLength="42.2834" x="46.0684" y="290.9129">[not enough money]</text><polygon fill="#181818" points="162.8582,300.7977,158.8582,302.3977,162.8582,303.9977,161.2582,302.3977" style="stroke:#181818;stroke-width:0.4000000000000001;"/><line style="stroke:#181818;stroke-width:0.4000000000000001;stroke-dasharray:2.0,2.0;" x1="160.4582" x2="323.8566" y1="302.3977" y2="302.3977"/><text fill="#000000" font-family="sans-serif" font-size="5.2" font-weight="bold" lengthAdjust="spacing" textLength="5.784" x="165.2582" y="300.2926">17</text><text fill="#000000" font-family="sans-serif" font-size="5.2" lengthAdjust="spacing" textLength="93.8869" x="172.6422" y="300.2926">"Not enough money to add this building."</text><polygon fill="#181818" points="39.5365,313.3141,35.5365,314.9141,39.5365,316.5141,37.9365,314.9141" style="stroke:#181818;stroke-width:0.4000000000000001;"/><line style="stroke:#181818;stroke-width:0.4000000000000001;stroke-dasharray:2.0,2.0;" x1="37.1365" x2="154.0582" y1="314.9141" y2="314.9141"/><text fill="#000000" font-family="sans-serif" font-size="5.2" font-weight="bold" lengthAdjust="spacing" textLength="5.784" x="41.9365" y="312.809">18</text><text fill="#000000" font-family="sans-serif" font-size="5.2" lengthAdjust="spacing" textLength="24.5629" x="49.3205" y="312.809">show error</text><line style="stroke:#000000;stroke-width:0.4000000000000001;stroke-dasharray:2.0,2.0;" x1="16" x2="558.9613" y1="318.5141" y2="318.5141"/><polygon fill="#181818" points="419.9521,326.6305,423.9521,328.2305,419.9521,329.8305,421.5521,328.2305" style="stroke:#181818;stroke-width:0.4000000000000001;"/><line style="stroke:#181818;stroke-width:0.4000000000000001;" x1="328.2566" x2="422.3521" y1="328.2305" y2="328.2305"/><text fill="#000000" font-family="sans-serif" font-size="5.2" font-weight="bold" lengthAdjust="spacing" textLength="5.784" x="331.0566" y="326.1254">19</text><text fill="#000000" font-family="sans-serif" font-size="5.2" lengthAdjust="spacing" textLength="64.4566" x="338.4406" y="326.1254">getAvailableBuildingTypes()</text><polygon fill="#181818" points="332.6566,339.1469,328.6566,340.7469,332.6566,342.3469,331.0566,340.7469" style="stroke:#181818;stroke-width:0.4000000000000001;"/><line style="stroke:#181818;stroke-width:0.4000000000000001;stroke-dasharray:2.0,2.0;" x1="330.2566" x2="426.3521" y1="340.7469" y2="340.7469"/><text fill="#000000" font-family="sans-serif" font-size="5.2" font-weight="bold" lengthAdjust="spacing" textLength="5.784" x="335.0566" y="338.6418">20</text><text fill="#000000" font-family="sans-serif" font-size="5.2" lengthAdjust="spacing" textLength="56.0777" x="342.4406" y="338.6418">list of available buildings</text><path d="M20,346.7469 L44.0684,346.7469 L44.0684,350.4633 L40.0684,354.4633 L20,354.4633 L20,346.7469 " fill="#EEEEEE" style="stroke:#000000;stroke-width:0.6000000000000001;"/><rect fill="none" height="303.0344" style="stroke:#000000;stroke-width:0.6000000000000001;" width="534.9613" x="20" y="346.7469"/><text fill="#000000" font-family="sans-serif" font-size="5.2" font-weight="bold" lengthAdjust="spacing" textLength="6.0684" x="26" y="352.7582">alt</text><text fill="#000000" font-family="sans-serif" font-size="4.4" font-weight="bold" lengthAdjust="spacing" textLength="50.368" x="50.0684" y="352.2949">[building already exists]</text><polygon fill="#181818" points="162.8582,362.1797,158.8582,363.7797,162.8582,365.3797,161.2582,363.7797" style="stroke:#181818;stroke-width:0.4000000000000001;"/><line style="stroke:#181818;stroke-width:0.4000000000000001;stroke-dasharray:2.0,2.0;" x1="160.4582" x2="323.8566" y1="363.7797" y2="363.7797"/><text fill="#000000" font-family="sans-serif" font-size="5.2" font-weight="bold" lengthAdjust="spacing" textLength="5.784" x="165.2582" y="361.6746">21</text><text fill="#000000" font-family="sans-serif" font-size="5.2" lengthAdjust="spacing" textLength="118.7342" x="172.6422" y="361.6746">"A building of this type already exists in the station."</text><polygon fill="#181818" points="39.5365,374.6961,35.5365,376.2961,39.5365,377.8961,37.9365,376.2961" style="stroke:#181818;stroke-width:0.4000000000000001;"/><line style="stroke:#181818;stroke-width:0.4000000000000001;stroke-dasharray:2.0,2.0;" x1="37.1365" x2="154.0582" y1="376.2961" y2="376.2961"/><text fill="#000000" font-family="sans-serif" font-size="5.2" font-weight="bold" lengthAdjust="spacing" textLength="5.784" x="41.9365" y="374.191">22</text><text fill="#000000" font-family="sans-serif" font-size="5.2" lengthAdjust="spacing" textLength="24.5629" x="49.3205" y="374.191">show error</text><line style="stroke:#000000;stroke-width:0.4000000000000001;stroke-dasharray:2.0,2.0;" x1="20" x2="554.9613" y1="379.8961" y2="379.8961"/><text fill="#000000" font-family="sans-serif" font-size="4.4" font-weight="bold" lengthAdjust="spacing" textLength="56.4738" x="22" y="384.6441">[building replaces another]</text><polygon fill="#181818" points="419.9521,393.8648,423.9521,395.4648,419.9521,397.0648,421.5521,395.4648" style="stroke:#181818;stroke-width:0.4000000000000001;"/><line style="stroke:#181818;stroke-width:0.4000000000000001;" x1="328.2566" x2="422.3521" y1="395.4648" y2="395.4648"/><text fill="#000000" font-family="sans-serif" font-size="5.2" font-weight="bold" lengthAdjust="spacing" textLength="5.784" x="331.0566" y="393.3598">23</text><text fill="#000000" font-family="sans-serif" font-size="5.2" lengthAdjust="spacing" textLength="64.4566" x="338.4406" y="393.3598">getAvailableBuildingTypes()</text><polygon fill="#181818" points="332.6566,406.3813,328.6566,407.9813,332.6566,409.5813,331.0566,407.9813" style="stroke:#181818;stroke-width:0.4000000000000001;"/><line style="stroke:#181818;stroke-width:0.4000000000000001;stroke-dasharray:2.0,2.0;" x1="330.2566" x2="426.3521" y1="407.9813" y2="407.9813"/><text fill="#000000" font-family="sans-serif" font-size="5.2" font-weight="bold" lengthAdjust="spacing" textLength="5.784" x="335.0566" y="405.8762">24</text><text fill="#000000" font-family="sans-serif" font-size="5.2" lengthAdjust="spacing" textLength="69.0828" x="342.4406" y="405.8762">list of available building Types</text><polygon fill="#181818" points="419.9521,418.8977,423.9521,420.4977,419.9521,422.0977,421.5521,420.4977" style="stroke:#181818;stroke-width:0.4000000000000001;"/><line style="stroke:#181818;stroke-width:0.4000000000000001;" x1="328.2566" x2="422.3521" y1="420.4977" y2="420.4977"/><text fill="#000000" font-family="sans-serif" font-size="5.2" font-weight="bold" lengthAdjust="spacing" textLength="5.784" x="331.0566" y="418.3926">25</text><text fill="#000000" font-family="sans-serif" font-size="5.2" lengthAdjust="spacing" textLength="81.5115" x="338.4406" y="418.3926">removeBuilding(building to replace)</text><polygon fill="#181818" points="332.6566,431.4141,328.6566,433.0141,332.6566,434.6141,331.0566,433.0141" style="stroke:#181818;stroke-width:0.4000000000000001;"/><line style="stroke:#181818;stroke-width:0.4000000000000001;stroke-dasharray:2.0,2.0;" x1="330.2566" x2="426.3521" y1="433.0141" y2="433.0141"/><text fill="#000000" font-family="sans-serif" font-size="5.2" font-weight="bold" lengthAdjust="spacing" textLength="5.784" x="335.0566" y="430.909">26</text><text fill="#000000" font-family="sans-serif" font-size="5.2" lengthAdjust="spacing" textLength="39.6018" x="342.4406" y="430.909">building removed</text><polygon fill="#181818" points="530.6207,443.9305,534.6207,445.5305,530.6207,447.1305,532.2207,445.5305" style="stroke:#181818;stroke-width:0.4000000000000001;"/><line style="stroke:#181818;stroke-width:0.4000000000000001;" x1="328.2566" x2="533.0207" y1="445.5305" y2="445.5305"/><text fill="#000000" font-family="sans-serif" font-size="5.2" font-weight="bold" lengthAdjust="spacing" textLength="5.784" x="331.0566" y="443.4254">27</text><text fill="#000000" font-family="sans-serif" font-size="5.2" lengthAdjust="spacing" textLength="62.4355" x="338.4406" y="443.4254">new Building(buildingType)</text><polygon fill="#181818" points="332.6566,456.4469,328.6566,458.0469,332.6566,459.6469,331.0566,458.0469" style="stroke:#181818;stroke-width:0.4000000000000001;"/><line style="stroke:#181818;stroke-width:0.4000000000000001;stroke-dasharray:2.0,2.0;" x1="330.2566" x2="537.0207" y1="458.0469" y2="458.0469"/><text fill="#000000" font-family="sans-serif" font-size="5.2" font-weight="bold" lengthAdjust="spacing" textLength="5.784" x="335.0566" y="455.9418">28</text><text fill="#000000" font-family="sans-serif" font-size="5.2" lengthAdjust="spacing" textLength="33.8305" x="342.4406" y="455.9418">building added</text><polygon fill="#181818" points="419.9521,468.9633,423.9521,470.5633,419.9521,472.1633,421.5521,470.5633" style="stroke:#181818;stroke-width:0.4000000000000001;"/><line style="stroke:#181818;stroke-width:0.4000000000000001;" x1="328.2566" x2="422.3521" y1="470.5633" y2="470.5633"/><text fill="#000000" font-family="sans-serif" font-size="5.2" font-weight="bold" lengthAdjust="spacing" textLength="5.784" x="331.0566" y="468.4582">29</text><text fill="#000000" font-family="sans-serif" font-size="5.2" lengthAdjust="spacing" textLength="48.5672" x="338.4406" y="468.4582">addBuilding(building)</text><polygon fill="#181818" points="332.6566,481.4797,328.6566,483.0797,332.6566,484.6797,331.0566,483.0797" style="stroke:#181818;stroke-width:0.4000000000000001;"/><line style="stroke:#181818;stroke-width:0.4000000000000001;stroke-dasharray:2.0,2.0;" x1="330.2566" x2="426.3521" y1="483.0797" y2="483.0797"/><text fill="#000000" font-family="sans-serif" font-size="5.2" font-weight="bold" lengthAdjust="spacing" textLength="5.784" x="335.0566" y="480.9746">30</text><text fill="#000000" font-family="sans-serif" font-size="5.2" lengthAdjust="spacing" textLength="33.8305" x="342.4406" y="480.9746">building added</text><polygon fill="#181818" points="162.8582,493.9961,158.8582,495.5961,162.8582,497.1961,161.2582,495.5961" style="stroke:#181818;stroke-width:0.4000000000000001;"/><line style="stroke:#181818;stroke-width:0.4000000000000001;stroke-dasharray:2.0,2.0;" x1="160.4582" x2="323.8566" y1="495.5961" y2="495.5961"/><text fill="#000000" font-family="sans-serif" font-size="5.2" font-weight="bold" lengthAdjust="spacing" textLength="5.784" x="165.2582" y="493.491">31</text><text fill="#000000" font-family="sans-serif" font-size="5.2" lengthAdjust="spacing" textLength="85.1982" x="172.6422" y="493.491">"Building was replaced successfully."</text><polygon fill="#181818" points="39.5365,506.5125,35.5365,508.1125,39.5365,509.7125,37.9365,508.1125" style="stroke:#181818;stroke-width:0.4000000000000001;"/><line style="stroke:#181818;stroke-width:0.4000000000000001;stroke-dasharray:2.0,2.0;" x1="37.1365" x2="154.0582" y1="508.1125" y2="508.1125"/><text fill="#000000" font-family="sans-serif" font-size="5.2" font-weight="bold" lengthAdjust="spacing" textLength="5.784" x="41.9365" y="506.0074">32</text><text fill="#000000" font-family="sans-serif" font-size="5.2" lengthAdjust="spacing" textLength="32.368" x="49.3205" y="506.0074">show success</text><line style="stroke:#000000;stroke-width:0.4000000000000001;stroke-dasharray:2.0,2.0;" x1="20" x2="554.9613" y1="511.7125" y2="511.7125"/><text fill="#000000" font-family="sans-serif" font-size="4.4" font-weight="bold" lengthAdjust="spacing" textLength="76.2867" x="22" y="516.4605">[building has already been replaced]</text><polygon fill="#181818" points="162.8582,525.6813,158.8582,527.2813,162.8582,528.8813,161.2582,527.2813" style="stroke:#181818;stroke-width:0.4000000000000001;"/><line style="stroke:#181818;stroke-width:0.4000000000000001;stroke-dasharray:2.0,2.0;" x1="160.4582" x2="323.8566" y1="527.2813" y2="527.2813"/><text fill="#000000" font-family="sans-serif" font-size="5.2" font-weight="bold" lengthAdjust="spacing" textLength="5.784" x="165.2582" y="525.1762">33</text><text fill="#000000" font-family="sans-serif" font-size="5.2" lengthAdjust="spacing" textLength="148.8145" x="172.6422" y="525.1762">"Cannot add this building because it has already been replaced."</text><polygon fill="#181818" points="39.5365,538.1977,35.5365,539.7977,39.5365,541.3977,37.9365,539.7977" style="stroke:#181818;stroke-width:0.4000000000000001;"/><line style="stroke:#181818;stroke-width:0.4000000000000001;stroke-dasharray:2.0,2.0;" x1="37.1365" x2="154.0582" y1="539.7977" y2="539.7977"/><text fill="#000000" font-family="sans-serif" font-size="5.2" font-weight="bold" lengthAdjust="spacing" textLength="5.784" x="41.9365" y="537.6926">34</text><text fill="#000000" font-family="sans-serif" font-size="5.2" lengthAdjust="spacing" textLength="24.5629" x="49.3205" y="537.6926">show error</text><line style="stroke:#000000;stroke-width:0.4000000000000001;stroke-dasharray:2.0,2.0;" x1="20" x2="554.9613" y1="543.3977" y2="543.3977"/><text fill="#000000" font-family="sans-serif" font-size="4.4" font-weight="bold" lengthAdjust="spacing" textLength="38.8609" x="22" y="548.1457">[add new building]</text><polygon fill="#181818" points="530.6207,557.3664,534.6207,558.9664,530.6207,560.5664,532.2207,558.9664" style="stroke:#181818;stroke-width:0.4000000000000001;"/><line style="stroke:#181818;stroke-width:0.4000000000000001;" x1="328.2566" x2="533.0207" y1="558.9664" y2="558.9664"/><text fill="#000000" font-family="sans-serif" font-size="5.2" font-weight="bold" lengthAdjust="spacing" textLength="5.784" x="331.0566" y="556.8613">35</text><text fill="#000000" font-family="sans-serif" font-size="5.2" lengthAdjust="spacing" textLength="62.4355" x="338.4406" y="556.8613">new Building(buildingType)</text><polygon fill="#181818" points="332.6566,569.8828,328.6566,571.4828,332.6566,573.0828,331.0566,571.4828" style="stroke:#181818;stroke-width:0.4000000000000001;"/><line style="stroke:#181818;stroke-width:0.4000000000000001;stroke-dasharray:2.0,2.0;" x1="330.2566" x2="537.0207" y1="571.4828" y2="571.4828"/><text fill="#000000" font-family="sans-serif" font-size="5.2" font-weight="bold" lengthAdjust="spacing" textLength="5.784" x="335.0566" y="569.3777">36</text><text fill="#000000" font-family="sans-serif" font-size="5.2" lengthAdjust="spacing" textLength="36.7148" x="342.4406" y="569.3777">building created</text><polygon fill="#181818" points="419.9521,582.3992,423.9521,583.9992,419.9521,585.5992,421.5521,583.9992" style="stroke:#181818;stroke-width:0.4000000000000001;"/><line style="stroke:#181818;stroke-width:0.4000000000000001;" x1="328.2566" x2="422.3521" y1="583.9992" y2="583.9992"/><text fill="#000000" font-family="sans-serif" font-size="5.2" font-weight="bold" lengthAdjust="spacing" textLength="5.784" x="331.0566" y="581.8941">37</text><text fill="#000000" font-family="sans-serif" font-size="5.2" lengthAdjust="spacing" textLength="48.5672" x="338.4406" y="581.8941">addBuilding(building)</text><polygon fill="#181818" points="332.6566,594.9156,328.6566,596.5156,332.6566,598.1156,331.0566,596.5156" style="stroke:#181818;stroke-width:0.4000000000000001;"/><line style="stroke:#181818;stroke-width:0.4000000000000001;stroke-dasharray:2.0,2.0;" x1="330.2566" x2="426.3521" y1="596.5156" y2="596.5156"/><text fill="#000000" font-family="sans-serif" font-size="5.2" font-weight="bold" lengthAdjust="spacing" textLength="5.784" x="335.0566" y="594.4105">38</text><text fill="#000000" font-family="sans-serif" font-size="5.2" lengthAdjust="spacing" textLength="33.8305" x="342.4406" y="594.4105">building added</text><polygon fill="#181818" points="452.8982,607.432,456.8982,609.032,452.8982,610.632,454.4982,609.032" style="stroke:#181818;stroke-width:0.4000000000000001;"/><line style="stroke:#181818;stroke-width:0.4000000000000001;" x1="328.2566" x2="455.2982" y1="609.032" y2="609.032"/><text fill="#000000" font-family="sans-serif" font-size="5.2" font-weight="bold" lengthAdjust="spacing" textLength="5.784" x="331.0566" y="606.927">39</text><text fill="#000000" font-family="sans-serif" font-size="5.2" lengthAdjust="spacing" textLength="84.1014" x="338.4406" y="606.927">setActualMoney(actualMoney - cost)</text><polygon fill="#181818" points="332.6566,619.9484,328.6566,621.5484,332.6566,623.1484,331.0566,621.5484" style="stroke:#181818;stroke-width:0.4000000000000001;"/><line style="stroke:#181818;stroke-width:0.4000000000000001;stroke-dasharray:2.0,2.0;" x1="330.2566" x2="459.2982" y1="621.5484" y2="621.5484"/><text fill="#000000" font-family="sans-serif" font-size="5.2" font-weight="bold" lengthAdjust="spacing" textLength="5.784" x="335.0566" y="619.4434">40</text><text fill="#000000" font-family="sans-serif" font-size="5.2" lengthAdjust="spacing" textLength="35.849" x="342.4406" y="619.4434">money updated</text><polygon fill="#181818" points="162.8582,632.4648,158.8582,634.0648,162.8582,635.6648,161.2582,634.0648" style="stroke:#181818;stroke-width:0.4000000000000001;"/><line style="stroke:#181818;stroke-width:0.4000000000000001;stroke-dasharray:2.0,2.0;" x1="160.4582" x2="323.8566" y1="634.0648" y2="634.0648"/><text fill="#000000" font-family="sans-serif" font-size="5.2" font-weight="bold" lengthAdjust="spacing" textLength="5.784" x="165.2582" y="631.9598">41</text><text fill="#000000" font-family="sans-serif" font-size="5.2" lengthAdjust="spacing" textLength="110.9316" x="172.6422" y="631.9598">"Building was successfully added to the station!"</text><polygon fill="#181818" points="39.5365,644.9813,35.5365,646.5813,39.5365,648.1813,37.9365,646.5813" style="stroke:#181818;stroke-width:0.4000000000000001;"/><line style="stroke:#181818;stroke-width:0.4000000000000001;stroke-dasharray:2.0,2.0;" x1="37.1365" x2="154.0582" y1="646.5813" y2="646.5813"/><text fill="#000000" font-family="sans-serif" font-size="5.2" font-weight="bold" lengthAdjust="spacing" textLength="5.784" x="41.9365" y="644.4762">42</text><text fill="#000000" font-family="sans-serif" font-size="5.2" lengthAdjust="spacing" textLength="32.368" x="49.3205" y="644.4762">show success</text><!--SRC=[vLV9Rjim4BthAwO-EK3T3yWXWEDU0YH5q2Y70htGqjWcIfC2ITdrttUeXQ9MAq4A5AY08BRrvd6MDwEH-SLbnZGxGiQINsoFB_OY43GcbiczmCXuW3cmL9svtCEE2HFU4LoYlMG8Ijk3YbXkbSoFMzHHn1AhD2oU1RkWNW0pyFpu8o8ponEUCMbXSRjEqzTihrbAXpFBbNnzA92l3zU06oMjLa9Kr9lu-sFRn9Iud_AsiYXmBt47nO-vy43_fSG-FBN1svoBbB8GKy04lm- -5WRtyJ0-m9Qunwz5UlY9MIooGd-mkgEmuHR8SMrX83FBAgJFq7Xzq_1GpiYUM5mkY4VY6IRITeMjI6Z1jAeTIxmj91e9b4OfjWsYlLPv1dMqy8A2v4JC4T0bbCeWbvOBE371Kr2PkqVQWOJ914M1SbSha3tQzObnmRO2mvoRvOqtQBi1mLN6SEUgMN9jSgrHsfWVCI1eaRZAXpUSxQfnA6aOMh0W6uvXs8suzA8En8pw4BTTY4CF13SMr0xmDtrmYQwbPaOTYeVygKjRyx4wpvuGN7SthBs2XnKZDYTaal11dOUuodetR2tP5r8nxODXwRLXRfh3cB1TnVHyK1dgGjGLKf1SQo2n8N0PYd2S2BKc9uve3Ct8DiKaWIyMIrClMrNruJAS9ICAQ2TuLC_hnEPCF2c9buwM9ZKze6lMCFMWKzgkIoAL1PGgtn_WE4ZI5zxYMyS6h7890tlWZHQ-B0Qf-fehQjN3kbfD-D8qvTKnCwTJfpkstnLcq7gYTSEK-svXWaPoUYadmZ3bGFRNGM_kofmNRTTcerQXUmZL4sEa6c-fYEyWVxp6JB043J1IqG7rbGZUMRCvTNjBxI1kJSTt5B4NaiQZElbWbiquL7MEFZAq8F_ks7HcADSYeGsdsa1wWVG7tc04RaSQ0pdseHXeRioBO8gyLOnWTFi0_ahwPxj-DVc-j_qITgQLiv9E2YPFgClCBXVYygP6hWndjFA1pgi7o1PH-iFdUhvXqZrAUey1OajOxXxTTloGZvnEpWCdujg1VrJtzJR-dok_tebCUoSAjXfOqKkCiNFY6DYMHhQcSct9itHk3QQufteuRDqoRUwX43oOFtrOFyj-8DtVkcy2NLpzFy3H6shd5_VkIy0_]--></g></svg>