<svg xmlns="http://www.w3.org/2000/svg" xmlns:xlink="http://www.w3.org/1999/xlink" contentStyleType="text/css" height="330.4px" preserveAspectRatio="none" style="width:443px;height:330px;background:#FFFFFF;" version="1.1" viewBox="0 0 443 330" width="443.1px" zoomAndPan="magnify"><defs/><g><rect fill="#FFFFFF" height="200.6129" style="stroke:#181818;stroke-width:0.6999999999999998;" width="7" x="26.4889" y="65.5348"/><rect fill="#FFFFFF" height="200.6129" style="stroke:#181818;stroke-width:0.6999999999999998;" width="7" x="185.6121" y="65.5348"/><rect fill="#FFFFFF" height="21.9037" style="stroke:#181818;stroke-width:0.6999999999999998;" width="7" x="357.9468" y="211.1402"/><rect fill="none" height="146.3055" style="stroke:#000000;stroke-width:1.0499999999999998;" width="431.7192" x="7" y="114.2422"/><line style="stroke:#181818;stroke-width:0.3499999999999999;stroke-dasharray:5.0,5.0;" x1="29.4" x2="29.4" y1="58.5348" y2="272.4477"/><line style="stroke:#181818;stroke-width:0.3499999999999999;stroke-dasharray:5.0,5.0;" x1="189.081" x2="189.081" y1="58.5348" y2="272.4477"/><line style="stroke:#181818;stroke-width:0.3499999999999999;stroke-dasharray:5.0,5.0;" x1="361.1744" x2="361.1744" y1="58.5348" y2="272.4477"/><text fill="#000000" font-family="sans-serif" font-size="9.8" lengthAdjust="spacing" textLength="27.7778" x="14" y="56.0752">Player</text><ellipse cx="29.9889" cy="9.45" fill="#E2E2F0" rx="5.6" ry="5.6" style="stroke:#181818;stroke-width:0.3499999999999999;"/><path d="M29.9889,15.05 L29.9889,33.95 M20.8889,20.65 L39.0889,20.65 M29.9889,33.95 L20.8889,44.45 M29.9889,33.95 L39.0889,44.45 " fill="none" style="stroke:#181818;stroke-width:0.3499999999999999;"/><text fill="#000000" font-family="sans-serif" font-size="9.8" lengthAdjust="spacing" textLength="27.7778" x="14" y="282.3229">Player</text><ellipse cx="29.9889" cy="290.7324" fill="#E2E2F0" rx="5.6" ry="5.6" style="stroke:#181818;stroke-width:0.3499999999999999;"/><path d="M29.9889,296.3324 L29.9889,315.2324 M20.8889,301.9324 L39.0889,301.9324 M29.9889,315.2324 L20.8889,325.7324 M29.9889,315.2324 L39.0889,325.7324 " fill="none" style="stroke:#181818;stroke-width:0.3499999999999999;"/><rect fill="#E2E2F0" height="22.8348" rx="1.75" ry="1.75" style="stroke:#181818;stroke-width:0.3499999999999999;" width="107.8622" x="135.181" y="35"/><text fill="#000000" font-family="sans-serif" font-size="9.8" lengthAdjust="spacing" textLength="98.0622" x="140.081" y="50.4752">:AddUpgradeStationUI</text><rect fill="#E2E2F0" height="22.8348" rx="1.75" ry="1.75" style="stroke:#181818;stroke-width:0.3499999999999999;" width="107.8622" x="135.181" y="271.7477"/><text fill="#000000" font-family="sans-serif" font-size="9.8" lengthAdjust="spacing" textLength="98.0622" x="140.081" y="287.2229">:AddUpgradeStationUI</text><rect fill="#E2E2F0" height="22.8348" rx="1.75" ry="1.75" style="stroke:#181818;stroke-width:0.3499999999999999;" width="140.5448" x="291.1744" y="35"/><text fill="#000000" font-family="sans-serif" font-size="9.8" lengthAdjust="spacing" textLength="130.7448" x="296.0744" y="50.4752">:AddUpgradeStationController</text><rect fill="#E2E2F0" height="22.8348" rx="1.75" ry="1.75" style="stroke:#181818;stroke-width:0.3499999999999999;" width="140.5448" x="291.1744" y="271.7477"/><text fill="#000000" font-family="sans-serif" font-size="9.8" lengthAdjust="spacing" textLength="130.7448" x="296.0744" y="287.2229">:AddUpgradeStationController</text><rect fill="#FFFFFF" height="200.6129" style="stroke:#181818;stroke-width:0.6999999999999998;" width="7" x="26.4889" y="65.5348"/><rect fill="#FFFFFF" height="200.6129" style="stroke:#181818;stroke-width:0.6999999999999998;" width="7" x="185.6121" y="65.5348"/><rect fill="#FFFFFF" height="21.9037" style="stroke:#181818;stroke-width:0.6999999999999998;" width="7" x="357.9468" y="211.1402"/><polygon fill="#181818" points="41.1889,79.0385,34.1889,81.8385,41.1889,84.6385,38.3889,81.8385" style="stroke:#181818;stroke-width:0.6999999999999998;"/><line style="stroke:#181818;stroke-width:0.6999999999999998;stroke-dasharray:2.0,2.0;" x1="36.9889" x2="184.9121" y1="81.8385" y2="81.8385"/><text fill="#000000" font-family="sans-serif" font-size="9.1" font-weight="bold" lengthAdjust="spacing" textLength="5.061" x="45.3889" y="78.1546">1</text><text fill="#000000" font-family="sans-serif" font-size="9.1" lengthAdjust="spacing" textLength="125.4627" x="53.2499" y="78.1546">show available building options</text><polygon fill="#181818" points="177.2121,100.9422,184.2121,103.7422,177.2121,106.5422,180.0121,103.7422" style="stroke:#181818;stroke-width:0.6999999999999998;"/><line style="stroke:#181818;stroke-width:0.6999999999999998;" x1="33.4889" x2="181.4121" y1="103.7422" y2="103.7422"/><text fill="#000000" font-family="sans-serif" font-size="9.1" font-weight="bold" lengthAdjust="spacing" textLength="5.061" x="38.3889" y="100.0583">2</text><text fill="#000000" font-family="sans-serif" font-size="9.1" lengthAdjust="spacing" textLength="127.4622" x="46.2499" y="100.0583">selects building type (or cancel)</text><path d="M7,114.2422 L49.1196,114.2422 L49.1196,120.7459 L42.1196,127.7459 L7,127.7459 L7,114.2422 " fill="#EEEEEE" style="stroke:#000000;stroke-width:1.0499999999999998;"/><rect fill="none" height="146.3055" style="stroke:#000000;stroke-width:1.0499999999999998;" width="431.7192" x="7" y="114.2422"/><text fill="#000000" font-family="sans-serif" font-size="9.1" font-weight="bold" lengthAdjust="spacing" textLength="10.6196" x="17.5" y="124.762">alt</text><text fill="#000000" font-family="sans-serif" font-size="7.7" font-weight="bold" lengthAdjust="spacing" textLength="30.3789" x="59.6196" y="123.9513">[Cancel]</text><polygon fill="#181818" points="41.1889,141.2496,34.1889,144.0496,41.1889,146.8496,38.3889,144.0496" style="stroke:#181818;stroke-width:0.6999999999999998;"/><line style="stroke:#181818;stroke-width:0.6999999999999998;stroke-dasharray:2.0,2.0;" x1="36.9889" x2="184.9121" y1="144.0496" y2="144.0496"/><text fill="#000000" font-family="sans-serif" font-size="9.1" font-weight="bold" lengthAdjust="spacing" textLength="5.061" x="45.3889" y="140.3657">3</text><text fill="#000000" font-family="sans-serif" font-size="9.1" lengthAdjust="spacing" textLength="78.9229" x="53.2499" y="140.3657">operation cancelled</text><line style="stroke:#000000;stroke-width:0.6999999999999998;stroke-dasharray:2.0,2.0;" x1="7" x2="438.7192" y1="150.3496" y2="150.3496"/><text fill="#000000" font-family="sans-serif" font-size="7.7" font-weight="bold" lengthAdjust="spacing" textLength="55.1746" x="10.5" y="158.6587">[Invalid option]</text><polygon fill="#181818" points="41.1889,174.7949,34.1889,177.5949,41.1889,180.3949,38.3889,177.5949" style="stroke:#181818;stroke-width:0.6999999999999998;"/><line style="stroke:#181818;stroke-width:0.6999999999999998;stroke-dasharray:2.0,2.0;" x1="36.9889" x2="184.9121" y1="177.5949" y2="177.5949"/><text fill="#000000" font-family="sans-serif" font-size="9.1" font-weight="bold" lengthAdjust="spacing" textLength="5.061" x="45.3889" y="173.911">4</text><text fill="#000000" font-family="sans-serif" font-size="9.1" lengthAdjust="spacing" textLength="58.6657" x="53.2499" y="173.911">error message</text><line style="stroke:#000000;stroke-width:0.6999999999999998;stroke-dasharray:2.0,2.0;" x1="7" x2="438.7192" y1="183.8949" y2="183.8949"/><text fill="#000000" font-family="sans-serif" font-size="7.7" font-weight="bold" lengthAdjust="spacing" textLength="49.1853" x="10.5" y="192.204">[Valid option]</text><polygon fill="#181818" points="349.5468,208.3402,356.5468,211.1402,349.5468,213.9402,352.3468,211.1402" style="stroke:#181818;stroke-width:0.6999999999999998;"/><line style="stroke:#181818;stroke-width:0.6999999999999998;" x1="192.6121" x2="353.7468" y1="211.1402" y2="211.1402"/><text fill="#000000" font-family="sans-serif" font-size="9.1" font-weight="bold" lengthAdjust="spacing" textLength="5.061" x="197.5121" y="207.4563">5</text><text fill="#000000" font-family="sans-serif" font-size="9.1" lengthAdjust="spacing" textLength="144.1737" x="205.3731" y="207.4563">addBuildingToStation(buildingType)</text><polygon fill="#181818" points="200.3121,230.2439,193.3121,233.0439,200.3121,235.8439,197.5121,233.0439" style="stroke:#181818;stroke-width:0.6999999999999998;"/><line style="stroke:#181818;stroke-width:0.6999999999999998;" x1="196.1121" x2="360.7468" y1="233.0439" y2="233.0439"/><text fill="#000000" font-family="sans-serif" font-size="9.1" font-weight="bold" lengthAdjust="spacing" textLength="5.061" x="204.5121" y="229.3601">6</text><text fill="#000000" font-family="sans-serif" font-size="9.1" lengthAdjust="spacing" textLength="47.5617" x="212.3731" y="229.3601">addBuilding</text><polygon fill="#181818" points="41.1889,252.1477,34.1889,254.9477,41.1889,257.7477,38.3889,254.9477" style="stroke:#181818;stroke-width:0.6999999999999998;"/><line style="stroke:#181818;stroke-width:0.6999999999999998;stroke-dasharray:2.0,2.0;" x1="36.9889" x2="184.9121" y1="254.9477" y2="254.9477"/><text fill="#000000" font-family="sans-serif" font-size="9.1" font-weight="bold" lengthAdjust="spacing" textLength="5.061" x="45.3889" y="251.2638">7</text><text fill="#000000" font-family="sans-serif" font-size="9.1" lengthAdjust="spacing" textLength="112.7902" x="53.2499" y="251.2638">show confirmation message</text><!--SRC=[XP2nRiCm34HtVGNXAHdo0na2j9uCP0WQkq17Mc9T0RHaIBIB_7rbnN5Rk42rIRh7EnvgyG6A2-EDGW4OuN9-KmC6iTeEw0IAuvCnpT05D7GL5EjTKsLbK_qdBBsJu9cNqMNzSbOAH_5kx5iA2hNO2OMowNf9SviA3eVJ_0n7Y1_-4t12ozWoGJjQDjPru8VP8wfPbSI9ILfYqXA_HN8R27PfHurE4- -JFmkK-Q8WdLzMVg2Gaozo9gE88q7b9cHh5iyjI24aZvvYn8xkoEjVm2cNa00qvdd9MFkbhjqZTPr2xpEpbfAxcryo_rZtnvJyQMWBRBlKthtRqDyNNJCxymK0]--></g></svg>