<svg xmlns="http://www.w3.org/2000/svg" xmlns:xlink="http://www.w3.org/1999/xlink" contentStyleType="text/css" height="473.6px" preserveAspectRatio="none" style="width:699px;height:473px;background:#FFFFFF;" version="1.1" viewBox="0 0 699 473" width="699.6px" zoomAndPan="magnify"><defs/><g><!--class Station--><g id="elem_Station"><rect codeLine="7" fill="#F1F1F1" height="63.8906" id="Station" rx="1" ry="1" style="stroke:#181818;stroke-width:0.20000000000000004;" width="106.125" x="258.4" y="175.2"/><ellipse cx="301.0453" cy="181.6" fill="#ADD1B2" rx="4.4" ry="4.4" style="stroke:#181818;stroke-width:0.4000000000000001;"/><path d="M302.1516,179.95 Q302.2141,179.8625 302.2891,179.8188 Q302.3641,179.775 302.4516,179.775 Q302.6016,179.775 302.6953,179.8813 Q302.7891,179.9813 302.7891,180.225 L302.7891,180.8063 Q302.7891,181.05 302.6953,181.1563 Q302.6016,181.2625 302.4516,181.2625 Q302.3141,181.2625 302.2328,181.1813 Q302.1516,181.1063 302.1078,180.9 Q302.0891,180.7563 302.0141,180.6813 Q301.8828,180.5313 301.6391,180.4438 Q301.3953,180.3563 301.1453,180.3563 Q300.8391,180.3563 300.5828,180.4875 Q300.3328,180.6188 300.1328,180.9188 Q299.9391,181.2188 299.9391,181.6313 L299.9391,182.0688 Q299.9391,182.5625 300.2953,182.8938 Q300.6516,183.2188 301.2891,183.2188 Q301.6641,183.2188 301.9266,183.1188 Q302.0828,183.0563 302.2516,182.8813 Q302.3578,182.775 302.4141,182.7438 Q302.4766,182.7125 302.5578,182.7125 Q302.6891,182.7125 302.7891,182.8188 Q302.8953,182.9188 302.8953,183.0563 Q302.8953,183.1938 302.7578,183.3563 Q302.5578,183.5875 302.2391,183.7188 Q301.8078,183.9 301.2891,183.9 Q300.6828,183.9 300.2016,183.65 Q299.8078,183.45 299.5328,183.025 Q299.2578,182.5938 299.2578,182.0813 L299.2578,181.6188 Q299.2578,181.0875 299.5016,180.6313 Q299.7516,180.1688 300.1891,179.925 Q300.6266,179.675 301.1203,179.675 Q301.4141,179.675 301.6703,179.7438 Q301.9328,179.8063 302.1516,179.95 Z " fill="#000000"/><text fill="#000000" font-family="sans-serif" font-size="5.6" lengthAdjust="spacing" textLength="17.4344" x="309.2453" y="183.9188">Station</text><line style="stroke:#181818;stroke-width:0.20000000000000004;" x1="258.8" x2="364.125" y1="188" y2="188"/><text fill="#000000" font-family="sans-serif" font-size="5.6" lengthAdjust="spacing" textLength="60.7059" x="260.8" y="195.643">-List&lt;Building&gt; buildings</text><text fill="#000000" font-family="sans-serif" font-size="5.6" lengthAdjust="spacing" textLength="4.6676" x="260.8" y="203.0914">...</text><line style="stroke:#181818;stroke-width:0.20000000000000004;" x1="258.8" x2="364.125" y1="206.0969" y2="206.0969"/><text fill="#000000" font-family="sans-serif" font-size="5.6" lengthAdjust="spacing" textLength="91.9953" x="260.8" y="213.7398">+addBuilding(building: Building): void</text><text fill="#000000" font-family="sans-serif" font-size="5.6" lengthAdjust="spacing" textLength="101.325" x="260.8" y="221.1883">+removeBuilding(building: Building): void</text><text fill="#000000" font-family="sans-serif" font-size="5.6" lengthAdjust="spacing" textLength="75.8023" x="260.8" y="228.6367">+getBuildings(): List&lt;Building&gt;</text><text fill="#000000" font-family="sans-serif" font-size="5.6" lengthAdjust="spacing" textLength="8.3973" x="260.8" y="236.0852">...()</text></g><!--class Building--><g id="elem_Building"><rect codeLine="16" fill="#F1F1F1" height="63.8906" id="Building" rx="1" ry="1" style="stroke:#181818;stroke-width:0.20000000000000004;" width="77.7969" x="285.8" y="278"/><ellipse cx="313.0357" cy="284.4" fill="#ADD1B2" rx="4.4" ry="4.4" style="stroke:#181818;stroke-width:0.4000000000000001;"/><path d="M314.142,282.75 Q314.2045,282.6625 314.2795,282.6188 Q314.3545,282.575 314.442,282.575 Q314.592,282.575 314.6857,282.6813 Q314.7795,282.7813 314.7795,283.025 L314.7795,283.6063 Q314.7795,283.85 314.6857,283.9563 Q314.592,284.0625 314.442,284.0625 Q314.3045,284.0625 314.2232,283.9813 Q314.142,283.9063 314.0982,283.7 Q314.0795,283.5563 314.0045,283.4813 Q313.8732,283.3313 313.6295,283.2438 Q313.3857,283.1563 313.1357,283.1563 Q312.8295,283.1563 312.5732,283.2875 Q312.3232,283.4188 312.1232,283.7188 Q311.9295,284.0188 311.9295,284.4313 L311.9295,284.8688 Q311.9295,285.3625 312.2857,285.6938 Q312.642,286.0188 313.2795,286.0188 Q313.6545,286.0188 313.917,285.9188 Q314.0732,285.8563 314.242,285.6813 Q314.3482,285.575 314.4045,285.5438 Q314.467,285.5125 314.5482,285.5125 Q314.6795,285.5125 314.7795,285.6188 Q314.8857,285.7188 314.8857,285.8563 Q314.8857,285.9938 314.7482,286.1563 Q314.5482,286.3875 314.2295,286.5188 Q313.7982,286.7 313.2795,286.7 Q312.6732,286.7 312.192,286.45 Q311.7982,286.25 311.5232,285.825 Q311.2482,285.3938 311.2482,284.8813 L311.2482,284.4188 Q311.2482,283.8875 311.492,283.4313 Q311.742,282.9688 312.1795,282.725 Q312.617,282.475 313.1107,282.475 Q313.4045,282.475 313.6607,282.5438 Q313.9232,282.6063 314.142,282.75 Z " fill="#000000"/><text fill="#000000" font-family="sans-serif" font-size="5.6" lengthAdjust="spacing" textLength="19.9254" x="321.2357" y="286.7188">Building</text><line style="stroke:#181818;stroke-width:0.20000000000000004;" x1="286.2" x2="363.1969" y1="290.8" y2="290.8"/><text fill="#000000" font-family="sans-serif" font-size="5.6" lengthAdjust="spacing" textLength="46.3805" x="288.2" y="298.443">-BuildingType type</text><line style="stroke:#181818;stroke-width:0.20000000000000004;" x1="286.2" x2="363.1969" y1="301.4484" y2="301.4484"/><text fill="#000000" font-family="sans-serif" font-size="5.6" lengthAdjust="spacing" textLength="72.9969" x="288.2" y="309.0914">+Building(type: BuildingType)</text><text fill="#000000" font-family="sans-serif" font-size="5.6" lengthAdjust="spacing" textLength="62.7211" x="288.2" y="316.5398">+getType(): BuildingType</text><text fill="#000000" font-family="sans-serif" font-size="5.6" lengthAdjust="spacing" textLength="47.4633" x="288.2" y="323.9883">+getName(): String</text><text fill="#000000" font-family="sans-serif" font-size="5.6" lengthAdjust="spacing" textLength="66.7625" x="288.2" y="331.4367">+getConstructionCost(): int</text><text fill="#000000" font-family="sans-serif" font-size="5.6" lengthAdjust="spacing" textLength="8.3973" x="288.2" y="338.8852">...()</text></g><!--class BuildingType--><g id="elem_BuildingType"><rect codeLine="27" fill="#F1F1F1" height="93.6844" id="BuildingType" rx="1" ry="1" style="stroke:#181818;stroke-width:0.20000000000000004;" width="50.8523" x="466.4" y="377.2"/><ellipse cx="474.9548" cy="383.6" fill="#EB937F" rx="4.4" ry="4.4" style="stroke:#181818;stroke-width:0.4000000000000001;"/><path d="M474.4986,383.9188 L474.4986,384.9188 L476.2298,384.9188 L476.2298,384.55 Q476.2298,384.3063 476.3236,384.2 Q476.4236,384.0938 476.5736,384.0938 Q476.7236,384.0938 476.8173,384.2 Q476.9111,384.3063 476.9111,384.55 L476.9111,385.6 L473.7111,385.6 Q473.4611,385.6 473.3548,385.5063 Q473.2548,385.4125 473.2548,385.2563 Q473.2548,385.1063 473.3611,385.0125 Q473.4673,384.9188 473.7111,384.9188 L473.8173,384.9188 L473.8173,382.2563 L473.7111,382.2563 Q473.4611,382.2563 473.3548,382.1625 Q473.2548,382.0688 473.2548,381.9125 Q473.2548,381.7625 473.3548,381.6688 Q473.4611,381.575 473.7111,381.575 L476.7611,381.575 L476.7611,382.6125 Q476.7611,382.8563 476.6673,382.9625 Q476.5798,383.0625 476.4236,383.0625 Q476.2736,383.0625 476.1798,382.9625 Q476.0861,382.8563 476.0861,382.6125 L476.0861,382.2563 L474.4986,382.2563 L474.4986,383.2375 L475.0923,383.2375 Q475.0923,382.975 475.1423,382.9 Q475.2486,382.7375 475.4361,382.7375 Q475.5861,382.7375 475.6798,382.8438 Q475.7736,382.9438 475.7736,383.1875 L475.7736,383.975 Q475.7736,384.1938 475.7236,384.2688 Q475.6173,384.425 475.4361,384.425 Q475.2486,384.425 475.1423,384.2625 Q475.0923,384.1875 475.0923,383.9188 L474.4986,383.9188 Z " fill="#000000"/><text fill="#000000" font-family="sans-serif" font-size="5.6" lengthAdjust="spacing" textLength="32.375" x="481.1225" y="385.9188">BuildingType</text><line style="stroke:#181818;stroke-width:0.20000000000000004;" x1="466.8" x2="516.8523" y1="390" y2="390"/><text fill="#000000" font-family="sans-serif" font-size="5.6" lengthAdjust="spacing" textLength="33.9199" x="468.8" y="397.643">TELEGRAPH</text><text fill="#000000" font-family="sans-serif" font-size="5.6" lengthAdjust="spacing" textLength="33.9199" x="468.8" y="405.0914">TELEPHONE</text><text fill="#000000" font-family="sans-serif" font-size="5.6" lengthAdjust="spacing" textLength="44.1902" x="468.8" y="412.5398">SMALL_COFFEE</text><text fill="#000000" font-family="sans-serif" font-size="5.6" lengthAdjust="spacing" textLength="44.8109" x="468.8" y="419.9883">LARGE_COFFEE</text><text fill="#000000" font-family="sans-serif" font-size="5.6" lengthAdjust="spacing" textLength="28" x="468.8" y="427.4367">CUSTOMS</text><text fill="#000000" font-family="sans-serif" font-size="5.6" lengthAdjust="spacing" textLength="35.7793" x="468.8" y="434.8852">POSTOFFICE</text><text fill="#000000" font-family="sans-serif" font-size="5.6" lengthAdjust="spacing" textLength="40.1488" x="468.8" y="442.3336">SMALL_HOTEL</text><text fill="#000000" font-family="sans-serif" font-size="5.6" lengthAdjust="spacing" textLength="40.7695" x="468.8" y="449.782">LARGE_HOTEL</text><text fill="#000000" font-family="sans-serif" font-size="5.6" lengthAdjust="spacing" textLength="12.7613" x="468.8" y="457.2305">SILO</text><text fill="#000000" font-family="sans-serif" font-size="5.6" lengthAdjust="spacing" textLength="46.0523" x="468.8" y="464.6789">LIQUIDSTORAGE</text><line style="stroke:#181818;stroke-width:0.20000000000000004;" x1="466.8" x2="516.8523" y1="467.6844" y2="467.6844"/></g><!--class AddUpgradeStationUI--><g id="elem_AddUpgradeStationUI"><rect codeLine="40" fill="#F1F1F1" height="41.5453" id="AddUpgradeStationUI" rx="1" ry="1" style="stroke:#181818;stroke-width:0.20000000000000004;" width="160.9055" x="437.4" y="2.8"/><ellipse cx="488.9129" cy="9.2" fill="#ADD1B2" rx="4.4" ry="4.4" style="stroke:#181818;stroke-width:0.4000000000000001;"/><path d="M490.0191,7.55 Q490.0816,7.4625 490.1566,7.4188 Q490.2316,7.375 490.3191,7.375 Q490.4691,7.375 490.5629,7.4813 Q490.6566,7.5813 490.6566,7.825 L490.6566,8.4063 Q490.6566,8.65 490.5629,8.7563 Q490.4691,8.8625 490.3191,8.8625 Q490.1816,8.8625 490.1004,8.7813 Q490.0191,8.7063 489.9754,8.5 Q489.9566,8.3563 489.8816,8.2813 Q489.7504,8.1313 489.5066,8.0438 Q489.2629,7.9563 489.0129,7.9563 Q488.7066,7.9563 488.4504,8.0875 Q488.2004,8.2188 488.0004,8.5188 Q487.8066,8.8188 487.8066,9.2313 L487.8066,9.6688 Q487.8066,10.1625 488.1629,10.4938 Q488.5191,10.8188 489.1566,10.8188 Q489.5316,10.8188 489.7941,10.7188 Q489.9504,10.6563 490.1191,10.4813 Q490.2254,10.375 490.2816,10.3438 Q490.3441,10.3125 490.4254,10.3125 Q490.5566,10.3125 490.6566,10.4188 Q490.7629,10.5188 490.7629,10.6563 Q490.7629,10.7938 490.6254,10.9563 Q490.4254,11.1875 490.1066,11.3188 Q489.6754,11.5 489.1566,11.5 Q488.5504,11.5 488.0691,11.25 Q487.6754,11.05 487.4004,10.625 Q487.1254,10.1938 487.1254,9.6813 L487.1254,9.2188 Q487.1254,8.6875 487.3691,8.2313 Q487.6191,7.7688 488.0566,7.525 Q488.4941,7.275 488.9879,7.275 Q489.2816,7.275 489.5379,7.3438 Q489.8004,7.4063 490.0191,7.55 Z " fill="#000000"/><text fill="#000000" font-family="sans-serif" font-size="5.6" lengthAdjust="spacing" textLength="54.4797" x="497.1129" y="11.5188">AddUpgradeStationUI</text><line style="stroke:#181818;stroke-width:0.20000000000000004;" x1="437.8" x2="597.9055" y1="15.6" y2="15.6"/><text fill="#000000" font-family="sans-serif" font-size="5.6" lengthAdjust="spacing" textLength="99.6078" x="439.8" y="23.243">-AddUpgradeStationController controller</text><line style="stroke:#181818;stroke-width:0.20000000000000004;" x1="437.8" x2="597.9055" y1="26.2484" y2="26.2484"/><text fill="#000000" font-family="sans-serif" font-size="5.6" lengthAdjust="spacing" textLength="156.1055" x="439.8" y="33.8914">+AddUpgradeStationUI(station: Station, simulation: Simulation)</text><text fill="#000000" font-family="sans-serif" font-size="5.6" lengthAdjust="spacing" textLength="28.4785" x="439.8" y="41.3398">+run(): void</text></g><!--class AddUpgradeStationController--><g id="elem_AddUpgradeStationController"><rect codeLine="46" fill="#F1F1F1" height="71.3391" id="AddUpgradeStationController" rx="1" ry="1" style="stroke:#181818;stroke-width:0.20000000000000004;" width="179.5813" x="428" y="68.8"/><ellipse cx="479.5129" cy="75.2" fill="#ADD1B2" rx="4.4" ry="4.4" style="stroke:#181818;stroke-width:0.4000000000000001;"/><path d="M480.6191,73.55 Q480.6816,73.4625 480.7566,73.4188 Q480.8316,73.375 480.9191,73.375 Q481.0691,73.375 481.1629,73.4813 Q481.2566,73.5813 481.2566,73.825 L481.2566,74.4063 Q481.2566,74.65 481.1629,74.7563 Q481.0691,74.8625 480.9191,74.8625 Q480.7816,74.8625 480.7004,74.7813 Q480.6191,74.7063 480.5754,74.5 Q480.5566,74.3563 480.4816,74.2813 Q480.3504,74.1313 480.1066,74.0438 Q479.8629,73.9563 479.6129,73.9563 Q479.3066,73.9563 479.0504,74.0875 Q478.8004,74.2188 478.6004,74.5188 Q478.4066,74.8188 478.4066,75.2313 L478.4066,75.6688 Q478.4066,76.1625 478.7629,76.4938 Q479.1191,76.8188 479.7566,76.8188 Q480.1316,76.8188 480.3941,76.7188 Q480.5504,76.6563 480.7191,76.4813 Q480.8254,76.375 480.8816,76.3438 Q480.9441,76.3125 481.0254,76.3125 Q481.1566,76.3125 481.2566,76.4188 Q481.3629,76.5188 481.3629,76.6563 Q481.3629,76.7938 481.2254,76.9563 Q481.0254,77.1875 480.7066,77.3188 Q480.2754,77.5 479.7566,77.5 Q479.1504,77.5 478.6691,77.25 Q478.2754,77.05 478.0004,76.625 Q477.7254,76.1938 477.7254,75.6813 L477.7254,75.2188 Q477.7254,74.6875 477.9691,74.2313 Q478.2191,73.7688 478.6566,73.525 Q479.0941,73.275 479.5879,73.275 Q479.8816,73.275 480.1379,73.3438 Q480.4004,73.4063 480.6191,73.55 Z " fill="#000000"/><text fill="#000000" font-family="sans-serif" font-size="5.6" lengthAdjust="spacing" textLength="73.1555" x="487.7129" y="77.5188">AddUpgradeStationController</text><line style="stroke:#181818;stroke-width:0.20000000000000004;" x1="428.4" x2="607.1813" y1="81.6" y2="81.6"/><text fill="#000000" font-family="sans-serif" font-size="5.6" lengthAdjust="spacing" textLength="37.3543" x="430.4" y="89.243">-Station station</text><text fill="#000000" font-family="sans-serif" font-size="5.6" lengthAdjust="spacing" textLength="54.7777" x="430.4" y="96.6914">-Simulation simulation</text><line style="stroke:#181818;stroke-width:0.20000000000000004;" x1="428.4" x2="607.1813" y1="99.6969" y2="99.6969"/><text fill="#000000" font-family="sans-serif" font-size="5.6" lengthAdjust="spacing" textLength="174.7813" x="430.4" y="107.3398">+AddUpgradeStationController(station: Station, simulation: Simulation)</text><text fill="#000000" font-family="sans-serif" font-size="5.6" lengthAdjust="spacing" textLength="94.7816" x="430.4" y="114.7883">+getAllBuildingTypes(): BuildingType[]</text><text fill="#000000" font-family="sans-serif" font-size="5.6" lengthAdjust="spacing" textLength="145.2199" x="430.4" y="122.2367">+addBuildingToStation(buildingType: BuildingType): String</text><text fill="#000000" font-family="sans-serif" font-size="5.6" lengthAdjust="spacing" textLength="52.7652" x="430.4" y="129.6852">+getStation(): Station</text><text fill="#000000" font-family="sans-serif" font-size="5.6" lengthAdjust="spacing" textLength="70.1887" x="430.4" y="137.1336">+getSimulation(): Simulation</text></g><!--class Simulation--><g id="elem_Simulation"><rect codeLine="56" fill="#F1F1F1" height="71.3391" id="Simulation" rx="1" ry="1" style="stroke:#181818;stroke-width:0.20000000000000004;" width="105.8051" x="390.4" y="171.6"/><ellipse cx="428.5295" cy="178" fill="#ADD1B2" rx="4.4" ry="4.4" style="stroke:#181818;stroke-width:0.4000000000000001;"/><path d="M429.6357,176.35 Q429.6982,176.2625 429.7732,176.2188 Q429.8482,176.175 429.9357,176.175 Q430.0857,176.175 430.1795,176.2813 Q430.2732,176.3813 430.2732,176.625 L430.2732,177.2063 Q430.2732,177.45 430.1795,177.5563 Q430.0857,177.6625 429.9357,177.6625 Q429.7982,177.6625 429.717,177.5813 Q429.6357,177.5063 429.592,177.3 Q429.5732,177.1563 429.4982,177.0813 Q429.367,176.9313 429.1232,176.8438 Q428.8795,176.7563 428.6295,176.7563 Q428.3232,176.7563 428.067,176.8875 Q427.817,177.0188 427.617,177.3188 Q427.4232,177.6188 427.4232,178.0313 L427.4232,178.4688 Q427.4232,178.9625 427.7795,179.2938 Q428.1357,179.6188 428.7732,179.6188 Q429.1482,179.6188 429.4107,179.5188 Q429.567,179.4563 429.7357,179.2813 Q429.842,179.175 429.8982,179.1438 Q429.9607,179.1125 430.042,179.1125 Q430.1732,179.1125 430.2732,179.2188 Q430.3795,179.3188 430.3795,179.4563 Q430.3795,179.5938 430.242,179.7563 Q430.042,179.9875 429.7232,180.1188 Q429.292,180.3 428.7732,180.3 Q428.167,180.3 427.6857,180.05 Q427.292,179.85 427.017,179.425 Q426.742,178.9938 426.742,178.4813 L426.742,178.0188 Q426.742,177.4875 426.9857,177.0313 Q427.2357,176.5688 427.6732,176.325 Q428.1107,176.075 428.6045,176.075 Q428.8982,176.075 429.1545,176.1438 Q429.417,176.2063 429.6357,176.35 Z " fill="#000000"/><text fill="#000000" font-family="sans-serif" font-size="5.6" lengthAdjust="spacing" textLength="26.1461" x="436.7295" y="180.3188">Simulation</text><line style="stroke:#181818;stroke-width:0.20000000000000004;" x1="390.8" x2="495.8051" y1="184.4" y2="184.4"/><text fill="#000000" font-family="sans-serif" font-size="5.6" lengthAdjust="spacing" textLength="39.2082" x="392.8" y="192.043">-int currentTime</text><text fill="#000000" font-family="sans-serif" font-size="5.6" lengthAdjust="spacing" textLength="41.0867" x="392.8" y="199.4914">-int actualMoney</text><line style="stroke:#181818;stroke-width:0.20000000000000004;" x1="390.8" x2="495.8051" y1="202.4969" y2="202.4969"/><text fill="#000000" font-family="sans-serif" font-size="5.6" lengthAdjust="spacing" textLength="8.3973" x="392.8" y="210.1398">...()</text><text fill="#000000" font-family="sans-serif" font-size="5.6" lengthAdjust="spacing" textLength="54.9281" x="392.8" y="217.5883">+getCurrentTime(): int</text><text fill="#000000" font-family="sans-serif" font-size="5.6" lengthAdjust="spacing" textLength="56.1832" x="392.8" y="225.0367">+getActualMoney(): int</text><text fill="#000000" font-family="sans-serif" font-size="5.6" lengthAdjust="spacing" textLength="101.0051" x="392.8" y="232.4852">+setActualMoney(actualMoney: int): void</text><text fill="#000000" font-family="sans-serif" font-size="5.6" lengthAdjust="spacing" textLength="8.3973" x="392.8" y="239.9336">...()</text></g><!--class Map--><g id="elem_Map"><rect codeLine="66" fill="#F1F1F1" height="56.4422" id="Map" rx="1" ry="1" style="stroke:#181818;stroke-width:0.20000000000000004;" width="119.2008" x="88.2" y="76.2"/><ellipse cx="140.6535" cy="82.6" fill="#ADD1B2" rx="4.4" ry="4.4" style="stroke:#181818;stroke-width:0.4000000000000001;"/><path d="M141.7598,80.95 Q141.8223,80.8625 141.8973,80.8188 Q141.9723,80.775 142.0598,80.775 Q142.2098,80.775 142.3035,80.8813 Q142.3973,80.9813 142.3973,81.225 L142.3973,81.8063 Q142.3973,82.05 142.3035,82.1563 Q142.2098,82.2625 142.0598,82.2625 Q141.9223,82.2625 141.841,82.1813 Q141.7598,82.1063 141.716,81.9 Q141.6973,81.7563 141.6223,81.6813 Q141.491,81.5313 141.2473,81.4438 Q141.0035,81.3563 140.7535,81.3563 Q140.4473,81.3563 140.191,81.4875 Q139.941,81.6188 139.741,81.9188 Q139.5473,82.2188 139.5473,82.6313 L139.5473,83.0688 Q139.5473,83.5625 139.9035,83.8938 Q140.2598,84.2188 140.8973,84.2188 Q141.2723,84.2188 141.5348,84.1188 Q141.691,84.0563 141.8598,83.8813 Q141.966,83.775 142.0223,83.7438 Q142.0848,83.7125 142.166,83.7125 Q142.2973,83.7125 142.3973,83.8188 Q142.5035,83.9188 142.5035,84.0563 Q142.5035,84.1938 142.366,84.3563 Q142.166,84.5875 141.8473,84.7188 Q141.416,84.9 140.8973,84.9 Q140.291,84.9 139.8098,84.65 Q139.416,84.45 139.141,84.025 Q138.866,83.5938 138.866,83.0813 L138.866,82.6188 Q138.866,82.0875 139.1098,81.6313 Q139.3598,81.1688 139.7973,80.925 Q140.2348,80.675 140.7285,80.675 Q141.0223,80.675 141.2785,80.7438 Q141.541,80.8063 141.7598,80.95 Z " fill="#000000"/><text fill="#000000" font-family="sans-serif" font-size="5.6" lengthAdjust="spacing" textLength="10.8938" x="148.8535" y="84.9188">Map</text><line style="stroke:#181818;stroke-width:0.20000000000000004;" x1="88.6" x2="207.0008" y1="89" y2="89"/><text fill="#000000" font-family="sans-serif" font-size="5.6" lengthAdjust="spacing" textLength="97.423" x="90.6" y="96.643">-List&lt;MapElement&gt; mapElementsUsed</text><text fill="#000000" font-family="sans-serif" font-size="5.6" lengthAdjust="spacing" textLength="4.6676" x="90.6" y="104.0914">...</text><line style="stroke:#181818;stroke-width:0.20000000000000004;" x1="88.6" x2="207.0008" y1="107.0969" y2="107.0969"/><text fill="#000000" font-family="sans-serif" font-size="5.6" lengthAdjust="spacing" textLength="114.4008" x="90.6" y="114.7398">+addElement(element: MapElement): boolean</text><text fill="#000000" font-family="sans-serif" font-size="5.6" lengthAdjust="spacing" textLength="99.4547" x="90.6" y="122.1883">+getOccupiedPositions(): List&lt;Position&gt;</text><text fill="#000000" font-family="sans-serif" font-size="5.6" lengthAdjust="spacing" textLength="8.3973" x="90.6" y="129.6367">...()</text></g><!--class MapElement--><g id="elem_MapElement"><rect codeLine="74" fill="#F1F1F1" height="71.3391" id="MapElement" rx="1" ry="1" style="stroke:#181818;stroke-width:0.20000000000000004;" width="104.2547" x="167.2" y="274.4"/><ellipse cx="201.9088" cy="280.8" fill="#A9DCDF" rx="4.4" ry="4.4" style="stroke:#181818;stroke-width:0.4000000000000001;"/><path d="M202.7838,281.5063 L201.1275,281.5063 L200.9588,281.9188 L201.1275,281.9188 Q201.3713,281.9188 201.4775,282.0125 Q201.5838,282.1063 201.5838,282.2625 Q201.5838,282.4125 201.4775,282.5063 Q201.3713,282.6 201.1275,282.6 L200.2088,282.6 Q199.965,282.6 199.865,282.5063 Q199.7588,282.4125 199.7588,282.2563 Q199.7588,282.1063 199.8713,282.0125 Q199.9775,281.9125 200.2275,281.9188 L201.2963,279.2563 L200.8525,279.2563 Q200.6088,279.2563 200.5025,279.1625 Q200.3963,279.0688 200.3963,278.9125 Q200.3963,278.7625 200.5025,278.6688 Q200.6088,278.575 200.8525,278.575 L202.3213,278.575 L203.6775,281.9188 Q203.915,281.9188 203.99,281.975 Q204.1463,282.0813 204.1463,282.2625 Q204.1463,282.4125 204.04,282.5063 Q203.94,282.6 203.6963,282.6 L202.7775,282.6 Q202.5338,282.6 202.4275,282.5063 Q202.3213,282.4125 202.3213,282.2563 Q202.3213,282.1063 202.4275,282.0125 Q202.5338,281.9188 202.7775,281.9188 L202.9463,281.9188 L202.7838,281.5063 Z M202.4963,280.825 L201.9525,279.475 L201.4025,280.825 L202.4963,280.825 Z " fill="#000000"/><text fill="#000000" font-family="sans-serif" font-size="5.6" font-style="italic" lengthAdjust="spacing" textLength="31.4371" x="210.1088" y="283.1188">MapElement</text><line style="stroke:#181818;stroke-width:0.20000000000000004;" x1="167.6" x2="271.0547" y1="287.2" y2="287.2"/><text fill="#000000" font-family="sans-serif" font-size="5.6" lengthAdjust="spacing" textLength="42.6453" x="169.6" y="294.843">-Position position</text><text fill="#000000" font-family="sans-serif" font-size="5.6" lengthAdjust="spacing" textLength="83.7375" x="169.6" y="302.2914">-List&lt;Position&gt; occupiedPositions</text><text fill="#000000" font-family="sans-serif" font-size="5.6" lengthAdjust="spacing" textLength="4.6676" x="169.6" y="309.7398">...</text><line style="stroke:#181818;stroke-width:0.20000000000000004;" x1="167.6" x2="271.0547" y1="312.7453" y2="312.7453"/><text fill="#000000" font-family="sans-serif" font-size="5.6" lengthAdjust="spacing" textLength="57.7418" x="169.6" y="320.3883">+getPosition(): Position</text><text fill="#000000" font-family="sans-serif" font-size="5.6" lengthAdjust="spacing" textLength="90.1141" x="169.6" y="327.8367">+setPosition(position: Position): void</text><text fill="#000000" font-family="sans-serif" font-size="5.6" lengthAdjust="spacing" textLength="99.4547" x="169.6" y="335.2852">+getOccupiedPositions(): List&lt;Position&gt;</text><text fill="#000000" font-family="sans-serif" font-size="5.6" lengthAdjust="spacing" textLength="8.3973" x="169.6" y="342.7336">...()</text></g><!--class Position--><g id="elem_Position"><rect codeLine="84" fill="#F1F1F1" height="63.8906" id="Position" rx="1" ry="1" style="stroke:#181818;stroke-width:0.20000000000000004;" width="58.4867" x="190.2" y="392"/><ellipse cx="207.7938" cy="398.4" fill="#ADD1B2" rx="4.4" ry="4.4" style="stroke:#181818;stroke-width:0.4000000000000001;"/><path d="M208.9001,396.75 Q208.9626,396.6625 209.0376,396.6188 Q209.1126,396.575 209.2001,396.575 Q209.3501,396.575 209.4438,396.6813 Q209.5376,396.7813 209.5376,397.025 L209.5376,397.6063 Q209.5376,397.85 209.4438,397.9563 Q209.3501,398.0625 209.2001,398.0625 Q209.0626,398.0625 208.9813,397.9813 Q208.9001,397.9063 208.8563,397.7 Q208.8376,397.5563 208.7626,397.4813 Q208.6313,397.3313 208.3876,397.2438 Q208.1438,397.1563 207.8938,397.1563 Q207.5876,397.1563 207.3313,397.2875 Q207.0813,397.4188 206.8813,397.7188 Q206.6876,398.0188 206.6876,398.4313 L206.6876,398.8688 Q206.6876,399.3625 207.0438,399.6938 Q207.4001,400.0188 208.0376,400.0188 Q208.4126,400.0188 208.6751,399.9188 Q208.8313,399.8563 209.0001,399.6813 Q209.1063,399.575 209.1626,399.5438 Q209.2251,399.5125 209.3063,399.5125 Q209.4376,399.5125 209.5376,399.6188 Q209.6438,399.7188 209.6438,399.8563 Q209.6438,399.9938 209.5063,400.1563 Q209.3063,400.3875 208.9876,400.5188 Q208.5563,400.7 208.0376,400.7 Q207.4313,400.7 206.9501,400.45 Q206.5563,400.25 206.2813,399.825 Q206.0063,399.3938 206.0063,398.8813 L206.0063,398.4188 Q206.0063,397.8875 206.2501,397.4313 Q206.5001,396.9688 206.9376,396.725 Q207.3751,396.475 207.8688,396.475 Q208.1626,396.475 208.4188,396.5438 Q208.6813,396.6063 208.9001,396.75 Z " fill="#000000"/><text fill="#000000" font-family="sans-serif" font-size="5.6" lengthAdjust="spacing" textLength="19.9227" x="215.9702" y="400.7188">Position</text><line style="stroke:#181818;stroke-width:0.20000000000000004;" x1="190.6" x2="248.2867" y1="404.8" y2="404.8"/><text fill="#000000" font-family="sans-serif" font-size="5.6" lengthAdjust="spacing" textLength="12.1352" x="192.6" y="412.443">-int x</text><text fill="#000000" font-family="sans-serif" font-size="5.6" lengthAdjust="spacing" textLength="12.1352" x="192.6" y="419.8914">-int y</text><line style="stroke:#181818;stroke-width:0.20000000000000004;" x1="190.6" x2="248.2867" y1="422.8969" y2="422.8969"/><text fill="#000000" font-family="sans-serif" font-size="5.6" lengthAdjust="spacing" textLength="53.6867" x="192.6" y="430.5398">+Position(x: int, y: int)</text><text fill="#000000" font-family="sans-serif" font-size="5.6" lengthAdjust="spacing" textLength="27.5461" x="192.6" y="437.9883">+getX(): int</text><text fill="#000000" font-family="sans-serif" font-size="5.6" lengthAdjust="spacing" textLength="27.5461" x="192.6" y="445.4367">+getY(): int</text><text fill="#000000" font-family="sans-serif" font-size="5.6" lengthAdjust="spacing" textLength="8.3973" x="192.6" y="452.8852">...()</text></g><g id="elem_GMN22"><path d="M377.6,301 L377.6,318.8328 L532.5496,318.8328 L532.5496,305 L528.5496,301 L377.6,301 " fill="#FEFFDD" style="stroke:#181818;stroke-width:0.20000000000000004;"/><path d="M528.5496,301 L528.5496,305 L532.5496,305 L528.5496,301 " fill="#FEFFDD" style="stroke:#181818;stroke-width:0.4000000000000001;"/><text fill="#000000" font-family="sans-serif" font-size="5.2" lengthAdjust="spacing" textLength="146.5496" x="380" y="308.6113">Building represents a specific building associated with a station,</text><text fill="#000000" font-family="sans-serif" font-size="5.2" lengthAdjust="spacing" textLength="128.9133" x="380" y="315.5277">defined by its type (BuildingType) and construction cost.</text></g><g id="elem_GMN25"><path d="M531.2,415 L531.2,422.4 L517.292,424 L531.2,425.6 L531.2,432.8328 A0,0 0 0 0 531.2,432.8328 L697.1285,432.8328 A0,0 0 0 0 697.1285,432.8328 L697.1285,419 L693.1285,415 L531.2,415 A0,0 0 0 0 531.2,415 " fill="#FEFFDD" style="stroke:#181818;stroke-width:0.20000000000000004;"/><path d="M693.1285,415 L693.1285,419 L697.1285,419 L693.1285,415 " fill="#FEFFDD" style="stroke:#181818;stroke-width:0.20000000000000004;"/><text fill="#000000" font-family="sans-serif" font-size="5.2" lengthAdjust="spacing" textLength="157.5285" x="533.6" y="422.6113">Enumeration of possible building types, with properties such as cost,</text><text fill="#000000" font-family="sans-serif" font-size="5.2" lengthAdjust="spacing" textLength="135.2863" x="533.6" y="429.5277">year of operation and replacement ratio between buildings.</text></g><g id="elem_GMN28"><path d="M221.6,95.4 L221.6,113.2328 A0,0 0 0 0 221.6,113.2328 L414.1379,113.2328 A0,0 0 0 0 414.1379,113.2328 L414.1379,106 L428,104.4 L414.1379,102.8 L414.1379,99.4 L410.1379,95.4 L221.6,95.4 A0,0 0 0 0 221.6,95.4 " fill="#FEFFDD" style="stroke:#181818;stroke-width:0.20000000000000004;"/><path d="M410.1379,95.4 L410.1379,99.4 L414.1379,99.4 L410.1379,95.4 " fill="#FEFFDD" style="stroke:#181818;stroke-width:0.20000000000000004;"/><text fill="#000000" font-family="sans-serif" font-size="5.2" lengthAdjust="spacing" textLength="184.1379" x="224" y="103.0113">Controller responsible for managing the logic of adding or upgrading buildings in</text><text fill="#000000" font-family="sans-serif" font-size="5.2" lengthAdjust="spacing" textLength="171.9885" x="224" y="109.9277">a station,  checking conditions such as available money and replacements.</text></g><g id="elem_GMN31"><path d="M30.6,198.2 L30.6,216.0328 A0,0 0 0 0 30.6,216.0328 L191.3361,216.0328 A0,0 0 0 0 191.3361,216.0328 L191.3361,202.2 L187.3361,198.2 L115.728,198.2 L137.744,132.672 L112.528,198.2 L30.6,198.2 A0,0 0 0 0 30.6,198.2 " fill="#FEFFDD" style="stroke:#181818;stroke-width:0.20000000000000004;"/><path d="M187.3361,198.2 L187.3361,202.2 L191.3361,202.2 L187.3361,198.2 " fill="#FEFFDD" style="stroke:#181818;stroke-width:0.20000000000000004;"/><text fill="#000000" font-family="sans-serif" font-size="5.2" lengthAdjust="spacing" textLength="152.3361" x="33" y="205.8113">Represents the game map, containing all the elements positioned,</text><text fill="#000000" font-family="sans-serif" font-size="5.2" lengthAdjust="spacing" textLength="95.39" x="33" y="212.7277">including stations and other MapElement.</text></g><g id="elem_GMN34"><path d="M2.4,301 L2.4,318.8328 A0,0 0 0 0 2.4,318.8328 L153.3023,318.8328 A0,0 0 0 0 153.3023,318.8328 L153.3023,311.6 L167.144,310 L153.3023,308.4 L153.3023,305 L149.3023,301 L2.4,301 A0,0 0 0 0 2.4,301 " fill="#FEFFDD" style="stroke:#181818;stroke-width:0.20000000000000004;"/><path d="M149.3023,301 L149.3023,305 L153.3023,305 L149.3023,301 " fill="#FEFFDD" style="stroke:#181818;stroke-width:0.20000000000000004;"/><text fill="#000000" font-family="sans-serif" font-size="5.2" lengthAdjust="spacing" textLength="142.5023" x="4.8" y="308.6113">Abstract class for any element that can be placed on the map,</text><text fill="#000000" font-family="sans-serif" font-size="5.2" lengthAdjust="spacing" textLength="83.2355" x="4.8" y="315.5277">such as stations, cities or industries.</text></g><!--link Station to Building--><g id="link_Station_Building"><path codeLine="94" d="M315.504,239.316 C317.092,251.596 318.5993,263.2479 320.1913,275.5239 " fill="none" id="Station-to-Building" style="stroke:#181818;stroke-width:0.4000000000000001;"/><polygon fill="#181818" points="320.5,277.904,321.6237,274.1281,320.2428,275.9206,318.4503,274.5397,320.5,277.904" style="stroke:#181818;stroke-width:0.4000000000000001;"/><text fill="#000000" font-family="sans-serif" font-size="5.2" lengthAdjust="spacing" textLength="8.384" x="318.6" y="260.8113">has</text><text fill="#000000" font-family="sans-serif" font-size="5.2" lengthAdjust="spacing" textLength="2.892" x="312.9266" y="247.8778">1</text><text fill="#000000" font-family="sans-serif" font-size="5.2" lengthAdjust="spacing" textLength="7.8051" x="312.1721" y="273.4534">0..*</text></g><!--link Building to BuildingType--><g id="link_Building_BuildingType"><path codeLine="95" d="M363.412,340.1 C367.724,343.4 370.6,345.6 370.6,345.6 C370.6,345.6 428.8338,383.0772 464.3738,405.9492 " fill="none" id="Building-to-BuildingType" style="stroke:#181818;stroke-width:0.4000000000000001;"/><polygon fill="#181818" points="466.392,407.248,464.2306,403.9543,464.7102,406.1657,462.4988,406.6452,466.392,407.248" style="stroke:#181818;stroke-width:0.4000000000000001;"/><text fill="#000000" font-family="sans-serif" font-size="5.2" lengthAdjust="spacing" textLength="9.8287" x="400.2" y="363.6113">type</text></g><!--link AddUpgradeStationUI to AddUpgradeStationController--><g id="link_AddUpgradeStationUI_AddUpgradeStationController"><path codeLine="96" d="M517.8,44.5 C517.8,51.86 517.8,57.988 517.8,66.244 " fill="none" id="AddUpgradeStationUI-to-AddUpgradeStationController" style="stroke:#181818;stroke-width:0.4000000000000001;stroke-dasharray:7.0,7.0;"/><polygon fill="#181818" points="517.8,68.644,519.4,65.044,517.8,66.644,516.2,65.044,517.8,68.644" style="stroke:#181818;stroke-width:0.4000000000000001;"/></g><!--link AddUpgradeStationController to Simulation--><g id="link_AddUpgradeStationController_Simulation"><path codeLine="97" d="M492.092,140.044 C484.656,150.236 477.9586,159.4212 470.5226,169.6132 " fill="none" id="AddUpgradeStationController-to-Simulation" style="stroke:#181818;stroke-width:0.4000000000000001;stroke-dasharray:7.0,7.0;"/><polygon fill="#181818" points="469.108,171.552,472.5224,169.5868,470.2868,169.9363,469.9373,167.7007,469.108,171.552" style="stroke:#181818;stroke-width:0.4000000000000001;"/></g><!--link AddUpgradeStationController to BuildingType--><g id="link_AddUpgradeStationController_BuildingType"><path codeLine="98" d="M522.288,140.044 C528.616,189.736 539.4,274.4 539.4,274.4 C539.4,274.4 539.4,345.6 539.4,345.6 C539.4,345.6 529.7941,361.3393 518.4541,379.9233 " fill="none" id="AddUpgradeStationController-to-BuildingType" style="stroke:#181818;stroke-width:0.4000000000000001;stroke-dasharray:7.0,7.0;"/><polygon fill="#181818" points="517.204,381.972,520.445,379.7324,518.2458,380.2647,517.7134,378.0655,517.204,381.972" style="stroke:#181818;stroke-width:0.4000000000000001;"/><text fill="#000000" font-family="sans-serif" font-size="5.2" lengthAdjust="spacing" textLength="10.984" x="537.8" y="260.8113">uses</text></g><!--link AddUpgradeStationController to Station--><g id="link_AddUpgradeStationController_Station"><path codeLine="99" d="M446.48,140.044 C419.564,153.348 391.5917,167.1729 366.6317,179.5049 " fill="none" id="AddUpgradeStationController-to-Station" style="stroke:#181818;stroke-width:0.4000000000000001;stroke-dasharray:7.0,7.0;"/><polygon fill="#181818" points="364.48,180.568,368.4163,180.4078,366.2731,179.6821,366.9988,177.5389,364.48,180.568" style="stroke:#181818;stroke-width:0.4000000000000001;"/></g><!--link AddUpgradeStationController to Building--><g id="link_AddUpgradeStationController_Building"><path codeLine="100" d="M514.112,140.16 C509.844,181.048 503.4,242.8 503.4,242.8 C503.4,242.8 370.6,274.4 370.6,274.4 C370.6,274.4 369.6299,275.1414 365.3179,278.4414 " fill="none" id="AddUpgradeStationController-to-Building" style="stroke:#181818;stroke-width:0.4000000000000001;stroke-dasharray:7.0,7.0;"/><polygon fill="#181818" points="363.412,279.9,367.2433,278.9827,365.0003,278.6845,365.2985,276.4415,363.412,279.9" style="stroke:#181818;stroke-width:0.4000000000000001;"/></g><!--link Station to MapElement--><g id="link_Station_MapElement"><path codeLine="102" d="M282.796,239.316 C272.772,250.424 263.0675,261.1858 252.7995,272.5698 " fill="none" id="Station-to-MapElement" style="stroke:#181818;stroke-width:0.4000000000000001;"/><polygon fill="#181818" points="251.192,274.352,254.7913,272.7504,252.5315,272.8669,252.4151,270.6071,251.192,274.352" style="stroke:#181818;stroke-width:0.4000000000000001;"/></g><!--link Map to MapElement--><g id="link_Map_MapElement"><path codeLine="103" d="M171.7747,136.5759 C185.5827,154.8799 198.2,171.6 198.2,171.6 C198.2,171.6 207.3237,230.9798 213.6037,271.8678 " fill="none" id="Map-MapElement" style="stroke:#181818;stroke-width:0.4000000000000001;"/><polygon fill="#181818" points="168.884,132.744,169.052,135.6235,171.7747,136.5759,171.6067,133.6964,168.884,132.744" style="stroke:#181818;stroke-width:0.4000000000000001;"/><polygon fill="#181818" points="213.968,274.24,215.0029,270.4388,213.6644,272.2632,211.84,270.9246,213.968,274.24" style="stroke:#181818;stroke-width:0.4000000000000001;"/><text fill="#000000" font-family="sans-serif" font-size="5.2" lengthAdjust="spacing" textLength="19.368" x="209.4" y="209.4113">contains</text><text fill="#000000" font-family="sans-serif" font-size="5.2" lengthAdjust="spacing" textLength="2.892" x="168.0261" y="141.4838">1</text><text fill="#000000" font-family="sans-serif" font-size="5.2" lengthAdjust="spacing" textLength="2.0236" x="211.4622" y="269.9299">*</text></g><!--link Map to Station--><g id="link_Map_Station"><path codeLine="104" d="M196.212,132.664 C213.964,142.884 229.8,152 229.8,152 C229.8,152 244.2035,161.6741 262.2955,173.8221 " fill="none" id="Map-to-Station" style="stroke:#181818;stroke-width:0.4000000000000001;"/><polygon fill="#181818" points="264.288,175.16,262.1912,171.8248,262.6276,174.0451,260.4073,174.4815,264.288,175.16" style="stroke:#181818;stroke-width:0.4000000000000001;"/><text fill="#000000" font-family="sans-serif" font-size="5.2" lengthAdjust="spacing" textLength="19.368" x="240.2" y="158.0113">contains</text><text fill="#000000" font-family="sans-serif" font-size="5.2" lengthAdjust="spacing" textLength="2.892" x="198.2648" y="141.5445">1</text><text fill="#000000" font-family="sans-serif" font-size="5.2" lengthAdjust="spacing" textLength="2.0236" x="257.848" y="170.7146">*</text></g><!--link MapElement to Position--><g id="link_MapElement_Position"><path codeLine="105" d="M219.4,345.752 C219.4,360.544 219.4,375.196 219.4,389.568 " fill="none" id="MapElement-to-Position" style="stroke:#181818;stroke-width:0.4000000000000001;"/><polygon fill="#181818" points="219.4,391.968,221,388.368,219.4,389.968,217.8,388.368,219.4,391.968" style="stroke:#181818;stroke-width:0.4000000000000001;"/><text fill="#000000" font-family="sans-serif" font-size="5.2" lengthAdjust="spacing" textLength="22.5494" x="219.8" y="363.6113">located at</text><text fill="#000000" font-family="sans-serif" font-size="5.2" lengthAdjust="spacing" textLength="2.892" x="216.4939" y="354.6047">1</text><text fill="#000000" font-family="sans-serif" font-size="5.2" lengthAdjust="spacing" textLength="2.892" x="216.4712" y="387.5233">1</text></g><!--link Building to GMN22--><g id="link_Building_GMN22"><path d="M363.416,310 C366.272,310 368.068,310 368.068,310 C368.068,310 372,310 377.5,310 " fill="none" id="Building-GMN22" style="stroke:#181818;stroke-width:0.4000000000000001;stroke-dasharray:7.0,7.0;"/></g><!--SRC=[bLPDR-Cs4BthLmnogRqR6-cb1wC8uBfEOi29Kyi6jYYAWfPecGX52YALhBVO_zuX9Nx8JhADBoOvmvatJuz3gYScAbAJ4YgIFP62flh8ATGqqqGKd2RAEwW3oUKB4mNi2LUnXJD1zR6YK4b-D9F8bd6Yr5JhckqQJHUP52dxHk4gINw2qMW4CsEd2d89s_Jg5xEMs3sGQgAP5F1l0lWRmP8f_Ujl3UCvOhY6NJTIrZmUZ-t_Po1vxfm6pcS2RcauWMV9yiwtfgLyfl_RlQ3Q6TG0JNr43iTWc7nFkXgSqHVX5ZQ6BiDPqiNs8CpYfESt3EdDr6IEpS7wG4fhJP5jKOJrcHHArqrcw9n9fOqF4pe2R11JqPHzV2tepNmvlrrF7-_yxF5kzJ2ti_H-kbp-CrlTtCpRXULqVJkF5sRRTBEwJ-tuSONZcvl5BDvyjyAGqTumJnVBLMjO_B5T_8vxrzFRUI1tckVRggX9JZkfR1SMykZSWWpeMd9EQyZyC37ql19aeDhHn4dm4XGh6-uM_NXe8zID63YTl8qjGj1YTFBkahLhFdIKyNMO8Tu7uQ8Uffp7trcTAkgllvEJaxIHNMn_HZRdCes4PzEuBKEFp5iy9ciCfNh-8YRSqK75GjRKDHLwmqeQhP9CDuJVIq6FaQQ3_CEcMFaj5M5htwRwjYY5zOeRmycPloTLlsVXmfpJ4Y5SG-d7QgjeVjwxEkk0jlyJ2BinvqvAJea8-5TPrbICvezICSDMw4jkvQGlaHss0gm6FDWkkiViDc8tRmTnBJugoDFC9xKWE6Soc1xZO9PURtLvWjDPs_rmcMrrlfHOGr-ZyR5BuR5yjL_t4hgl711yEPFEd-TjzBkxrTQq5Q-ozvaxwXS_N-3y6YwknkDF5-5ocC21gCHFZKkl3q_Qc-ArVZSUNx_N6vBt-f3P6vsz7xcUG6hmrlvnUFsns8ddof0Gn9cOGsNe-sJvG_8YuKviJoSC9UZSd5VgMcFiuVPvH_ptIfa0bndHD0UYtTTya1fVAFPJ9WB7KBFYe47k0swZ0Vy1QrhLL9ap3WHKHJEsPvb_i00gKsRCvdXX-c1ykiPjm-HqZq-e77P7O1Z1Fgm6lKOBHEIc8d-fuqJfCTxWEHXyRw7qhuKvNlMqReb6Env0nNRuxFCGJL9rsSAhQbdHMZEaG3KPmbKsNGlsI4bjGXYNDfx1XWHmahKissNOKVr2gGYljZEqdEujsFVKR1yKGJb8SeKiMEXxMMDp5QImy0yOJnP8EWR4fchMqDxOk6RYOU01jb73Dm383ZHxCbv8STws6ryvUIQC4vEmD7V1QRMzijgwTb9hMHeWA3sRQntaOO0M-6epzyAb4wdL2EVMs5q3oZTZchV4Cv7nnjRI0LSMYyHDTNGutgGvEbictBH_BHWsYJYwz0Y5e8dWzyD7lYaMCmaBq02t4Hn33WwMmwneC1GJUOFnSHRX-Gy0]--></g></svg>