<svg xmlns="http://www.w3.org/2000/svg" xmlns:xlink="http://www.w3.org/1999/xlink" contentStyleType="text/css" height="1328px" preserveAspectRatio="none" style="width:727px;height:1328px;background:#FFFFFF;" version="1.1" viewBox="0 0 727 1328" width="727px" zoomAndPan="magnify"><title>System Sequence Diagram (SSD) - US10 - Assign train to route</title><defs/><g><text fill="#000000" font-family="sans-serif" font-size="14" font-weight="bold" lengthAdjust="spacing" textLength="418.5439" x="161.4087" y="30.1074">System Sequence Diagram (SSD) - US10 - Assign train to route</text><rect fill="#FFFFFF" height="1103.2832" style="stroke:#181818;stroke-width:1.0;" width="10" x="47.8413" y="133.2422"/><rect fill="#FFFFFF" height="133.1641" style="stroke:#181818;stroke-width:1.0;" width="10" x="444.979" y="156.5332"/><rect fill="#FFFFFF" height="171.7949" style="stroke:#181818;stroke-width:1.0;" width="10" x="444.979" y="320.9883"/><rect fill="#FFFFFF" height="75.582" style="stroke:#181818;stroke-width:1.0;" width="10" x="444.979" y="516.0742"/><rect fill="#FFFFFF" height="31.291" style="stroke:#181818;stroke-width:1.0;" width="10" x="444.979" y="622.9473"/><rect fill="#FFFFFF" height="57.582" style="stroke:#181818;stroke-width:1.0;" width="10" x="444.979" y="685.5293"/><rect fill="#FFFFFF" height="177.4551" style="stroke:#181818;stroke-width:1.0;" width="10" x="444.979" y="774.4023"/><rect fill="#FFFFFF" height="244.377" style="stroke:#181818;stroke-width:1.0;" width="10" x="444.979" y="983.1484"/><rect fill="none" height="238.668" style="stroke:#000000;stroke-width:1.5;" width="628.897" x="10" y="247.1152"/><rect fill="none" height="142.7949" style="stroke:#000000;stroke-width:1.5;" width="608.897" x="20" y="335.9883"/><rect fill="none" height="452.4141" style="stroke:#000000;stroke-width:1.5;" width="698.9814" x="10" y="700.5293"/><rect fill="none" height="356.541" style="stroke:#000000;stroke-width:1.5;" width="678.9814" x="20" y="789.4023"/><line style="stroke:#181818;stroke-width:0.5;stroke-dasharray:5.0,5.0;" x1="52" x2="52" y1="123.2422" y2="1245.5254"/><line style="stroke:#181818;stroke-width:0.5;stroke-dasharray:5.0,5.0;" x1="449.6963" x2="449.6963" y1="123.2422" y2="1245.5254"/><text fill="#000000" font-family="sans-serif" font-size="14" lengthAdjust="spacing" textLength="39.6826" x="30" y="119.7285">Player</text><ellipse cx="52.8413" cy="53.1211" fill="#E3E3E3" rx="8" ry="8" style="stroke:#181818;stroke-width:0.5;"/><path d="M52.8413,61.1211 L52.8413,88.1211 M39.8413,69.1211 L65.8413,69.1211 M52.8413,88.1211 L39.8413,103.1211 M52.8413,88.1211 L65.8413,103.1211 " fill="none" style="stroke:#181818;stroke-width:0.5;"/><text fill="#000000" font-family="sans-serif" font-size="14" lengthAdjust="spacing" textLength="39.6826" x="30" y="1259.6328">Player</text><ellipse cx="52.8413" cy="1271.6465" fill="#E3E3E3" rx="8" ry="8" style="stroke:#181818;stroke-width:0.5;"/><path d="M52.8413,1279.6465 L52.8413,1306.6465 M39.8413,1287.6465 L65.8413,1287.6465 M52.8413,1306.6465 L39.8413,1321.6465 M52.8413,1306.6465 L65.8413,1321.6465 " fill="none" style="stroke:#181818;stroke-width:0.5;"/><rect fill="#E3E3E3" height="32.6211" rx="2.5" ry="2.5" style="stroke:#181818;stroke-width:0.5;" width="64.5654" x="417.6963" y="89.6211"/><text fill="#000000" font-family="sans-serif" font-size="14" lengthAdjust="spacing" textLength="50.5654" x="424.6963" y="111.7285">:System</text><rect fill="#E3E3E3" height="32.6211" rx="2.5" ry="2.5" style="stroke:#181818;stroke-width:0.5;" width="64.5654" x="417.6963" y="1244.5254"/><text fill="#000000" font-family="sans-serif" font-size="14" lengthAdjust="spacing" textLength="50.5654" x="424.6963" y="1266.6328">:System</text><rect fill="#FFFFFF" height="1103.2832" style="stroke:#181818;stroke-width:1.0;" width="10" x="47.8413" y="133.2422"/><rect fill="#FFFFFF" height="133.1641" style="stroke:#181818;stroke-width:1.0;" width="10" x="444.979" y="156.5332"/><rect fill="#FFFFFF" height="171.7949" style="stroke:#181818;stroke-width:1.0;" width="10" x="444.979" y="320.9883"/><rect fill="#FFFFFF" height="75.582" style="stroke:#181818;stroke-width:1.0;" width="10" x="444.979" y="516.0742"/><rect fill="#FFFFFF" height="31.291" style="stroke:#181818;stroke-width:1.0;" width="10" x="444.979" y="622.9473"/><rect fill="#FFFFFF" height="57.582" style="stroke:#181818;stroke-width:1.0;" width="10" x="444.979" y="685.5293"/><rect fill="#FFFFFF" height="177.4551" style="stroke:#181818;stroke-width:1.0;" width="10" x="444.979" y="774.4023"/><rect fill="#FFFFFF" height="244.377" style="stroke:#181818;stroke-width:1.0;" width="10" x="444.979" y="983.1484"/><polygon fill="#181818" points="432.979,152.5332,442.979,156.5332,432.979,160.5332,436.979,156.5332" style="stroke:#181818;stroke-width:1.0;"/><line style="stroke:#181818;stroke-width:1.0;" x1="57.8413" x2="438.979" y1="156.5332" y2="156.5332"/><text fill="#000000" font-family="sans-serif" font-size="13" font-weight="bold" lengthAdjust="spacing" textLength="7.23" x="64.8413" y="151.2705">1</text><text fill="#000000" font-family="sans-serif" font-size="13" lengthAdjust="spacing" textLength="143.0889" x="76.0713" y="151.2705">request to choose a train</text><line style="stroke:#181818;stroke-width:1.0;" x1="454.979" x2="496.979" y1="187.8242" y2="187.8242"/><line style="stroke:#181818;stroke-width:1.0;" x1="496.979" x2="496.979" y1="187.8242" y2="200.8242"/><line style="stroke:#181818;stroke-width:1.0;" x1="455.979" x2="496.979" y1="200.8242" y2="200.8242"/><polygon fill="#181818" points="465.979,196.8242,455.979,200.8242,465.979,204.8242,461.979,200.8242" style="stroke:#181818;stroke-width:1.0;"/><text fill="#000000" font-family="sans-serif" font-size="13" font-weight="bold" lengthAdjust="spacing" textLength="7.23" x="461.979" y="182.5615">2</text><text fill="#000000" font-family="sans-serif" font-size="13" lengthAdjust="spacing" textLength="114.1689" x="473.209" y="182.5615">loads existing trains</text><polygon fill="#181818" points="68.8413,228.1152,58.8413,232.1152,68.8413,236.1152,64.8413,232.1152" style="stroke:#181818;stroke-width:1.0;"/><line style="stroke:#181818;stroke-width:1.0;stroke-dasharray:2.0,2.0;" x1="62.8413" x2="443.979" y1="232.1152" y2="232.1152"/><text fill="#000000" font-family="sans-serif" font-size="13" font-weight="bold" lengthAdjust="spacing" textLength="7.23" x="74.8413" y="226.8525">3</text><text fill="#000000" font-family="sans-serif" font-size="13" lengthAdjust="spacing" textLength="117.7617" x="86.0713" y="226.8525">list the trains (US11)</text><path d="M10,247.1152 L82.4346,247.1152 L82.4346,256.4063 L72.4346,266.4063 L10,266.4063 L10,247.1152 " fill="#EEEEEE" style="stroke:#000000;stroke-width:1.5;"/><rect fill="none" height="238.668" style="stroke:#000000;stroke-width:1.5;" width="628.897" x="10" y="247.1152"/><text fill="#000000" font-family="sans-serif" font-size="13" font-weight="bold" lengthAdjust="spacing" textLength="27.4346" x="25" y="262.1436">loop</text><text fill="#000000" font-family="sans-serif" font-size="11" font-weight="bold" lengthAdjust="spacing" textLength="136.458" x="97.4346" y="260.9854">[While the train isn't valid]</text><polygon fill="#181818" points="68.8413,285.6973,58.8413,289.6973,68.8413,293.6973,64.8413,289.6973" style="stroke:#181818;stroke-width:1.0;"/><line style="stroke:#181818;stroke-width:1.0;stroke-dasharray:2.0,2.0;" x1="62.8413" x2="448.979" y1="289.6973" y2="289.6973"/><text fill="#000000" font-family="sans-serif" font-size="13" font-weight="bold" lengthAdjust="spacing" textLength="7.23" x="74.8413" y="284.4346">4</text><text fill="#000000" font-family="sans-serif" font-size="13" lengthAdjust="spacing" textLength="132.9707" x="86.0713" y="284.4346">request the train to use</text><polygon fill="#181818" points="432.979,316.9883,442.979,320.9883,432.979,324.9883,436.979,320.9883" style="stroke:#181818;stroke-width:1.0;"/><line style="stroke:#181818;stroke-width:1.0;" x1="57.8413" x2="438.979" y1="320.9883" y2="320.9883"/><text fill="#000000" font-family="sans-serif" font-size="13" font-weight="bold" lengthAdjust="spacing" textLength="7.23" x="64.8413" y="315.7256">5</text><text fill="#000000" font-family="sans-serif" font-size="13" lengthAdjust="spacing" textLength="317.2051" x="76.0713" y="315.7256">select train (assuming there is at least 1 train available)</text><path d="M20,335.9883 L80.1709,335.9883 L80.1709,345.2793 L70.1709,355.2793 L20,355.2793 L20,335.9883 " fill="#EEEEEE" style="stroke:#000000;stroke-width:1.5;"/><rect fill="none" height="142.7949" style="stroke:#000000;stroke-width:1.5;" width="608.897" x="20" y="335.9883"/><text fill="#000000" font-family="sans-serif" font-size="13" font-weight="bold" lengthAdjust="spacing" textLength="15.1709" x="35" y="351.0166">alt</text><text fill="#000000" font-family="sans-serif" font-size="11" font-weight="bold" lengthAdjust="spacing" textLength="60.5054" x="95.1709" y="349.8584">[Valid train]</text><line style="stroke:#181818;stroke-width:1.0;" x1="454.979" x2="496.979" y1="378.5703" y2="378.5703"/><line style="stroke:#181818;stroke-width:1.0;" x1="496.979" x2="496.979" y1="378.5703" y2="391.5703"/><line style="stroke:#181818;stroke-width:1.0;" x1="455.979" x2="496.979" y1="391.5703" y2="391.5703"/><polygon fill="#181818" points="465.979,387.5703,455.979,391.5703,465.979,395.5703,461.979,391.5703" style="stroke:#181818;stroke-width:1.0;"/><text fill="#000000" font-family="sans-serif" font-size="13" font-weight="bold" lengthAdjust="spacing" textLength="7.23" x="461.979" y="373.3076">6</text><text fill="#000000" font-family="sans-serif" font-size="13" lengthAdjust="spacing" textLength="133.688" x="473.209" y="373.3076">save the choice of train</text><polygon fill="#181818" points="68.8413,418.8613,58.8413,422.8613,68.8413,426.8613,64.8413,422.8613" style="stroke:#181818;stroke-width:1.0;"/><line style="stroke:#181818;stroke-width:1.0;stroke-dasharray:2.0,2.0;" x1="62.8413" x2="443.979" y1="422.8613" y2="422.8613"/><text fill="#000000" font-family="sans-serif" font-size="13" font-weight="bold" lengthAdjust="spacing" textLength="7.23" x="74.8413" y="417.5986">7</text><text fill="#000000" font-family="sans-serif" font-size="13" lengthAdjust="spacing" textLength="114.8799" x="86.0713" y="417.5986">returns confirmation</text><line style="stroke:#000000;stroke-width:1.0;stroke-dasharray:2.0,2.0;" x1="20" x2="628.897" y1="431.8613" y2="431.8613"/><text fill="#000000" font-family="sans-serif" font-size="11" font-weight="bold" lengthAdjust="spacing" textLength="69.0615" x="25" y="443.7314">[Invalid train]</text><polygon fill="#181818" points="68.8413,466.7832,58.8413,470.7832,68.8413,474.7832,64.8413,470.7832" style="stroke:#181818;stroke-width:1.0;"/><line style="stroke:#181818;stroke-width:1.0;stroke-dasharray:2.0,2.0;" x1="62.8413" x2="443.979" y1="470.7832" y2="470.7832"/><text fill="#000000" font-family="sans-serif" font-size="13" font-weight="bold" lengthAdjust="spacing" textLength="7.23" x="74.8413" y="465.5205">8</text><text fill="#000000" font-family="sans-serif" font-size="13" lengthAdjust="spacing" textLength="302.0405" x="86.0713" y="465.5205">returns message error and continues to show the list</text><polygon fill="#181818" points="432.979,512.0742,442.979,516.0742,432.979,520.0742,436.979,516.0742" style="stroke:#181818;stroke-width:1.0;"/><line style="stroke:#181818;stroke-width:1.0;" x1="57.8413" x2="438.979" y1="516.0742" y2="516.0742"/><text fill="#000000" font-family="sans-serif" font-size="13" font-weight="bold" lengthAdjust="spacing" textLength="7.23" x="64.8413" y="510.8115">9</text><text fill="#000000" font-family="sans-serif" font-size="13" lengthAdjust="spacing" textLength="141.6416" x="76.0713" y="510.8115">request to create a route</text><line style="stroke:#181818;stroke-width:1.0;" x1="454.979" x2="496.979" y1="547.3652" y2="547.3652"/><line style="stroke:#181818;stroke-width:1.0;" x1="496.979" x2="496.979" y1="547.3652" y2="560.3652"/><line style="stroke:#181818;stroke-width:1.0;" x1="455.979" x2="496.979" y1="560.3652" y2="560.3652"/><polygon fill="#181818" points="465.979,556.3652,455.979,560.3652,465.979,564.3652,461.979,560.3652" style="stroke:#181818;stroke-width:1.0;"/><text fill="#000000" font-family="sans-serif" font-size="13" font-weight="bold" lengthAdjust="spacing" textLength="14.46" x="461.979" y="542.1025">10</text><text fill="#000000" font-family="sans-serif" font-size="13" lengthAdjust="spacing" textLength="239.9224" x="480.439" y="542.1025">loads existing stations and possible cargo</text><polygon fill="#181818" points="68.8413,587.6563,58.8413,591.6563,68.8413,595.6563,64.8413,591.6563" style="stroke:#181818;stroke-width:1.0;"/><line style="stroke:#181818;stroke-width:1.0;stroke-dasharray:2.0,2.0;" x1="62.8413" x2="448.979" y1="591.6563" y2="591.6563"/><text fill="#000000" font-family="sans-serif" font-size="13" font-weight="bold" lengthAdjust="spacing" textLength="14.46" x="74.8413" y="586.3936">11</text><text fill="#000000" font-family="sans-serif" font-size="13" lengthAdjust="spacing" textLength="344.6777" x="93.3013" y="586.3936">list available stations (US7) and request for station selection</text><polygon fill="#181818" points="432.979,618.9473,442.979,622.9473,432.979,626.9473,436.979,622.9473" style="stroke:#181818;stroke-width:1.0;"/><line style="stroke:#181818;stroke-width:1.0;" x1="57.8413" x2="438.979" y1="622.9473" y2="622.9473"/><text fill="#000000" font-family="sans-serif" font-size="13" font-weight="bold" lengthAdjust="spacing" textLength="14.46" x="64.8413" y="617.6846">12</text><text fill="#000000" font-family="sans-serif" font-size="13" lengthAdjust="spacing" textLength="337.4287" x="83.3013" y="617.6846">select start station (assuming there are at least 2 stations))</text><polygon fill="#181818" points="68.8413,650.2383,58.8413,654.2383,68.8413,658.2383,64.8413,654.2383" style="stroke:#181818;stroke-width:1.0;"/><line style="stroke:#181818;stroke-width:1.0;stroke-dasharray:2.0,2.0;" x1="62.8413" x2="448.979" y1="654.2383" y2="654.2383"/><text fill="#000000" font-family="sans-serif" font-size="13" font-weight="bold" lengthAdjust="spacing" textLength="14.46" x="74.8413" y="648.9756">13</text><text fill="#000000" font-family="sans-serif" font-size="13" lengthAdjust="spacing" textLength="235.5933" x="93.3013" y="648.9756">request which cargo should be picked up</text><polygon fill="#181818" points="432.979,681.5293,442.979,685.5293,432.979,689.5293,436.979,685.5293" style="stroke:#181818;stroke-width:1.0;"/><line style="stroke:#181818;stroke-width:1.0;" x1="57.8413" x2="438.979" y1="685.5293" y2="685.5293"/><text fill="#000000" font-family="sans-serif" font-size="13" font-weight="bold" lengthAdjust="spacing" textLength="14.46" x="64.8413" y="680.2666">14</text><text fill="#000000" font-family="sans-serif" font-size="13" lengthAdjust="spacing" textLength="215.3315" x="83.3013" y="680.2666">select cargo for the respective station</text><path d="M10,700.5293 L82.4346,700.5293 L82.4346,709.8203 L72.4346,719.8203 L10,719.8203 L10,700.5293 " fill="#EEEEEE" style="stroke:#000000;stroke-width:1.5;"/><rect fill="none" height="452.4141" style="stroke:#000000;stroke-width:1.5;" width="698.9814" x="10" y="700.5293"/><text fill="#000000" font-family="sans-serif" font-size="13" font-weight="bold" lengthAdjust="spacing" textLength="27.4346" x="25" y="715.5576">loop</text><text fill="#000000" font-family="sans-serif" font-size="11" font-weight="bold" lengthAdjust="spacing" textLength="295.3779" x="97.4346" y="714.3994">[While the playerExample hasn't finished the selection operation]</text><polygon fill="#181818" points="68.8413,739.1113,58.8413,743.1113,68.8413,747.1113,64.8413,743.1113" style="stroke:#181818;stroke-width:1.0;"/><line style="stroke:#181818;stroke-width:1.0;stroke-dasharray:2.0,2.0;" x1="62.8413" x2="448.979" y1="743.1113" y2="743.1113"/><text fill="#000000" font-family="sans-serif" font-size="13" font-weight="bold" lengthAdjust="spacing" textLength="14.46" x="74.8413" y="737.8486">15</text><text fill="#000000" font-family="sans-serif" font-size="13" lengthAdjust="spacing" textLength="330.2368" x="93.3013" y="737.8486">lists the remaining stations and request to select a station</text><polygon fill="#181818" points="432.979,770.4023,442.979,774.4023,432.979,778.4023,436.979,774.4023" style="stroke:#181818;stroke-width:1.0;"/><line style="stroke:#181818;stroke-width:1.0;" x1="57.8413" x2="438.979" y1="774.4023" y2="774.4023"/><text fill="#000000" font-family="sans-serif" font-size="13" font-weight="bold" lengthAdjust="spacing" textLength="14.46" x="64.8413" y="769.1396">16</text><text fill="#000000" font-family="sans-serif" font-size="13" lengthAdjust="spacing" textLength="130.7998" x="83.3013" y="769.1396">select available station</text><path d="M20,789.4023 L80.1709,789.4023 L80.1709,798.6934 L70.1709,808.6934 L20,808.6934 L20,789.4023 " fill="#EEEEEE" style="stroke:#000000;stroke-width:1.5;"/><rect fill="none" height="356.541" style="stroke:#000000;stroke-width:1.5;" width="678.9814" x="20" y="789.4023"/><text fill="#000000" font-family="sans-serif" font-size="13" font-weight="bold" lengthAdjust="spacing" textLength="15.1709" x="35" y="804.4307">alt</text><text fill="#000000" font-family="sans-serif" font-size="11" font-weight="bold" lengthAdjust="spacing" textLength="311.1689" x="95.1709" y="803.2725">[There is a railway line between the last 2 selected stations]</text><line style="stroke:#181818;stroke-width:1.0;" x1="454.979" x2="496.979" y1="831.9844" y2="831.9844"/><line style="stroke:#181818;stroke-width:1.0;" x1="496.979" x2="496.979" y1="831.9844" y2="844.9844"/><line style="stroke:#181818;stroke-width:1.0;" x1="455.979" x2="496.979" y1="844.9844" y2="844.9844"/><polygon fill="#181818" points="465.979,840.9844,455.979,844.9844,465.979,848.9844,461.979,844.9844" style="stroke:#181818;stroke-width:1.0;"/><text fill="#000000" font-family="sans-serif" font-size="13" font-weight="bold" lengthAdjust="spacing" textLength="14.46" x="461.979" y="826.7217">17</text><text fill="#000000" font-family="sans-serif" font-size="13" lengthAdjust="spacing" textLength="146.7007" x="480.439" y="826.7217">save the choice of station</text><polygon fill="#181818" points="68.8413,872.2754,58.8413,876.2754,68.8413,880.2754,64.8413,876.2754" style="stroke:#181818;stroke-width:1.0;"/><line style="stroke:#181818;stroke-width:1.0;stroke-dasharray:2.0,2.0;" x1="62.8413" x2="443.979" y1="876.2754" y2="876.2754"/><text fill="#000000" font-family="sans-serif" font-size="13" font-weight="bold" lengthAdjust="spacing" textLength="14.46" x="74.8413" y="871.0127">18</text><text fill="#000000" font-family="sans-serif" font-size="13" lengthAdjust="spacing" textLength="114.8799" x="93.3013" y="871.0127">returns confirmation</text><line style="stroke:#181818;stroke-width:1.0;" x1="454.979" x2="496.979" y1="907.5664" y2="907.5664"/><line style="stroke:#181818;stroke-width:1.0;" x1="496.979" x2="496.979" y1="907.5664" y2="920.5664"/><line style="stroke:#181818;stroke-width:1.0;" x1="455.979" x2="496.979" y1="920.5664" y2="920.5664"/><polygon fill="#181818" points="465.979,916.5664,455.979,920.5664,465.979,924.5664,461.979,920.5664" style="stroke:#181818;stroke-width:1.0;"/><text fill="#000000" font-family="sans-serif" font-size="13" font-weight="bold" lengthAdjust="spacing" textLength="14.46" x="461.979" y="902.3037">19</text><text fill="#000000" font-family="sans-serif" font-size="13" lengthAdjust="spacing" textLength="196.5425" x="480.439" y="902.3037">check cargo availability at stations</text><polygon fill="#181818" points="68.8413,947.8574,58.8413,951.8574,68.8413,955.8574,64.8413,951.8574" style="stroke:#181818;stroke-width:1.0;"/><line style="stroke:#181818;stroke-width:1.0;stroke-dasharray:2.0,2.0;" x1="62.8413" x2="448.979" y1="951.8574" y2="951.8574"/><text fill="#000000" font-family="sans-serif" font-size="13" font-weight="bold" lengthAdjust="spacing" textLength="14.46" x="74.8413" y="946.5947">20</text><text fill="#000000" font-family="sans-serif" font-size="13" lengthAdjust="spacing" textLength="235.5933" x="93.3013" y="946.5947">request which cargo should be picked up</text><polygon fill="#181818" points="432.979,979.1484,442.979,983.1484,432.979,987.1484,436.979,983.1484" style="stroke:#181818;stroke-width:1.0;"/><line style="stroke:#181818;stroke-width:1.0;" x1="57.8413" x2="438.979" y1="983.1484" y2="983.1484"/><text fill="#000000" font-family="sans-serif" font-size="13" font-weight="bold" lengthAdjust="spacing" textLength="14.46" x="64.8413" y="977.8857">21</text><text fill="#000000" font-family="sans-serif" font-size="13" lengthAdjust="spacing" textLength="215.3315" x="83.3013" y="977.8857">select cargo for the respective station</text><line style="stroke:#181818;stroke-width:1.0;" x1="454.979" x2="496.979" y1="1014.4395" y2="1014.4395"/><line style="stroke:#181818;stroke-width:1.0;" x1="496.979" x2="496.979" y1="1014.4395" y2="1027.4395"/><line style="stroke:#181818;stroke-width:1.0;" x1="455.979" x2="496.979" y1="1027.4395" y2="1027.4395"/><polygon fill="#181818" points="465.979,1023.4395,455.979,1027.4395,465.979,1031.4395,461.979,1027.4395" style="stroke:#181818;stroke-width:1.0;"/><text fill="#000000" font-family="sans-serif" font-size="13" font-weight="bold" lengthAdjust="spacing" textLength="14.46" x="461.979" y="1009.1768">22</text><text fill="#000000" font-family="sans-serif" font-size="13" lengthAdjust="spacing" textLength="147.4307" x="480.439" y="1009.1768">validate and assign cargo</text><polygon fill="#181818" points="68.8413,1054.7305,58.8413,1058.7305,68.8413,1062.7305,64.8413,1058.7305" style="stroke:#181818;stroke-width:1.0;"/><line style="stroke:#181818;stroke-width:1.0;stroke-dasharray:2.0,2.0;" x1="62.8413" x2="443.979" y1="1058.7305" y2="1058.7305"/><text fill="#000000" font-family="sans-serif" font-size="13" font-weight="bold" lengthAdjust="spacing" textLength="14.46" x="74.8413" y="1053.4678">23</text><text fill="#000000" font-family="sans-serif" font-size="13" lengthAdjust="spacing" textLength="114.8799" x="93.3013" y="1053.4678">returns confirmation</text><line style="stroke:#000000;stroke-width:1.0;stroke-dasharray:2.0,2.0;" x1="20" x2="698.9814" y1="1067.7305" y2="1067.7305"/><text fill="#000000" font-family="sans-serif" font-size="11" font-weight="bold" lengthAdjust="spacing" textLength="134.0464" x="25" y="1079.6006">[There isn't a railway line]</text><polygon fill="#181818" points="68.8413,1102.6523,58.8413,1106.6523,68.8413,1110.6523,64.8413,1106.6523" style="stroke:#181818;stroke-width:1.0;"/><line style="stroke:#181818;stroke-width:1.0;stroke-dasharray:2.0,2.0;" x1="62.8413" x2="443.979" y1="1106.6523" y2="1106.6523"/><text fill="#000000" font-family="sans-serif" font-size="13" font-weight="bold" lengthAdjust="spacing" textLength="14.46" x="74.8413" y="1101.3896">24</text><text fill="#000000" font-family="sans-serif" font-size="13" lengthAdjust="spacing" textLength="127.8799" x="93.3013" y="1101.3896">returns message error</text><polygon fill="#181818" points="68.8413,1133.9434,58.8413,1137.9434,68.8413,1141.9434,64.8413,1137.9434" style="stroke:#181818;stroke-width:1.0;"/><line style="stroke:#181818;stroke-width:1.0;stroke-dasharray:2.0,2.0;" x1="62.8413" x2="443.979" y1="1137.9434" y2="1137.9434"/><text fill="#000000" font-family="sans-serif" font-size="13" font-weight="bold" lengthAdjust="spacing" textLength="14.46" x="74.8413" y="1132.6807">25</text><text fill="#000000" font-family="sans-serif" font-size="13" lengthAdjust="spacing" textLength="297.7368" x="93.3013" y="1132.6807">continues to show the list and request a new station</text><line style="stroke:#181818;stroke-width:1.0;" x1="454.979" x2="496.979" y1="1183.2344" y2="1183.2344"/><line style="stroke:#181818;stroke-width:1.0;" x1="496.979" x2="496.979" y1="1183.2344" y2="1196.2344"/><line style="stroke:#181818;stroke-width:1.0;" x1="455.979" x2="496.979" y1="1196.2344" y2="1196.2344"/><polygon fill="#181818" points="465.979,1192.2344,455.979,1196.2344,465.979,1200.2344,461.979,1196.2344" style="stroke:#181818;stroke-width:1.0;"/><text fill="#000000" font-family="sans-serif" font-size="13" font-weight="bold" lengthAdjust="spacing" textLength="14.46" x="461.979" y="1177.9717">26</text><text fill="#000000" font-family="sans-serif" font-size="13" lengthAdjust="spacing" textLength="82.3862" x="480.439" y="1177.9717">save the route</text><polygon fill="#181818" points="68.8413,1223.5254,58.8413,1227.5254,68.8413,1231.5254,64.8413,1227.5254" style="stroke:#181818;stroke-width:1.0;"/><line style="stroke:#181818;stroke-width:1.0;stroke-dasharray:2.0,2.0;" x1="62.8413" x2="448.979" y1="1227.5254" y2="1227.5254"/><text fill="#000000" font-family="sans-serif" font-size="13" font-weight="bold" lengthAdjust="spacing" textLength="14.46" x="74.8413" y="1222.2627">27</text><text fill="#000000" font-family="sans-serif" font-size="13" lengthAdjust="spacing" textLength="183.5107" x="93.3013" y="1222.2627">confirms successful assignment</text><!--SRC=[hLR9Rjim4BtxAmQvD3u4Q7efa4E10hdqLi1TpXDgR16cI9L3sVNVTqXHgXHRahC8S4n4ixxtPcZUQrkZnmegPvqglQi8WczenVsR6jKUTxG99qFWIGMqEpCqu18BTzHs1riqJAjLq45CDoSELC66_ZHa5S6Znbqqlzri7jTm1pytzn_bwokptbb9Ybh-El2k2H83c-1iKpsHbxCApiFDTuCdyZU03Ern9Vc3Lhf66-3ceKsOthV7vAaF6AXp07dQ8znzwIfyaAwaHWunlIgTOm9i2qeEVP0SDVulkmw368S50_tL728MoPz7ncATaukrZlbAodPmAt3ShvEvSQw6twKM37i3q6m_13YWqKKowfvBiVjsUczfh15cXeu5NUghUow0n6I4_1pm5fcRAlLPaYSf3p208PIqzza63wWDFXbQZqBFfKKJu5ViSG3_fMw7PU6XnKcOqo8pjrtm7ICL6Y_eAsUtsbSOj1ixaWWQljd3H4rpCIjYbha1ybxKYxQ8MKGQGataWqjtJ7L79OnpsfRYxlioKmiozXJjCO_J4lRBSkQGmE7KIEraQ8LOKEXtRZM7Hj9vhuJ_OKJldzSfM5VrLb3AhxFMXcHCotLQgXBDXpxcSybY_7IQ_THNjbvVZTQbcJkMMfKjBf7YnXJmH51hjQS2clfD_RHH8qvHDvwuZY0TUbGN2t-sMUesKubfjsorrLnAbV5LJm2uclpvNCpHpRcyIgRbJ3e3ZUQkyApywrRKF5PdaZlpNOeTTz6FVhc1pBuvuaawj2IKXYEHRUStwoVb5VYwTiy2Nh_0faf-zHgRIQzAKliihGoQDZgSucnSrSfRfk1bRB_JTBn411EWfViWBLYHDBQ_OCQxy5qeIxTFfy4uesCPlkYA6rr7LtbENrUZIKQmT9m4kRl4df_d1Y7_15oeBSB6m8rIqjcsCPc7YcoOk3R_0G00]--></g></svg>