<svg xmlns="http://www.w3.org/2000/svg" xmlns:xlink="http://www.w3.org/1999/xlink" contentStyleType="text/css" height="993px" preserveAspectRatio="none" style="width:1040px;height:993px;background:#FFFFFF;" version="1.1" viewBox="0 0 1040 993" width="1040px" zoomAndPan="magnify"><title>System Sequence Diagram (SSD) - US02</title><defs/><g><text fill="#000000" font-family="sans-serif" font-size="14" font-weight="bold" lengthAdjust="spacing" textLength="286.8086" x="383.9097" y="28.5352">System Sequence Diagram (SSD) - US02</text><rect fill="#FFFFFF" height="765.7422" style="stroke:#181818;stroke-width:1.0;" width="10" x="48.0054" y="128.9766"/><rect fill="#FFFFFF" height="95.9316" style="stroke:#181818;stroke-width:1.0;" width="10" x="371.2935" y="150.2871"/><rect fill="#FFFFFF" height="78.6211" style="stroke:#181818;stroke-width:1.0;" width="10" x="371.2935" y="275.5293"/><rect fill="#FFFFFF" height="149.5527" style="stroke:#181818;stroke-width:1.0;" width="10" x="371.2935" y="383.4609"/><rect fill="#FFFFFF" height="160.1973" style="stroke:#181818;stroke-width:1.0;" width="10" x="371.2935" y="562.3242"/><rect fill="#FFFFFF" height="142.8867" style="stroke:#181818;stroke-width:1.0;" width="10" x="371.2935" y="751.832"/><rect fill="none" height="75.9316" style="stroke:#000000;stroke-width:1.5;" width="399.5571" x="20" y="207.5977"/><rect fill="none" height="396.3262" style="stroke:#000000;stroke-width:1.5;" width="819.3682" x="10" y="427.7715"/><rect fill="none" height="175.5078" style="stroke:#000000;stroke-width:1.5;" width="698.5229" x="20" y="452.082"/><rect fill="none" height="175.5078" style="stroke:#000000;stroke-width:1.5;" width="799.3682" x="20" y="641.5898"/><line style="stroke:#181818;stroke-width:0.5;stroke-dasharray:5.0,5.0;" x1="53" x2="53" y1="118.9766" y2="912.7188"/><line style="stroke:#181818;stroke-width:0.5;stroke-dasharray:5.0,5.0;" x1="376.0298" x2="376.0298" y1="118.9766" y2="912.7188"/><text fill="#000000" font-family="sans-serif" font-size="14" lengthAdjust="spacing" textLength="40.0107" x="30" y="116.0234">Editor</text><ellipse cx="53.0054" cy="50.9883" fill="#E2E2F0" rx="8" ry="8" style="stroke:#181818;stroke-width:0.5;"/><path d="M53.0054,58.9883 L53.0054,85.9883 M40.0054,66.9883 L66.0054,66.9883 M53.0054,85.9883 L40.0054,100.9883 M53.0054,85.9883 L66.0054,100.9883 " fill="none" style="stroke:#181818;stroke-width:0.5;"/><text fill="#000000" font-family="sans-serif" font-size="14" lengthAdjust="spacing" textLength="40.0107" x="30" y="925.2539">Editor</text><ellipse cx="53.0054" cy="936.707" fill="#E2E2F0" rx="8" ry="8" style="stroke:#181818;stroke-width:0.5;"/><path d="M53.0054,944.707 L53.0054,971.707 M40.0054,952.707 L66.0054,952.707 M53.0054,971.707 L40.0054,986.707 M53.0054,971.707 L66.0054,986.707 " fill="none" style="stroke:#181818;stroke-width:0.5;"/><rect fill="#E2E2F0" height="30.4883" rx="2.5" ry="2.5" style="stroke:#181818;stroke-width:0.5;" width="66.5273" x="343.0298" y="87.4883"/><text fill="#000000" font-family="sans-serif" font-size="14" lengthAdjust="spacing" textLength="52.5273" x="350.0298" y="108.0234">:System</text><rect fill="#E2E2F0" height="30.4883" rx="2.5" ry="2.5" style="stroke:#181818;stroke-width:0.5;" width="66.5273" x="343.0298" y="911.7188"/><text fill="#000000" font-family="sans-serif" font-size="14" lengthAdjust="spacing" textLength="52.5273" x="350.0298" y="932.2539">:System</text><rect fill="#FFFFFF" height="765.7422" style="stroke:#181818;stroke-width:1.0;" width="10" x="48.0054" y="128.9766"/><rect fill="#FFFFFF" height="95.9316" style="stroke:#181818;stroke-width:1.0;" width="10" x="371.2935" y="150.2871"/><rect fill="#FFFFFF" height="78.6211" style="stroke:#181818;stroke-width:1.0;" width="10" x="371.2935" y="275.5293"/><rect fill="#FFFFFF" height="149.5527" style="stroke:#181818;stroke-width:1.0;" width="10" x="371.2935" y="383.4609"/><rect fill="#FFFFFF" height="160.1973" style="stroke:#181818;stroke-width:1.0;" width="10" x="371.2935" y="562.3242"/><rect fill="#FFFFFF" height="142.8867" style="stroke:#181818;stroke-width:1.0;" width="10" x="371.2935" y="751.832"/><polygon fill="#181818" points="359.2935,146.2871,369.2935,150.2871,359.2935,154.2871,363.2935,150.2871" style="stroke:#181818;stroke-width:1.0;"/><line style="stroke:#181818;stroke-width:1.0;" x1="58.0054" x2="365.2935" y1="150.2871" y2="150.2871"/><text fill="#000000" font-family="sans-serif" font-size="13" lengthAdjust="spacing" textLength="189.7886" x="65.0054" y="145.5449">1. Add an industry to the map</text><line style="stroke:#181818;stroke-width:1.0;" x1="381.2935" x2="423.2935" y1="179.5977" y2="179.5977"/><line style="stroke:#181818;stroke-width:1.0;" x1="423.2935" x2="423.2935" y1="179.5977" y2="192.5977"/><line style="stroke:#181818;stroke-width:1.0;" x1="382.2935" x2="423.2935" y1="192.5977" y2="192.5977"/><polygon fill="#181818" points="392.2935,188.5977,382.2935,192.5977,392.2935,196.5977,388.2935,192.5977" style="stroke:#181818;stroke-width:1.0;"/><text fill="#000000" font-family="sans-serif" font-size="13" lengthAdjust="spacing" textLength="249.4121" x="388.2935" y="174.8555">2.1 Check if a map is currently selected</text><path d="M20,207.5977 L82.1387,207.5977 L82.1387,214.9082 L72.1387,224.9082 L20,224.9082 L20,207.5977 " fill="#EEEEEE" style="stroke:#000000;stroke-width:1.5;"/><rect fill="none" height="75.9316" style="stroke:#000000;stroke-width:1.5;" width="399.5571" x="20" y="207.5977"/><text fill="#000000" font-family="sans-serif" font-size="13" font-weight="bold" lengthAdjust="spacing" textLength="17.1387" x="35" y="221.166">alt</text><text fill="#000000" font-family="sans-serif" font-size="11" font-weight="bold" lengthAdjust="spacing" textLength="102.04" x="97.1387" y="220.2324">[No map selected]</text><polygon fill="#181818" points="69.0054,242.2188,59.0054,246.2188,69.0054,250.2188,65.0054,246.2188" style="stroke:#181818;stroke-width:1.0;"/><line style="stroke:#181818;stroke-width:1.0;stroke-dasharray:2.0,2.0;" x1="63.0054" x2="375.2935" y1="246.2188" y2="246.2188"/><text fill="#000000" font-family="sans-serif" font-size="13" lengthAdjust="spacing" textLength="152.312" x="75.0054" y="241.4766">2.2 Show error message</text><polygon fill="#181818" points="359.2935,271.5293,369.2935,275.5293,359.2935,279.5293,363.2935,275.5293" style="stroke:#181818;stroke-width:1.0;"/><line style="stroke:#181818;stroke-width:1.0;" x1="58.0054" x2="365.2935" y1="275.5293" y2="275.5293"/><text fill="#000000" font-family="sans-serif" font-size="13" lengthAdjust="spacing" textLength="104.3364" x="65.0054" y="270.7871">2.3 Select a map</text><line style="stroke:#181818;stroke-width:1.0;" x1="381.2935" x2="423.2935" y1="311.8398" y2="311.8398"/><line style="stroke:#181818;stroke-width:1.0;" x1="423.2935" x2="423.2935" y1="311.8398" y2="324.8398"/><line style="stroke:#181818;stroke-width:1.0;" x1="382.2935" x2="423.2935" y1="324.8398" y2="324.8398"/><polygon fill="#181818" points="392.2935,320.8398,382.2935,324.8398,392.2935,328.8398,388.2935,324.8398" style="stroke:#181818;stroke-width:1.0;"/><text fill="#000000" font-family="sans-serif" font-size="13" lengthAdjust="spacing" textLength="645.3345" x="388.2935" y="307.0977">3.1 Show list of available industries (AC1: The industry must be selected from the available industries)</text><polygon fill="#181818" points="69.0054,350.1504,59.0054,354.1504,69.0054,358.1504,65.0054,354.1504" style="stroke:#181818;stroke-width:1.0;"/><line style="stroke:#181818;stroke-width:1.0;stroke-dasharray:2.0,2.0;" x1="63.0054" x2="375.2935" y1="354.1504" y2="354.1504"/><text fill="#000000" font-family="sans-serif" font-size="13" lengthAdjust="spacing" textLength="211.7324" x="75.0054" y="349.4082">Display list of available industries</text><polygon fill="#181818" points="359.2935,379.4609,369.2935,383.4609,359.2935,387.4609,363.2935,383.4609" style="stroke:#181818;stroke-width:1.0;"/><line style="stroke:#181818;stroke-width:1.0;" x1="58.0054" x2="365.2935" y1="383.4609" y2="383.4609"/><text fill="#000000" font-family="sans-serif" font-size="13" lengthAdjust="spacing" textLength="136.5825" x="65.0054" y="378.7188">3.2 Select an industry</text><polygon fill="#181818" points="359.2935,408.7715,369.2935,412.7715,359.2935,416.7715,363.2935,412.7715" style="stroke:#181818;stroke-width:1.0;"/><line style="stroke:#181818;stroke-width:1.0;" x1="58.0054" x2="365.2935" y1="412.7715" y2="412.7715"/><text fill="#000000" font-family="sans-serif" font-size="13" lengthAdjust="spacing" textLength="144.6821" x="65.0054" y="408.0293">4. Insert position (X, Y)</text><path d="M10,427.7715 L84.4468,427.7715 L84.4468,435.082 L74.4468,445.082 L10,445.082 L10,427.7715 " fill="#EEEEEE" style="stroke:#000000;stroke-width:1.5;"/><rect fill="none" height="396.3262" style="stroke:#000000;stroke-width:1.5;" width="819.3682" x="10" y="427.7715"/><text fill="#000000" font-family="sans-serif" font-size="13" font-weight="bold" lengthAdjust="spacing" textLength="29.4468" x="25" y="441.3398">loop</text><text fill="#000000" font-family="sans-serif" font-size="11" font-weight="bold" lengthAdjust="spacing" textLength="183.6592" x="99.4468" y="440.4063">[Until valid position is provided]</text><path d="M20,452.082 L82.1387,452.082 L82.1387,459.3926 L72.1387,469.3926 L20,469.3926 L20,452.082 " fill="#EEEEEE" style="stroke:#000000;stroke-width:1.5;"/><rect fill="none" height="175.5078" style="stroke:#000000;stroke-width:1.5;" width="698.5229" x="20" y="452.082"/><text fill="#000000" font-family="sans-serif" font-size="13" font-weight="bold" lengthAdjust="spacing" textLength="17.1387" x="35" y="465.6504">alt</text><text fill="#000000" font-family="sans-serif" font-size="11" font-weight="bold" lengthAdjust="spacing" textLength="165.4941" x="97.1387" y="464.7168">[Position out of map bounds]</text><line style="stroke:#181818;stroke-width:1.0;" x1="381.2935" x2="423.2935" y1="490.7031" y2="490.7031"/><line style="stroke:#181818;stroke-width:1.0;" x1="423.2935" x2="423.2935" y1="490.7031" y2="503.7031"/><line style="stroke:#181818;stroke-width:1.0;" x1="382.2935" x2="423.2935" y1="503.7031" y2="503.7031"/><polygon fill="#181818" points="392.2935,499.7031,382.2935,503.7031,392.2935,507.7031,388.2935,503.7031" style="stroke:#181818;stroke-width:1.0;"/><text fill="#000000" font-family="sans-serif" font-size="13" lengthAdjust="spacing" textLength="308.2295" x="388.2935" y="485.9609">5.1 Check if position (X, Y) is within map bounds</text><polygon fill="#181818" points="69.0054,529.0137,59.0054,533.0137,69.0054,537.0137,65.0054,533.0137" style="stroke:#181818;stroke-width:1.0;"/><line style="stroke:#181818;stroke-width:1.0;stroke-dasharray:2.0,2.0;" x1="63.0054" x2="375.2935" y1="533.0137" y2="533.0137"/><text fill="#000000" font-family="sans-serif" font-size="13" lengthAdjust="spacing" textLength="266.2334" x="75.0054" y="528.2715">5.1.1 Show error message (out of bounds)</text><polygon fill="#181818" points="359.2935,558.3242,369.2935,562.3242,359.2935,566.3242,363.2935,562.3242" style="stroke:#181818;stroke-width:1.0;"/><line style="stroke:#181818;stroke-width:1.0;" x1="58.0054" x2="365.2935" y1="562.3242" y2="562.3242"/><text fill="#000000" font-family="sans-serif" font-size="13" lengthAdjust="spacing" textLength="148.0591" x="65.0054" y="557.582">5.1.2 Re-enter position</text><line style="stroke:#000000;stroke-width:1.0;stroke-dasharray:2.0,2.0;" x1="20" x2="718.5229" y1="571.3242" y2="571.3242"/><text fill="#000000" font-family="sans-serif" font-size="11" font-weight="bold" lengthAdjust="spacing" textLength="139.0791" x="25" y="581.959">[Position within bounds]</text><line style="stroke:#181818;stroke-width:1.0;" x1="381.2935" x2="423.2935" y1="606.5898" y2="606.5898"/><line style="stroke:#181818;stroke-width:1.0;" x1="423.2935" x2="423.2935" y1="606.5898" y2="619.5898"/><line style="stroke:#181818;stroke-width:1.0;" x1="382.2935" x2="423.2935" y1="619.5898" y2="619.5898"/><polygon fill="#181818" points="392.2935,615.5898,382.2935,619.5898,392.2935,623.5898,388.2935,619.5898" style="stroke:#181818;stroke-width:1.0;"/><text fill="#000000" font-family="sans-serif" font-size="13" lengthAdjust="spacing" textLength="123.1128" x="388.2935" y="601.8477">5.1 Position is valid</text><path d="M20,641.5898 L82.1387,641.5898 L82.1387,648.9004 L72.1387,658.9004 L20,658.9004 L20,641.5898 " fill="#EEEEEE" style="stroke:#000000;stroke-width:1.5;"/><rect fill="none" height="175.5078" style="stroke:#000000;stroke-width:1.5;" width="799.3682" x="20" y="641.5898"/><text fill="#000000" font-family="sans-serif" font-size="13" font-weight="bold" lengthAdjust="spacing" textLength="17.1387" x="35" y="655.1582">alt</text><text fill="#000000" font-family="sans-serif" font-size="11" font-weight="bold" lengthAdjust="spacing" textLength="431.6963" x="97.1387" y="654.2246">[Position already occupied (AC2: Industries cannot overlap with each other)]</text><line style="stroke:#181818;stroke-width:1.0;" x1="381.2935" x2="423.2935" y1="680.2109" y2="680.2109"/><line style="stroke:#181818;stroke-width:1.0;" x1="423.2935" x2="423.2935" y1="680.2109" y2="693.2109"/><line style="stroke:#181818;stroke-width:1.0;" x1="382.2935" x2="423.2935" y1="693.2109" y2="693.2109"/><polygon fill="#181818" points="392.2935,689.2109,382.2935,693.2109,392.2935,697.2109,388.2935,693.2109" style="stroke:#181818;stroke-width:1.0;"/><text fill="#000000" font-family="sans-serif" font-size="13" lengthAdjust="spacing" textLength="409.0747" x="388.2935" y="675.4688">5.2 Check if position is not already occupied by another industry</text><polygon fill="#181818" points="69.0054,718.5215,59.0054,722.5215,69.0054,726.5215,65.0054,722.5215" style="stroke:#181818;stroke-width:1.0;"/><line style="stroke:#181818;stroke-width:1.0;stroke-dasharray:2.0,2.0;" x1="63.0054" x2="375.2935" y1="722.5215" y2="722.5215"/><text fill="#000000" font-family="sans-serif" font-size="13" lengthAdjust="spacing" textLength="289.2881" x="75.0054" y="717.7793">5.2.1 Show error message (position occupied)</text><polygon fill="#181818" points="359.2935,747.832,369.2935,751.832,359.2935,755.832,363.2935,751.832" style="stroke:#181818;stroke-width:1.0;"/><line style="stroke:#181818;stroke-width:1.0;" x1="58.0054" x2="365.2935" y1="751.832" y2="751.832"/><text fill="#000000" font-family="sans-serif" font-size="13" lengthAdjust="spacing" textLength="148.0591" x="65.0054" y="747.0898">5.2.2 Re-enter position</text><line style="stroke:#000000;stroke-width:1.0;stroke-dasharray:2.0,2.0;" x1="20" x2="819.3682" y1="760.832" y2="760.832"/><text fill="#000000" font-family="sans-serif" font-size="11" font-weight="bold" lengthAdjust="spacing" textLength="108.0234" x="25" y="771.4668">[Position available]</text><line style="stroke:#181818;stroke-width:1.0;" x1="381.2935" x2="423.2935" y1="796.0977" y2="796.0977"/><line style="stroke:#181818;stroke-width:1.0;" x1="423.2935" x2="423.2935" y1="796.0977" y2="809.0977"/><line style="stroke:#181818;stroke-width:1.0;" x1="382.2935" x2="423.2935" y1="809.0977" y2="809.0977"/><polygon fill="#181818" points="392.2935,805.0977,382.2935,809.0977,392.2935,813.0977,388.2935,809.0977" style="stroke:#181818;stroke-width:1.0;"/><text fill="#000000" font-family="sans-serif" font-size="13" lengthAdjust="spacing" textLength="148.4717" x="388.2935" y="791.3555">5.2 Position is available</text><line style="stroke:#181818;stroke-width:1.0;" x1="381.2935" x2="423.2935" y1="852.4082" y2="852.4082"/><line style="stroke:#181818;stroke-width:1.0;" x1="423.2935" x2="423.2935" y1="852.4082" y2="865.4082"/><line style="stroke:#181818;stroke-width:1.0;" x1="382.2935" x2="423.2935" y1="865.4082" y2="865.4082"/><polygon fill="#181818" points="392.2935,861.4082,382.2935,865.4082,392.2935,869.4082,388.2935,865.4082" style="stroke:#181818;stroke-width:1.0;"/><text fill="#000000" font-family="sans-serif" font-size="13" lengthAdjust="spacing" textLength="250.085" x="388.2935" y="847.666">6. Add industry to the selected position</text><polygon fill="#181818" points="64.0054,890.7188,54.0054,894.7188,64.0054,898.7188,60.0054,894.7188" style="stroke:#181818;stroke-width:1.0;"/><line style="stroke:#181818;stroke-width:1.0;stroke-dasharray:2.0,2.0;" x1="58.0054" x2="375.2935" y1="894.7188" y2="894.7188"/><text fill="#000000" font-family="sans-serif" font-size="13" lengthAdjust="spacing" textLength="179.7974" x="70.0054" y="889.9766">7. Display operation success</text><!--SRC=[fLNBRjim4BppAnOvsK1jn78VW0y1WhY7NegWQe3sI9ERY2X5gYJbG7_VfHwKuiXkqFeYc-REpiwCrrm4w-2pLFHW5NT12LLn4-1gbpS-O7a5t4FtbWKLDExwJv3ZxngDGDWh_kHu2OiytozX1G_vTSOO5q4TUS01d7LFMDqC03lOhE5MIk06b96r3ww1O24K22MlHeI-FUlhfWZPUWDt1OfVe1w1np9G7aJj79gW6_2eKGIKZEi0Nsrx8Pq1lGPC0kq9Hj0Cyi8-0pf71oLwpv-mlIxnb5KydHajMsz9eTYeezNUEwr58sUdsj9KBG6jV01BansvqloWSH1AeOV5xTrc1zyB7DKhwG47J2F2exDbA-WSmfBDJRzNljAykTYRlTPXpjzj5B8NOVIOlQNq_Hg-68ykG6Mz2ieQMFnu1p-NZ6bhAtWmGMauSgtaU8EihvmzAadcTeAJw_V3jxPkvuaHEDZQIDzUcOPWql_3D5Wd56AVPnKAPIw1JJKbjC7I5vc2HK-gmrWcaFcSdSbQHC_W6wuey-WIsrGo1uNQuoXDFytRPBcVoDqQq06QESsvTiXb0rQ8kb8KI0fjjYDhKue5DyQI1aTqciICJ826By1IRDtoCfbinYDY5G5VTJuq5C8MT4pYPS-oCvwbLWFsF_kM_QTlwRVvDvccdhqiYhwTsqCVk_rykfpJTacCv_Jxj4whn5ReUDlUrqAGZ7FxOtBK_sNy0G00]--></g></svg>