<svg xmlns="http://www.w3.org/2000/svg" xmlns:xlink="http://www.w3.org/1999/xlink" contentStyleType="text/css" height="1179px" preserveAspectRatio="none" style="width:828px;height:1179px;background:#FFFFFF;" version="1.1" viewBox="0 0 828 1179" width="828px" zoomAndPan="magnify"><title>System Sequence Diagram (SSD) - US12 - Create a simulator</title><defs/><g><text fill="#000000" font-family="sans-serif" font-size="14" font-weight="bold" lengthAdjust="spacing" textLength="403.8057" x="213.8391" y="30.1074">System Sequence Diagram (SSD) - US12 - Create a simulator</text><rect fill="#FFFFFF" height="954.5371" style="stroke:#181818;stroke-width:1.0;" width="10" x="47.8413" y="133.2422"/><rect fill="#FFFFFF" height="101.873" style="stroke:#181818;stroke-width:1.0;" width="10" x="428.3862" y="156.5332"/><rect fill="#FFFFFF" height="283.668" style="stroke:#181818;stroke-width:1.0;" width="10" x="428.3862" y="289.6973"/><rect fill="#FFFFFF" height="119.873" style="stroke:#181818;stroke-width:1.0;" width="10" x="428.3862" y="604.6563"/><rect fill="#FFFFFF" height="331.959" style="stroke:#181818;stroke-width:1.0;" width="10" x="428.3862" y="755.8203"/><rect fill="none" height="238.668" style="stroke:#000000;stroke-width:1.5;" width="636.1523" x="10" y="215.8242"/><rect fill="none" height="142.7949" style="stroke:#000000;stroke-width:1.5;" width="616.1523" x="20" y="304.6973"/><rect fill="none" height="308.959" style="stroke:#000000;stroke-width:1.5;" width="812.4839" x="10" y="770.8203"/><rect fill="none" height="275.668" style="stroke:#000000;stroke-width:1.5;" width="792.4839" x="20" y="797.1113"/><line style="stroke:#181818;stroke-width:0.5;stroke-dasharray:5.0,5.0;" x1="52" x2="52" y1="123.2422" y2="1096.7793"/><line style="stroke:#181818;stroke-width:0.5;stroke-dasharray:5.0,5.0;" x1="433.1035" x2="433.1035" y1="123.2422" y2="1096.7793"/><text fill="#000000" font-family="sans-serif" font-size="14" lengthAdjust="spacing" textLength="39.6826" x="30" y="119.7285">Player</text><ellipse cx="52.8413" cy="53.1211" fill="#E3E3E3" rx="8" ry="8" style="stroke:#181818;stroke-width:0.5;"/><path d="M52.8413,61.1211 L52.8413,88.1211 M39.8413,69.1211 L65.8413,69.1211 M52.8413,88.1211 L39.8413,103.1211 M52.8413,88.1211 L65.8413,103.1211 " fill="none" style="stroke:#181818;stroke-width:0.5;"/><text fill="#000000" font-family="sans-serif" font-size="14" lengthAdjust="spacing" textLength="39.6826" x="30" y="1110.8867">Player</text><ellipse cx="52.8413" cy="1122.9004" fill="#E3E3E3" rx="8" ry="8" style="stroke:#181818;stroke-width:0.5;"/><path d="M52.8413,1130.9004 L52.8413,1157.9004 M39.8413,1138.9004 L65.8413,1138.9004 M52.8413,1157.9004 L39.8413,1172.9004 M52.8413,1157.9004 L65.8413,1172.9004 " fill="none" style="stroke:#181818;stroke-width:0.5;"/><rect fill="#E3E3E3" height="32.6211" rx="2.5" ry="2.5" style="stroke:#181818;stroke-width:0.5;" width="64.5654" x="401.1035" y="89.6211"/><text fill="#000000" font-family="sans-serif" font-size="14" lengthAdjust="spacing" textLength="50.5654" x="408.1035" y="111.7285">:System</text><rect fill="#E3E3E3" height="32.6211" rx="2.5" ry="2.5" style="stroke:#181818;stroke-width:0.5;" width="64.5654" x="401.1035" y="1095.7793"/><text fill="#000000" font-family="sans-serif" font-size="14" lengthAdjust="spacing" textLength="50.5654" x="408.1035" y="1117.8867">:System</text><rect fill="#FFFFFF" height="954.5371" style="stroke:#181818;stroke-width:1.0;" width="10" x="47.8413" y="133.2422"/><rect fill="#FFFFFF" height="101.873" style="stroke:#181818;stroke-width:1.0;" width="10" x="428.3862" y="156.5332"/><rect fill="#FFFFFF" height="283.668" style="stroke:#181818;stroke-width:1.0;" width="10" x="428.3862" y="289.6973"/><rect fill="#FFFFFF" height="119.873" style="stroke:#181818;stroke-width:1.0;" width="10" x="428.3862" y="604.6563"/><rect fill="#FFFFFF" height="331.959" style="stroke:#181818;stroke-width:1.0;" width="10" x="428.3862" y="755.8203"/><polygon fill="#181818" points="416.3862,152.5332,426.3862,156.5332,416.3862,160.5332,420.3862,156.5332" style="stroke:#181818;stroke-width:1.0;"/><line style="stroke:#181818;stroke-width:1.0;" x1="57.8413" x2="422.3862" y1="156.5332" y2="156.5332"/><text fill="#000000" font-family="sans-serif" font-size="13" font-weight="bold" lengthAdjust="spacing" textLength="7.23" x="64.8413" y="151.2705">1</text><text fill="#000000" font-family="sans-serif" font-size="13" lengthAdjust="spacing" textLength="158.9644" x="76.0713" y="151.2705">start creating the simulation</text><line style="stroke:#181818;stroke-width:1.0;" x1="438.3862" x2="480.3862" y1="187.8242" y2="187.8242"/><line style="stroke:#181818;stroke-width:1.0;" x1="480.3862" x2="480.3862" y1="187.8242" y2="200.8242"/><line style="stroke:#181818;stroke-width:1.0;" x1="439.3862" x2="480.3862" y1="200.8242" y2="200.8242"/><polygon fill="#181818" points="449.3862,196.8242,439.3862,200.8242,449.3862,204.8242,445.3862,200.8242" style="stroke:#181818;stroke-width:1.0;"/><text fill="#000000" font-family="sans-serif" font-size="13" font-weight="bold" lengthAdjust="spacing" textLength="7.23" x="445.3862" y="182.5615">2</text><text fill="#000000" font-family="sans-serif" font-size="13" lengthAdjust="spacing" textLength="138.0171" x="456.6162" y="182.5615">loads existing scenarios</text><path d="M10,215.8242 L82.4346,215.8242 L82.4346,225.1152 L72.4346,235.1152 L10,235.1152 L10,215.8242 " fill="#EEEEEE" style="stroke:#000000;stroke-width:1.5;"/><rect fill="none" height="238.668" style="stroke:#000000;stroke-width:1.5;" width="636.1523" x="10" y="215.8242"/><text fill="#000000" font-family="sans-serif" font-size="13" font-weight="bold" lengthAdjust="spacing" textLength="27.4346" x="25" y="230.8525">loop</text><text fill="#000000" font-family="sans-serif" font-size="11" font-weight="bold" lengthAdjust="spacing" textLength="157.8672" x="97.4346" y="229.6943">[While the scenario isn't valid]</text><polygon fill="#181818" points="68.8413,254.4063,58.8413,258.4063,68.8413,262.4063,64.8413,258.4063" style="stroke:#181818;stroke-width:1.0;"/><line style="stroke:#181818;stroke-width:1.0;stroke-dasharray:2.0,2.0;" x1="62.8413" x2="432.3862" y1="258.4063" y2="258.4063"/><text fill="#000000" font-family="sans-serif" font-size="13" font-weight="bold" lengthAdjust="spacing" textLength="7.23" x="74.8413" y="253.1436">3</text><text fill="#000000" font-family="sans-serif" font-size="13" lengthAdjust="spacing" textLength="156.8188" x="86.0713" y="253.1436">request the scenario to use</text><polygon fill="#181818" points="416.3862,285.6973,426.3862,289.6973,416.3862,293.6973,420.3862,289.6973" style="stroke:#181818;stroke-width:1.0;"/><line style="stroke:#181818;stroke-width:1.0;" x1="57.8413" x2="422.3862" y1="289.6973" y2="289.6973"/><text fill="#000000" font-family="sans-serif" font-size="13" font-weight="bold" lengthAdjust="spacing" textLength="7.23" x="64.8413" y="284.4346">4</text><text fill="#000000" font-family="sans-serif" font-size="13" lengthAdjust="spacing" textLength="250.7261" x="76.0713" y="284.4346">select scenario (there is at least 1 scenario)</text><path d="M20,304.6973 L80.1709,304.6973 L80.1709,313.9883 L70.1709,323.9883 L20,323.9883 L20,304.6973 " fill="#EEEEEE" style="stroke:#000000;stroke-width:1.5;"/><rect fill="none" height="142.7949" style="stroke:#000000;stroke-width:1.5;" width="616.1523" x="20" y="304.6973"/><text fill="#000000" font-family="sans-serif" font-size="13" font-weight="bold" lengthAdjust="spacing" textLength="15.1709" x="35" y="319.7256">alt</text><text fill="#000000" font-family="sans-serif" font-size="11" font-weight="bold" lengthAdjust="spacing" textLength="81.9146" x="95.1709" y="318.5674">[Valid scenario]</text><line style="stroke:#181818;stroke-width:1.0;" x1="438.3862" x2="480.3862" y1="347.2793" y2="347.2793"/><line style="stroke:#181818;stroke-width:1.0;" x1="480.3862" x2="480.3862" y1="347.2793" y2="360.2793"/><line style="stroke:#181818;stroke-width:1.0;" x1="439.3862" x2="480.3862" y1="360.2793" y2="360.2793"/><polygon fill="#181818" points="449.3862,356.2793,439.3862,360.2793,449.3862,364.2793,445.3862,360.2793" style="stroke:#181818;stroke-width:1.0;"/><text fill="#000000" font-family="sans-serif" font-size="13" font-weight="bold" lengthAdjust="spacing" textLength="7.23" x="445.3862" y="342.0166">5</text><text fill="#000000" font-family="sans-serif" font-size="13" lengthAdjust="spacing" textLength="157.5361" x="456.6162" y="342.0166">save the choice of scenario</text><polygon fill="#181818" points="68.8413,387.5703,58.8413,391.5703,68.8413,395.5703,64.8413,391.5703" style="stroke:#181818;stroke-width:1.0;"/><line style="stroke:#181818;stroke-width:1.0;stroke-dasharray:2.0,2.0;" x1="62.8413" x2="427.3862" y1="391.5703" y2="391.5703"/><text fill="#000000" font-family="sans-serif" font-size="13" font-weight="bold" lengthAdjust="spacing" textLength="7.23" x="74.8413" y="386.3076">6</text><text fill="#000000" font-family="sans-serif" font-size="13" lengthAdjust="spacing" textLength="114.8799" x="86.0713" y="386.3076">returns confirmation</text><line style="stroke:#000000;stroke-width:1.0;stroke-dasharray:2.0,2.0;" x1="20" x2="636.1523" y1="400.5703" y2="400.5703"/><text fill="#000000" font-family="sans-serif" font-size="11" font-weight="bold" lengthAdjust="spacing" textLength="105.7192" x="25" y="412.4404">[Invalid Information]</text><polygon fill="#181818" points="68.8413,435.4922,58.8413,439.4922,68.8413,443.4922,64.8413,439.4922" style="stroke:#181818;stroke-width:1.0;"/><line style="stroke:#181818;stroke-width:1.0;stroke-dasharray:2.0,2.0;" x1="62.8413" x2="427.3862" y1="439.4922" y2="439.4922"/><text fill="#000000" font-family="sans-serif" font-size="13" font-weight="bold" lengthAdjust="spacing" textLength="7.23" x="74.8413" y="434.2295">7</text><text fill="#000000" font-family="sans-serif" font-size="13" lengthAdjust="spacing" textLength="127.8799" x="86.0713" y="434.2295">returns message error</text><line style="stroke:#181818;stroke-width:1.0;" x1="438.3862" x2="480.3862" y1="484.7832" y2="484.7832"/><line style="stroke:#181818;stroke-width:1.0;" x1="480.3862" x2="480.3862" y1="484.7832" y2="497.7832"/><line style="stroke:#181818;stroke-width:1.0;" x1="439.3862" x2="480.3862" y1="497.7832" y2="497.7832"/><polygon fill="#181818" points="449.3862,493.7832,439.3862,497.7832,449.3862,501.7832,445.3862,497.7832" style="stroke:#181818;stroke-width:1.0;"/><text fill="#000000" font-family="sans-serif" font-size="13" font-weight="bold" lengthAdjust="spacing" textLength="7.23" x="445.3862" y="479.5205">8</text><text fill="#000000" font-family="sans-serif" font-size="13" lengthAdjust="spacing" textLength="138.0234" x="456.6162" y="479.5205">load the respective map</text><line style="stroke:#181818;stroke-width:1.0;" x1="438.3862" x2="480.3862" y1="529.0742" y2="529.0742"/><line style="stroke:#181818;stroke-width:1.0;" x1="480.3862" x2="480.3862" y1="529.0742" y2="542.0742"/><line style="stroke:#181818;stroke-width:1.0;" x1="439.3862" x2="480.3862" y1="542.0742" y2="542.0742"/><polygon fill="#181818" points="449.3862,538.0742,439.3862,542.0742,449.3862,546.0742,445.3862,542.0742" style="stroke:#181818;stroke-width:1.0;"/><text fill="#000000" font-family="sans-serif" font-size="13" font-weight="bold" lengthAdjust="spacing" textLength="7.23" x="445.3862" y="523.8115">9</text><text fill="#000000" font-family="sans-serif" font-size="13" lengthAdjust="spacing" textLength="109.1099" x="456.6162" y="523.8115">create a simulation</text><polygon fill="#181818" points="68.8413,569.3652,58.8413,573.3652,68.8413,577.3652,64.8413,573.3652" style="stroke:#181818;stroke-width:1.0;"/><line style="stroke:#181818;stroke-width:1.0;stroke-dasharray:2.0,2.0;" x1="62.8413" x2="432.3862" y1="573.3652" y2="573.3652"/><text fill="#000000" font-family="sans-serif" font-size="13" font-weight="bold" lengthAdjust="spacing" textLength="14.46" x="74.8413" y="568.1025">10</text><text fill="#000000" font-family="sans-serif" font-size="13" lengthAdjust="spacing" textLength="179.188" x="93.3013" y="568.1025">simulation successfully created</text><polygon fill="#181818" points="416.3862,600.6563,426.3862,604.6563,416.3862,608.6563,420.3862,604.6563" style="stroke:#181818;stroke-width:1.0;"/><line style="stroke:#181818;stroke-width:1.0;" x1="57.8413" x2="422.3862" y1="604.6563" y2="604.6563"/><text fill="#000000" font-family="sans-serif" font-size="13" font-weight="bold" lengthAdjust="spacing" textLength="14.46" x="64.8413" y="599.3936">11</text><text fill="#000000" font-family="sans-serif" font-size="13" lengthAdjust="spacing" textLength="166.1943" x="83.3013" y="599.3936">requests a simulation startup</text><line style="stroke:#181818;stroke-width:1.0;" x1="438.3862" x2="480.3862" y1="635.9473" y2="635.9473"/><line style="stroke:#181818;stroke-width:1.0;" x1="480.3862" x2="480.3862" y1="635.9473" y2="648.9473"/><line style="stroke:#181818;stroke-width:1.0;" x1="439.3862" x2="480.3862" y1="648.9473" y2="648.9473"/><polygon fill="#181818" points="449.3862,644.9473,439.3862,648.9473,449.3862,652.9473,445.3862,648.9473" style="stroke:#181818;stroke-width:1.0;"/><text fill="#000000" font-family="sans-serif" font-size="13" font-weight="bold" lengthAdjust="spacing" textLength="14.46" x="445.3862" y="630.6846">12</text><text fill="#000000" font-family="sans-serif" font-size="13" lengthAdjust="spacing" textLength="151.7598" x="463.8462" y="630.6846">load network configuration</text><line style="stroke:#181818;stroke-width:1.0;" x1="438.3862" x2="480.3862" y1="680.2383" y2="680.2383"/><line style="stroke:#181818;stroke-width:1.0;" x1="480.3862" x2="480.3862" y1="680.2383" y2="693.2383"/><line style="stroke:#181818;stroke-width:1.0;" x1="439.3862" x2="480.3862" y1="693.2383" y2="693.2383"/><polygon fill="#181818" points="449.3862,689.2383,439.3862,693.2383,449.3862,697.2383,445.3862,693.2383" style="stroke:#181818;stroke-width:1.0;"/><text fill="#000000" font-family="sans-serif" font-size="13" font-weight="bold" lengthAdjust="spacing" textLength="14.46" x="445.3862" y="674.9756">13</text><text fill="#000000" font-family="sans-serif" font-size="13" lengthAdjust="spacing" textLength="265.8906" x="463.8462" y="674.9756">initialize cargo generation rules (24 maximum)</text><polygon fill="#181818" points="68.8413,720.5293,58.8413,724.5293,68.8413,728.5293,64.8413,724.5293" style="stroke:#181818;stroke-width:1.0;"/><line style="stroke:#181818;stroke-width:1.0;stroke-dasharray:2.0,2.0;" x1="62.8413" x2="432.3862" y1="724.5293" y2="724.5293"/><text fill="#000000" font-family="sans-serif" font-size="13" font-weight="bold" lengthAdjust="spacing" textLength="14.46" x="74.8413" y="719.2666">14</text><text fill="#000000" font-family="sans-serif" font-size="13" lengthAdjust="spacing" textLength="171.2471" x="93.3013" y="719.2666">shows simulator control panel</text><polygon fill="#181818" points="416.3862,751.8203,426.3862,755.8203,416.3862,759.8203,420.3862,755.8203" style="stroke:#181818;stroke-width:1.0;"/><line style="stroke:#181818;stroke-width:1.0;" x1="57.8413" x2="422.3862" y1="755.8203" y2="755.8203"/><text fill="#000000" font-family="sans-serif" font-size="13" font-weight="bold" lengthAdjust="spacing" textLength="14.46" x="64.8413" y="750.5576">15</text><text fill="#000000" font-family="sans-serif" font-size="13" lengthAdjust="spacing" textLength="93.9199" x="83.3013" y="750.5576">starts simulation</text><path d="M10,770.8203 L82.4346,770.8203 L82.4346,780.1113 L72.4346,790.1113 L10,790.1113 L10,770.8203 " fill="#EEEEEE" style="stroke:#000000;stroke-width:1.5;"/><rect fill="none" height="308.959" style="stroke:#000000;stroke-width:1.5;" width="812.4839" x="10" y="770.8203"/><text fill="#000000" font-family="sans-serif" font-size="13" font-weight="bold" lengthAdjust="spacing" textLength="27.4346" x="25" y="785.8486">loop</text><text fill="#000000" font-family="sans-serif" font-size="11" font-weight="bold" lengthAdjust="spacing" textLength="155.2568" x="97.4346" y="784.6904">[While the simulator is active]</text><path d="M20,797.1113 L80.1709,797.1113 L80.1709,806.4023 L70.1709,816.4023 L20,816.4023 L20,797.1113 " fill="#EEEEEE" style="stroke:#000000;stroke-width:1.5;"/><rect fill="none" height="275.668" style="stroke:#000000;stroke-width:1.5;" width="792.4839" x="20" y="797.1113"/><text fill="#000000" font-family="sans-serif" font-size="13" font-weight="bold" lengthAdjust="spacing" textLength="15.1709" x="35" y="812.1396">alt</text><text fill="#000000" font-family="sans-serif" font-size="11" font-weight="bold" lengthAdjust="spacing" textLength="84.9814" x="95.1709" y="810.9814">[Pause pressed]</text><line style="stroke:#181818;stroke-width:1.0;" x1="438.3862" x2="480.3862" y1="839.6934" y2="839.6934"/><line style="stroke:#181818;stroke-width:1.0;" x1="480.3862" x2="480.3862" y1="839.6934" y2="852.6934"/><line style="stroke:#181818;stroke-width:1.0;" x1="439.3862" x2="480.3862" y1="852.6934" y2="852.6934"/><polygon fill="#181818" points="449.3862,848.6934,439.3862,852.6934,449.3862,856.6934,445.3862,852.6934" style="stroke:#181818;stroke-width:1.0;"/><text fill="#000000" font-family="sans-serif" font-size="13" font-weight="bold" lengthAdjust="spacing" textLength="14.46" x="445.3862" y="834.4307">16</text><text fill="#000000" font-family="sans-serif" font-size="13" lengthAdjust="spacing" textLength="212.4878" x="463.8462" y="834.4307">freeze cargo generation and updates</text><polygon fill="#181818" points="68.8413,879.9844,58.8413,883.9844,68.8413,887.9844,64.8413,883.9844" style="stroke:#181818;stroke-width:1.0;"/><line style="stroke:#181818;stroke-width:1.0;stroke-dasharray:2.0,2.0;" x1="62.8413" x2="427.3862" y1="883.9844" y2="883.9844"/><text fill="#000000" font-family="sans-serif" font-size="13" font-weight="bold" lengthAdjust="spacing" textLength="14.46" x="74.8413" y="878.7217">17</text><text fill="#000000" font-family="sans-serif" font-size="13" lengthAdjust="spacing" textLength="328.085" x="93.3013" y="878.7217">shows paused status, display generated cargo info so far</text><line style="stroke:#000000;stroke-width:1.0;stroke-dasharray:2.0,2.0;" x1="20" x2="812.4839" y1="892.9844" y2="892.9844"/><text fill="#000000" font-family="sans-serif" font-size="11" font-weight="bold" lengthAdjust="spacing" textLength="77.6338" x="25" y="904.8545">[Start pressed]</text><line style="stroke:#181818;stroke-width:1.0;" x1="438.3862" x2="480.3862" y1="931.9063" y2="931.9063"/><line style="stroke:#181818;stroke-width:1.0;" x1="480.3862" x2="480.3862" y1="931.9063" y2="944.9063"/><line style="stroke:#181818;stroke-width:1.0;" x1="439.3862" x2="480.3862" y1="944.9063" y2="944.9063"/><polygon fill="#181818" points="449.3862,940.9063,439.3862,944.9063,449.3862,948.9063,445.3862,944.9063" style="stroke:#181818;stroke-width:1.0;"/><text fill="#000000" font-family="sans-serif" font-size="13" font-weight="bold" lengthAdjust="spacing" textLength="14.46" x="445.3862" y="926.6436">18</text><text fill="#000000" font-family="sans-serif" font-size="13" lengthAdjust="spacing" textLength="326.6377" x="463.8462" y="926.6436">generate cargoes for stations based on city/industry data</text><line style="stroke:#181818;stroke-width:1.0;" x1="438.3862" x2="480.3862" y1="976.1973" y2="976.1973"/><line style="stroke:#181818;stroke-width:1.0;" x1="480.3862" x2="480.3862" y1="976.1973" y2="989.1973"/><line style="stroke:#181818;stroke-width:1.0;" x1="439.3862" x2="480.3862" y1="989.1973" y2="989.1973"/><polygon fill="#181818" points="449.3862,985.1973,439.3862,989.1973,449.3862,993.1973,445.3862,989.1973" style="stroke:#181818;stroke-width:1.0;"/><text fill="#000000" font-family="sans-serif" font-size="13" font-weight="bold" lengthAdjust="spacing" textLength="14.46" x="445.3862" y="970.9346">19</text><text fill="#000000" font-family="sans-serif" font-size="13" lengthAdjust="spacing" textLength="236.2915" x="463.8462" y="970.9346">distribute cargoes according to industries</text><line style="stroke:#181818;stroke-width:1.0;" x1="438.3862" x2="480.3862" y1="1020.4883" y2="1020.4883"/><line style="stroke:#181818;stroke-width:1.0;" x1="480.3862" x2="480.3862" y1="1020.4883" y2="1033.4883"/><line style="stroke:#181818;stroke-width:1.0;" x1="439.3862" x2="480.3862" y1="1033.4883" y2="1033.4883"/><polygon fill="#181818" points="449.3862,1029.4883,439.3862,1033.4883,449.3862,1037.4883,445.3862,1033.4883" style="stroke:#181818;stroke-width:1.0;"/><text fill="#000000" font-family="sans-serif" font-size="13" font-weight="bold" lengthAdjust="spacing" textLength="14.46" x="445.3862" y="1015.2256">20</text><text fill="#000000" font-family="sans-serif" font-size="13" lengthAdjust="spacing" textLength="219.686" x="463.8462" y="1015.2256">update station displays with cargo info</text><polygon fill="#181818" points="68.8413,1060.7793,58.8413,1064.7793,68.8413,1068.7793,64.8413,1064.7793" style="stroke:#181818;stroke-width:1.0;"/><line style="stroke:#181818;stroke-width:1.0;stroke-dasharray:2.0,2.0;" x1="62.8413" x2="427.3862" y1="1064.7793" y2="1064.7793"/><text fill="#000000" font-family="sans-serif" font-size="13" font-weight="bold" lengthAdjust="spacing" textLength="14.46" x="74.8413" y="1059.5166">21</text><text fill="#000000" font-family="sans-serif" font-size="13" lengthAdjust="spacing" textLength="132.9707" x="93.3013" y="1059.5166">displays cargo updates</text><!--SRC=[ZLJ1Rjim3BtxAuXSrW8hXXOxzR3BUkcjWB7jpCgCBLIMF55gcdtzACbsd21EweiDYtnyV4yalsaxeCSUUcUTwhph2OAFLF5yCg1wmvRgi3S4dbH0svfb07VOk9ssBMpHC5LLq452wpq7wg6clv6i8dZIsARmcxf-keKx-5NVFyZhfoSC10Yi-sWmE5zL68EpiN-bzAta5snU3Ex9Roef6RJI0ze0cyTIOmF8OxaShzyJOiceG9xo2NS_9bAFm460GANYYNdeQ2AWdSr9Cz28dFwDwKiWux1Xe0_D6OWLMVJQSOutpWtmfzCYHwum7e9c-oN0EnhTvBWbje2FV1z5RX6Fmt5oS115vYcleNDCrzec8muUi6u4sPFm0GnW2ANM_NnwEoEjLK0Ju7VgOiwPZrRaOdmlMgZEQRaLRdivzLYD4BrbKCvkjUyFLgM7vEh1iysQodlhJWCk8VR4B7SSo7ld3v2sk3EzLzpFxNZYWP9A13qEQ-7gvB9F_CvnEuG0HwM4uJOQinyn2gFptf_nVRn8V5Iw344SgaiMhpLjAUoSVojcjD6V5tkHfQqEMjpv9zwZRnsqPAcaWO-666uUleju7yAllxre6tTknuU5aJW4xuoiAajcHPYBYu0_C_odmpoNJzEJhJ-QYnUKAOL1BWPJSsqijfxed31e6uX38qpuwdWKLOPKjabjXSXVeT4yIC24AIUbXfO90NQoiltn2DLvCNwIzeHQGCL26RjSMhWpl69Y8bqe7VRVj6qY1xy7wGQFWAyKaHQ2rwznKGQLShx9Ypkrae7rYKHNK8kg4zb99uQT3jr2ewkGImTca99_QjnYd_m7]--></g></svg>