<svg xmlns="http://www.w3.org/2000/svg" xmlns:xlink="http://www.w3.org/1999/xlink" contentStyleType="text/css" height="957px" preserveAspectRatio="none" style="width:337px;height:957px;background:#FFFFFF;" version="1.1" viewBox="0 0 337 957" width="337px" zoomAndPan="magnify"><defs/><g><!--cluster Use Cases--><g id="cluster_Use Cases"><rect fill="none" height="944" rx="2.5" ry="2.5" style="stroke:#181818;stroke-width:1.0;" width="241" x="90" y="7"/><text fill="#000000" font-family="sans-serif" font-size="14" font-weight="bold" lengthAdjust="spacing" textLength="70.8271" x="175.0864" y="24.1074">Use Cases</text></g><g id="elem_US01"><ellipse cx="210.7145" cy="63.9429" fill="#F1F1F1" rx="87.7145" ry="19.9429" style="stroke:#181818;stroke-width:0.5;"/><text fill="#000000" font-family="sans-serif" font-size="14" lengthAdjust="spacing" textLength="128.3926" x="143.5182" y="68.7466">UC01: Create a map</text></g><g id="elem_US02"><ellipse cx="210.7372" cy="139.9474" fill="#F1F1F1" rx="92.7372" ry="20.9474" style="stroke:#181818;stroke-width:0.5;"/><text fill="#000000" font-family="sans-serif" font-size="14" lengthAdjust="spacing" textLength="140.8545" x="137.31" y="144.7512">UC02: Add an industry</text></g><g id="elem_US03"><ellipse cx="210.2899" cy="214.158" fill="#F1F1F1" rx="78.7899" ry="18.158" style="stroke:#181818;stroke-width:0.5;"/><text fill="#000000" font-family="sans-serif" font-size="14" lengthAdjust="spacing" textLength="105.0479" x="154.766" y="218.9617">UC03: Add a city</text></g><g id="elem_US04"><ellipse cx="210.2553" cy="289.0511" fill="#F1F1F1" rx="98.2553" ry="22.0511" style="stroke:#181818;stroke-width:0.5;"/><text fill="#000000" font-family="sans-serif" font-size="14" lengthAdjust="spacing" textLength="154.0752" x="131.5829" y="293.4312">UC04: Create a scenario</text></g><g id="elem_US05"><ellipse cx="210.4588" cy="366.1918" fill="#F1F1F1" rx="88.9588" ry="20.1918" style="stroke:#181818;stroke-width:0.5;"/><text fill="#000000" font-family="sans-serif" font-size="14" lengthAdjust="spacing" textLength="131.5166" x="141.7005" y="370.9955">UC05: Build a station</text></g><g id="elem_US06"><ellipse cx="210.2612" cy="443.0522" fill="#F1F1F1" rx="98.2612" ry="22.0522" style="stroke:#181818;stroke-width:0.5;"/><text fill="#000000" font-family="sans-serif" font-size="14" lengthAdjust="spacing" textLength="154.0889" x="131.5837" y="447.4317">UC06: Upgrade a station</text></g><g id="elem_US07"><ellipse cx="210.3001" cy="522.86" fill="#F1F1F1" rx="102.3001" ry="22.86" style="stroke:#181818;stroke-width:0.5;"/><text fill="#000000" font-family="sans-serif" font-size="14" lengthAdjust="spacing" textLength="163.4131" x="128.1467" y="526.8252">UC07: View station details</text></g><g id="elem_US08"><ellipse cx="210.5984" cy="604.0197" fill="#F1F1F1" rx="100.5984" ry="22.5197" style="stroke:#181818;stroke-width:0.5;"/><text fill="#000000" font-family="sans-serif" font-size="14" lengthAdjust="spacing" textLength="159.5166" x="129.9094" y="608.1594">UC08: Build a railway line</text></g><g id="elem_US09"><ellipse cx="210.3077" cy="680.0615" fill="#F1F1F1" rx="80.8077" ry="18.5615" style="stroke:#181818;stroke-width:0.5;"/><text fill="#000000" font-family="sans-serif" font-size="14" lengthAdjust="spacing" textLength="110.4961" x="152.0597" y="684.8653">UC09: Buy a train</text></g><g id="elem_US10"><ellipse cx="210.3634" cy="756.7727" fill="#F1F1F1" rx="104.3634" ry="23.2727" style="stroke:#181818;stroke-width:0.5;"/><text fill="#000000" font-family="sans-serif" font-size="14" lengthAdjust="spacing" textLength="168.082" x="126.3224" y="760.5696">UC10: Assign train to route</text></g><g id="elem_US11"><ellipse cx="210.4607" cy="834.8921" fill="#F1F1F1" rx="84.9607" ry="19.3921" style="stroke:#181818;stroke-width:0.5;"/><text fill="#000000" font-family="sans-serif" font-size="14" lengthAdjust="spacing" textLength="121.3789" x="146.7712" y="839.6959">UC11: List all trains</text></g><g id="elem_US12"><ellipse cx="210.4203" cy="911.8841" fill="#F1F1F1" rx="99.9203" ry="22.3841" style="stroke:#181818;stroke-width:0.5;"/><text fill="#000000" font-family="sans-serif" font-size="14" lengthAdjust="spacing" textLength="157.9512" x="130.3149" y="916.0934">UC12: Create a simulator</text></g><!--entity Editor--><g id="elem_Editor"><ellipse cx="25.7861" cy="146" fill="#F1F1F1" rx="8" ry="8" style="stroke:#181818;stroke-width:0.5;"/><path d="M25.7861,154 L25.7861,181 M12.7861,162 L38.7861,162 M25.7861,181 L12.7861,196 M25.7861,181 L38.7861,196 " fill="none" style="stroke:#181818;stroke-width:0.5;"/><text fill="#000000" font-family="sans-serif" font-size="14" lengthAdjust="spacing" textLength="36.5723" x="7.5" y="212.6074">Editor</text></g><!--entity Player--><g id="elem_Player"><ellipse cx="25.8413" cy="611" fill="#F1F1F1" rx="8" ry="8" style="stroke:#181818;stroke-width:0.5;"/><path d="M25.8413,619 L25.8413,646 M12.8413,627 L38.8413,627 M25.8413,646 L12.8413,661 M25.8413,646 L38.8413,661 " fill="none" style="stroke:#181818;stroke-width:0.5;"/><text fill="#000000" font-family="sans-serif" font-size="14" lengthAdjust="spacing" textLength="39.6826" x="6" y="677.6074">Player</text></g><!--link Editor to US01--><g id="link_Editor_US01"><path d="M44.74,143.04 C54.03,128.21 66.68,111.78 82,101 C98.77,89.19 113.5123,82.738 133.1523,77.238 " fill="none" id="Editor-to-US01" style="stroke:#181818;stroke-width:1.0;"/><polygon fill="#181818" points="138.93,75.62,129.1848,74.1952,134.1152,76.9683,131.3421,81.8988,138.93,75.62" style="stroke:#181818;stroke-width:1.0;"/></g><!--link Editor to US02--><g id="link_Editor_US02"><path d="M44.83,173.38 C67.07,168.88 100.5195,162.0914 135.1695,155.0714 " fill="none" id="Editor-to-US02" style="stroke:#181818;stroke-width:1.0;"/><polygon fill="#181818" points="141.05,153.88,131.435,151.7467,136.1496,154.8728,133.0235,159.5874,141.05,153.88" style="stroke:#181818;stroke-width:1.0;"/></g><!--link Editor to US03--><g id="link_Editor_US03"><path d="M44.83,180.62 C69.23,185.56 108.2997,193.4773 145.0797,200.9373 " fill="none" id="Editor-to-US03" style="stroke:#181818;stroke-width:1.0;"/><polygon fill="#181818" points="150.96,202.13,142.9347,196.4208,146.0598,201.1361,141.3445,204.2612,150.96,202.13" style="stroke:#181818;stroke-width:1.0;"/></g><!--link Editor to US04--><g id="link_Editor_US04"><path d="M44.71,208.29 C54.14,222.49 66.93,238.44 82,249 C98.15,260.32 111.9065,266.7296 130.7265,272.6496 " fill="none" id="Editor-to-US04" style="stroke:#181818;stroke-width:1.0;"/><polygon fill="#181818" points="136.45,274.45,129.065,267.9337,131.6804,272.9497,126.6645,275.5651,136.45,274.45" style="stroke:#181818;stroke-width:1.0;"/></g><!--link Player to US05--><g id="link_Player_US05"><path d="M31.28,602.18 C38.54,541.88 55.16,431.39 82,403 C94.98,389.27 106.9901,382.2776 125.1201,376.7576 " fill="none" id="Player-to-US05" style="stroke:#181818;stroke-width:1.0;"/><polygon fill="#181818" points="130.86,375.01,121.0852,373.8048,126.0768,376.4663,123.4153,381.458,130.86,375.01" style="stroke:#181818;stroke-width:1.0;"/></g><!--link Player to US06--><g id="link_Player_US06"><path d="M30.54,602.41 C35.83,566.29 49.05,513.84 82,482 C94.82,469.61 105.779,463.0804 122.789,457.3004 " fill="none" id="Player-to-US06" style="stroke:#181818;stroke-width:1.0;"/><polygon fill="#181818" points="128.47,455.37,118.6616,454.4783,123.7358,456.9787,121.2355,462.0529,128.47,455.37" style="stroke:#181818;stroke-width:1.0;"/></g><!--link Player to US07--><g id="link_Player_US07"><path d="M46.18,604.96 C55.32,590.43 67.45,574.7 82,564 C97.36,552.71 110.2635,546.3242 128.4635,540.3042 " fill="none" id="Player-to-US07" style="stroke:#181818;stroke-width:1.0;"/><polygon fill="#181818" points="134.16,538.42,124.3592,537.4487,129.4129,539.9902,126.8714,545.044,134.16,538.42" style="stroke:#181818;stroke-width:1.0;"/></g><!--link Player to US08--><g id="link_Player_US08"><path d="M46.19,638.01 C67.6,633.55 97.6758,627.2822 130.4058,620.4722 " fill="none" id="Player-to-US08" style="stroke:#181818;stroke-width:1.0;"/><polygon fill="#181818" points="136.28,619.25,126.6539,617.1672,131.3848,620.2685,128.2835,624.9995,136.28,619.25" style="stroke:#181818;stroke-width:1.0;"/></g><!--link Player to US09--><g id="link_Player_US09"><path d="M46.19,645.99 C70.62,651.08 108.1061,658.8865 144.0161,666.3665 " fill="none" id="Player-to-US09" style="stroke:#181818;stroke-width:1.0;"/><polygon fill="#181818" points="149.89,667.59,141.8948,661.8388,144.9951,666.5704,140.2634,669.6707,149.89,667.59" style="stroke:#181818;stroke-width:1.0;"/></g><!--link Player to US10--><g id="link_Player_US10"><path d="M46.04,676.37 C55.29,690.37 67.55,705.66 82,716 C97.22,726.9 109.7808,733.084 127.6608,739.074 " fill="none" id="Player-to-US10" style="stroke:#181818;stroke-width:1.0;"/><polygon fill="#181818" points="133.35,740.98,126.0868,734.3282,128.609,739.3917,123.5455,741.9139,133.35,740.98" style="stroke:#181818;stroke-width:1.0;"/></g><!--link Player to US11--><g id="link_Player_US11"><path d="M30.87,681.75 C36.4,717.01 49.75,767.53 82,798 C96.57,811.77 110.1977,818.8228 129.4477,824.2828 " fill="none" id="Player-to-US11" style="stroke:#181818;stroke-width:1.0;"/><polygon fill="#181818" points="135.22,825.92,127.653,819.6159,130.4097,824.5556,125.4701,827.3123,135.22,825.92" style="stroke:#181818;stroke-width:1.0;"/></g><!--link Player to US12--><g id="link_Player_US12"><path d="M31.74,681.7 C39.47,739.96 56.51,844.68 82,872 C94.03,884.89 104.4969,891.6395 121.2269,897.5895 " fill="none" id="Player-to-US12" style="stroke:#181818;stroke-width:1.0;"/><polygon fill="#181818" points="126.88,899.6,119.7407,892.8155,122.1691,897.9246,117.06,900.353,126.88,899.6" style="stroke:#181818;stroke-width:1.0;"/></g><!--SRC=[PP9DQyCm38Rl_XMYzqASDlt8OR25tNOOZEukOYqLk4wn7KeO- -zpbhfhxLp2apoleqZIzEN1zs2vEtfGRAdrt1iXiFMzXLV5uNQ5TuqZMI4c1qsd2HO7Hz2W8xU0Rm7X6XorWSERff0rD9RG4o2SyBm0T73uA6GcbZKyAmLeW8qQdBTZTClCNLrTQDdVj5MchU- -xLeoQBcFzZgpgnfU1jRJiSxZr83eLfcxgU5mxYmgokrDPczh-6IwH14KUMJjOc2R1NR_fTXWNd04pOPYO9S5zbDW3BeF_gsIVUh98ZJEEUxCBFuDlHzyF5aMMIBCxusT1zHwpiIoPJP2MTxtcq-3nh0nKI_5Zn3pAi5o-JGlmIEN2QyINWinhrzyK2MyINYRy2xX_IE7ttzacN0fVW40]--></g></svg>