<svg xmlns="http://www.w3.org/2000/svg" xmlns:xlink="http://www.w3.org/1999/xlink" contentStyleType="text/css" height="1268px" preserveAspectRatio="none" style="width:915px;height:1268px;background:#FFFFFF;" version="1.1" viewBox="0 0 915 1268" width="915px" zoomAndPan="magnify"><title>System Sequence Diagram (SSD) - US04</title><defs/><g><text fill="#000000" font-family="sans-serif" font-size="14" font-weight="bold" lengthAdjust="spacing" textLength="269.2061" x="324.4722" y="30.1074">System Sequence Diagram (SSD) - US04</text><rect fill="#FFFFFF" height="1042.9629" style="stroke:#181818;stroke-width:1.0;" width="10" x="46.2861" y="133.2422"/><rect fill="#FFFFFF" height="149.7949" style="stroke:#181818;stroke-width:1.0;" width="10" x="566.6309" y="182.8242"/><rect fill="#FFFFFF" height="57.582" style="stroke:#181818;stroke-width:1.0;" width="10" x="566.6309" y="377.9102"/><rect fill="#FFFFFF" height="221.377" style="stroke:#181818;stroke-width:1.0;" width="10" x="566.6309" y="466.7832"/><rect fill="#FFFFFF" height="221.377" style="stroke:#181818;stroke-width:1.0;" width="10" x="566.6309" y="719.4512"/><rect fill="#FFFFFF" height="204.0859" style="stroke:#181818;stroke-width:1.0;" width="10" x="566.6309" y="972.1191"/><rect fill="none" height="207.377" style="stroke:#000000;stroke-width:1.5;" width="736.5234" x="10" y="140.2422"/><rect fill="none" height="98.5039" style="stroke:#000000;stroke-width:1.5;" width="591.9688" x="20" y="242.1152"/><rect fill="none" height="238.668" style="stroke:#000000;stroke-width:1.5;" width="764.7261" x="10" y="392.9102"/><rect fill="none" height="98.5039" style="stroke:#000000;stroke-width:1.5;" width="591.9688" x="20" y="526.0742"/><rect fill="none" height="238.668" style="stroke:#000000;stroke-width:1.5;" width="813.8315" x="10" y="645.5781"/><rect fill="none" height="98.5039" style="stroke:#000000;stroke-width:1.5;" width="591.9688" x="20" y="778.7422"/><rect fill="none" height="238.668" style="stroke:#000000;stroke-width:1.5;" width="899.1504" x="10" y="898.2461"/><rect fill="none" height="98.5039" style="stroke:#000000;stroke-width:1.5;" width="591.9688" x="20" y="1031.4102"/><line style="stroke:#181818;stroke-width:0.5;stroke-dasharray:5.0,5.0;" x1="51" x2="51" y1="123.2422" y2="1185.2051"/><line style="stroke:#181818;stroke-width:0.5;stroke-dasharray:5.0,5.0;" x1="571.293" x2="571.293" y1="123.2422" y2="1185.2051"/><text fill="#000000" font-family="sans-serif" font-size="14" lengthAdjust="spacing" textLength="36.5723" x="30" y="119.7285">Editor</text><ellipse cx="51.2861" cy="53.1211" fill="#E2E2F0" rx="8" ry="8" style="stroke:#181818;stroke-width:0.5;"/><path d="M51.2861,61.1211 L51.2861,88.1211 M38.2861,69.1211 L64.2861,69.1211 M51.2861,88.1211 L38.2861,103.1211 M51.2861,88.1211 L64.2861,103.1211 " fill="none" style="stroke:#181818;stroke-width:0.5;"/><text fill="#000000" font-family="sans-serif" font-size="14" lengthAdjust="spacing" textLength="36.5723" x="30" y="1199.3125">Editor</text><ellipse cx="51.2861" cy="1211.3262" fill="#E2E2F0" rx="8" ry="8" style="stroke:#181818;stroke-width:0.5;"/><path d="M51.2861,1219.3262 L51.2861,1246.3262 M38.2861,1227.3262 L64.2861,1227.3262 M51.2861,1246.3262 L38.2861,1261.3262 M51.2861,1246.3262 L64.2861,1261.3262 " fill="none" style="stroke:#181818;stroke-width:0.5;"/><rect fill="#E2E2F0" height="32.6211" rx="2.5" ry="2.5" style="stroke:#181818;stroke-width:0.5;" width="60.6758" x="541.293" y="89.6211"/><text fill="#000000" font-family="sans-serif" font-size="14" lengthAdjust="spacing" textLength="46.6758" x="548.293" y="111.7285">System</text><rect fill="#E2E2F0" height="32.6211" rx="2.5" ry="2.5" style="stroke:#181818;stroke-width:0.5;" width="60.6758" x="541.293" y="1184.2051"/><text fill="#000000" font-family="sans-serif" font-size="14" lengthAdjust="spacing" textLength="46.6758" x="548.293" y="1206.3125">System</text><rect fill="#FFFFFF" height="1042.9629" style="stroke:#181818;stroke-width:1.0;" width="10" x="46.2861" y="133.2422"/><rect fill="#FFFFFF" height="149.7949" style="stroke:#181818;stroke-width:1.0;" width="10" x="566.6309" y="182.8242"/><rect fill="#FFFFFF" height="57.582" style="stroke:#181818;stroke-width:1.0;" width="10" x="566.6309" y="377.9102"/><rect fill="#FFFFFF" height="221.377" style="stroke:#181818;stroke-width:1.0;" width="10" x="566.6309" y="466.7832"/><rect fill="#FFFFFF" height="221.377" style="stroke:#181818;stroke-width:1.0;" width="10" x="566.6309" y="719.4512"/><rect fill="#FFFFFF" height="204.0859" style="stroke:#181818;stroke-width:1.0;" width="10" x="566.6309" y="972.1191"/><path d="M10,140.2422 L82.4346,140.2422 L82.4346,149.5332 L72.4346,159.5332 L10,159.5332 L10,140.2422 " fill="#EEEEEE" style="stroke:#000000;stroke-width:1.5;"/><rect fill="none" height="207.377" style="stroke:#000000;stroke-width:1.5;" width="736.5234" x="10" y="140.2422"/><text fill="#000000" font-family="sans-serif" font-size="13" font-weight="bold" lengthAdjust="spacing" textLength="27.4346" x="25" y="155.2705">loop</text><text fill="#000000" font-family="sans-serif" font-size="11" font-weight="bold" lengthAdjust="spacing" textLength="86.1631" x="97.4346" y="154.1123">[Until Map Valid]</text><polygon fill="#181818" points="554.6309,178.8242,564.6309,182.8242,554.6309,186.8242,558.6309,182.8242" style="stroke:#181818;stroke-width:1.0;"/><line style="stroke:#181818;stroke-width:1.0;" x1="56.2861" x2="560.6309" y1="182.8242" y2="182.8242"/><text fill="#000000" font-family="sans-serif" font-size="13" lengthAdjust="spacing" textLength="90.3271" x="63.2861" y="177.5615">1. Select a map</text><line style="stroke:#181818;stroke-width:1.0;" x1="576.6309" x2="618.6309" y1="214.1152" y2="214.1152"/><line style="stroke:#181818;stroke-width:1.0;" x1="618.6309" x2="618.6309" y1="214.1152" y2="227.1152"/><line style="stroke:#181818;stroke-width:1.0;" x1="577.6309" x2="618.6309" y1="227.1152" y2="227.1152"/><polygon fill="#181818" points="587.6309,223.1152,577.6309,227.1152,587.6309,231.1152,583.6309,227.1152" style="stroke:#181818;stroke-width:1.0;"/><text fill="#000000" font-family="sans-serif" font-size="13" lengthAdjust="spacing" textLength="140.8926" x="583.6309" y="208.8525">2. Confirm selected map</text><path d="M20,242.1152 L80.1709,242.1152 L80.1709,251.4063 L70.1709,261.4063 L20,261.4063 L20,242.1152 " fill="#EEEEEE" style="stroke:#000000;stroke-width:1.5;"/><rect fill="none" height="98.5039" style="stroke:#000000;stroke-width:1.5;" width="591.9688" x="20" y="242.1152"/><text fill="#000000" font-family="sans-serif" font-size="13" font-weight="bold" lengthAdjust="spacing" textLength="15.1709" x="35" y="257.1436">alt</text><text fill="#000000" font-family="sans-serif" font-size="11" font-weight="bold" lengthAdjust="spacing" textLength="58.6738" x="95.1709" y="255.9854">[Map Exist]</text><polygon fill="#181818" points="67.2861,280.6973,57.2861,284.6973,67.2861,288.6973,63.2861,284.6973" style="stroke:#181818;stroke-width:1.0;"/><line style="stroke:#181818;stroke-width:1.0;stroke-dasharray:2.0,2.0;" x1="61.2861" x2="565.6309" y1="284.6973" y2="284.6973"/><text fill="#000000" font-family="sans-serif" font-size="13" lengthAdjust="spacing" textLength="154.6226" x="73.2861" y="279.4346">3.1 confirms map selection</text><line style="stroke:#000000;stroke-width:1.0;stroke-dasharray:2.0,2.0;" x1="20" x2="611.9688" y1="293.6973" y2="293.6973"/><text fill="#000000" font-family="sans-serif" font-size="11" font-weight="bold" lengthAdjust="spacing" textLength="106.3423" x="25" y="305.5674">[Map does not exist]</text><polygon fill="#181818" points="67.2861,328.6191,57.2861,332.6191,67.2861,336.6191,63.2861,332.6191" style="stroke:#181818;stroke-width:1.0;"/><line style="stroke:#181818;stroke-width:1.0;stroke-dasharray:2.0,2.0;" x1="61.2861" x2="570.6309" y1="332.6191" y2="332.6191"/><text fill="#000000" font-family="sans-serif" font-size="13" lengthAdjust="spacing" textLength="98.2617" x="73.2861" y="327.3564">3.2 Returns error</text><polygon fill="#181818" points="554.6309,373.9102,564.6309,377.9102,554.6309,381.9102,558.6309,377.9102" style="stroke:#181818;stroke-width:1.0;"/><line style="stroke:#181818;stroke-width:1.0;" x1="56.2861" x2="560.6309" y1="377.9102" y2="377.9102"/><text fill="#000000" font-family="sans-serif" font-size="13" lengthAdjust="spacing" textLength="106.2217" x="63.2861" y="372.6475">4. Create scenario</text><path d="M10,392.9102 L82.4346,392.9102 L82.4346,402.2012 L72.4346,412.2012 L10,412.2012 L10,392.9102 " fill="#EEEEEE" style="stroke:#000000;stroke-width:1.5;"/><rect fill="none" height="238.668" style="stroke:#000000;stroke-width:1.5;" width="764.7261" x="10" y="392.9102"/><text fill="#000000" font-family="sans-serif" font-size="13" font-weight="bold" lengthAdjust="spacing" textLength="27.4346" x="25" y="407.9385">loop</text><text fill="#000000" font-family="sans-serif" font-size="11" font-weight="bold" lengthAdjust="spacing" textLength="161.9438" x="97.4346" y="406.7803">[Until Port information is Valid]</text><polygon fill="#181818" points="67.2861,431.4922,57.2861,435.4922,67.2861,439.4922,63.2861,435.4922" style="stroke:#181818;stroke-width:1.0;"/><line style="stroke:#181818;stroke-width:1.0;stroke-dasharray:2.0,2.0;" x1="61.2861" x2="570.6309" y1="435.4922" y2="435.4922"/><text fill="#000000" font-family="sans-serif" font-size="13" lengthAdjust="spacing" textLength="297.7114" x="73.2861" y="430.2295">4.1.1 (AC01)Asks for information on port generation</text><polygon fill="#181818" points="554.6309,462.7832,564.6309,466.7832,554.6309,470.7832,558.6309,466.7832" style="stroke:#181818;stroke-width:1.0;"/><line style="stroke:#181818;stroke-width:1.0;" x1="56.2861" x2="560.6309" y1="466.7832" y2="466.7832"/><text fill="#000000" font-family="sans-serif" font-size="13" lengthAdjust="spacing" textLength="244.9497" x="63.2861" y="461.5205">4.1.2 (AC01)Gives information about Ports</text><line style="stroke:#181818;stroke-width:1.0;" x1="576.6309" x2="618.6309" y1="498.0742" y2="498.0742"/><line style="stroke:#181818;stroke-width:1.0;" x1="618.6309" x2="618.6309" y1="498.0742" y2="511.0742"/><line style="stroke:#181818;stroke-width:1.0;" x1="577.6309" x2="618.6309" y1="511.0742" y2="511.0742"/><polygon fill="#181818" points="587.6309,507.0742,577.6309,511.0742,587.6309,515.0742,583.6309,511.0742" style="stroke:#181818;stroke-width:1.0;"/><text fill="#000000" font-family="sans-serif" font-size="13" lengthAdjust="spacing" textLength="169.0952" x="583.6309" y="492.8115">4.1.3 Confirm port generation</text><path d="M20,526.0742 L80.1709,526.0742 L80.1709,535.3652 L70.1709,545.3652 L20,545.3652 L20,526.0742 " fill="#EEEEEE" style="stroke:#000000;stroke-width:1.5;"/><rect fill="none" height="98.5039" style="stroke:#000000;stroke-width:1.5;" width="591.9688" x="20" y="526.0742"/><text fill="#000000" font-family="sans-serif" font-size="13" font-weight="bold" lengthAdjust="spacing" textLength="15.1709" x="35" y="541.1025">alt</text><text fill="#000000" font-family="sans-serif" font-size="11" font-weight="bold" lengthAdjust="spacing" textLength="97.1631" x="95.1709" y="539.9443">[Valid information]</text><polygon fill="#181818" points="67.2861,564.6563,57.2861,568.6563,67.2861,572.6563,63.2861,568.6563" style="stroke:#181818;stroke-width:1.0;"/><line style="stroke:#181818;stroke-width:1.0;stroke-dasharray:2.0,2.0;" x1="61.2861" x2="565.6309" y1="568.6563" y2="568.6563"/><text fill="#000000" font-family="sans-serif" font-size="13" lengthAdjust="spacing" textLength="166.1943" x="73.2861" y="563.3936">4.1.4.2 Returns Confirmation</text><line style="stroke:#000000;stroke-width:1.0;stroke-dasharray:2.0,2.0;" x1="20" x2="611.9688" y1="577.6563" y2="577.6563"/><text fill="#000000" font-family="sans-serif" font-size="11" font-weight="bold" lengthAdjust="spacing" textLength="105.7192" x="25" y="589.5264">[Invalid Information]</text><polygon fill="#181818" points="67.2861,612.5781,57.2861,616.5781,67.2861,620.5781,63.2861,616.5781" style="stroke:#181818;stroke-width:1.0;"/><line style="stroke:#181818;stroke-width:1.0;stroke-dasharray:2.0,2.0;" x1="61.2861" x2="565.6309" y1="616.5781" y2="616.5781"/><text fill="#000000" font-family="sans-serif" font-size="13" lengthAdjust="spacing" textLength="121.3862" x="73.2861" y="611.3154">4.1.4.2 Returns Error</text><path d="M10,645.5781 L82.4346,645.5781 L82.4346,654.8691 L72.4346,664.8691 L10,664.8691 L10,645.5781 " fill="#EEEEEE" style="stroke:#000000;stroke-width:1.5;"/><rect fill="none" height="238.668" style="stroke:#000000;stroke-width:1.5;" width="813.8315" x="10" y="645.5781"/><text fill="#000000" font-family="sans-serif" font-size="13" font-weight="bold" lengthAdjust="spacing" textLength="27.4346" x="25" y="660.6064">loop</text><text fill="#000000" font-family="sans-serif" font-size="11" font-weight="bold" lengthAdjust="spacing" textLength="196.7915" x="97.4346" y="659.4482">[Until locomotive information is valid]</text><polygon fill="#181818" points="67.2861,684.1602,57.2861,688.1602,67.2861,692.1602,63.2861,688.1602" style="stroke:#181818;stroke-width:1.0;"/><line style="stroke:#181818;stroke-width:1.0;stroke-dasharray:2.0,2.0;" x1="61.2861" x2="570.6309" y1="688.1602" y2="688.1602"/><text fill="#000000" font-family="sans-serif" font-size="13" lengthAdjust="spacing" textLength="348.2769" x="73.2861" y="682.8975">4.2.1 (AC02)Ask which locomotives companies are available</text><polygon fill="#181818" points="554.6309,715.4512,564.6309,719.4512,554.6309,723.4512,558.6309,719.4512" style="stroke:#181818;stroke-width:1.0;"/><line style="stroke:#181818;stroke-width:1.0;" x1="56.2861" x2="560.6309" y1="719.4512" y2="719.4512"/><text fill="#000000" font-family="sans-serif" font-size="13" lengthAdjust="spacing" textLength="282.5215" x="63.2861" y="714.1885">4.2.2 (AC02)Provides information on locomotives</text><line style="stroke:#181818;stroke-width:1.0;" x1="576.6309" x2="618.6309" y1="750.7422" y2="750.7422"/><line style="stroke:#181818;stroke-width:1.0;" x1="618.6309" x2="618.6309" y1="750.7422" y2="763.7422"/><line style="stroke:#181818;stroke-width:1.0;" x1="577.6309" x2="618.6309" y1="763.7422" y2="763.7422"/><polygon fill="#181818" points="587.6309,759.7422,577.6309,763.7422,587.6309,767.7422,583.6309,763.7422" style="stroke:#181818;stroke-width:1.0;"/><text fill="#000000" font-family="sans-serif" font-size="13" lengthAdjust="spacing" textLength="218.2007" x="583.6309" y="745.4795">4.2.3 Confirm locomotives information</text><path d="M20,778.7422 L80.1709,778.7422 L80.1709,788.0332 L70.1709,798.0332 L20,798.0332 L20,778.7422 " fill="#EEEEEE" style="stroke:#000000;stroke-width:1.5;"/><rect fill="none" height="98.5039" style="stroke:#000000;stroke-width:1.5;" width="591.9688" x="20" y="778.7422"/><text fill="#000000" font-family="sans-serif" font-size="13" font-weight="bold" lengthAdjust="spacing" textLength="15.1709" x="35" y="793.7705">alt</text><text fill="#000000" font-family="sans-serif" font-size="11" font-weight="bold" lengthAdjust="spacing" textLength="97.1631" x="95.1709" y="792.6123">[Valid information]</text><polygon fill="#181818" points="67.2861,817.3242,57.2861,821.3242,67.2861,825.3242,63.2861,821.3242" style="stroke:#181818;stroke-width:1.0;"/><line style="stroke:#181818;stroke-width:1.0;stroke-dasharray:2.0,2.0;" x1="61.2861" x2="565.6309" y1="821.3242" y2="821.3242"/><text fill="#000000" font-family="sans-serif" font-size="13" lengthAdjust="spacing" textLength="166.1943" x="73.2861" y="816.0615">4.2.4.2 Returns Confirmation</text><line style="stroke:#000000;stroke-width:1.0;stroke-dasharray:2.0,2.0;" x1="20" x2="611.9688" y1="830.3242" y2="830.3242"/><text fill="#000000" font-family="sans-serif" font-size="11" font-weight="bold" lengthAdjust="spacing" textLength="105.7192" x="25" y="842.1943">[Invalid Information]</text><polygon fill="#181818" points="67.2861,865.2461,57.2861,869.2461,67.2861,873.2461,63.2861,869.2461" style="stroke:#181818;stroke-width:1.0;"/><line style="stroke:#181818;stroke-width:1.0;stroke-dasharray:2.0,2.0;" x1="61.2861" x2="565.6309" y1="869.2461" y2="869.2461"/><text fill="#000000" font-family="sans-serif" font-size="13" lengthAdjust="spacing" textLength="121.3862" x="73.2861" y="863.9834">4.2.4.2 Returns Error</text><path d="M10,898.2461 L82.4346,898.2461 L82.4346,907.5371 L72.4346,917.5371 L10,917.5371 L10,898.2461 " fill="#EEEEEE" style="stroke:#000000;stroke-width:1.5;"/><rect fill="none" height="238.668" style="stroke:#000000;stroke-width:1.5;" width="899.1504" x="10" y="898.2461"/><text fill="#000000" font-family="sans-serif" font-size="13" font-weight="bold" lengthAdjust="spacing" textLength="27.4346" x="25" y="913.2744">loop</text><text fill="#000000" font-family="sans-serif" font-size="11" font-weight="bold" lengthAdjust="spacing" textLength="357.5591" x="97.4346" y="912.1162">[Until factors that alter generation of generating Industries are Valid]</text><polygon fill="#181818" points="67.2861,936.8281,57.2861,940.8281,67.2861,944.8281,63.2861,940.8281" style="stroke:#181818;stroke-width:1.0;"/><line style="stroke:#181818;stroke-width:1.0;stroke-dasharray:2.0,2.0;" x1="61.2861" x2="570.6309" y1="940.8281" y2="940.8281"/><text fill="#000000" font-family="sans-serif" font-size="13" lengthAdjust="spacing" textLength="486.3447" x="73.2861" y="935.5654">4.3.1 (AC03)Definition of the factors that alter the generation of generating industries</text><polygon fill="#181818" points="554.6309,968.1191,564.6309,972.1191,554.6309,976.1191,558.6309,972.1191" style="stroke:#181818;stroke-width:1.0;"/><line style="stroke:#181818;stroke-width:1.0;" x1="56.2861" x2="560.6309" y1="972.1191" y2="972.1191"/><text fill="#000000" font-family="sans-serif" font-size="13" lengthAdjust="spacing" textLength="471.8848" x="63.2861" y="966.8564">4.3.2 (AC03)Provides the factors that alter the  generation of generating industries</text><line style="stroke:#181818;stroke-width:1.0;" x1="576.6309" x2="618.6309" y1="1003.4102" y2="1003.4102"/><line style="stroke:#181818;stroke-width:1.0;" x1="618.6309" x2="618.6309" y1="1003.4102" y2="1016.4102"/><line style="stroke:#181818;stroke-width:1.0;" x1="577.6309" x2="618.6309" y1="1016.4102" y2="1016.4102"/><polygon fill="#181818" points="587.6309,1012.4102,577.6309,1016.4102,587.6309,1020.4102,583.6309,1016.4102" style="stroke:#181818;stroke-width:1.0;"/><text fill="#000000" font-family="sans-serif" font-size="13" lengthAdjust="spacing" textLength="303.5195" x="583.6309" y="998.1475">4.3.3 Confirm the generation of generating industries</text><path d="M20,1031.4102 L80.1709,1031.4102 L80.1709,1040.7012 L70.1709,1050.7012 L20,1050.7012 L20,1031.4102 " fill="#EEEEEE" style="stroke:#000000;stroke-width:1.5;"/><rect fill="none" height="98.5039" style="stroke:#000000;stroke-width:1.5;" width="591.9688" x="20" y="1031.4102"/><text fill="#000000" font-family="sans-serif" font-size="13" font-weight="bold" lengthAdjust="spacing" textLength="15.1709" x="35" y="1046.4385">alt</text><text fill="#000000" font-family="sans-serif" font-size="11" font-weight="bold" lengthAdjust="spacing" textLength="97.1631" x="95.1709" y="1045.2803">[Valid information]</text><polygon fill="#181818" points="67.2861,1069.9922,57.2861,1073.9922,67.2861,1077.9922,63.2861,1073.9922" style="stroke:#181818;stroke-width:1.0;"/><line style="stroke:#181818;stroke-width:1.0;stroke-dasharray:2.0,2.0;" x1="61.2861" x2="565.6309" y1="1073.9922" y2="1073.9922"/><text fill="#000000" font-family="sans-serif" font-size="13" lengthAdjust="spacing" textLength="166.1943" x="73.2861" y="1068.7295">4.3.4.2 Returns Confirmation</text><line style="stroke:#000000;stroke-width:1.0;stroke-dasharray:2.0,2.0;" x1="20" x2="611.9688" y1="1082.9922" y2="1082.9922"/><text fill="#000000" font-family="sans-serif" font-size="11" font-weight="bold" lengthAdjust="spacing" textLength="105.7192" x="25" y="1094.8623">[Invalid Information]</text><polygon fill="#181818" points="67.2861,1117.9141,57.2861,1121.9141,67.2861,1125.9141,63.2861,1121.9141" style="stroke:#181818;stroke-width:1.0;"/><line style="stroke:#181818;stroke-width:1.0;stroke-dasharray:2.0,2.0;" x1="61.2861" x2="565.6309" y1="1121.9141" y2="1121.9141"/><text fill="#000000" font-family="sans-serif" font-size="13" lengthAdjust="spacing" textLength="121.3862" x="73.2861" y="1116.6514">4.3.4.2 Returns Error</text><polygon fill="#181818" points="67.2861,1163.2051,57.2861,1167.2051,67.2861,1171.2051,63.2861,1167.2051" style="stroke:#181818;stroke-width:1.0;"/><line style="stroke:#181818;stroke-width:1.0;stroke-dasharray:2.0,2.0;" x1="61.2861" x2="565.6309" y1="1167.2051" y2="1167.2051"/><text fill="#000000" font-family="sans-serif" font-size="13" lengthAdjust="spacing" textLength="164.0107" x="73.2861" y="1161.9424">5. Display success message</text><!--SRC=[hPN9Rjim443l-eevneS8iUHUV2WGn4QHGu6WHdAVK2DxK8fKILfj_hwaJCkqgte1OiYB2EhDyaOM2gSDB2lsNrcBnh7W5fM3rOTrr6IEdQHvF8CL_TgI4WGBnhN11kvMgyK4xk5rzJ3BiWo5umuTxO6PrBg5L-LOmdTiuGqbLndursu3t7-Dw3bCSu-N91mWDDZskmPUp2QinLIIAuiSdhIgsJHWUm9L1u9qVUJb7xQkNqaP7h9BP0vbFWMnezXmTKInLlrL92tre4gJ1QKTq6LY0J_8ROsoGCRuTkmtLpHM6Aag2-_itzxCV8M6mduhIA5XVTJQ5sqSiAgrQJ1a36oJLfzhuY7TMJxr7RXxV7gOJXxjJmkUTiJqHnlYh4cHmQ4nuxKSIjZN4FX5v7_ZpZSnXUExthg-3dk5-9HP3kx7iWlw-qwaqSv82yHPuYsoyNWEdbNNCvzFc9TvotuEZdKd8gKMkj6-T3hLsGqwHoRDHuZkYk0EVczOR1AOzPFT-BkQ_Iyq1DWXItoNT9N1mn0MqM0nUJ6wu-f4eZ-Ic3TvB1AFQTwdrcxtMNoopsB4vv7Er6UDuU_LWjkW2xcJIGOKT3sSgRKFNcsjCtj7R-U5br5uELbGpOhtGBUXiQXX-R-HUOXyupoKSHxAmpoSYNzr0jSEJPaCpIq5tZv4vISFKNbfY4QSmvVSFtPjA_43x5O8iluvvJzmJTbV]--></g></svg>