<svg xmlns="http://www.w3.org/2000/svg" xmlns:xlink="http://www.w3.org/1999/xlink" contentStyleType="text/css" height="1052px" preserveAspectRatio="none" style="width:595px;height:1052px;background:#FFFFFF;" version="1.1" viewBox="0 0 595 1052" width="595px" zoomAndPan="magnify"><title>System Sequence Diagram (SSD) - US07 - View station details</title><defs/><g><text fill="#000000" font-family="sans-serif" font-size="14" font-weight="bold" lengthAdjust="spacing" textLength="411.5713" x="98.7449" y="30.1074">System Sequence Diagram (SSD) - US07 - View station details</text><rect fill="#FFFFFF" height="818.4512" style="stroke:#181818;stroke-width:1.0;" width="10" x="37.8413" y="133.2422"/><rect fill="#FFFFFF" height="386.25" style="stroke:#181818;stroke-width:1.0;" width="10" x="296.0732" y="156.5332"/><rect fill="#FFFFFF" height="385.6191" style="stroke:#181818;stroke-width:1.0;" width="10" x="296.0732" y="566.0742"/><rect fill="none" height="142.7949" style="stroke:#000000;stroke-width:1.5;" width="540.0693" x="10" y="392.9883"/><line style="stroke:#181818;stroke-width:0.5;stroke-dasharray:5.0,5.0;" x1="42" x2="42" y1="123.2422" y2="969.6934"/><line style="stroke:#181818;stroke-width:0.5;stroke-dasharray:5.0,5.0;" x1="300.7905" x2="300.7905" y1="123.2422" y2="969.6934"/><text fill="#000000" font-family="sans-serif" font-size="14" lengthAdjust="spacing" textLength="39.6826" x="20" y="119.7285">Player</text><ellipse cx="42.8413" cy="53.1211" fill="#E3E3E3" rx="8" ry="8" style="stroke:#181818;stroke-width:0.5;"/><path d="M42.8413,61.1211 L42.8413,88.1211 M29.8413,69.1211 L55.8413,69.1211 M42.8413,88.1211 L29.8413,103.1211 M42.8413,88.1211 L55.8413,103.1211 " fill="none" style="stroke:#181818;stroke-width:0.5;"/><text fill="#000000" font-family="sans-serif" font-size="14" lengthAdjust="spacing" textLength="39.6826" x="20" y="983.8008">Player</text><ellipse cx="42.8413" cy="995.8145" fill="#E3E3E3" rx="8" ry="8" style="stroke:#181818;stroke-width:0.5;"/><path d="M42.8413,1003.8145 L42.8413,1030.8145 M29.8413,1011.8145 L55.8413,1011.8145 M42.8413,1030.8145 L29.8413,1045.8145 M42.8413,1030.8145 L55.8413,1045.8145 " fill="none" style="stroke:#181818;stroke-width:0.5;"/><rect fill="#E3E3E3" height="32.6211" rx="2.5" ry="2.5" style="stroke:#181818;stroke-width:0.5;" width="64.5654" x="268.7905" y="89.6211"/><text fill="#000000" font-family="sans-serif" font-size="14" lengthAdjust="spacing" textLength="50.5654" x="275.7905" y="111.7285">:System</text><rect fill="#E3E3E3" height="32.6211" rx="2.5" ry="2.5" style="stroke:#181818;stroke-width:0.5;" width="64.5654" x="268.7905" y="968.6934"/><text fill="#000000" font-family="sans-serif" font-size="14" lengthAdjust="spacing" textLength="50.5654" x="275.7905" y="990.8008">:System</text><rect fill="#FFFFFF" height="818.4512" style="stroke:#181818;stroke-width:1.0;" width="10" x="37.8413" y="133.2422"/><rect fill="#FFFFFF" height="386.25" style="stroke:#181818;stroke-width:1.0;" width="10" x="296.0732" y="156.5332"/><rect fill="#FFFFFF" height="385.6191" style="stroke:#181818;stroke-width:1.0;" width="10" x="296.0732" y="566.0742"/><polygon fill="#181818" points="284.0732,152.5332,294.0732,156.5332,284.0732,160.5332,288.0732,156.5332" style="stroke:#181818;stroke-width:1.0;"/><line style="stroke:#181818;stroke-width:1.0;" x1="47.8413" x2="290.0732" y1="156.5332" y2="156.5332"/><text fill="#000000" font-family="sans-serif" font-size="13" font-weight="bold" lengthAdjust="spacing" textLength="7.23" x="54.8413" y="151.2705">1</text><text fill="#000000" font-family="sans-serif" font-size="13" lengthAdjust="spacing" textLength="147.4053" x="66.0713" y="151.2705">Request to list all stations</text><line style="stroke:#181818;stroke-width:1.0;" x1="306.0732" x2="348.0732" y1="187.8242" y2="187.8242"/><line style="stroke:#181818;stroke-width:1.0;" x1="348.0732" x2="348.0732" y1="187.8242" y2="200.8242"/><line style="stroke:#181818;stroke-width:1.0;" x1="307.0732" x2="348.0732" y1="200.8242" y2="200.8242"/><polygon fill="#181818" points="317.0732,196.8242,307.0732,200.8242,317.0732,204.8242,313.0732,200.8242" style="stroke:#181818;stroke-width:1.0;"/><text fill="#000000" font-family="sans-serif" font-size="13" font-weight="bold" lengthAdjust="spacing" textLength="7.23" x="313.0732" y="182.5615">2</text><text fill="#000000" font-family="sans-serif" font-size="13" lengthAdjust="spacing" textLength="204.5024" x="324.3032" y="182.5615">Get singleton Repositories instance</text><line style="stroke:#181818;stroke-width:1.0;" x1="306.0732" x2="348.0732" y1="232.1152" y2="232.1152"/><line style="stroke:#181818;stroke-width:1.0;" x1="348.0732" x2="348.0732" y1="232.1152" y2="245.1152"/><line style="stroke:#181818;stroke-width:1.0;" x1="307.0732" x2="348.0732" y1="245.1152" y2="245.1152"/><polygon fill="#181818" points="317.0732,241.1152,307.0732,245.1152,317.0732,249.1152,313.0732,245.1152" style="stroke:#181818;stroke-width:1.0;"/><text fill="#000000" font-family="sans-serif" font-size="13" font-weight="bold" lengthAdjust="spacing" textLength="7.23" x="313.0732" y="226.8525">3</text><text fill="#000000" font-family="sans-serif" font-size="13" lengthAdjust="spacing" textLength="244.9243" x="324.3032" y="226.8525">Retrieve MapRepository from Repositories</text><line style="stroke:#181818;stroke-width:1.0;" x1="306.0732" x2="348.0732" y1="276.4063" y2="276.4063"/><line style="stroke:#181818;stroke-width:1.0;" x1="348.0732" x2="348.0732" y1="276.4063" y2="289.4063"/><line style="stroke:#181818;stroke-width:1.0;" x1="307.0732" x2="348.0732" y1="289.4063" y2="289.4063"/><polygon fill="#181818" points="317.0732,285.4063,307.0732,289.4063,317.0732,293.4063,313.0732,289.4063" style="stroke:#181818;stroke-width:1.0;"/><text fill="#000000" font-family="sans-serif" font-size="13" font-weight="bold" lengthAdjust="spacing" textLength="7.23" x="313.0732" y="271.1436">4</text><text fill="#000000" font-family="sans-serif" font-size="13" lengthAdjust="spacing" textLength="195.8125" x="324.3032" y="271.1436">Retrieve current Map using mapId</text><line style="stroke:#181818;stroke-width:1.0;" x1="306.0732" x2="348.0732" y1="320.6973" y2="320.6973"/><line style="stroke:#181818;stroke-width:1.0;" x1="348.0732" x2="348.0732" y1="320.6973" y2="333.6973"/><line style="stroke:#181818;stroke-width:1.0;" x1="307.0732" x2="348.0732" y1="333.6973" y2="333.6973"/><polygon fill="#181818" points="317.0732,329.6973,307.0732,333.6973,317.0732,337.6973,313.0732,333.6973" style="stroke:#181818;stroke-width:1.0;"/><text fill="#000000" font-family="sans-serif" font-size="13" font-weight="bold" lengthAdjust="spacing" textLength="7.23" x="313.0732" y="315.4346">5</text><text fill="#000000" font-family="sans-serif" font-size="13" lengthAdjust="spacing" textLength="229.7598" x="324.3032" y="315.4346">Get StationRepository from current Map</text><line style="stroke:#181818;stroke-width:1.0;" x1="306.0732" x2="348.0732" y1="364.9883" y2="364.9883"/><line style="stroke:#181818;stroke-width:1.0;" x1="348.0732" x2="348.0732" y1="364.9883" y2="377.9883"/><line style="stroke:#181818;stroke-width:1.0;" x1="307.0732" x2="348.0732" y1="377.9883" y2="377.9883"/><polygon fill="#181818" points="317.0732,373.9883,307.0732,377.9883,317.0732,381.9883,313.0732,377.9883" style="stroke:#181818;stroke-width:1.0;"/><text fill="#000000" font-family="sans-serif" font-size="13" font-weight="bold" lengthAdjust="spacing" textLength="7.23" x="313.0732" y="359.7256">6</text><text fill="#000000" font-family="sans-serif" font-size="13" lengthAdjust="spacing" textLength="149.5635" x="324.3032" y="359.7256">Retrieve list of all Stations</text><path d="M10,392.9883 L70.1709,392.9883 L70.1709,402.2793 L60.1709,412.2793 L10,412.2793 L10,392.9883 " fill="#EEEEEE" style="stroke:#000000;stroke-width:1.5;"/><rect fill="none" height="142.7949" style="stroke:#000000;stroke-width:1.5;" width="540.0693" x="10" y="392.9883"/><text fill="#000000" font-family="sans-serif" font-size="13" font-weight="bold" lengthAdjust="spacing" textLength="15.1709" x="25" y="408.0166">alt</text><text fill="#000000" font-family="sans-serif" font-size="11" font-weight="bold" lengthAdjust="spacing" textLength="116.7515" x="85.1709" y="406.8584">[No stations available]</text><polygon fill="#181818" points="58.8413,431.5703,48.8413,435.5703,58.8413,439.5703,54.8413,435.5703" style="stroke:#181818;stroke-width:1.0;"/><line style="stroke:#181818;stroke-width:1.0;stroke-dasharray:2.0,2.0;" x1="52.8413" x2="295.0732" y1="435.5703" y2="435.5703"/><text fill="#000000" font-family="sans-serif" font-size="13" font-weight="bold" lengthAdjust="spacing" textLength="7.23" x="64.8413" y="430.3076">7</text><text fill="#000000" font-family="sans-serif" font-size="13" lengthAdjust="spacing" textLength="213.002" x="76.0713" y="430.3076">Display "No stations found" message</text><line style="stroke:#000000;stroke-width:1.0;stroke-dasharray:2.0,2.0;" x1="10" x2="550.0693" y1="444.5703" y2="444.5703"/><text fill="#000000" font-family="sans-serif" font-size="11" font-weight="bold" lengthAdjust="spacing" textLength="100.2515" x="15" y="456.4404">[Stations available]</text><line style="stroke:#181818;stroke-width:1.0;" x1="306.0732" x2="348.0732" y1="483.4922" y2="483.4922"/><line style="stroke:#181818;stroke-width:1.0;" x1="348.0732" x2="348.0732" y1="483.4922" y2="496.4922"/><line style="stroke:#181818;stroke-width:1.0;" x1="307.0732" x2="348.0732" y1="496.4922" y2="496.4922"/><polygon fill="#181818" points="317.0732,492.4922,307.0732,496.4922,317.0732,500.4922,313.0732,496.4922" style="stroke:#181818;stroke-width:1.0;"/><text fill="#000000" font-family="sans-serif" font-size="13" font-weight="bold" lengthAdjust="spacing" textLength="7.23" x="313.0732" y="478.2295">8</text><text fill="#000000" font-family="sans-serif" font-size="13" lengthAdjust="spacing" textLength="203.7661" x="324.3032" y="478.2295">Format stations into readable string</text><polygon fill="#181818" points="58.8413,523.7832,48.8413,527.7832,58.8413,531.7832,54.8413,527.7832" style="stroke:#181818;stroke-width:1.0;"/><line style="stroke:#181818;stroke-width:1.0;stroke-dasharray:2.0,2.0;" x1="52.8413" x2="295.0732" y1="527.7832" y2="527.7832"/><text fill="#000000" font-family="sans-serif" font-size="13" font-weight="bold" lengthAdjust="spacing" textLength="7.23" x="64.8413" y="522.5205">9</text><text fill="#000000" font-family="sans-serif" font-size="13" lengthAdjust="spacing" textLength="141.6099" x="76.0713" y="522.5205">Display list of all stations</text><polygon fill="#181818" points="284.0732,562.0742,294.0732,566.0742,284.0732,570.0742,288.0732,566.0742" style="stroke:#181818;stroke-width:1.0;"/><line style="stroke:#181818;stroke-width:1.0;" x1="47.8413" x2="290.0732" y1="566.0742" y2="566.0742"/><text fill="#000000" font-family="sans-serif" font-size="13" font-weight="bold" lengthAdjust="spacing" textLength="14.46" x="54.8413" y="560.8115">10</text><text fill="#000000" font-family="sans-serif" font-size="13" lengthAdjust="spacing" textLength="159.6816" x="73.3013" y="560.8115">Select a station from the list</text><line style="stroke:#181818;stroke-width:1.0;" x1="306.0732" x2="348.0732" y1="597.3652" y2="597.3652"/><line style="stroke:#181818;stroke-width:1.0;" x1="348.0732" x2="348.0732" y1="597.3652" y2="610.3652"/><line style="stroke:#181818;stroke-width:1.0;" x1="307.0732" x2="348.0732" y1="610.3652" y2="610.3652"/><polygon fill="#181818" points="317.0732,606.3652,307.0732,610.3652,317.0732,614.3652,313.0732,610.3652" style="stroke:#181818;stroke-width:1.0;"/><text fill="#000000" font-family="sans-serif" font-size="13" font-weight="bold" lengthAdjust="spacing" textLength="14.46" x="313.0732" y="592.1025">11</text><text fill="#000000" font-family="sans-serif" font-size="13" lengthAdjust="spacing" textLength="182.8252" x="331.5332" y="592.1025">Retrieve selected Station object</text><line style="stroke:#181818;stroke-width:1.0;" x1="306.0732" x2="348.0732" y1="641.6563" y2="641.6563"/><line style="stroke:#181818;stroke-width:1.0;" x1="348.0732" x2="348.0732" y1="641.6563" y2="654.6563"/><line style="stroke:#181818;stroke-width:1.0;" x1="307.0732" x2="348.0732" y1="654.6563" y2="654.6563"/><polygon fill="#181818" points="317.0732,650.6563,307.0732,654.6563,317.0732,658.6563,313.0732,654.6563" style="stroke:#181818;stroke-width:1.0;"/><text fill="#000000" font-family="sans-serif" font-size="13" font-weight="bold" lengthAdjust="spacing" textLength="14.46" x="313.0732" y="636.3936">12</text><text fill="#000000" font-family="sans-serif" font-size="13" lengthAdjust="spacing" textLength="241.3569" x="331.5332" y="636.3936">Get Station name, position, type, direction</text><line style="stroke:#181818;stroke-width:1.0;" x1="306.0732" x2="348.0732" y1="685.9473" y2="685.9473"/><line style="stroke:#181818;stroke-width:1.0;" x1="348.0732" x2="348.0732" y1="685.9473" y2="698.9473"/><line style="stroke:#181818;stroke-width:1.0;" x1="307.0732" x2="348.0732" y1="698.9473" y2="698.9473"/><polygon fill="#181818" points="317.0732,694.9473,307.0732,698.9473,317.0732,702.9473,313.0732,698.9473" style="stroke:#181818;stroke-width:1.0;"/><text fill="#000000" font-family="sans-serif" font-size="13" font-weight="bold" lengthAdjust="spacing" textLength="14.46" x="313.0732" y="680.6846">13</text><text fill="#000000" font-family="sans-serif" font-size="13" lengthAdjust="spacing" textLength="177.0361" x="331.5332" y="680.6846">Get list of associated Buildings</text><line style="stroke:#181818;stroke-width:1.0;" x1="306.0732" x2="348.0732" y1="730.2383" y2="730.2383"/><line style="stroke:#181818;stroke-width:1.0;" x1="348.0732" x2="348.0732" y1="730.2383" y2="743.2383"/><line style="stroke:#181818;stroke-width:1.0;" x1="307.0732" x2="348.0732" y1="743.2383" y2="743.2383"/><polygon fill="#181818" points="317.0732,739.2383,307.0732,743.2383,317.0732,747.2383,313.0732,743.2383" style="stroke:#181818;stroke-width:1.0;"/><text fill="#000000" font-family="sans-serif" font-size="13" font-weight="bold" lengthAdjust="spacing" textLength="14.46" x="313.0732" y="724.9756">14</text><text fill="#000000" font-family="sans-serif" font-size="13" lengthAdjust="spacing" textLength="256.5278" x="331.5332" y="724.9756">For each building, retrieve its name and type</text><line style="stroke:#181818;stroke-width:1.0;" x1="306.0732" x2="348.0732" y1="774.5293" y2="774.5293"/><line style="stroke:#181818;stroke-width:1.0;" x1="348.0732" x2="348.0732" y1="774.5293" y2="787.5293"/><line style="stroke:#181818;stroke-width:1.0;" x1="307.0732" x2="348.0732" y1="787.5293" y2="787.5293"/><polygon fill="#181818" points="317.0732,783.5293,307.0732,787.5293,317.0732,791.5293,313.0732,787.5293" style="stroke:#181818;stroke-width:1.0;"/><text fill="#000000" font-family="sans-serif" font-size="13" font-weight="bold" lengthAdjust="spacing" textLength="14.46" x="313.0732" y="769.2666">15</text><text fill="#000000" font-family="sans-serif" font-size="13" lengthAdjust="spacing" textLength="151.7344" x="331.5332" y="769.2666">Get Inventory from Station</text><line style="stroke:#181818;stroke-width:1.0;" x1="306.0732" x2="348.0732" y1="818.8203" y2="818.8203"/><line style="stroke:#181818;stroke-width:1.0;" x1="348.0732" x2="348.0732" y1="818.8203" y2="831.8203"/><line style="stroke:#181818;stroke-width:1.0;" x1="307.0732" x2="348.0732" y1="831.8203" y2="831.8203"/><polygon fill="#181818" points="317.0732,827.8203,307.0732,831.8203,317.0732,835.8203,313.0732,831.8203" style="stroke:#181818;stroke-width:1.0;"/><text fill="#000000" font-family="sans-serif" font-size="13" font-weight="bold" lengthAdjust="spacing" textLength="14.46" x="313.0732" y="813.5576">16</text><text fill="#000000" font-family="sans-serif" font-size="13" lengthAdjust="spacing" textLength="218.9243" x="331.5332" y="813.5576">Retrieve list of Resources in Inventory</text><line style="stroke:#181818;stroke-width:1.0;" x1="306.0732" x2="348.0732" y1="863.1113" y2="863.1113"/><line style="stroke:#181818;stroke-width:1.0;" x1="348.0732" x2="348.0732" y1="863.1113" y2="876.1113"/><line style="stroke:#181818;stroke-width:1.0;" x1="307.0732" x2="348.0732" y1="876.1113" y2="876.1113"/><polygon fill="#181818" points="317.0732,872.1113,307.0732,876.1113,317.0732,880.1113,313.0732,876.1113" style="stroke:#181818;stroke-width:1.0;"/><text fill="#000000" font-family="sans-serif" font-size="13" font-weight="bold" lengthAdjust="spacing" textLength="14.46" x="313.0732" y="857.8486">17</text><text fill="#000000" font-family="sans-serif" font-size="13" lengthAdjust="spacing" textLength="233.416" x="331.5332" y="857.8486">For each resource, get type and quantity</text><line style="stroke:#181818;stroke-width:1.0;" x1="306.0732" x2="348.0732" y1="907.4023" y2="907.4023"/><line style="stroke:#181818;stroke-width:1.0;" x1="348.0732" x2="348.0732" y1="907.4023" y2="920.4023"/><line style="stroke:#181818;stroke-width:1.0;" x1="307.0732" x2="348.0732" y1="920.4023" y2="920.4023"/><polygon fill="#181818" points="317.0732,916.4023,307.0732,920.4023,317.0732,924.4023,313.0732,920.4023" style="stroke:#181818;stroke-width:1.0;"/><text fill="#000000" font-family="sans-serif" font-size="13" font-weight="bold" lengthAdjust="spacing" textLength="14.46" x="313.0732" y="902.1396">18</text><text fill="#000000" font-family="sans-serif" font-size="13" lengthAdjust="spacing" textLength="208.8506" x="331.5332" y="902.1396">Aggregate and format station details</text><polygon fill="#181818" points="53.8413,947.6934,43.8413,951.6934,53.8413,955.6934,49.8413,951.6934" style="stroke:#181818;stroke-width:1.0;"/><line style="stroke:#181818;stroke-width:1.0;stroke-dasharray:2.0,2.0;" x1="47.8413" x2="300.0732" y1="951.6934" y2="951.6934"/><text fill="#000000" font-family="sans-serif" font-size="13" font-weight="bold" lengthAdjust="spacing" textLength="14.46" x="59.8413" y="946.4307">19</text><text fill="#000000" font-family="sans-serif" font-size="13" lengthAdjust="spacing" textLength="177.7598" x="78.3013" y="946.4307">Display selected station details</text><!--SRC=[ZLJ1Rjim3BtxAuYSDY05TXkGmu0DnOeUDWmnjZjZCGvNMN95EaN-VhHZAswMfCr5bi97FZu-IPuuj9YmWIQ6MErIR0WqTLH8_gV5wWbhAlNW2H9LYg7sym3PeOil76hOeXSg2cMrqF8WIWsKzDnHg0Zk6Ui-_4DPtd-4E_XTVlfion-c5n15vHZ0aI9xAGhiD8QksL2oxqfZWbyU3xQpaieLjnWK5gjZZGMWZEMA8Pptg3GXZWlSVPaOhM3TSn85ZU3PLlH-eY0d_9XnHCtn3wGWtCjWB2rR6uMD8vC01qjaxLw2hKajPa_m0ziCEi3ML7-Lv2Qswb8YQzvoGDUJW0RRHtUDPdbiwxpSBClDQeCySJieL4uA5UWLViOi6U3UfeORSmNORyfd2KVjLpPyQUqR5dFODdR1BQ0X4JDOGMQUNEHApXd7xp4rgATi76oSYT3r83jEfisRVERzPGTGS8MZSnyKbvnKahSR0PWTFAYhkwDox_5Ibbg6LEGc2I1k_jh16uE5W0qjOPYkRPUWXzRsZlkRQWVNuBbnaLWnzdM_TUoTYNRHVwOsc2Gxs8nHIzDwPCug0mt0u8Rwrue-XhsPBfjmRE5T1boJn2vLmmqxvRd9D8sG9THMk-Sr47pkxErWlOZzMjU9wdvWVUJsbSFoutJBJtc8vw3__JGx6L-gVm00]--></g></svg>