<svg xmlns="http://www.w3.org/2000/svg" xmlns:xlink="http://www.w3.org/1999/xlink" contentStyleType="text/css" height="853px" preserveAspectRatio="none" style="width:1295px;height:853px;background:#FFFFFF;" version="1.1" viewBox="0 0 1295 853" width="1295px" zoomAndPan="magnify"><defs/><g><!--class ShowStationUI--><g id="elem_ShowStationUI"><rect codeLine="8" fill="#F1F1F1" height="122.4844" id="ShowStationUI" rx="2.5" ry="2.5" style="stroke:#181818;stroke-width:0.5;" width="228.3164" x="219.5" y="26"/><ellipse cx="283.105" cy="42" fill="#ADD1B2" rx="11" ry="11" style="stroke:#181818;stroke-width:1.0;"/><path d="M285.8706,37.875 Q286.0269,37.6563 286.2144,37.5469 Q286.4019,37.4375 286.6206,37.4375 Q286.9956,37.4375 287.23,37.7031 Q287.4644,37.9531 287.4644,38.5625 L287.4644,40.0156 Q287.4644,40.625 287.23,40.8906 Q286.9956,41.1563 286.6206,41.1563 Q286.2769,41.1563 286.0737,40.9531 Q285.8706,40.7656 285.7612,40.25 Q285.7144,39.8906 285.5269,39.7031 Q285.1987,39.3281 284.5894,39.1094 Q283.98,38.8906 283.355,38.8906 Q282.5894,38.8906 281.9487,39.2188 Q281.3237,39.5469 280.8237,40.2969 Q280.3394,41.0469 280.3394,42.0781 L280.3394,43.1719 Q280.3394,44.4063 281.23,45.2344 Q282.1206,46.0469 283.7144,46.0469 Q284.6519,46.0469 285.3081,45.7969 Q285.6987,45.6406 286.1206,45.2031 Q286.3862,44.9375 286.5269,44.8594 Q286.6831,44.7813 286.8862,44.7813 Q287.2144,44.7813 287.4644,45.0469 Q287.73,45.2969 287.73,45.6406 Q287.73,45.9844 287.3862,46.3906 Q286.8862,46.9688 286.0894,47.2969 Q285.0112,47.75 283.7144,47.75 Q282.1987,47.75 280.9956,47.125 Q280.0112,46.625 279.3237,45.5625 Q278.6362,44.4844 278.6362,43.2031 L278.6362,42.0469 Q278.6362,40.7188 279.2456,39.5781 Q279.8706,38.4219 280.9644,37.8125 Q282.0581,37.1875 283.2925,37.1875 Q284.0269,37.1875 284.6675,37.3594 Q285.3237,37.5156 285.8706,37.875 Z " fill="#000000"/><text fill="#000000" font-family="sans-serif" font-size="14" lengthAdjust="spacing" textLength="92.6064" x="303.605" y="47.7969">ShowStationUI</text><line style="stroke:#181818;stroke-width:0.5;" x1="220.5" x2="446.8164" y1="58" y2="58"/><text fill="#000000" font-family="sans-serif" font-size="14" lengthAdjust="spacing" textLength="216.3164" x="225.5" y="77.1074">-controller: ShowStationsController</text><line style="stroke:#181818;stroke-width:0.5;" x1="220.5" x2="446.8164" y1="84.6211" y2="84.6211"/><text fill="#000000" font-family="sans-serif" font-size="14" lengthAdjust="spacing" textLength="171.582" x="225.5" y="103.7285">+ShowStationUI(mapId: int)</text><text fill="#000000" font-family="sans-serif" font-size="14" lengthAdjust="spacing" textLength="71.1963" x="225.5" y="122.3496">+run(): void</text><text fill="#000000" font-family="sans-serif" font-size="14" lengthAdjust="spacing" textLength="123.7168" x="225.5" y="140.9707">-showStation(): void</text></g><!--class ShowStationsController--><g id="elem_ShowStationsController"><rect codeLine="15" fill="#F1F1F1" height="159.7266" id="ShowStationsController" rx="2.5" ry="2.5" style="stroke:#181818;stroke-width:0.5;" width="236.4922" x="482.5" y="7"/><ellipse cx="523.6883" cy="23" fill="#ADD1B2" rx="11" ry="11" style="stroke:#181818;stroke-width:1.0;"/><path d="M526.454,18.875 Q526.6102,18.6563 526.7977,18.5469 Q526.9852,18.4375 527.204,18.4375 Q527.579,18.4375 527.8133,18.7031 Q528.0477,18.9531 528.0477,19.5625 L528.0477,21.0156 Q528.0477,21.625 527.8133,21.8906 Q527.579,22.1563 527.204,22.1563 Q526.8602,22.1563 526.6571,21.9531 Q526.454,21.7656 526.3446,21.25 Q526.2977,20.8906 526.1102,20.7031 Q525.7821,20.3281 525.1727,20.1094 Q524.5633,19.8906 523.9383,19.8906 Q523.1727,19.8906 522.5321,20.2188 Q521.9071,20.5469 521.4071,21.2969 Q520.9227,22.0469 520.9227,23.0781 L520.9227,24.1719 Q520.9227,25.4063 521.8133,26.2344 Q522.704,27.0469 524.2977,27.0469 Q525.2352,27.0469 525.8915,26.7969 Q526.2821,26.6406 526.704,26.2031 Q526.9696,25.9375 527.1102,25.8594 Q527.2665,25.7813 527.4696,25.7813 Q527.7977,25.7813 528.0477,26.0469 Q528.3133,26.2969 528.3133,26.6406 Q528.3133,26.9844 527.9696,27.3906 Q527.4696,27.9688 526.6727,28.2969 Q525.5946,28.75 524.2977,28.75 Q522.7821,28.75 521.579,28.125 Q520.5946,27.625 519.9071,26.5625 Q519.2196,25.4844 519.2196,24.2031 L519.2196,23.0469 Q519.2196,21.7188 519.829,20.5781 Q520.454,19.4219 521.5477,18.8125 Q522.6415,18.1875 523.8758,18.1875 Q524.6102,18.1875 525.2508,18.3594 Q525.9071,18.5156 526.454,18.875 Z " fill="#000000"/><text fill="#000000" font-family="sans-serif" font-size="14" lengthAdjust="spacing" textLength="146.2959" x="543.508" y="28.7969">ShowStationsController</text><line style="stroke:#181818;stroke-width:0.5;" x1="483.5" x2="717.9922" y1="39" y2="39"/><text fill="#000000" font-family="sans-serif" font-size="14" lengthAdjust="spacing" textLength="200.7441" x="488.5" y="58.1074">-mapRepository: MapRepository</text><text fill="#000000" font-family="sans-serif" font-size="14" lengthAdjust="spacing" textLength="104.2686" x="488.5" y="76.7285">-actualMap: Map</text><line style="stroke:#181818;stroke-width:0.5;" x1="483.5" x2="717.9922" y1="84.2422" y2="84.2422"/><text fill="#000000" font-family="sans-serif" font-size="14" lengthAdjust="spacing" textLength="224.4922" x="488.5" y="103.3496">+ShowStationsController(idMap: int)</text><text fill="#000000" font-family="sans-serif" font-size="14" lengthAdjust="spacing" textLength="175.0615" x="488.5" y="121.9707">-initializeRepositories(): void</text><text fill="#000000" font-family="sans-serif" font-size="14" lengthAdjust="spacing" textLength="138.1201" x="488.5" y="140.5918">+getActualMap(): Map</text><text fill="#000000" font-family="sans-serif" font-size="14" lengthAdjust="spacing" textLength="174.6992" x="488.5" y="159.2129">+listStations(): List&lt;Station&gt;</text></g><!--class Map--><g id="elem_Map"><rect codeLine="24" fill="#F1F1F1" height="103.8633" id="Map" rx="2.5" ry="2.5" style="stroke:#181818;stroke-width:0.5;" width="203.8369" x="285.5" y="429"/><ellipse cx="369.5513" cy="445" fill="#ADD1B2" rx="11" ry="11" style="stroke:#181818;stroke-width:1.0;"/><path d="M372.3169,440.875 Q372.4731,440.6563 372.6606,440.5469 Q372.8481,440.4375 373.0669,440.4375 Q373.4419,440.4375 373.6763,440.7031 Q373.9106,440.9531 373.9106,441.5625 L373.9106,443.0156 Q373.9106,443.625 373.6763,443.8906 Q373.4419,444.1563 373.0669,444.1563 Q372.7231,444.1563 372.52,443.9531 Q372.3169,443.7656 372.2075,443.25 Q372.1606,442.8906 371.9731,442.7031 Q371.645,442.3281 371.0356,442.1094 Q370.4263,441.8906 369.8013,441.8906 Q369.0356,441.8906 368.395,442.2188 Q367.77,442.5469 367.27,443.2969 Q366.7856,444.0469 366.7856,445.0781 L366.7856,446.1719 Q366.7856,447.4063 367.6763,448.2344 Q368.5669,449.0469 370.1606,449.0469 Q371.0981,449.0469 371.7544,448.7969 Q372.145,448.6406 372.5669,448.2031 Q372.8325,447.9375 372.9731,447.8594 Q373.1294,447.7813 373.3325,447.7813 Q373.6606,447.7813 373.9106,448.0469 Q374.1763,448.2969 374.1763,448.6406 Q374.1763,448.9844 373.8325,449.3906 Q373.3325,449.9688 372.5356,450.2969 Q371.4575,450.75 370.1606,450.75 Q368.645,450.75 367.4419,450.125 Q366.4575,449.625 365.77,448.5625 Q365.0825,447.4844 365.0825,446.2031 L365.0825,445.0469 Q365.0825,443.7188 365.6919,442.5781 Q366.3169,441.4219 367.4106,440.8125 Q368.5044,440.1875 369.7388,440.1875 Q370.4731,440.1875 371.1138,440.3594 Q371.77,440.5156 372.3169,440.875 Z " fill="#000000"/><text fill="#000000" font-family="sans-serif" font-size="14" lengthAdjust="spacing" textLength="27.2344" x="390.0513" y="450.7969">Map</text><line style="stroke:#181818;stroke-width:0.5;" x1="286.5" x2="488.3369" y1="461" y2="461"/><text fill="#000000" font-family="sans-serif" font-size="14" lengthAdjust="spacing" textLength="107.7822" x="291.5" y="480.1074">+actualMap: Map</text><line style="stroke:#181818;stroke-width:0.5;" x1="286.5" x2="488.3369" y1="487.6211" y2="487.6211"/><text fill="#000000" font-family="sans-serif" font-size="14" lengthAdjust="spacing" textLength="191.8369" x="291.5" y="506.7285">+getStationList(): List&lt;Station&gt;</text><text fill="#000000" font-family="sans-serif" font-size="14" lengthAdjust="spacing" textLength="20.9932" x="291.5" y="525.3496">...()</text></g><!--class StationRepository--><g id="elem_StationRepository"><rect codeLine="30" fill="#F1F1F1" height="103.8633" id="StationRepository" rx="2.5" ry="2.5" style="stroke:#181818;stroke-width:0.5;" width="189.0508" x="553" y="429"/><ellipse cx="588.9465" cy="445" fill="#ADD1B2" rx="11" ry="11" style="stroke:#181818;stroke-width:1.0;"/><path d="M591.7122,440.875 Q591.8684,440.6563 592.0559,440.5469 Q592.2434,440.4375 592.4622,440.4375 Q592.8372,440.4375 593.0715,440.7031 Q593.3059,440.9531 593.3059,441.5625 L593.3059,443.0156 Q593.3059,443.625 593.0715,443.8906 Q592.8372,444.1563 592.4622,444.1563 Q592.1184,444.1563 591.9153,443.9531 Q591.7122,443.7656 591.6028,443.25 Q591.5559,442.8906 591.3684,442.7031 Q591.0403,442.3281 590.4309,442.1094 Q589.8215,441.8906 589.1965,441.8906 Q588.4309,441.8906 587.7903,442.2188 Q587.1653,442.5469 586.6653,443.2969 Q586.1809,444.0469 586.1809,445.0781 L586.1809,446.1719 Q586.1809,447.4063 587.0715,448.2344 Q587.9622,449.0469 589.5559,449.0469 Q590.4934,449.0469 591.1497,448.7969 Q591.5403,448.6406 591.9622,448.2031 Q592.2278,447.9375 592.3684,447.8594 Q592.5247,447.7813 592.7278,447.7813 Q593.0559,447.7813 593.3059,448.0469 Q593.5715,448.2969 593.5715,448.6406 Q593.5715,448.9844 593.2278,449.3906 Q592.7278,449.9688 591.9309,450.2969 Q590.8528,450.75 589.5559,450.75 Q588.0403,450.75 586.8372,450.125 Q585.8528,449.625 585.1653,448.5625 Q584.4778,447.4844 584.4778,446.2031 L584.4778,445.0469 Q584.4778,443.7188 585.0872,442.5781 Q585.7122,441.4219 586.8059,440.8125 Q587.8997,440.1875 589.134,440.1875 Q589.8684,440.1875 590.509,440.3594 Q591.1653,440.5156 591.7122,440.875 Z " fill="#000000"/><text fill="#000000" font-family="sans-serif" font-size="14" lengthAdjust="spacing" textLength="110.5029" x="607.6013" y="450.7969">StationRepository</text><line style="stroke:#181818;stroke-width:0.5;" x1="554" x2="741.0508" y1="461" y2="461"/><text fill="#000000" font-family="sans-serif" font-size="14" lengthAdjust="spacing" textLength="142.4131" x="559" y="480.1074">-stations: List&lt;Station&gt;</text><line style="stroke:#181818;stroke-width:0.5;" x1="554" x2="741.0508" y1="487.6211" y2="487.6211"/><text fill="#000000" font-family="sans-serif" font-size="14" lengthAdjust="spacing" textLength="177.0508" x="559" y="506.7285">+getStations(): List&lt;Station&gt;</text><text fill="#000000" font-family="sans-serif" font-size="14" lengthAdjust="spacing" textLength="20.9932" x="559" y="525.3496">...()</text></g><!--class MapRepository--><g id="elem_MapRepository"><rect codeLine="36" fill="#F1F1F1" height="85.2422" id="MapRepository" rx="2.5" ry="2.5" style="stroke:#181818;stroke-width:0.5;" width="172.6855" x="45" y="438.5"/><ellipse cx="80.9404" cy="454.5" fill="#ADD1B2" rx="11" ry="11" style="stroke:#181818;stroke-width:1.0;"/><path d="M83.706,450.375 Q83.8623,450.1563 84.0498,450.0469 Q84.2373,449.9375 84.456,449.9375 Q84.831,449.9375 85.0654,450.2031 Q85.2998,450.4531 85.2998,451.0625 L85.2998,452.5156 Q85.2998,453.125 85.0654,453.3906 Q84.831,453.6563 84.456,453.6563 Q84.1123,453.6563 83.9091,453.4531 Q83.706,453.2656 83.5966,452.75 Q83.5498,452.3906 83.3623,452.2031 Q83.0341,451.8281 82.4248,451.6094 Q81.8154,451.3906 81.1904,451.3906 Q80.4248,451.3906 79.7841,451.7188 Q79.1591,452.0469 78.6591,452.7969 Q78.1748,453.5469 78.1748,454.5781 L78.1748,455.6719 Q78.1748,456.9063 79.0654,457.7344 Q79.956,458.5469 81.5498,458.5469 Q82.4873,458.5469 83.1435,458.2969 Q83.5341,458.1406 83.956,457.7031 Q84.2216,457.4375 84.3623,457.3594 Q84.5185,457.2813 84.7216,457.2813 Q85.0498,457.2813 85.2998,457.5469 Q85.5654,457.7969 85.5654,458.1406 Q85.5654,458.4844 85.2216,458.8906 Q84.7216,459.4688 83.9248,459.7969 Q82.8466,460.25 81.5498,460.25 Q80.0341,460.25 78.831,459.625 Q77.8466,459.125 77.1591,458.0625 Q76.4716,456.9844 76.4716,455.7031 L76.4716,454.5469 Q76.4716,453.2188 77.081,452.0781 Q77.706,450.9219 78.7998,450.3125 Q79.8935,449.6875 81.1279,449.6875 Q81.8623,449.6875 82.5029,449.8594 Q83.1591,450.0156 83.706,450.375 Z " fill="#000000"/><text fill="#000000" font-family="sans-serif" font-size="14" lengthAdjust="spacing" textLength="94.1514" x="99.5938" y="460.2969">MapRepository</text><line style="stroke:#181818;stroke-width:0.5;" x1="46" x2="216.6855" y1="470.5" y2="470.5"/><line style="stroke:#181818;stroke-width:0.5;" x1="46" x2="216.6855" y1="478.5" y2="478.5"/><text fill="#000000" font-family="sans-serif" font-size="14" lengthAdjust="spacing" textLength="160.6855" x="51" y="497.6074">+getMapById(id: int): Map</text><text fill="#000000" font-family="sans-serif" font-size="14" lengthAdjust="spacing" textLength="20.9932" x="51" y="516.2285">...()</text></g><!--class Repositories--><g id="elem_Repositories"><rect codeLine="41" fill="#F1F1F1" height="122.4844" id="Repositories" rx="2.5" ry="2.5" style="stroke:#181818;stroke-width:0.5;" width="248.9336" x="7" y="228"/><ellipse cx="88.3101" cy="244" fill="#ADD1B2" rx="11" ry="11" style="stroke:#181818;stroke-width:1.0;"/><path d="M91.0757,239.875 Q91.2319,239.6563 91.4194,239.5469 Q91.6069,239.4375 91.8257,239.4375 Q92.2007,239.4375 92.4351,239.7031 Q92.6694,239.9531 92.6694,240.5625 L92.6694,242.0156 Q92.6694,242.625 92.4351,242.8906 Q92.2007,243.1563 91.8257,243.1563 Q91.4819,243.1563 91.2788,242.9531 Q91.0757,242.7656 90.9663,242.25 Q90.9194,241.8906 90.7319,241.7031 Q90.4038,241.3281 89.7944,241.1094 Q89.1851,240.8906 88.5601,240.8906 Q87.7944,240.8906 87.1538,241.2188 Q86.5288,241.5469 86.0288,242.2969 Q85.5444,243.0469 85.5444,244.0781 L85.5444,245.1719 Q85.5444,246.4063 86.4351,247.2344 Q87.3257,248.0469 88.9194,248.0469 Q89.8569,248.0469 90.5132,247.7969 Q90.9038,247.6406 91.3257,247.2031 Q91.5913,246.9375 91.7319,246.8594 Q91.8882,246.7813 92.0913,246.7813 Q92.4194,246.7813 92.6694,247.0469 Q92.9351,247.2969 92.9351,247.6406 Q92.9351,247.9844 92.5913,248.3906 Q92.0913,248.9688 91.2944,249.2969 Q90.2163,249.75 88.9194,249.75 Q87.4038,249.75 86.2007,249.125 Q85.2163,248.625 84.5288,247.5625 Q83.8413,246.4844 83.8413,245.2031 L83.8413,244.0469 Q83.8413,242.7188 84.4507,241.5781 Q85.0757,240.4219 86.1694,239.8125 Q87.2632,239.1875 88.4976,239.1875 Q89.2319,239.1875 89.8726,239.3594 Q90.5288,239.5156 91.0757,239.875 Z " fill="#000000"/><text fill="#000000" font-family="sans-serif" font-size="14" lengthAdjust="spacing" textLength="77.8135" x="108.8101" y="249.7969">Repositories</text><line style="stroke:#181818;stroke-width:0.5;" x1="8" x2="254.9336" y1="260" y2="260"/><text fill="#000000" font-family="sans-serif" font-size="14" lengthAdjust="spacing" textLength="102.3271" x="13" y="279.1074">+mapRepository</text><line style="stroke:#181818;stroke-width:0.5;" x1="8" x2="254.9336" y1="286.6211" y2="286.6211"/><text fill="#000000" font-family="sans-serif" font-size="14" lengthAdjust="spacing" text-decoration="underline" textLength="175.4785" x="13" y="305.7285">+getInstance(): Repositories</text><text fill="#000000" font-family="sans-serif" font-size="14" lengthAdjust="spacing" textLength="236.9336" x="13" y="324.3496">+getMapRepository() : MapRepository</text><text fill="#000000" font-family="sans-serif" font-size="14" lengthAdjust="spacing" textLength="20.9932" x="13" y="342.9707">...()</text></g><!--class Station--><g id="elem_Station"><rect codeLine="48" fill="#F1F1F1" height="85.2422" id="Station" rx="2.5" ry="2.5" style="stroke:#181818;stroke-width:0.5;" width="153.2441" x="823" y="438.5"/><ellipse cx="873.5791" cy="454.5" fill="#ADD1B2" rx="11" ry="11" style="stroke:#181818;stroke-width:1.0;"/><path d="M876.3447,450.375 Q876.501,450.1563 876.6885,450.0469 Q876.876,449.9375 877.0947,449.9375 Q877.4697,449.9375 877.7041,450.2031 Q877.9385,450.4531 877.9385,451.0625 L877.9385,452.5156 Q877.9385,453.125 877.7041,453.3906 Q877.4697,453.6563 877.0947,453.6563 Q876.751,453.6563 876.5479,453.4531 Q876.3447,453.2656 876.2354,452.75 Q876.1885,452.3906 876.001,452.2031 Q875.6729,451.8281 875.0635,451.6094 Q874.4541,451.3906 873.8291,451.3906 Q873.0635,451.3906 872.4229,451.7188 Q871.7979,452.0469 871.2979,452.7969 Q870.8135,453.5469 870.8135,454.5781 L870.8135,455.6719 Q870.8135,456.9063 871.7041,457.7344 Q872.5947,458.5469 874.1885,458.5469 Q875.126,458.5469 875.7822,458.2969 Q876.1729,458.1406 876.5947,457.7031 Q876.8604,457.4375 877.001,457.3594 Q877.1572,457.2813 877.3604,457.2813 Q877.6885,457.2813 877.9385,457.5469 Q878.2041,457.7969 878.2041,458.1406 Q878.2041,458.4844 877.8604,458.8906 Q877.3604,459.4688 876.5635,459.7969 Q875.4854,460.25 874.1885,460.25 Q872.6729,460.25 871.4697,459.625 Q870.4854,459.125 869.7979,458.0625 Q869.1104,456.9844 869.1104,455.7031 L869.1104,454.5469 Q869.1104,453.2188 869.7197,452.0781 Q870.3447,450.9219 871.4385,450.3125 Q872.5322,449.6875 873.7666,449.6875 Q874.501,449.6875 875.1416,449.8594 Q875.7979,450.0156 876.3447,450.375 Z " fill="#000000"/><text fill="#000000" font-family="sans-serif" font-size="14" lengthAdjust="spacing" textLength="43.5859" x="894.0791" y="460.2969">Station</text><line style="stroke:#181818;stroke-width:0.5;" x1="824" x2="975.2441" y1="470.5" y2="470.5"/><line style="stroke:#181818;stroke-width:0.5;" x1="824" x2="975.2441" y1="478.5" y2="478.5"/><text fill="#000000" font-family="sans-serif" font-size="14" lengthAdjust="spacing" textLength="141.2441" x="829" y="497.6074">+toLongString(): String</text><text fill="#000000" font-family="sans-serif" font-size="14" lengthAdjust="spacing" textLength="20.9932" x="829" y="516.2285">...()</text></g><!--class Inventory--><g id="elem_Inventory"><rect codeLine="53" fill="#F1F1F1" height="103.8633" id="Inventory" rx="2.5" ry="2.5" style="stroke:#181818;stroke-width:0.5;" width="237.2715" x="908" y="677"/><ellipse cx="993.5928" cy="693" fill="#ADD1B2" rx="11" ry="11" style="stroke:#181818;stroke-width:1.0;"/><path d="M996.3584,688.875 Q996.5146,688.6563 996.7021,688.5469 Q996.8896,688.4375 997.1084,688.4375 Q997.4834,688.4375 997.7178,688.7031 Q997.9521,688.9531 997.9521,689.5625 L997.9521,691.0156 Q997.9521,691.625 997.7178,691.8906 Q997.4834,692.1563 997.1084,692.1563 Q996.7646,692.1563 996.5615,691.9531 Q996.3584,691.7656 996.249,691.25 Q996.2021,690.8906 996.0146,690.7031 Q995.6865,690.3281 995.0771,690.1094 Q994.4678,689.8906 993.8428,689.8906 Q993.0771,689.8906 992.4365,690.2188 Q991.8115,690.5469 991.3115,691.2969 Q990.8271,692.0469 990.8271,693.0781 L990.8271,694.1719 Q990.8271,695.4063 991.7178,696.2344 Q992.6084,697.0469 994.2021,697.0469 Q995.1396,697.0469 995.7959,696.7969 Q996.1865,696.6406 996.6084,696.2031 Q996.874,695.9375 997.0146,695.8594 Q997.1709,695.7813 997.374,695.7813 Q997.7021,695.7813 997.9521,696.0469 Q998.2178,696.2969 998.2178,696.6406 Q998.2178,696.9844 997.874,697.3906 Q997.374,697.9688 996.5771,698.2969 Q995.499,698.75 994.2021,698.75 Q992.6865,698.75 991.4834,698.125 Q990.499,697.625 989.8115,696.5625 Q989.124,695.4844 989.124,694.2031 L989.124,693.0469 Q989.124,691.7188 989.7334,690.5781 Q990.3584,689.4219 991.4521,688.8125 Q992.5459,688.1875 993.7803,688.1875 Q994.5146,688.1875 995.1553,688.3594 Q995.8115,688.5156 996.3584,688.875 Z " fill="#000000"/><text fill="#000000" font-family="sans-serif" font-size="14" lengthAdjust="spacing" textLength="57.5859" x="1014.0928" y="698.7969">Inventory</text><line style="stroke:#181818;stroke-width:0.5;" x1="909" x2="1144.2715" y1="709" y2="709"/><text fill="#000000" font-family="sans-serif" font-size="14" lengthAdjust="spacing" textLength="175.4785" x="914" y="728.1074">+resources: List&lt;Resource&gt;</text><line style="stroke:#181818;stroke-width:0.5;" x1="909" x2="1144.2715" y1="735.6211" y2="735.6211"/><text fill="#000000" font-family="sans-serif" font-size="14" lengthAdjust="spacing" textLength="225.2715" x="914" y="754.7285">+getAllResources(): List&lt;Resource&gt;</text><text fill="#000000" font-family="sans-serif" font-size="14" lengthAdjust="spacing" textLength="20.9932" x="914" y="773.3496">...()</text></g><!--class Resource--><g id="elem_Resource"><rect codeLine="59" fill="#F1F1F1" height="103.8633" id="Resource" rx="2.5" ry="2.5" style="stroke:#181818;stroke-width:0.5;" width="245.8232" x="1042.5" y="429"/><ellipse cx="1131.2031" cy="445" fill="#ADD1B2" rx="11" ry="11" style="stroke:#181818;stroke-width:1.0;"/><path d="M1133.9688,440.875 Q1134.125,440.6563 1134.3125,440.5469 Q1134.5,440.4375 1134.7188,440.4375 Q1135.0938,440.4375 1135.3281,440.7031 Q1135.5625,440.9531 1135.5625,441.5625 L1135.5625,443.0156 Q1135.5625,443.625 1135.3281,443.8906 Q1135.0938,444.1563 1134.7188,444.1563 Q1134.375,444.1563 1134.1719,443.9531 Q1133.9688,443.7656 1133.8594,443.25 Q1133.8125,442.8906 1133.625,442.7031 Q1133.2969,442.3281 1132.6875,442.1094 Q1132.0781,441.8906 1131.4531,441.8906 Q1130.6875,441.8906 1130.0469,442.2188 Q1129.4219,442.5469 1128.9219,443.2969 Q1128.4375,444.0469 1128.4375,445.0781 L1128.4375,446.1719 Q1128.4375,447.4063 1129.3281,448.2344 Q1130.2188,449.0469 1131.8125,449.0469 Q1132.75,449.0469 1133.4063,448.7969 Q1133.7969,448.6406 1134.2188,448.2031 Q1134.4844,447.9375 1134.625,447.8594 Q1134.7813,447.7813 1134.9844,447.7813 Q1135.3125,447.7813 1135.5625,448.0469 Q1135.8281,448.2969 1135.8281,448.6406 Q1135.8281,448.9844 1135.4844,449.3906 Q1134.9844,449.9688 1134.1875,450.2969 Q1133.1094,450.75 1131.8125,450.75 Q1130.2969,450.75 1129.0938,450.125 Q1128.1094,449.625 1127.4219,448.5625 Q1126.7344,447.4844 1126.7344,446.2031 L1126.7344,445.0469 Q1126.7344,443.7188 1127.3438,442.5781 Q1127.9688,441.4219 1129.0625,440.8125 Q1130.1563,440.1875 1131.3906,440.1875 Q1132.125,440.1875 1132.7656,440.3594 Q1133.4219,440.5156 1133.9688,440.875 Z " fill="#000000"/><text fill="#000000" font-family="sans-serif" font-size="14" lengthAdjust="spacing" textLength="59.917" x="1151.7031" y="450.7969">Resource</text><line style="stroke:#181818;stroke-width:0.5;" x1="1043.5" x2="1287.3232" y1="461" y2="461"/><text fill="#000000" font-family="sans-serif" font-size="14" lengthAdjust="spacing" textLength="199.5889" x="1048.5" y="480.1074">+resourceType: ResourcesType</text><line style="stroke:#181818;stroke-width:0.5;" x1="1043.5" x2="1287.3232" y1="487.6211" y2="487.6211"/><text fill="#000000" font-family="sans-serif" font-size="14" lengthAdjust="spacing" textLength="233.8232" x="1048.5" y="506.7285">+getResourceType(): ResourcesType</text><text fill="#000000" font-family="sans-serif" font-size="14" lengthAdjust="spacing" textLength="20.9932" x="1048.5" y="525.3496">...()</text></g><!--class Building--><g id="elem_Building"><rect codeLine="65" fill="#F1F1F1" height="85.2422" id="Building" rx="2.5" ry="2.5" style="stroke:#181818;stroke-width:0.5;" width="130.6582" x="514" y="686.5"/><ellipse cx="550.9801" cy="702.5" fill="#ADD1B2" rx="11" ry="11" style="stroke:#181818;stroke-width:1.0;"/><path d="M553.7458,698.375 Q553.902,698.1563 554.0895,698.0469 Q554.277,697.9375 554.4958,697.9375 Q554.8708,697.9375 555.1051,698.2031 Q555.3395,698.4531 555.3395,699.0625 L555.3395,700.5156 Q555.3395,701.125 555.1051,701.3906 Q554.8708,701.6563 554.4958,701.6563 Q554.152,701.6563 553.9489,701.4531 Q553.7458,701.2656 553.6364,700.75 Q553.5895,700.3906 553.402,700.2031 Q553.0739,699.8281 552.4645,699.6094 Q551.8551,699.3906 551.2301,699.3906 Q550.4645,699.3906 549.8239,699.7188 Q549.1989,700.0469 548.6989,700.7969 Q548.2145,701.5469 548.2145,702.5781 L548.2145,703.6719 Q548.2145,704.9063 549.1051,705.7344 Q549.9958,706.5469 551.5895,706.5469 Q552.527,706.5469 553.1833,706.2969 Q553.5739,706.1406 553.9958,705.7031 Q554.2614,705.4375 554.402,705.3594 Q554.5583,705.2813 554.7614,705.2813 Q555.0895,705.2813 555.3395,705.5469 Q555.6051,705.7969 555.6051,706.1406 Q555.6051,706.4844 555.2614,706.8906 Q554.7614,707.4688 553.9645,707.7969 Q552.8864,708.25 551.5895,708.25 Q550.0739,708.25 548.8708,707.625 Q547.8864,707.125 547.1989,706.0625 Q546.5114,704.9844 546.5114,703.7031 L546.5114,702.5469 Q546.5114,701.2188 547.1208,700.0781 Q547.7458,698.9219 548.8395,698.3125 Q549.9333,697.6875 551.1676,697.6875 Q551.902,697.6875 552.5426,697.8594 Q553.1989,698.0156 553.7458,698.375 Z " fill="#000000"/><text fill="#000000" font-family="sans-serif" font-size="14" lengthAdjust="spacing" textLength="49.8135" x="569.8646" y="708.2969">Building</text><line style="stroke:#181818;stroke-width:0.5;" x1="515" x2="643.6582" y1="718.5" y2="718.5"/><line style="stroke:#181818;stroke-width:0.5;" x1="515" x2="643.6582" y1="726.5" y2="726.5"/><text fill="#000000" font-family="sans-serif" font-size="14" lengthAdjust="spacing" textLength="118.6582" x="520" y="745.6074">+getName(): String</text><text fill="#000000" font-family="sans-serif" font-size="14" lengthAdjust="spacing" textLength="20.9932" x="520" y="764.2285">...()</text></g><!--class BuildingType--><g id="elem_BuildingType"><rect codeLine="70" fill="#F1F1F1" height="234.2109" id="BuildingType" rx="2.5" ry="2.5" style="stroke:#181818;stroke-width:0.5;" width="127.1309" x="746" y="612"/><ellipse cx="767.387" cy="628" fill="#EB937F" rx="11" ry="11" style="stroke:#181818;stroke-width:1.0;"/><path d="M766.2464,628.7969 L766.2464,631.2969 L770.5745,631.2969 L770.5745,630.375 Q770.5745,629.7656 770.8089,629.5 Q771.0589,629.2344 771.4339,629.2344 Q771.8089,629.2344 772.0433,629.5 Q772.2776,629.7656 772.2776,630.375 L772.2776,633 L764.2776,633 Q763.6526,633 763.387,632.7656 Q763.137,632.5313 763.137,632.1406 Q763.137,631.7656 763.4026,631.5313 Q763.6683,631.2969 764.2776,631.2969 L764.5433,631.2969 L764.5433,624.6406 L764.2776,624.6406 Q763.6526,624.6406 763.387,624.4063 Q763.137,624.1719 763.137,623.7813 Q763.137,623.4063 763.387,623.1719 Q763.6526,622.9375 764.2776,622.9375 L771.9026,622.9375 L771.9026,625.5313 Q771.9026,626.1406 771.6683,626.4063 Q771.4495,626.6563 771.0589,626.6563 Q770.6839,626.6563 770.4495,626.4063 Q770.2151,626.1406 770.2151,625.5313 L770.2151,624.6406 L766.2464,624.6406 L766.2464,627.0938 L767.7308,627.0938 Q767.7308,626.4375 767.8558,626.25 Q768.1214,625.8438 768.5901,625.8438 Q768.9651,625.8438 769.1995,626.1094 Q769.4339,626.3594 769.4339,626.9688 L769.4339,628.9375 Q769.4339,629.4844 769.3089,629.6719 Q769.0433,630.0625 768.5901,630.0625 Q768.1214,630.0625 767.8558,629.6563 Q767.7308,629.4688 767.7308,628.7969 L766.2464,628.7969 Z " fill="#000000"/><text fill="#000000" font-family="sans-serif" font-size="14" lengthAdjust="spacing" textLength="80.9375" x="782.8063" y="633.7969">BuildingType</text><line style="stroke:#181818;stroke-width:0.5;" x1="747" x2="872.1309" y1="644" y2="644"/><text fill="#000000" font-family="sans-serif" font-size="14" lengthAdjust="spacing" textLength="84.7998" x="752" y="663.1074">TELEGRAPH</text><text fill="#000000" font-family="sans-serif" font-size="14" lengthAdjust="spacing" textLength="84.7998" x="752" y="681.7285">TELEPHONE</text><text fill="#000000" font-family="sans-serif" font-size="14" lengthAdjust="spacing" textLength="110.4756" x="752" y="700.3496">SMALL_COFFEE</text><text fill="#000000" font-family="sans-serif" font-size="14" lengthAdjust="spacing" textLength="112.0273" x="752" y="718.9707">LARGE_COFFEE</text><text fill="#000000" font-family="sans-serif" font-size="14" lengthAdjust="spacing" textLength="70" x="752" y="737.5918">CUSTOMS</text><text fill="#000000" font-family="sans-serif" font-size="14" lengthAdjust="spacing" textLength="89.4482" x="752" y="756.2129">POSTOFFICE</text><text fill="#000000" font-family="sans-serif" font-size="14" lengthAdjust="spacing" textLength="100.3721" x="752" y="774.834">SMALL_HOTEL</text><text fill="#000000" font-family="sans-serif" font-size="14" lengthAdjust="spacing" textLength="101.9238" x="752" y="793.4551">LARGE_HOTEL</text><text fill="#000000" font-family="sans-serif" font-size="14" lengthAdjust="spacing" textLength="31.9033" x="752" y="812.0762">SILO</text><text fill="#000000" font-family="sans-serif" font-size="14" lengthAdjust="spacing" textLength="115.1309" x="752" y="830.6973">LIQUIDSTORAGE</text><line style="stroke:#181818;stroke-width:0.5;" x1="747" x2="872.1309" y1="838.2109" y2="838.2109"/></g><!--link ShowStationUI to ShowStationsController--><g id="link_ShowStationUI_ShowStationsController"><path codeLine="83" d="M447.77,87 C458.56,87 465.22,87 476.4,87 " fill="none" id="ShowStationUI-to-ShowStationsController" style="stroke:#181818;stroke-width:1.0;stroke-dasharray:7.0,7.0;"/><polygon fill="#181818" points="482.4,87,473.4,83,477.4,87,473.4,91,482.4,87" style="stroke:#181818;stroke-width:1.0;"/></g><!--link ShowStationUI to Map--><g id="link_ShowStationUI_Map"><path codeLine="84" d="M341.82,148.39 C352.41,225.28 369.701,350.8262 379.641,422.9662 " fill="none" id="ShowStationUI-to-Map" style="stroke:#181818;stroke-width:1.0;stroke-dasharray:7.0,7.0;"/><polygon fill="#181818" points="380.46,428.91,383.1941,419.4482,379.7775,423.9568,375.269,420.5402,380.46,428.91" style="stroke:#181818;stroke-width:1.0;"/></g><!--link ShowStationUI to StationRepository--><g id="link_ShowStationUI_StationRepository"><path codeLine="85" d="M381.87,148.39 C443.46,225.28 545.0387,352.0873 602.8287,424.2273 " fill="none" id="ShowStationUI-to-StationRepository" style="stroke:#181818;stroke-width:1.0;stroke-dasharray:7.0,7.0;"/><polygon fill="#181818" points="606.58,428.91,604.0749,419.385,603.454,425.0077,597.8313,424.3867,606.58,428.91" style="stroke:#181818;stroke-width:1.0;"/></g><!--link ShowStationsController to Map--><g id="link_ShowStationsController_Map"><path codeLine="87" d="M570.93,167.28 C536.56,259.42 484.5,399 484.5,399 C484.5,399 472.636,408.9149 453.266,425.0849 " fill="none" id="ShowStationsController-to-Map" style="stroke:#181818;stroke-width:1.0;stroke-dasharray:7.0,7.0;"/><polygon fill="#181818" points="448.66,428.93,458.1324,426.2331,452.4983,425.7258,453.0056,420.0917,448.66,428.93" style="stroke:#181818;stroke-width:1.0;"/></g><!--link ShowStationsController to MapRepository--><g id="link_ShowStationsController_MapRepository"><path codeLine="88" d="M525.12,167.32 C451.83,244.43 351.5,350 351.5,350 C351.5,350 271.5357,397.2579 207.1857,435.2779 " fill="none" id="ShowStationsController-to-MapRepository" style="stroke:#181818;stroke-width:1.0;stroke-dasharray:7.0,7.0;"/><polygon fill="#181818" points="202.02,438.33,211.8033,437.1957,206.3248,435.7866,207.7339,430.3081,202.02,438.33" style="stroke:#181818;stroke-width:1.0;"/></g><!--link ShowStationsController to Repositories--><g id="link_ShowStationsController_Repositories"><path codeLine="89" d="M482.28,156.67 C471.48,162.94 464.5,167 464.5,167 C464.5,167 356.5693,206.2211 262.0793,240.5511 " fill="none" id="ShowStationsController-to-Repositories" style="stroke:#181818;stroke-width:1.0;stroke-dasharray:7.0,7.0;"/><polygon fill="#181818" points="256.44,242.6,266.2649,243.2862,261.1394,240.8926,263.5331,235.7671,256.44,242.6" style="stroke:#181818;stroke-width:1.0;"/></g><!--link Repositories to Repositories--><g id="link_Repositories_Repositories"><path codeLine="91" d="M256.22,273.35 C276.82,275.57 291,280.78 291,289 C291,297.22 282.7855,301.7871 262.1855,304.0071 " fill="none" id="Repositories-to-Repositories" style="stroke:#181818;stroke-width:1.0;"/><polygon fill="#181818" points="256.22,304.65,265.5968,307.6627,261.1912,304.1143,264.7396,299.7087,256.22,304.65" style="stroke:#181818;stroke-width:1.0;"/><text fill="#000000" font-family="sans-serif" font-size="13" lengthAdjust="spacing" textLength="48.4199" x="297" y="294.5283">instance</text><text fill="#000000" font-family="sans-serif" font-size="13" lengthAdjust="spacing" textLength="7.23" x="264.0424" y="302.1081">1</text></g><!--link Repositories to MapRepository--><g id="link_Repositories_MapRepository"><path codeLine="92" d="M131.5,350.12 C131.5,378.82 131.5,406.45 131.5,432.3 " fill="none" id="Repositories-to-MapRepository" style="stroke:#181818;stroke-width:1.0;"/><polygon fill="#181818" points="131.5,438.3,135.5,429.3,131.5,433.3,127.5,429.3,131.5,438.3" style="stroke:#181818;stroke-width:1.0;"/><text fill="#000000" font-family="sans-serif" font-size="13" lengthAdjust="spacing" textLength="87.4263" x="132.5" y="395.0283">mapRepository</text><text fill="#000000" font-family="sans-serif" font-size="13" lengthAdjust="spacing" textLength="7.23" x="123.9856" y="427.1722">1</text></g><!--link Map to StationRepository--><g id="link_Map_StationRepository"><path codeLine="94" d="M489.51,481 C510.43,481 526.35,481 546.99,481 " fill="none" id="Map-to-StationRepository" style="stroke:#181818;stroke-width:1.0;"/><polygon fill="#181818" points="552.99,481,543.99,477,547.99,481,543.99,485,552.99,481" style="stroke:#181818;stroke-width:1.0;"/><text fill="#000000" font-family="sans-serif" font-size="13" lengthAdjust="spacing" textLength="27.46" x="507.75" y="474.0283">uses</text><text fill="#000000" font-family="sans-serif" font-size="13" lengthAdjust="spacing" textLength="7.23" x="497.2728" y="477.4198">1</text><text fill="#000000" font-family="sans-serif" font-size="13" lengthAdjust="spacing" textLength="7.23" x="537.881" y="477.3421">1</text></g><!--link MapRepository to Map--><g id="link_MapRepository_Map"><path codeLine="96" d="M218.17,481 C239.78,481 257.16,481 279.44,481 " fill="none" id="MapRepository-to-Map" style="stroke:#181818;stroke-width:1.0;"/><polygon fill="#181818" points="285.44,481,276.44,477,280.44,481,276.44,485,285.44,481" style="stroke:#181818;stroke-width:1.0;"/><text fill="#000000" font-family="sans-serif" font-size="13" lengthAdjust="spacing" textLength="31.7891" x="236.25" y="474.0283">maps</text><text fill="#000000" font-family="sans-serif" font-size="13" lengthAdjust="spacing" textLength="5.0591" x="272.4431" y="477.3939">*</text></g><!--link StationRepository to Station--><g id="link_StationRepository_Station"><path codeLine="98" d="M742.05,481 C768.73,481 791.41,481 816.89,481 " fill="none" id="StationRepository-to-Station" style="stroke:#181818;stroke-width:1.0;"/><polygon fill="#181818" points="822.89,481,813.89,477,817.89,481,813.89,485,822.89,481" style="stroke:#181818;stroke-width:1.0;"/><text fill="#000000" font-family="sans-serif" font-size="13" lengthAdjust="spacing" textLength="44.8018" x="760.5" y="474.0283">stations</text><text fill="#000000" font-family="sans-serif" font-size="13" lengthAdjust="spacing" textLength="5.0591" x="809.7222" y="477.1543">*</text></g><!--link Station to Inventory--><g id="link_Station_Inventory"><path codeLine="100" d="M921.04,523.73 C942.84,565.95 973.8274,625.9687 997.2474,671.3287 " fill="none" id="Station-to-Inventory" style="stroke:#181818;stroke-width:1.0;"/><polygon fill="#181818" points="1000,676.66,999.4253,666.8279,997.7061,672.2172,992.3168,670.4981,1000,676.66" style="stroke:#181818;stroke-width:1.0;"/><text fill="#000000" font-family="sans-serif" font-size="13" lengthAdjust="spacing" textLength="48.4199" x="949.5" y="578.0283">contains</text><text fill="#000000" font-family="sans-serif" font-size="13" lengthAdjust="spacing" textLength="7.23" x="916.914" y="545.927">1</text><text fill="#000000" font-family="sans-serif" font-size="13" lengthAdjust="spacing" textLength="7.23" x="989.1536" y="665.9206">1</text></g><!--link Station to Resource--><g id="link_Station_Resource"><path codeLine="101" d="M976.08,481 C996.8,481 1013.76,481 1036.35,481 " fill="none" id="Station-to-Resource" style="stroke:#181818;stroke-width:1.0;"/><polygon fill="#181818" points="1042.35,481,1033.35,477,1037.35,481,1033.35,485,1042.35,481" style="stroke:#181818;stroke-width:1.0;"/><text fill="#000000" font-family="sans-serif" font-size="13" lengthAdjust="spacing" textLength="30.3481" x="994.25" y="474.0283">owns</text><text fill="#000000" font-family="sans-serif" font-size="13" lengthAdjust="spacing" textLength="7.23" x="984.3375" y="477.1543">1</text><text fill="#000000" font-family="sans-serif" font-size="13" lengthAdjust="spacing" textLength="5.0591" x="1029.3081" y="477.4975">*</text></g><!--link Station to Building--><g id="link_Station_Building"><path codeLine="102" d="M844.45,523.85 C794.46,561.85 728.5,612 728.5,612 C728.5,612 680.3644,649.4741 637.6044,682.7641 " fill="none" id="Station-to-Building" style="stroke:#181818;stroke-width:1.0;"/><polygon fill="#181818" points="632.87,686.45,642.4288,684.0775,636.8153,683.3784,637.5143,677.7649,632.87,686.45" style="stroke:#181818;stroke-width:1.0;"/><text fill="#000000" font-family="sans-serif" font-size="13" lengthAdjust="spacing" textLength="20.96" x="790.5" y="578.0283">has</text><text fill="#000000" font-family="sans-serif" font-size="13" lengthAdjust="spacing" textLength="7.23" x="828.4834" y="545.745">1</text><text fill="#000000" font-family="sans-serif" font-size="13" lengthAdjust="spacing" textLength="7.23" x="633.8636" y="675.3461">1</text></g><!--link Building to BuildingType--><g id="link_Building_BuildingType"><path codeLine="104" d="M645.1,729 C676.7,729 708.45,729 739.8,729 " fill="none" id="Building-to-BuildingType" style="stroke:#181818;stroke-width:1.0;"/><polygon fill="#181818" points="745.8,729,736.8,725,740.8,729,736.8,733,745.8,729" style="stroke:#181818;stroke-width:1.0;"/><text fill="#000000" font-family="sans-serif" font-size="13" lengthAdjust="spacing" textLength="64.3081" x="663.5" y="722.0283">classied as</text><text fill="#000000" font-family="sans-serif" font-size="13" lengthAdjust="spacing" textLength="7.23" x="652.6891" y="725.1013">1</text><text fill="#000000" font-family="sans-serif" font-size="13" lengthAdjust="spacing" textLength="7.23" x="730.616" y="724.9973">1</text></g><!--SRC=[TLNHZg8m57tdAvfvqZMQtLUoCM5SL18SNT7dIHUws4nj2IrZN3F_lYsKqWBwrDvpxZctrzx2Fp0jO0cle83f1ynH8ku4WHAb0jAS88yR0h_0ZDqmpS5VIBYD44oHk1S858pSrSQpm9H0pWCXIlod4YXA6KtmFmI-UrwDWEJ2Rec00ZDwZi330_8t1v8cIaO8AdsRmLScNXDdRlha2eieym6cOghnigAJgGy-6SwqDEyo3F8rKetbPSgI-aTKC8u5A-y-sDbRJO6fg22HI0qFgxHa9pYhUQRSkLnYWI6H7JB2677d13EG8n6qBWhgV0ZcelLHI2ptFtLWsPrI9ZH7cesKM-lh79K_r96anM8ncLfjQw2k6O-krEVrwFz3usDepyRfDx0y9F1wZpBPqAQRNKzw2dPNZS1ry3VEmACkA_rIwX6L6veYTG9RmF7l52PJC7OrnbjcYX0iPZHFv9pGN1argx7CY7uYskz0GCWHSLQLAUewtKQMxJ2qZ55yqAe6j5tQs4bEUzCDBQW2FHCL6cFqR5uhJ3BrgbWsR_2AdlK0qUfgafIeJZo5SRWv1eUjsHss-xUmtYMx88xVL_lrEcm2SN3SX7PWTKvE-rrIhmzxkLwlevMTlDrBIIktsoTHl6-0wFSv-YLpZy4cLAMwJzjY-Umb6_3KvHqczsVCCR1Vgw724BLadl3cakZSTiyPdlaIlFnuSHXgzff9wL4rT-U-dkxOUUfHKYnD7XpN1nLNLRYFW69_gwLhGOaF4bkE1dppuXXkuwkDpNZvzLS8oZEvl4QjlTW-OBS-GokrjzG75oZDkgjk7TE-oNxpiSGe0vB_7m00]--></g></svg>