<svg xmlns="http://www.w3.org/2000/svg" xmlns:xlink="http://www.w3.org/1999/xlink" contentStyleType="text/css" height="376.79px" preserveAspectRatio="none" style="width:647px;height:376px;background:#FFFFFF;" version="1.1" viewBox="0 0 647 376" width="647.39px" zoomAndPan="magnify"><defs/><g><rect fill="#FFFFFF" height="297.1243" style="stroke:#181818;stroke-width:0.41;" width="4.1" x="9.3649" y="38.3846"/><rect fill="#FFFFFF" height="287.575" style="stroke:#181818;stroke-width:0.41;" width="4.1" x="125.9755" y="47.934"/><rect fill="#FFFFFF" height="133.6232" style="stroke:#181818;stroke-width:0.41;" width="4.1" x="186.3852" y="60.7633"/><rect fill="#FFFFFF" height="30.9886" style="stroke:#181818;stroke-width:0.41;" width="4.1" x="242.965" y="73.5926"/><rect fill="#FFFFFF" height="12.8293" style="stroke:#181818;stroke-width:0.41;" width="4.1" x="308.3134" y="117.4105"/><rect fill="#FFFFFF" height="38.4879" style="stroke:#181818;stroke-width:0.41;" width="4.1" x="344.6322" y="143.0692"/><rect fill="#FFFFFF" height="12.8293" style="stroke:#181818;stroke-width:0.41;" width="4.1" x="397.2542" y="155.8985"/><rect fill="#FFFFFF" height="38.4879" style="stroke:#181818;stroke-width:0.41;" width="4.1" x="440.2771" y="232.8744"/><rect fill="#FFFFFF" height="38.4879" style="stroke:#181818;stroke-width:0.41;" width="4.1" x="440.2771" y="284.1917"/><rect fill="#FFFFFF" height="12.8293" style="stroke:#181818;stroke-width:0.41;" width="4.1" x="494.9733" y="258.533"/><rect fill="#FFFFFF" height="25.6586" style="stroke:#181818;stroke-width:0.41;" width="4.1" x="528.4249" y="297.021"/><rect fill="#FFFFFF" height="12.8293" style="stroke:#181818;stroke-width:0.41;" width="4.1" x="627.274" y="309.8503"/><line style="stroke:#181818;stroke-width:0.205;stroke-dasharray:5.0,5.0;" x1="11.07" x2="11.07" y1="34.2846" y2="342.8889"/><line style="stroke:#181818;stroke-width:0.205;stroke-dasharray:5.0,5.0;" x1="127.9238" x2="127.9238" y1="34.2846" y2="342.8889"/><line style="stroke:#181818;stroke-width:0.205;stroke-dasharray:5.0,5.0;" x1="188.3972" x2="188.3972" y1="34.2846" y2="342.8889"/><line style="stroke:#181818;stroke-width:0.205;stroke-dasharray:5.0,5.0;" x1="244.6433" x2="244.6433" y1="34.2846" y2="342.8889"/><line style="stroke:#181818;stroke-width:0.205;stroke-dasharray:5.0,5.0;" x1="310.355" x2="310.355" y1="34.2846" y2="342.8889"/><line style="stroke:#181818;stroke-width:0.205;stroke-dasharray:5.0,5.0;" x1="346.4518" x2="346.4518" y1="34.2846" y2="342.8889"/><line style="stroke:#181818;stroke-width:0.205;stroke-dasharray:5.0,5.0;" x1="399.2237" x2="399.2237" y1="34.2846" y2="342.8889"/><line style="stroke:#181818;stroke-width:0.205;stroke-dasharray:5.0,5.0;" x1="442.0246" x2="442.0246" y1="34.2846" y2="342.8889"/><line style="stroke:#181818;stroke-width:0.205;stroke-dasharray:5.0,5.0;" x1="496.6742" x2="496.6742" y1="34.2846" y2="342.8889"/><line style="stroke:#181818;stroke-width:0.205;stroke-dasharray:5.0,5.0;" x1="530.1724" x2="530.1724" y1="34.2846" y2="342.8889"/><line style="stroke:#181818;stroke-width:0.205;stroke-dasharray:5.0,5.0;" x1="628.9536" x2="628.9536" y1="34.2846" y2="342.8889"/><text fill="#000000" font-family="sans-serif" font-size="5.74" lengthAdjust="spacing" textLength="16.2699" x="2.05" y="32.844">Player</text><ellipse cx="11.4149" cy="5.535" fill="#E2E2F0" rx="3.28" ry="3.28" style="stroke:#181818;stroke-width:0.205;"/><path d="M11.4149,8.815 L11.4149,19.885 M6.0849,12.095 L16.7449,12.095 M11.4149,19.885 L6.0849,26.035 M11.4149,19.885 L16.7449,26.035 " fill="none" style="stroke:#181818;stroke-width:0.205;"/><text fill="#000000" font-family="sans-serif" font-size="5.74" lengthAdjust="spacing" textLength="16.2699" x="2.05" y="348.673">Player</text><ellipse cx="11.4149" cy="353.5986" fill="#E2E2F0" rx="3.28" ry="3.28" style="stroke:#181818;stroke-width:0.205;"/><path d="M11.4149,356.8786 L11.4149,367.9486 M6.0849,360.1586 L16.7449,360.1586 M11.4149,367.9486 L6.0849,374.0986 M11.4149,367.9486 L16.7449,374.0986 " fill="none" style="stroke:#181818;stroke-width:0.205;"/><rect fill="#E2E2F0" height="13.3746" rx="1.025" ry="1.025" style="stroke:#181818;stroke-width:0.205;" width="45.3034" x="105.3738" y="20.5"/><text fill="#000000" font-family="sans-serif" font-size="5.74" lengthAdjust="spacing" textLength="39.5634" x="108.2438" y="29.564">:ShowStationUI</text><rect fill="#E2E2F0" height="13.3746" rx="1.025" ry="1.025" style="stroke:#181818;stroke-width:0.205;" width="45.3034" x="105.3738" y="342.4789"/><text fill="#000000" font-family="sans-serif" font-size="5.74" lengthAdjust="spacing" textLength="39.5634" x="108.2438" y="351.543">:ShowStationUI</text><rect fill="#E2E2F0" height="13.3746" rx="1.025" ry="1.025" style="stroke:#181818;stroke-width:0.205;" width="67.3161" x="154.7772" y="20.5"/><text fill="#000000" font-family="sans-serif" font-size="5.74" lengthAdjust="spacing" textLength="61.5761" x="157.6472" y="29.564">:ShowStationsController</text><rect fill="#E2E2F0" height="13.3746" rx="1.025" ry="1.025" style="stroke:#181818;stroke-width:0.205;" width="67.3161" x="154.7772" y="342.4789"/><text fill="#000000" font-family="sans-serif" font-size="5.74" lengthAdjust="spacing" textLength="61.5761" x="157.6472" y="351.543">:ShowStationsController</text><rect fill="#E2E2F0" height="13.3746" rx="1.025" ry="1.025" style="stroke:#181818;stroke-width:0.205;" width="37.6435" x="226.1933" y="20.5"/><text fill="#000000" font-family="sans-serif" font-size="5.74" lengthAdjust="spacing" textLength="31.9035" x="229.0633" y="29.564">Repositories</text><rect fill="#E2E2F0" height="13.3746" rx="1.025" ry="1.025" style="stroke:#181818;stroke-width:0.205;" width="37.6435" x="226.1933" y="342.4789"/><text fill="#000000" font-family="sans-serif" font-size="5.74" lengthAdjust="spacing" textLength="31.9035" x="229.0633" y="351.543">Repositories</text><rect fill="#E2E2F0" height="21.0093" rx="1.025" ry="1.025" style="stroke:#181818;stroke-width:0.205;" width="45.9368" x="287.395" y="12.8654"/><text fill="#000000" font-family="sans-serif" font-size="5.74" lengthAdjust="spacing" textLength="38.6021" x="291.0624" y="21.9294">mapRepository</text><text fill="#000000" font-family="sans-serif" font-size="5.74" lengthAdjust="spacing" textLength="40.1968" x="290.265" y="29.564">:MapRepository</text><rect fill="#E2E2F0" height="21.0093" rx="1.025" ry="1.025" style="stroke:#181818;stroke-width:0.205;" width="45.9368" x="287.395" y="342.4789"/><text fill="#000000" font-family="sans-serif" font-size="5.74" lengthAdjust="spacing" textLength="38.6021" x="291.0624" y="351.543">mapRepository</text><text fill="#000000" font-family="sans-serif" font-size="5.74" lengthAdjust="spacing" textLength="40.1968" x="290.265" y="359.1776">:MapRepository</text><rect fill="#E2E2F0" height="21.0093" rx="1.025" ry="1.025" style="stroke:#181818;stroke-width:0.205;" width="18.5008" x="337.4318" y="12.8654"/><text fill="#000000" font-family="sans-serif" font-size="5.74" lengthAdjust="spacing" textLength="11.1661" x="341.0992" y="21.9294">map</text><text fill="#000000" font-family="sans-serif" font-size="5.74" lengthAdjust="spacing" textLength="12.7608" x="340.3018" y="29.564">:Map</text><rect fill="#E2E2F0" height="21.0093" rx="1.025" ry="1.025" style="stroke:#181818;stroke-width:0.205;" width="18.5008" x="337.4318" y="342.4789"/><text fill="#000000" font-family="sans-serif" font-size="5.74" lengthAdjust="spacing" textLength="11.1661" x="341.0992" y="351.543">map</text><text fill="#000000" font-family="sans-serif" font-size="5.74" lengthAdjust="spacing" textLength="12.7608" x="340.3018" y="359.1776">:Map</text><rect fill="#E2E2F0" height="21.0093" rx="1.025" ry="1.025" style="stroke:#181818;stroke-width:0.205;" width="52.641" x="372.9837" y="12.8654"/><text fill="#000000" font-family="sans-serif" font-size="5.74" lengthAdjust="spacing" textLength="44.3477" x="377.1303" y="21.9294">stationRepository</text><text fill="#000000" font-family="sans-serif" font-size="5.74" lengthAdjust="spacing" textLength="46.901" x="375.8537" y="29.564">:StationRepository</text><rect fill="#E2E2F0" height="21.0093" rx="1.025" ry="1.025" style="stroke:#181818;stroke-width:0.205;" width="52.641" x="372.9837" y="342.4789"/><text fill="#000000" font-family="sans-serif" font-size="5.74" lengthAdjust="spacing" textLength="44.3477" x="377.1303" y="351.543">stationRepository</text><text fill="#000000" font-family="sans-serif" font-size="5.74" lengthAdjust="spacing" textLength="46.901" x="375.8537" y="359.1776">:StationRepository</text><rect fill="#E2E2F0" height="21.0093" rx="1.025" ry="1.025" style="stroke:#181818;stroke-width:0.205;" width="25.205" x="429.7246" y="12.8654"/><text fill="#000000" font-family="sans-serif" font-size="5.74" lengthAdjust="spacing" textLength="16.9117" x="433.8713" y="21.9294">station</text><text fill="#000000" font-family="sans-serif" font-size="5.74" lengthAdjust="spacing" textLength="19.465" x="432.5946" y="29.564">:Station</text><rect fill="#E2E2F0" height="21.0093" rx="1.025" ry="1.025" style="stroke:#181818;stroke-width:0.205;" width="25.205" x="429.7246" y="342.4789"/><text fill="#000000" font-family="sans-serif" font-size="5.74" lengthAdjust="spacing" textLength="16.9117" x="433.8713" y="351.543">station</text><text fill="#000000" font-family="sans-serif" font-size="5.74" lengthAdjust="spacing" textLength="19.465" x="432.5946" y="359.1776">:Station</text><rect fill="#E2E2F0" height="21.0093" rx="1.025" ry="1.025" style="stroke:#181818;stroke-width:0.205;" width="27.7583" x="483.1442" y="12.8654"/><text fill="#000000" font-family="sans-serif" font-size="5.74" lengthAdjust="spacing" textLength="19.7873" x="487.1296" y="21.9294">building</text><text fill="#000000" font-family="sans-serif" font-size="5.74" lengthAdjust="spacing" textLength="22.0183" x="486.0142" y="29.564">:Building</text><rect fill="#E2E2F0" height="21.0093" rx="1.025" ry="1.025" style="stroke:#181818;stroke-width:0.205;" width="27.7583" x="483.1442" y="342.4789"/><text fill="#000000" font-family="sans-serif" font-size="5.74" lengthAdjust="spacing" textLength="19.7873" x="487.1296" y="351.543">building</text><text fill="#000000" font-family="sans-serif" font-size="5.74" lengthAdjust="spacing" textLength="22.0183" x="486.0142" y="359.1776">:Building</text><rect fill="#E2E2F0" height="21.0093" rx="1.025" ry="1.025" style="stroke:#181818;stroke-width:0.205;" width="30.945" x="515.0024" y="12.8654"/><text fill="#000000" font-family="sans-serif" font-size="5.74" lengthAdjust="spacing" textLength="23.2907" x="518.8296" y="21.9294">inventory</text><text fill="#000000" font-family="sans-serif" font-size="5.74" lengthAdjust="spacing" textLength="25.205" x="517.8724" y="29.564">:Inventory</text><rect fill="#E2E2F0" height="21.0093" rx="1.025" ry="1.025" style="stroke:#181818;stroke-width:0.205;" width="30.945" x="515.0024" y="342.4789"/><text fill="#000000" font-family="sans-serif" font-size="5.74" lengthAdjust="spacing" textLength="23.2907" x="518.8296" y="351.543">inventory</text><text fill="#000000" font-family="sans-serif" font-size="5.74" lengthAdjust="spacing" textLength="25.205" x="517.8724" y="359.1776">:Inventory</text><rect fill="#E2E2F0" height="21.0093" rx="1.025" ry="1.025" style="stroke:#181818;stroke-width:0.205;" width="31.9007" x="613.3736" y="12.8654"/><text fill="#000000" font-family="sans-serif" font-size="5.74" lengthAdjust="spacing" textLength="22.3322" x="618.1579" y="21.9294">resource</text><text fill="#000000" font-family="sans-serif" font-size="5.74" lengthAdjust="spacing" textLength="26.1607" x="616.2436" y="29.564">:Resource</text><rect fill="#E2E2F0" height="21.0093" rx="1.025" ry="1.025" style="stroke:#181818;stroke-width:0.205;" width="31.9007" x="613.3736" y="342.4789"/><text fill="#000000" font-family="sans-serif" font-size="5.74" lengthAdjust="spacing" textLength="22.3322" x="618.1579" y="351.543">resource</text><text fill="#000000" font-family="sans-serif" font-size="5.74" lengthAdjust="spacing" textLength="26.1607" x="616.2436" y="359.1776">:Resource</text><rect fill="#FFFFFF" height="297.1243" style="stroke:#181818;stroke-width:0.41;" width="4.1" x="9.3649" y="38.3846"/><rect fill="#FFFFFF" height="287.575" style="stroke:#181818;stroke-width:0.41;" width="4.1" x="125.9755" y="47.934"/><rect fill="#FFFFFF" height="133.6232" style="stroke:#181818;stroke-width:0.41;" width="4.1" x="186.3852" y="60.7633"/><rect fill="#FFFFFF" height="30.9886" style="stroke:#181818;stroke-width:0.41;" width="4.1" x="242.965" y="73.5926"/><rect fill="#FFFFFF" height="12.8293" style="stroke:#181818;stroke-width:0.41;" width="4.1" x="308.3134" y="117.4105"/><rect fill="#FFFFFF" height="38.4879" style="stroke:#181818;stroke-width:0.41;" width="4.1" x="344.6322" y="143.0692"/><rect fill="#FFFFFF" height="12.8293" style="stroke:#181818;stroke-width:0.41;" width="4.1" x="397.2542" y="155.8985"/><rect fill="#FFFFFF" height="38.4879" style="stroke:#181818;stroke-width:0.41;" width="4.1" x="440.2771" y="232.8744"/><rect fill="#FFFFFF" height="38.4879" style="stroke:#181818;stroke-width:0.41;" width="4.1" x="440.2771" y="284.1917"/><rect fill="#FFFFFF" height="12.8293" style="stroke:#181818;stroke-width:0.41;" width="4.1" x="494.9733" y="258.533"/><rect fill="#FFFFFF" height="25.6586" style="stroke:#181818;stroke-width:0.41;" width="4.1" x="528.4249" y="297.021"/><rect fill="#FFFFFF" height="12.8293" style="stroke:#181818;stroke-width:0.41;" width="4.1" x="627.274" y="309.8503"/><polygon fill="#181818" points="121.0555,46.294,125.1555,47.934,121.0555,49.574,122.6955,47.934" style="stroke:#181818;stroke-width:0.41;"/><line style="stroke:#181818;stroke-width:0.41;" x1="13.4649" x2="123.5155" y1="47.934" y2="47.934"/><text fill="#000000" font-family="sans-serif" font-size="5.33" font-weight="bold" lengthAdjust="spacing" textLength="2.9643" x="16.3349" y="45.7763">1</text><text fill="#000000" font-family="sans-serif" font-size="5.33" lengthAdjust="spacing" textLength="11.2534" x="20.9392" y="45.7763">run()</text><polygon fill="#181818" points="181.4652,59.1233,185.5652,60.7633,181.4652,62.4033,183.1052,60.7633" style="stroke:#181818;stroke-width:0.41;"/><line style="stroke:#181818;stroke-width:0.41;" x1="130.0755" x2="183.9252" y1="60.7633" y2="60.7633"/><text fill="#000000" font-family="sans-serif" font-size="5.33" font-weight="bold" lengthAdjust="spacing" textLength="2.9643" x="132.9455" y="58.6056">2</text><text fill="#000000" font-family="sans-serif" font-size="5.33" lengthAdjust="spacing" textLength="29.3228" x="137.5498" y="58.6056">listStations()</text><polygon fill="#181818" points="238.045,71.9526,242.145,73.5926,238.045,75.2326,239.685,73.5926" style="stroke:#181818;stroke-width:0.41;"/><line style="stroke:#181818;stroke-width:0.41;" x1="190.4852" x2="240.505" y1="73.5926" y2="73.5926"/><text fill="#000000" font-family="sans-serif" font-size="5.33" font-weight="bold" lengthAdjust="spacing" textLength="2.9643" x="193.3552" y="71.4349">3</text><text fill="#000000" font-family="sans-serif" font-size="5.33" lengthAdjust="spacing" textLength="31.1081" x="197.9595" y="71.4349">getInstance()</text><line style="stroke:#181818;stroke-width:0.41;" x1="247.065" x2="264.285" y1="86.4219" y2="86.4219"/><line style="stroke:#181818;stroke-width:0.41;" x1="264.285" x2="264.285" y1="86.4219" y2="91.7519"/><line style="stroke:#181818;stroke-width:0.41;" x1="247.475" x2="264.285" y1="91.7519" y2="91.7519"/><polygon fill="#181818" points="251.575,90.1119,247.475,91.7519,251.575,93.3919,249.935,91.7519" style="stroke:#181818;stroke-width:0.41;"/><text fill="#000000" font-family="sans-serif" font-size="5.33" font-weight="bold" lengthAdjust="spacing" textLength="2.9643" x="249.935" y="84.2642">4</text><text fill="#000000" font-family="sans-serif" font-size="5.33" lengthAdjust="spacing" textLength="46.8041" x="254.5393" y="84.2642">getMapRepository()</text><polygon fill="#181818" points="194.9952,102.9412,190.8952,104.5812,194.9952,106.2212,193.3552,104.5812" style="stroke:#181818;stroke-width:0.41;"/><line style="stroke:#181818;stroke-width:0.41;stroke-dasharray:2.0,2.0;" x1="192.5352" x2="244.605" y1="104.5812" y2="104.5812"/><text fill="#000000" font-family="sans-serif" font-size="5.33" font-weight="bold" lengthAdjust="spacing" textLength="2.9643" x="197.4552" y="102.4235">5</text><text fill="#000000" font-family="sans-serif" font-size="5.33" lengthAdjust="spacing" textLength="35.8448" x="202.0595" y="102.4235">MapRepository</text><polygon fill="#181818" points="303.3934,115.7705,307.4934,117.4105,303.3934,119.0505,305.0334,117.4105" style="stroke:#181818;stroke-width:0.41;"/><line style="stroke:#181818;stroke-width:0.41;" x1="190.4852" x2="305.8534" y1="117.4105" y2="117.4105"/><text fill="#000000" font-family="sans-serif" font-size="5.33" font-weight="bold" lengthAdjust="spacing" textLength="2.9643" x="193.3552" y="115.2528">6</text><text fill="#000000" font-family="sans-serif" font-size="5.33" lengthAdjust="spacing" textLength="46.8067" x="197.9595" y="115.2528">getMapById(mapId)</text><polygon fill="#181818" points="194.9952,128.5999,190.8952,130.2399,194.9952,131.8799,193.3552,130.2399" style="stroke:#181818;stroke-width:0.41;"/><line style="stroke:#181818;stroke-width:0.41;stroke-dasharray:2.0,2.0;" x1="192.5352" x2="309.9534" y1="130.2399" y2="130.2399"/><text fill="#000000" font-family="sans-serif" font-size="5.33" font-weight="bold" lengthAdjust="spacing" textLength="2.9643" x="197.4552" y="128.0822">7</text><text fill="#000000" font-family="sans-serif" font-size="5.33" lengthAdjust="spacing" textLength="10.3685" x="202.0595" y="128.0822">Map</text><polygon fill="#181818" points="339.7122,141.4292,343.8122,143.0692,339.7122,144.7092,341.3522,143.0692" style="stroke:#181818;stroke-width:0.41;"/><line style="stroke:#181818;stroke-width:0.41;" x1="190.4852" x2="342.1722" y1="143.0692" y2="143.0692"/><text fill="#000000" font-family="sans-serif" font-size="5.33" font-weight="bold" lengthAdjust="spacing" textLength="2.9643" x="193.3552" y="140.9115">8</text><text fill="#000000" font-family="sans-serif" font-size="5.33" lengthAdjust="spacing" textLength="35.8474" x="197.9595" y="140.9115">getStationList()</text><polygon fill="#181818" points="392.3342,154.2585,396.4342,155.8985,392.3342,157.5385,393.9742,155.8985" style="stroke:#181818;stroke-width:0.41;"/><line style="stroke:#181818;stroke-width:0.41;" x1="348.7322" x2="394.7942" y1="155.8985" y2="155.8985"/><text fill="#000000" font-family="sans-serif" font-size="5.33" font-weight="bold" lengthAdjust="spacing" textLength="2.9643" x="351.6022" y="153.7408">9</text><text fill="#000000" font-family="sans-serif" font-size="5.33" lengthAdjust="spacing" textLength="30.2181" x="356.2065" y="153.7408">getStations()</text><polygon fill="#181818" points="353.2422,167.0878,349.1422,168.7278,353.2422,170.3678,351.6022,168.7278" style="stroke:#181818;stroke-width:0.41;"/><line style="stroke:#181818;stroke-width:0.41;stroke-dasharray:2.0,2.0;" x1="350.7822" x2="398.8942" y1="168.7278" y2="168.7278"/><text fill="#000000" font-family="sans-serif" font-size="5.33" font-weight="bold" lengthAdjust="spacing" textLength="5.9286" x="355.7022" y="166.5701">10</text><text fill="#000000" font-family="sans-serif" font-size="5.33" lengthAdjust="spacing" textLength="31.1134" x="363.2708" y="166.5701">List&lt;Station&gt;</text><polygon fill="#181818" points="194.9952,179.9171,190.8952,181.5571,194.9952,183.1971,193.3552,181.5571" style="stroke:#181818;stroke-width:0.41;"/><line style="stroke:#181818;stroke-width:0.41;stroke-dasharray:2.0,2.0;" x1="192.5352" x2="346.2722" y1="181.5571" y2="181.5571"/><text fill="#000000" font-family="sans-serif" font-size="5.33" font-weight="bold" lengthAdjust="spacing" textLength="5.9286" x="197.4552" y="179.3994">11</text><text fill="#000000" font-family="sans-serif" font-size="5.33" lengthAdjust="spacing" textLength="31.1134" x="205.0238" y="179.3994">List&lt;Station&gt;</text><polygon fill="#181818" points="134.5855,192.7464,130.4855,194.3864,134.5855,196.0264,132.9455,194.3864" style="stroke:#181818;stroke-width:0.41;"/><line style="stroke:#181818;stroke-width:0.41;stroke-dasharray:2.0,2.0;" x1="132.1255" x2="188.0252" y1="194.3864" y2="194.3864"/><text fill="#000000" font-family="sans-serif" font-size="5.33" font-weight="bold" lengthAdjust="spacing" textLength="5.9286" x="137.0455" y="192.2287">12</text><text fill="#000000" font-family="sans-serif" font-size="5.33" lengthAdjust="spacing" textLength="31.1134" x="144.6141" y="192.2287">List&lt;Station&gt;</text><polygon fill="#181818" points="17.9749,205.5758,13.8749,207.2158,17.9749,208.8558,16.3349,207.2158" style="stroke:#181818;stroke-width:0.41;"/><line style="stroke:#181818;stroke-width:0.41;" x1="15.5149" x2="125.5655" y1="207.2158" y2="207.2158"/><text fill="#000000" font-family="sans-serif" font-size="5.33" font-weight="bold" lengthAdjust="spacing" textLength="5.9286" x="20.4349" y="205.0581">13</text><text fill="#000000" font-family="sans-serif" font-size="5.33" lengthAdjust="spacing" textLength="95.102" x="28.0035" y="205.0581">shows station list and requests selection</text><polygon fill="#181818" points="121.0555,218.4051,125.1555,220.0451,121.0555,221.6851,122.6955,220.0451" style="stroke:#181818;stroke-width:0.41;"/><line style="stroke:#181818;stroke-width:0.41;" x1="13.4649" x2="123.5155" y1="220.0451" y2="220.0451"/><text fill="#000000" font-family="sans-serif" font-size="5.33" font-weight="bold" lengthAdjust="spacing" textLength="5.9286" x="16.3349" y="217.8874">14</text><text fill="#000000" font-family="sans-serif" font-size="5.33" lengthAdjust="spacing" textLength="33.7731" x="23.9035" y="217.8874">selects station</text><polygon fill="#181818" points="435.3571,231.2344,439.4571,232.8744,435.3571,234.5144,436.9971,232.8744" style="stroke:#181818;stroke-width:0.41;"/><line style="stroke:#181818;stroke-width:0.41;" x1="130.0755" x2="437.8171" y1="232.8744" y2="232.8744"/><text fill="#000000" font-family="sans-serif" font-size="5.33" font-weight="bold" lengthAdjust="spacing" textLength="5.9286" x="132.9455" y="230.7167">15</text><text fill="#000000" font-family="sans-serif" font-size="5.33" lengthAdjust="spacing" textLength="135.3763" x="140.5141" y="230.7167">getName(), getPosition(), getStationType(), getDirection()</text><polygon fill="#181818" points="435.3571,244.0637,439.4571,245.7037,435.3571,247.3437,436.9971,245.7037" style="stroke:#181818;stroke-width:0.41;"/><line style="stroke:#181818;stroke-width:0.41;" x1="130.0755" x2="437.8171" y1="245.7037" y2="245.7037"/><text fill="#000000" font-family="sans-serif" font-size="5.33" font-weight="bold" lengthAdjust="spacing" textLength="5.9286" x="132.9455" y="243.546">16</text><text fill="#000000" font-family="sans-serif" font-size="5.33" lengthAdjust="spacing" textLength="32.589" x="140.5141" y="243.546">getBuildings()</text><polygon fill="#181818" points="490.0533,256.893,494.1533,258.533,490.0533,260.173,491.6933,258.533" style="stroke:#181818;stroke-width:0.41;"/><line style="stroke:#181818;stroke-width:0.41;" x1="444.3771" x2="492.5133" y1="258.533" y2="258.533"/><text fill="#000000" font-family="sans-serif" font-size="5.33" font-weight="bold" lengthAdjust="spacing" textLength="5.9286" x="447.2471" y="256.3753">17</text><text fill="#000000" font-family="sans-serif" font-size="5.33" lengthAdjust="spacing" textLength="25.177" x="454.8157" y="256.3753">getName()</text><polygon fill="#181818" points="446.8371,269.7223,442.7371,271.3623,446.8371,273.0023,445.1971,271.3623" style="stroke:#181818;stroke-width:0.41;"/><line style="stroke:#181818;stroke-width:0.41;stroke-dasharray:2.0,2.0;" x1="444.3771" x2="496.6133" y1="271.3623" y2="271.3623"/><text fill="#000000" font-family="sans-serif" font-size="5.33" font-weight="bold" lengthAdjust="spacing" textLength="5.9286" x="449.2971" y="269.2046">18</text><text fill="#000000" font-family="sans-serif" font-size="5.33" lengthAdjust="spacing" textLength="33.1876" x="456.8657" y="269.2046">building name</text><polygon fill="#181818" points="435.3571,282.5517,439.4571,284.1917,435.3571,285.8317,436.9971,284.1917" style="stroke:#181818;stroke-width:0.41;"/><line style="stroke:#181818;stroke-width:0.41;" x1="130.0755" x2="437.8171" y1="284.1917" y2="284.1917"/><text fill="#000000" font-family="sans-serif" font-size="5.33" font-weight="bold" lengthAdjust="spacing" textLength="5.9286" x="132.9455" y="282.034">19</text><text fill="#000000" font-family="sans-serif" font-size="5.33" lengthAdjust="spacing" textLength="32.8831" x="140.5141" y="282.034">getInventory()</text><polygon fill="#181818" points="523.5049,295.381,527.6049,297.021,523.5049,298.661,525.1449,297.021" style="stroke:#181818;stroke-width:0.41;"/><line style="stroke:#181818;stroke-width:0.41;" x1="444.3771" x2="525.9649" y1="297.021" y2="297.021"/><text fill="#000000" font-family="sans-serif" font-size="5.33" font-weight="bold" lengthAdjust="spacing" textLength="5.9286" x="447.2471" y="294.8633">20</text><text fill="#000000" font-family="sans-serif" font-size="5.33" lengthAdjust="spacing" textLength="42.3589" x="454.8157" y="294.8633">getAllResources()</text><polygon fill="#181818" points="622.354,308.2103,626.454,309.8503,622.354,311.4903,623.994,309.8503" style="stroke:#181818;stroke-width:0.41;"/><line style="stroke:#181818;stroke-width:0.41;" x1="532.5249" x2="624.814" y1="309.8503" y2="309.8503"/><text fill="#000000" font-family="sans-serif" font-size="5.33" font-weight="bold" lengthAdjust="spacing" textLength="5.9286" x="535.3949" y="307.6926">21</text><text fill="#000000" font-family="sans-serif" font-size="5.33" lengthAdjust="spacing" textLength="79.3905" x="542.9635" y="307.6926">getResourceType(), getQuantity()</text><polygon fill="#181818" points="534.9849,321.0396,530.8849,322.6796,534.9849,324.3196,533.3449,322.6796" style="stroke:#181818;stroke-width:0.41;"/><line style="stroke:#181818;stroke-width:0.41;stroke-dasharray:2.0,2.0;" x1="532.5249" x2="628.914" y1="322.6796" y2="322.6796"/><text fill="#000000" font-family="sans-serif" font-size="5.33" font-weight="bold" lengthAdjust="spacing" textLength="5.9286" x="537.4449" y="320.5219">22</text><text fill="#000000" font-family="sans-serif" font-size="5.33" lengthAdjust="spacing" textLength="30.2233" x="545.0135" y="320.5219">type/quantity</text><polygon fill="#181818" points="15.9249,333.8689,11.8249,335.5089,15.9249,337.1489,14.2849,335.5089" style="stroke:#181818;stroke-width:0.41;"/><line style="stroke:#181818;stroke-width:0.41;" x1="13.4649" x2="127.6155" y1="335.5089" y2="335.5089"/><text fill="#000000" font-family="sans-serif" font-size="5.33" font-weight="bold" lengthAdjust="spacing" textLength="5.9286" x="18.3849" y="333.3512">23</text><text fill="#000000" font-family="sans-serif" font-size="5.33" lengthAdjust="spacing" textLength="70.5132" x="25.9535" y="333.3512">shows selected station details</text><!--SRC=[XLLTRzem57tdLrWyCMbexsYg12sQ8b5W2KogD6bo4uzQDKuQEqNvzxln5xPnc9ySVEwvtmVnJdc3Mtn63IxVyOaKicS4jQIKc9yOcGW746-ugY-Kdz1Vp0IPJ70dQzwTNqaBzrBMBPhk6Uv9EqLOeFrc-RBE9s0hQKaRp2MQBegt-b98B6dDZvc27RDnY7YikMnhnWpbuo7VXEYSDBMWu9eIeI3vUhyhGimPDmxM_-QBP_zR6Jqlzty6mnixZRQOy5de60Fg8lvDcHQ71BinlnePwFAGxROXzBMZh8Aw0tPbhWgyEcQRfspx8qHJ_acuYIUpTuNFjh_MsyCkVmaDMYBghYq9u7DpDQKiTiVySQsQIp-n9BQd28w-ela3T10jKDlnsHVruC3GMMGEG00uj0-WZ0ff6sni0ZlLPUGTPGVsghT0S28our0_NXBFFk3GOu2Yemb2fc0Q8ZhFvXf-O130AtB7lqt2pfhplkgpQWQpbbKZkRZfZ4DpL65qOp4bURomT4IcCnjeqcmye5Gi0uqPzO1A9AhgkEnkeCInP7CNtn3LTqFxS6FZvJf6gyAyLckSBwnRecHsyDCKdhaQvsWJpF8iG5FhYq162zHc8CmhaD-FZWW9BuI14iER8uZsJWCSHUJ7o8bknnQVOL- -3jVzCBu0Dvyc_4FVMC0JRRLVltTUTRLA-LL9EBHY5G-01G7UIfWVONhedDZ5BNKKyy2_5Kt4WNIijJUamGY5IIOITFAQah5KaRpCdHXhgYLZLdp5M0ck-XtNu4gcn4thjYQsh5vpVtQW-rJsz_RIYNzgCPs7UPI812VVFWpzlVrCqdlljwd-jpFnJgd589LRhef8J9cOH6JmB-LzQP9_]--></g></svg>