<svg xmlns="http://www.w3.org/2000/svg" xmlns:xlink="http://www.w3.org/1999/xlink" contentStyleType="text/css" height="773px" preserveAspectRatio="none" style="width:1033px;height:773px;background:#FFFFFF;" version="1.1" viewBox="0 0 1033 773" width="1033px" zoomAndPan="magnify"><title>System Sequence Diagram (SSD) - US09 - Buy a locomotive</title><defs/><g><text fill="#000000" font-family="sans-serif" font-size="14" font-weight="bold" lengthAdjust="spacing" textLength="427.752" x="301.3164" y="28.5352">System Sequence Diagram (SSD) - US09 - Buy a locomotive</text><rect fill="#FFFFFF" height="380.416" style="stroke:#181818;stroke-width:1.0;" width="10" x="38.1797" y="128.9766"/><rect fill="#FFFFFF" height="233.8633" style="stroke:#181818;stroke-width:1.0;" width="10" x="460.6357" y="150.2871"/><rect fill="#FFFFFF" height="95.9316" style="stroke:#181818;stroke-width:1.0;" width="10" x="460.6357" y="413.4609"/><rect fill="none" height="204.8184" style="stroke:#000000;stroke-width:1.5;" width="708.6748" x="10" y="470.7715"/><line style="stroke:#181818;stroke-width:0.5;stroke-dasharray:5.0,5.0;" x1="43" x2="43" y1="118.9766" y2="692.5898"/><line style="stroke:#181818;stroke-width:0.5;stroke-dasharray:5.0,5.0;" x1="465.3721" x2="465.3721" y1="118.9766" y2="692.5898"/><text fill="#000000" font-family="sans-serif" font-size="14" lengthAdjust="spacing" textLength="40.3594" x="20" y="116.0234">Player</text><ellipse cx="43.1797" cy="50.9883" fill="#E2E2F0" rx="8" ry="8" style="stroke:#181818;stroke-width:0.5;"/><path d="M43.1797,58.9883 L43.1797,85.9883 M30.1797,66.9883 L56.1797,66.9883 M43.1797,85.9883 L30.1797,100.9883 M43.1797,85.9883 L56.1797,100.9883 " fill="none" style="stroke:#181818;stroke-width:0.5;"/><text fill="#000000" font-family="sans-serif" font-size="14" lengthAdjust="spacing" textLength="40.3594" x="20" y="705.125">Player</text><ellipse cx="43.1797" cy="716.5781" fill="#E2E2F0" rx="8" ry="8" style="stroke:#181818;stroke-width:0.5;"/><path d="M43.1797,724.5781 L43.1797,751.5781 M30.1797,732.5781 L56.1797,732.5781 M43.1797,751.5781 L30.1797,766.5781 M43.1797,751.5781 L56.1797,766.5781 " fill="none" style="stroke:#181818;stroke-width:0.5;"/><rect fill="#E2E2F0" height="30.4883" rx="2.5" ry="2.5" style="stroke:#181818;stroke-width:0.5;" width="66.5273" x="432.3721" y="87.4883"/><text fill="#000000" font-family="sans-serif" font-size="14" lengthAdjust="spacing" textLength="52.5273" x="439.3721" y="108.0234">:System</text><rect fill="#E2E2F0" height="30.4883" rx="2.5" ry="2.5" style="stroke:#181818;stroke-width:0.5;" width="66.5273" x="432.3721" y="691.5898"/><text fill="#000000" font-family="sans-serif" font-size="14" lengthAdjust="spacing" textLength="52.5273" x="439.3721" y="712.125">:System</text><rect fill="#FFFFFF" height="380.416" style="stroke:#181818;stroke-width:1.0;" width="10" x="38.1797" y="128.9766"/><rect fill="#FFFFFF" height="233.8633" style="stroke:#181818;stroke-width:1.0;" width="10" x="460.6357" y="150.2871"/><rect fill="#FFFFFF" height="95.9316" style="stroke:#181818;stroke-width:1.0;" width="10" x="460.6357" y="413.4609"/><polygon fill="#181818" points="448.6357,146.2871,458.6357,150.2871,448.6357,154.2871,452.6357,150.2871" style="stroke:#181818;stroke-width:1.0;"/><line style="stroke:#181818;stroke-width:1.0;" x1="48.1797" x2="454.6357" y1="150.2871" y2="150.2871"/><text fill="#000000" font-family="sans-serif" font-size="13" font-weight="bold" lengthAdjust="spacing" textLength="8.5757" x="55.1797" y="145.5449">1</text><text fill="#000000" font-family="sans-serif" font-size="13" lengthAdjust="spacing" textLength="179.0674" x="67.7554" y="145.5449">Request to buy a locomotive</text><line style="stroke:#181818;stroke-width:1.0;" x1="470.6357" x2="512.6357" y1="179.5977" y2="179.5977"/><line style="stroke:#181818;stroke-width:1.0;" x1="512.6357" x2="512.6357" y1="179.5977" y2="192.5977"/><line style="stroke:#181818;stroke-width:1.0;" x1="471.6357" x2="512.6357" y1="192.5977" y2="192.5977"/><polygon fill="#181818" points="481.6357,188.5977,471.6357,192.5977,481.6357,196.5977,477.6357,192.5977" style="stroke:#181818;stroke-width:1.0;"/><text fill="#000000" font-family="sans-serif" font-size="13" font-weight="bold" lengthAdjust="spacing" textLength="8.5757" x="477.6357" y="174.8555">2</text><text fill="#000000" font-family="sans-serif" font-size="13" lengthAdjust="spacing" textLength="295.3818" x="490.2114" y="174.8555">(AC1) Check scenario for available locomotives</text><line style="stroke:#181818;stroke-width:1.0;" x1="470.6357" x2="512.6357" y1="221.9082" y2="221.9082"/><line style="stroke:#181818;stroke-width:1.0;" x1="512.6357" x2="512.6357" y1="221.9082" y2="234.9082"/><line style="stroke:#181818;stroke-width:1.0;" x1="471.6357" x2="512.6357" y1="234.9082" y2="234.9082"/><polygon fill="#181818" points="481.6357,230.9082,471.6357,234.9082,481.6357,238.9082,477.6357,234.9082" style="stroke:#181818;stroke-width:1.0;"/><text fill="#000000" font-family="sans-serif" font-size="13" font-weight="bold" lengthAdjust="spacing" textLength="8.5757" x="477.6357" y="217.166">3</text><text fill="#000000" font-family="sans-serif" font-size="13" lengthAdjust="spacing" textLength="246.6128" x="490.2114" y="217.166">(AC1) Get current simulation date/time</text><path d="M475,247.9082 L475,272.9082 L1026,272.9082 L1026,257.9082 L1016,247.9082 L475,247.9082 " fill="#FEFFDD" style="stroke:#181818;stroke-width:0.5;"/><path d="M1016,247.9082 L1016,257.9082 L1026,257.9082 L1016,247.9082 " fill="#FEFFDD" style="stroke:#181818;stroke-width:0.5;"/><text fill="#000000" font-family="sans-serif" font-size="13" lengthAdjust="spacing" textLength="530.3848" x="481" y="265.4766">AC01: The player should choose the locomotive from a list of available locomotives.</text><line style="stroke:#181818;stroke-width:1.0;" x1="470.6357" x2="512.6357" y1="299.5293" y2="299.5293"/><line style="stroke:#181818;stroke-width:1.0;" x1="512.6357" x2="512.6357" y1="299.5293" y2="312.5293"/><line style="stroke:#181818;stroke-width:1.0;" x1="471.6357" x2="512.6357" y1="312.5293" y2="312.5293"/><polygon fill="#181818" points="481.6357,308.5293,471.6357,312.5293,481.6357,316.5293,477.6357,312.5293" style="stroke:#181818;stroke-width:1.0;"/><text fill="#000000" font-family="sans-serif" font-size="13" font-weight="bold" lengthAdjust="spacing" textLength="8.5757" x="477.6357" y="294.7871">4</text><text fill="#000000" font-family="sans-serif" font-size="13" lengthAdjust="spacing" textLength="251.7861" x="490.2114" y="294.7871">Retrieve all locomotives from repository</text><line style="stroke:#181818;stroke-width:1.0;" x1="470.6357" x2="512.6357" y1="341.8398" y2="341.8398"/><line style="stroke:#181818;stroke-width:1.0;" x1="512.6357" x2="512.6357" y1="341.8398" y2="354.8398"/><line style="stroke:#181818;stroke-width:1.0;" x1="471.6357" x2="512.6357" y1="354.8398" y2="354.8398"/><polygon fill="#181818" points="481.6357,350.8398,471.6357,354.8398,481.6357,358.8398,477.6357,354.8398" style="stroke:#181818;stroke-width:1.0;"/><text fill="#000000" font-family="sans-serif" font-size="13" font-weight="bold" lengthAdjust="spacing" textLength="8.5757" x="477.6357" y="337.0977">5</text><text fill="#000000" font-family="sans-serif" font-size="13" lengthAdjust="spacing" textLength="268.2139" x="490.2114" y="337.0977">Filter locomotives available at current date</text><polygon fill="#181818" points="59.1797,380.1504,49.1797,384.1504,59.1797,388.1504,55.1797,384.1504" style="stroke:#181818;stroke-width:1.0;"/><line style="stroke:#181818;stroke-width:1.0;stroke-dasharray:2.0,2.0;" x1="53.1797" x2="464.6357" y1="384.1504" y2="384.1504"/><text fill="#000000" font-family="sans-serif" font-size="13" font-weight="bold" lengthAdjust="spacing" textLength="8.5757" x="65.1797" y="379.4082">6</text><text fill="#000000" font-family="sans-serif" font-size="13" lengthAdjust="spacing" textLength="269.9531" x="77.7554" y="379.4082">Return filtered list of available locomotives</text><polygon fill="#181818" points="448.6357,409.4609,458.6357,413.4609,448.6357,417.4609,452.6357,413.4609" style="stroke:#181818;stroke-width:1.0;"/><line style="stroke:#181818;stroke-width:1.0;" x1="48.1797" x2="454.6357" y1="413.4609" y2="413.4609"/><text fill="#000000" font-family="sans-serif" font-size="13" font-weight="bold" lengthAdjust="spacing" textLength="8.5757" x="55.1797" y="408.7188">7</text><text fill="#000000" font-family="sans-serif" font-size="13" lengthAdjust="spacing" textLength="154.0957" x="67.7554" y="408.7188">Select locomotive to buy</text><line style="stroke:#181818;stroke-width:1.0;" x1="470.6357" x2="512.6357" y1="442.7715" y2="442.7715"/><line style="stroke:#181818;stroke-width:1.0;" x1="512.6357" x2="512.6357" y1="442.7715" y2="455.7715"/><line style="stroke:#181818;stroke-width:1.0;" x1="471.6357" x2="512.6357" y1="455.7715" y2="455.7715"/><polygon fill="#181818" points="481.6357,451.7715,471.6357,455.7715,481.6357,459.7715,477.6357,455.7715" style="stroke:#181818;stroke-width:1.0;"/><text fill="#000000" font-family="sans-serif" font-size="13" font-weight="bold" lengthAdjust="spacing" textLength="8.5757" x="477.6357" y="438.0293">8</text><text fill="#000000" font-family="sans-serif" font-size="13" lengthAdjust="spacing" textLength="217.7754" x="490.2114" y="438.0293">Check if player has enough money</text><path d="M10,470.7715 L72.1387,470.7715 L72.1387,478.082 L62.1387,488.082 L10,488.082 L10,470.7715 " fill="#EEEEEE" style="stroke:#000000;stroke-width:1.5;"/><rect fill="none" height="204.8184" style="stroke:#000000;stroke-width:1.5;" width="708.6748" x="10" y="470.7715"/><text fill="#000000" font-family="sans-serif" font-size="13" font-weight="bold" lengthAdjust="spacing" textLength="17.1387" x="25" y="484.3398">alt</text><text fill="#000000" font-family="sans-serif" font-size="11" font-weight="bold" lengthAdjust="spacing" textLength="115.5161" x="87.1387" y="483.4063">[Not enough money]</text><polygon fill="#181818" points="54.1797,505.3926,44.1797,509.3926,54.1797,513.3926,50.1797,509.3926" style="stroke:#181818;stroke-width:1.0;"/><line style="stroke:#181818;stroke-width:1.0;stroke-dasharray:2.0,2.0;" x1="48.1797" x2="464.6357" y1="509.3926" y2="509.3926"/><text fill="#000000" font-family="sans-serif" font-size="13" font-weight="bold" lengthAdjust="spacing" textLength="8.5757" x="60.1797" y="504.6504">9</text><text fill="#000000" font-family="sans-serif" font-size="13" lengthAdjust="spacing" textLength="300.0537" x="72.7554" y="504.6504">Display error: "You do not have enough money"</text><polygon fill="#181818" points="453.6357,534.7031,463.6357,538.7031,453.6357,542.7031,457.6357,538.7031" style="stroke:#181818;stroke-width:1.0;"/><line style="stroke:#181818;stroke-width:1.0;stroke-dasharray:2.0,2.0;" x1="43.1797" x2="459.6357" y1="538.7031" y2="538.7031"/><text fill="#000000" font-family="sans-serif" font-size="13" font-weight="bold" lengthAdjust="spacing" textLength="17.1514" x="50.1797" y="533.9609">10</text><text fill="#000000" font-family="sans-serif" font-size="13" lengthAdjust="spacing" textLength="4.1133" x="71.3311" y="533.9609">&#160;</text><line style="stroke:#000000;stroke-width:1.0;stroke-dasharray:2.0,2.0;" x1="10" x2="718.6748" y1="547.7031" y2="547.7031"/><text fill="#000000" font-family="sans-serif" font-size="11" font-weight="bold" lengthAdjust="spacing" textLength="103.3184" x="15" y="558.3379">[Sufficient money]</text><line style="stroke:#181818;stroke-width:1.0;" x1="465.6357" x2="507.6357" y1="582.9688" y2="582.9688"/><line style="stroke:#181818;stroke-width:1.0;" x1="507.6357" x2="507.6357" y1="582.9688" y2="595.9688"/><line style="stroke:#181818;stroke-width:1.0;" x1="466.6357" x2="507.6357" y1="595.9688" y2="595.9688"/><polygon fill="#181818" points="476.6357,591.9688,466.6357,595.9688,476.6357,599.9688,472.6357,595.9688" style="stroke:#181818;stroke-width:1.0;"/><text fill="#000000" font-family="sans-serif" font-size="13" font-weight="bold" lengthAdjust="spacing" textLength="17.1514" x="472.6357" y="578.2266">11</text><text fill="#000000" font-family="sans-serif" font-size="13" lengthAdjust="spacing" textLength="212.8877" x="493.7871" y="578.2266">Deduct price from player's money</text><line style="stroke:#181818;stroke-width:1.0;" x1="465.6357" x2="507.6357" y1="625.2793" y2="625.2793"/><line style="stroke:#181818;stroke-width:1.0;" x1="507.6357" x2="507.6357" y1="625.2793" y2="638.2793"/><line style="stroke:#181818;stroke-width:1.0;" x1="466.6357" x2="507.6357" y1="638.2793" y2="638.2793"/><polygon fill="#181818" points="476.6357,634.2793,466.6357,638.2793,476.6357,642.2793,472.6357,638.2793" style="stroke:#181818;stroke-width:1.0;"/><text fill="#000000" font-family="sans-serif" font-size="13" font-weight="bold" lengthAdjust="spacing" textLength="17.1514" x="472.6357" y="620.5371">12</text><text fill="#000000" font-family="sans-serif" font-size="13" lengthAdjust="spacing" textLength="199.6973" x="493.7871" y="620.5371">Add locomotive to player's fleet</text><polygon fill="#181818" points="54.1797,663.5898,44.1797,667.5898,54.1797,671.5898,50.1797,667.5898" style="stroke:#181818;stroke-width:1.0;"/><line style="stroke:#181818;stroke-width:1.0;stroke-dasharray:2.0,2.0;" x1="48.1797" x2="464.6357" y1="667.5898" y2="667.5898"/><text fill="#000000" font-family="sans-serif" font-size="13" font-weight="bold" lengthAdjust="spacing" textLength="17.1514" x="60.1797" y="662.8477">13</text><text fill="#000000" font-family="sans-serif" font-size="13" lengthAdjust="spacing" textLength="377.3047" x="81.3311" y="662.8477">Display success message: "Locomotive bought successfully"</text><!--SRC=[ZLHDZzCm4BtxLunwOVUmi7ka1wJI2Yu8eGqSE4wTIMBLiOCzBig_PvmqRMYp2pqaakNtvdrC6W_6THYmXGxr0MigkBS4WJIZgosfUBuG6opzR-DggD16KfZOkzJkAIZ5XWLLz96fXO9-9NAQO6UmpiYxejZTmmFyA1xVo-jZwW71UkrRp-P8Ig5c7-2RnLx8P1eRRJfq3AlroBa2Z2VwuROv8jC4KECR7ZvC2jRmd3L41lQmlnvtna-49zGSVxVPFjt3jY5zWAZ9OJ0UAX69HpGMz-BsmXXVPlXC33g5G68ccZPPPECTb3B-7PkMbFCY99YwOV3Lf0Zajza-FgtXUqFGZVPYuvCjGJVUHm9kvWgW2hxDBaqSU1PLlbNaIiW3b_G-4mT3GeNMpb4ZTQ3EHoCjzKlOJyQoA9oZBWhmaa2sVSOBmQcuONWA3gg1XyhNVQYIRYfSM862h6pnFAHn6Vwh_x5vKqtXDx9_v7og6sYzerwsq39yzVptQIvkoT_En4m4588FQrZzz0bAdxiGPb4s9raDBBSUhqvFovzFmv2U8lageKXL9LzFJljMqipWZieawNJ1wDFsZ4xVnDTncxAyYlICgomH_pE2cBIcA5Fa8Vyt4iQN2zq-ny3JdIfPAt78rgg5pc-p-0C0]--></g></svg>