<svg xmlns="http://www.w3.org/2000/svg" xmlns:xlink="http://www.w3.org/1999/xlink" contentStyleType="text/css" height="690.9px" preserveAspectRatio="none" style="width:401px;height:690px;background:#FFFFFF;" version="1.1" viewBox="0 0 401 690" width="401.8px" zoomAndPan="magnify"><title>System Sequence Diagram (SSD) - Create Station</title><defs/><g><text fill="#000000" font-family="sans-serif" font-size="9.8" font-weight="bold" lengthAdjust="spacing" textLength="230.367" x="90.8564" y="21.0752">System Sequence Diagram (SSD) - Create Station</text><rect fill="#FFFFFF" height="533.6611" style="stroke:#181818;stroke-width:0.6999999999999998;" width="7" x="32.4003" y="93.2695"/><rect fill="#FFFFFF" height="21.9037" style="stroke:#181818;stroke-width:0.6999999999999998;" width="7" x="232.2106" y="109.5732"/><rect fill="#FFFFFF" height="21.9037" style="stroke:#181818;stroke-width:0.6999999999999998;" width="7" x="232.2106" y="153.3807"/><rect fill="#FFFFFF" height="40.3074" style="stroke:#181818;stroke-width:0.6999999999999998;" width="7" x="232.2106" y="197.1881"/><rect fill="#FFFFFF" height="57.8074" style="stroke:#181818;stroke-width:0.6999999999999998;" width="7" x="232.2106" y="259.3992"/><rect fill="#FFFFFF" height="282.2203" style="stroke:#181818;stroke-width:0.6999999999999998;" width="7" x="232.2106" y="339.1104"/><rect fill="none" height="57.3111" style="stroke:#000000;stroke-width:1.0499999999999998;" width="249.9472" x="14" y="207.6881"/><rect fill="none" height="218.8129" style="stroke:#000000;stroke-width:1.0499999999999998;" width="370.3708" x="7" y="402.5178"/><rect fill="none" height="68.9527" style="stroke:#000000;stroke-width:1.0499999999999998;" width="249.9472" x="14" y="547.4779"/><line style="stroke:#181818;stroke-width:0.3499999999999999;stroke-dasharray:5.0,5.0;" x1="35.7" x2="35.7" y1="86.2695" y2="633.2307"/><line style="stroke:#181818;stroke-width:0.3499999999999999;stroke-dasharray:5.0,5.0;" x1="235.4741" x2="235.4741" y1="86.2695" y2="633.2307"/><text fill="#000000" font-family="sans-serif" font-size="9.8" lengthAdjust="spacing" textLength="25.6006" x="21" y="83.81">Editor</text><ellipse cx="35.9003" cy="37.1848" fill="#E2E2F0" rx="5.6" ry="5.6" style="stroke:#181818;stroke-width:0.3499999999999999;"/><path d="M35.9003,42.7848 L35.9003,61.6848 M26.8003,48.3848 L45.0003,48.3848 M35.9003,61.6848 L26.8003,72.1848 M35.9003,61.6848 L45.0003,72.1848 " fill="none" style="stroke:#181818;stroke-width:0.3499999999999999;"/><text fill="#000000" font-family="sans-serif" font-size="9.8" lengthAdjust="spacing" textLength="25.6006" x="21" y="643.1059">Editor</text><ellipse cx="35.9003" cy="651.5154" fill="#E2E2F0" rx="5.6" ry="5.6" style="stroke:#181818;stroke-width:0.3499999999999999;"/><path d="M35.9003,657.1154 L35.9003,676.0154 M26.8003,662.7154 L45.0003,662.7154 M35.9003,676.0154 L26.8003,686.5154 M35.9003,676.0154 L45.0003,686.5154 " fill="none" style="stroke:#181818;stroke-width:0.3499999999999999;"/><rect fill="#E2E2F0" height="22.8348" rx="1.75" ry="1.75" style="stroke:#181818;stroke-width:0.3499999999999999;" width="42.473" x="214.4741" y="62.7348"/><text fill="#000000" font-family="sans-serif" font-size="9.8" lengthAdjust="spacing" textLength="32.673" x="219.3741" y="78.21">System</text><rect fill="#E2E2F0" height="22.8348" rx="1.75" ry="1.75" style="stroke:#181818;stroke-width:0.3499999999999999;" width="42.473" x="214.4741" y="632.5307"/><text fill="#000000" font-family="sans-serif" font-size="9.8" lengthAdjust="spacing" textLength="32.673" x="219.3741" y="648.0059">System</text><rect fill="#FFFFFF" height="533.6611" style="stroke:#181818;stroke-width:0.6999999999999998;" width="7" x="32.4003" y="93.2695"/><rect fill="#FFFFFF" height="21.9037" style="stroke:#181818;stroke-width:0.6999999999999998;" width="7" x="232.2106" y="109.5732"/><rect fill="#FFFFFF" height="21.9037" style="stroke:#181818;stroke-width:0.6999999999999998;" width="7" x="232.2106" y="153.3807"/><rect fill="#FFFFFF" height="40.3074" style="stroke:#181818;stroke-width:0.6999999999999998;" width="7" x="232.2106" y="197.1881"/><rect fill="#FFFFFF" height="57.8074" style="stroke:#181818;stroke-width:0.6999999999999998;" width="7" x="232.2106" y="259.3992"/><rect fill="#FFFFFF" height="282.2203" style="stroke:#181818;stroke-width:0.6999999999999998;" width="7" x="232.2106" y="339.1104"/><polygon fill="#181818" points="223.8106,106.7732,230.8106,109.5732,223.8106,112.3732,226.6106,109.5732" style="stroke:#181818;stroke-width:0.6999999999999998;"/><line style="stroke:#181818;stroke-width:0.6999999999999998;" x1="39.4003" x2="228.0106" y1="109.5732" y2="109.5732"/><text fill="#000000" font-family="sans-serif" font-size="9.1" lengthAdjust="spacing" textLength="164.3776" x="44.3003" y="105.8894">1. Start CreateStation(idMap, simulation)</text><polygon fill="#181818" points="47.1003,128.677,40.1003,131.477,47.1003,134.277,44.3003,131.477" style="stroke:#181818;stroke-width:0.6999999999999998;"/><line style="stroke:#181818;stroke-width:0.6999999999999998;stroke-dasharray:2.0,2.0;" x1="42.9003" x2="235.0106" y1="131.477" y2="131.477"/><text fill="#000000" font-family="sans-serif" font-size="9.1" lengthAdjust="spacing" textLength="87.5031" x="51.3003" y="127.7931">2. Ask for station type</text><polygon fill="#181818" points="223.8106,150.5807,230.8106,153.3807,223.8106,156.1807,226.6106,153.3807" style="stroke:#181818;stroke-width:0.6999999999999998;"/><line style="stroke:#181818;stroke-width:0.6999999999999998;" x1="39.4003" x2="228.0106" y1="153.3807" y2="153.3807"/><text fill="#000000" font-family="sans-serif" font-size="9.1" lengthAdjust="spacing" textLength="84.4771" x="44.3003" y="149.6968">3. Select station type</text><polygon fill="#181818" points="47.1003,172.4844,40.1003,175.2844,47.1003,178.0844,44.3003,175.2844" style="stroke:#181818;stroke-width:0.6999999999999998;"/><line style="stroke:#181818;stroke-width:0.6999999999999998;stroke-dasharray:2.0,2.0;" x1="42.9003" x2="235.0106" y1="175.2844" y2="175.2844"/><text fill="#000000" font-family="sans-serif" font-size="9.1" lengthAdjust="spacing" textLength="72.329" x="51.3003" y="171.6005">4. Ask for position</text><polygon fill="#181818" points="223.8106,194.3881,230.8106,197.1881,223.8106,199.9881,226.6106,197.1881" style="stroke:#181818;stroke-width:0.6999999999999998;"/><line style="stroke:#181818;stroke-width:0.6999999999999998;" x1="39.4003" x2="228.0106" y1="197.1881" y2="197.1881"/><text fill="#000000" font-family="sans-serif" font-size="9.1" lengthAdjust="spacing" textLength="98.6426" x="44.3003" y="193.5042">5. Select station position</text><path d="M14,207.6881 L56.1196,207.6881 L56.1196,214.1918 L49.1196,221.1918 L14,221.1918 L14,207.6881 " fill="#EEEEEE" style="stroke:#000000;stroke-width:1.0499999999999998;"/><rect fill="none" height="57.3111" style="stroke:#000000;stroke-width:1.0499999999999998;" width="249.9472" x="14" y="207.6881"/><text fill="#000000" font-family="sans-serif" font-size="9.1" font-weight="bold" lengthAdjust="spacing" textLength="10.6196" x="24.5" y="218.2079">alt</text><text fill="#000000" font-family="sans-serif" font-size="7.7" font-weight="bold" lengthAdjust="spacing" textLength="67.5931" x="66.6196" y="217.3972">[Type is STATION]</text><polygon fill="#181818" points="47.1003,234.6955,40.1003,237.4955,47.1003,240.2955,44.3003,237.4955" style="stroke:#181818;stroke-width:0.6999999999999998;"/><line style="stroke:#181818;stroke-width:0.6999999999999998;stroke-dasharray:2.0,2.0;" x1="42.9003" x2="235.0106" y1="237.4955" y2="237.4955"/><text fill="#000000" font-family="sans-serif" font-size="9.1" lengthAdjust="spacing" textLength="75.3594" x="51.3003" y="233.8116">6. Ask for direction</text><polygon fill="#181818" points="223.8106,256.5992,230.8106,259.3992,223.8106,262.1992,226.6106,259.3992" style="stroke:#181818;stroke-width:0.6999999999999998;"/><line style="stroke:#181818;stroke-width:0.6999999999999998;" x1="39.4003" x2="228.0106" y1="259.3992" y2="259.3992"/><text fill="#000000" font-family="sans-serif" font-size="9.1" lengthAdjust="spacing" textLength="72.3334" x="44.3003" y="255.7153">7. Select direction</text><line style="stroke:#181818;stroke-width:0.6999999999999998;" x1="239.2106" x2="268.6106" y1="286.2029" y2="286.2029"/><line style="stroke:#181818;stroke-width:0.6999999999999998;" x1="268.6106" x2="268.6106" y1="286.2029" y2="295.3029"/><line style="stroke:#181818;stroke-width:0.6999999999999998;" x1="239.9106" x2="268.6106" y1="295.3029" y2="295.3029"/><polygon fill="#181818" points="246.9106,292.5029,239.9106,295.3029,246.9106,298.1029,244.1106,295.3029" style="stroke:#181818;stroke-width:0.6999999999999998;"/><text fill="#000000" font-family="sans-serif" font-size="9.1" lengthAdjust="spacing" textLength="117.8734" x="244.1106" y="282.519">8. Generate suggested name</text><polygon fill="#181818" points="47.1003,314.4066,40.1003,317.2066,47.1003,320.0066,44.3003,317.2066" style="stroke:#181818;stroke-width:0.6999999999999998;"/><line style="stroke:#181818;stroke-width:0.6999999999999998;stroke-dasharray:2.0,2.0;" x1="42.9003" x2="235.0106" y1="317.2066" y2="317.2066"/><text fill="#000000" font-family="sans-serif" font-size="9.1" lengthAdjust="spacing" textLength="102.6949" x="51.3003" y="313.5228">9. Show suggested name</text><polygon fill="#181818" points="223.8106,336.3104,230.8106,339.1104,223.8106,341.9104,226.6106,339.1104" style="stroke:#181818;stroke-width:0.6999999999999998;"/><line style="stroke:#181818;stroke-width:0.6999999999999998;" x1="39.4003" x2="228.0106" y1="339.1104" y2="339.1104"/><text fill="#000000" font-family="sans-serif" font-size="9.1" lengthAdjust="spacing" textLength="134.0384" x="44.3003" y="335.4265">10. Accept or enter custom name</text><polygon fill="#181818" points="47.1003,358.2141,40.1003,361.0141,47.1003,363.8141,44.3003,361.0141" style="stroke:#181818;stroke-width:0.6999999999999998;"/><line style="stroke:#181818;stroke-width:0.6999999999999998;stroke-dasharray:2.0,2.0;" x1="42.9003" x2="231.5106" y1="361.0141" y2="361.0141"/><text fill="#000000" font-family="sans-serif" font-size="9.1" lengthAdjust="spacing" textLength="118.8732" x="51.3003" y="357.3302">11. Check simulation balance</text><line style="stroke:#181818;stroke-width:0.6999999999999998;" x1="239.2106" x2="268.6106" y1="382.9178" y2="382.9178"/><line style="stroke:#181818;stroke-width:0.6999999999999998;" x1="268.6106" x2="268.6106" y1="382.9178" y2="392.0178"/><line style="stroke:#181818;stroke-width:0.6999999999999998;" x1="239.9106" x2="268.6106" y1="392.0178" y2="392.0178"/><polygon fill="#181818" points="246.9106,389.2178,239.9106,392.0178,246.9106,394.8178,244.1106,392.0178" style="stroke:#181818;stroke-width:0.6999999999999998;"/><text fill="#000000" font-family="sans-serif" font-size="9.1" lengthAdjust="spacing" textLength="153.2692" x="244.1106" y="379.2339">12. (AC01) Verify if balance is enough</text><path d="M7,402.5178 L49.1196,402.5178 L49.1196,409.0215 L42.1196,416.0215 L7,416.0215 L7,402.5178 " fill="#EEEEEE" style="stroke:#000000;stroke-width:1.0499999999999998;"/><rect fill="none" height="218.8129" style="stroke:#000000;stroke-width:1.0499999999999998;" width="370.3708" x="7" y="402.5178"/><text fill="#000000" font-family="sans-serif" font-size="9.1" font-weight="bold" lengthAdjust="spacing" textLength="10.6196" x="17.5" y="413.0376">alt</text><text fill="#000000" font-family="sans-serif" font-size="7.7" font-weight="bold" lengthAdjust="spacing" textLength="77.0113" x="59.6196" y="412.2269">[Insufficient balance]</text><polygon fill="#181818" points="47.1003,429.5252,40.1003,432.3252,47.1003,435.1252,44.3003,432.3252" style="stroke:#181818;stroke-width:0.6999999999999998;"/><line style="stroke:#181818;stroke-width:0.6999999999999998;stroke-dasharray:2.0,2.0;" x1="42.9003" x2="231.5106" y1="432.3252" y2="432.3252"/><text fill="#000000" font-family="sans-serif" font-size="9.1" lengthAdjust="spacing" textLength="146.5775" x="51.3003" y="428.6413">13. Show error "Insufficient balance"</text><line style="stroke:#000000;stroke-width:0.6999999999999998;stroke-dasharray:2.0,2.0;" x1="7" x2="377.3708" y1="438.6252" y2="438.6252"/><text fill="#000000" font-family="sans-serif" font-size="7.7" font-weight="bold" lengthAdjust="spacing" textLength="71.022" x="10.5" y="446.9343">[Sufficient balance]</text><line style="stroke:#181818;stroke-width:0.6999999999999998;" x1="239.2106" x2="268.6106" y1="465.8705" y2="465.8705"/><line style="stroke:#181818;stroke-width:0.6999999999999998;" x1="268.6106" x2="268.6106" y1="465.8705" y2="474.9705"/><line style="stroke:#181818;stroke-width:0.6999999999999998;" x1="239.9106" x2="268.6106" y1="474.9705" y2="474.9705"/><polygon fill="#181818" points="246.9106,472.1705,239.9106,474.9705,246.9106,477.7705,244.1106,474.9705" style="stroke:#181818;stroke-width:0.6999999999999998;"/><text fill="#000000" font-family="sans-serif" font-size="9.1" lengthAdjust="spacing" textLength="91.0444" x="244.1106" y="462.1866">14. Retrieve Map by id</text><line style="stroke:#181818;stroke-width:0.6999999999999998;" x1="239.2106" x2="268.6106" y1="496.8742" y2="496.8742"/><line style="stroke:#181818;stroke-width:0.6999999999999998;" x1="268.6106" x2="268.6106" y1="496.8742" y2="505.9742"/><line style="stroke:#181818;stroke-width:0.6999999999999998;" x1="239.9106" x2="268.6106" y1="505.9742" y2="505.9742"/><polygon fill="#181818" points="246.9106,503.1742,239.9106,505.9742,246.9106,508.7742,244.1106,505.9742" style="stroke:#181818;stroke-width:0.6999999999999998;"/><text fill="#000000" font-family="sans-serif" font-size="9.1" lengthAdjust="spacing" textLength="91.0578" x="244.1106" y="493.1903">15. Add station to map</text><line style="stroke:#181818;stroke-width:0.6999999999999998;" x1="239.2106" x2="268.6106" y1="527.8779" y2="527.8779"/><line style="stroke:#181818;stroke-width:0.6999999999999998;" x1="268.6106" x2="268.6106" y1="527.8779" y2="536.9779"/><line style="stroke:#181818;stroke-width:0.6999999999999998;" x1="239.9106" x2="268.6106" y1="536.9779" y2="536.9779"/><polygon fill="#181818" points="246.9106,534.1779,239.9106,536.9779,246.9106,539.7779,244.1106,536.9779" style="stroke:#181818;stroke-width:0.6999999999999998;"/><text fill="#000000" font-family="sans-serif" font-size="9.1" lengthAdjust="spacing" textLength="117.8601" x="244.1106" y="524.194">16. Save station to repository</text><path d="M14,547.4779 L56.1196,547.4779 L56.1196,553.9816 L49.1196,560.9816 L14,560.9816 L14,547.4779 " fill="#EEEEEE" style="stroke:#000000;stroke-width:1.0499999999999998;"/><rect fill="none" height="68.9527" style="stroke:#000000;stroke-width:1.0499999999999998;" width="249.9472" x="14" y="547.4779"/><text fill="#000000" font-family="sans-serif" font-size="9.1" font-weight="bold" lengthAdjust="spacing" textLength="10.6196" x="24.5" y="557.9978">alt</text><text fill="#000000" font-family="sans-serif" font-size="7.7" font-weight="bold" lengthAdjust="spacing" textLength="105.2584" x="66.6196" y="557.187">[Station creation successful]</text><polygon fill="#181818" points="47.1003,574.4854,40.1003,577.2854,47.1003,580.0854,44.3003,577.2854" style="stroke:#181818;stroke-width:0.6999999999999998;"/><line style="stroke:#181818;stroke-width:0.6999999999999998;stroke-dasharray:2.0,2.0;" x1="42.9003" x2="231.5106" y1="577.2854" y2="577.2854"/><text fill="#000000" font-family="sans-serif" font-size="9.1" lengthAdjust="spacing" textLength="127.9732" x="51.3003" y="573.6015">17. Station created successfully</text><line style="stroke:#000000;stroke-width:0.6999999999999998;stroke-dasharray:2.0,2.0;" x1="14" x2="263.9472" y1="583.5854" y2="583.5854"/><text fill="#000000" font-family="sans-serif" font-size="7.7" font-weight="bold" lengthAdjust="spacing" textLength="85.5647" x="17.5" y="591.8944">[Station creation failed]</text><polygon fill="#181818" points="47.1003,608.0307,40.1003,610.8307,47.1003,613.6307,44.3003,610.8307" style="stroke:#181818;stroke-width:0.6999999999999998;"/><line style="stroke:#181818;stroke-width:0.6999999999999998;stroke-dasharray:2.0,2.0;" x1="42.9003" x2="231.5106" y1="610.8307" y2="610.8307"/><text fill="#000000" font-family="sans-serif" font-size="9.1" lengthAdjust="spacing" textLength="176.0104" x="51.3003" y="607.1468">18. Error (position occupied or name exists)</text><!--SRC=[ZLDDRzim3BthLn0z9S0Ir6sthZaK2D9YwA4RC0UxgnAT2FLN9QgR__qeMusJs2cIYsEQx_6HV9IAAWkFsl13rDAIKQQM9K7QEC92aA4S5_4DKdppM2g41oCtLXOmITE7ASnWPL4IGagIJ5KA8HMPzn29pDq3PlUHQG79F6HRYj28d1ZzBEilu4pXypOoxRcY9175p9Yjurt0rHoMxXKohk4w9g2cHg7n63rKSirAC4T5Xz1pojxqPUlAcRRtSqf-7PJSmGTbPKwmPa5W7AJhvVhfrqy1_1kHywsNeurb-a0OSeUQGdIewtQdwn1_ZCPIz_FeuT_dy0DBj27J-Sq6EQoXb0ME3U-EYsshlyUPGwrZxhdaLfN2ce0_O4beGNb7LT6HdBEyX2susg9wtNCRlCXSii57calOOvFbwZAPmX-q9cl0P1_fOJTOLdwpxVRrL3gVPNnAh6n7UM9foNMS0rhBlLoCOI-4mDnnDv-pxebbP_v6iWRV4VYYu8NbwbF9RCUbrhtzAoXaBKvbiyjIoRHxwHPR_rQswL1X1l6YGONx3d-SvuKvb_cypJarZjlv8PHzqIFpfiLsmpWka4cJe_wKd1tws8vvyd5mK2dbQyDLE1gy0_ZFE7BJhb0m-lW5XK__0G00]--></g></svg>