<svg xmlns="http://www.w3.org/2000/svg" xmlns:xlink="http://www.w3.org/1999/xlink" contentStyleType="text/css" height="571px" preserveAspectRatio="none" style="width:891px;height:571px;background:#FFFFFF;" version="1.1" viewBox="0 0 891 571" width="891.5px" zoomAndPan="magnify"><defs/><g><rect fill="#FFFFFF" height="473.7783" style="stroke:#181818;stroke-width:0.5;" width="5" x="11.4207" y="46.8105"/><rect fill="#FFFFFF" height="466.6328" style="stroke:#181818;stroke-width:0.5;" width="5" x="153.6287" y="58.4561"/><rect fill="#FFFFFF" height="321.3232" style="stroke:#181818;stroke-width:0.5;" width="5" x="255.3999" y="74.1016"/><rect fill="#FFFFFF" height="62.582" style="stroke:#181818;stroke-width:0.5;" width="5" x="255.3999" y="442.3613"/><rect fill="#FFFFFF" height="15.6455" style="stroke:#181818;stroke-width:0.5;" width="5" x="324.3997" y="89.7471"/><rect fill="#FFFFFF" height="15.6455" style="stroke:#181818;stroke-width:0.5;" width="5" x="380.3633" y="121.0381"/><rect fill="#FFFFFF" height="37.4561" style="stroke:#181818;stroke-width:0.5;" width="5" x="429.7148" y="152.3291"/><rect fill="#FFFFFF" height="31.291" style="stroke:#181818;stroke-width:0.5;" width="5" x="483.1543" y="458.0068"/><rect fill="#FFFFFF" height="174.3486" style="stroke:#181818;stroke-width:0.5;" width="5" x="547.4885" y="205.4307"/><rect fill="#FFFFFF" height="14" style="stroke:#181818;stroke-width:0.5;" width="5" x="549.9885" y="290.6777"/><rect fill="#FFFFFF" height="15" style="stroke:#181818;stroke-width:0.5;" width="5" x="632.7834" y="256.0322"/><rect fill="#FFFFFF" height="15" style="stroke:#181818;stroke-width:0.5;" width="5" x="735.8313" y="345.6338"/><rect fill="none" height="129.8926" style="stroke:#000000;stroke-width:0.75;" width="370.8232" x="517.7524" y="234.7412"/><line style="stroke:#181818;stroke-width:0.25;stroke-dasharray:5.0,5.0;" x1="13.5" x2="13.5" y1="41.8105" y2="529.5889"/><line style="stroke:#181818;stroke-width:0.25;stroke-dasharray:5.0,5.0;" x1="156.0046" x2="156.0046" y1="41.8105" y2="529.5889"/><line style="stroke:#181818;stroke-width:0.25;stroke-dasharray:5.0,5.0;" x1="257.8535" x2="257.8535" y1="41.8105" y2="529.5889"/><line style="stroke:#181818;stroke-width:0.25;stroke-dasharray:5.0,5.0;" x1="326.4463" x2="326.4463" y1="41.8105" y2="529.5889"/><line style="stroke:#181818;stroke-width:0.25;stroke-dasharray:5.0,5.0;" x1="382.853" x2="382.853" y1="41.8105" y2="529.5889"/><line style="stroke:#181818;stroke-width:0.25;stroke-dasharray:5.0,5.0;" x1="431.8735" x2="431.8735" y1="41.8105" y2="529.5889"/><line style="stroke:#181818;stroke-width:0.25;stroke-dasharray:5.0,5.0;" x1="485.5562" x2="485.5562" y1="41.8105" y2="529.5889"/><line style="stroke:#181818;stroke-width:0.25;stroke-dasharray:5.0,5.0;" x1="549.7524" x2="549.7524" y1="41.8105" y2="529.5889"/><line style="stroke:#181818;stroke-width:0.25;stroke-dasharray:5.0,5.0;" x1="635.1768" x2="635.1768" y1="172.2344" y2="529.5889"/><line style="stroke:#181818;stroke-width:0.25;stroke-dasharray:5.0,5.0;" x1="737.8901" x2="737.8901" y1="225.3359" y2="529.5889"/><line style="stroke:#181818;stroke-width:0.25;stroke-dasharray:5.0,5.0;" x1="840.7725" x2="840.7725" y1="328.083" y2="529.5889"/><text fill="#000000" font-family="sans-serif" font-size="7" lengthAdjust="spacing" textLength="19.8413" x="2.5" y="40.0537">Player</text><ellipse cx="13.9207" cy="6.75" fill="#E2E2F0" rx="4" ry="4" style="stroke:#181818;stroke-width:0.25;"/><path d="M13.9207,10.75 L13.9207,24.25 M7.4207,14.75 L20.4207,14.75 M13.9207,24.25 L7.4207,31.75 M13.9207,24.25 L20.4207,31.75 " fill="none" style="stroke:#181818;stroke-width:0.25;"/><text fill="#000000" font-family="sans-serif" font-size="7" lengthAdjust="spacing" textLength="19.8413" x="2.5" y="536.6426">Player</text><ellipse cx="13.9207" cy="542.6494" fill="#E2E2F0" rx="4" ry="4" style="stroke:#181818;stroke-width:0.25;"/><path d="M13.9207,546.6494 L13.9207,560.1494 M7.4207,550.6494 L20.4207,550.6494 M13.9207,560.1494 L7.4207,567.6494 M13.9207,560.1494 L20.4207,567.6494 " fill="none" style="stroke:#181818;stroke-width:0.25;"/><rect fill="#E2E2F0" height="16.3105" rx="1.25" ry="1.25" style="stroke:#181818;stroke-width:0.25;" width="55.248" x="128.5046" y="25"/><text fill="#000000" font-family="sans-serif" font-size="7" lengthAdjust="spacing" textLength="48.248" x="132.0046" y="36.0537">:ShowStationUI</text><rect fill="#E2E2F0" height="16.3105" rx="1.25" ry="1.25" style="stroke:#181818;stroke-width:0.25;" width="55.248" x="128.5046" y="529.0889"/><text fill="#000000" font-family="sans-serif" font-size="7" lengthAdjust="spacing" textLength="48.248" x="132.0046" y="540.1426">:ShowStationUI</text><rect fill="#E2E2F0" height="16.3105" rx="1.25" ry="1.25" style="stroke:#181818;stroke-width:0.25;" width="82.0928" x="216.8535" y="25"/><text fill="#000000" font-family="sans-serif" font-size="7" lengthAdjust="spacing" textLength="75.0928" x="220.3535" y="36.0537">:ShowStationsController</text><rect fill="#E2E2F0" height="16.3105" rx="1.25" ry="1.25" style="stroke:#181818;stroke-width:0.25;" width="82.0928" x="216.8535" y="529.0889"/><text fill="#000000" font-family="sans-serif" font-size="7" lengthAdjust="spacing" textLength="75.0928" x="220.3535" y="540.1426">:ShowStationsController</text><rect fill="#E2E2F0" height="16.3105" rx="1.25" ry="1.25" style="stroke:#181818;stroke-width:0.25;" width="45.9067" x="303.9463" y="25"/><text fill="#000000" font-family="sans-serif" font-size="7" lengthAdjust="spacing" textLength="38.9067" x="307.4463" y="36.0537">Repositories</text><rect fill="#E2E2F0" height="16.3105" rx="1.25" ry="1.25" style="stroke:#181818;stroke-width:0.25;" width="45.9067" x="303.9463" y="529.0889"/><text fill="#000000" font-family="sans-serif" font-size="7" lengthAdjust="spacing" textLength="38.9067" x="307.4463" y="540.1426">Repositories</text><rect fill="#E2E2F0" height="25.6211" rx="1.25" ry="1.25" style="stroke:#181818;stroke-width:0.25;" width="56.0205" x="354.853" y="15.6895"/><text fill="#000000" font-family="sans-serif" font-size="7" lengthAdjust="spacing" textLength="47.0757" x="359.3254" y="26.7432">mapRepository</text><text fill="#000000" font-family="sans-serif" font-size="7" lengthAdjust="spacing" textLength="49.0205" x="358.353" y="36.0537">:MapRepository</text><rect fill="#E2E2F0" height="25.6211" rx="1.25" ry="1.25" style="stroke:#181818;stroke-width:0.25;" width="56.0205" x="354.853" y="529.0889"/><text fill="#000000" font-family="sans-serif" font-size="7" lengthAdjust="spacing" textLength="47.0757" x="359.3254" y="540.1426">mapRepository</text><text fill="#000000" font-family="sans-serif" font-size="7" lengthAdjust="spacing" textLength="49.0205" x="358.353" y="549.4531">:MapRepository</text><rect fill="#E2E2F0" height="16.3105" rx="1.25" ry="1.25" style="stroke:#181818;stroke-width:0.25;" width="32.6826" x="415.8735" y="25"/><text fill="#000000" font-family="sans-serif" font-size="7" lengthAdjust="spacing" textLength="25.6826" x="419.3735" y="36.0537">: Station</text><rect fill="#E2E2F0" height="16.3105" rx="1.25" ry="1.25" style="stroke:#181818;stroke-width:0.25;" width="32.6826" x="415.8735" y="529.0889"/><text fill="#000000" font-family="sans-serif" font-size="7" lengthAdjust="spacing" textLength="25.6826" x="419.3735" y="540.1426">: Station</text><rect fill="#E2E2F0" height="25.6211" rx="1.25" ry="1.25" style="stroke:#181818;stroke-width:0.25;" width="64.1963" x="453.5562" y="15.6895"/><text fill="#000000" font-family="sans-serif" font-size="7" lengthAdjust="spacing" textLength="54.0825" x="458.613" y="26.7432">stationRepository</text><text fill="#000000" font-family="sans-serif" font-size="7" lengthAdjust="spacing" textLength="57.1963" x="457.0562" y="36.0537">:StationRepository</text><rect fill="#E2E2F0" height="25.6211" rx="1.25" ry="1.25" style="stroke:#181818;stroke-width:0.25;" width="64.1963" x="453.5562" y="529.0889"/><text fill="#000000" font-family="sans-serif" font-size="7" lengthAdjust="spacing" textLength="54.0825" x="458.613" y="540.1426">stationRepository</text><text fill="#000000" font-family="sans-serif" font-size="7" lengthAdjust="spacing" textLength="57.1963" x="457.0562" y="549.4531">:StationRepository</text><rect fill="#E2E2F0" height="16.3105" rx="1.25" ry="1.25" style="stroke:#181818;stroke-width:0.25;" width="54.4722" x="522.7524" y="25"/><text fill="#000000" font-family="sans-serif" font-size="7" lengthAdjust="spacing" textLength="47.4722" x="526.2524" y="36.0537">:StationMapper</text><rect fill="#E2E2F0" height="16.3105" rx="1.25" ry="1.25" style="stroke:#181818;stroke-width:0.25;" width="54.4722" x="522.7524" y="529.0889"/><text fill="#000000" font-family="sans-serif" font-size="7" lengthAdjust="spacing" textLength="47.4722" x="526.2524" y="540.1426">:StationMapper</text><rect fill="#E2E2F0" height="16.3105" rx="1.25" ry="1.25" style="stroke:#181818;stroke-width:0.25;" width="85.2134" x="592.6768" y="529.0889"/><text fill="#000000" font-family="sans-serif" font-size="7" lengthAdjust="spacing" textLength="78.2134" x="596.1768" y="540.1426">stationList : List&lt;Station&gt;</text><rect fill="#E2E2F0" height="16.3105" rx="1.25" ry="1.25" style="stroke:#181818;stroke-width:0.25;" width="110.8823" x="682.8901" y="529.0889"/><text fill="#000000" font-family="sans-serif" font-size="7" lengthAdjust="spacing" textLength="103.8823" x="686.3901" y="540.1426">stationDtoList : List&lt;StationDTO&gt;</text><rect fill="#E2E2F0" height="16.3105" rx="1.25" ry="1.25" style="stroke:#181818;stroke-width:0.25;" width="84.8032" x="798.7725" y="529.0889"/><text fill="#000000" font-family="sans-serif" font-size="7" lengthAdjust="spacing" textLength="77.8032" x="802.2725" y="540.1426">stationDTO : StationDTO</text><rect fill="#FFFFFF" height="473.7783" style="stroke:#181818;stroke-width:0.5;" width="5" x="11.4207" y="46.8105"/><rect fill="#FFFFFF" height="466.6328" style="stroke:#181818;stroke-width:0.5;" width="5" x="153.6287" y="58.4561"/><rect fill="#FFFFFF" height="321.3232" style="stroke:#181818;stroke-width:0.5;" width="5" x="255.3999" y="74.1016"/><rect fill="#FFFFFF" height="62.582" style="stroke:#181818;stroke-width:0.5;" width="5" x="255.3999" y="442.3613"/><rect fill="#FFFFFF" height="15.6455" style="stroke:#181818;stroke-width:0.5;" width="5" x="324.3997" y="89.7471"/><rect fill="#FFFFFF" height="15.6455" style="stroke:#181818;stroke-width:0.5;" width="5" x="380.3633" y="121.0381"/><rect fill="#FFFFFF" height="37.4561" style="stroke:#181818;stroke-width:0.5;" width="5" x="429.7148" y="152.3291"/><rect fill="#FFFFFF" height="31.291" style="stroke:#181818;stroke-width:0.5;" width="5" x="483.1543" y="458.0068"/><rect fill="#FFFFFF" height="174.3486" style="stroke:#181818;stroke-width:0.5;" width="5" x="547.4885" y="205.4307"/><rect fill="#FFFFFF" height="14" style="stroke:#181818;stroke-width:0.5;" width="5" x="549.9885" y="290.6777"/><rect fill="#FFFFFF" height="15" style="stroke:#181818;stroke-width:0.5;" width="5" x="632.7834" y="256.0322"/><rect fill="#FFFFFF" height="15" style="stroke:#181818;stroke-width:0.5;" width="5" x="735.8313" y="345.6338"/><polygon fill="#181818" points="147.6287,56.4561,152.6287,58.4561,147.6287,60.4561,149.6287,58.4561" style="stroke:#181818;stroke-width:0.5;"/><line style="stroke:#181818;stroke-width:0.5;" x1="16.4207" x2="150.6287" y1="58.4561" y2="58.4561"/><text fill="#000000" font-family="sans-serif" font-size="6.5" font-weight="bold" lengthAdjust="spacing" textLength="3.615" x="19.9207" y="55.8247">1</text><text fill="#000000" font-family="sans-serif" font-size="6.5" lengthAdjust="spacing" textLength="13.7236" x="25.5356" y="55.8247">run()</text><polygon fill="#181818" points="249.3999,72.1016,254.3999,74.1016,249.3999,76.1016,251.3999,74.1016" style="stroke:#181818;stroke-width:0.5;"/><line style="stroke:#181818;stroke-width:0.5;" x1="158.6287" x2="252.3999" y1="74.1016" y2="74.1016"/><text fill="#000000" font-family="sans-serif" font-size="6.5" font-weight="bold" lengthAdjust="spacing" textLength="3.615" x="162.1287" y="71.4702">2</text><text fill="#000000" font-family="sans-serif" font-size="6.5" lengthAdjust="spacing" textLength="35.7595" x="167.7437" y="71.4702">listStations()</text><polygon fill="#181818" points="318.3997,87.7471,323.3997,89.7471,318.3997,91.7471,320.3997,89.7471" style="stroke:#181818;stroke-width:0.5;"/><line style="stroke:#181818;stroke-width:0.5;" x1="260.3999" x2="321.3997" y1="89.7471" y2="89.7471"/><text fill="#000000" font-family="sans-serif" font-size="6.5" font-weight="bold" lengthAdjust="spacing" textLength="3.615" x="263.8999" y="87.1157">3</text><text fill="#000000" font-family="sans-serif" font-size="6.5" lengthAdjust="spacing" textLength="37.9368" x="269.5149" y="87.1157">getInstance()</text><polygon fill="#181818" points="265.8999,103.3926,260.8999,105.3926,265.8999,107.3926,263.8999,105.3926" style="stroke:#181818;stroke-width:0.5;"/><line style="stroke:#181818;stroke-width:0.5;stroke-dasharray:2.0,2.0;" x1="262.8999" x2="326.3997" y1="105.3926" y2="105.3926"/><text fill="#000000" font-family="sans-serif" font-size="6.5" font-weight="bold" lengthAdjust="spacing" textLength="3.615" x="268.8999" y="102.7612">4</text><text fill="#000000" font-family="sans-serif" font-size="6.5" lengthAdjust="spacing" textLength="33.5981" x="274.5149" y="102.7612">repositories</text><polygon fill="#181818" points="374.3633,119.0381,379.3633,121.0381,374.3633,123.0381,376.3633,121.0381" style="stroke:#181818;stroke-width:0.5;"/><line style="stroke:#181818;stroke-width:0.5;" x1="260.3999" x2="377.3633" y1="121.0381" y2="121.0381"/><text fill="#000000" font-family="sans-serif" font-size="6.5" font-weight="bold" lengthAdjust="spacing" textLength="3.615" x="263.8999" y="118.4067">5</text><text fill="#000000" font-family="sans-serif" font-size="6.5" lengthAdjust="spacing" textLength="57.0813" x="269.5149" y="118.4067">getMapById(mapId)</text><polygon fill="#181818" points="265.8999,134.6836,260.8999,136.6836,265.8999,138.6836,263.8999,136.6836" style="stroke:#181818;stroke-width:0.5;"/><line style="stroke:#181818;stroke-width:0.5;stroke-dasharray:2.0,2.0;" x1="262.8999" x2="382.3633" y1="136.6836" y2="136.6836"/><text fill="#000000" font-family="sans-serif" font-size="6.5" font-weight="bold" lengthAdjust="spacing" textLength="3.615" x="268.8999" y="134.0522">6</text><text fill="#000000" font-family="sans-serif" font-size="6.5" lengthAdjust="spacing" textLength="43.7131" x="274.5149" y="134.0522">MapRepository</text><polygon fill="#181818" points="423.7148,150.3291,428.7148,152.3291,423.7148,154.3291,425.7148,152.3291" style="stroke:#181818;stroke-width:0.5;"/><line style="stroke:#181818;stroke-width:0.5;" x1="260.3999" x2="426.7148" y1="152.3291" y2="152.3291"/><text fill="#000000" font-family="sans-serif" font-size="6.5" font-weight="bold" lengthAdjust="spacing" textLength="3.615" x="263.8999" y="149.6978">7</text><text fill="#000000" font-family="sans-serif" font-size="6.5" lengthAdjust="spacing" textLength="43.7163" x="269.5149" y="149.6978">getStationList()</text><polygon fill="#181818" points="586.6768,165.9746,591.6768,167.9746,586.6768,169.9746,588.6768,167.9746" style="stroke:#181818;stroke-width:0.5;"/><line style="stroke:#181818;stroke-width:0.5;" x1="434.7148" x2="589.6768" y1="167.9746" y2="167.9746"/><text fill="#000000" font-family="sans-serif" font-size="6.5" font-weight="bold" lengthAdjust="spacing" textLength="3.615" x="438.2148" y="165.3433">8</text><text fill="#000000" font-family="sans-serif" font-size="6.5" lengthAdjust="spacing" textLength="22.3945" x="443.8298" y="165.3433">create()</text><rect fill="#E2E2F0" height="16.3105" rx="1.25" ry="1.25" style="stroke:#181818;stroke-width:0.25;" width="85.2134" x="592.6768" y="156.3291"/><text fill="#000000" font-family="sans-serif" font-size="7" lengthAdjust="spacing" textLength="78.2134" x="596.1768" y="167.3828">stationList : List&lt;Station&gt;</text><polygon fill="#181818" points="265.8999,187.7852,260.8999,189.7852,265.8999,191.7852,263.8999,189.7852" style="stroke:#181818;stroke-width:0.5;"/><line style="stroke:#181818;stroke-width:0.5;stroke-dasharray:2.0,2.0;" x1="262.8999" x2="431.7148" y1="189.7852" y2="189.7852"/><text fill="#000000" font-family="sans-serif" font-size="6.5" font-weight="bold" lengthAdjust="spacing" textLength="3.615" x="268.8999" y="187.1538">9</text><text fill="#000000" font-family="sans-serif" font-size="6.5" lengthAdjust="spacing" textLength="29.2659" x="274.5149" y="187.1538">stationList</text><polygon fill="#181818" points="541.4885,203.4307,546.4885,205.4307,541.4885,207.4307,543.4885,205.4307" style="stroke:#181818;stroke-width:0.5;"/><line style="stroke:#181818;stroke-width:0.5;" x1="260.3999" x2="544.4885" y1="205.4307" y2="205.4307"/><text fill="#000000" font-family="sans-serif" font-size="6.5" font-weight="bold" lengthAdjust="spacing" textLength="7.23" x="263.8999" y="202.7993">10</text><text fill="#000000" font-family="sans-serif" font-size="6.5" lengthAdjust="spacing" textLength="52.7363" x="273.1299" y="202.7993">toDTO(stationList)</text><polygon fill="#181818" points="676.8901,219.0762,681.8901,221.0762,676.8901,223.0762,678.8901,221.0762" style="stroke:#181818;stroke-width:0.5;"/><line style="stroke:#181818;stroke-width:0.5;" x1="552.4885" x2="679.8901" y1="221.0762" y2="221.0762"/><text fill="#000000" font-family="sans-serif" font-size="6.5" font-weight="bold" lengthAdjust="spacing" textLength="7.23" x="555.9885" y="218.4448">11</text><text fill="#000000" font-family="sans-serif" font-size="6.5" lengthAdjust="spacing" textLength="22.3945" x="565.2185" y="218.4448">create()</text><rect fill="#E2E2F0" height="16.3105" rx="1.25" ry="1.25" style="stroke:#181818;stroke-width:0.25;" width="110.8823" x="682.8901" y="209.4307"/><text fill="#000000" font-family="sans-serif" font-size="7" lengthAdjust="spacing" textLength="103.8823" x="686.3901" y="220.4844">stationDtoList : List&lt;StationDTO&gt;</text><path d="M517.7524,234.7412 L553.9697,234.7412 L553.9697,239.3867 L548.9697,244.3867 L517.7524,244.3867 L517.7524,234.7412 " fill="#EEEEEE" style="stroke:#000000;stroke-width:0.75;"/><rect fill="none" height="129.8926" style="stroke:#000000;stroke-width:0.75;" width="370.8232" x="517.7524" y="234.7412"/><text fill="#000000" font-family="sans-serif" font-size="6.5" font-weight="bold" lengthAdjust="spacing" textLength="13.7173" x="525.2524" y="242.2554">loop</text><text fill="#000000" font-family="sans-serif" font-size="5.5" font-weight="bold" lengthAdjust="spacing" textLength="80.365" x="561.4697" y="241.6763">[for each station in stationList]</text><polygon fill="#181818" points="626.7834,254.0322,631.7834,256.0322,626.7834,258.0322,628.7834,256.0322" style="stroke:#181818;stroke-width:0.5;"/><line style="stroke:#181818;stroke-width:0.5;" x1="552.4885" x2="629.7834" y1="256.0322" y2="256.0322"/><text fill="#000000" font-family="sans-serif" font-size="6.5" font-weight="bold" lengthAdjust="spacing" textLength="7.23" x="555.9885" y="253.4009">12</text><text fill="#000000" font-family="sans-serif" font-size="6.5" lengthAdjust="spacing" textLength="28.9041" x="565.2185" y="253.4009">get(index)</text><line style="stroke:#181818;stroke-width:0.5;" x1="554.9885" x2="575.9885" y1="286.6777" y2="286.6777"/><line style="stroke:#181818;stroke-width:0.5;" x1="575.9885" x2="575.9885" y1="286.6777" y2="293.1777"/><line style="stroke:#181818;stroke-width:0.5;" x1="555.4885" x2="575.9885" y1="293.1777" y2="293.1777"/><polygon fill="#181818" points="560.4885,291.1777,555.4885,293.1777,560.4885,295.1777,558.4885,293.1777" style="stroke:#181818;stroke-width:0.5;"/><text fill="#000000" font-family="sans-serif" font-size="6.5" font-weight="bold" lengthAdjust="spacing" textLength="7.23" x="558.4885" y="284.0464">13</text><text fill="#000000" font-family="sans-serif" font-size="6.5" lengthAdjust="spacing" textLength="59.0649" x="567.7185" y="284.0464">dto = toDTO(station)</text><polygon fill="#181818" points="792.7725,321.8232,797.7725,323.8232,792.7725,325.8232,794.7725,323.8232" style="stroke:#181818;stroke-width:0.5;"/><line style="stroke:#181818;stroke-width:0.5;" x1="552.4885" x2="795.7725" y1="323.8232" y2="323.8232"/><text fill="#000000" font-family="sans-serif" font-size="6.5" font-weight="bold" lengthAdjust="spacing" textLength="7.23" x="555.9885" y="321.1919">14</text><text fill="#000000" font-family="sans-serif" font-size="6.5" lengthAdjust="spacing" textLength="22.3945" x="565.2185" y="321.1919">create()</text><rect fill="#E2E2F0" height="16.3105" rx="1.25" ry="1.25" style="stroke:#181818;stroke-width:0.25;" width="84.8032" x="798.7725" y="312.1777"/><text fill="#000000" font-family="sans-serif" font-size="7" lengthAdjust="spacing" textLength="77.8032" x="802.2725" y="323.2314">stationDTO : StationDTO</text><polygon fill="#181818" points="729.8313,343.6338,734.8313,345.6338,729.8313,347.6338,731.8313,345.6338" style="stroke:#181818;stroke-width:0.5;"/><line style="stroke:#181818;stroke-width:0.5;" x1="552.4885" x2="732.8313" y1="345.6338" y2="345.6338"/><text fill="#000000" font-family="sans-serif" font-size="6.5" font-weight="bold" lengthAdjust="spacing" textLength="7.23" x="555.9885" y="343.0024">15</text><text fill="#000000" font-family="sans-serif" font-size="6.5" lengthAdjust="spacing" textLength="24.21" x="565.2185" y="343.0024">add(dto)</text><polygon fill="#181818" points="265.8999,377.7793,260.8999,379.7793,265.8999,381.7793,263.8999,379.7793" style="stroke:#181818;stroke-width:0.5;"/><line style="stroke:#181818;stroke-width:0.5;stroke-dasharray:2.0,2.0;" x1="262.8999" x2="549.4885" y1="379.7793" y2="379.7793"/><text fill="#000000" font-family="sans-serif" font-size="6.5" font-weight="bold" lengthAdjust="spacing" textLength="7.23" x="268.8999" y="377.1479">16</text><text fill="#000000" font-family="sans-serif" font-size="6.5" lengthAdjust="spacing" textLength="39.3809" x="278.1299" y="377.1479">stationDtoList</text><polygon fill="#181818" points="164.1287,393.4248,159.1287,395.4248,164.1287,397.4248,162.1287,395.4248" style="stroke:#181818;stroke-width:0.5;"/><line style="stroke:#181818;stroke-width:0.5;stroke-dasharray:2.0,2.0;" x1="161.1287" x2="257.3999" y1="395.4248" y2="395.4248"/><text fill="#000000" font-family="sans-serif" font-size="6.5" font-weight="bold" lengthAdjust="spacing" textLength="7.23" x="167.1287" y="392.7935">17</text><text fill="#000000" font-family="sans-serif" font-size="6.5" lengthAdjust="spacing" textLength="39.3809" x="176.3586" y="392.7935">stationDtoList</text><polygon fill="#181818" points="21.9207,409.0703,16.9207,411.0703,21.9207,413.0703,19.9207,411.0703" style="stroke:#181818;stroke-width:0.5;"/><line style="stroke:#181818;stroke-width:0.5;" x1="18.9207" x2="153.1287" y1="411.0703" y2="411.0703"/><text fill="#000000" font-family="sans-serif" font-size="6.5" font-weight="bold" lengthAdjust="spacing" textLength="7.23" x="24.9207" y="408.439">18</text><text fill="#000000" font-family="sans-serif" font-size="6.5" lengthAdjust="spacing" textLength="115.978" x="34.1506" y="408.439">shows station list and requests selection</text><polygon fill="#181818" points="147.6287,424.7158,152.6287,426.7158,147.6287,428.7158,149.6287,426.7158" style="stroke:#181818;stroke-width:0.5;"/><line style="stroke:#181818;stroke-width:0.5;" x1="16.4207" x2="150.6287" y1="426.7158" y2="426.7158"/><text fill="#000000" font-family="sans-serif" font-size="6.5" font-weight="bold" lengthAdjust="spacing" textLength="7.23" x="19.9207" y="424.0845">19</text><text fill="#000000" font-family="sans-serif" font-size="6.5" lengthAdjust="spacing" textLength="41.1868" x="29.1506" y="424.0845">selects station</text><polygon fill="#181818" points="249.3999,440.3613,254.3999,442.3613,249.3999,444.3613,251.3999,442.3613" style="stroke:#181818;stroke-width:0.5;"/><line style="stroke:#181818;stroke-width:0.5;" x1="158.6287" x2="252.3999" y1="442.3613" y2="442.3613"/><text fill="#000000" font-family="sans-serif" font-size="6.5" font-weight="bold" lengthAdjust="spacing" textLength="7.23" x="162.1287" y="439.73">20</text><text fill="#000000" font-family="sans-serif" font-size="6.5" lengthAdjust="spacing" textLength="78.0413" x="171.3586" y="439.73">getStationDetails(stationId)</text><polygon fill="#181818" points="477.1543,456.0068,482.1543,458.0068,477.1543,460.0068,479.1543,458.0068" style="stroke:#181818;stroke-width:0.5;"/><line style="stroke:#181818;stroke-width:0.5;" x1="260.3999" x2="480.1543" y1="458.0068" y2="458.0068"/><text fill="#000000" font-family="sans-serif" font-size="6.5" font-weight="bold" lengthAdjust="spacing" textLength="7.23" x="263.8999" y="455.3755">21</text><text fill="#000000" font-family="sans-serif" font-size="6.5" lengthAdjust="spacing" textLength="144.8567" x="273.1299" y="455.3755">getName(), getType(), getPosition(), getDirection()</text><polygon fill="#181818" points="477.1543,471.6523,482.1543,473.6523,477.1543,475.6523,479.1543,473.6523" style="stroke:#181818;stroke-width:0.5;"/><line style="stroke:#181818;stroke-width:0.5;" x1="260.3999" x2="480.1543" y1="473.6523" y2="473.6523"/><text fill="#000000" font-family="sans-serif" font-size="6.5" font-weight="bold" lengthAdjust="spacing" textLength="7.23" x="263.8999" y="471.021">22</text><text fill="#000000" font-family="sans-serif" font-size="6.5" lengthAdjust="spacing" textLength="81.2881" x="273.1299" y="471.021">getBuildings(), getCargoes()</text><polygon fill="#181818" points="265.8999,487.2979,260.8999,489.2979,265.8999,491.2979,263.8999,489.2979" style="stroke:#181818;stroke-width:0.5;"/><line style="stroke:#181818;stroke-width:0.5;stroke-dasharray:2.0,2.0;" x1="262.8999" x2="485.1543" y1="489.2979" y2="489.2979"/><text fill="#000000" font-family="sans-serif" font-size="6.5" font-weight="bold" lengthAdjust="spacing" textLength="7.23" x="268.8999" y="486.6665">23</text><text fill="#000000" font-family="sans-serif" font-size="6.5" lengthAdjust="spacing" textLength="61.7817" x="278.1299" y="486.6665">returns station details</text><polygon fill="#181818" points="164.1287,502.9434,159.1287,504.9434,164.1287,506.9434,162.1287,504.9434" style="stroke:#181818;stroke-width:0.5;"/><line style="stroke:#181818;stroke-width:0.5;" x1="161.1287" x2="257.3999" y1="504.9434" y2="504.9434"/><text fill="#000000" font-family="sans-serif" font-size="6.5" font-weight="bold" lengthAdjust="spacing" textLength="7.23" x="167.1287" y="502.312">24</text><text fill="#000000" font-family="sans-serif" font-size="6.5" lengthAdjust="spacing" textLength="39.019" x="176.3586" y="502.312">stationDetails</text><polygon fill="#181818" points="19.4207,518.5889,14.4207,520.5889,19.4207,522.5889,17.4207,520.5889" style="stroke:#181818;stroke-width:0.5;"/><line style="stroke:#181818;stroke-width:0.5;" x1="16.4207" x2="153.1287" y1="520.5889" y2="520.5889"/><text fill="#000000" font-family="sans-serif" font-size="6.5" font-weight="bold" lengthAdjust="spacing" textLength="7.23" x="22.4207" y="517.9575">25</text><text fill="#000000" font-family="sans-serif" font-size="6.5" lengthAdjust="spacing" textLength="85.9917" x="31.6506" y="517.9575">shows selected station details</text><!--SRC=[ZLRHRjiW57ttLw0-fTNw0z5MgKtw42bThDXzc3HfeZPDK1tm0A_Bt-yQC04RulcbTdpEuN3lyQNoWx8M2tn2BQu-y84KwjmG94YbC3iq99CE88-uvf-K7T0xRYJ9SASuwqvlH6GPhXGNw2Ply9c86uGbohUFFvxt6L0LhMYBcK8to-B8Fmk55UNiTQDXhviqHAuuKu8tZPLSbVjjYDwJbaiAIrCYDMJ_dE-A47F2hOETVxBbY_-iII-F-Q-UE7A2h0sDAShmhJJl0kLY_9jbniGj5ioqTdVW8XyNpAwofLAX9Uh_VBN4Xq5xkqbOMoiUuQtBdQF2_HLwkKEk1F3WaNIxwH-ioD1b19UvHVSFq5DWYeujRlKB1uPUwn_w2p20x3iAs0OC3Zstf82e6-z-xYzD107TRr0u4BLXu9nLn1C8H4mq_5U6V7_n8RmuXUlLPAGJTJC4oHY2tZwTD_K20hYf4wPSzD3eSbAUlI2vANjECUgmA8stuXAiLBqW5zd45l2rYixDtHs8LO806aIYs8jvByefwth5L67Xsm0LnI5_2qyhNTV-OugLDJSXzV8_iu-6ynQzmtW3fyTX7uYoO4iJrcIrVYLJ_0LbDVbx6wLunJ3VPWmKr2mDkoplwbShZhw5LPpnOIivO-CAQbpocMedkmGiNDSBsC5yvTnacwzU4afOhLkV3j4at7RaPjUB54duC3GJEfv6E0hD5BMJ5-XmTagNq7wg8Wox4EHtHwI2DwI1SntUEO7Hq3O09n6VrfVniIOAqqOEIVAdN6XuEeQyEVaTdo09N_hRyjmEjta_vq3KFgwfCDPZvyDmn5vTvgcZJGt_lKYhkCBYm8dqCpZWWoD1TO9TYbgRBMVnC4LT19rDq_-dixezf9wuoJmTUoJ_0m00]--></g></svg>