<svg xmlns="http://www.w3.org/2000/svg" xmlns:xlink="http://www.w3.org/1999/xlink" contentStyleType="text/css" height="415.6px" preserveAspectRatio="none" style="width:671px;height:415px;background:#FFFFFF;" version="1.1" viewBox="0 0 671 415" width="671.2px" zoomAndPan="magnify"><defs/><g><!--class ShowStationUI--><g id="elem_ShowStationUI"><rect codeLine="8" fill="#F1F1F1" height="48.9938" id="ShowStationUI" rx="1" ry="1" style="stroke:#181818;stroke-width:0.20000000000000004;" width="91.3266" x="58.6" y="10.4"/><ellipse cx="84.042" cy="16.8" fill="#ADD1B2" rx="4.4" ry="4.4" style="stroke:#181818;stroke-width:0.4000000000000001;"/><path d="M85.1482,15.15 Q85.2107,15.0625 85.2857,15.0188 Q85.3607,14.975 85.4482,14.975 Q85.5982,14.975 85.692,15.0813 Q85.7857,15.1813 85.7857,15.425 L85.7857,16.0063 Q85.7857,16.25 85.692,16.3563 Q85.5982,16.4625 85.4482,16.4625 Q85.3107,16.4625 85.2295,16.3813 Q85.1482,16.3063 85.1045,16.1 Q85.0857,15.9563 85.0107,15.8813 Q84.8795,15.7313 84.6357,15.6438 Q84.392,15.5563 84.142,15.5563 Q83.8357,15.5563 83.5795,15.6875 Q83.3295,15.8188 83.1295,16.1188 Q82.9357,16.4188 82.9357,16.8313 L82.9357,17.2688 Q82.9357,17.7625 83.292,18.0938 Q83.6482,18.4188 84.2857,18.4188 Q84.6607,18.4188 84.9232,18.3188 Q85.0795,18.2563 85.2482,18.0813 Q85.3545,17.975 85.4107,17.9438 Q85.4732,17.9125 85.5545,17.9125 Q85.6857,17.9125 85.7857,18.0188 Q85.892,18.1188 85.892,18.2563 Q85.892,18.3938 85.7545,18.5563 Q85.5545,18.7875 85.2357,18.9188 Q84.8045,19.1 84.2857,19.1 Q83.6795,19.1 83.1982,18.85 Q82.8045,18.65 82.5295,18.225 Q82.2545,17.7938 82.2545,17.2813 L82.2545,16.8188 Q82.2545,16.2875 82.4982,15.8313 Q82.7482,15.3688 83.1857,15.125 Q83.6232,14.875 84.117,14.875 Q84.4107,14.875 84.667,14.9438 Q84.9295,15.0063 85.1482,15.15 Z " fill="#000000"/><text fill="#000000" font-family="sans-serif" font-size="5.6" lengthAdjust="spacing" textLength="37.0426" x="92.242" y="19.1188">ShowStationUI</text><line style="stroke:#181818;stroke-width:0.20000000000000004;" x1="59" x2="149.5266" y1="23.2" y2="23.2"/><text fill="#000000" font-family="sans-serif" font-size="5.6" lengthAdjust="spacing" textLength="86.5266" x="61" y="30.843">-controller: ShowStationsController</text><line style="stroke:#181818;stroke-width:0.20000000000000004;" x1="59" x2="149.5266" y1="33.8484" y2="33.8484"/><text fill="#000000" font-family="sans-serif" font-size="5.6" lengthAdjust="spacing" textLength="68.6328" x="61" y="41.4914">+ShowStationUI(mapId: int)</text><text fill="#000000" font-family="sans-serif" font-size="5.6" lengthAdjust="spacing" textLength="28.4785" x="61" y="48.9398">+run(): void</text><text fill="#000000" font-family="sans-serif" font-size="5.6" lengthAdjust="spacing" textLength="49.4867" x="61" y="56.3883">-showStation(): void</text></g><!--class ShowStationsController--><g id="elem_ShowStationsController"><rect codeLine="15" fill="#F1F1F1" height="63.8906" id="ShowStationsController" rx="1" ry="1" style="stroke:#181818;stroke-width:0.20000000000000004;" width="94.5969" x="163.8" y="2.8"/><ellipse cx="180.2753" cy="9.2" fill="#ADD1B2" rx="4.4" ry="4.4" style="stroke:#181818;stroke-width:0.4000000000000001;"/><path d="M181.3816,7.55 Q181.4441,7.4625 181.5191,7.4188 Q181.5941,7.375 181.6816,7.375 Q181.8316,7.375 181.9253,7.4813 Q182.0191,7.5813 182.0191,7.825 L182.0191,8.4063 Q182.0191,8.65 181.9253,8.7563 Q181.8316,8.8625 181.6816,8.8625 Q181.5441,8.8625 181.4628,8.7813 Q181.3816,8.7063 181.3378,8.5 Q181.3191,8.3563 181.2441,8.2813 Q181.1128,8.1313 180.8691,8.0438 Q180.6253,7.9563 180.3753,7.9563 Q180.0691,7.9563 179.8128,8.0875 Q179.5628,8.2188 179.3628,8.5188 Q179.1691,8.8188 179.1691,9.2313 L179.1691,9.6688 Q179.1691,10.1625 179.5253,10.4938 Q179.8816,10.8188 180.5191,10.8188 Q180.8941,10.8188 181.1566,10.7188 Q181.3128,10.6563 181.4816,10.4813 Q181.5878,10.375 181.6441,10.3438 Q181.7066,10.3125 181.7878,10.3125 Q181.9191,10.3125 182.0191,10.4188 Q182.1253,10.5188 182.1253,10.6563 Q182.1253,10.7938 181.9878,10.9563 Q181.7878,11.1875 181.4691,11.3188 Q181.0378,11.5 180.5191,11.5 Q179.9128,11.5 179.4316,11.25 Q179.0378,11.05 178.7628,10.625 Q178.4878,10.1938 178.4878,9.6813 L178.4878,9.2188 Q178.4878,8.6875 178.7316,8.2313 Q178.9816,7.7688 179.4191,7.525 Q179.8566,7.275 180.3503,7.275 Q180.6441,7.275 180.9003,7.3438 Q181.1628,7.4063 181.3816,7.55 Z " fill="#000000"/><text fill="#000000" font-family="sans-serif" font-size="5.6" lengthAdjust="spacing" textLength="58.5184" x="188.2032" y="11.5188">ShowStationsController</text><line style="stroke:#181818;stroke-width:0.20000000000000004;" x1="164.2" x2="257.9969" y1="15.6" y2="15.6"/><text fill="#000000" font-family="sans-serif" font-size="5.6" lengthAdjust="spacing" textLength="80.2977" x="166.2" y="23.243">-mapRepository: MapRepository</text><text fill="#000000" font-family="sans-serif" font-size="5.6" lengthAdjust="spacing" textLength="41.7074" x="166.2" y="30.6914">-actualMap: Map</text><line style="stroke:#181818;stroke-width:0.20000000000000004;" x1="164.2" x2="257.9969" y1="33.6969" y2="33.6969"/><text fill="#000000" font-family="sans-serif" font-size="5.6" lengthAdjust="spacing" textLength="89.7969" x="166.2" y="41.3398">+ShowStationsController(idMap: int)</text><text fill="#000000" font-family="sans-serif" font-size="5.6" lengthAdjust="spacing" textLength="70.0246" x="166.2" y="48.7883">-initializeRepositories(): void</text><text fill="#000000" font-family="sans-serif" font-size="5.6" lengthAdjust="spacing" textLength="55.248" x="166.2" y="56.2367">+getActualMap(): Map</text><text fill="#000000" font-family="sans-serif" font-size="5.6" lengthAdjust="spacing" textLength="69.8797" x="166.2" y="63.6852">+listStations(): List&lt;Station&gt;</text></g><!--class Map--><g id="elem_Map"><rect codeLine="24" fill="#F1F1F1" height="41.5453" id="Map" rx="1" ry="1" style="stroke:#181818;stroke-width:0.20000000000000004;" width="81.5348" x="99" y="208.8"/><ellipse cx="132.6205" cy="215.2" fill="#ADD1B2" rx="4.4" ry="4.4" style="stroke:#181818;stroke-width:0.4000000000000001;"/><path d="M133.7268,213.55 Q133.7893,213.4625 133.8643,213.4188 Q133.9393,213.375 134.0268,213.375 Q134.1768,213.375 134.2705,213.4813 Q134.3643,213.5813 134.3643,213.825 L134.3643,214.4063 Q134.3643,214.65 134.2705,214.7563 Q134.1768,214.8625 134.0268,214.8625 Q133.8893,214.8625 133.808,214.7813 Q133.7268,214.7063 133.683,214.5 Q133.6643,214.3563 133.5893,214.2813 Q133.458,214.1313 133.2143,214.0438 Q132.9705,213.9563 132.7205,213.9563 Q132.4143,213.9563 132.158,214.0875 Q131.908,214.2188 131.708,214.5188 Q131.5143,214.8188 131.5143,215.2313 L131.5143,215.6688 Q131.5143,216.1625 131.8705,216.4938 Q132.2268,216.8188 132.8643,216.8188 Q133.2393,216.8188 133.5018,216.7188 Q133.658,216.6563 133.8268,216.4813 Q133.933,216.375 133.9893,216.3438 Q134.0518,216.3125 134.133,216.3125 Q134.2643,216.3125 134.3643,216.4188 Q134.4705,216.5188 134.4705,216.6563 Q134.4705,216.7938 134.333,216.9563 Q134.133,217.1875 133.8143,217.3188 Q133.383,217.5 132.8643,217.5 Q132.258,217.5 131.7768,217.25 Q131.383,217.05 131.108,216.625 Q130.833,216.1938 130.833,215.6813 L130.833,215.2188 Q130.833,214.6875 131.0768,214.2313 Q131.3268,213.7688 131.7643,213.525 Q132.2018,213.275 132.6955,213.275 Q132.9893,213.275 133.2455,213.3438 Q133.508,213.4063 133.7268,213.55 Z " fill="#000000"/><text fill="#000000" font-family="sans-serif" font-size="5.6" lengthAdjust="spacing" textLength="10.8938" x="140.8205" y="217.5188">Map</text><line style="stroke:#181818;stroke-width:0.20000000000000004;" x1="99.4" x2="180.1348" y1="221.6" y2="221.6"/><text fill="#000000" font-family="sans-serif" font-size="5.6" lengthAdjust="spacing" textLength="43.1129" x="101.4" y="229.243">+actualMap: Map</text><line style="stroke:#181818;stroke-width:0.20000000000000004;" x1="99.4" x2="180.1348" y1="232.2484" y2="232.2484"/><text fill="#000000" font-family="sans-serif" font-size="5.6" lengthAdjust="spacing" textLength="76.7348" x="101.4" y="239.8914">+getStationList(): List&lt;Station&gt;</text><text fill="#000000" font-family="sans-serif" font-size="5.6" lengthAdjust="spacing" textLength="8.3973" x="101.4" y="247.3398">...()</text></g><!--class StationRepository--><g id="elem_StationRepository"><rect codeLine="30" fill="#F1F1F1" height="41.5453" id="StationRepository" rx="1" ry="1" style="stroke:#181818;stroke-width:0.20000000000000004;" width="75.6203" x="194.8" y="208.8"/><ellipse cx="209.1786" cy="215.2" fill="#ADD1B2" rx="4.4" ry="4.4" style="stroke:#181818;stroke-width:0.4000000000000001;"/><path d="M210.2849,213.55 Q210.3474,213.4625 210.4224,213.4188 Q210.4974,213.375 210.5849,213.375 Q210.7349,213.375 210.8286,213.4813 Q210.9224,213.5813 210.9224,213.825 L210.9224,214.4063 Q210.9224,214.65 210.8286,214.7563 Q210.7349,214.8625 210.5849,214.8625 Q210.4474,214.8625 210.3661,214.7813 Q210.2849,214.7063 210.2411,214.5 Q210.2224,214.3563 210.1474,214.2813 Q210.0161,214.1313 209.7724,214.0438 Q209.5286,213.9563 209.2786,213.9563 Q208.9724,213.9563 208.7161,214.0875 Q208.4661,214.2188 208.2661,214.5188 Q208.0724,214.8188 208.0724,215.2313 L208.0724,215.6688 Q208.0724,216.1625 208.4286,216.4938 Q208.7849,216.8188 209.4224,216.8188 Q209.7974,216.8188 210.0599,216.7188 Q210.2161,216.6563 210.3849,216.4813 Q210.4911,216.375 210.5474,216.3438 Q210.6099,216.3125 210.6911,216.3125 Q210.8224,216.3125 210.9224,216.4188 Q211.0286,216.5188 211.0286,216.6563 Q211.0286,216.7938 210.8911,216.9563 Q210.6911,217.1875 210.3724,217.3188 Q209.9411,217.5 209.4224,217.5 Q208.8161,217.5 208.3349,217.25 Q207.9411,217.05 207.6661,216.625 Q207.3911,216.1938 207.3911,215.6813 L207.3911,215.2188 Q207.3911,214.6875 207.6349,214.2313 Q207.8849,213.7688 208.3224,213.525 Q208.7599,213.275 209.2536,213.275 Q209.5474,213.275 209.8036,213.3438 Q210.0661,213.4063 210.2849,213.55 Z " fill="#000000"/><text fill="#000000" font-family="sans-serif" font-size="5.6" lengthAdjust="spacing" textLength="44.2012" x="216.6405" y="217.5188">StationRepository</text><line style="stroke:#181818;stroke-width:0.20000000000000004;" x1="195.2" x2="270.0203" y1="221.6" y2="221.6"/><text fill="#000000" font-family="sans-serif" font-size="5.6" lengthAdjust="spacing" textLength="56.9652" x="197.2" y="229.243">-stations: List&lt;Station&gt;</text><line style="stroke:#181818;stroke-width:0.20000000000000004;" x1="195.2" x2="270.0203" y1="232.2484" y2="232.2484"/><text fill="#000000" font-family="sans-serif" font-size="5.6" lengthAdjust="spacing" textLength="70.8203" x="197.2" y="239.8914">+getStations(): List&lt;Station&gt;</text><text fill="#000000" font-family="sans-serif" font-size="5.6" lengthAdjust="spacing" textLength="8.3973" x="197.2" y="247.3398">...()</text></g><!--class MapRepository--><g id="elem_MapRepository"><rect codeLine="36" fill="#F1F1F1" height="34.0969" id="MapRepository" rx="1" ry="1" style="stroke:#181818;stroke-width:0.20000000000000004;" width="69.0742" x="2.8" y="212.6"/><ellipse cx="17.1762" cy="219" fill="#ADD1B2" rx="4.4" ry="4.4" style="stroke:#181818;stroke-width:0.4000000000000001;"/><path d="M18.2824,217.35 Q18.3449,217.2625 18.4199,217.2188 Q18.4949,217.175 18.5824,217.175 Q18.7324,217.175 18.8262,217.2813 Q18.9199,217.3813 18.9199,217.625 L18.9199,218.2063 Q18.9199,218.45 18.8262,218.5563 Q18.7324,218.6625 18.5824,218.6625 Q18.4449,218.6625 18.3637,218.5813 Q18.2824,218.5063 18.2387,218.3 Q18.2199,218.1563 18.1449,218.0813 Q18.0137,217.9313 17.7699,217.8438 Q17.5262,217.7563 17.2762,217.7563 Q16.9699,217.7563 16.7137,217.8875 Q16.4637,218.0188 16.2637,218.3188 Q16.0699,218.6188 16.0699,219.0313 L16.0699,219.4688 Q16.0699,219.9625 16.4262,220.2938 Q16.7824,220.6188 17.4199,220.6188 Q17.7949,220.6188 18.0574,220.5188 Q18.2137,220.4563 18.3824,220.2813 Q18.4887,220.175 18.5449,220.1438 Q18.6074,220.1125 18.6887,220.1125 Q18.8199,220.1125 18.9199,220.2188 Q19.0262,220.3188 19.0262,220.4563 Q19.0262,220.5938 18.8887,220.7563 Q18.6887,220.9875 18.3699,221.1188 Q17.9387,221.3 17.4199,221.3 Q16.8137,221.3 16.3324,221.05 Q15.9387,220.85 15.6637,220.425 Q15.3887,219.9938 15.3887,219.4813 L15.3887,219.0188 Q15.3887,218.4875 15.6324,218.0313 Q15.8824,217.5688 16.3199,217.325 Q16.7574,217.075 17.2512,217.075 Q17.5449,217.075 17.8012,217.1438 Q18.0637,217.2063 18.2824,217.35 Z " fill="#000000"/><text fill="#000000" font-family="sans-serif" font-size="5.6" lengthAdjust="spacing" textLength="37.6605" x="24.6375" y="221.3188">MapRepository</text><line style="stroke:#181818;stroke-width:0.20000000000000004;" x1="3.2" x2="71.4742" y1="225.4" y2="225.4"/><line style="stroke:#181818;stroke-width:0.20000000000000004;" x1="3.2" x2="71.4742" y1="228.6" y2="228.6"/><text fill="#000000" font-family="sans-serif" font-size="5.6" lengthAdjust="spacing" textLength="64.2742" x="5.2" y="236.243">+getMapById(id: int): Map</text><text fill="#000000" font-family="sans-serif" font-size="5.6" lengthAdjust="spacing" textLength="8.3973" x="5.2" y="243.6914">...()</text></g><!--class Repositories--><g id="elem_Repositories"><rect codeLine="41" fill="#F1F1F1" height="48.9938" id="Repositories" rx="1" ry="1" style="stroke:#181818;stroke-width:0.20000000000000004;" width="99.5734" x="58.8" y="91.2"/><ellipse cx="91.324" cy="97.6" fill="#ADD1B2" rx="4.4" ry="4.4" style="stroke:#181818;stroke-width:0.4000000000000001;"/><path d="M92.4303,95.95 Q92.4928,95.8625 92.5678,95.8188 Q92.6428,95.775 92.7303,95.775 Q92.8803,95.775 92.974,95.8813 Q93.0678,95.9813 93.0678,96.225 L93.0678,96.8063 Q93.0678,97.05 92.974,97.1563 Q92.8803,97.2625 92.7303,97.2625 Q92.5928,97.2625 92.5115,97.1813 Q92.4303,97.1063 92.3865,96.9 Q92.3678,96.7563 92.2928,96.6813 Q92.1615,96.5313 91.9178,96.4438 Q91.674,96.3563 91.424,96.3563 Q91.1178,96.3563 90.8615,96.4875 Q90.6115,96.6188 90.4115,96.9188 Q90.2178,97.2188 90.2178,97.6313 L90.2178,98.0688 Q90.2178,98.5625 90.574,98.8938 Q90.9303,99.2188 91.5678,99.2188 Q91.9428,99.2188 92.2053,99.1188 Q92.3615,99.0563 92.5303,98.8813 Q92.6365,98.775 92.6928,98.7438 Q92.7553,98.7125 92.8365,98.7125 Q92.9678,98.7125 93.0678,98.8188 Q93.174,98.9188 93.174,99.0563 Q93.174,99.1938 93.0365,99.3563 Q92.8365,99.5875 92.5178,99.7188 Q92.0865,99.9 91.5678,99.9 Q90.9615,99.9 90.4803,99.65 Q90.0865,99.45 89.8115,99.025 Q89.5365,98.5938 89.5365,98.0813 L89.5365,97.6188 Q89.5365,97.0875 89.7803,96.6313 Q90.0303,96.1688 90.4678,95.925 Q90.9053,95.675 91.399,95.675 Q91.6928,95.675 91.949,95.7438 Q92.2115,95.8063 92.4303,95.95 Z " fill="#000000"/><text fill="#000000" font-family="sans-serif" font-size="5.6" lengthAdjust="spacing" textLength="31.1254" x="99.524" y="99.9188">Repositories</text><line style="stroke:#181818;stroke-width:0.20000000000000004;" x1="59.2" x2="157.9734" y1="104" y2="104"/><text fill="#000000" font-family="sans-serif" font-size="5.6" lengthAdjust="spacing" textLength="40.9309" x="61.2" y="111.643">+mapRepository</text><line style="stroke:#181818;stroke-width:0.20000000000000004;" x1="59.2" x2="157.9734" y1="114.6484" y2="114.6484"/><text fill="#000000" font-family="sans-serif" font-size="5.6" lengthAdjust="spacing" text-decoration="underline" textLength="70.1914" x="61.2" y="122.2914">+getInstance(): Repositories</text><text fill="#000000" font-family="sans-serif" font-size="5.6" lengthAdjust="spacing" textLength="94.7734" x="61.2" y="129.7398">+getMapRepository() : MapRepository</text><text fill="#000000" font-family="sans-serif" font-size="5.6" lengthAdjust="spacing" textLength="8.3973" x="61.2" y="137.1883">...()</text></g><!--class Station--><g id="elem_Station"><rect codeLine="48" fill="#F1F1F1" height="34.0969" id="Station" rx="1" ry="1" style="stroke:#181818;stroke-width:0.20000000000000004;" width="61.2977" x="304.4" y="212.6"/><ellipse cx="324.6316" cy="219" fill="#ADD1B2" rx="4.4" ry="4.4" style="stroke:#181818;stroke-width:0.4000000000000001;"/><path d="M325.7379,217.35 Q325.8004,217.2625 325.8754,217.2188 Q325.9504,217.175 326.0379,217.175 Q326.1879,217.175 326.2816,217.2813 Q326.3754,217.3813 326.3754,217.625 L326.3754,218.2063 Q326.3754,218.45 326.2816,218.5563 Q326.1879,218.6625 326.0379,218.6625 Q325.9004,218.6625 325.8191,218.5813 Q325.7379,218.5063 325.6941,218.3 Q325.6754,218.1563 325.6004,218.0813 Q325.4691,217.9313 325.2254,217.8438 Q324.9816,217.7563 324.7316,217.7563 Q324.4254,217.7563 324.1691,217.8875 Q323.9191,218.0188 323.7191,218.3188 Q323.5254,218.6188 323.5254,219.0313 L323.5254,219.4688 Q323.5254,219.9625 323.8816,220.2938 Q324.2379,220.6188 324.8754,220.6188 Q325.2504,220.6188 325.5129,220.5188 Q325.6691,220.4563 325.8379,220.2813 Q325.9441,220.175 326.0004,220.1438 Q326.0629,220.1125 326.1441,220.1125 Q326.2754,220.1125 326.3754,220.2188 Q326.4816,220.3188 326.4816,220.4563 Q326.4816,220.5938 326.3441,220.7563 Q326.1441,220.9875 325.8254,221.1188 Q325.3941,221.3 324.8754,221.3 Q324.2691,221.3 323.7879,221.05 Q323.3941,220.85 323.1191,220.425 Q322.8441,219.9938 322.8441,219.4813 L322.8441,219.0188 Q322.8441,218.4875 323.0879,218.0313 Q323.3379,217.5688 323.7754,217.325 Q324.2129,217.075 324.7066,217.075 Q325.0004,217.075 325.2566,217.1438 Q325.5191,217.2063 325.7379,217.35 Z " fill="#000000"/><text fill="#000000" font-family="sans-serif" font-size="5.6" lengthAdjust="spacing" textLength="17.4344" x="332.8316" y="221.3188">Station</text><line style="stroke:#181818;stroke-width:0.20000000000000004;" x1="304.8" x2="365.2977" y1="225.4" y2="225.4"/><line style="stroke:#181818;stroke-width:0.20000000000000004;" x1="304.8" x2="365.2977" y1="228.6" y2="228.6"/><text fill="#000000" font-family="sans-serif" font-size="5.6" lengthAdjust="spacing" textLength="56.4977" x="306.8" y="236.243">+toLongString(): String</text><text fill="#000000" font-family="sans-serif" font-size="5.6" lengthAdjust="spacing" textLength="8.3973" x="306.8" y="243.6914">...()</text></g><!--class Inventory--><g id="elem_Inventory"><rect codeLine="53" fill="#F1F1F1" height="41.5453" id="Inventory" rx="1" ry="1" style="stroke:#181818;stroke-width:0.20000000000000004;" width="94.9086" x="338.4" y="345.2"/><ellipse cx="372.6371" cy="351.6" fill="#ADD1B2" rx="4.4" ry="4.4" style="stroke:#181818;stroke-width:0.4000000000000001;"/><path d="M373.7434,349.95 Q373.8059,349.8625 373.8809,349.8188 Q373.9559,349.775 374.0434,349.775 Q374.1934,349.775 374.2871,349.8813 Q374.3809,349.9813 374.3809,350.225 L374.3809,350.8063 Q374.3809,351.05 374.2871,351.1563 Q374.1934,351.2625 374.0434,351.2625 Q373.9059,351.2625 373.8246,351.1813 Q373.7434,351.1063 373.6996,350.9 Q373.6809,350.7563 373.6059,350.6813 Q373.4746,350.5313 373.2309,350.4438 Q372.9871,350.3563 372.7371,350.3563 Q372.4309,350.3563 372.1746,350.4875 Q371.9246,350.6188 371.7246,350.9188 Q371.5309,351.2188 371.5309,351.6313 L371.5309,352.0688 Q371.5309,352.5625 371.8871,352.8938 Q372.2434,353.2188 372.8809,353.2188 Q373.2559,353.2188 373.5184,353.1188 Q373.6746,353.0563 373.8434,352.8813 Q373.9496,352.775 374.0059,352.7438 Q374.0684,352.7125 374.1496,352.7125 Q374.2809,352.7125 374.3809,352.8188 Q374.4871,352.9188 374.4871,353.0563 Q374.4871,353.1938 374.3496,353.3563 Q374.1496,353.5875 373.8309,353.7188 Q373.3996,353.9 372.8809,353.9 Q372.2746,353.9 371.7934,353.65 Q371.3996,353.45 371.1246,353.025 Q370.8496,352.5938 370.8496,352.0813 L370.8496,351.6188 Q370.8496,351.0875 371.0934,350.6313 Q371.3434,350.1688 371.7809,349.925 Q372.2184,349.675 372.7121,349.675 Q373.0059,349.675 373.2621,349.7438 Q373.5246,349.8063 373.7434,349.95 Z " fill="#000000"/><text fill="#000000" font-family="sans-serif" font-size="5.6" lengthAdjust="spacing" textLength="23.0344" x="380.8371" y="353.9188">Inventory</text><line style="stroke:#181818;stroke-width:0.20000000000000004;" x1="338.8" x2="432.9086" y1="358" y2="358"/><text fill="#000000" font-family="sans-serif" font-size="5.6" lengthAdjust="spacing" textLength="70.1914" x="340.8" y="365.643">+resources: List&lt;Resource&gt;</text><line style="stroke:#181818;stroke-width:0.20000000000000004;" x1="338.8" x2="432.9086" y1="368.6484" y2="368.6484"/><text fill="#000000" font-family="sans-serif" font-size="5.6" lengthAdjust="spacing" textLength="90.1086" x="340.8" y="376.2914">+getAllResources(): List&lt;Resource&gt;</text><text fill="#000000" font-family="sans-serif" font-size="5.6" lengthAdjust="spacing" textLength="8.3973" x="340.8" y="383.7398">...()</text></g><!--class Resource--><g id="elem_Resource"><rect codeLine="59" fill="#F1F1F1" height="41.5453" id="Resource" rx="1" ry="1" style="stroke:#181818;stroke-width:0.20000000000000004;" width="98.3293" x="392.2" y="208.8"/><ellipse cx="427.6813" cy="215.2" fill="#ADD1B2" rx="4.4" ry="4.4" style="stroke:#181818;stroke-width:0.4000000000000001;"/><path d="M428.7875,213.55 Q428.85,213.4625 428.925,213.4188 Q429,213.375 429.0875,213.375 Q429.2375,213.375 429.3313,213.4813 Q429.425,213.5813 429.425,213.825 L429.425,214.4063 Q429.425,214.65 429.3313,214.7563 Q429.2375,214.8625 429.0875,214.8625 Q428.95,214.8625 428.8688,214.7813 Q428.7875,214.7063 428.7438,214.5 Q428.725,214.3563 428.65,214.2813 Q428.5188,214.1313 428.275,214.0438 Q428.0313,213.9563 427.7813,213.9563 Q427.475,213.9563 427.2188,214.0875 Q426.9688,214.2188 426.7688,214.5188 Q426.575,214.8188 426.575,215.2313 L426.575,215.6688 Q426.575,216.1625 426.9313,216.4938 Q427.2875,216.8188 427.925,216.8188 Q428.3,216.8188 428.5625,216.7188 Q428.7188,216.6563 428.8875,216.4813 Q428.9938,216.375 429.05,216.3438 Q429.1125,216.3125 429.1938,216.3125 Q429.325,216.3125 429.425,216.4188 Q429.5313,216.5188 429.5313,216.6563 Q429.5313,216.7938 429.3938,216.9563 Q429.1938,217.1875 428.875,217.3188 Q428.4438,217.5 427.925,217.5 Q427.3188,217.5 426.8375,217.25 Q426.4438,217.05 426.1688,216.625 Q425.8938,216.1938 425.8938,215.6813 L425.8938,215.2188 Q425.8938,214.6875 426.1375,214.2313 Q426.3875,213.7688 426.825,213.525 Q427.2625,213.275 427.7563,213.275 Q428.05,213.275 428.3063,213.3438 Q428.5688,213.4063 428.7875,213.55 Z " fill="#000000"/><text fill="#000000" font-family="sans-serif" font-size="5.6" lengthAdjust="spacing" textLength="23.9668" x="435.8813" y="217.5188">Resource</text><line style="stroke:#181818;stroke-width:0.20000000000000004;" x1="392.6" x2="490.1293" y1="221.6" y2="221.6"/><text fill="#000000" font-family="sans-serif" font-size="5.6" lengthAdjust="spacing" textLength="79.8355" x="394.6" y="229.243">+resourceType: ResourcesType</text><line style="stroke:#181818;stroke-width:0.20000000000000004;" x1="392.6" x2="490.1293" y1="232.2484" y2="232.2484"/><text fill="#000000" font-family="sans-serif" font-size="5.6" lengthAdjust="spacing" textLength="93.5293" x="394.6" y="239.8914">+getResourceType(): ResourcesType</text><text fill="#000000" font-family="sans-serif" font-size="5.6" lengthAdjust="spacing" textLength="8.3973" x="394.6" y="247.3398">...()</text></g><!--class Building--><g id="elem_Building"><rect codeLine="65" fill="#F1F1F1" height="34.0969" id="Building" rx="1" ry="1" style="stroke:#181818;stroke-width:0.20000000000000004;" width="52.2633" x="180.8" y="349"/><ellipse cx="195.5921" cy="355.4" fill="#ADD1B2" rx="4.4" ry="4.4" style="stroke:#181818;stroke-width:0.4000000000000001;"/><path d="M196.6983,353.75 Q196.7608,353.6625 196.8358,353.6188 Q196.9108,353.575 196.9983,353.575 Q197.1483,353.575 197.2421,353.6813 Q197.3358,353.7813 197.3358,354.025 L197.3358,354.6063 Q197.3358,354.85 197.2421,354.9563 Q197.1483,355.0625 196.9983,355.0625 Q196.8608,355.0625 196.7796,354.9813 Q196.6983,354.9063 196.6546,354.7 Q196.6358,354.5563 196.5608,354.4813 Q196.4296,354.3313 196.1858,354.2438 Q195.9421,354.1563 195.6921,354.1563 Q195.3858,354.1563 195.1296,354.2875 Q194.8796,354.4188 194.6796,354.7188 Q194.4858,355.0188 194.4858,355.4313 L194.4858,355.8688 Q194.4858,356.3625 194.8421,356.6938 Q195.1983,357.0188 195.8358,357.0188 Q196.2108,357.0188 196.4733,356.9188 Q196.6296,356.8563 196.7983,356.6813 Q196.9046,356.575 196.9608,356.5438 Q197.0233,356.5125 197.1046,356.5125 Q197.2358,356.5125 197.3358,356.6188 Q197.4421,356.7188 197.4421,356.8563 Q197.4421,356.9938 197.3046,357.1563 Q197.1046,357.3875 196.7858,357.5188 Q196.3546,357.7 195.8358,357.7 Q195.2296,357.7 194.7483,357.45 Q194.3546,357.25 194.0796,356.825 Q193.8046,356.3938 193.8046,355.8813 L193.8046,355.4188 Q193.8046,354.8875 194.0483,354.4313 Q194.2983,353.9688 194.7358,353.725 Q195.1733,353.475 195.6671,353.475 Q195.9608,353.475 196.2171,353.5438 Q196.4796,353.6063 196.6983,353.75 Z " fill="#000000"/><text fill="#000000" font-family="sans-serif" font-size="5.6" lengthAdjust="spacing" textLength="19.9254" x="203.1458" y="357.7188">Building</text><line style="stroke:#181818;stroke-width:0.20000000000000004;" x1="181.2" x2="232.6633" y1="361.8" y2="361.8"/><line style="stroke:#181818;stroke-width:0.20000000000000004;" x1="181.2" x2="232.6633" y1="365" y2="365"/><text fill="#000000" font-family="sans-serif" font-size="5.6" lengthAdjust="spacing" textLength="47.4633" x="183.2" y="372.643">+getName(): String</text><text fill="#000000" font-family="sans-serif" font-size="5.6" lengthAdjust="spacing" textLength="8.3973" x="183.2" y="380.0914">...()</text></g><!--class BuildingType--><g id="elem_BuildingType"><rect codeLine="70" fill="#F1F1F1" height="93.6844" id="BuildingType" rx="1" ry="1" style="stroke:#181818;stroke-width:0.20000000000000004;" width="50.8523" x="273.6" y="319.2"/><ellipse cx="282.1548" cy="325.6" fill="#EB937F" rx="4.4" ry="4.4" style="stroke:#181818;stroke-width:0.4000000000000001;"/><path d="M281.6986,325.9188 L281.6986,326.9188 L283.4298,326.9188 L283.4298,326.55 Q283.4298,326.3063 283.5236,326.2 Q283.6236,326.0938 283.7736,326.0938 Q283.9236,326.0938 284.0173,326.2 Q284.1111,326.3063 284.1111,326.55 L284.1111,327.6 L280.9111,327.6 Q280.6611,327.6 280.5548,327.5063 Q280.4548,327.4125 280.4548,327.2563 Q280.4548,327.1063 280.5611,327.0125 Q280.6673,326.9188 280.9111,326.9188 L281.0173,326.9188 L281.0173,324.2563 L280.9111,324.2563 Q280.6611,324.2563 280.5548,324.1625 Q280.4548,324.0688 280.4548,323.9125 Q280.4548,323.7625 280.5548,323.6688 Q280.6611,323.575 280.9111,323.575 L283.9611,323.575 L283.9611,324.6125 Q283.9611,324.8563 283.8673,324.9625 Q283.7798,325.0625 283.6236,325.0625 Q283.4736,325.0625 283.3798,324.9625 Q283.2861,324.8563 283.2861,324.6125 L283.2861,324.2563 L281.6986,324.2563 L281.6986,325.2375 L282.2923,325.2375 Q282.2923,324.975 282.3423,324.9 Q282.4486,324.7375 282.6361,324.7375 Q282.7861,324.7375 282.8798,324.8438 Q282.9736,324.9438 282.9736,325.1875 L282.9736,325.975 Q282.9736,326.1938 282.9236,326.2688 Q282.8173,326.425 282.6361,326.425 Q282.4486,326.425 282.3423,326.2625 Q282.2923,326.1875 282.2923,325.9188 L281.6986,325.9188 Z " fill="#000000"/><text fill="#000000" font-family="sans-serif" font-size="5.6" lengthAdjust="spacing" textLength="32.375" x="288.3225" y="327.9188">BuildingType</text><line style="stroke:#181818;stroke-width:0.20000000000000004;" x1="274" x2="324.0523" y1="332" y2="332"/><text fill="#000000" font-family="sans-serif" font-size="5.6" lengthAdjust="spacing" textLength="33.9199" x="276" y="339.643">TELEGRAPH</text><text fill="#000000" font-family="sans-serif" font-size="5.6" lengthAdjust="spacing" textLength="33.9199" x="276" y="347.0914">TELEPHONE</text><text fill="#000000" font-family="sans-serif" font-size="5.6" lengthAdjust="spacing" textLength="44.1902" x="276" y="354.5398">SMALL_COFFEE</text><text fill="#000000" font-family="sans-serif" font-size="5.6" lengthAdjust="spacing" textLength="44.8109" x="276" y="361.9883">LARGE_COFFEE</text><text fill="#000000" font-family="sans-serif" font-size="5.6" lengthAdjust="spacing" textLength="28" x="276" y="369.4367">CUSTOMS</text><text fill="#000000" font-family="sans-serif" font-size="5.6" lengthAdjust="spacing" textLength="35.7793" x="276" y="376.8852">POSTOFFICE</text><text fill="#000000" font-family="sans-serif" font-size="5.6" lengthAdjust="spacing" textLength="40.1488" x="276" y="384.3336">SMALL_HOTEL</text><text fill="#000000" font-family="sans-serif" font-size="5.6" lengthAdjust="spacing" textLength="40.7695" x="276" y="391.782">LARGE_HOTEL</text><text fill="#000000" font-family="sans-serif" font-size="5.6" lengthAdjust="spacing" textLength="12.7613" x="276" y="399.2305">SILO</text><text fill="#000000" font-family="sans-serif" font-size="5.6" lengthAdjust="spacing" textLength="46.0523" x="276" y="406.6789">LIQUIDSTORAGE</text><line style="stroke:#181818;stroke-width:0.20000000000000004;" x1="274" x2="324.0523" y1="409.6844" y2="409.6844"/></g><!--class StationDTO--><g id="elem_StationDTO"><rect codeLine="83" fill="#F1F1F1" height="116.0297" id="StationDTO" rx="1" ry="1" style="stroke:#181818;stroke-width:0.20000000000000004;" width="163.7027" x="504.8" y="171.6"/><ellipse cx="570.3238" cy="178" fill="#ADD1B2" rx="4.4" ry="4.4" style="stroke:#181818;stroke-width:0.4000000000000001;"/><path d="M571.4301,176.35 Q571.4926,176.2625 571.5676,176.2188 Q571.6426,176.175 571.7301,176.175 Q571.8801,176.175 571.9738,176.2813 Q572.0676,176.3813 572.0676,176.625 L572.0676,177.2063 Q572.0676,177.45 571.9738,177.5563 Q571.8801,177.6625 571.7301,177.6625 Q571.5926,177.6625 571.5113,177.5813 Q571.4301,177.5063 571.3863,177.3 Q571.3676,177.1563 571.2926,177.0813 Q571.1613,176.9313 570.9176,176.8438 Q570.6738,176.7563 570.4238,176.7563 Q570.1176,176.7563 569.8613,176.8875 Q569.6113,177.0188 569.4113,177.3188 Q569.2176,177.6188 569.2176,178.0313 L569.2176,178.4688 Q569.2176,178.9625 569.5738,179.2938 Q569.9301,179.6188 570.5676,179.6188 Q570.9426,179.6188 571.2051,179.5188 Q571.3613,179.4563 571.5301,179.2813 Q571.6363,179.175 571.6926,179.1438 Q571.7551,179.1125 571.8363,179.1125 Q571.9676,179.1125 572.0676,179.2188 Q572.1738,179.3188 572.1738,179.4563 Q572.1738,179.5938 572.0363,179.7563 Q571.8363,179.9875 571.5176,180.1188 Q571.0863,180.3 570.5676,180.3 Q569.9613,180.3 569.4801,180.05 Q569.0863,179.85 568.8113,179.425 Q568.5363,178.9938 568.5363,178.4813 L568.5363,178.0188 Q568.5363,177.4875 568.7801,177.0313 Q569.0301,176.5688 569.4676,176.325 Q569.9051,176.075 570.3988,176.075 Q570.6926,176.075 570.9488,176.1438 Q571.2113,176.2063 571.4301,176.35 Z " fill="#000000"/><text fill="#000000" font-family="sans-serif" font-size="5.6" lengthAdjust="spacing" textLength="29.2551" x="578.5238" y="180.3188">StationDTO</text><line style="stroke:#181818;stroke-width:0.20000000000000004;" x1="505.2" x2="668.1027" y1="184.4" y2="184.4"/><text fill="#000000" font-family="sans-serif" font-size="5.6" lengthAdjust="spacing" textLength="33.6137" x="507.2" y="192.043">-name: String</text><text fill="#000000" font-family="sans-serif" font-size="5.6" lengthAdjust="spacing" textLength="30.1902" x="507.2" y="199.4914">-type: String</text><text fill="#000000" font-family="sans-serif" font-size="5.6" lengthAdjust="spacing" textLength="38.9074" x="507.2" y="206.9398">-position: String</text><text fill="#000000" font-family="sans-serif" font-size="5.6" lengthAdjust="spacing" textLength="40.7723" x="507.2" y="214.3883">-direction: String</text><text fill="#000000" font-family="sans-serif" font-size="5.6" lengthAdjust="spacing" textLength="56.9652" x="507.2" y="221.8367">-buildings: List&lt;String&gt;</text><text fill="#000000" font-family="sans-serif" font-size="5.6" lengthAdjust="spacing" textLength="54.7832" x="507.2" y="229.2852">-cargoes: List&lt;String&gt;</text><line style="stroke:#181818;stroke-width:0.20000000000000004;" x1="505.2" x2="668.1027" y1="232.2906" y2="232.2906"/><text fill="#000000" font-family="sans-serif" font-size="5.6" lengthAdjust="spacing" textLength="158.9027" x="507.2" y="239.9336">+StationDTO(name, type, position, direction, buildings, cargoes)</text><text fill="#000000" font-family="sans-serif" font-size="5.6" lengthAdjust="spacing" textLength="47.4633" x="507.2" y="247.382">+getName(): String</text><text fill="#000000" font-family="sans-serif" font-size="5.6" lengthAdjust="spacing" textLength="44.975" x="507.2" y="254.8305">+getType(): String</text><text fill="#000000" font-family="sans-serif" font-size="5.6" lengthAdjust="spacing" textLength="52.448" x="507.2" y="262.2789">+getPosition(): String</text><text fill="#000000" font-family="sans-serif" font-size="5.6" lengthAdjust="spacing" textLength="54.6219" x="507.2" y="269.7273">+getDirection(): String</text><text fill="#000000" font-family="sans-serif" font-size="5.6" lengthAdjust="spacing" textLength="70.5059" x="507.2" y="277.1758">+getBuildings(): List&lt;String&gt;</text><text fill="#000000" font-family="sans-serif" font-size="5.6" lengthAdjust="spacing" textLength="68.9473" x="507.2" y="284.6242">+getCargoes(): List&lt;String&gt;</text></g><!--class StationMapper--><g id="elem_StationMapper"><rect codeLine="99" fill="#F1F1F1" height="34.0969" id="StationMapper" rx="1" ry="1" style="stroke:#181818;stroke-width:0.20000000000000004;" width="97.7031" x="349.8" y="98.6"/><ellipse cx="378.7406" cy="105" fill="#ADD1B2" rx="4.4" ry="4.4" style="stroke:#181818;stroke-width:0.4000000000000001;"/><path d="M379.8469,103.35 Q379.9094,103.2625 379.9844,103.2188 Q380.0594,103.175 380.1469,103.175 Q380.2969,103.175 380.3906,103.2813 Q380.4844,103.3813 380.4844,103.625 L380.4844,104.2063 Q380.4844,104.45 380.3906,104.5563 Q380.2969,104.6625 380.1469,104.6625 Q380.0094,104.6625 379.9281,104.5813 Q379.8469,104.5063 379.8031,104.3 Q379.7844,104.1563 379.7094,104.0813 Q379.5781,103.9313 379.3344,103.8438 Q379.0906,103.7563 378.8406,103.7563 Q378.5344,103.7563 378.2781,103.8875 Q378.0281,104.0188 377.8281,104.3188 Q377.6344,104.6188 377.6344,105.0313 L377.6344,105.4688 Q377.6344,105.9625 377.9906,106.2938 Q378.3469,106.6188 378.9844,106.6188 Q379.3594,106.6188 379.6219,106.5188 Q379.7781,106.4563 379.9469,106.2813 Q380.0531,106.175 380.1094,106.1438 Q380.1719,106.1125 380.2531,106.1125 Q380.3844,106.1125 380.4844,106.2188 Q380.5906,106.3188 380.5906,106.4563 Q380.5906,106.5938 380.4531,106.7563 Q380.2531,106.9875 379.9344,107.1188 Q379.5031,107.3 378.9844,107.3 Q378.3781,107.3 377.8969,107.05 Q377.5031,106.85 377.2281,106.425 Q376.9531,105.9938 376.9531,105.4813 L376.9531,105.0188 Q376.9531,104.4875 377.1969,104.0313 Q377.4469,103.5688 377.8844,103.325 Q378.3219,103.075 378.8156,103.075 Q379.1094,103.075 379.3656,103.1438 Q379.6281,103.2063 379.8469,103.35 Z " fill="#000000"/><text fill="#000000" font-family="sans-serif" font-size="5.6" lengthAdjust="spacing" textLength="36.4219" x="386.9406" y="107.3188">StationMapper</text><line style="stroke:#181818;stroke-width:0.20000000000000004;" x1="350.2" x2="447.1031" y1="111.4" y2="111.4"/><line style="stroke:#181818;stroke-width:0.20000000000000004;" x1="350.2" x2="447.1031" y1="114.6" y2="114.6"/><text fill="#000000" font-family="sans-serif" font-size="5.6" lengthAdjust="spacing" textLength="92.9031" x="352.2" y="122.243">+toDTO(station: Station): StationDTO</text><text fill="#000000" font-family="sans-serif" font-size="5.6" lengthAdjust="spacing" textLength="42.0164" x="352.2" y="129.6914">-StationMapper()</text></g><!--link ShowStationsController to StationMapper--><g id="link_ShowStationsController_StationMapper"><path codeLine="104" d="M258.22,55.336 C289.532,68.688 327.9204,85.0584 357.3964,97.6304 " fill="none" id="ShowStationsController-to-StationMapper" style="stroke:#181818;stroke-width:0.4000000000000001;stroke-dasharray:7.0,7.0;"/><polygon fill="#181818" points="359.604,98.572,356.9203,95.6879,357.7643,97.7874,355.6649,98.6314,359.604,98.572" style="stroke:#181818;stroke-width:0.4000000000000001;"/></g><!--link ShowStationsController to StationDTO--><g id="link_ShowStationsController_StationDTO"><path codeLine="105" d="M258.256,46.064 C329.096,62.348 454.6,91.2 454.6,91.2 C454.6,91.2 493.5531,131.9257 529.7251,169.7417 " fill="none" id="ShowStationsController-to-StationDTO" style="stroke:#181818;stroke-width:0.4000000000000001;stroke-dasharray:7.0,7.0;"/><polygon fill="#181818" points="531.384,171.476,530.0518,167.7685,530.0016,170.0307,527.7394,169.9805,531.384,171.476" style="stroke:#181818;stroke-width:0.4000000000000001;"/></g><!--link StationMapper to StationDTO--><g id="link_StationMapper_StationDTO"><path codeLine="106" d="M428.228,132.608 C457.46,148.988 497.8,171.6 497.8,171.6 C497.8,171.6 498.411,171.9932 502.755,174.8132 " fill="none" id="StationMapper-to-StationDTO" style="stroke:#181818;stroke-width:0.4000000000000001;stroke-dasharray:7.0,7.0;"/><polygon fill="#181818" points="504.768,176.12,502.6197,172.8178,503.0905,175.031,500.8773,175.5018,504.768,176.12" style="stroke:#181818;stroke-width:0.4000000000000001;"/></g><!--link ShowStationUI to ShowStationsController--><g id="link_ShowStationUI_ShowStationsController"><path codeLine="108" d="M149.908,34.8 C154.224,34.8 156.888,34.8 161.36,34.8 " fill="none" id="ShowStationUI-to-ShowStationsController" style="stroke:#181818;stroke-width:0.4000000000000001;stroke-dasharray:7.0,7.0;"/><polygon fill="#181818" points="163.76,34.8,160.16,33.2,161.76,34.8,160.16,36.4,163.76,34.8" style="stroke:#181818;stroke-width:0.4000000000000001;"/></g><!--link ShowStationsController to Map--><g id="link_ShowStationsController_Map"><path codeLine="110" d="M206.64,66.928 C202.404,97.772 196.6,140 196.6,140 C196.6,140 170.889,180.3755 154.121,206.7115 " fill="none" id="ShowStationsController-to-Map" style="stroke:#181818;stroke-width:0.4000000000000001;stroke-dasharray:7.0,7.0;"/><polygon fill="#181818" points="152.832,208.736,156.1151,206.5586,153.9061,207.0489,153.4158,204.84,152.832,208.736" style="stroke:#181818;stroke-width:0.4000000000000001;"/></g><!--link ShowStationsController to MapRepository--><g id="link_ShowStationsController_MapRepository"><path codeLine="111" d="M163.712,62.668 C159.392,65.176 156.6,66.8 156.6,66.8 C156.6,66.8 51.8,91.2 51.8,91.2 C51.8,91.2 43.2172,173.465 39.3852,210.165 " fill="none" id="ShowStationsController-to-MapRepository" style="stroke:#181818;stroke-width:0.4000000000000001;stroke-dasharray:7.0,7.0;"/><polygon fill="#181818" points="39.136,212.552,41.1012,209.1376,39.3437,210.5628,37.9185,208.8053,39.136,212.552" style="stroke:#181818;stroke-width:0.4000000000000001;"/></g><!--link ShowStationsController to Repositories--><g id="link_ShowStationsController_Repositories"><path codeLine="112" d="M170.528,66.82 C160.188,74.896 151.1231,81.9783 141.3511,89.6143 " fill="none" id="ShowStationsController-to-Repositories" style="stroke:#181818;stroke-width:0.4000000000000001;stroke-dasharray:7.0,7.0;"/><polygon fill="#181818" points="139.46,91.092,143.2818,90.1361,141.0359,89.8605,141.3115,87.6147,139.46,91.092" style="stroke:#181818;stroke-width:0.4000000000000001;"/></g><!--link Repositories to Repositories--><g id="link_Repositories_Repositories"><path codeLine="114" d="M158.488,109.34 C166.728,110.228 172.4,112.312 172.4,115.6 C172.4,118.888 169.1142,120.7148 160.8742,121.6028 " fill="none" id="Repositories-to-Repositories" style="stroke:#181818;stroke-width:0.4000000000000001;"/><polygon fill="#181818" points="158.488,121.86,162.2387,123.0651,160.4765,121.6457,161.8958,119.8835,158.488,121.86" style="stroke:#181818;stroke-width:0.4000000000000001;"/><text fill="#000000" font-family="sans-serif" font-size="5.2" lengthAdjust="spacing" textLength="19.368" x="174.8" y="117.8113">instance</text><text fill="#000000" font-family="sans-serif" font-size="5.2" lengthAdjust="spacing" textLength="2.892" x="161.617" y="120.8433">1</text></g><!--link Repositories to MapRepository--><g id="link_Repositories_MapRepository"><path codeLine="115" d="M93.5,140.008 C79.784,161.812 61.19,191.3806 49.146,210.5246 " fill="none" id="Repositories-to-MapRepository" style="stroke:#181818;stroke-width:0.4000000000000001;"/><polygon fill="#181818" points="47.868,212.556,51.1393,210.3609,48.933,210.8632,48.4308,208.6569,47.868,212.556" style="stroke:#181818;stroke-width:0.4000000000000001;"/><text fill="#000000" font-family="sans-serif" font-size="5.2" lengthAdjust="spacing" textLength="34.9705" x="86.2" y="158.0113">mapRepository</text><text fill="#000000" font-family="sans-serif" font-size="5.2" lengthAdjust="spacing" textLength="2.892" x="46.5306" y="208.1106">1</text></g><!--reverse link Map to StationRepository--><g id="link_Map_StationRepository"><path codeLine="117" d="M185.492,229.6 C190.084,229.6 190.62,229.6 194.76,229.6 " fill="none" id="Map-backto-StationRepository" style="stroke:#181818;stroke-width:0.4000000000000001;"/><polygon fill="#181818" points="180.692,229.6,183.092,231.2,185.492,229.6,183.092,228,180.692,229.6" style="stroke:#181818;stroke-width:0.4000000000000001;"/></g><!--link MapRepository to Map--><g id="link_MapRepository_Map"><path codeLine="119" d="M72.068,229.6 C80.712,229.6 87.664,229.6 96.576,229.6 " fill="none" id="MapRepository-to-Map" style="stroke:#181818;stroke-width:0.4000000000000001;"/><polygon fill="#181818" points="98.976,229.6,95.376,228,96.976,229.6,95.376,231.2,98.976,229.6" style="stroke:#181818;stroke-width:0.4000000000000001;"/><text fill="#000000" font-family="sans-serif" font-size="5.2" lengthAdjust="spacing" textLength="12.7156" x="79.3" y="226.8113">maps</text><text fill="#000000" font-family="sans-serif" font-size="5.2" lengthAdjust="spacing" textLength="2.0236" x="93.7773" y="228.1576">*</text></g><!--reverse link StationRepository to Station--><g id="link_StationRepository_Station"><path codeLine="121" d="M275.24,229.6 C286.404,229.6 293.684,229.6 304.34,229.6 " fill="none" id="StationRepository-backto-Station" style="stroke:#181818;stroke-width:0.4000000000000001;"/><polygon fill="none" points="270.44,229.6,272.84,231.2,275.24,229.6,272.84,228,270.44,229.6" style="stroke:#181818;stroke-width:0.4000000000000001;"/><text fill="#000000" font-family="sans-serif" font-size="5.2" lengthAdjust="spacing" textLength="19.368" x="277.8" y="226.8113">contains</text></g><!--link Station to Inventory--><g id="link_Station_Inventory"><path codeLine="123" d="M341.228,246.628 C350.54,271.484 367.2341,316.0365 377.3101,342.9365 " fill="none" id="Station-to-Inventory" style="stroke:#181818;stroke-width:0.4000000000000001;"/><polygon fill="#181818" points="378.152,345.184,378.3876,341.2515,377.4505,343.3111,375.3909,342.374,378.152,345.184" style="stroke:#181818;stroke-width:0.4000000000000001;"/><text fill="#000000" font-family="sans-serif" font-size="5.2" lengthAdjust="spacing" textLength="19.368" x="364.2" y="305.6113">contains</text><text fill="#000000" font-family="sans-serif" font-size="5.2" lengthAdjust="spacing" textLength="2.892" x="339.197" y="255.4966">1</text><text fill="#000000" font-family="sans-serif" font-size="5.2" lengthAdjust="spacing" textLength="2.892" x="374.1351" y="340.7528">1</text></g><!--link Station to Resource--><g id="link_Station_Resource"><path codeLine="124" d="M365.632,229.6 C373.92,229.6 380.704,229.6 389.74,229.6 " fill="none" id="Station-to-Resource" style="stroke:#181818;stroke-width:0.4000000000000001;"/><polygon fill="#181818" points="392.14,229.6,388.54,228,390.14,229.6,388.54,231.2,392.14,229.6" style="stroke:#181818;stroke-width:0.4000000000000001;"/><text fill="#000000" font-family="sans-serif" font-size="5.2" lengthAdjust="spacing" textLength="12.1393" x="372.9" y="226.8113">owns</text><text fill="#000000" font-family="sans-serif" font-size="5.2" lengthAdjust="spacing" textLength="2.892" x="368.935" y="228.0617">1</text><text fill="#000000" font-family="sans-serif" font-size="5.2" lengthAdjust="spacing" textLength="2.0236" x="386.9232" y="228.199">*</text></g><!--link Station to Building--><g id="link_Station_Building"><path codeLine="125" d="M319.304,246.628 C294.704,272.688 248.9874,321.1187 224.3714,347.1987 " fill="none" id="Station-to-Building" style="stroke:#181818;stroke-width:0.4000000000000001;"/><polygon fill="#181818" points="222.724,348.944,226.3586,347.4242,224.0968,347.4896,224.0315,345.2278,222.724,348.944" style="stroke:#181818;stroke-width:0.4000000000000001;"/><text fill="#000000" font-family="sans-serif" font-size="5.2" lengthAdjust="spacing" textLength="8.384" x="267.8" y="305.6113">has</text><text fill="#000000" font-family="sans-serif" font-size="5.2" lengthAdjust="spacing" textLength="2.892" x="313.7789" y="255.4966">1</text><text fill="#000000" font-family="sans-serif" font-size="5.2" lengthAdjust="spacing" textLength="2.892" x="222.2251" y="344.4967">1</text></g><!--link Building to BuildingType--><g id="link_Building_BuildingType"><path codeLine="127" d="M233.24,366 C245.88,366 258.58,366 271.12,366 " fill="none" id="Building-to-BuildingType" style="stroke:#181818;stroke-width:0.4000000000000001;"/><polygon fill="#181818" points="273.52,366,269.92,364.4,271.52,366,269.92,367.6,273.52,366" style="stroke:#181818;stroke-width:0.4000000000000001;"/><text fill="#000000" font-family="sans-serif" font-size="5.2" lengthAdjust="spacing" textLength="25.7232" x="240.6" y="363.2113">classied as</text><text fill="#000000" font-family="sans-serif" font-size="5.2" lengthAdjust="spacing" textLength="2.892" x="236.2756" y="364.4405">1</text><text fill="#000000" font-family="sans-serif" font-size="5.2" lengthAdjust="spacing" textLength="2.892" x="267.4464" y="364.3989">1</text></g><!--SRC=[ZLPDRwCm4BtpAwmz9Ss7Tgze5OccIOj4IZQavvKBNchLiH4uhR9L__lQnZOsa6fpmlFUl3SUy3ZDAwOLhE49L31_XINA-8KWKAESGreI53IMqBp0WhrZMe8_a3GkGZ15_58XK35oaOl00NC2coRYlCRFPuxYdD4C_qNWUn0e16Glx3tZa6D6dsBm4G3nMm11upKZ1DMXosZMDgw8CpzzSe9LN8G0KpxLU7scasa8tXWkj7JJPLZaSwGQnykM9VGFg68Dvgo-X63dBZK5vlmCYK0KFApIaPtWGl5ikGlnY3c6H7J82cFKU3kOWHBnoBX8gFCXkE76HoA9MF_KWLMtIv7GRcasKgxIrpaoVwWZIClbSZ9rsjP2NJC-kbAlrwFVXyR7q9wDrs_WU0ZWzX8Neg5jDxkUz1JShbg1q-0rpi27AYl_bEen5GkQ8xa3Ly3pxnGcKp3sQOotp1R1MS9ecObpGajfr3wDPSRq3T5-1o923gXXvpf7NQTDP6KEWs6CueDMjQ3hOc97SThRRcX16UYPoD0OesTpUyQaa5F5iNc49tIj1uYUJpP9Ykh4uoRPt1-Y_ODTxH_InurQPRieINwlq-rsqmQIw72_SGFhf-oOxZBrl4_5ytORhztaXrH8EhdTEekJj0NYNq_ndSWzHFURmOk-EwPsZ52nFszt2y1LjxoG-df4PYzSO3cTX_5dtPFk84dGdB8SrYL3OzZCgN0YAvkhOkRMVzvPpZkNkP6SVldULDnyBltuNZkCONV6SmmqxzyTAkwE16NTLZSWzD-BEAYLdV3o6Cesw9aK6j8qT9gaE-hbjz_cbTjZkLpvxFyWIX-_mXuO-1Ud1CVloQjcApKalqIT4NQ5jn14RoO6teXThC2t7zyyXfpGxJpjKJLtvz-n_d0EvDLrinXUE0fnBWSfTgF4b8IeQv02cDK9rHyEA0gpF5MBgScEN8VeyLetC-n2mDxx3AraljmGl41Xreq_8-DmsWcglbQC2Y3u_m00]--></g></svg>