<svg xmlns="http://www.w3.org/2000/svg" xmlns:xlink="http://www.w3.org/1999/xlink" contentStyleType="text/css" height="1406px" preserveAspectRatio="none" style="width:772px;height:1406px;background:#FFFFFF;" version="1.1" viewBox="0 0 772 1406" width="772px" zoomAndPan="magnify"><title>System Sequence Diagram (SSD) - US02</title><defs/><g><text fill="#000000" font-family="sans-serif" font-size="14" font-weight="bold" lengthAdjust="spacing" textLength="286.8086" x="241.3167" y="28.5352">System Sequence Diagram (SSD) - US02</text><rect fill="#FFFFFF" height="1186.5137" style="stroke:#181818;stroke-width:1.0;" width="10" x="58.0054" y="128.9766"/><rect fill="#FFFFFF" height="95.9316" style="stroke:#181818;stroke-width:1.0;" width="10" x="316.0903" y="150.2871"/><rect fill="#FFFFFF" height="113.9316" style="stroke:#181818;stroke-width:1.0;" width="10" x="316.0903" y="275.5293"/><rect fill="#FFFFFF" height="896.7188" style="stroke:#181818;stroke-width:1.0;" width="10" x="316.0903" y="418.7715"/><rect fill="none" height="75.9316" style="stroke:#000000;stroke-width:1.5;" width="334.354" x="30" y="207.5977"/><rect fill="none" height="223.1738" style="stroke:#000000;stroke-width:1.5;" width="516.0112" x="20" y="433.7715"/><rect fill="none" height="90.9316" style="stroke:#000000;stroke-width:1.5;" width="438.7261" x="30" y="559.0137"/><rect fill="none" height="363.416" style="stroke:#000000;stroke-width:1.5;" width="662.1362" x="10" y="670.9453"/><rect fill="none" height="231.1738" style="stroke:#000000;stroke-width:1.5;" width="642.1362" x="20" y="796.1875"/><rect fill="none" height="90.9316" style="stroke:#000000;stroke-width:1.5;" width="399.5356" x="30" y="929.4297"/><rect fill="none" height="175.5078" style="stroke:#000000;stroke-width:1.5;" width="494.1792" x="30" y="1132.9824"/><line style="stroke:#181818;stroke-width:0.5;stroke-dasharray:5.0,5.0;" x1="63" x2="63" y1="118.9766" y2="1325.4902"/><line style="stroke:#181818;stroke-width:0.5;stroke-dasharray:5.0,5.0;" x1="320.8267" x2="320.8267" y1="118.9766" y2="1325.4902"/><text fill="#000000" font-family="sans-serif" font-size="14" lengthAdjust="spacing" textLength="40.0107" x="40" y="116.0234">Editor</text><ellipse cx="63.0054" cy="50.9883" fill="#E2E2F0" rx="8" ry="8" style="stroke:#181818;stroke-width:0.5;"/><path d="M63.0054,58.9883 L63.0054,85.9883 M50.0054,66.9883 L76.0054,66.9883 M63.0054,85.9883 L50.0054,100.9883 M63.0054,85.9883 L76.0054,100.9883 " fill="none" style="stroke:#181818;stroke-width:0.5;"/><text fill="#000000" font-family="sans-serif" font-size="14" lengthAdjust="spacing" textLength="40.0107" x="40" y="1338.0254">Editor</text><ellipse cx="63.0054" cy="1349.4785" fill="#E2E2F0" rx="8" ry="8" style="stroke:#181818;stroke-width:0.5;"/><path d="M63.0054,1357.4785 L63.0054,1384.4785 M50.0054,1365.4785 L76.0054,1365.4785 M63.0054,1384.4785 L50.0054,1399.4785 M63.0054,1384.4785 L76.0054,1399.4785 " fill="none" style="stroke:#181818;stroke-width:0.5;"/><rect fill="#E2E2F0" height="30.4883" rx="2.5" ry="2.5" style="stroke:#181818;stroke-width:0.5;" width="66.5273" x="287.8267" y="87.4883"/><text fill="#000000" font-family="sans-serif" font-size="14" lengthAdjust="spacing" textLength="52.5273" x="294.8267" y="108.0234">:System</text><rect fill="#E2E2F0" height="30.4883" rx="2.5" ry="2.5" style="stroke:#181818;stroke-width:0.5;" width="66.5273" x="287.8267" y="1324.4902"/><text fill="#000000" font-family="sans-serif" font-size="14" lengthAdjust="spacing" textLength="52.5273" x="294.8267" y="1345.0254">:System</text><rect fill="#FFFFFF" height="1186.5137" style="stroke:#181818;stroke-width:1.0;" width="10" x="58.0054" y="128.9766"/><rect fill="#FFFFFF" height="95.9316" style="stroke:#181818;stroke-width:1.0;" width="10" x="316.0903" y="150.2871"/><rect fill="#FFFFFF" height="113.9316" style="stroke:#181818;stroke-width:1.0;" width="10" x="316.0903" y="275.5293"/><rect fill="#FFFFFF" height="896.7188" style="stroke:#181818;stroke-width:1.0;" width="10" x="316.0903" y="418.7715"/><polygon fill="#181818" points="304.0903,146.2871,314.0903,150.2871,304.0903,154.2871,308.0903,150.2871" style="stroke:#181818;stroke-width:1.0;"/><line style="stroke:#181818;stroke-width:1.0;" x1="68.0054" x2="310.0903" y1="150.2871" y2="150.2871"/><text fill="#000000" font-family="sans-serif" font-size="13" lengthAdjust="spacing" textLength="189.7886" x="75.0054" y="145.5449">1. Add an industry to the map</text><line style="stroke:#181818;stroke-width:1.0;" x1="326.0903" x2="368.0903" y1="179.5977" y2="179.5977"/><line style="stroke:#181818;stroke-width:1.0;" x1="368.0903" x2="368.0903" y1="179.5977" y2="192.5977"/><line style="stroke:#181818;stroke-width:1.0;" x1="327.0903" x2="368.0903" y1="192.5977" y2="192.5977"/><polygon fill="#181818" points="337.0903,188.5977,327.0903,192.5977,337.0903,196.5977,333.0903,192.5977" style="stroke:#181818;stroke-width:1.0;"/><text fill="#000000" font-family="sans-serif" font-size="13" lengthAdjust="spacing" textLength="249.4121" x="333.0903" y="174.8555">2.1 Check if a map is currently selected</text><path d="M30,207.5977 L92.1387,207.5977 L92.1387,214.9082 L82.1387,224.9082 L30,224.9082 L30,207.5977 " fill="#EEEEEE" style="stroke:#000000;stroke-width:1.5;"/><rect fill="none" height="75.9316" style="stroke:#000000;stroke-width:1.5;" width="334.354" x="30" y="207.5977"/><text fill="#000000" font-family="sans-serif" font-size="13" font-weight="bold" lengthAdjust="spacing" textLength="17.1387" x="45" y="221.166">alt</text><text fill="#000000" font-family="sans-serif" font-size="11" font-weight="bold" lengthAdjust="spacing" textLength="102.04" x="107.1387" y="220.2324">[No map selected]</text><polygon fill="#181818" points="79.0054,242.2188,69.0054,246.2188,79.0054,250.2188,75.0054,246.2188" style="stroke:#181818;stroke-width:1.0;"/><line style="stroke:#181818;stroke-width:1.0;stroke-dasharray:2.0,2.0;" x1="73.0054" x2="320.0903" y1="246.2188" y2="246.2188"/><text fill="#000000" font-family="sans-serif" font-size="13" lengthAdjust="spacing" textLength="152.312" x="85.0054" y="241.4766">2.2 Show error message</text><polygon fill="#181818" points="304.0903,271.5293,314.0903,275.5293,304.0903,279.5293,308.0903,275.5293" style="stroke:#181818;stroke-width:1.0;"/><line style="stroke:#181818;stroke-width:1.0;" x1="68.0054" x2="310.0903" y1="275.5293" y2="275.5293"/><text fill="#000000" font-family="sans-serif" font-size="13" lengthAdjust="spacing" textLength="104.3364" x="75.0054" y="270.7871">2.3 Select a map</text><line style="stroke:#181818;stroke-width:1.0;" x1="326.0903" x2="368.0903" y1="311.8398" y2="311.8398"/><line style="stroke:#181818;stroke-width:1.0;" x1="368.0903" x2="368.0903" y1="311.8398" y2="324.8398"/><line style="stroke:#181818;stroke-width:1.0;" x1="327.0903" x2="368.0903" y1="324.8398" y2="324.8398"/><polygon fill="#181818" points="337.0903,320.8398,327.0903,324.8398,337.0903,328.8398,333.0903,324.8398" style="stroke:#181818;stroke-width:1.0;"/><text fill="#000000" font-family="sans-serif" font-size="13" lengthAdjust="spacing" textLength="238.8496" x="333.0903" y="307.0977">3.1 Get list of available industry types</text><path d="M331,337.8398 L331,362.8398 L765,362.8398 L765,347.8398 L755,337.8398 L331,337.8398 " fill="#FEFFDD" style="stroke:#181818;stroke-width:0.5;"/><path d="M755,337.8398 L755,347.8398 L765,347.8398 L755,337.8398 " fill="#FEFFDD" style="stroke:#181818;stroke-width:0.5;"/><text fill="#000000" font-family="sans-serif" font-size="13" lengthAdjust="spacing" textLength="413.4419" x="337" y="355.4082">AC1: The industry must be selected from the available industries.</text><polygon fill="#181818" points="79.0054,385.4609,69.0054,389.4609,79.0054,393.4609,75.0054,389.4609" style="stroke:#181818;stroke-width:1.0;"/><line style="stroke:#181818;stroke-width:1.0;stroke-dasharray:2.0,2.0;" x1="73.0054" x2="320.0903" y1="389.4609" y2="389.4609"/><text fill="#000000" font-family="sans-serif" font-size="13" lengthAdjust="spacing" textLength="204.3057" x="85.0054" y="384.7188">3.2 Display list of industry types</text><polygon fill="#181818" points="304.0903,414.7715,314.0903,418.7715,304.0903,422.7715,308.0903,418.7715" style="stroke:#181818;stroke-width:1.0;"/><line style="stroke:#181818;stroke-width:1.0;" x1="68.0054" x2="310.0903" y1="418.7715" y2="418.7715"/><text fill="#000000" font-family="sans-serif" font-size="13" lengthAdjust="spacing" textLength="148.4146" x="75.0054" y="414.0293">3.3 Select industry type</text><path d="M20,433.7715 L94.4468,433.7715 L94.4468,441.082 L84.4468,451.082 L20,451.082 L20,433.7715 " fill="#EEEEEE" style="stroke:#000000;stroke-width:1.5;"/><rect fill="none" height="223.1738" style="stroke:#000000;stroke-width:1.5;" width="516.0112" x="20" y="433.7715"/><text fill="#000000" font-family="sans-serif" font-size="13" font-weight="bold" lengthAdjust="spacing" textLength="29.4468" x="35" y="447.3398">loop</text><text fill="#000000" font-family="sans-serif" font-size="11" font-weight="bold" lengthAdjust="spacing" textLength="219.0977" x="109.4468" y="446.4063">[Until valid industry name is provided]</text><polygon fill="#181818" points="79.0054,468.3926,69.0054,472.3926,79.0054,476.3926,75.0054,472.3926" style="stroke:#181818;stroke-width:1.0;"/><line style="stroke:#181818;stroke-width:1.0;stroke-dasharray:2.0,2.0;" x1="73.0054" x2="315.0903" y1="472.3926" y2="472.3926"/><text fill="#000000" font-family="sans-serif" font-size="13" lengthAdjust="spacing" textLength="144.9741" x="85.0054" y="467.6504">Request industry name</text><polygon fill="#181818" points="304.0903,497.7031,314.0903,501.7031,304.0903,505.7031,308.0903,501.7031" style="stroke:#181818;stroke-width:1.0;"/><line style="stroke:#181818;stroke-width:1.0;" x1="68.0054" x2="310.0903" y1="501.7031" y2="501.7031"/><text fill="#000000" font-family="sans-serif" font-size="13" lengthAdjust="spacing" textLength="127.0674" x="75.0054" y="496.9609">Enter industry name</text><line style="stroke:#181818;stroke-width:1.0;" x1="326.0903" x2="368.0903" y1="531.0137" y2="531.0137"/><line style="stroke:#181818;stroke-width:1.0;" x1="368.0903" x2="368.0903" y1="531.0137" y2="544.0137"/><line style="stroke:#181818;stroke-width:1.0;" x1="327.0903" x2="368.0903" y1="544.0137" y2="544.0137"/><polygon fill="#181818" points="337.0903,540.0137,327.0903,544.0137,337.0903,548.0137,333.0903,544.0137" style="stroke:#181818;stroke-width:1.0;"/><text fill="#000000" font-family="sans-serif" font-size="13" lengthAdjust="spacing" textLength="180.9209" x="333.0903" y="526.2715">Check if name already exists</text><path d="M30,559.0137 L92.1387,559.0137 L92.1387,566.3242 L82.1387,576.3242 L30,576.3242 L30,559.0137 " fill="#EEEEEE" style="stroke:#000000;stroke-width:1.5;"/><rect fill="none" height="90.9316" style="stroke:#000000;stroke-width:1.5;" width="438.7261" x="30" y="559.0137"/><text fill="#000000" font-family="sans-serif" font-size="13" font-weight="bold" lengthAdjust="spacing" textLength="17.1387" x="45" y="572.582">alt</text><text fill="#000000" font-family="sans-serif" font-size="11" font-weight="bold" lengthAdjust="spacing" textLength="77.231" x="107.1387" y="571.6484">[Name exists]</text><polygon fill="#181818" points="79.0054,593.6348,69.0054,597.6348,79.0054,601.6348,75.0054,597.6348" style="stroke:#181818;stroke-width:1.0;"/><line style="stroke:#181818;stroke-width:1.0;stroke-dasharray:2.0,2.0;" x1="73.0054" x2="315.0903" y1="597.6348" y2="597.6348"/><text fill="#000000" font-family="sans-serif" font-size="13" lengthAdjust="spacing" textLength="224.085" x="85.0054" y="592.8926">Error message: name already exists</text><line style="stroke:#000000;stroke-width:1.0;stroke-dasharray:2.0,2.0;" x1="30" x2="468.7261" y1="606.6348" y2="606.6348"/><line style="stroke:#181818;stroke-width:1.0;" x1="326.0903" x2="368.0903" y1="628.9453" y2="628.9453"/><line style="stroke:#181818;stroke-width:1.0;" x1="368.0903" x2="368.0903" y1="628.9453" y2="641.9453"/><line style="stroke:#181818;stroke-width:1.0;" x1="327.0903" x2="368.0903" y1="641.9453" y2="641.9453"/><polygon fill="#181818" points="337.0903,637.9453,327.0903,641.9453,337.0903,645.9453,333.0903,641.9453" style="stroke:#181818;stroke-width:1.0;"/><text fill="#000000" font-family="sans-serif" font-size="13" lengthAdjust="spacing" textLength="113.6357" x="333.0903" y="624.2031">Set industry name</text><path d="M10,670.9453 L84.4468,670.9453 L84.4468,678.2559 L74.4468,688.2559 L10,688.2559 L10,670.9453 " fill="#EEEEEE" style="stroke:#000000;stroke-width:1.5;"/><rect fill="none" height="363.416" style="stroke:#000000;stroke-width:1.5;" width="662.1362" x="10" y="670.9453"/><text fill="#000000" font-family="sans-serif" font-size="13" font-weight="bold" lengthAdjust="spacing" textLength="29.4468" x="25" y="684.5137">loop</text><text fill="#000000" font-family="sans-serif" font-size="11" font-weight="bold" lengthAdjust="spacing" textLength="183.6592" x="99.4468" y="683.5801">[Until valid position is provided]</text><polygon fill="#181818" points="79.0054,705.5664,69.0054,709.5664,79.0054,713.5664,75.0054,709.5664" style="stroke:#181818;stroke-width:1.0;"/><line style="stroke:#181818;stroke-width:1.0;stroke-dasharray:2.0,2.0;" x1="73.0054" x2="315.0903" y1="709.5664" y2="709.5664"/><text fill="#000000" font-family="sans-serif" font-size="13" lengthAdjust="spacing" textLength="142.8159" x="85.0054" y="704.8242">Request position (X, Y)</text><polygon fill="#181818" points="304.0903,734.877,314.0903,738.877,304.0903,742.877,308.0903,738.877" style="stroke:#181818;stroke-width:1.0;"/><line style="stroke:#181818;stroke-width:1.0;" x1="68.0054" x2="310.0903" y1="738.877" y2="738.877"/><text fill="#000000" font-family="sans-serif" font-size="13" lengthAdjust="spacing" textLength="124.9092" x="75.0054" y="734.1348">Enter position (X, Y)</text><line style="stroke:#181818;stroke-width:1.0;" x1="326.0903" x2="368.0903" y1="768.1875" y2="768.1875"/><line style="stroke:#181818;stroke-width:1.0;" x1="368.0903" x2="368.0903" y1="768.1875" y2="781.1875"/><line style="stroke:#181818;stroke-width:1.0;" x1="327.0903" x2="368.0903" y1="781.1875" y2="781.1875"/><polygon fill="#181818" points="337.0903,777.1875,327.0903,781.1875,337.0903,785.1875,333.0903,781.1875" style="stroke:#181818;stroke-width:1.0;"/><text fill="#000000" font-family="sans-serif" font-size="13" lengthAdjust="spacing" textLength="133.4976" x="333.0903" y="763.4453">Validate map bounds</text><path d="M20,796.1875 L82.1387,796.1875 L82.1387,803.498 L72.1387,813.498 L20,813.498 L20,796.1875 " fill="#EEEEEE" style="stroke:#000000;stroke-width:1.5;"/><rect fill="none" height="231.1738" style="stroke:#000000;stroke-width:1.5;" width="642.1362" x="20" y="796.1875"/><text fill="#000000" font-family="sans-serif" font-size="13" font-weight="bold" lengthAdjust="spacing" textLength="17.1387" x="35" y="809.7559">alt</text><text fill="#000000" font-family="sans-serif" font-size="11" font-weight="bold" lengthAdjust="spacing" textLength="137.4463" x="97.1387" y="808.8223">[Position out of bounds]</text><polygon fill="#181818" points="79.0054,830.8086,69.0054,834.8086,79.0054,838.8086,75.0054,834.8086" style="stroke:#181818;stroke-width:1.0;"/><line style="stroke:#181818;stroke-width:1.0;stroke-dasharray:2.0,2.0;" x1="73.0054" x2="315.0903" y1="834.8086" y2="834.8086"/><text fill="#000000" font-family="sans-serif" font-size="13" lengthAdjust="spacing" textLength="182.5776" x="85.0054" y="830.0664">Error: Position out of bounds</text><line style="stroke:#000000;stroke-width:1.0;stroke-dasharray:2.0,2.0;" x1="20" x2="662.1362" y1="843.8086" y2="843.8086"/><line style="stroke:#181818;stroke-width:1.0;" x1="326.0903" x2="368.0903" y1="866.1191" y2="866.1191"/><line style="stroke:#181818;stroke-width:1.0;" x1="368.0903" x2="368.0903" y1="866.1191" y2="879.1191"/><line style="stroke:#181818;stroke-width:1.0;" x1="327.0903" x2="368.0903" y1="879.1191" y2="879.1191"/><polygon fill="#181818" points="337.0903,875.1191,327.0903,879.1191,337.0903,883.1191,333.0903,879.1191" style="stroke:#181818;stroke-width:1.0;"/><text fill="#000000" font-family="sans-serif" font-size="13" lengthAdjust="spacing" textLength="181.8984" x="333.0903" y="861.377">Check if position is occupied</text><path d="M331,892.1191 L331,917.1191 L652,917.1191 L652,902.1191 L642,892.1191 L331,892.1191 " fill="#FEFFDD" style="stroke:#181818;stroke-width:0.5;"/><path d="M642,892.1191 L642,902.1191 L652,902.1191 L642,892.1191 " fill="#FEFFDD" style="stroke:#181818;stroke-width:0.5;"/><text fill="#000000" font-family="sans-serif" font-size="13" lengthAdjust="spacing" textLength="300.1362" x="337" y="909.6875">AC2: Industries cannot overlap with each other.</text><path d="M30,929.4297 L92.1387,929.4297 L92.1387,936.7402 L82.1387,946.7402 L30,946.7402 L30,929.4297 " fill="#EEEEEE" style="stroke:#000000;stroke-width:1.5;"/><rect fill="none" height="90.9316" style="stroke:#000000;stroke-width:1.5;" width="399.5356" x="30" y="929.4297"/><text fill="#000000" font-family="sans-serif" font-size="13" font-weight="bold" lengthAdjust="spacing" textLength="17.1387" x="45" y="942.998">alt</text><text fill="#000000" font-family="sans-serif" font-size="11" font-weight="bold" lengthAdjust="spacing" textLength="108.1899" x="107.1387" y="942.0645">[Position occupied]</text><polygon fill="#181818" points="79.0054,964.0508,69.0054,968.0508,79.0054,972.0508,75.0054,968.0508" style="stroke:#181818;stroke-width:1.0;"/><line style="stroke:#181818;stroke-width:1.0;stroke-dasharray:2.0,2.0;" x1="73.0054" x2="315.0903" y1="968.0508" y2="968.0508"/><text fill="#000000" font-family="sans-serif" font-size="13" lengthAdjust="spacing" textLength="200.0591" x="85.0054" y="963.3086">Error: Position already occupied</text><line style="stroke:#000000;stroke-width:1.0;stroke-dasharray:2.0,2.0;" x1="30" x2="429.5356" y1="977.0508" y2="977.0508"/><line style="stroke:#181818;stroke-width:1.0;" x1="326.0903" x2="368.0903" y1="999.3613" y2="999.3613"/><line style="stroke:#181818;stroke-width:1.0;" x1="368.0903" x2="368.0903" y1="999.3613" y2="1012.3613"/><line style="stroke:#181818;stroke-width:1.0;" x1="327.0903" x2="368.0903" y1="1012.3613" y2="1012.3613"/><polygon fill="#181818" points="337.0903,1008.3613,327.0903,1012.3613,337.0903,1016.3613,333.0903,1012.3613" style="stroke:#181818;stroke-width:1.0;"/><text fill="#000000" font-family="sans-serif" font-size="13" lengthAdjust="spacing" textLength="74.4453" x="333.0903" y="994.6191">Set position</text><line style="stroke:#181818;stroke-width:1.0;" x1="326.0903" x2="368.0903" y1="1062.6719" y2="1062.6719"/><line style="stroke:#181818;stroke-width:1.0;" x1="368.0903" x2="368.0903" y1="1062.6719" y2="1075.6719"/><line style="stroke:#181818;stroke-width:1.0;" x1="327.0903" x2="368.0903" y1="1075.6719" y2="1075.6719"/><polygon fill="#181818" points="337.0903,1071.6719,327.0903,1075.6719,337.0903,1079.6719,333.0903,1075.6719" style="stroke:#181818;stroke-width:1.0;"/><text fill="#000000" font-family="sans-serif" font-size="13" lengthAdjust="spacing" textLength="139.6167" x="333.0903" y="1057.9297">Create Industry object</text><line style="stroke:#181818;stroke-width:1.0;" x1="326.0903" x2="368.0903" y1="1104.9824" y2="1104.9824"/><line style="stroke:#181818;stroke-width:1.0;" x1="368.0903" x2="368.0903" y1="1104.9824" y2="1117.9824"/><line style="stroke:#181818;stroke-width:1.0;" x1="327.0903" x2="368.0903" y1="1117.9824" y2="1117.9824"/><polygon fill="#181818" points="337.0903,1113.9824,327.0903,1117.9824,337.0903,1121.9824,333.0903,1117.9824" style="stroke:#181818;stroke-width:1.0;"/><text fill="#000000" font-family="sans-serif" font-size="13" lengthAdjust="spacing" textLength="129.6953" x="333.0903" y="1100.2402">Add industry to map</text><path d="M30,1132.9824 L92.1387,1132.9824 L92.1387,1140.293 L82.1387,1150.293 L30,1150.293 L30,1132.9824 " fill="#EEEEEE" style="stroke:#000000;stroke-width:1.5;"/><rect fill="none" height="175.5078" style="stroke:#000000;stroke-width:1.5;" width="494.1792" x="30" y="1132.9824"/><text fill="#000000" font-family="sans-serif" font-size="13" font-weight="bold" lengthAdjust="spacing" textLength="17.1387" x="45" y="1146.5508">alt</text><text fill="#000000" font-family="sans-serif" font-size="11" font-weight="bold" lengthAdjust="spacing" textLength="52.2554" x="107.1387" y="1145.6172">[Success]</text><line style="stroke:#181818;stroke-width:1.0;" x1="326.0903" x2="368.0903" y1="1171.6035" y2="1171.6035"/><line style="stroke:#181818;stroke-width:1.0;" x1="368.0903" x2="368.0903" y1="1171.6035" y2="1184.6035"/><line style="stroke:#181818;stroke-width:1.0;" x1="327.0903" x2="368.0903" y1="1184.6035" y2="1184.6035"/><polygon fill="#181818" points="337.0903,1180.6035,327.0903,1184.6035,337.0903,1188.6035,333.0903,1184.6035" style="stroke:#181818;stroke-width:1.0;"/><text fill="#000000" font-family="sans-serif" font-size="13" lengthAdjust="spacing" textLength="169.0889" x="333.0903" y="1166.8613">Save industry to repository</text><line style="stroke:#181818;stroke-width:1.0;" x1="326.0903" x2="368.0903" y1="1213.9141" y2="1213.9141"/><line style="stroke:#181818;stroke-width:1.0;" x1="368.0903" x2="368.0903" y1="1213.9141" y2="1226.9141"/><line style="stroke:#181818;stroke-width:1.0;" x1="327.0903" x2="368.0903" y1="1226.9141" y2="1226.9141"/><polygon fill="#181818" points="337.0903,1222.9141,327.0903,1226.9141,337.0903,1230.9141,333.0903,1226.9141" style="stroke:#181818;stroke-width:1.0;"/><text fill="#000000" font-family="sans-serif" font-size="13" lengthAdjust="spacing" textLength="167.4702" x="333.0903" y="1209.1719">Update occupied positions</text><polygon fill="#181818" points="79.0054,1252.2246,69.0054,1256.2246,79.0054,1260.2246,75.0054,1256.2246" style="stroke:#181818;stroke-width:1.0;"/><line style="stroke:#181818;stroke-width:1.0;stroke-dasharray:2.0,2.0;" x1="73.0054" x2="315.0903" y1="1256.2246" y2="1256.2246"/><text fill="#000000" font-family="sans-serif" font-size="13" lengthAdjust="spacing" textLength="174.5225" x="85.0054" y="1251.4824">Industry added successfully</text><line style="stroke:#000000;stroke-width:1.0;stroke-dasharray:2.0,2.0;" x1="30" x2="524.1792" y1="1265.2246" y2="1265.2246"/><text fill="#000000" font-family="sans-serif" font-size="11" font-weight="bold" lengthAdjust="spacing" textLength="46.7607" x="35" y="1275.8594">[Failure]</text><polygon fill="#181818" points="79.0054,1296.4902,69.0054,1300.4902,79.0054,1304.4902,75.0054,1300.4902" style="stroke:#181818;stroke-width:1.0;"/><line style="stroke:#181818;stroke-width:1.0;stroke-dasharray:2.0,2.0;" x1="73.0054" x2="315.0903" y1="1300.4902" y2="1300.4902"/><text fill="#000000" font-family="sans-serif" font-size="13" lengthAdjust="spacing" textLength="137.4966" x="85.0054" y="1295.748">Failed to add industry</text><!--SRC=[bLN1Zfim4Btp5QEzxAxKZPhang5Ib4shNbPLQQhsE859S6jiQXks_7t710W4I5ikJkoPvpVFRsoCdJQmImGFGOx6YLZag1pSXL5b7MLtW1REFmCddAIm-GSH_If8nGJF0ay6CtY8ekT7U89zz7OL11WxKQAZ5ZmuZ_3qhWK8ORc0JP80AX0gAQmp5JWDBYN8CByWDDi7JLuVORLOmZQb-2U88w1F0s4XBemXvMG5bYJ5Zf80fOCNNGTqSy1VYycW3K4Fke8erQz0nl14HjRYYUhmXAvP-Tc9qbQBDIlaDphJgkEkSqabarMjkQeFv40Awq1pOIKAYGT9FPsgd6oWD8CPSKhhi0Prirs6y2Nj1MSym86wok5eT5RhF48MP1UU5tZeO4gTDQlpB6mkiUe8Nj4QgpHr-kkBH8FyyS7VmrUK8a4dr0a-jh4lc54WjSvXhvoGKFgO2vJYPM-6tEXI93UE-xCtidN3pBbptIb7PY9quXGxNzPCK1h2f0BwpPhPinsy9_rQRswEvAvlnN0MagIb4KwFKqHJTNeVrbwyRyNmGYExeBpedcihdD1gB7cxybzgTqaFtzx0zyVRUby7pqdUsAI-F-2W2vLSbFxKOkYYzcnl-QReuQtCl-dTUQ2laOxZ8XUDHlwRREDsSRDTXQtfkJiXHiNne4ioagjy5Iu5xhSKD3UqMNHvNHEt4qCHhZdygmQjwKO00obksA_pKO_eq8LJElAch57N-_hmW- -DgKZ_eFHVa_ebuSgZ8ewvU-QS4s59Wpn3DL5jghcKVLvRhHMYAypEUh-ZZmct2DWpfMCXPHLu-U0ztyQ5eLa0lyw9J0zxPPvL6r-wlPdc4Vu3]--></g></svg>