<svg xmlns="http://www.w3.org/2000/svg" xmlns:xlink="http://www.w3.org/1999/xlink" contentStyleType="text/css" height="925.8px" preserveAspectRatio="none" style="width:544px;height:925px;background:#FFFFFF;" version="1.1" viewBox="0 0 544 925" width="544.2px" zoomAndPan="magnify"><title>System Sequence Diagram (SSD) - US03 - Add a City</title><defs/><g><text fill="#000000" font-family="sans-serif" font-size="8.4" font-weight="bold" lengthAdjust="spacing" textLength="210.525" x="171.042" y="18.0645">System Sequence Diagram (SSD) - US03 - Add a City</text><rect fill="#FFFFFF" height="785.4293" style="stroke:#181818;stroke-width:0.6;" width="6" x="33.7717" y="79.9453"/><rect fill="#FFFFFF" height="61.1238" style="stroke:#181818;stroke-width:0.6;" width="6" x="280.9518" y="93.9199"/><rect fill="#FFFFFF" height="49.5492" style="stroke:#181818;stroke-width:0.6;" width="6" x="280.9518" y="173.8184"/><rect fill="#FFFFFF" height="76.8984" style="stroke:#181818;stroke-width:0.6;" width="6" x="280.9518" y="242.1422"/><rect fill="#FFFFFF" height="101.877" style="stroke:#181818;stroke-width:0.6;" width="6" x="280.9518" y="337.8152"/><rect fill="#FFFFFF" height="45.5531" style="stroke:#181818;stroke-width:0.6;" width="6" x="280.9518" y="458.4668"/><rect fill="#FFFFFF" height="61.1238" style="stroke:#181818;stroke-width:0.6;" width="6" x="280.9518" y="533.7691"/><rect fill="#FFFFFF" height="142.6301" style="stroke:#181818;stroke-width:0.6;" width="6" x="280.9518" y="613.6676"/><rect fill="#FFFFFF" height="90.3023" style="stroke:#181818;stroke-width:0.6;" width="6" x="280.9518" y="775.0723"/><rect fill="none" height="49.1238" style="stroke:#000000;stroke-width:0.8999999999999999;" width="291.3214" x="18" y="129.4945"/><rect fill="none" height="569.4832" style="stroke:#000000;stroke-width:0.8999999999999999;" width="513.3369" x="6" y="251.1422"/><rect fill="none" height="112.2516" style="stroke:#000000;stroke-width:0.8999999999999999;" width="363.0949" x="18" y="266.9168"/><rect fill="none" height="112.2516" style="stroke:#000000;stroke-width:0.8999999999999999;" width="442.0175" x="18" y="387.5684"/><rect fill="none" height="187.5539" style="stroke:#000000;stroke-width:0.8999999999999999;" width="501.3369" x="12" y="508.2199"/><rect fill="none" height="85.677" style="stroke:#000000;stroke-width:0.8999999999999999;" width="418.1558" x="18" y="569.3438"/><rect fill="none" height="112.2516" style="stroke:#000000;stroke-width:0.8999999999999999;" width="370.4684" x="18" y="704.1738"/><line style="stroke:#181818;stroke-width:0.3;stroke-dasharray:5.0,5.0;" x1="36.6" x2="36.6" y1="73.9453" y2="876.1746"/><line style="stroke:#181818;stroke-width:0.3;stroke-dasharray:5.0,5.0;" x1="283.7821" x2="283.7821" y1="73.9453" y2="876.1746"/><text fill="#000000" font-family="sans-serif" font-size="8.4" lengthAdjust="spacing" textLength="21.9434" x="24" y="71.8371">Editor</text><ellipse cx="36.7717" cy="31.8727" fill="#E2E2F0" rx="4.8" ry="4.8" style="stroke:#181818;stroke-width:0.3;"/><path d="M36.7717,36.6727 L36.7717,52.8727 M28.9717,41.4727 L44.5717,41.4727 M36.7717,52.8727 L28.9717,61.8727 M36.7717,52.8727 L44.5717,61.8727 " fill="none" style="stroke:#181818;stroke-width:0.3;"/><text fill="#000000" font-family="sans-serif" font-size="8.4" lengthAdjust="spacing" textLength="21.9434" x="24" y="884.6391">Editor</text><ellipse cx="36.7717" cy="891.8473" fill="#E2E2F0" rx="4.8" ry="4.8" style="stroke:#181818;stroke-width:0.3;"/><path d="M36.7717,896.6473 L36.7717,912.8473 M28.9717,901.4473 L44.5717,901.4473 M36.7717,912.8473 L28.9717,921.8473 M36.7717,912.8473 L44.5717,921.8473 " fill="none" style="stroke:#181818;stroke-width:0.3;"/><rect fill="#E2E2F0" height="19.5727" rx="1.5" ry="1.5" style="stroke:#181818;stroke-width:0.3;" width="38.7393" x="264.5821" y="53.7727"/><text fill="#000000" font-family="sans-serif" font-size="8.4" lengthAdjust="spacing" textLength="30.3393" x="268.7821" y="67.0371">:System</text><rect fill="#E2E2F0" height="19.5727" rx="1.5" ry="1.5" style="stroke:#181818;stroke-width:0.3;" width="38.7393" x="264.5821" y="875.5746"/><text fill="#000000" font-family="sans-serif" font-size="8.4" lengthAdjust="spacing" textLength="30.3393" x="268.7821" y="888.8391">:System</text><rect fill="#FFFFFF" height="785.4293" style="stroke:#181818;stroke-width:0.6;" width="6" x="33.7717" y="79.9453"/><rect fill="#FFFFFF" height="61.1238" style="stroke:#181818;stroke-width:0.6;" width="6" x="280.9518" y="93.9199"/><rect fill="#FFFFFF" height="49.5492" style="stroke:#181818;stroke-width:0.6;" width="6" x="280.9518" y="173.8184"/><rect fill="#FFFFFF" height="76.8984" style="stroke:#181818;stroke-width:0.6;" width="6" x="280.9518" y="242.1422"/><rect fill="#FFFFFF" height="101.877" style="stroke:#181818;stroke-width:0.6;" width="6" x="280.9518" y="337.8152"/><rect fill="#FFFFFF" height="45.5531" style="stroke:#181818;stroke-width:0.6;" width="6" x="280.9518" y="458.4668"/><rect fill="#FFFFFF" height="61.1238" style="stroke:#181818;stroke-width:0.6;" width="6" x="280.9518" y="533.7691"/><rect fill="#FFFFFF" height="142.6301" style="stroke:#181818;stroke-width:0.6;" width="6" x="280.9518" y="613.6676"/><rect fill="#FFFFFF" height="90.3023" style="stroke:#181818;stroke-width:0.6;" width="6" x="280.9518" y="775.0723"/><polygon fill="#181818" points="273.7518,91.5199,279.7518,93.9199,273.7518,96.3199,276.1518,93.9199" style="stroke:#181818;stroke-width:0.6;"/><line style="stroke:#181818;stroke-width:0.6;" x1="39.7717" x2="277.3518" y1="93.9199" y2="93.9199"/><text fill="#000000" font-family="sans-serif" font-size="7.8" lengthAdjust="spacing" textLength="120.9724" x="43.9717" y="90.7623">1. Request to add a city to the map</text><line style="stroke:#181818;stroke-width:0.6;" x1="286.9518" x2="312.1518" y1="112.6945" y2="112.6945"/><line style="stroke:#181818;stroke-width:0.6;" x1="312.1518" x2="312.1518" y1="112.6945" y2="120.4945"/><line style="stroke:#181818;stroke-width:0.6;" x1="287.5518" x2="312.1518" y1="120.4945" y2="120.4945"/><polygon fill="#181818" points="293.5518,118.0945,287.5518,120.4945,293.5518,122.8945,291.1518,120.4945" style="stroke:#181818;stroke-width:0.6;"/><text fill="#000000" font-family="sans-serif" font-size="7.8" lengthAdjust="spacing" textLength="136.1268" x="291.1518" y="109.5369">2.1 Check if a map is currently selected</text><path d="M18,129.4945 L54.1025,129.4945 L54.1025,135.0691 L48.1025,141.0691 L18,141.0691 L18,129.4945 " fill="#EEEEEE" style="stroke:#000000;stroke-width:0.8999999999999999;"/><rect fill="none" height="49.1238" style="stroke:#000000;stroke-width:0.8999999999999999;" width="291.3214" x="18" y="129.4945"/><text fill="#000000" font-family="sans-serif" font-size="7.8" font-weight="bold" lengthAdjust="spacing" textLength="9.1025" x="27" y="138.5115">alt</text><text fill="#000000" font-family="sans-serif" font-size="6.6" font-weight="bold" lengthAdjust="spacing" textLength="56.8477" x="63.1025" y="137.8166">[No map selected]</text><polygon fill="#181818" points="46.3717,152.6437,40.3717,155.0438,46.3717,157.4438,43.9717,155.0438" style="stroke:#181818;stroke-width:0.6;"/><line style="stroke:#181818;stroke-width:0.6;stroke-dasharray:2.0,2.0;" x1="42.7717" x2="283.3518" y1="155.0438" y2="155.0438"/><text fill="#000000" font-family="sans-serif" font-size="7.8" lengthAdjust="spacing" textLength="84.9735" x="49.9717" y="151.8861">2.2 Show error message</text><polygon fill="#181818" points="273.7518,171.4184,279.7518,173.8184,273.7518,176.2184,276.1518,173.8184" style="stroke:#181818;stroke-width:0.6;"/><line style="stroke:#181818;stroke-width:0.6;" x1="39.7717" x2="277.3518" y1="173.8184" y2="173.8184"/><text fill="#000000" font-family="sans-serif" font-size="7.8" lengthAdjust="spacing" textLength="58.5343" x="43.9717" y="170.6607">2.3 Select a map</text><line style="stroke:#181818;stroke-width:0.6;" x1="286.9518" x2="312.1518" y1="196.793" y2="196.793"/><line style="stroke:#181818;stroke-width:0.6;" x1="312.1518" x2="312.1518" y1="196.793" y2="204.593"/><line style="stroke:#181818;stroke-width:0.6;" x1="287.5518" x2="312.1518" y1="204.593" y2="204.593"/><polygon fill="#181818" points="293.5518,202.193,287.5518,204.593,293.5518,206.993,291.1518,204.593" style="stroke:#181818;stroke-width:0.6;"/><text fill="#000000" font-family="sans-serif" font-size="7.8" lengthAdjust="spacing" textLength="248.8573" x="291.1518" y="193.6354">3.1 Ask for city name, position (X,Y), and house block assignment mode</text><polygon fill="#181818" points="46.3717,220.9676,40.3717,223.3676,46.3717,225.7676,43.9717,223.3676" style="stroke:#181818;stroke-width:0.6;"/><line style="stroke:#181818;stroke-width:0.6;stroke-dasharray:2.0,2.0;" x1="42.7717" x2="283.3518" y1="223.3676" y2="223.3676"/><text fill="#000000" font-family="sans-serif" font-size="7.8" lengthAdjust="spacing" textLength="67.633" x="49.9717" y="220.21">Request city details</text><polygon fill="#181818" points="273.7518,239.7422,279.7518,242.1422,273.7518,244.5422,276.1518,242.1422" style="stroke:#181818;stroke-width:0.6;"/><line style="stroke:#181818;stroke-width:0.6;" x1="39.7717" x2="277.3518" y1="242.1422" y2="242.1422"/><text fill="#000000" font-family="sans-serif" font-size="7.8" lengthAdjust="spacing" textLength="229.7801" x="43.9717" y="238.9846">3.2 Provide city name, position (X,Y), and select assignment mode</text><path d="M6,251.1422 L49.4607,251.1422 L49.4607,256.7168 L43.4607,262.7168 L6,262.7168 L6,251.1422 " fill="#EEEEEE" style="stroke:#000000;stroke-width:0.8999999999999999;"/><rect fill="none" height="569.4832" style="stroke:#000000;stroke-width:0.8999999999999999;" width="513.3369" x="6" y="251.1422"/><text fill="#000000" font-family="sans-serif" font-size="7.8" font-weight="bold" lengthAdjust="spacing" textLength="16.4607" x="15" y="260.1592">loop</text><text fill="#000000" font-family="sans-serif" font-size="6.6" font-weight="bold" lengthAdjust="spacing" textLength="99.0097" x="58.4607" y="259.4643">[Until valid inputs are provided]</text><path d="M18,266.9168 L54.1025,266.9168 L54.1025,272.4914 L48.1025,278.4914 L18,278.4914 L18,266.9168 " fill="#EEEEEE" style="stroke:#000000;stroke-width:0.8999999999999999;"/><rect fill="none" height="112.2516" style="stroke:#000000;stroke-width:0.8999999999999999;" width="363.0949" x="18" y="266.9168"/><text fill="#000000" font-family="sans-serif" font-size="7.8" font-weight="bold" lengthAdjust="spacing" textLength="9.1025" x="27" y="275.9338">alt</text><text fill="#000000" font-family="sans-serif" font-size="6.6" font-weight="bold" lengthAdjust="spacing" textLength="245.7437" x="63.1025" y="275.2389">[Invalid city name (AC1: A city name cannot have special characters or digits)]</text><line style="stroke:#181818;stroke-width:0.6;" x1="286.9518" x2="312.1518" y1="292.466" y2="292.466"/><line style="stroke:#181818;stroke-width:0.6;" x1="312.1518" x2="312.1518" y1="292.466" y2="300.266"/><line style="stroke:#181818;stroke-width:0.6;" x1="287.5518" x2="312.1518" y1="300.266" y2="300.266"/><polygon fill="#181818" points="293.5518,297.866,287.5518,300.266,293.5518,302.666,291.1518,300.266" style="stroke:#181818;stroke-width:0.6;"/><text fill="#000000" font-family="sans-serif" font-size="7.8" lengthAdjust="spacing" textLength="76.7432" x="291.1518" y="289.3084">4.1 Validate city name</text><polygon fill="#181818" points="46.3717,316.6406,40.3717,319.0406,46.3717,321.4406,43.9717,319.0406" style="stroke:#181818;stroke-width:0.6;"/><line style="stroke:#181818;stroke-width:0.6;stroke-dasharray:2.0,2.0;" x1="42.7717" x2="283.3518" y1="319.0406" y2="319.0406"/><text fill="#000000" font-family="sans-serif" font-size="7.8" lengthAdjust="spacing" textLength="156.4989" x="49.9717" y="315.883">4.1.1 Show error message (invalid city name)</text><polygon fill="#181818" points="273.7518,335.4152,279.7518,337.8152,273.7518,340.2152,276.1518,337.8152" style="stroke:#181818;stroke-width:0.6;"/><line style="stroke:#181818;stroke-width:0.6;" x1="39.7717" x2="277.3518" y1="337.8152" y2="337.8152"/><text fill="#000000" font-family="sans-serif" font-size="7.8" lengthAdjust="spacing" textLength="85.4077" x="43.9717" y="334.6576">4.1.2 Re-enter city name</text><line style="stroke:#000000;stroke-width:0.6;stroke-dasharray:2.0,2.0;" x1="18" x2="381.0949" y1="343.2152" y2="343.2152"/><text fill="#000000" font-family="sans-serif" font-size="6.6" font-weight="bold" lengthAdjust="spacing" textLength="52.4487" x="21" y="350.3373">[Valid city name]</text><line style="stroke:#181818;stroke-width:0.6;" x1="286.9518" x2="312.1518" y1="366.5684" y2="366.5684"/><line style="stroke:#181818;stroke-width:0.6;" x1="312.1518" x2="312.1518" y1="366.5684" y2="374.3684"/><line style="stroke:#181818;stroke-width:0.6;" x1="287.5518" x2="312.1518" y1="374.3684" y2="374.3684"/><polygon fill="#181818" points="293.5518,371.9684,287.5518,374.3684,293.5518,376.7684,291.1518,374.3684" style="stroke:#181818;stroke-width:0.6;"/><text fill="#000000" font-family="sans-serif" font-size="7.8" lengthAdjust="spacing" textLength="74.1305" x="291.1518" y="363.4107">4.1 City name is valid</text><path d="M18,387.5684 L54.1025,387.5684 L54.1025,393.143 L48.1025,399.143 L18,399.143 L18,387.5684 " fill="#EEEEEE" style="stroke:#000000;stroke-width:0.8999999999999999;"/><rect fill="none" height="112.2516" style="stroke:#000000;stroke-width:0.8999999999999999;" width="442.0175" x="18" y="387.5684"/><text fill="#000000" font-family="sans-serif" font-size="7.8" font-weight="bold" lengthAdjust="spacing" textLength="9.1025" x="27" y="396.5854">alt</text><text fill="#000000" font-family="sans-serif" font-size="6.6" font-weight="bold" lengthAdjust="spacing" textLength="393.9149" x="63.1025" y="395.8904">[City name already exists (AC3: When a city name already exists in the map, the system must display a warning to the editor)]</text><line style="stroke:#181818;stroke-width:0.6;" x1="286.9518" x2="312.1518" y1="413.1176" y2="413.1176"/><line style="stroke:#181818;stroke-width:0.6;" x1="312.1518" x2="312.1518" y1="413.1176" y2="420.9176"/><line style="stroke:#181818;stroke-width:0.6;" x1="287.5518" x2="312.1518" y1="420.9176" y2="420.9176"/><polygon fill="#181818" points="293.5518,418.5176,287.5518,420.9176,293.5518,423.3176,291.1518,420.9176" style="stroke:#181818;stroke-width:0.6;"/><text fill="#000000" font-family="sans-serif" font-size="7.8" lengthAdjust="spacing" textLength="133.0913" x="291.1518" y="409.96">4.1.3 Check if city name already exists</text><polygon fill="#181818" points="46.3717,437.2922,40.3717,439.6922,46.3717,442.0922,43.9717,439.6922" style="stroke:#181818;stroke-width:0.6;"/><line style="stroke:#181818;stroke-width:0.6;stroke-dasharray:2.0,2.0;" x1="42.7717" x2="283.3518" y1="439.6922" y2="439.6922"/><text fill="#000000" font-family="sans-serif" font-size="7.8" lengthAdjust="spacing" textLength="131.3546" x="49.9717" y="436.5346">4.1.4 Show warning (city name exists)</text><polygon fill="#181818" points="273.7518,456.0668,279.7518,458.4668,273.7518,460.8668,276.1518,458.4668" style="stroke:#181818;stroke-width:0.6;"/><line style="stroke:#181818;stroke-width:0.6;" x1="39.7717" x2="277.3518" y1="458.4668" y2="458.4668"/><text fill="#000000" font-family="sans-serif" font-size="7.8" lengthAdjust="spacing" textLength="119.2242" x="43.9717" y="455.3092">4.1.5 Confirm or change city name</text><line style="stroke:#000000;stroke-width:0.6;stroke-dasharray:2.0,2.0;" x1="18" x2="460.0175" y1="463.8668" y2="463.8668"/><text fill="#000000" font-family="sans-serif" font-size="6.6" font-weight="bold" lengthAdjust="spacing" textLength="66.7412" x="21" y="470.9889">[City name is unique]</text><line style="stroke:#181818;stroke-width:0.6;" x1="286.9518" x2="312.1518" y1="487.2199" y2="487.2199"/><line style="stroke:#181818;stroke-width:0.6;" x1="312.1518" x2="312.1518" y1="487.2199" y2="495.0199"/><line style="stroke:#181818;stroke-width:0.6;" x1="287.5518" x2="312.1518" y1="495.0199" y2="495.0199"/><polygon fill="#181818" points="293.5518,492.6199,287.5518,495.0199,293.5518,497.4199,291.1518,495.0199" style="stroke:#181818;stroke-width:0.6;"/><text fill="#000000" font-family="sans-serif" font-size="7.8" lengthAdjust="spacing" textLength="88.0166" x="291.1518" y="484.0623">4.1.6 City name is unique</text><path d="M12,508.2199 L48.1025,508.2199 L48.1025,513.7945 L42.1025,519.7945 L12,519.7945 L12,508.2199 " fill="#EEEEEE" style="stroke:#000000;stroke-width:0.8999999999999999;"/><rect fill="none" height="187.5539" style="stroke:#000000;stroke-width:0.8999999999999999;" width="501.3369" x="12" y="508.2199"/><text fill="#000000" font-family="sans-serif" font-size="7.8" font-weight="bold" lengthAdjust="spacing" textLength="9.1025" x="21" y="517.2369">alt</text><text fill="#000000" font-family="sans-serif" font-size="6.6" font-weight="bold" lengthAdjust="spacing" textLength="321.273" x="57.1025" y="516.542">[Manual house block assignment (AC2: The house blocks can be assigned manually or automatically)]</text><polygon fill="#181818" points="273.7518,531.3691,279.7518,533.7691,273.7518,536.1691,276.1518,533.7691" style="stroke:#181818;stroke-width:0.6;"/><line style="stroke:#181818;stroke-width:0.6;" x1="39.7717" x2="277.3518" y1="533.7691" y2="533.7691"/><text fill="#000000" font-family="sans-serif" font-size="7.8" lengthAdjust="spacing" textLength="122.7091" x="43.9717" y="530.6115">4.3.1 Provide house block positions</text><line style="stroke:#181818;stroke-width:0.6;" x1="286.9518" x2="312.1518" y1="552.5437" y2="552.5437"/><line style="stroke:#181818;stroke-width:0.6;" x1="312.1518" x2="312.1518" y1="552.5437" y2="560.3438"/><line style="stroke:#181818;stroke-width:0.6;" x1="287.5518" x2="312.1518" y1="560.3438" y2="560.3438"/><polygon fill="#181818" points="293.5518,557.9438,287.5518,560.3438,293.5518,562.7438,291.1518,560.3438" style="stroke:#181818;stroke-width:0.6;"/><text fill="#000000" font-family="sans-serif" font-size="7.8" lengthAdjust="spacing" textLength="152.199" x="291.1518" y="549.3861">4.3.2 Validate manual house block positions</text><path d="M18,569.3438 L54.1025,569.3438 L54.1025,574.9184 L48.1025,580.9184 L18,580.9184 L18,569.3438 " fill="#EEEEEE" style="stroke:#000000;stroke-width:0.8999999999999999;"/><rect fill="none" height="85.677" style="stroke:#000000;stroke-width:0.8999999999999999;" width="418.1558" x="18" y="569.3438"/><text fill="#000000" font-family="sans-serif" font-size="7.8" font-weight="bold" lengthAdjust="spacing" textLength="9.1025" x="27" y="578.3607">alt</text><text fill="#000000" font-family="sans-serif" font-size="6.6" font-weight="bold" lengthAdjust="spacing" textLength="133.1247" x="63.1025" y="577.6658">[Invalid manual placement of house block]</text><polygon fill="#181818" points="46.3717,592.493,40.3717,594.893,46.3717,597.293,43.9717,594.893" style="stroke:#181818;stroke-width:0.6;"/><line style="stroke:#181818;stroke-width:0.6;stroke-dasharray:2.0,2.0;" x1="42.7717" x2="283.3518" y1="594.893" y2="594.893"/><text fill="#000000" font-family="sans-serif" font-size="7.8" lengthAdjust="spacing" textLength="159.1078" x="49.9717" y="591.7354">4.3.3 Show error message (invalid placement)</text><polygon fill="#181818" points="273.7518,611.2676,279.7518,613.6676,273.7518,616.0676,276.1518,613.6676" style="stroke:#181818;stroke-width:0.6;"/><line style="stroke:#181818;stroke-width:0.6;" x1="39.7717" x2="277.3518" y1="613.6676" y2="613.6676"/><text fill="#000000" font-family="sans-serif" font-size="7.8" lengthAdjust="spacing" textLength="82.8141" x="43.9717" y="610.51">4.3.4 Re-enter positions</text><line style="stroke:#000000;stroke-width:0.6;stroke-dasharray:2.0,2.0;" x1="18" x2="436.1558" y1="619.0676" y2="619.0676"/><text fill="#000000" font-family="sans-serif" font-size="6.6" font-weight="bold" lengthAdjust="spacing" textLength="79.5867" x="21" y="626.1896">[Valid manual placement]</text><line style="stroke:#181818;stroke-width:0.6;" x1="286.9518" x2="312.1518" y1="642.4207" y2="642.4207"/><line style="stroke:#181818;stroke-width:0.6;" x1="312.1518" x2="312.1518" y1="642.4207" y2="650.2207"/><line style="stroke:#181818;stroke-width:0.6;" x1="287.5518" x2="312.1518" y1="650.2207" y2="650.2207"/><polygon fill="#181818" points="293.5518,647.8207,287.5518,650.2207,293.5518,652.6207,291.1518,650.2207" style="stroke:#181818;stroke-width:0.6;"/><text fill="#000000" font-family="sans-serif" font-size="7.8" lengthAdjust="spacing" textLength="131.804" x="291.1518" y="639.2631">4.3.5 House block positions confirmed</text><line style="stroke:#000000;stroke-width:0.6;stroke-dasharray:2.0,2.0;" x1="12" x2="513.3369" y1="659.8207" y2="659.8207"/><text fill="#000000" font-family="sans-serif" font-size="6.6" font-weight="bold" lengthAdjust="spacing" textLength="115.5161" x="15" y="666.9428">[Automatic house block assignment]</text><line style="stroke:#181818;stroke-width:0.6;" x1="286.9518" x2="312.1518" y1="683.1738" y2="683.1738"/><line style="stroke:#181818;stroke-width:0.6;" x1="312.1518" x2="312.1518" y1="683.1738" y2="690.9738"/><line style="stroke:#181818;stroke-width:0.6;" x1="287.5518" x2="312.1518" y1="690.9738" y2="690.9738"/><polygon fill="#181818" points="293.5518,688.5738,287.5518,690.9738,293.5518,693.3738,291.1518,690.9738" style="stroke:#181818;stroke-width:0.6;"/><text fill="#000000" font-family="sans-serif" font-size="7.8" lengthAdjust="spacing" textLength="208.9852" x="291.1518" y="680.0162">4.4 Automatically assign house blocks based on city position</text><path d="M18,704.1738 L54.1025,704.1738 L54.1025,709.7484 L48.1025,715.7484 L18,715.7484 L18,704.1738 " fill="#EEEEEE" style="stroke:#000000;stroke-width:0.8999999999999999;"/><rect fill="none" height="112.2516" style="stroke:#000000;stroke-width:0.8999999999999999;" width="370.4684" x="18" y="704.1738"/><text fill="#000000" font-family="sans-serif" font-size="7.8" font-weight="bold" lengthAdjust="spacing" textLength="9.1025" x="27" y="713.1908">alt</text><text fill="#000000" font-family="sans-serif" font-size="6.6" font-weight="bold" lengthAdjust="spacing" textLength="115.4871" x="63.1025" y="712.4959">[Position out of bounds or occupied]</text><line style="stroke:#181818;stroke-width:0.6;" x1="286.9518" x2="312.1518" y1="729.723" y2="729.723"/><line style="stroke:#181818;stroke-width:0.6;" x1="312.1518" x2="312.1518" y1="729.723" y2="737.523"/><line style="stroke:#181818;stroke-width:0.6;" x1="287.5518" x2="312.1518" y1="737.523" y2="737.523"/><polygon fill="#181818" points="293.5518,735.123,287.5518,737.523,293.5518,739.923,291.1518,737.523" style="stroke:#181818;stroke-width:0.6;"/><text fill="#000000" font-family="sans-serif" font-size="7.8" lengthAdjust="spacing" textLength="84.1166" x="291.1518" y="726.5654">4.2 Validate city position</text><polygon fill="#181818" points="46.3717,753.8977,40.3717,756.2977,46.3717,758.6977,43.9717,756.2977" style="stroke:#181818;stroke-width:0.6;"/><line style="stroke:#181818;stroke-width:0.6;stroke-dasharray:2.0,2.0;" x1="42.7717" x2="283.3518" y1="756.2977" y2="756.2977"/><text fill="#000000" font-family="sans-serif" font-size="7.8" lengthAdjust="spacing" textLength="150.0053" x="49.9717" y="753.14">4.2.1 Show error message (invalid position)</text><polygon fill="#181818" points="273.7518,772.6723,279.7518,775.0723,273.7518,777.4723,276.1518,775.0723" style="stroke:#181818;stroke-width:0.6;"/><line style="stroke:#181818;stroke-width:0.6;" x1="39.7717" x2="277.3518" y1="775.0723" y2="775.0723"/><text fill="#000000" font-family="sans-serif" font-size="7.8" lengthAdjust="spacing" textLength="78.9141" x="43.9717" y="771.9146">4.2.2 Re-enter position</text><line style="stroke:#000000;stroke-width:0.6;stroke-dasharray:2.0,2.0;" x1="18" x2="388.4684" y1="780.4723" y2="780.4723"/><text fill="#000000" font-family="sans-serif" font-size="6.6" font-weight="bold" lengthAdjust="spacing" textLength="47.6631" x="21" y="787.5943">[Valid position]</text><line style="stroke:#181818;stroke-width:0.6;" x1="286.9518" x2="312.1518" y1="803.8254" y2="803.8254"/><line style="stroke:#181818;stroke-width:0.6;" x1="312.1518" x2="312.1518" y1="803.8254" y2="811.6254"/><line style="stroke:#181818;stroke-width:0.6;" x1="287.5518" x2="312.1518" y1="811.6254" y2="811.6254"/><polygon fill="#181818" points="293.5518,809.2254,287.5518,811.6254,293.5518,814.0254,291.1518,811.6254" style="stroke:#181818;stroke-width:0.6;"/><text fill="#000000" font-family="sans-serif" font-size="7.8" lengthAdjust="spacing" textLength="66.7685" x="291.1518" y="800.6678">4.2 Position is valid</text><line style="stroke:#181818;stroke-width:0.6;" x1="286.9518" x2="312.1518" y1="838.8" y2="838.8"/><line style="stroke:#181818;stroke-width:0.6;" x1="312.1518" x2="312.1518" y1="838.8" y2="846.6"/><line style="stroke:#181818;stroke-width:0.6;" x1="287.5518" x2="312.1518" y1="846.6" y2="846.6"/><polygon fill="#181818" points="293.5518,844.2,287.5518,846.6,293.5518,849,291.1518,846.6" style="stroke:#181818;stroke-width:0.6;"/><text fill="#000000" font-family="sans-serif" font-size="7.8" lengthAdjust="spacing" textLength="170.3927" x="291.1518" y="835.6424">5. Add city with house blocks to the selected map</text><polygon fill="#181818" points="43.3717,862.9746,37.3717,865.3746,43.3717,867.7746,40.9717,865.3746" style="stroke:#181818;stroke-width:0.6;"/><line style="stroke:#181818;stroke-width:0.6;stroke-dasharray:2.0,2.0;" x1="39.7717" x2="283.3518" y1="865.3746" y2="865.3746"/><text fill="#000000" font-family="sans-serif" font-size="7.8" lengthAdjust="spacing" textLength="99.2824" x="46.9717" y="862.217">6. Display operation success</text><!--SRC=[fLPDRzim3BtxLn0z9K0Qh4dRGmu3WdJ0TjXGB6kt7HMPYONQaYV9wVBlHyaVSMohnhPSaWZY8_aUFyIuLHe-n8A-efnfAxZ8cRHmjTgUZCNi2fY1ycTaXKrnLVs3BVugK7A41y4EccKmsMuVfd0DJzjtI_fQnp4ms0XxYYB6hJWoYxMdgFo6w_SrsWfkvl3LGHeBLW7prfoitJ-R86GiF-DK4KMLTHjdCR-1JOBy1SIU8CWCX05UQ8tIfYSmc2At64SijV15-GlD6T2dnYJGAam7ke1jebu1jQQ338rX1_JNO-n6vKu74bpCbqIQSrI6vUzrRL76WrajAQkrUO4zWNfM9Cjm1haomWebOV9ZzdCw0oPZI5HX47Qf8WgOCU8WCyeSCXLZD9HRpRg7ZT4oaPgedzMGPakYvL6heuXnB2fJPTu9gESbLIg79sb52aUMYXY4p0jhW6c4l7HLokJa-oJBEurlcAmtDojOjquuar9PIDWHmUJ81Kk19qoJPzG6AADO78GrKu_QBe1MehT4_xDpvK9ji7iMRLh9X8pwHGCJqOtwx7guc085vJmiIBvhOXFrG5X3M9XISJnV-X_BVDEGIPtaOo-XNAtMKfpli5GZYq-0luKXuKYHvGg-9oZhXXww9MJTv3F_mvJ-iu8ACnOcJzc9p5-Pba8Uwf60dfCnuQZjcdaGyZ-gv6sfP1t0v0nK0lo7X7UmKN8lTEPgaIfJ7l1ljBmGfv22cdcCaFkWaPCqd8JJ-JEJ1NLGOCYGs8iLV2DjMXUCwq7OONKHOvBPWT0mfenPOLN6QF6uWsdKn1vap8t2UkYqmwYdZhc028aHfCVDjARLitws0JUjQLGPKSrozAoeVHlXmYvSSqktBjwO7Wtyj0SOBi4HOc_FqsGupJ56MzEboq8mxKuCT_1nY6tWPPDKqxznM1MiTxokIobGdc_tnUtPtjTcQNTPo3jcg7nfi_a6hOCxJyEcJHxh5QWAh_zE5JBssqPnNkIYbSPWC8lEkhbm5IwQnSZAgM7-ULmjsXkd5zJ8mWacqKcz8Q-tRaBFexkvVszwgbw5JIvLgzP5_ShpZwyX_kxdz9WjTutAKJCVWoau9ng7NaIje-fX-mS0]--></g></svg>