<svg xmlns="http://www.w3.org/2000/svg" xmlns:xlink="http://www.w3.org/1999/xlink" contentStyleType="text/css" height="1547px" preserveAspectRatio="none" style="width:1435px;height:1547px;background:#FFFFFF;" version="1.1" viewBox="0 0 1435 1547" width="1435px" zoomAndPan="magnify"><defs/><g><rect fill="#FFFFFF" height="1365.0879" style="stroke:#181818;stroke-width:1.0;" width="10" x="48.0054" y="91.4883"/><rect fill="#FFFFFF" height="1365.0879" style="stroke:#181818;stroke-width:1.0;" width="10" x="504.2144" y="91.4883"/><rect fill="#FFFFFF" height="581.2793" style="stroke:#181818;stroke-width:1.0;" width="10" x="903.8594" y="693.7441"/><rect fill="#FFFFFF" height="29.3105" style="stroke:#181818;stroke-width:1.0;" width="10" x="1270.5283" y="842.9863"/><rect fill="#FFFFFF" height="29.3105" style="stroke:#181818;stroke-width:1.0;" width="10" x="1270.5283" y="901.6074"/><rect fill="#FFFFFF" height="29.3105" style="stroke:#181818;stroke-width:1.0;" width="10" x="1270.5283" y="960.2285"/><rect fill="#FFFFFF" height="29.3105" style="stroke:#181818;stroke-width:1.0;" width="10" x="1270.5283" y="1018.8496"/><rect fill="none" height="180.8633" style="stroke:#000000;stroke-width:1.5;" width="632.9077" x="10" y="176.1094"/><rect fill="none" height="90.9316" style="stroke:#000000;stroke-width:1.5;" width="612.9077" x="20" y="259.041"/><rect fill="none" height="180.8633" style="stroke:#000000;stroke-width:1.5;" width="632.8696" x="10" y="370.9727"/><rect fill="none" height="90.9316" style="stroke:#000000;stroke-width:1.5;" width="612.8696" x="20" y="453.9043"/><rect fill="none" height="825.7637" style="stroke:#000000;stroke-width:1.5;" width="1418.7847" x="10" y="623.8125"/><rect fill="none" height="77.9316" style="stroke:#000000;stroke-width:1.5;" width="532.5884" x="456.3496" y="1190.0918"/><rect fill="none" height="46.6211" style="stroke:#000000;stroke-width:1.5;" width="542.0791" x="20" y="1282.0234"/><line style="stroke:#181818;stroke-width:0.5;stroke-dasharray:5.0,5.0;" x1="53" x2="53" y1="81.4883" y2="1466.5762"/><line style="stroke:#181818;stroke-width:0.5;stroke-dasharray:5.0,5.0;" x1="508.3496" x2="508.3496" y1="81.4883" y2="1466.5762"/><line style="stroke:#181818;stroke-width:0.5;stroke-dasharray:5.0,5.0;" x1="908.7808" x2="908.7808" y1="81.4883" y2="1466.5762"/><line style="stroke:#181818;stroke-width:0.5;stroke-dasharray:5.0,5.0;" x1="1275.2671" x2="1275.2671" y1="597.8242" y2="1466.5762"/><line style="stroke:#181818;stroke-width:0.5;stroke-dasharray:5.0,5.0;" x1="1369.7896" x2="1369.7896" y1="81.4883" y2="1466.5762"/><text fill="#000000" font-family="sans-serif" font-size="14" lengthAdjust="spacing" textLength="40.0107" x="30" y="78.5352">Editor</text><ellipse cx="53.0054" cy="13.5" fill="#E2E2F0" rx="8" ry="8" style="stroke:#181818;stroke-width:0.5;"/><path d="M53.0054,21.5 L53.0054,48.5 M40.0054,29.5 L66.0054,29.5 M53.0054,48.5 L40.0054,63.5 M53.0054,48.5 L66.0054,63.5 " fill="none" style="stroke:#181818;stroke-width:0.5;"/><text fill="#000000" font-family="sans-serif" font-size="14" lengthAdjust="spacing" textLength="40.0107" x="30" y="1479.1113">Editor</text><ellipse cx="53.0054" cy="1490.5645" fill="#E2E2F0" rx="8" ry="8" style="stroke:#181818;stroke-width:0.5;"/><path d="M53.0054,1498.5645 L53.0054,1525.5645 M40.0054,1506.5645 L66.0054,1506.5645 M53.0054,1525.5645 L40.0054,1540.5645 M53.0054,1525.5645 L66.0054,1540.5645 " fill="none" style="stroke:#181818;stroke-width:0.5;"/><rect fill="#E2E2F0" height="30.4883" rx="2.5" ry="2.5" style="stroke:#181818;stroke-width:0.5;" width="85.7295" x="466.3496" y="50"/><text fill="#000000" font-family="sans-serif" font-size="14" lengthAdjust="spacing" textLength="71.7295" x="473.3496" y="70.5352">:AddCityUI</text><rect fill="#E2E2F0" height="30.4883" rx="2.5" ry="2.5" style="stroke:#181818;stroke-width:0.5;" width="85.7295" x="466.3496" y="1465.5762"/><text fill="#000000" font-family="sans-serif" font-size="14" lengthAdjust="spacing" textLength="71.7295" x="473.3496" y="1486.1113">:AddCityUI</text><rect fill="#E2E2F0" height="30.4883" rx="2.5" ry="2.5" style="stroke:#181818;stroke-width:0.5;" width="140.1572" x="838.7808" y="50"/><text fill="#000000" font-family="sans-serif" font-size="14" lengthAdjust="spacing" textLength="126.1572" x="845.7808" y="70.5352">:AddCityController</text><rect fill="#E2E2F0" height="30.4883" rx="2.5" ry="2.5" style="stroke:#181818;stroke-width:0.5;" width="140.1572" x="838.7808" y="1465.5762"/><text fill="#000000" font-family="sans-serif" font-size="14" lengthAdjust="spacing" textLength="126.1572" x="845.7808" y="1486.1113">:AddCityController</text><rect fill="#E2E2F0" height="46.9766" rx="2.5" ry="2.5" style="stroke:#181818;stroke-width:0.5;" width="72.5225" x="1239.2671" y="1465.5762"/><text fill="#000000" font-family="sans-serif" font-size="14" lengthAdjust="spacing" textLength="55.166" x="1247.9453" y="1486.1113">position</text><text fill="#000000" font-family="sans-serif" font-size="14" lengthAdjust="spacing" textLength="58.5225" x="1246.2671" y="1502.5996">:Position</text><rect fill="#E2E2F0" height="46.9766" rx="2.5" ry="2.5" style="stroke:#181818;stroke-width:0.5;" width="96.9951" x="1321.7896" y="33.5117"/><text fill="#000000" font-family="sans-serif" font-size="14" lengthAdjust="spacing" textLength="76.9658" x="1331.8042" y="54.0469">houseBlock</text><text fill="#000000" font-family="sans-serif" font-size="14" lengthAdjust="spacing" textLength="82.9951" x="1328.7896" y="70.5352">:HouseBlock</text><rect fill="#E2E2F0" height="46.9766" rx="2.5" ry="2.5" style="stroke:#181818;stroke-width:0.5;" width="96.9951" x="1321.7896" y="1465.5762"/><text fill="#000000" font-family="sans-serif" font-size="14" lengthAdjust="spacing" textLength="76.9658" x="1331.8042" y="1486.1113">houseBlock</text><text fill="#000000" font-family="sans-serif" font-size="14" lengthAdjust="spacing" textLength="82.9951" x="1328.7896" y="1502.5996">:HouseBlock</text><rect fill="#FFFFFF" height="1365.0879" style="stroke:#181818;stroke-width:1.0;" width="10" x="48.0054" y="91.4883"/><rect fill="#FFFFFF" height="1365.0879" style="stroke:#181818;stroke-width:1.0;" width="10" x="504.2144" y="91.4883"/><rect fill="#FFFFFF" height="581.2793" style="stroke:#181818;stroke-width:1.0;" width="10" x="903.8594" y="693.7441"/><rect fill="#FFFFFF" height="29.3105" style="stroke:#181818;stroke-width:1.0;" width="10" x="1270.5283" y="842.9863"/><rect fill="#FFFFFF" height="29.3105" style="stroke:#181818;stroke-width:1.0;" width="10" x="1270.5283" y="901.6074"/><rect fill="#FFFFFF" height="29.3105" style="stroke:#181818;stroke-width:1.0;" width="10" x="1270.5283" y="960.2285"/><rect fill="#FFFFFF" height="29.3105" style="stroke:#181818;stroke-width:1.0;" width="10" x="1270.5283" y="1018.8496"/><line style="stroke:#181818;stroke-width:1.0;" x1="514.2144" x2="556.2144" y1="112.7988" y2="112.7988"/><line style="stroke:#181818;stroke-width:1.0;" x1="556.2144" x2="556.2144" y1="112.7988" y2="125.7988"/><line style="stroke:#181818;stroke-width:1.0;" x1="515.2144" x2="556.2144" y1="125.7988" y2="125.7988"/><polygon fill="#181818" points="525.2144,121.7988,515.2144,125.7988,525.2144,129.7988,521.2144,125.7988" style="stroke:#181818;stroke-width:1.0;"/><text fill="#000000" font-family="sans-serif" font-size="13" font-weight="bold" lengthAdjust="spacing" textLength="8.5757" x="521.2144" y="108.0566">1</text><text fill="#000000" font-family="sans-serif" font-size="13" lengthAdjust="spacing" textLength="353.0693" x="533.79" y="108.0566">List&lt;HouseBlock&gt; houseBlocksList = new ArrayList&lt;&gt;()</text><path d="M317,138.7988 L317,163.7988 L701,163.7988 L701,148.7988 L691,138.7988 L317,138.7988 " fill="#FEFFDD" style="stroke:#181818;stroke-width:0.5;"/><path d="M691,138.7988 L691,148.7988 L701,148.7988 L691,138.7988 " fill="#FEFFDD" style="stroke:#181818;stroke-width:0.5;"/><text fill="#000000" font-family="sans-serif" font-size="13" lengthAdjust="spacing" textLength="363.2319" x="323" y="156.3672">previously read occupiedPositions, mapWidth, mapHeight</text><path d="M10,176.1094 L84.4468,176.1094 L84.4468,183.4199 L74.4468,193.4199 L10,193.4199 L10,176.1094 " fill="#EEEEEE" style="stroke:#000000;stroke-width:1.5;"/><rect fill="none" height="180.8633" style="stroke:#000000;stroke-width:1.5;" width="632.9077" x="10" y="176.1094"/><text fill="#000000" font-family="sans-serif" font-size="13" font-weight="bold" lengthAdjust="spacing" textLength="29.4468" x="25" y="189.6777">loop</text><text fill="#000000" font-family="sans-serif" font-size="11" font-weight="bold" lengthAdjust="spacing" textLength="110.1021" x="99.4468" y="188.7441">[until valid X value]</text><polygon fill="#181818" points="69.0054,210.7305,59.0054,214.7305,69.0054,218.7305,65.0054,214.7305" style="stroke:#181818;stroke-width:1.0;"/><line style="stroke:#181818;stroke-width:1.0;stroke-dasharray:2.0,2.0;" x1="63.0054" x2="503.2144" y1="214.7305" y2="214.7305"/><text fill="#000000" font-family="sans-serif" font-size="13" font-weight="bold" lengthAdjust="spacing" textLength="8.5757" x="75.0054" y="209.9883">2</text><text fill="#000000" font-family="sans-serif" font-size="13" lengthAdjust="spacing" textLength="92.9424" x="87.5811" y="209.9883">ask for X value</text><polygon fill="#181818" points="492.2144,240.041,502.2144,244.041,492.2144,248.041,496.2144,244.041" style="stroke:#181818;stroke-width:1.0;"/><line style="stroke:#181818;stroke-width:1.0;" x1="58.0054" x2="498.2144" y1="244.041" y2="244.041"/><text fill="#000000" font-family="sans-serif" font-size="13" font-weight="bold" lengthAdjust="spacing" textLength="8.5757" x="65.0054" y="239.2988">3</text><text fill="#000000" font-family="sans-serif" font-size="13" lengthAdjust="spacing" textLength="44.9858" x="77.5811" y="239.2988">enter X</text><path d="M20,259.041 L82.1387,259.041 L82.1387,266.3516 L72.1387,276.3516 L20,276.3516 L20,259.041 " fill="#EEEEEE" style="stroke:#000000;stroke-width:1.5;"/><rect fill="none" height="90.9316" style="stroke:#000000;stroke-width:1.5;" width="612.9077" x="20" y="259.041"/><text fill="#000000" font-family="sans-serif" font-size="13" font-weight="bold" lengthAdjust="spacing" textLength="17.1387" x="35" y="272.6094">alt</text><text fill="#000000" font-family="sans-serif" font-size="11" font-weight="bold" lengthAdjust="spacing" textLength="119.813" x="97.1387" y="271.6758">[(0 &lt; X &lt; mapWidth)]</text><line style="stroke:#181818;stroke-width:1.0;" x1="514.2144" x2="556.2144" y1="297.6621" y2="297.6621"/><line style="stroke:#181818;stroke-width:1.0;" x1="556.2144" x2="556.2144" y1="297.6621" y2="310.6621"/><line style="stroke:#181818;stroke-width:1.0;" x1="515.2144" x2="556.2144" y1="310.6621" y2="310.6621"/><polygon fill="#181818" points="525.2144,306.6621,515.2144,310.6621,525.2144,314.6621,521.2144,310.6621" style="stroke:#181818;stroke-width:1.0;"/><text fill="#000000" font-family="sans-serif" font-size="13" font-weight="bold" lengthAdjust="spacing" textLength="8.5757" x="521.2144" y="292.9199">4</text><text fill="#000000" font-family="sans-serif" font-size="13" lengthAdjust="spacing" textLength="77.1177" x="533.79" y="292.9199">save X value</text><line style="stroke:#000000;stroke-width:1.0;stroke-dasharray:2.0,2.0;" x1="20" x2="632.9077" y1="319.6621" y2="319.6621"/><polygon fill="#181818" points="69.0054,337.9727,59.0054,341.9727,69.0054,345.9727,65.0054,341.9727" style="stroke:#181818;stroke-width:1.0;"/><line style="stroke:#181818;stroke-width:1.0;stroke-dasharray:2.0,2.0;" x1="63.0054" x2="503.2144" y1="341.9727" y2="341.9727"/><text fill="#000000" font-family="sans-serif" font-size="13" font-weight="bold" lengthAdjust="spacing" textLength="8.5757" x="75.0054" y="337.2305">5</text><text fill="#000000" font-family="sans-serif" font-size="13" lengthAdjust="spacing" textLength="189.4585" x="87.5811" y="337.2305">error message: invalid X value</text><path d="M10,370.9727 L84.4468,370.9727 L84.4468,378.2832 L74.4468,388.2832 L10,388.2832 L10,370.9727 " fill="#EEEEEE" style="stroke:#000000;stroke-width:1.5;"/><rect fill="none" height="180.8633" style="stroke:#000000;stroke-width:1.5;" width="632.8696" x="10" y="370.9727"/><text fill="#000000" font-family="sans-serif" font-size="13" font-weight="bold" lengthAdjust="spacing" textLength="29.4468" x="25" y="384.541">loop</text><text fill="#000000" font-family="sans-serif" font-size="11" font-weight="bold" lengthAdjust="spacing" textLength="110.3169" x="99.4468" y="383.6074">[until valid Y value]</text><polygon fill="#181818" points="69.0054,405.5938,59.0054,409.5938,69.0054,413.5938,65.0054,409.5938" style="stroke:#181818;stroke-width:1.0;"/><line style="stroke:#181818;stroke-width:1.0;stroke-dasharray:2.0,2.0;" x1="63.0054" x2="503.2144" y1="409.5938" y2="409.5938"/><text fill="#000000" font-family="sans-serif" font-size="13" font-weight="bold" lengthAdjust="spacing" textLength="8.5757" x="75.0054" y="404.8516">6</text><text fill="#000000" font-family="sans-serif" font-size="13" lengthAdjust="spacing" textLength="92.9043" x="87.5811" y="404.8516">ask for Y value</text><polygon fill="#181818" points="492.2144,434.9043,502.2144,438.9043,492.2144,442.9043,496.2144,438.9043" style="stroke:#181818;stroke-width:1.0;"/><line style="stroke:#181818;stroke-width:1.0;" x1="58.0054" x2="498.2144" y1="438.9043" y2="438.9043"/><text fill="#000000" font-family="sans-serif" font-size="13" font-weight="bold" lengthAdjust="spacing" textLength="8.5757" x="65.0054" y="434.1621">7</text><text fill="#000000" font-family="sans-serif" font-size="13" lengthAdjust="spacing" textLength="44.9478" x="77.5811" y="434.1621">enter Y</text><path d="M20,453.9043 L82.1387,453.9043 L82.1387,461.2148 L72.1387,471.2148 L20,471.2148 L20,453.9043 " fill="#EEEEEE" style="stroke:#000000;stroke-width:1.5;"/><rect fill="none" height="90.9316" style="stroke:#000000;stroke-width:1.5;" width="612.8696" x="20" y="453.9043"/><text fill="#000000" font-family="sans-serif" font-size="13" font-weight="bold" lengthAdjust="spacing" textLength="17.1387" x="35" y="467.4727">alt</text><text fill="#000000" font-family="sans-serif" font-size="11" font-weight="bold" lengthAdjust="spacing" textLength="124.8672" x="97.1387" y="466.5391">[(0 &lt; X &lt; mapHeight)]</text><line style="stroke:#181818;stroke-width:1.0;" x1="514.2144" x2="556.2144" y1="492.5254" y2="492.5254"/><line style="stroke:#181818;stroke-width:1.0;" x1="556.2144" x2="556.2144" y1="492.5254" y2="505.5254"/><line style="stroke:#181818;stroke-width:1.0;" x1="515.2144" x2="556.2144" y1="505.5254" y2="505.5254"/><polygon fill="#181818" points="525.2144,501.5254,515.2144,505.5254,525.2144,509.5254,521.2144,505.5254" style="stroke:#181818;stroke-width:1.0;"/><text fill="#000000" font-family="sans-serif" font-size="13" font-weight="bold" lengthAdjust="spacing" textLength="8.5757" x="521.2144" y="487.7832">8</text><text fill="#000000" font-family="sans-serif" font-size="13" lengthAdjust="spacing" textLength="77.0796" x="533.79" y="487.7832">save Y value</text><line style="stroke:#000000;stroke-width:1.0;stroke-dasharray:2.0,2.0;" x1="20" x2="632.8696" y1="514.5254" y2="514.5254"/><polygon fill="#181818" points="69.0054,532.8359,59.0054,536.8359,69.0054,540.8359,65.0054,536.8359" style="stroke:#181818;stroke-width:1.0;"/><line style="stroke:#181818;stroke-width:1.0;stroke-dasharray:2.0,2.0;" x1="63.0054" x2="503.2144" y1="536.8359" y2="536.8359"/><text fill="#000000" font-family="sans-serif" font-size="13" font-weight="bold" lengthAdjust="spacing" textLength="8.5757" x="75.0054" y="532.0938">9</text><text fill="#000000" font-family="sans-serif" font-size="13" lengthAdjust="spacing" textLength="189.4204" x="87.5811" y="532.0938">error message: invalid Y value</text><polygon fill="#181818" points="1227.2671,576.1465,1237.2671,580.1465,1227.2671,584.1465,1231.2671,580.1465" style="stroke:#181818;stroke-width:1.0;"/><line style="stroke:#181818;stroke-width:1.0;" x1="514.2144" x2="1233.2671" y1="580.1465" y2="580.1465"/><text fill="#000000" font-family="sans-serif" font-size="13" font-weight="bold" lengthAdjust="spacing" textLength="17.1514" x="521.2144" y="575.4043">10</text><text fill="#000000" font-family="sans-serif" font-size="13" lengthAdjust="spacing" textLength="250.5293" x="542.3657" y="575.4043">newPosition = new Position(X - 1,Y - 1)</text><rect fill="#E2E2F0" height="46.9766" rx="2.5" ry="2.5" style="stroke:#181818;stroke-width:0.5;" width="72.5225" x="1239.2671" y="558.8359"/><text fill="#000000" font-family="sans-serif" font-size="14" lengthAdjust="spacing" textLength="55.166" x="1247.9453" y="579.3711">position</text><text fill="#000000" font-family="sans-serif" font-size="14" lengthAdjust="spacing" textLength="58.5225" x="1246.2671" y="595.8594">:Position</text><path d="M10,623.8125 L72.1387,623.8125 L72.1387,631.123 L62.1387,641.123 L10,641.123 L10,623.8125 " fill="#EEEEEE" style="stroke:#000000;stroke-width:1.5;"/><rect fill="none" height="825.7637" style="stroke:#000000;stroke-width:1.5;" width="1418.7847" x="10" y="623.8125"/><text fill="#000000" font-family="sans-serif" font-size="13" font-weight="bold" lengthAdjust="spacing" textLength="17.1387" x="25" y="637.3809">alt</text><text fill="#000000" font-family="sans-serif" font-size="11" font-weight="bold" lengthAdjust="spacing" textLength="108.7324" x="87.1387" y="636.4473">[position occupied]</text><polygon fill="#181818" points="69.0054,658.4336,59.0054,662.4336,69.0054,666.4336,65.0054,662.4336" style="stroke:#181818;stroke-width:1.0;"/><line style="stroke:#181818;stroke-width:1.0;stroke-dasharray:2.0,2.0;" x1="63.0054" x2="503.2144" y1="662.4336" y2="662.4336"/><text fill="#000000" font-family="sans-serif" font-size="13" font-weight="bold" lengthAdjust="spacing" textLength="17.1514" x="75.0054" y="657.6914">11</text><text fill="#000000" font-family="sans-serif" font-size="13" lengthAdjust="spacing" textLength="259.3335" x="96.1567" y="657.6914">Error message: Position already occupied</text><line style="stroke:#000000;stroke-width:1.0;stroke-dasharray:2.0,2.0;" x1="10" x2="1428.7847" y1="671.4336" y2="671.4336"/><polygon fill="#181818" points="891.8594,689.7441,901.8594,693.7441,891.8594,697.7441,895.8594,693.7441" style="stroke:#181818;stroke-width:1.0;"/><line style="stroke:#181818;stroke-width:1.0;" x1="514.2144" x2="897.8594" y1="693.7441" y2="693.7441"/><text fill="#000000" font-family="sans-serif" font-size="13" font-weight="bold" lengthAdjust="spacing" textLength="17.1514" x="521.2144" y="689.002">12</text><text fill="#000000" font-family="sans-serif" font-size="13" lengthAdjust="spacing" textLength="223.2217" x="542.3657" y="689.002">cityFarFromTheCentre(newPosition)</text><line style="stroke:#181818;stroke-width:1.0;" x1="913.8594" x2="955.8594" y1="723.0547" y2="723.0547"/><line style="stroke:#181818;stroke-width:1.0;" x1="955.8594" x2="955.8594" y1="723.0547" y2="736.0547"/><line style="stroke:#181818;stroke-width:1.0;" x1="914.8594" x2="955.8594" y1="736.0547" y2="736.0547"/><polygon fill="#181818" points="924.8594,732.0547,914.8594,736.0547,924.8594,740.0547,920.8594,736.0547" style="stroke:#181818;stroke-width:1.0;"/><text fill="#000000" font-family="sans-serif" font-size="13" font-weight="bold" lengthAdjust="spacing" textLength="17.1514" x="920.8594" y="718.3125">13</text><text fill="#000000" font-family="sans-serif" font-size="13" lengthAdjust="spacing" textLength="170.6504" x="942.0107" y="718.3125">LIMIT_HOUSE_BLOCK = 20;</text><path d="M845,749.0547 L845,774.0547 L971,774.0547 L971,759.0547 L961,749.0547 L845,749.0547 " fill="#FEFFDD" style="stroke:#181818;stroke-width:0.5;"/><path d="M961,749.0547 L961,759.0547 L971,759.0547 L961,749.0547 " fill="#FEFFDD" style="stroke:#181818;stroke-width:0.5;"/><text fill="#000000" font-family="sans-serif" font-size="13" lengthAdjust="spacing" textLength="105.2886" x="851" y="766.623">predefined value</text><line style="stroke:#181818;stroke-width:1.0;" x1="913.8594" x2="955.8594" y1="800.6758" y2="800.6758"/><line style="stroke:#181818;stroke-width:1.0;" x1="955.8594" x2="955.8594" y1="800.6758" y2="813.6758"/><line style="stroke:#181818;stroke-width:1.0;" x1="914.8594" x2="955.8594" y1="813.6758" y2="813.6758"/><polygon fill="#181818" points="924.8594,809.6758,914.8594,813.6758,924.8594,817.6758,920.8594,813.6758" style="stroke:#181818;stroke-width:1.0;"/><text fill="#000000" font-family="sans-serif" font-size="13" font-weight="bold" lengthAdjust="spacing" textLength="17.1514" x="920.8594" y="795.9336">14</text><text fill="#000000" font-family="sans-serif" font-size="13" lengthAdjust="spacing" textLength="298.9556" x="942.0107" y="795.9336">getEuclideanDistance(cityPosition,newPosition))</text><polygon fill="#181818" points="1258.5283,838.9863,1268.5283,842.9863,1258.5283,846.9863,1262.5283,842.9863" style="stroke:#181818;stroke-width:1.0;"/><line style="stroke:#181818;stroke-width:1.0;" x1="913.8594" x2="1264.5283" y1="842.9863" y2="842.9863"/><text fill="#000000" font-family="sans-serif" font-size="13" font-weight="bold" lengthAdjust="spacing" textLength="17.1514" x="920.8594" y="838.2441">15</text><text fill="#000000" font-family="sans-serif" font-size="13" lengthAdjust="spacing" textLength="113.2168" x="942.0107" y="838.2441">cityPosition.getX()</text><polygon fill="#181818" points="924.8594,868.2969,914.8594,872.2969,924.8594,876.2969,920.8594,872.2969" style="stroke:#181818;stroke-width:1.0;"/><line style="stroke:#181818;stroke-width:1.0;stroke-dasharray:2.0,2.0;" x1="918.8594" x2="1274.5283" y1="872.2969" y2="872.2969"/><text fill="#000000" font-family="sans-serif" font-size="13" font-weight="bold" lengthAdjust="spacing" textLength="17.1514" x="930.8594" y="867.5547">16</text><text fill="#000000" font-family="sans-serif" font-size="13" lengthAdjust="spacing" textLength="125.6011" x="952.0107" y="867.5547">return xCityPosition</text><polygon fill="#181818" points="1258.5283,897.6074,1268.5283,901.6074,1258.5283,905.6074,1262.5283,901.6074" style="stroke:#181818;stroke-width:1.0;"/><line style="stroke:#181818;stroke-width:1.0;" x1="913.8594" x2="1264.5283" y1="901.6074" y2="901.6074"/><text fill="#000000" font-family="sans-serif" font-size="13" font-weight="bold" lengthAdjust="spacing" textLength="17.1514" x="920.8594" y="896.8652">17</text><text fill="#000000" font-family="sans-serif" font-size="13" lengthAdjust="spacing" textLength="116.4731" x="942.0107" y="896.8652">newPosition.getX()</text><polygon fill="#181818" points="924.8594,926.918,914.8594,930.918,924.8594,934.918,920.8594,930.918" style="stroke:#181818;stroke-width:1.0;"/><line style="stroke:#181818;stroke-width:1.0;stroke-dasharray:2.0,2.0;" x1="918.8594" x2="1274.5283" y1="930.918" y2="930.918"/><text fill="#000000" font-family="sans-serif" font-size="13" font-weight="bold" lengthAdjust="spacing" textLength="17.1514" x="930.8594" y="926.1758">18</text><text fill="#000000" font-family="sans-serif" font-size="13" lengthAdjust="spacing" textLength="128.0576" x="952.0107" y="926.1758">return xNewPosition</text><polygon fill="#181818" points="1258.5283,956.2285,1268.5283,960.2285,1258.5283,964.2285,1262.5283,960.2285" style="stroke:#181818;stroke-width:1.0;"/><line style="stroke:#181818;stroke-width:1.0;" x1="913.8594" x2="1264.5283" y1="960.2285" y2="960.2285"/><text fill="#000000" font-family="sans-serif" font-size="13" font-weight="bold" lengthAdjust="spacing" textLength="17.1514" x="920.8594" y="955.4863">19</text><text fill="#000000" font-family="sans-serif" font-size="13" lengthAdjust="spacing" textLength="113.1787" x="942.0107" y="955.4863">cityPosition.getY()</text><polygon fill="#181818" points="924.8594,985.5391,914.8594,989.5391,924.8594,993.5391,920.8594,989.5391" style="stroke:#181818;stroke-width:1.0;"/><line style="stroke:#181818;stroke-width:1.0;stroke-dasharray:2.0,2.0;" x1="918.8594" x2="1274.5283" y1="989.5391" y2="989.5391"/><text fill="#000000" font-family="sans-serif" font-size="13" font-weight="bold" lengthAdjust="spacing" textLength="17.1514" x="930.8594" y="984.7969">20</text><text fill="#000000" font-family="sans-serif" font-size="13" lengthAdjust="spacing" textLength="124.4204" x="952.0107" y="984.7969">return yCityPosition</text><polygon fill="#181818" points="1258.5283,1014.8496,1268.5283,1018.8496,1258.5283,1022.8496,1262.5283,1018.8496" style="stroke:#181818;stroke-width:1.0;"/><line style="stroke:#181818;stroke-width:1.0;" x1="913.8594" x2="1264.5283" y1="1018.8496" y2="1018.8496"/><text fill="#000000" font-family="sans-serif" font-size="13" font-weight="bold" lengthAdjust="spacing" textLength="17.1514" x="920.8594" y="1014.1074">21</text><text fill="#000000" font-family="sans-serif" font-size="13" lengthAdjust="spacing" textLength="116.4351" x="942.0107" y="1014.1074">newPosition.getY()</text><polygon fill="#181818" points="924.8594,1044.1602,914.8594,1048.1602,924.8594,1052.1602,920.8594,1048.1602" style="stroke:#181818;stroke-width:1.0;"/><line style="stroke:#181818;stroke-width:1.0;stroke-dasharray:2.0,2.0;" x1="918.8594" x2="1274.5283" y1="1048.1602" y2="1048.1602"/><text fill="#000000" font-family="sans-serif" font-size="13" font-weight="bold" lengthAdjust="spacing" textLength="17.1514" x="930.8594" y="1043.418">22</text><text fill="#000000" font-family="sans-serif" font-size="13" lengthAdjust="spacing" textLength="126.877" x="952.0107" y="1043.418">return yNewPosition</text><line style="stroke:#181818;stroke-width:1.0;" x1="913.8594" x2="955.8594" y1="1077.4707" y2="1077.4707"/><line style="stroke:#181818;stroke-width:1.0;" x1="955.8594" x2="955.8594" y1="1077.4707" y2="1090.4707"/><line style="stroke:#181818;stroke-width:1.0;" x1="914.8594" x2="955.8594" y1="1090.4707" y2="1090.4707"/><polygon fill="#181818" points="924.8594,1086.4707,914.8594,1090.4707,924.8594,1094.4707,920.8594,1090.4707" style="stroke:#181818;stroke-width:1.0;"/><text fill="#000000" font-family="sans-serif" font-size="13" font-weight="bold" lengthAdjust="spacing" textLength="17.1514" x="920.8594" y="1072.7285">23</text><text fill="#000000" font-family="sans-serif" font-size="13" lengthAdjust="spacing" textLength="218.1372" x="942.0107" y="1072.7285">dx = xCityPosition - xNewPosition</text><line style="stroke:#181818;stroke-width:1.0;" x1="913.8594" x2="955.8594" y1="1119.7813" y2="1119.7813"/><line style="stroke:#181818;stroke-width:1.0;" x1="955.8594" x2="955.8594" y1="1119.7813" y2="1132.7813"/><line style="stroke:#181818;stroke-width:1.0;" x1="914.8594" x2="955.8594" y1="1132.7813" y2="1132.7813"/><polygon fill="#181818" points="924.8594,1128.7813,914.8594,1132.7813,924.8594,1136.7813,920.8594,1132.7813" style="stroke:#181818;stroke-width:1.0;"/><text fill="#000000" font-family="sans-serif" font-size="13" font-weight="bold" lengthAdjust="spacing" textLength="17.1514" x="920.8594" y="1115.0391">24</text><text fill="#000000" font-family="sans-serif" font-size="13" lengthAdjust="spacing" textLength="215.7759" x="942.0107" y="1115.0391">dx = yCityPosition - yNewPosition</text><line style="stroke:#181818;stroke-width:1.0;" x1="913.8594" x2="955.8594" y1="1162.0918" y2="1162.0918"/><line style="stroke:#181818;stroke-width:1.0;" x1="955.8594" x2="955.8594" y1="1162.0918" y2="1175.0918"/><line style="stroke:#181818;stroke-width:1.0;" x1="914.8594" x2="955.8594" y1="1175.0918" y2="1175.0918"/><polygon fill="#181818" points="924.8594,1171.0918,914.8594,1175.0918,924.8594,1179.0918,920.8594,1175.0918" style="stroke:#181818;stroke-width:1.0;"/><text fill="#000000" font-family="sans-serif" font-size="13" font-weight="bold" lengthAdjust="spacing" textLength="17.1514" x="920.8594" y="1157.3496">25</text><text fill="#000000" font-family="sans-serif" font-size="13" lengthAdjust="spacing" textLength="311.5176" x="942.0107" y="1157.3496">euclideanDistance = Math.sqrt(dx * dx + dy * dy)</text><path d="M456.3496,1190.0918 L518.4883,1190.0918 L518.4883,1197.4023 L508.4883,1207.4023 L456.3496,1207.4023 L456.3496,1190.0918 " fill="#EEEEEE" style="stroke:#000000;stroke-width:1.5;"/><rect fill="none" height="77.9316" style="stroke:#000000;stroke-width:1.5;" width="532.5884" x="456.3496" y="1190.0918"/><text fill="#000000" font-family="sans-serif" font-size="13" font-weight="bold" lengthAdjust="spacing" textLength="17.1387" x="471.3496" y="1203.6602">alt</text><text fill="#000000" font-family="sans-serif" font-size="11" font-weight="bold" lengthAdjust="spacing" textLength="246.1465" x="533.4883" y="1202.7266">[euclideanDistance &gt; LIMIT_HOUSE_BLOCK]</text><polygon fill="#181818" points="525.2144,1224.7129,515.2144,1228.7129,525.2144,1232.7129,521.2144,1228.7129" style="stroke:#181818;stroke-width:1.0;"/><line style="stroke:#181818;stroke-width:1.0;stroke-dasharray:2.0,2.0;" x1="519.2144" x2="902.8594" y1="1228.7129" y2="1228.7129"/><text fill="#000000" font-family="sans-serif" font-size="13" font-weight="bold" lengthAdjust="spacing" textLength="17.1514" x="531.2144" y="1223.9707">26</text><text fill="#000000" font-family="sans-serif" font-size="13" lengthAdjust="spacing" textLength="148.5034" x="552.3657" y="1223.9707">return validation = true</text><line style="stroke:#000000;stroke-width:1.0;stroke-dasharray:2.0,2.0;" x1="456.3496" x2="988.938" y1="1237.7129" y2="1237.7129"/><polygon fill="#181818" points="525.2144,1256.0234,515.2144,1260.0234,525.2144,1264.0234,521.2144,1260.0234" style="stroke:#181818;stroke-width:1.0;"/><line style="stroke:#181818;stroke-width:1.0;stroke-dasharray:2.0,2.0;" x1="519.2144" x2="902.8594" y1="1260.0234" y2="1260.0234"/><text fill="#000000" font-family="sans-serif" font-size="13" font-weight="bold" lengthAdjust="spacing" textLength="17.1514" x="531.2144" y="1255.2813">27</text><text fill="#000000" font-family="sans-serif" font-size="13" lengthAdjust="spacing" textLength="152.5977" x="552.3657" y="1255.2813">return validation = false</text><path d="M20,1282.0234 L82.1387,1282.0234 L82.1387,1289.334 L72.1387,1299.334 L20,1299.334 L20,1282.0234 " fill="#EEEEEE" style="stroke:#000000;stroke-width:1.5;"/><rect fill="none" height="46.6211" style="stroke:#000000;stroke-width:1.5;" width="542.0791" x="20" y="1282.0234"/><text fill="#000000" font-family="sans-serif" font-size="13" font-weight="bold" lengthAdjust="spacing" textLength="17.1387" x="35" y="1295.5918">alt</text><text fill="#000000" font-family="sans-serif" font-size="11" font-weight="bold" lengthAdjust="spacing" textLength="64.3403" x="97.1387" y="1294.6582">[validation]</text><polygon fill="#181818" points="69.0054,1316.6445,59.0054,1320.6445,69.0054,1324.6445,65.0054,1320.6445" style="stroke:#181818;stroke-width:1.0;"/><line style="stroke:#181818;stroke-width:1.0;stroke-dasharray:2.0,2.0;" x1="63.0054" x2="503.2144" y1="1320.6445" y2="1320.6445"/><text fill="#000000" font-family="sans-serif" font-size="13" font-weight="bold" lengthAdjust="spacing" textLength="17.1514" x="75.0054" y="1315.9023">28</text><text fill="#000000" font-family="sans-serif" font-size="13" lengthAdjust="spacing" textLength="401.0576" x="96.1567" y="1315.9023">notice: New House Block significantly away from the City centre</text><polygon fill="#181818" points="1358.2871,1352.9551,1368.2871,1356.9551,1358.2871,1360.9551,1362.2871,1356.9551" style="stroke:#181818;stroke-width:1.0;"/><line style="stroke:#181818;stroke-width:1.0;" x1="514.2144" x2="1364.2871" y1="1356.9551" y2="1356.9551"/><text fill="#000000" font-family="sans-serif" font-size="13" font-weight="bold" lengthAdjust="spacing" textLength="17.1514" x="521.2144" y="1352.2129">29</text><text fill="#000000" font-family="sans-serif" font-size="13" lengthAdjust="spacing" textLength="303.2466" x="542.3657" y="1352.2129">newHouseBlock = new HouseBlock(newPosition)</text><line style="stroke:#181818;stroke-width:1.0;" x1="514.2144" x2="556.2144" y1="1386.2656" y2="1386.2656"/><line style="stroke:#181818;stroke-width:1.0;" x1="556.2144" x2="556.2144" y1="1386.2656" y2="1399.2656"/><line style="stroke:#181818;stroke-width:1.0;" x1="515.2144" x2="556.2144" y1="1399.2656" y2="1399.2656"/><polygon fill="#181818" points="525.2144,1395.2656,515.2144,1399.2656,525.2144,1403.2656,521.2144,1399.2656" style="stroke:#181818;stroke-width:1.0;"/><text fill="#000000" font-family="sans-serif" font-size="13" font-weight="bold" lengthAdjust="spacing" textLength="17.1514" x="521.2144" y="1381.5234">30</text><text fill="#000000" font-family="sans-serif" font-size="13" lengthAdjust="spacing" textLength="234.6665" x="542.3657" y="1381.5234">houseBlocksList.add(newHouseBlock)</text><line style="stroke:#181818;stroke-width:1.0;" x1="514.2144" x2="556.2144" y1="1428.5762" y2="1428.5762"/><line style="stroke:#181818;stroke-width:1.0;" x1="556.2144" x2="556.2144" y1="1428.5762" y2="1441.5762"/><line style="stroke:#181818;stroke-width:1.0;" x1="515.2144" x2="556.2144" y1="1441.5762" y2="1441.5762"/><polygon fill="#181818" points="525.2144,1437.5762,515.2144,1441.5762,525.2144,1445.5762,521.2144,1441.5762" style="stroke:#181818;stroke-width:1.0;"/><text fill="#000000" font-family="sans-serif" font-size="13" font-weight="bold" lengthAdjust="spacing" textLength="17.1514" x="521.2144" y="1423.834">31</text><text fill="#000000" font-family="sans-serif" font-size="13" lengthAdjust="spacing" textLength="251.8179" x="542.3657" y="1423.834">occupiedPositionsMap.add(newPosition)</text><!--SRC=[hLPjRzem4FxEhpZrKzgrLRUFZ24LIWKQNQiLD90cLLviY4MmCzkXpR_VsNbFeArMye6y-ExnyvplZjCRBYAYo1OYuc_8cZsQ96IWc6-8M8Uiemi37H0gdxbOmug4kheISi5C4Z6GoWIoGs8ZHRpzmrIdGtmZ5PoCACVx2H0DevjP1zqCztb4X86JxZMbGswI-SIjpoVxbuTI62N3aAKmmzdFQTqmafeRBiLlqNt87ftbm_rZtJ2GiMQ3KFeRD1qNByvuF72S-OuOvgW2NiK7v6RVvnEuwDlVBaovDhqIemybkBPhy0q4UuPhfKZYRFlUgSCG4l7aZgaK9r9inz4rJ33sX8Bq_JZYZEPAz3biIVIBKnEufp7Zwy0uf53A269XU0Wx4d8A2tkFcLlCwI9VL8CR4Rs15Hv9qyYkvgAOCCXhKQoHq81t1JrqwXKqJelbHaWqsR4MFBCPqtGeI36baDAMQOqPs0KkzWjXWdQgzvRovNkKBzzKlZoeF0txwzANnv2-V4DwkYcczjaPWc2AvOcI9Lp-wYtW0ZwVB-rlIjjAoakbIBFz4HlLkHLRaD3cQ5BthibCwTaQHHWVg_UMg5ibjxE03J76YdaLocKuYq9prLsDcOCg8QUJkydiQNm_Vnmz3QRtm-ye-ylLrvfBMM6P4zOOPIliLRGHt3qRh9aPnJwU12FY1kkM29zvLaXE-hmgu7Gl59vEfZutl4JOXLUtBZJRFWMDoq9SbAmKCx4Iy3AiODPyaEuXk3gh2ljZaVfHGluVfsQabXydbHmzKiSWzO58PKZq1HE-bWPOu0TFO9zpqd1EtkdCcbM1M7V419Vwhp8UGfzP_4-0xG6VaaQmiFUq0VhjScv5CcMHzzaiaAvLagph6TMew5RVVHzEEjpKW0GzT4ojFcKLbd2jxMlj5HiKzx6lOkJ1ZH3WvWRGV2tuYliuhE0uG9v90YlidM02t11F3NpNGb_bc3RWyI1Du790oVuUoW_x6t7ZVwqnr5mIIhqQx47FrXnpHwBSlRrjhg8IOHovAcyOk7y0]--></g></svg>