<svg xmlns="http://www.w3.org/2000/svg" xmlns:xlink="http://www.w3.org/1999/xlink" contentStyleType="text/css" height="1842px" preserveAspectRatio="none" style="width:1266px;height:1842px;background:#FFFFFF;" version="1.1" viewBox="0 0 1266 1842" width="1266px" zoomAndPan="magnify"><defs/><g><rect fill="#FFFFFF" height="1651.9746" style="stroke:#181818;stroke-width:1.0;" width="10" x="48.0054" y="91.4883"/><rect fill="#FFFFFF" height="1651.9746" style="stroke:#181818;stroke-width:1.0;" width="10" x="273.02" y="91.4883"/><rect fill="#FFFFFF" height="71.6211" style="stroke:#181818;stroke-width:1.0;" width="10" x="559.5645" y="142.1094"/><rect fill="#FFFFFF" height="71.6211" style="stroke:#181818;stroke-width:1.0;" width="10" x="559.5645" y="437.9043"/><rect fill="#FFFFFF" height="1204.627" style="stroke:#181818;stroke-width:1.0;" width="10" x="559.5645" y="538.8359"/><rect fill="none" height="180.8633" style="stroke:#000000;stroke-width:1.5;" width="444.1348" x="10" y="228.7305"/><rect fill="none" height="90.9316" style="stroke:#000000;stroke-width:1.5;" width="424.1348" x="20" y="311.6621"/><rect fill="none" height="872.1426" style="stroke:#000000;stroke-width:1.5;" width="851.2002" x="409" y="843.0098"/><rect fill="none" height="103.9316" style="stroke:#000000;stroke-width:1.5;" width="263.2622" x="484.4858" y="867.3203"/><rect fill="none" height="511.3477" style="stroke:#000000;stroke-width:1.5;" width="831.2002" x="419" y="1196.8047"/><rect fill="none" height="371.1055" style="stroke:#000000;stroke-width:1.5;" width="811.2002" x="429" y="1330.0469"/><rect fill="none" height="210.8633" style="stroke:#000000;stroke-width:1.5;" width="791.2002" x="439" y="1483.2891"/><line style="stroke:#181818;stroke-width:0.5;stroke-dasharray:5.0,5.0;" x1="53" x2="53" y1="81.4883" y2="1761.4629"/><line style="stroke:#181818;stroke-width:0.5;stroke-dasharray:5.0,5.0;" x1="277.1553" x2="277.1553" y1="81.4883" y2="1761.4629"/><line style="stroke:#181818;stroke-width:0.5;stroke-dasharray:5.0,5.0;" x1="564.4858" x2="564.4858" y1="81.4883" y2="1761.4629"/><line style="stroke:#181818;stroke-width:0.5;stroke-dasharray:5.0,5.0;" x1="1076.6826" x2="1076.6826" y1="81.4883" y2="1761.4629"/><line style="stroke:#181818;stroke-width:0.5;stroke-dasharray:5.0,5.0;" x1="1171.2051" x2="1171.2051" y1="81.4883" y2="1761.4629"/><text fill="#000000" font-family="sans-serif" font-size="14" lengthAdjust="spacing" textLength="40.0107" x="30" y="78.5352">Editor</text><ellipse cx="53.0054" cy="13.5" fill="#E2E2F0" rx="8" ry="8" style="stroke:#181818;stroke-width:0.5;"/><path d="M53.0054,21.5 L53.0054,48.5 M40.0054,29.5 L66.0054,29.5 M53.0054,48.5 L40.0054,63.5 M53.0054,48.5 L66.0054,63.5 " fill="none" style="stroke:#181818;stroke-width:0.5;"/><text fill="#000000" font-family="sans-serif" font-size="14" lengthAdjust="spacing" textLength="40.0107" x="30" y="1773.998">Editor</text><ellipse cx="53.0054" cy="1785.4512" fill="#E2E2F0" rx="8" ry="8" style="stroke:#181818;stroke-width:0.5;"/><path d="M53.0054,1793.4512 L53.0054,1820.4512 M40.0054,1801.4512 L66.0054,1801.4512 M53.0054,1820.4512 L40.0054,1835.4512 M53.0054,1820.4512 L66.0054,1835.4512 " fill="none" style="stroke:#181818;stroke-width:0.5;"/><rect fill="#E2E2F0" height="30.4883" rx="2.5" ry="2.5" style="stroke:#181818;stroke-width:0.5;" width="85.7295" x="235.1553" y="50"/><text fill="#000000" font-family="sans-serif" font-size="14" lengthAdjust="spacing" textLength="71.7295" x="242.1553" y="70.5352">:AddCityUI</text><rect fill="#E2E2F0" height="30.4883" rx="2.5" ry="2.5" style="stroke:#181818;stroke-width:0.5;" width="85.7295" x="235.1553" y="1760.4629"/><text fill="#000000" font-family="sans-serif" font-size="14" lengthAdjust="spacing" textLength="71.7295" x="242.1553" y="1780.998">:AddCityUI</text><rect fill="#E2E2F0" height="30.4883" rx="2.5" ry="2.5" style="stroke:#181818;stroke-width:0.5;" width="140.1572" x="494.4858" y="50"/><text fill="#000000" font-family="sans-serif" font-size="14" lengthAdjust="spacing" textLength="126.1572" x="501.4858" y="70.5352">:AddCityController</text><rect fill="#E2E2F0" height="30.4883" rx="2.5" ry="2.5" style="stroke:#181818;stroke-width:0.5;" width="140.1572" x="494.4858" y="1760.4629"/><text fill="#000000" font-family="sans-serif" font-size="14" lengthAdjust="spacing" textLength="126.1572" x="501.4858" y="1780.998">:AddCityController</text><rect fill="#E2E2F0" height="46.9766" rx="2.5" ry="2.5" style="stroke:#181818;stroke-width:0.5;" width="72.5225" x="1040.6826" y="33.5117"/><text fill="#000000" font-family="sans-serif" font-size="14" lengthAdjust="spacing" textLength="55.166" x="1049.3608" y="54.0469">position</text><text fill="#000000" font-family="sans-serif" font-size="14" lengthAdjust="spacing" textLength="58.5225" x="1047.6826" y="70.5352">:Position</text><rect fill="#E2E2F0" height="46.9766" rx="2.5" ry="2.5" style="stroke:#181818;stroke-width:0.5;" width="72.5225" x="1040.6826" y="1760.4629"/><text fill="#000000" font-family="sans-serif" font-size="14" lengthAdjust="spacing" textLength="55.166" x="1049.3608" y="1780.998">position</text><text fill="#000000" font-family="sans-serif" font-size="14" lengthAdjust="spacing" textLength="58.5225" x="1047.6826" y="1797.4863">:Position</text><rect fill="#E2E2F0" height="46.9766" rx="2.5" ry="2.5" style="stroke:#181818;stroke-width:0.5;" width="96.9951" x="1123.2051" y="33.5117"/><text fill="#000000" font-family="sans-serif" font-size="14" lengthAdjust="spacing" textLength="76.9658" x="1133.2197" y="54.0469">houseBlock</text><text fill="#000000" font-family="sans-serif" font-size="14" lengthAdjust="spacing" textLength="82.9951" x="1130.2051" y="70.5352">:HouseBlock</text><rect fill="#E2E2F0" height="46.9766" rx="2.5" ry="2.5" style="stroke:#181818;stroke-width:0.5;" width="96.9951" x="1123.2051" y="1760.4629"/><text fill="#000000" font-family="sans-serif" font-size="14" lengthAdjust="spacing" textLength="76.9658" x="1133.2197" y="1780.998">houseBlock</text><text fill="#000000" font-family="sans-serif" font-size="14" lengthAdjust="spacing" textLength="82.9951" x="1130.2051" y="1797.4863">:HouseBlock</text><rect fill="#FFFFFF" height="1651.9746" style="stroke:#181818;stroke-width:1.0;" width="10" x="48.0054" y="91.4883"/><rect fill="#FFFFFF" height="1651.9746" style="stroke:#181818;stroke-width:1.0;" width="10" x="273.02" y="91.4883"/><rect fill="#FFFFFF" height="71.6211" style="stroke:#181818;stroke-width:1.0;" width="10" x="559.5645" y="142.1094"/><rect fill="#FFFFFF" height="71.6211" style="stroke:#181818;stroke-width:1.0;" width="10" x="559.5645" y="437.9043"/><rect fill="#FFFFFF" height="1204.627" style="stroke:#181818;stroke-width:1.0;" width="10" x="559.5645" y="538.8359"/><polygon fill="#181818" points="69.0054,108.7988,59.0054,112.7988,69.0054,116.7988,65.0054,112.7988" style="stroke:#181818;stroke-width:1.0;"/><line style="stroke:#181818;stroke-width:1.0;" x1="63.0054" x2="272.02" y1="112.7988" y2="112.7988"/><text fill="#000000" font-family="sans-serif" font-size="13" font-weight="bold" lengthAdjust="spacing" textLength="8.5757" x="75.0054" y="108.0566">1</text><text fill="#000000" font-family="sans-serif" font-size="13" lengthAdjust="spacing" textLength="56.4053" x="87.5811" y="108.0566">addCity()</text><polygon fill="#181818" points="547.5645,138.1094,557.5645,142.1094,547.5645,146.1094,551.5645,142.1094" style="stroke:#181818;stroke-width:1.0;"/><line style="stroke:#181818;stroke-width:1.0;" x1="283.02" x2="553.5645" y1="142.1094" y2="142.1094"/><text fill="#000000" font-family="sans-serif" font-size="13" font-weight="bold" lengthAdjust="spacing" textLength="8.5757" x="290.02" y="137.3672">2</text><text fill="#000000" font-family="sans-serif" font-size="13" lengthAdjust="spacing" textLength="162.8491" x="302.5957" y="137.3672">getNumberFreePositions()</text><line style="stroke:#181818;stroke-width:1.0;" x1="569.5645" x2="611.5645" y1="171.4199" y2="171.4199"/><line style="stroke:#181818;stroke-width:1.0;" x1="611.5645" x2="611.5645" y1="171.4199" y2="184.4199"/><line style="stroke:#181818;stroke-width:1.0;" x1="570.5645" x2="611.5645" y1="184.4199" y2="184.4199"/><polygon fill="#181818" points="580.5645,180.4199,570.5645,184.4199,580.5645,188.4199,576.5645,184.4199" style="stroke:#181818;stroke-width:1.0;"/><text fill="#000000" font-family="sans-serif" font-size="13" font-weight="bold" lengthAdjust="spacing" textLength="8.5757" x="576.5645" y="166.6777">3</text><text fill="#000000" font-family="sans-serif" font-size="13" lengthAdjust="spacing" textLength="330.9668" x="589.1401" y="166.6777">((mapHeight * mapWidth) - occupiedPositions.size())</text><polygon fill="#181818" points="294.02,209.7305,284.02,213.7305,294.02,217.7305,290.02,213.7305" style="stroke:#181818;stroke-width:1.0;"/><line style="stroke:#181818;stroke-width:1.0;stroke-dasharray:2.0,2.0;" x1="288.02" x2="563.5645" y1="213.7305" y2="213.7305"/><text fill="#000000" font-family="sans-serif" font-size="13" font-weight="bold" lengthAdjust="spacing" textLength="8.5757" x="300.02" y="208.9883">4</text><text fill="#000000" font-family="sans-serif" font-size="13" lengthAdjust="spacing" textLength="175.6396" x="312.5957" y="208.9883">return numberFreePositions</text><path d="M10,228.7305 L84.4468,228.7305 L84.4468,236.041 L74.4468,246.041 L10,246.041 L10,228.7305 " fill="#EEEEEE" style="stroke:#000000;stroke-width:1.5;"/><rect fill="none" height="180.8633" style="stroke:#000000;stroke-width:1.5;" width="444.1348" x="10" y="228.7305"/><text fill="#000000" font-family="sans-serif" font-size="13" font-weight="bold" lengthAdjust="spacing" textLength="29.4468" x="25" y="242.2988">loop</text><text fill="#000000" font-family="sans-serif" font-size="11" font-weight="bold" lengthAdjust="spacing" textLength="346.2529" x="99.4468" y="241.3652">[until number house blocks is valid (1 &lt; n &lt; nFreePositions)]</text><polygon fill="#181818" points="69.0054,263.3516,59.0054,267.3516,69.0054,271.3516,65.0054,267.3516" style="stroke:#181818;stroke-width:1.0;"/><line style="stroke:#181818;stroke-width:1.0;stroke-dasharray:2.0,2.0;" x1="63.0054" x2="272.02" y1="267.3516" y2="267.3516"/><text fill="#000000" font-family="sans-serif" font-size="13" font-weight="bold" lengthAdjust="spacing" textLength="8.5757" x="75.0054" y="262.6094">5</text><text fill="#000000" font-family="sans-serif" font-size="13" lengthAdjust="spacing" textLength="178.439" x="87.5811" y="262.6094">ask number of house blocks</text><polygon fill="#181818" points="261.02,292.6621,271.02,296.6621,261.02,300.6621,265.02,296.6621" style="stroke:#181818;stroke-width:1.0;"/><line style="stroke:#181818;stroke-width:1.0;" x1="58.0054" x2="267.02" y1="296.6621" y2="296.6621"/><text fill="#000000" font-family="sans-serif" font-size="13" font-weight="bold" lengthAdjust="spacing" textLength="8.5757" x="65.0054" y="291.9199">6</text><text fill="#000000" font-family="sans-serif" font-size="13" lengthAdjust="spacing" textLength="85.8647" x="77.5811" y="291.9199">enter number</text><path d="M20,311.6621 L82.1387,311.6621 L82.1387,318.9727 L72.1387,328.9727 L20,328.9727 L20,311.6621 " fill="#EEEEEE" style="stroke:#000000;stroke-width:1.5;"/><rect fill="none" height="90.9316" style="stroke:#000000;stroke-width:1.5;" width="424.1348" x="20" y="311.6621"/><text fill="#000000" font-family="sans-serif" font-size="13" font-weight="bold" lengthAdjust="spacing" textLength="17.1387" x="35" y="325.2305">alt</text><text fill="#000000" font-family="sans-serif" font-size="11" font-weight="bold" lengthAdjust="spacing" textLength="80.2549" x="97.1387" y="324.2969">[invalid value]</text><polygon fill="#181818" points="69.0054,346.2832,59.0054,350.2832,69.0054,354.2832,65.0054,350.2832" style="stroke:#181818;stroke-width:1.0;"/><line style="stroke:#181818;stroke-width:1.0;stroke-dasharray:2.0,2.0;" x1="63.0054" x2="272.02" y1="350.2832" y2="350.2832"/><text fill="#000000" font-family="sans-serif" font-size="13" font-weight="bold" lengthAdjust="spacing" textLength="8.5757" x="75.0054" y="345.541">7</text><text fill="#000000" font-family="sans-serif" font-size="13" lengthAdjust="spacing" textLength="177.0107" x="87.5811" y="345.541">Error message: invalid value</text><line style="stroke:#000000;stroke-width:1.0;stroke-dasharray:2.0,2.0;" x1="20" x2="444.1348" y1="359.2832" y2="359.2832"/><line style="stroke:#181818;stroke-width:1.0;" x1="283.02" x2="325.02" y1="381.5938" y2="381.5938"/><line style="stroke:#181818;stroke-width:1.0;" x1="325.02" x2="325.02" y1="381.5938" y2="394.5938"/><line style="stroke:#181818;stroke-width:1.0;" x1="284.02" x2="325.02" y1="394.5938" y2="394.5938"/><polygon fill="#181818" points="294.02,390.5938,284.02,394.5938,294.02,398.5938,290.02,394.5938" style="stroke:#181818;stroke-width:1.0;"/><text fill="#000000" font-family="sans-serif" font-size="13" font-weight="bold" lengthAdjust="spacing" textLength="8.5757" x="290.02" y="376.8516">8</text><text fill="#000000" font-family="sans-serif" font-size="13" lengthAdjust="spacing" textLength="119.5391" x="302.5957" y="376.8516">save nHouseBlocks</text><polygon fill="#181818" points="547.5645,433.9043,557.5645,437.9043,547.5645,441.9043,551.5645,437.9043" style="stroke:#181818;stroke-width:1.0;"/><line style="stroke:#181818;stroke-width:1.0;" x1="283.02" x2="553.5645" y1="437.9043" y2="437.9043"/><text fill="#000000" font-family="sans-serif" font-size="13" font-weight="bold" lengthAdjust="spacing" textLength="8.5757" x="290.02" y="433.1621">9</text><text fill="#000000" font-family="sans-serif" font-size="13" lengthAdjust="spacing" textLength="244.9688" x="302.5957" y="433.1621">setNumberHouseBlocks(nHouseBlocks)</text><line style="stroke:#181818;stroke-width:1.0;" x1="569.5645" x2="611.5645" y1="467.2148" y2="467.2148"/><line style="stroke:#181818;stroke-width:1.0;" x1="611.5645" x2="611.5645" y1="467.2148" y2="480.2148"/><line style="stroke:#181818;stroke-width:1.0;" x1="570.5645" x2="611.5645" y1="480.2148" y2="480.2148"/><polygon fill="#181818" points="580.5645,476.2148,570.5645,480.2148,580.5645,484.2148,576.5645,480.2148" style="stroke:#181818;stroke-width:1.0;"/><text fill="#000000" font-family="sans-serif" font-size="13" font-weight="bold" lengthAdjust="spacing" textLength="17.1514" x="576.5645" y="462.4727">10</text><text fill="#000000" font-family="sans-serif" font-size="13" lengthAdjust="spacing" textLength="160.4878" x="597.7158" y="462.4727">save numberHouseBlocks</text><polygon fill="#181818" points="294.02,505.5254,284.02,509.5254,294.02,513.5254,290.02,509.5254" style="stroke:#181818;stroke-width:1.0;"/><line style="stroke:#181818;stroke-width:1.0;stroke-dasharray:2.0,2.0;" x1="288.02" x2="563.5645" y1="509.5254" y2="509.5254"/><text fill="#000000" font-family="sans-serif" font-size="13" font-weight="bold" lengthAdjust="spacing" textLength="17.1514" x="300.02" y="504.7832">11</text><text fill="#000000" font-family="sans-serif" font-size="13" lengthAdjust="spacing" textLength="188.9189" x="321.1714" y="504.7832">numberHouseBlocks accepted</text><polygon fill="#181818" points="547.5645,534.8359,557.5645,538.8359,547.5645,542.8359,551.5645,538.8359" style="stroke:#181818;stroke-width:1.0;"/><line style="stroke:#181818;stroke-width:1.0;" x1="283.02" x2="553.5645" y1="538.8359" y2="538.8359"/><text fill="#000000" font-family="sans-serif" font-size="13" font-weight="bold" lengthAdjust="spacing" textLength="17.1514" x="290.02" y="534.0938">12</text><text fill="#000000" font-family="sans-serif" font-size="13" lengthAdjust="spacing" textLength="171.2471" x="311.1714" y="534.0938">setAutomaticHouseBlocks()</text><line style="stroke:#181818;stroke-width:1.0;" x1="569.5645" x2="611.5645" y1="568.1465" y2="568.1465"/><line style="stroke:#181818;stroke-width:1.0;" x1="611.5645" x2="611.5645" y1="568.1465" y2="581.1465"/><line style="stroke:#181818;stroke-width:1.0;" x1="570.5645" x2="611.5645" y1="581.1465" y2="581.1465"/><polygon fill="#181818" points="580.5645,577.1465,570.5645,581.1465,580.5645,585.1465,576.5645,581.1465" style="stroke:#181818;stroke-width:1.0;"/><text fill="#000000" font-family="sans-serif" font-size="13" font-weight="bold" lengthAdjust="spacing" textLength="17.1514" x="576.5645" y="563.4043">13</text><text fill="#000000" font-family="sans-serif" font-size="13" lengthAdjust="spacing" textLength="136.373" x="597.7158" y="563.4043">houseBlockList.clear()</text><line style="stroke:#181818;stroke-width:1.0;" x1="569.5645" x2="611.5645" y1="610.457" y2="610.457"/><line style="stroke:#181818;stroke-width:1.0;" x1="611.5645" x2="611.5645" y1="610.457" y2="623.457"/><line style="stroke:#181818;stroke-width:1.0;" x1="570.5645" x2="611.5645" y1="623.457" y2="623.457"/><polygon fill="#181818" points="580.5645,619.457,570.5645,623.457,580.5645,627.457,576.5645,623.457" style="stroke:#181818;stroke-width:1.0;"/><text fill="#000000" font-family="sans-serif" font-size="13" font-weight="bold" lengthAdjust="spacing" textLength="17.1514" x="576.5645" y="605.7148">14</text><text fill="#000000" font-family="sans-serif" font-size="13" lengthAdjust="spacing" textLength="217.9531" x="597.7158" y="605.7148">addedHouses = new ArrayList&lt;&gt;()</text><line style="stroke:#181818;stroke-width:1.0;" x1="569.5645" x2="611.5645" y1="652.7676" y2="652.7676"/><line style="stroke:#181818;stroke-width:1.0;" x1="611.5645" x2="611.5645" y1="652.7676" y2="665.7676"/><line style="stroke:#181818;stroke-width:1.0;" x1="570.5645" x2="611.5645" y1="665.7676" y2="665.7676"/><polygon fill="#181818" points="580.5645,661.7676,570.5645,665.7676,580.5645,669.7676,576.5645,665.7676" style="stroke:#181818;stroke-width:1.0;"/><text fill="#000000" font-family="sans-serif" font-size="13" font-weight="bold" lengthAdjust="spacing" textLength="17.1514" x="576.5645" y="648.0254">15</text><text fill="#000000" font-family="sans-serif" font-size="13" lengthAdjust="spacing" textLength="153.1245" x="597.7158" y="648.0254">centerX = getPositionX()</text><line style="stroke:#181818;stroke-width:1.0;" x1="569.5645" x2="611.5645" y1="695.0781" y2="695.0781"/><line style="stroke:#181818;stroke-width:1.0;" x1="611.5645" x2="611.5645" y1="695.0781" y2="708.0781"/><line style="stroke:#181818;stroke-width:1.0;" x1="570.5645" x2="611.5645" y1="708.0781" y2="708.0781"/><polygon fill="#181818" points="580.5645,704.0781,570.5645,708.0781,580.5645,712.0781,576.5645,708.0781" style="stroke:#181818;stroke-width:1.0;"/><text fill="#000000" font-family="sans-serif" font-size="13" font-weight="bold" lengthAdjust="spacing" textLength="17.1514" x="576.5645" y="690.3359">16</text><text fill="#000000" font-family="sans-serif" font-size="13" lengthAdjust="spacing" textLength="153.0483" x="597.7158" y="690.3359">centerY = getPositionY()</text><line style="stroke:#181818;stroke-width:1.0;" x1="569.5645" x2="611.5645" y1="737.3887" y2="737.3887"/><line style="stroke:#181818;stroke-width:1.0;" x1="611.5645" x2="611.5645" y1="737.3887" y2="750.3887"/><line style="stroke:#181818;stroke-width:1.0;" x1="570.5645" x2="611.5645" y1="750.3887" y2="750.3887"/><polygon fill="#181818" points="580.5645,746.3887,570.5645,750.3887,580.5645,754.3887,576.5645,750.3887" style="stroke:#181818;stroke-width:1.0;"/><text fill="#000000" font-family="sans-serif" font-size="13" font-weight="bold" lengthAdjust="spacing" textLength="17.1514" x="576.5645" y="732.6465">17</text><text fill="#000000" font-family="sans-serif" font-size="13" lengthAdjust="spacing" textLength="121.7671" x="597.7158" y="732.6465">scaleValue = 0.065</text><line style="stroke:#181818;stroke-width:1.0;" x1="569.5645" x2="611.5645" y1="779.6992" y2="779.6992"/><line style="stroke:#181818;stroke-width:1.0;" x1="611.5645" x2="611.5645" y1="779.6992" y2="792.6992"/><line style="stroke:#181818;stroke-width:1.0;" x1="570.5645" x2="611.5645" y1="792.6992" y2="792.6992"/><polygon fill="#181818" points="580.5645,788.6992,570.5645,792.6992,580.5645,796.6992,576.5645,792.6992" style="stroke:#181818;stroke-width:1.0;"/><text fill="#000000" font-family="sans-serif" font-size="13" font-weight="bold" lengthAdjust="spacing" textLength="17.1514" x="576.5645" y="774.957">18</text><text fill="#000000" font-family="sans-serif" font-size="13" lengthAdjust="spacing" textLength="92.5933" x="597.7158" y="774.957">nAttempts = 0</text><path d="M470,805.6992 L470,830.6992 L658,830.6992 L658,815.6992 L648,805.6992 L470,805.6992 " fill="#FEFFDD" style="stroke:#181818;stroke-width:0.5;"/><path d="M648,805.6992 L648,815.6992 L658,815.6992 L648,805.6992 " fill="#FEFFDD" style="stroke:#181818;stroke-width:0.5;"/><text fill="#000000" font-family="sans-serif" font-size="13" lengthAdjust="spacing" textLength="167.0322" x="476" y="823.2676">other variables read above</text><path d="M409,843.0098 L483.4468,843.0098 L483.4468,850.3203 L473.4468,860.3203 L409,860.3203 L409,843.0098 " fill="#EEEEEE" style="stroke:#000000;stroke-width:1.5;"/><rect fill="none" height="872.1426" style="stroke:#000000;stroke-width:1.5;" width="851.2002" x="409" y="843.0098"/><text fill="#000000" font-family="sans-serif" font-size="13" font-weight="bold" lengthAdjust="spacing" textLength="29.4468" x="424" y="856.5781">loop</text><text fill="#000000" font-family="sans-serif" font-size="11" font-weight="bold" lengthAdjust="spacing" textLength="284.1147" x="498.4468" y="855.6445">[while addedHouses.size() &lt; numberHouseBlocks]</text><path d="M484.4858,867.3203 L546.6245,867.3203 L546.6245,874.6309 L536.6245,884.6309 L484.4858,884.6309 L484.4858,867.3203 " fill="#EEEEEE" style="stroke:#000000;stroke-width:1.5;"/><rect fill="none" height="103.9316" style="stroke:#000000;stroke-width:1.5;" width="263.2622" x="484.4858" y="867.3203"/><text fill="#000000" font-family="sans-serif" font-size="13" font-weight="bold" lengthAdjust="spacing" textLength="17.1387" x="499.4858" y="880.8887">alt</text><text fill="#000000" font-family="sans-serif" font-size="11" font-weight="bold" lengthAdjust="spacing" textLength="99.478" x="561.6245" y="879.9551">[nAttempts == 0]</text><line style="stroke:#181818;stroke-width:1.0;" x1="569.5645" x2="611.5645" y1="905.9414" y2="905.9414"/><line style="stroke:#181818;stroke-width:1.0;" x1="611.5645" x2="611.5645" y1="905.9414" y2="918.9414"/><line style="stroke:#181818;stroke-width:1.0;" x1="570.5645" x2="611.5645" y1="918.9414" y2="918.9414"/><polygon fill="#181818" points="580.5645,914.9414,570.5645,918.9414,580.5645,922.9414,576.5645,918.9414" style="stroke:#181818;stroke-width:1.0;"/><text fill="#000000" font-family="sans-serif" font-size="13" font-weight="bold" lengthAdjust="spacing" textLength="17.1514" x="576.5645" y="901.1992">19</text><text fill="#000000" font-family="sans-serif" font-size="13" lengthAdjust="spacing" textLength="121.7671" x="597.7158" y="901.1992">scaleValue = 0.065</text><line style="stroke:#000000;stroke-width:1.0;stroke-dasharray:2.0,2.0;" x1="484.4858" x2="747.748" y1="927.9414" y2="927.9414"/><line style="stroke:#181818;stroke-width:1.0;" x1="569.5645" x2="611.5645" y1="950.252" y2="950.252"/><line style="stroke:#181818;stroke-width:1.0;" x1="611.5645" x2="611.5645" y1="950.252" y2="963.252"/><line style="stroke:#181818;stroke-width:1.0;" x1="570.5645" x2="611.5645" y1="963.252" y2="963.252"/><polygon fill="#181818" points="580.5645,959.252,570.5645,963.252,580.5645,967.252,576.5645,963.252" style="stroke:#181818;stroke-width:1.0;"/><text fill="#000000" font-family="sans-serif" font-size="13" font-weight="bold" lengthAdjust="spacing" textLength="17.1514" x="576.5645" y="945.5098">20</text><text fill="#000000" font-family="sans-serif" font-size="13" lengthAdjust="spacing" textLength="128.0322" x="597.7158" y="945.5098">scaleValue *= 1.005</text><line style="stroke:#181818;stroke-width:1.0;" x1="569.5645" x2="611.5645" y1="999.5625" y2="999.5625"/><line style="stroke:#181818;stroke-width:1.0;" x1="611.5645" x2="611.5645" y1="999.5625" y2="1012.5625"/><line style="stroke:#181818;stroke-width:1.0;" x1="570.5645" x2="611.5645" y1="1012.5625" y2="1012.5625"/><polygon fill="#181818" points="580.5645,1008.5625,570.5645,1012.5625,580.5645,1016.5625,576.5645,1012.5625" style="stroke:#181818;stroke-width:1.0;"/><text fill="#000000" font-family="sans-serif" font-size="13" font-weight="bold" lengthAdjust="spacing" textLength="17.1514" x="576.5645" y="994.8203">21</text><text fill="#000000" font-family="sans-serif" font-size="13" lengthAdjust="spacing" textLength="220.7461" x="597.7158" y="994.8203">sigma = targetHouses * scaleValue</text><line style="stroke:#181818;stroke-width:1.0;" x1="569.5645" x2="611.5645" y1="1041.873" y2="1041.873"/><line style="stroke:#181818;stroke-width:1.0;" x1="611.5645" x2="611.5645" y1="1041.873" y2="1054.873"/><line style="stroke:#181818;stroke-width:1.0;" x1="570.5645" x2="611.5645" y1="1054.873" y2="1054.873"/><polygon fill="#181818" points="580.5645,1050.873,570.5645,1054.873,580.5645,1058.873,576.5645,1054.873" style="stroke:#181818;stroke-width:1.0;"/><text fill="#000000" font-family="sans-serif" font-size="13" font-weight="bold" lengthAdjust="spacing" textLength="17.1514" x="576.5645" y="1037.1309">22</text><text fill="#000000" font-family="sans-serif" font-size="13" lengthAdjust="spacing" textLength="213.3765" x="597.7158" y="1037.1309">dx = rand.nextGaussian() * sigma</text><line style="stroke:#181818;stroke-width:1.0;" x1="569.5645" x2="611.5645" y1="1084.1836" y2="1084.1836"/><line style="stroke:#181818;stroke-width:1.0;" x1="611.5645" x2="611.5645" y1="1084.1836" y2="1097.1836"/><line style="stroke:#181818;stroke-width:1.0;" x1="570.5645" x2="611.5645" y1="1097.1836" y2="1097.1836"/><polygon fill="#181818" points="580.5645,1093.1836,570.5645,1097.1836,580.5645,1101.1836,576.5645,1097.1836" style="stroke:#181818;stroke-width:1.0;"/><text fill="#000000" font-family="sans-serif" font-size="13" font-weight="bold" lengthAdjust="spacing" textLength="17.1514" x="576.5645" y="1079.4414">23</text><text fill="#000000" font-family="sans-serif" font-size="13" lengthAdjust="spacing" textLength="212.1958" x="597.7158" y="1079.4414">dy = rand.nextGaussian() * sigma</text><line style="stroke:#181818;stroke-width:1.0;" x1="569.5645" x2="611.5645" y1="1126.4941" y2="1126.4941"/><line style="stroke:#181818;stroke-width:1.0;" x1="611.5645" x2="611.5645" y1="1126.4941" y2="1139.4941"/><line style="stroke:#181818;stroke-width:1.0;" x1="570.5645" x2="611.5645" y1="1139.4941" y2="1139.4941"/><polygon fill="#181818" points="580.5645,1135.4941,570.5645,1139.4941,580.5645,1143.4941,576.5645,1139.4941" style="stroke:#181818;stroke-width:1.0;"/><text fill="#000000" font-family="sans-serif" font-size="13" font-weight="bold" lengthAdjust="spacing" textLength="17.1514" x="576.5645" y="1121.752">24</text><text fill="#000000" font-family="sans-serif" font-size="13" lengthAdjust="spacing" textLength="154.8574" x="597.7158" y="1121.752">x = round(centerX + dx)</text><line style="stroke:#181818;stroke-width:1.0;" x1="569.5645" x2="611.5645" y1="1168.8047" y2="1168.8047"/><line style="stroke:#181818;stroke-width:1.0;" x1="611.5645" x2="611.5645" y1="1168.8047" y2="1181.8047"/><line style="stroke:#181818;stroke-width:1.0;" x1="570.5645" x2="611.5645" y1="1181.8047" y2="1181.8047"/><polygon fill="#181818" points="580.5645,1177.8047,570.5645,1181.8047,580.5645,1185.8047,576.5645,1181.8047" style="stroke:#181818;stroke-width:1.0;"/><text fill="#000000" font-family="sans-serif" font-size="13" font-weight="bold" lengthAdjust="spacing" textLength="17.1514" x="576.5645" y="1164.0625">25</text><text fill="#000000" font-family="sans-serif" font-size="13" lengthAdjust="spacing" textLength="152.458" x="597.7158" y="1164.0625">y = round(centerY + dy)</text><path d="M419,1196.8047 L481.1387,1196.8047 L481.1387,1204.1152 L471.1387,1214.1152 L419,1214.1152 L419,1196.8047 " fill="#EEEEEE" style="stroke:#000000;stroke-width:1.5;"/><rect fill="none" height="511.3477" style="stroke:#000000;stroke-width:1.5;" width="831.2002" x="419" y="1196.8047"/><text fill="#000000" font-family="sans-serif" font-size="13" font-weight="bold" lengthAdjust="spacing" textLength="17.1387" x="434" y="1210.373">alt</text><text fill="#000000" font-family="sans-serif" font-size="11" font-weight="bold" lengthAdjust="spacing" textLength="245.4268" x="496.1387" y="1209.4395">[x &lt; 0 || x &gt;= width || y &lt; 0 || y &gt;= height]</text><path d="M472,1219.1152 L472,1244.1152 L657,1244.1152 L657,1229.1152 L647,1219.1152 L472,1219.1152 " fill="#FEFFDD" style="stroke:#181818;stroke-width:0.5;"/><path d="M647,1219.1152 L647,1229.1152 L657,1229.1152 L647,1219.1152 " fill="#FEFFDD" style="stroke:#181818;stroke-width:0.5;"/><text fill="#000000" font-family="sans-serif" font-size="13" lengthAdjust="spacing" textLength="164.0107" x="478" y="1236.6836">off-limits position, ignore</text><line style="stroke:#000000;stroke-width:1.0;stroke-dasharray:2.0,2.0;" x1="419" x2="1250.2002" y1="1250.4258" y2="1250.4258"/><polygon fill="#181818" points="1064.9438,1268.7363,1074.9438,1272.7363,1064.9438,1276.7363,1068.9438,1272.7363" style="stroke:#181818;stroke-width:1.0;"/><line style="stroke:#181818;stroke-width:1.0;" x1="569.5645" x2="1070.9438" y1="1272.7363" y2="1272.7363"/><text fill="#000000" font-family="sans-serif" font-size="13" font-weight="bold" lengthAdjust="spacing" textLength="17.1514" x="576.5645" y="1267.9941">26</text><text fill="#000000" font-family="sans-serif" font-size="13" lengthAdjust="spacing" textLength="111.1157" x="597.7158" y="1267.9941">new Position(x, y)</text><line style="stroke:#181818;stroke-width:1.0;" x1="569.5645" x2="611.5645" y1="1302.0469" y2="1302.0469"/><line style="stroke:#181818;stroke-width:1.0;" x1="611.5645" x2="611.5645" y1="1302.0469" y2="1315.0469"/><line style="stroke:#181818;stroke-width:1.0;" x1="570.5645" x2="611.5645" y1="1315.0469" y2="1315.0469"/><polygon fill="#181818" points="580.5645,1311.0469,570.5645,1315.0469,580.5645,1319.0469,576.5645,1315.0469" style="stroke:#181818;stroke-width:1.0;"/><text fill="#000000" font-family="sans-serif" font-size="13" font-weight="bold" lengthAdjust="spacing" textLength="17.1514" x="576.5645" y="1297.3047">27</text><text fill="#000000" font-family="sans-serif" font-size="13" lengthAdjust="spacing" textLength="192.9243" x="597.7158" y="1297.3047">check if busy or already added</text><path d="M429,1330.0469 L491.1387,1330.0469 L491.1387,1337.3574 L481.1387,1347.3574 L429,1347.3574 L429,1330.0469 " fill="#EEEEEE" style="stroke:#000000;stroke-width:1.5;"/><rect fill="none" height="371.1055" style="stroke:#000000;stroke-width:1.5;" width="811.2002" x="429" y="1330.0469"/><text fill="#000000" font-family="sans-serif" font-size="13" font-weight="bold" lengthAdjust="spacing" textLength="17.1387" x="444" y="1343.6152">alt</text><text fill="#000000" font-family="sans-serif" font-size="11" font-weight="bold" lengthAdjust="spacing" textLength="124.2388" x="506.1387" y="1342.6816">[ocupada ou repetida]</text><line style="stroke:#181818;stroke-width:1.0;" x1="569.5645" x2="611.5645" y1="1368.668" y2="1368.668"/><line style="stroke:#181818;stroke-width:1.0;" x1="611.5645" x2="611.5645" y1="1368.668" y2="1381.668"/><line style="stroke:#181818;stroke-width:1.0;" x1="570.5645" x2="611.5645" y1="1381.668" y2="1381.668"/><polygon fill="#181818" points="580.5645,1377.668,570.5645,1381.668,580.5645,1385.668,576.5645,1381.668" style="stroke:#181818;stroke-width:1.0;"/><text fill="#000000" font-family="sans-serif" font-size="13" font-weight="bold" lengthAdjust="spacing" textLength="17.1514" x="576.5645" y="1363.9258">28</text><text fill="#000000" font-family="sans-serif" font-size="13" lengthAdjust="spacing" textLength="86.4805" x="597.7158" y="1363.9258">nAttempts++</text><line style="stroke:#000000;stroke-width:1.0;stroke-dasharray:2.0,2.0;" x1="429" x2="1240.2002" y1="1390.668" y2="1390.668"/><line style="stroke:#181818;stroke-width:1.0;" x1="569.5645" x2="611.5645" y1="1412.9785" y2="1412.9785"/><line style="stroke:#181818;stroke-width:1.0;" x1="611.5645" x2="611.5645" y1="1412.9785" y2="1425.9785"/><line style="stroke:#181818;stroke-width:1.0;" x1="570.5645" x2="611.5645" y1="1425.9785" y2="1425.9785"/><polygon fill="#181818" points="580.5645,1421.9785,570.5645,1425.9785,580.5645,1429.9785,576.5645,1425.9785" style="stroke:#181818;stroke-width:1.0;"/><text fill="#000000" font-family="sans-serif" font-size="13" font-weight="bold" lengthAdjust="spacing" textLength="17.1514" x="576.5645" y="1408.2363">29</text><text fill="#000000" font-family="sans-serif" font-size="13" lengthAdjust="spacing" textLength="249.8057" x="597.7158" y="1408.2363">distance = Math.sqrt(dx * dx + dy * dy)</text><line style="stroke:#181818;stroke-width:1.0;" x1="569.5645" x2="611.5645" y1="1455.2891" y2="1455.2891"/><line style="stroke:#181818;stroke-width:1.0;" x1="611.5645" x2="611.5645" y1="1455.2891" y2="1468.2891"/><line style="stroke:#181818;stroke-width:1.0;" x1="570.5645" x2="611.5645" y1="1468.2891" y2="1468.2891"/><polygon fill="#181818" points="580.5645,1464.2891,570.5645,1468.2891,580.5645,1472.2891,576.5645,1468.2891" style="stroke:#181818;stroke-width:1.0;"/><text fill="#000000" font-family="sans-serif" font-size="13" font-weight="bold" lengthAdjust="spacing" textLength="17.1514" x="576.5645" y="1450.5469">30</text><text fill="#000000" font-family="sans-serif" font-size="13" lengthAdjust="spacing" textLength="457.228" x="597.7158" y="1450.5469">acceptanceProbability = Math.exp(-0.5 * Math.pow(distance / sigma, 2))</text><path d="M439,1483.2891 L501.1387,1483.2891 L501.1387,1490.5996 L491.1387,1500.5996 L439,1500.5996 L439,1483.2891 " fill="#EEEEEE" style="stroke:#000000;stroke-width:1.5;"/><rect fill="none" height="210.8633" style="stroke:#000000;stroke-width:1.5;" width="791.2002" x="439" y="1483.2891"/><text fill="#000000" font-family="sans-serif" font-size="13" font-weight="bold" lengthAdjust="spacing" textLength="17.1387" x="454" y="1496.8574">alt</text><text fill="#000000" font-family="sans-serif" font-size="11" font-weight="bold" lengthAdjust="spacing" textLength="100.7617" x="516.1387" y="1495.9238">[accepts position]</text><line style="stroke:#181818;stroke-width:1.0;" x1="569.5645" x2="611.5645" y1="1521.9102" y2="1521.9102"/><line style="stroke:#181818;stroke-width:1.0;" x1="611.5645" x2="611.5645" y1="1521.9102" y2="1534.9102"/><line style="stroke:#181818;stroke-width:1.0;" x1="570.5645" x2="611.5645" y1="1534.9102" y2="1534.9102"/><polygon fill="#181818" points="580.5645,1530.9102,570.5645,1534.9102,580.5645,1538.9102,576.5645,1534.9102" style="stroke:#181818;stroke-width:1.0;"/><text fill="#000000" font-family="sans-serif" font-size="13" font-weight="bold" lengthAdjust="spacing" textLength="17.1514" x="576.5645" y="1517.168">31</text><text fill="#000000" font-family="sans-serif" font-size="13" lengthAdjust="spacing" textLength="92.5933" x="597.7158" y="1517.168">nAttempts = 0</text><polygon fill="#181818" points="1159.7026,1560.2207,1169.7026,1564.2207,1159.7026,1568.2207,1163.7026,1564.2207" style="stroke:#181818;stroke-width:1.0;"/><line style="stroke:#181818;stroke-width:1.0;" x1="569.5645" x2="1165.7026" y1="1564.2207" y2="1564.2207"/><text fill="#000000" font-family="sans-serif" font-size="13" font-weight="bold" lengthAdjust="spacing" textLength="17.1514" x="576.5645" y="1559.4785">32</text><text fill="#000000" font-family="sans-serif" font-size="13" lengthAdjust="spacing" textLength="133.6436" x="597.7158" y="1559.4785">new HouseBlock(pos)</text><line style="stroke:#181818;stroke-width:1.0;" x1="569.5645" x2="611.5645" y1="1593.5313" y2="1593.5313"/><line style="stroke:#181818;stroke-width:1.0;" x1="611.5645" x2="611.5645" y1="1593.5313" y2="1606.5313"/><line style="stroke:#181818;stroke-width:1.0;" x1="570.5645" x2="611.5645" y1="1606.5313" y2="1606.5313"/><polygon fill="#181818" points="580.5645,1602.5313,570.5645,1606.5313,580.5645,1610.5313,576.5645,1606.5313" style="stroke:#181818;stroke-width:1.0;"/><text fill="#000000" font-family="sans-serif" font-size="13" font-weight="bold" lengthAdjust="spacing" textLength="17.1514" x="576.5645" y="1588.7891">33</text><text fill="#000000" font-family="sans-serif" font-size="13" lengthAdjust="spacing" textLength="201.2271" x="597.7158" y="1588.7891">houseBlockList.add(houseBlock)</text><line style="stroke:#181818;stroke-width:1.0;" x1="569.5645" x2="611.5645" y1="1635.8418" y2="1635.8418"/><line style="stroke:#181818;stroke-width:1.0;" x1="611.5645" x2="611.5645" y1="1635.8418" y2="1648.8418"/><line style="stroke:#181818;stroke-width:1.0;" x1="570.5645" x2="611.5645" y1="1648.8418" y2="1648.8418"/><polygon fill="#181818" points="580.5645,1644.8418,570.5645,1648.8418,580.5645,1652.8418,576.5645,1648.8418" style="stroke:#181818;stroke-width:1.0;"/><text fill="#000000" font-family="sans-serif" font-size="13" font-weight="bold" lengthAdjust="spacing" textLength="17.1514" x="576.5645" y="1631.0996">34</text><text fill="#000000" font-family="sans-serif" font-size="13" lengthAdjust="spacing" textLength="172.4087" x="597.7158" y="1631.0996">addedHouses.add(position)</text><line style="stroke:#000000;stroke-width:1.0;stroke-dasharray:2.0,2.0;" x1="439" x2="1230.2002" y1="1657.8418" y2="1657.8418"/><path d="M449,1663.8418 L449,1688.8418 L678,1688.8418 L678,1673.8418 L668,1663.8418 L449,1663.8418 " fill="#FEFFDD" style="stroke:#181818;stroke-width:0.5;"/><path d="M668,1663.8418 L668,1673.8418 L678,1673.8418 L668,1663.8418 " fill="#FEFFDD" style="stroke:#181818;stroke-width:0.5;"/><text fill="#000000" font-family="sans-serif" font-size="13" lengthAdjust="spacing" textLength="208.3491" x="455" y="1681.4102">rejected by Gaussian distribution</text><polygon fill="#181818" points="289.02,1739.4629,279.02,1743.4629,289.02,1747.4629,285.02,1743.4629" style="stroke:#181818;stroke-width:1.0;"/><line style="stroke:#181818;stroke-width:1.0;stroke-dasharray:2.0,2.0;" x1="283.02" x2="563.5645" y1="1743.4629" y2="1743.4629"/><text fill="#000000" font-family="sans-serif" font-size="13" font-weight="bold" lengthAdjust="spacing" textLength="17.1514" x="295.02" y="1738.7207">35</text><text fill="#000000" font-family="sans-serif" font-size="13" lengthAdjust="spacing" textLength="229.4932" x="316.1714" y="1738.7207">automatic house blocks successfully</text><!--SRC=[dLRRRkCs47ttLmpo93c9wosmVJ0s0P8qRG9ijq5tqsw0leoaiSLQ9bMIigrYFxv3MJVhuYOrO5kapXmUSiwGD6iXKzIuWHJ3DQxeiyqJ0asXHRbAQ69gW8anKZiXLx34nBJV94AIpLC2fMsi9fXP9RDDG7eomT0g3MVtaU3_Cq03zpz-cN2O5Q58KLeuMzn4qPsm-VDZyVxvSVZrdP9MgoIX0ytTbzy-7WDJPOGLIluf5q_bOu5y-lNpCJ1McQ7RH8LhXZxKZGByS5je5bkqL4Yj6wph-H4khrqlB00FgZo_x7Lwk7j5zbCnzPyqKIN3C0huKtCLug7y594DW-TjC7qWiOejJ86V_n2HZNsu11M6MIeegcbdHln3dkztg9YBDIquYJRJ4cHVJn4GKLzFebGAcRGYASEWM2m8t08P40Qsc8W8l7Vm0QJx7l4sIjoYD6jbrXMTMXunrdW7h7IJj8mi7LG1CB4Wv65q_iseVjCRxbvhzjo6Z64_BqQYo5cuIr4ACBWba8qp6faaeqdx_oZtfifzAz9hqxp11GS9NRQHHFTmF4P8gQLeDD5TuJTSinla6cbhVuFUfgO-2cDdOKAeFNyCpSL3KJ6IWIkGj8CRhJ5teH-knyF2mXbVEOJBh3BTr__2lnpZNyRn9iI4VdSsuP3vRFx3-p4ao1jhQPDQftzUewJYPL9RTc-9KpRcnXQrm23XoMh2231WI1rJbDmk5hphjfQbB6rNOQCcgCgYfQKjvksJ7AoBqnJJAtWtcyyx76LrZ8MBrGPvS8kQyrBQODfYFHKSxJbIeuncalRsPyoC4IXvfQO7tfEn-V-FBOPLcOoyoeNdhCK_5P9tGbvSIExtyhVdBC_XspT-kBw2dTlkNIklkdFN7HSdGYypVSSjbvU9s0XsGtKWNe1OIQNfzNdc8zDjAroNLTLu-mleI1ygk9Z2DOWb19d9-JR0qtEEpm_ExaMxoIi-qp12K1aNHqfMHDZ33OnKU_xyl0SVdDgG7NYxGHcwElW5RJmpVslhiR-cpcGkLUvfOD936rgntpgo9wq234J2TuEAb_QfTpcVlMUwefsgdLUF_Tt1UXVmlJyyabka0tsJqK7WgLM2eOsX6_HmMoQzsMmy7j5_xMYTCu1pxZLThsPfRuAEefhpCC5ehWUBGzDVVB6b288Sgl8lRA15a8qkR7Sx6-fhjzlFnmSrLgViyRNAP9nVOvPPakI39tQhpTVGLeilFFy2]--></g></svg>