<svg xmlns="http://www.w3.org/2000/svg" xmlns:xlink="http://www.w3.org/1999/xlink" contentStyleType="text/css" height="1267px" preserveAspectRatio="none" style="width:1723px;height:1267px;background:#FFFFFF;" version="1.1" viewBox="0 0 1723 1267" width="1723px" zoomAndPan="magnify"><defs/><g><rect fill="#FFFFFF" height="1085.2246" style="stroke:#181818;stroke-width:1.0;" width="10" x="38.0054" y="91.4883"/><rect fill="#FFFFFF" height="1063.9141" style="stroke:#181818;stroke-width:1.0;" width="10" x="360.3105" y="112.7988"/><rect fill="#FFFFFF" height="942.6719" style="stroke:#181818;stroke-width:1.0;" width="10" x="501.0557" y="142.1094"/><rect fill="#FFFFFF" height="29.3105" style="stroke:#181818;stroke-width:1.0;" width="10" x="630.0317" y="283.0176"/><rect fill="#FFFFFF" height="29.3105" style="stroke:#181818;stroke-width:1.0;" width="10" x="740.0415" y="341.6387"/><rect fill="#FFFFFF" height="29.3105" style="stroke:#181818;stroke-width:1.0;" width="10" x="740.0415" y="400.2598"/><rect fill="#FFFFFF" height="29.3105" style="stroke:#181818;stroke-width:1.0;" width="10" x="859.5737" y="458.8809"/><rect fill="#FFFFFF" height="71.6211" style="stroke:#181818;stroke-width:1.0;" width="10" x="1012.5542" y="600.4336"/><rect fill="#FFFFFF" height="855.3848" style="stroke:#181818;stroke-width:1.0;" width="10" x="1253.3809" y="229.3965"/><rect fill="#FFFFFF" height="47.9766" style="stroke:#181818;stroke-width:1.0;" width="10" x="1596.0811" y="869.6074"/><rect fill="#FFFFFF" height="29.3105" style="stroke:#181818;stroke-width:1.0;" width="10" x="1679.0684" y="517.502"/><rect fill="none" height="833.3848" style="stroke:#000000;stroke-width:1.5;" width="1403.9795" x="312.4458" y="244.3965"/><rect fill="none" height="118.2422" style="stroke:#000000;stroke-width:1.5;" width="386.9907" x="922.9937" y="561.8125"/><rect fill="none" height="146.9082" style="stroke:#000000;stroke-width:1.5;" width="454.9341" x="1206.7773" y="820.9863"/><rect fill="none" height="77.9316" style="stroke:#000000;stroke-width:1.5;" width="408.1753" x="10" y="1091.7813"/><line style="stroke:#181818;stroke-width:0.5;stroke-dasharray:5.0,5.0;" x1="43" x2="43" y1="81.4883" y2="1186.7129"/><line style="stroke:#181818;stroke-width:0.5;stroke-dasharray:5.0,5.0;" x1="364.4458" x2="364.4458" y1="81.4883" y2="1186.7129"/><line style="stroke:#181818;stroke-width:0.5;stroke-dasharray:5.0,5.0;" x1="505.9771" x2="505.9771" y1="81.4883" y2="1186.7129"/><line style="stroke:#181818;stroke-width:0.5;stroke-dasharray:5.0,5.0;" x1="634.1343" x2="634.1343" y1="81.4883" y2="1186.7129"/><line style="stroke:#181818;stroke-width:0.5;stroke-dasharray:5.0,5.0;" x1="744.9292" x2="744.9292" y1="81.4883" y2="1186.7129"/><line style="stroke:#181818;stroke-width:0.5;stroke-dasharray:5.0,5.0;" x1="864.1538" x2="864.1538" y1="81.4883" y2="1186.7129"/><line style="stroke:#181818;stroke-width:0.5;stroke-dasharray:5.0,5.0;" x1="1016.9937" x2="1016.9937" y1="81.4883" y2="1186.7129"/><line style="stroke:#181818;stroke-width:0.5;stroke-dasharray:5.0,5.0;" x1="1257.7773" x2="1257.7773" y1="81.4883" y2="1186.7129"/><line style="stroke:#181818;stroke-width:0.5;stroke-dasharray:5.0,5.0;" x1="1600.4507" x2="1600.4507" y1="877.2852" y2="1186.7129"/><line style="stroke:#181818;stroke-width:0.5;stroke-dasharray:5.0,5.0;" x1="1683.7114" x2="1683.7114" y1="189.0977" y2="1186.7129"/><text fill="#000000" font-family="sans-serif" font-size="14" lengthAdjust="spacing" textLength="40.0107" x="20" y="78.5352">Editor</text><ellipse cx="43.0054" cy="13.5" fill="#E2E2F0" rx="8" ry="8" style="stroke:#181818;stroke-width:0.5;"/><path d="M43.0054,21.5 L43.0054,48.5 M30.0054,29.5 L56.0054,29.5 M43.0054,48.5 L30.0054,63.5 M43.0054,48.5 L56.0054,63.5 " fill="none" style="stroke:#181818;stroke-width:0.5;"/><text fill="#000000" font-family="sans-serif" font-size="14" lengthAdjust="spacing" textLength="40.0107" x="20" y="1199.248">Editor</text><ellipse cx="43.0054" cy="1210.7012" fill="#E2E2F0" rx="8" ry="8" style="stroke:#181818;stroke-width:0.5;"/><path d="M43.0054,1218.7012 L43.0054,1245.7012 M30.0054,1226.7012 L56.0054,1226.7012 M43.0054,1245.7012 L30.0054,1260.7012 M43.0054,1245.7012 L56.0054,1260.7012 " fill="none" style="stroke:#181818;stroke-width:0.5;"/><rect fill="#E2E2F0" height="30.4883" rx="2.5" ry="2.5" style="stroke:#181818;stroke-width:0.5;" width="85.7295" x="322.4458" y="50"/><text fill="#000000" font-family="sans-serif" font-size="14" lengthAdjust="spacing" textLength="71.7295" x="329.4458" y="70.5352">:AddCityUI</text><rect fill="#E2E2F0" height="30.4883" rx="2.5" ry="2.5" style="stroke:#181818;stroke-width:0.5;" width="85.7295" x="322.4458" y="1185.7129"/><text fill="#000000" font-family="sans-serif" font-size="14" lengthAdjust="spacing" textLength="71.7295" x="329.4458" y="1206.248">:AddCityUI</text><rect fill="#E2E2F0" height="30.4883" rx="2.5" ry="2.5" style="stroke:#181818;stroke-width:0.5;" width="140.1572" x="435.9771" y="50"/><text fill="#000000" font-family="sans-serif" font-size="14" lengthAdjust="spacing" textLength="126.1572" x="442.9771" y="70.5352">:AddCityController</text><rect fill="#E2E2F0" height="30.4883" rx="2.5" ry="2.5" style="stroke:#181818;stroke-width:0.5;" width="140.1572" x="435.9771" y="1185.7129"/><text fill="#000000" font-family="sans-serif" font-size="14" lengthAdjust="spacing" textLength="126.1572" x="442.9771" y="1206.248">:AddCityController</text><rect fill="#E2E2F0" height="30.4883" rx="2.5" ry="2.5" style="stroke:#181818;stroke-width:0.5;" width="97.7949" x="586.1343" y="50"/><text fill="#000000" font-family="sans-serif" font-size="14" lengthAdjust="spacing" textLength="83.7949" x="593.1343" y="70.5352">Repositories</text><rect fill="#E2E2F0" height="30.4883" rx="2.5" ry="2.5" style="stroke:#181818;stroke-width:0.5;" width="97.7949" x="586.1343" y="1185.7129"/><text fill="#000000" font-family="sans-serif" font-size="14" lengthAdjust="spacing" textLength="83.7949" x="593.1343" y="1206.248">Repositories</text><rect fill="#E2E2F0" height="46.9766" rx="2.5" ry="2.5" style="stroke:#181818;stroke-width:0.5;" width="102.2246" x="693.9292" y="33.5117"/><text fill="#000000" font-family="sans-serif" font-size="14" lengthAdjust="spacing" textLength="80.6709" x="704.7061" y="54.0469">repositories</text><text fill="#000000" font-family="sans-serif" font-size="14" lengthAdjust="spacing" textLength="88.2246" x="700.9292" y="70.5352">:Repositories</text><rect fill="#E2E2F0" height="46.9766" rx="2.5" ry="2.5" style="stroke:#181818;stroke-width:0.5;" width="102.2246" x="693.9292" y="1185.7129"/><text fill="#000000" font-family="sans-serif" font-size="14" lengthAdjust="spacing" textLength="80.6709" x="704.7061" y="1206.248">repositories</text><text fill="#000000" font-family="sans-serif" font-size="14" lengthAdjust="spacing" textLength="88.2246" x="700.9292" y="1222.7363">:Repositories</text><rect fill="#E2E2F0" height="46.9766" rx="2.5" ry="2.5" style="stroke:#181818;stroke-width:0.5;" width="116.8398" x="806.1538" y="33.5117"/><text fill="#000000" font-family="sans-serif" font-size="14" lengthAdjust="spacing" textLength="95.8945" x="816.6265" y="54.0469">cityRepository</text><text fill="#000000" font-family="sans-serif" font-size="14" lengthAdjust="spacing" textLength="102.8398" x="813.1538" y="70.5352">:CityRepository</text><rect fill="#E2E2F0" height="46.9766" rx="2.5" ry="2.5" style="stroke:#181818;stroke-width:0.5;" width="116.8398" x="806.1538" y="1185.7129"/><text fill="#000000" font-family="sans-serif" font-size="14" lengthAdjust="spacing" textLength="95.8945" x="816.6265" y="1206.248">cityRepository</text><text fill="#000000" font-family="sans-serif" font-size="14" lengthAdjust="spacing" textLength="102.8398" x="813.1538" y="1222.7363">:CityRepository</text><rect fill="#E2E2F0" height="46.9766" rx="2.5" ry="2.5" style="stroke:#181818;stroke-width:0.5;" width="169.1211" x="932.9937" y="33.5117"/><text fill="#000000" font-family="sans-serif" font-size="14" lengthAdjust="spacing" textLength="149.0918" x="943.0083" y="54.0469">houseBlockRepository</text><text fill="#000000" font-family="sans-serif" font-size="14" lengthAdjust="spacing" textLength="155.1211" x="939.9937" y="70.5352">:HouseBlockRepository</text><rect fill="#E2E2F0" height="46.9766" rx="2.5" ry="2.5" style="stroke:#181818;stroke-width:0.5;" width="169.1211" x="932.9937" y="1185.7129"/><text fill="#000000" font-family="sans-serif" font-size="14" lengthAdjust="spacing" textLength="149.0918" x="943.0083" y="1206.248">houseBlockRepository</text><text fill="#000000" font-family="sans-serif" font-size="14" lengthAdjust="spacing" textLength="155.1211" x="939.9937" y="1222.7363">:HouseBlockRepository</text><rect fill="#E2E2F0" height="46.9766" rx="2.5" ry="2.5" style="stroke:#181818;stroke-width:0.5;" width="83.207" x="1216.7773" y="33.5117"/><text fill="#000000" font-family="sans-serif" font-size="14" lengthAdjust="spacing" textLength="69.207" x="1223.7773" y="54.0469">actualMap</text><text fill="#000000" font-family="sans-serif" font-size="14" lengthAdjust="spacing" textLength="33.0313" x="1241.8652" y="70.5352">:Map</text><rect fill="#E2E2F0" height="46.9766" rx="2.5" ry="2.5" style="stroke:#181818;stroke-width:0.5;" width="83.207" x="1216.7773" y="1185.7129"/><text fill="#000000" font-family="sans-serif" font-size="14" lengthAdjust="spacing" textLength="69.207" x="1223.7773" y="1206.248">actualMap</text><text fill="#000000" font-family="sans-serif" font-size="14" lengthAdjust="spacing" textLength="33.0313" x="1241.8652" y="1222.7363">:Map</text><rect fill="#E2E2F0" height="46.9766" rx="2.5" ry="2.5" style="stroke:#181818;stroke-width:0.5;" width="101.2607" x="1550.4507" y="1185.7129"/><text fill="#000000" font-family="sans-serif" font-size="14" lengthAdjust="spacing" textLength="83.8428" x="1559.1597" y="1206.248">mapElement</text><text fill="#000000" font-family="sans-serif" font-size="14" lengthAdjust="spacing" textLength="87.2607" x="1557.4507" y="1222.7363">:MapElement</text><rect fill="#E2E2F0" height="46.9766" rx="2.5" ry="2.5" style="stroke:#181818;stroke-width:0.5;" width="44.7139" x="1661.7114" y="1185.7129"/><text fill="#000000" font-family="sans-serif" font-size="14" lengthAdjust="spacing" textLength="23.7686" x="1672.1841" y="1206.248">city</text><text fill="#000000" font-family="sans-serif" font-size="14" lengthAdjust="spacing" textLength="30.7139" x="1668.7114" y="1222.7363">:City</text><rect fill="#FFFFFF" height="1085.2246" style="stroke:#181818;stroke-width:1.0;" width="10" x="38.0054" y="91.4883"/><rect fill="#FFFFFF" height="1063.9141" style="stroke:#181818;stroke-width:1.0;" width="10" x="360.3105" y="112.7988"/><rect fill="#FFFFFF" height="942.6719" style="stroke:#181818;stroke-width:1.0;" width="10" x="501.0557" y="142.1094"/><rect fill="#FFFFFF" height="29.3105" style="stroke:#181818;stroke-width:1.0;" width="10" x="630.0317" y="283.0176"/><rect fill="#FFFFFF" height="29.3105" style="stroke:#181818;stroke-width:1.0;" width="10" x="740.0415" y="341.6387"/><rect fill="#FFFFFF" height="29.3105" style="stroke:#181818;stroke-width:1.0;" width="10" x="740.0415" y="400.2598"/><rect fill="#FFFFFF" height="29.3105" style="stroke:#181818;stroke-width:1.0;" width="10" x="859.5737" y="458.8809"/><rect fill="#FFFFFF" height="71.6211" style="stroke:#181818;stroke-width:1.0;" width="10" x="1012.5542" y="600.4336"/><rect fill="#FFFFFF" height="855.3848" style="stroke:#181818;stroke-width:1.0;" width="10" x="1253.3809" y="229.3965"/><rect fill="#FFFFFF" height="47.9766" style="stroke:#181818;stroke-width:1.0;" width="10" x="1596.0811" y="869.6074"/><rect fill="#FFFFFF" height="29.3105" style="stroke:#181818;stroke-width:1.0;" width="10" x="1679.0684" y="517.502"/><polygon fill="#181818" points="348.3105,108.7988,358.3105,112.7988,348.3105,116.7988,352.3105,112.7988" style="stroke:#181818;stroke-width:1.0;"/><line style="stroke:#181818;stroke-width:1.0;" x1="48.0054" x2="354.3105" y1="112.7988" y2="112.7988"/><text fill="#000000" font-family="sans-serif" font-size="13" font-weight="bold" lengthAdjust="spacing" textLength="8.5757" x="55.0054" y="108.0566">1</text><text fill="#000000" font-family="sans-serif" font-size="13" lengthAdjust="spacing" textLength="143.3364" x="67.5811" y="108.0566">start AddCityUI(mapId)</text><polygon fill="#181818" points="489.0557,138.1094,499.0557,142.1094,489.0557,146.1094,493.0557,142.1094" style="stroke:#181818;stroke-width:1.0;"/><line style="stroke:#181818;stroke-width:1.0;" x1="370.3105" x2="495.0557" y1="142.1094" y2="142.1094"/><text fill="#000000" font-family="sans-serif" font-size="13" font-weight="bold" lengthAdjust="spacing" textLength="8.5757" x="377.3105" y="137.3672">2</text><text fill="#000000" font-family="sans-serif" font-size="13" lengthAdjust="spacing" textLength="99.1694" x="389.8862" y="137.3672">addCityToMap()</text><polygon fill="#181818" points="1649.7114,167.4199,1659.7114,171.4199,1649.7114,175.4199,1653.7114,171.4199" style="stroke:#181818;stroke-width:1.0;"/><line style="stroke:#181818;stroke-width:1.0;" x1="511.0557" x2="1655.7114" y1="171.4199" y2="171.4199"/><text fill="#000000" font-family="sans-serif" font-size="13" font-weight="bold" lengthAdjust="spacing" textLength="8.5757" x="518.0557" y="166.6777">3</text><text fill="#000000" font-family="sans-serif" font-size="13" lengthAdjust="spacing" textLength="483.4502" x="530.6313" y="166.6777">city = new City(cityName, positionCity, houseBlockList, houseBlockPositions)</text><rect fill="#E2E2F0" height="46.9766" rx="2.5" ry="2.5" style="stroke:#181818;stroke-width:0.5;" width="44.7139" x="1661.7114" y="150.1094"/><text fill="#000000" font-family="sans-serif" font-size="14" lengthAdjust="spacing" textLength="23.7686" x="1672.1841" y="170.6445">city</text><text fill="#000000" font-family="sans-serif" font-size="14" lengthAdjust="spacing" textLength="30.7139" x="1668.7114" y="187.1328">:City</text><polygon fill="#181818" points="1241.3809,225.3965,1251.3809,229.3965,1241.3809,233.3965,1245.3809,229.3965" style="stroke:#181818;stroke-width:1.0;"/><line style="stroke:#181818;stroke-width:1.0;" x1="511.0557" x2="1247.3809" y1="229.3965" y2="229.3965"/><text fill="#000000" font-family="sans-serif" font-size="13" font-weight="bold" lengthAdjust="spacing" textLength="8.5757" x="518.0557" y="224.6543">4</text><text fill="#000000" font-family="sans-serif" font-size="13" lengthAdjust="spacing" textLength="104.4253" x="530.6313" y="224.6543">addElement(city)</text><path d="M312.4458,244.3965 L374.5845,244.3965 L374.5845,251.707 L364.5845,261.707 L312.4458,261.707 L312.4458,244.3965 " fill="#EEEEEE" style="stroke:#000000;stroke-width:1.5;"/><rect fill="none" height="833.3848" style="stroke:#000000;stroke-width:1.5;" width="1403.9795" x="312.4458" y="244.3965"/><text fill="#000000" font-family="sans-serif" font-size="13" font-weight="bold" lengthAdjust="spacing" textLength="17.1387" x="327.4458" y="257.9648">alt</text><text fill="#000000" font-family="sans-serif" font-size="11" font-weight="bold" lengthAdjust="spacing" textLength="52.1909" x="389.5845" y="257.0313">[success]</text><polygon fill="#181818" points="651.0317,279.0176,641.0317,283.0176,651.0317,287.0176,647.0317,283.0176" style="stroke:#181818;stroke-width:1.0;"/><line style="stroke:#181818;stroke-width:1.0;stroke-dasharray:2.0,2.0;" x1="645.0317" x2="1252.3809" y1="283.0176" y2="283.0176"/><text fill="#000000" font-family="sans-serif" font-size="13" font-weight="bold" lengthAdjust="spacing" textLength="8.5757" x="657.0317" y="278.2754">5</text><text fill="#000000" font-family="sans-serif" font-size="13" lengthAdjust="spacing" textLength="81.1167" x="669.6074" y="278.2754">getInstance()</text><polygon fill="#181818" points="1241.3809,308.3281,1251.3809,312.3281,1241.3809,316.3281,1245.3809,312.3281" style="stroke:#181818;stroke-width:1.0;"/><line style="stroke:#181818;stroke-width:1.0;" x1="635.0317" x2="1247.3809" y1="312.3281" y2="312.3281"/><text fill="#000000" font-family="sans-serif" font-size="13" font-weight="bold" lengthAdjust="spacing" textLength="8.5757" x="642.0317" y="307.5859">6</text><text fill="#000000" font-family="sans-serif" font-size="13" lengthAdjust="spacing" textLength="74.9087" x="654.6074" y="307.5859">repositories</text><polygon fill="#181818" points="761.0415,337.6387,751.0415,341.6387,761.0415,345.6387,757.0415,341.6387" style="stroke:#181818;stroke-width:1.0;"/><line style="stroke:#181818;stroke-width:1.0;stroke-dasharray:2.0,2.0;" x1="755.0415" x2="1252.3809" y1="341.6387" y2="341.6387"/><text fill="#000000" font-family="sans-serif" font-size="13" font-weight="bold" lengthAdjust="spacing" textLength="8.5757" x="767.0415" y="336.8965">7</text><text fill="#000000" font-family="sans-serif" font-size="13" lengthAdjust="spacing" textLength="120.0469" x="779.6172" y="336.8965">getCityRepository()</text><polygon fill="#181818" points="1241.3809,366.9492,1251.3809,370.9492,1241.3809,374.9492,1245.3809,370.9492" style="stroke:#181818;stroke-width:1.0;"/><line style="stroke:#181818;stroke-width:1.0;" x1="745.0415" x2="1247.3809" y1="370.9492" y2="370.9492"/><text fill="#000000" font-family="sans-serif" font-size="13" font-weight="bold" lengthAdjust="spacing" textLength="8.5757" x="752.0415" y="366.207">8</text><text fill="#000000" font-family="sans-serif" font-size="13" lengthAdjust="spacing" textLength="89.0449" x="764.6172" y="366.207">cityRepository</text><polygon fill="#181818" points="761.0415,396.2598,751.0415,400.2598,761.0415,404.2598,757.0415,400.2598" style="stroke:#181818;stroke-width:1.0;"/><line style="stroke:#181818;stroke-width:1.0;stroke-dasharray:2.0,2.0;" x1="755.0415" x2="1252.3809" y1="400.2598" y2="400.2598"/><text fill="#000000" font-family="sans-serif" font-size="13" font-weight="bold" lengthAdjust="spacing" textLength="8.5757" x="767.0415" y="395.5176">9</text><text fill="#000000" font-family="sans-serif" font-size="13" lengthAdjust="spacing" textLength="168.5938" x="779.6172" y="395.5176">getHouseBlockRepository()</text><polygon fill="#181818" points="1241.3809,425.5703,1251.3809,429.5703,1241.3809,433.5703,1245.3809,429.5703" style="stroke:#181818;stroke-width:1.0;"/><line style="stroke:#181818;stroke-width:1.0;" x1="745.0415" x2="1247.3809" y1="429.5703" y2="429.5703"/><text fill="#000000" font-family="sans-serif" font-size="13" font-weight="bold" lengthAdjust="spacing" textLength="17.1514" x="752.0415" y="424.8281">10</text><text fill="#000000" font-family="sans-serif" font-size="13" lengthAdjust="spacing" textLength="138.4424" x="773.1929" y="424.8281">houseBlockRepository</text><polygon fill="#181818" points="880.5737,454.8809,870.5737,458.8809,880.5737,462.8809,876.5737,458.8809" style="stroke:#181818;stroke-width:1.0;"/><line style="stroke:#181818;stroke-width:1.0;stroke-dasharray:2.0,2.0;" x1="874.5737" x2="1252.3809" y1="458.8809" y2="458.8809"/><text fill="#000000" font-family="sans-serif" font-size="13" font-weight="bold" lengthAdjust="spacing" textLength="17.1514" x="886.5737" y="454.1387">11</text><text fill="#000000" font-family="sans-serif" font-size="13" lengthAdjust="spacing" textLength="78.4761" x="907.7251" y="454.1387">addCity(city)</text><polygon fill="#181818" points="1241.3809,484.1914,1251.3809,488.1914,1241.3809,492.1914,1245.3809,488.1914" style="stroke:#181818;stroke-width:1.0;"/><line style="stroke:#181818;stroke-width:1.0;" x1="864.5737" x2="1247.3809" y1="488.1914" y2="488.1914"/><text fill="#000000" font-family="sans-serif" font-size="13" font-weight="bold" lengthAdjust="spacing" textLength="17.1514" x="871.5737" y="483.4492">12</text><text fill="#000000" font-family="sans-serif" font-size="13" lengthAdjust="spacing" textLength="80.5581" x="892.7251" y="483.4492">confirmation</text><polygon fill="#181818" points="1667.0684,513.502,1677.0684,517.502,1667.0684,521.502,1671.0684,517.502" style="stroke:#181818;stroke-width:1.0;"/><line style="stroke:#181818;stroke-width:1.0;" x1="1263.3809" x2="1673.0684" y1="517.502" y2="517.502"/><text fill="#000000" font-family="sans-serif" font-size="13" font-weight="bold" lengthAdjust="spacing" textLength="17.1514" x="1270.3809" y="512.7598">13</text><text fill="#000000" font-family="sans-serif" font-size="13" lengthAdjust="spacing" textLength="108.2466" x="1291.5322" y="512.7598">getHouseBlocks()</text><polygon fill="#181818" points="1274.3809,542.8125,1264.3809,546.8125,1274.3809,550.8125,1270.3809,546.8125" style="stroke:#181818;stroke-width:1.0;"/><line style="stroke:#181818;stroke-width:1.0;stroke-dasharray:2.0,2.0;" x1="1268.3809" x2="1683.0684" y1="546.8125" y2="546.8125"/><text fill="#000000" font-family="sans-serif" font-size="13" font-weight="bold" lengthAdjust="spacing" textLength="17.1514" x="1280.3809" y="542.0703">14</text><text fill="#000000" font-family="sans-serif" font-size="13" lengthAdjust="spacing" textLength="213.5605" x="1301.5322" y="542.0703">List&lt;HouseBlock&gt; houseBlockList</text><path d="M922.9937,561.8125 L997.4404,561.8125 L997.4404,569.123 L987.4404,579.123 L922.9937,579.123 L922.9937,561.8125 " fill="#EEEEEE" style="stroke:#000000;stroke-width:1.5;"/><rect fill="none" height="118.2422" style="stroke:#000000;stroke-width:1.5;" width="386.9907" x="922.9937" y="561.8125"/><text fill="#000000" font-family="sans-serif" font-size="13" font-weight="bold" lengthAdjust="spacing" textLength="29.4468" x="937.9937" y="575.3809">loop</text><text fill="#000000" font-family="sans-serif" font-size="11" font-weight="bold" lengthAdjust="spacing" textLength="205.4443" x="1012.4404" y="574.4473">[each houseBlock in houseBlockList]</text><polygon fill="#181818" points="1033.5542,596.4336,1023.5542,600.4336,1033.5542,604.4336,1029.5542,600.4336" style="stroke:#181818;stroke-width:1.0;"/><line style="stroke:#181818;stroke-width:1.0;stroke-dasharray:2.0,2.0;" x1="1027.5542" x2="1252.3809" y1="600.4336" y2="600.4336"/><text fill="#000000" font-family="sans-serif" font-size="13" font-weight="bold" lengthAdjust="spacing" textLength="17.1514" x="1039.5542" y="595.6914">15</text><text fill="#000000" font-family="sans-serif" font-size="13" lengthAdjust="spacing" textLength="176.4204" x="1060.7056" y="595.6914">addHouseBlock(houseBlock)</text><line style="stroke:#181818;stroke-width:1.0;" x1="1022.5542" x2="1064.5542" y1="629.7441" y2="629.7441"/><line style="stroke:#181818;stroke-width:1.0;" x1="1064.5542" x2="1064.5542" y1="629.7441" y2="642.7441"/><line style="stroke:#181818;stroke-width:1.0;" x1="1023.5542" x2="1064.5542" y1="642.7441" y2="642.7441"/><polygon fill="#181818" points="1033.5542,638.7441,1023.5542,642.7441,1033.5542,646.7441,1029.5542,642.7441" style="stroke:#181818;stroke-width:1.0;"/><text fill="#000000" font-family="sans-serif" font-size="13" font-weight="bold" lengthAdjust="spacing" textLength="17.1514" x="1029.5542" y="625.002">16</text><text fill="#000000" font-family="sans-serif" font-size="13" lengthAdjust="spacing" textLength="185.6753" x="1050.7056" y="625.002">houseBlocks.add(houseBlock)</text><polygon fill="#181818" points="1241.3809,668.0547,1251.3809,672.0547,1241.3809,676.0547,1245.3809,672.0547" style="stroke:#181818;stroke-width:1.0;"/><line style="stroke:#181818;stroke-width:1.0;" x1="1017.5542" x2="1247.3809" y1="672.0547" y2="672.0547"/><text fill="#000000" font-family="sans-serif" font-size="13" font-weight="bold" lengthAdjust="spacing" textLength="17.1514" x="1024.5542" y="667.3125">17</text><text fill="#000000" font-family="sans-serif" font-size="13" lengthAdjust="spacing" textLength="80.5581" x="1045.7056" y="667.3125">confirmation</text><line style="stroke:#181818;stroke-width:1.0;" x1="1263.3809" x2="1305.3809" y1="708.3652" y2="708.3652"/><line style="stroke:#181818;stroke-width:1.0;" x1="1305.3809" x2="1305.3809" y1="708.3652" y2="721.3652"/><line style="stroke:#181818;stroke-width:1.0;" x1="1264.3809" x2="1305.3809" y1="721.3652" y2="721.3652"/><polygon fill="#181818" points="1274.3809,717.3652,1264.3809,721.3652,1274.3809,725.3652,1270.3809,721.3652" style="stroke:#181818;stroke-width:1.0;"/><text fill="#000000" font-family="sans-serif" font-size="13" font-weight="bold" lengthAdjust="spacing" textLength="17.1514" x="1270.3809" y="703.623">18</text><text fill="#000000" font-family="sans-serif" font-size="13" lengthAdjust="spacing" textLength="167.0957" x="1291.5322" y="703.623">mapElementUsed.add(city)</text><line style="stroke:#181818;stroke-width:1.0;" x1="1263.3809" x2="1305.3809" y1="750.6758" y2="750.6758"/><line style="stroke:#181818;stroke-width:1.0;" x1="1305.3809" x2="1305.3809" y1="750.6758" y2="763.6758"/><line style="stroke:#181818;stroke-width:1.0;" x1="1264.3809" x2="1305.3809" y1="763.6758" y2="763.6758"/><polygon fill="#181818" points="1274.3809,759.6758,1264.3809,763.6758,1274.3809,767.6758,1270.3809,763.6758" style="stroke:#181818;stroke-width:1.0;"/><text fill="#000000" font-family="sans-serif" font-size="13" font-weight="bold" lengthAdjust="spacing" textLength="17.1514" x="1270.3809" y="745.9336">19</text><text fill="#000000" font-family="sans-serif" font-size="13" lengthAdjust="spacing" textLength="159.6499" x="1291.5322" y="745.9336">listAllOccupiedPositions()</text><line style="stroke:#181818;stroke-width:1.0;" x1="1263.3809" x2="1305.3809" y1="792.9863" y2="792.9863"/><line style="stroke:#181818;stroke-width:1.0;" x1="1305.3809" x2="1305.3809" y1="792.9863" y2="805.9863"/><line style="stroke:#181818;stroke-width:1.0;" x1="1264.3809" x2="1305.3809" y1="805.9863" y2="805.9863"/><polygon fill="#181818" points="1274.3809,801.9863,1264.3809,805.9863,1274.3809,809.9863,1270.3809,805.9863" style="stroke:#181818;stroke-width:1.0;"/><text fill="#000000" font-family="sans-serif" font-size="13" font-weight="bold" lengthAdjust="spacing" textLength="17.1514" x="1270.3809" y="788.2441">20</text><text fill="#000000" font-family="sans-serif" font-size="13" lengthAdjust="spacing" textLength="156.3174" x="1291.5322" y="788.2441">occupiedPositions.clear()</text><path d="M1206.7773,820.9863 L1281.2241,820.9863 L1281.2241,828.2969 L1271.2241,838.2969 L1206.7773,838.2969 L1206.7773,820.9863 " fill="#EEEEEE" style="stroke:#000000;stroke-width:1.5;"/><rect fill="none" height="146.9082" style="stroke:#000000;stroke-width:1.5;" width="454.9341" x="1206.7773" y="820.9863"/><text fill="#000000" font-family="sans-serif" font-size="13" font-weight="bold" lengthAdjust="spacing" textLength="29.4468" x="1221.7773" y="834.5547">loop</text><text fill="#000000" font-family="sans-serif" font-size="11" font-weight="bold" lengthAdjust="spacing" textLength="249.9976" x="1296.2241" y="833.6211">[for each mapElement in mapElementsUsed]</text><polygon fill="#181818" points="1538.4507,855.6074,1548.4507,859.6074,1538.4507,863.6074,1542.4507,859.6074" style="stroke:#181818;stroke-width:1.0;"/><line style="stroke:#181818;stroke-width:1.0;" x1="1263.3809" x2="1544.4507" y1="859.6074" y2="859.6074"/><text fill="#000000" font-family="sans-serif" font-size="13" font-weight="bold" lengthAdjust="spacing" textLength="17.1514" x="1270.3809" y="854.8652">21</text><text fill="#000000" font-family="sans-serif" font-size="13" lengthAdjust="spacing" textLength="144.3711" x="1291.5322" y="854.8652">getOccupiedPositions()</text><rect fill="#E2E2F0" height="46.9766" rx="2.5" ry="2.5" style="stroke:#181818;stroke-width:0.5;" width="101.2607" x="1550.4507" y="838.2969"/><text fill="#000000" font-family="sans-serif" font-size="14" lengthAdjust="spacing" textLength="83.8428" x="1559.1597" y="858.832">mapElement</text><text fill="#000000" font-family="sans-serif" font-size="14" lengthAdjust="spacing" textLength="87.2607" x="1557.4507" y="875.3203">:MapElement</text><polygon fill="#181818" points="1274.3809,913.584,1264.3809,917.584,1274.3809,921.584,1270.3809,917.584" style="stroke:#181818;stroke-width:1.0;"/><line style="stroke:#181818;stroke-width:1.0;stroke-dasharray:2.0,2.0;" x1="1268.3809" x2="1600.0811" y1="917.584" y2="917.584"/><text fill="#000000" font-family="sans-serif" font-size="13" font-weight="bold" lengthAdjust="spacing" textLength="17.1514" x="1280.3809" y="912.8418">22</text><text fill="#000000" font-family="sans-serif" font-size="13" lengthAdjust="spacing" textLength="218.5498" x="1301.5322" y="912.8418">List&lt;Position&gt; occupiedByElement</text><line style="stroke:#181818;stroke-width:1.0;" x1="1263.3809" x2="1305.3809" y1="946.8945" y2="946.8945"/><line style="stroke:#181818;stroke-width:1.0;" x1="1305.3809" x2="1305.3809" y1="946.8945" y2="959.8945"/><line style="stroke:#181818;stroke-width:1.0;" x1="1264.3809" x2="1305.3809" y1="959.8945" y2="959.8945"/><polygon fill="#181818" points="1274.3809,955.8945,1264.3809,959.8945,1274.3809,963.8945,1270.3809,959.8945" style="stroke:#181818;stroke-width:1.0;"/><text fill="#000000" font-family="sans-serif" font-size="13" font-weight="bold" lengthAdjust="spacing" textLength="17.1514" x="1270.3809" y="942.1523">23</text><text fill="#000000" font-family="sans-serif" font-size="13" lengthAdjust="spacing" textLength="287.5488" x="1291.5322" y="942.1523">occupiedPositions.addAll(occupiedByElement)</text><polygon fill="#181818" points="522.0557,992.2051,512.0557,996.2051,522.0557,1000.2051,518.0557,996.2051" style="stroke:#181818;stroke-width:1.0;"/><line style="stroke:#181818;stroke-width:1.0;stroke-dasharray:2.0,2.0;" x1="516.0557" x2="1252.3809" y1="996.2051" y2="996.2051"/><text fill="#000000" font-family="sans-serif" font-size="13" font-weight="bold" lengthAdjust="spacing" textLength="17.1514" x="528.0557" y="991.4629">24</text><text fill="#000000" font-family="sans-serif" font-size="13" lengthAdjust="spacing" textLength="270.9053" x="549.207" y="991.4629">return new ArrayList&lt;&gt;(occupiedPositions)</text><polygon fill="#181818" points="381.3105,1021.5156,371.3105,1025.5156,381.3105,1029.5156,377.3105,1025.5156" style="stroke:#181818;stroke-width:1.0;"/><line style="stroke:#181818;stroke-width:1.0;" x1="375.3105" x2="1252.3809" y1="1025.5156" y2="1025.5156"/><text fill="#000000" font-family="sans-serif" font-size="13" font-weight="bold" lengthAdjust="spacing" textLength="17.1514" x="387.3105" y="1020.7734">25</text><text fill="#000000" font-family="sans-serif" font-size="13" lengthAdjust="spacing" textLength="148.5034" x="408.4619" y="1020.7734">return validation = true</text><line style="stroke:#000000;stroke-width:1.0;stroke-dasharray:2.0,2.0;" x1="312.4458" x2="1716.4253" y1="1034.5156" y2="1034.5156"/><text fill="#000000" font-family="sans-serif" font-size="11" font-weight="bold" lengthAdjust="spacing" textLength="45.0044" x="317.4458" y="1045.1504">[failure]</text><polygon fill="#181818" points="381.3105,1065.7813,371.3105,1069.7813,381.3105,1073.7813,377.3105,1069.7813" style="stroke:#181818;stroke-width:1.0;"/><line style="stroke:#181818;stroke-width:1.0;" x1="375.3105" x2="1252.3809" y1="1069.7813" y2="1069.7813"/><text fill="#000000" font-family="sans-serif" font-size="13" font-weight="bold" lengthAdjust="spacing" textLength="17.1514" x="387.3105" y="1065.0391">26</text><text fill="#000000" font-family="sans-serif" font-size="13" lengthAdjust="spacing" textLength="152.5977" x="408.4619" y="1065.0391">return validation = false</text><path d="M10,1091.7813 L72.1387,1091.7813 L72.1387,1099.0918 L62.1387,1109.0918 L10,1109.0918 L10,1091.7813 " fill="#EEEEEE" style="stroke:#000000;stroke-width:1.5;"/><rect fill="none" height="77.9316" style="stroke:#000000;stroke-width:1.5;" width="408.1753" x="10" y="1091.7813"/><text fill="#000000" font-family="sans-serif" font-size="13" font-weight="bold" lengthAdjust="spacing" textLength="17.1387" x="25" y="1105.3496">alt</text><text fill="#000000" font-family="sans-serif" font-size="11" font-weight="bold" lengthAdjust="spacing" textLength="64.3403" x="87.1387" y="1104.416">[validation]</text><polygon fill="#181818" points="59.0054,1126.4023,49.0054,1130.4023,59.0054,1134.4023,55.0054,1130.4023" style="stroke:#181818;stroke-width:1.0;"/><line style="stroke:#181818;stroke-width:1.0;stroke-dasharray:2.0,2.0;" x1="53.0054" x2="359.3105" y1="1130.4023" y2="1130.4023"/><text fill="#000000" font-family="sans-serif" font-size="13" font-weight="bold" lengthAdjust="spacing" textLength="17.1514" x="65.0054" y="1125.6602">27</text><text fill="#000000" font-family="sans-serif" font-size="13" lengthAdjust="spacing" textLength="231.2007" x="86.1567" y="1125.6602">shows message: Add city to the map</text><line style="stroke:#000000;stroke-width:1.0;stroke-dasharray:2.0,2.0;" x1="10" x2="418.1753" y1="1139.4023" y2="1139.4023"/><polygon fill="#181818" points="59.0054,1157.7129,49.0054,1161.7129,59.0054,1165.7129,55.0054,1161.7129" style="stroke:#181818;stroke-width:1.0;"/><line style="stroke:#181818;stroke-width:1.0;stroke-dasharray:2.0,2.0;" x1="53.0054" x2="359.3105" y1="1161.7129" y2="1161.7129"/><text fill="#000000" font-family="sans-serif" font-size="13" font-weight="bold" lengthAdjust="spacing" textLength="17.1514" x="65.0054" y="1156.9707">28</text><text fill="#000000" font-family="sans-serif" font-size="13" lengthAdjust="spacing" textLength="267.1538" x="86.1567" y="1156.9707">shows message: Don't add city to the map</text><!--SRC=[lLVRQkCm47ttLuY-h5FQVa3O3IHfs0RI2stwiB1GjFOq4LKa8yaj-ViTIOvyYMExXLqz9CYUcJDdBj9Olp6HKKLt9AF96zt0azbp80eIGyM6GwI3WDxIL7umiI6lbElg6yu4c7q6H2gpbH7DZHJvxW-eAAA9aOgSBLA6_sU4QhAuNaUePbZ2CYeCEHjFqtJEpFvvwTu_BzjVpwKmId8Etiny_RYg2pv29hM5OQ2ToEFYuVwfBgCgCh_5k5tbvMbvztErMD_VrPKJz29ex55zNdlWtLgkVxrOAtNLhSmrpBXCtce6RbeUEpCtinOZ6CkSybkQeIR-Ei7RwKDTQ4Up1OST2EEbYir1-6MnMjmUqoh810ekSUoT6d3v8hZmdrnEC3raJBH10oJaBKRGPJfoOa4FysZtA8zQDbkeHxt6Mg9ZiPS_hA3d4aiQo-bRE-ZR-JbQiawJ7qJ01x4MOxk_epku82wEJ0hx-8AKWLynRQhxXq9EZqwYORoyqqKG7SgnU73T9eEqBCeDqNcIWDQjx-soM9U8wIeGKJTWbWBZB1A8HoUr0hIlTTAnlE70gje99_LI60XGyxxi7y-ZtYQ3sLJQi9TN1J8mhBVhO8u3O3lPjlNqV-FSTixy2-RXc2kR-aHp7FTtE26x69O0PJwbU6LgHstJ3k7K3-JOU3BDtEbu89LE5WfChWInHy_tqlQaSIeD9HET5EHIPWI5jnNBX8cXEDNC5ZUFpslfSroQ6dNQ2HuVhZ3Iimw0DUmIJL-X7uFH6mO_KJYDUFTv3oBjAoiFNjx7pnfIHwQxKMhQ7DCsvVm-IVACGHhkh7YWlcmgNYKSgEfGTwNqYZERAwVIUrjEvKvRCltrD0aZXxkqiSC-mwHvj_hPfI_z1q5NpJuAhlyEY9CGbDc-O3EqA0Rvq1D_B01CQ7pam-ZhfLRELyLvOwUYgL9qxuXFuYClUgl7JNc5jNVAMUgQ1mSket9eLGRy9C0F0yPp1L-sxZyiXWQXdfderCdPd2VjD5QY7bcr0olwYECkphbR-Q793kSs_38Qsu7N3vv64hC5smzHCmQViNSjnJTZpzbkgmNr2YUShIixDFqN]--></g></svg>