<svg xmlns="http://www.w3.org/2000/svg" xmlns:xlink="http://www.w3.org/1999/xlink" contentStyleType="text/css" height="1025px" preserveAspectRatio="none" style="width:3319px;height:1025px;background:#FFFFFF;" version="1.1" viewBox="0 0 3319 1025" width="3319px" zoomAndPan="magnify"><defs/><g><!--class AddCityUI--><g id="elem_AddCityUI"><rect codeLine="10" fill="#F1F1F1" height="212.8828" id="AddCityUI" rx="2.5" ry="2.5" style="stroke:#181818;stroke-width:0.5;" width="263.665" x="93.02" y="7"/><ellipse cx="186.9526" cy="23" fill="#ADD1B2" rx="11" ry="11" style="stroke:#181818;stroke-width:1.0;"/><path d="M189.9258,28.6431 Q189.3447,28.9419 188.7055,29.0913 Q188.0664,29.2407 187.3608,29.2407 Q184.854,29.2407 183.5342,27.5889 Q182.2143,25.937 182.2143,22.8159 Q182.2143,19.6865 183.5342,18.0347 Q184.854,16.3828 187.3608,16.3828 Q188.0664,16.3828 188.7138,16.5322 Q189.3613,16.6816 189.9258,16.9805 L189.9258,19.7031 Q189.2949,19.1221 188.7014,18.8523 Q188.1079,18.5825 187.477,18.5825 Q186.1323,18.5825 185.4475,19.6492 Q184.7627,20.7158 184.7627,22.8159 Q184.7627,24.9077 185.4475,25.9744 Q186.1323,27.041 187.477,27.041 Q188.1079,27.041 188.7014,26.7712 Q189.2949,26.5015 189.9258,25.9204 Z " fill="#000000"/><text fill="#000000" font-family="sans-serif" font-size="14" lengthAdjust="spacing" textLength="67.2998" x="207.4526" y="28.291">AddCityUI</text><line style="stroke:#181818;stroke-width:0.5;" x1="94.02" x2="355.685" y1="39" y2="39"/><text fill="#000000" font-family="sans-serif" font-size="14" lengthAdjust="spacing" textLength="204.333" x="99.02" y="56.5352">-controller: AddCityController</text><text fill="#000000" font-family="sans-serif" font-size="14" lengthAdjust="spacing" textLength="114.7686" x="99.02" y="73.0234">-actualMap: Map</text><line style="stroke:#181818;stroke-width:0.5;" x1="94.02" x2="355.685" y1="79.9766" y2="79.9766"/><text fill="#000000" font-family="sans-serif" font-size="14" lengthAdjust="spacing" textLength="161.2529" x="99.02" y="97.5117">+AddCityUI(mapId : int)</text><text fill="#000000" font-family="sans-serif" font-size="14" lengthAdjust="spacing" textLength="85.333" x="99.02" y="114">+run() : void</text><text fill="#000000" font-family="sans-serif" font-size="14" lengthAdjust="spacing" textLength="180.0723" x="99.02" y="130.4883">-readNameCity() : boolean</text><text fill="#000000" font-family="sans-serif" font-size="14" lengthAdjust="spacing" textLength="195.2207" x="99.02" y="146.9766">-readPositionCity() : boolean</text><text fill="#000000" font-family="sans-serif" font-size="14" lengthAdjust="spacing" textLength="251.665" x="99.02" y="163.4648">-chooseReadHouseBlocks() : boolean</text><text fill="#000000" font-family="sans-serif" font-size="14" lengthAdjust="spacing" textLength="244.4121" x="99.02" y="179.9531">-readAutomaticHouseBlocks() : void</text><text fill="#000000" font-family="sans-serif" font-size="14" lengthAdjust="spacing" textLength="223.918" x="99.02" y="196.4414">-readManualHouseBlocks() : void</text><text fill="#000000" font-family="sans-serif" font-size="14" lengthAdjust="spacing" textLength="22.3945" x="99.02" y="212.9297">...()</text></g><!--class AddCityController--><g id="elem_AddCityController"><rect codeLine="24" fill="#F1F1F1" height="542.6484" id="AddCityController" rx="2.5" ry="2.5" style="stroke:#181818;stroke-width:0.5;" width="435.6982" x="7" y="255.11"/><ellipse cx="159.7354" cy="271.11" fill="#ADD1B2" rx="11" ry="11" style="stroke:#181818;stroke-width:1.0;"/><path d="M162.7085,276.7531 Q162.1274,277.0519 161.4883,277.2013 Q160.8491,277.3507 160.1436,277.3507 Q157.6367,277.3507 156.3169,275.6989 Q154.9971,274.047 154.9971,270.9259 Q154.9971,267.7965 156.3169,266.1447 Q157.6367,264.4928 160.1436,264.4928 Q160.8491,264.4928 161.4966,264.6422 Q162.144,264.7916 162.7085,265.0905 L162.7085,267.8131 Q162.0776,267.2321 161.4841,266.9623 Q160.8906,266.6925 160.2598,266.6925 Q158.915,266.6925 158.2302,267.7592 Q157.5454,268.8258 157.5454,270.9259 Q157.5454,273.0177 158.2302,274.0844 Q158.915,275.151 160.2598,275.151 Q160.8906,275.151 161.4841,274.8812 Q162.0776,274.6115 162.7085,274.0304 Z " fill="#000000"/><text fill="#000000" font-family="sans-serif" font-size="14" lengthAdjust="spacing" textLength="121.7275" x="180.2354" y="276.401">AddCityController</text><line style="stroke:#181818;stroke-width:0.5;" x1="8" x2="441.6982" y1="287.11" y2="287.11"/><text fill="#000000" font-family="sans-serif" font-size="14" lengthAdjust="spacing" textLength="219.4268" x="13" y="304.6452">-mapRepository: MapRepository</text><text fill="#000000" font-family="sans-serif" font-size="14" lengthAdjust="spacing" textLength="114.7686" x="13" y="321.1334">-actualMap: Map</text><text fill="#000000" font-family="sans-serif" font-size="14" lengthAdjust="spacing" textLength="67.0127" x="13" y="337.6217">-city: City</text><text fill="#000000" font-family="sans-serif" font-size="14" lengthAdjust="spacing" textLength="119.6426" x="13" y="354.11">-cityName: String</text><text fill="#000000" font-family="sans-serif" font-size="14" lengthAdjust="spacing" textLength="152.5029" x="13" y="370.5983">-positionCity: Position</text><text fill="#000000" font-family="sans-serif" font-size="14" lengthAdjust="spacing" textLength="173.4209" x="13" y="387.0866">-numberHouseBlocks: int</text><text fill="#000000" font-family="sans-serif" font-size="14" lengthAdjust="spacing" textLength="242.5186" x="13" y="403.5748">-houseBlockList: List&lt;HouseBlock&gt;</text><line style="stroke:#181818;stroke-width:0.5;" x1="8" x2="441.6982" y1="410.528" y2="410.528"/><text fill="#000000" font-family="sans-serif" font-size="14" lengthAdjust="spacing" textLength="214.6826" x="13" y="428.0631">+AddCityController(idMap : int)</text><text fill="#000000" font-family="sans-serif" font-size="14" lengthAdjust="spacing" textLength="181.6924" x="13" y="444.5514">-getMapRepository() : void</text><text fill="#000000" font-family="sans-serif" font-size="14" lengthAdjust="spacing" textLength="155.0254" x="13" y="461.0397">+getActualMap() : Map</text><text fill="#000000" font-family="sans-serif" font-size="14" lengthAdjust="spacing" textLength="107.8574" x="13" y="477.528">+getCity() : City</text><text fill="#000000" font-family="sans-serif" font-size="14" lengthAdjust="spacing" textLength="172.0264" x="13" y="494.0163">+setCity(city : City) : void</text><text fill="#000000" font-family="sans-serif" font-size="14" lengthAdjust="spacing" textLength="160.4873" x="13" y="510.5045">+getCityName() : String</text><text fill="#000000" font-family="sans-serif" font-size="14" lengthAdjust="spacing" textLength="263.6006" x="13" y="526.9928">+setCityName(cityName : String) : void</text><text fill="#000000" font-family="sans-serif" font-size="14" lengthAdjust="spacing" textLength="311.6094" x="13" y="543.4811">+setPositionCity(positionCity : Position) : void</text><text fill="#000000" font-family="sans-serif" font-size="14" lengthAdjust="spacing" textLength="282.4473" x="13" y="559.9694">+getHouseBlockList() : List&lt;HouseBlock&gt;</text><text fill="#000000" font-family="sans-serif" font-size="14" lengthAdjust="spacing" textLength="423.6982" x="13" y="576.4577">+setHouseBlockList(houseBlockList : List&lt;HouseBlock&gt;) : void</text><text fill="#000000" font-family="sans-serif" font-size="14" lengthAdjust="spacing" textLength="136.1172" x="13" y="592.9459">+getPositionX() : int</text><text fill="#000000" font-family="sans-serif" font-size="14" lengthAdjust="spacing" textLength="136.0762" x="13" y="609.4342">+getPositionY() : int</text><text fill="#000000" font-family="sans-serif" font-size="14" lengthAdjust="spacing" textLength="140.6221" x="13" y="625.9225">+getWidthMap() : int</text><text fill="#000000" font-family="sans-serif" font-size="14" lengthAdjust="spacing" textLength="146.6514" x="13" y="642.4108">+getHeightMap() : int</text><text fill="#000000" font-family="sans-serif" font-size="14" lengthAdjust="spacing" textLength="308.7314" x="13" y="658.8991">+getOccupiedPositionsMap() : List&lt;Position&gt;</text><text fill="#000000" font-family="sans-serif" font-size="14" lengthAdjust="spacing" textLength="197.1553" x="13" y="675.3873">+clearHouseBlockList() : void</text><text fill="#000000" font-family="sans-serif" font-size="14" lengthAdjust="spacing" textLength="217.7656" x="13" y="691.8756">+getNumberFreePositions() : int</text><text fill="#000000" font-family="sans-serif" font-size="14" lengthAdjust="spacing" textLength="213.4043" x="13" y="708.3639">+getNumberHouseBlocks() : int</text><text fill="#000000" font-family="sans-serif" font-size="14" lengthAdjust="spacing" textLength="392.2939" x="13" y="724.8522">+setNumberHouseBlocks(numberHouseBlocks : int) : void</text><text fill="#000000" font-family="sans-serif" font-size="14" lengthAdjust="spacing" textLength="237.542" x="13" y="741.3405">+setAutomaticHouseBlocks() : void</text><text fill="#000000" font-family="sans-serif" font-size="14" lengthAdjust="spacing" textLength="360.2676" x="13" y="757.8288">+cityFarFromTheCentre(position : Position) : boolean</text><text fill="#000000" font-family="sans-serif" font-size="14" lengthAdjust="spacing" textLength="185.4932" x="13" y="774.317">+addCityToMap() : boolean</text><text fill="#000000" font-family="sans-serif" font-size="14" lengthAdjust="spacing" textLength="22.3945" x="13" y="790.8053">...()</text></g><!--class CityRepository--><g id="elem_CityRepository"><rect codeLine="58" fill="#F1F1F1" height="97.4648" id="CityRepository" rx="2.5" ry="2.5" style="stroke:#181818;stroke-width:0.5;" width="214.7813" x="825.52" y="820.71"/><ellipse cx="879.4555" cy="836.71" fill="#ADD1B2" rx="11" ry="11" style="stroke:#181818;stroke-width:1.0;"/><path d="M882.4287,842.3531 Q881.8476,842.6519 881.2085,842.8013 Q880.5693,842.9507 879.8638,842.9507 Q877.3569,842.9507 876.0371,841.2989 Q874.7173,839.647 874.7173,836.5259 Q874.7173,833.3965 876.0371,831.7447 Q877.3569,830.0928 879.8638,830.0928 Q880.5693,830.0928 881.2168,830.2422 Q881.8642,830.3916 882.4287,830.6905 L882.4287,833.4131 Q881.7978,832.8321 881.2043,832.5623 Q880.6108,832.2925 879.98,832.2925 Q878.6352,832.2925 877.9504,833.3592 Q877.2656,834.4258 877.2656,836.5259 Q877.2656,838.6177 877.9504,839.6844 Q878.6352,840.751 879.98,840.751 Q880.6108,840.751 881.2043,840.4812 Q881.7978,840.2115 882.4287,839.6304 Z " fill="#000000"/><text fill="#000000" font-family="sans-serif" font-size="14" lengthAdjust="spacing" textLength="98.4102" x="899.9555" y="842.001">CityRepository</text><line style="stroke:#181818;stroke-width:0.5;" x1="826.52" x2="1039.3013" y1="852.71" y2="852.71"/><text fill="#000000" font-family="sans-serif" font-size="14" lengthAdjust="spacing" textLength="129.2539" x="831.52" y="870.2452">-cities : List&lt;City&gt;</text><line style="stroke:#181818;stroke-width:0.5;" x1="826.52" x2="1039.3013" y1="877.1983" y2="877.1983"/><text fill="#000000" font-family="sans-serif" font-size="14" lengthAdjust="spacing" textLength="202.7813" x="831.52" y="894.7334">+addCity(city : City) : boolean</text><text fill="#000000" font-family="sans-serif" font-size="14" lengthAdjust="spacing" textLength="22.3945" x="831.52" y="911.2217">...()</text></g><!--class MapRepository--><g id="elem_MapRepository"><rect codeLine="65" fill="#F1F1F1" height="80.9766" id="MapRepository" rx="2.5" ry="2.5" style="stroke:#181818;stroke-width:0.5;" width="196.8232" x="598.7" y="485.95"/><ellipse cx="642.5431" cy="501.95" fill="#ADD1B2" rx="11" ry="11" style="stroke:#181818;stroke-width:1.0;"/><path d="M645.5162,507.5931 Q644.9352,507.8919 644.296,508.0413 Q643.6568,508.1907 642.9513,508.1907 Q640.4444,508.1907 639.1246,506.5389 Q637.8048,504.887 637.8048,501.7659 Q637.8048,498.6365 639.1246,496.9847 Q640.4444,495.3328 642.9513,495.3328 Q643.6568,495.3328 644.3043,495.4822 Q644.9518,495.6316 645.5162,495.9305 L645.5162,498.6531 Q644.8854,498.0721 644.2918,497.8023 Q643.6983,497.5325 643.0675,497.5325 Q641.7228,497.5325 641.0379,498.5992 Q640.3531,499.6658 640.3531,501.7659 Q640.3531,503.8577 641.0379,504.9244 Q641.7228,505.991 643.0675,505.991 Q643.6983,505.991 644.2918,505.7212 Q644.8854,505.4515 645.5162,504.8704 Z " fill="#000000"/><text fill="#000000" font-family="sans-serif" font-size="14" lengthAdjust="spacing" textLength="100.7275" x="662.9526" y="507.241">MapRepository</text><line style="stroke:#181818;stroke-width:0.5;" x1="599.7" x2="794.5232" y1="517.95" y2="517.95"/><line style="stroke:#181818;stroke-width:0.5;" x1="599.7" x2="794.5232" y1="525.95" y2="525.95"/><text fill="#000000" font-family="sans-serif" font-size="14" lengthAdjust="spacing" textLength="184.8232" x="604.7" y="543.4852">+getMapById(id : int) : Map</text><text fill="#000000" font-family="sans-serif" font-size="14" lengthAdjust="spacing" textLength="22.3945" x="604.7" y="559.9734">...()</text></g><!--class HouseBlockRepository--><g id="elem_HouseBlockRepository"><rect codeLine="70" fill="#F1F1F1" height="97.4648" id="HouseBlockRepository" rx="2.5" ry="2.5" style="stroke:#181818;stroke-width:0.5;" width="372.541" x="1070.3" y="920.71"/><ellipse cx="1176.9748" cy="936.71" fill="#ADD1B2" rx="11" ry="11" style="stroke:#181818;stroke-width:1.0;"/><path d="M1179.9479,942.3531 Q1179.3669,942.6519 1178.7277,942.8013 Q1178.0886,942.9507 1177.383,942.9507 Q1174.8762,942.9507 1173.5563,941.2989 Q1172.2365,939.647 1172.2365,936.5259 Q1172.2365,933.3965 1173.5563,931.7447 Q1174.8762,930.0928 1177.383,930.0928 Q1178.0886,930.0928 1178.736,930.2422 Q1179.3835,930.3916 1179.9479,930.6905 L1179.9479,933.4131 Q1179.3171,932.8321 1178.7236,932.5623 Q1178.1301,932.2925 1177.4992,932.2925 Q1176.1545,932.2925 1175.4697,933.3592 Q1174.7849,934.4258 1174.7849,936.5259 Q1174.7849,938.6177 1175.4697,939.6844 Q1176.1545,940.751 1177.4992,940.751 Q1178.1301,940.751 1178.7236,940.4812 Q1179.3171,940.2115 1179.9479,939.6304 Z " fill="#000000"/><text fill="#000000" font-family="sans-serif" font-size="14" lengthAdjust="spacing" textLength="150.6914" x="1197.4748" y="942.001">HouseBlockRepository</text><line style="stroke:#181818;stroke-width:0.5;" x1="1071.3" x2="1441.841" y1="952.71" y2="952.71"/><text fill="#000000" font-family="sans-serif" font-size="14" lengthAdjust="spacing" textLength="230.2002" x="1076.3" y="970.2452">-houseBlocks : List&lt;HouseBlock&gt;</text><line style="stroke:#181818;stroke-width:0.5;" x1="1071.3" x2="1441.841" y1="977.1983" y2="977.1983"/><text fill="#000000" font-family="sans-serif" font-size="14" lengthAdjust="spacing" textLength="360.541" x="1076.3" y="994.7334">+addHouseBlock(houseBlock : HouseBlock) : boolean</text><text fill="#000000" font-family="sans-serif" font-size="14" lengthAdjust="spacing" textLength="22.3945" x="1076.3" y="1011.2217">...()</text></g><!--class Repositories--><g id="elem_Repositories"><rect codeLine="77" fill="#F1F1F1" height="130.4414" id="Repositories" rx="2.5" ry="2.5" style="stroke:#181818;stroke-width:0.5;" width="268.7441" x="90.48" y="878.22"/><ellipse cx="178.7046" cy="894.22" fill="#ADD1B2" rx="11" ry="11" style="stroke:#181818;stroke-width:1.0;"/><path d="M181.6778,899.8631 Q181.0967,900.1619 180.4575,900.3113 Q179.8184,900.4607 179.1128,900.4607 Q176.606,900.4607 175.2862,898.8089 Q173.9663,897.157 173.9663,894.0359 Q173.9663,890.9065 175.2862,889.2547 Q176.606,887.6028 179.1128,887.6028 Q179.8184,887.6028 180.4658,887.7522 Q181.1133,887.9016 181.6778,888.2005 L181.6778,890.9231 Q181.0469,890.3421 180.4534,890.0723 Q179.8599,889.8025 179.229,889.8025 Q177.8843,889.8025 177.1995,890.8692 Q176.5147,891.9358 176.5147,894.0359 Q176.5147,896.1277 177.1995,897.1944 Q177.8843,898.261 179.229,898.261 Q179.8599,898.261 180.4534,897.9912 Q181.0469,897.7215 181.6778,897.1404 Z " fill="#000000"/><text fill="#000000" font-family="sans-serif" font-size="14" lengthAdjust="spacing" textLength="83.7949" x="199.2046" y="899.511">Repositories</text><line style="stroke:#181818;stroke-width:0.5;" x1="91.48" x2="358.2241" y1="910.22" y2="910.22"/><line style="stroke:#181818;stroke-width:0.5;" x1="91.48" x2="358.2241" y1="918.22" y2="918.22"/><text fill="#000000" font-family="sans-serif" font-size="14" lengthAdjust="spacing" textLength="101.001" x="96.48" y="935.7552">-Repositories()</text><text fill="#000000" font-family="sans-serif" font-size="14" lengthAdjust="spacing" text-decoration="underline" textLength="98.4854" x="96.48" y="952.2434">+getInstance()</text><text fill="#000000" font-family="sans-serif" font-size="14" lengthAdjust="spacing" textLength="252.1094" x="96.48" y="968.7317">+getCityRepository() : CityRepository</text><text fill="#000000" font-family="sans-serif" font-size="14" lengthAdjust="spacing" textLength="256.7441" x="96.48" y="985.22">+getMapRepository() : MapRepository</text><text fill="#000000" font-family="sans-serif" font-size="14" lengthAdjust="spacing" textLength="22.3945" x="96.48" y="1001.7083">...()</text></g><!--class City--><g id="elem_City"><rect codeLine="85" fill="#F1F1F1" height="229.3711" id="City" rx="2.5" ry="2.5" style="stroke:#181818;stroke-width:0.5;" width="779.1494" x="1550.84" y="497.75"/><ellipse cx="1923.0226" cy="513.75" fill="#ADD1B2" rx="11" ry="11" style="stroke:#181818;stroke-width:1.0;"/><path d="M1925.9958,519.3931 Q1925.4147,519.6919 1924.7755,519.8413 Q1924.1364,519.9907 1923.4308,519.9907 Q1920.924,519.9907 1919.6042,518.3389 Q1918.2843,516.687 1918.2843,513.5659 Q1918.2843,510.4365 1919.6042,508.7847 Q1920.924,507.1328 1923.4308,507.1328 Q1924.1364,507.1328 1924.7838,507.2822 Q1925.4313,507.4316 1925.9958,507.7305 L1925.9958,510.4531 Q1925.3649,509.8721 1924.7714,509.6023 Q1924.1779,509.3325 1923.547,509.3325 Q1922.2023,509.3325 1921.5175,510.3992 Q1920.8327,511.4658 1920.8327,513.5659 Q1920.8327,515.6577 1921.5175,516.7244 Q1922.2023,517.791 1923.547,517.791 Q1924.1779,517.791 1924.7714,517.5212 Q1925.3649,517.2515 1925.9958,516.6704 Z " fill="#000000"/><text fill="#000000" font-family="sans-serif" font-size="14" lengthAdjust="spacing" textLength="26.2842" x="1943.5226" y="519.041">City</text><line style="stroke:#181818;stroke-width:0.5;" x1="1551.84" x2="2328.9894" y1="529.75" y2="529.75"/><text fill="#000000" font-family="sans-serif" font-size="14" lengthAdjust="spacing" textLength="98.6494" x="1556.84" y="547.2852">-name : String</text><text fill="#000000" font-family="sans-serif" font-size="14" lengthAdjust="spacing" textLength="130.6484" x="1556.84" y="563.7734">-position : Position</text><text fill="#000000" font-family="sans-serif" font-size="14" lengthAdjust="spacing" textLength="52.2197" x="1556.84" y="580.2617">-id : int</text><text fill="#000000" font-family="sans-serif" font-size="14" lengthAdjust="spacing" text-decoration="underline" textLength="182.0205" x="1556.84" y="596.75">-counterCreatedCities : int</text><text fill="#000000" font-family="sans-serif" font-size="14" lengthAdjust="spacing" textLength="266.957" x="1556.84" y="613.2383">-houseBlocksPositions : List&lt;Position&gt;</text><text fill="#000000" font-family="sans-serif" font-size="14" lengthAdjust="spacing" textLength="230.2002" x="1556.84" y="629.7266">-houseBlocks : List&lt;HouseBlock&gt;</text><line style="stroke:#181818;stroke-width:0.5;" x1="1551.84" x2="2328.9894" y1="636.6797" y2="636.6797"/><text fill="#000000" font-family="sans-serif" font-size="14" lengthAdjust="spacing" textLength="767.1494" x="1556.84" y="654.2148">+City(name : String, position : Position, houseBlocks : List&lt;HouseBlock&gt;, houseBlocksPositions : List&lt;Position&gt;)</text><text fill="#000000" font-family="sans-serif" font-size="14" lengthAdjust="spacing" textLength="134.2031" x="1556.84" y="670.7031">+getName() : String</text><text fill="#000000" font-family="sans-serif" font-size="14" lengthAdjust="spacing" textLength="163.4746" x="1556.84" y="687.1914">+getPosition() : Position</text><text fill="#000000" font-family="sans-serif" font-size="14" lengthAdjust="spacing" textLength="265.6992" x="1556.84" y="703.6797">+getHouseBlocks() : List&lt;HouseBlock&gt;</text><text fill="#000000" font-family="sans-serif" font-size="14" lengthAdjust="spacing" textLength="22.3945" x="1556.84" y="720.168">...()</text></g><!--class Map--><g id="elem_Map"><rect codeLine="100" fill="#F1F1F1" height="212.8828" id="Map" rx="2.5" ry="2.5" style="stroke:#181818;stroke-width:0.5;" width="333.1729" x="1089.99" y="332"/><ellipse cx="1238.0256" cy="348" fill="#ADD1B2" rx="11" ry="11" style="stroke:#181818;stroke-width:1.0;"/><path d="M1240.9988,353.6431 Q1240.4177,353.9419 1239.7786,354.0913 Q1239.1394,354.2407 1238.4338,354.2407 Q1235.927,354.2407 1234.6072,352.5889 Q1233.2874,350.937 1233.2874,347.8159 Q1233.2874,344.6865 1234.6072,343.0347 Q1235.927,341.3828 1238.4338,341.3828 Q1239.1394,341.3828 1239.7869,341.5322 Q1240.4343,341.6816 1240.9988,341.9805 L1240.9988,344.7031 Q1240.3679,344.1221 1239.7744,343.8523 Q1239.1809,343.5825 1238.5501,343.5825 Q1237.2053,343.5825 1236.5205,344.6492 Q1235.8357,345.7158 1235.8357,347.8159 Q1235.8357,349.9077 1236.5205,350.9744 Q1237.2053,352.041 1238.5501,352.041 Q1239.1809,352.041 1239.7744,351.7712 Q1240.3679,351.5015 1240.9988,350.9204 Z " fill="#000000"/><text fill="#000000" font-family="sans-serif" font-size="14" lengthAdjust="spacing" textLength="28.6016" x="1258.5256" y="353.291">Map</text><line style="stroke:#181818;stroke-width:0.5;" x1="1090.99" x2="1422.1629" y1="364" y2="364"/><text fill="#000000" font-family="sans-serif" font-size="14" lengthAdjust="spacing" textLength="215.6943" x="1095.99" y="381.5352">-cityRepository : CityRepository</text><text fill="#000000" font-family="sans-serif" font-size="14" lengthAdjust="spacing" textLength="321.1729" x="1095.99" y="398.0234">-houseBlockRepository : HouseBlockRepository</text><text fill="#000000" font-family="sans-serif" font-size="14" lengthAdjust="spacing" textLength="75.8105" x="1095.99" y="414.5117">-size : Size</text><text fill="#000000" font-family="sans-serif" font-size="14" lengthAdjust="spacing" textLength="274.791" x="1095.99" y="431">-mapElementsUsed : List&lt;MapElement&gt;</text><text fill="#000000" font-family="sans-serif" font-size="14" lengthAdjust="spacing" textLength="243.9541" x="1095.99" y="447.4883">-occupiedPositions : List&lt;Position&gt;</text><line style="stroke:#181818;stroke-width:0.5;" x1="1090.99" x2="1422.1629" y1="454.4414" y2="454.4414"/><text fill="#000000" font-family="sans-serif" font-size="14" lengthAdjust="spacing" textLength="110.1133" x="1095.99" y="471.9766">+getSize() : Size</text><text fill="#000000" font-family="sans-serif" font-size="14" lengthAdjust="spacing" textLength="280.1299" x="1095.99" y="488.4648">+getOccupiedPositions() : List&lt;Position&gt;</text><text fill="#000000" font-family="sans-serif" font-size="14" lengthAdjust="spacing" textLength="225.0527" x="1095.99" y="504.9531">+listAllOccupiedPositions() : void</text><text fill="#000000" font-family="sans-serif" font-size="14" lengthAdjust="spacing" textLength="317.9463" x="1095.99" y="521.4414">+addElement(element : MapElement) : boolean</text><text fill="#000000" font-family="sans-serif" font-size="14" lengthAdjust="spacing" textLength="22.3945" x="1095.99" y="537.9297">...()</text></g><!--class MapElement--><g id="elem_MapElement"><rect codeLine="114" fill="#F1F1F1" height="163.418" id="MapElement" rx="2.5" ry="2.5" style="stroke:#181818;stroke-width:0.5;" width="471.1973" x="2437.99" y="403.73"/><ellipse cx="2627.9231" cy="419.73" fill="#A9DCDF" rx="11" ry="11" style="stroke:#181818;stroke-width:1.0;"/><path d="M2628.0364,415.0781 L2626.8826,420.1499 L2629.1985,420.1499 Z M2626.5422,412.8369 L2629.5388,412.8369 L2632.884,425.23 L2630.4353,425.23 L2629.6716,422.167 L2626.3928,422.167 L2625.6458,425.23 L2623.197,425.23 Z " fill="#000000"/><text fill="#000000" font-family="sans-serif" font-size="14" font-style="italic" lengthAdjust="spacing" textLength="82.8311" x="2648.4231" y="425.021">MapElement</text><line style="stroke:#181818;stroke-width:0.5;" x1="2438.99" x2="2908.1873" y1="435.73" y2="435.73"/><text fill="#000000" font-family="sans-serif" font-size="14" lengthAdjust="spacing" textLength="130.6484" x="2443.99" y="453.2652">-position : Position</text><text fill="#000000" font-family="sans-serif" font-size="14" lengthAdjust="spacing" textLength="243.9541" x="2443.99" y="469.7534">-occupiedPositions : List&lt;Position&gt;</text><line style="stroke:#181818;stroke-width:0.5;" x1="2438.99" x2="2908.1873" y1="476.7066" y2="476.7066"/><text fill="#000000" font-family="sans-serif" font-size="14" lengthAdjust="spacing" textLength="459.1973" x="2443.99" y="494.2417">MapElement(position : Position, occupiedPositions : List&lt;Position&gt;)</text><text fill="#000000" font-family="sans-serif" font-size="14" lengthAdjust="spacing" textLength="152.3457" x="2443.99" y="510.73">getPosition() : Position</text><text fill="#000000" font-family="sans-serif" font-size="14" lengthAdjust="spacing" textLength="247.9121" x="2443.99" y="527.2183">setPosition(position : Position) : void</text><text fill="#000000" font-family="sans-serif" font-size="14" lengthAdjust="spacing" textLength="269.001" x="2443.99" y="543.7066">getOccupiedPositions() : List&lt;Position&gt;</text><text fill="#000000" font-family="sans-serif" font-size="14" lengthAdjust="spacing" textLength="22.3945" x="2443.99" y="560.1948">...()</text></g><!--class Position--><g id="elem_Position"><rect codeLine="125" fill="#F1F1F1" height="179.9063" id="Position" rx="2.5" ry="2.5" style="stroke:#181818;stroke-width:0.5;" width="320.6563" x="2992.19" y="294.48"/><ellipse cx="3121.2217" cy="310.48" fill="#ADD1B2" rx="11" ry="11" style="stroke:#181818;stroke-width:1.0;"/><path d="M3124.1949,316.1231 Q3123.6138,316.4219 3122.9747,316.5713 Q3122.3355,316.7207 3121.6299,316.7207 Q3119.1231,316.7207 3117.8033,315.0689 Q3116.4835,313.417 3116.4835,310.2959 Q3116.4835,307.1665 3117.8033,305.5147 Q3119.1231,303.8628 3121.6299,303.8628 Q3122.3355,303.8628 3122.983,304.0122 Q3123.6304,304.1616 3124.1949,304.4605 L3124.1949,307.1831 Q3123.564,306.6021 3122.9705,306.3323 Q3122.377,306.0625 3121.7462,306.0625 Q3120.4014,306.0625 3119.7166,307.1292 Q3119.0318,308.1958 3119.0318,310.2959 Q3119.0318,312.3877 3119.7166,313.4544 Q3120.4014,314.521 3121.7462,314.521 Q3122.377,314.521 3122.9705,314.2512 Q3123.564,313.9815 3124.1949,313.4004 Z " fill="#000000"/><text fill="#000000" font-family="sans-serif" font-size="14" lengthAdjust="spacing" textLength="54.0928" x="3141.7217" y="315.771">Position</text><line style="stroke:#181818;stroke-width:0.5;" x1="2993.19" x2="3311.8463" y1="326.48" y2="326.48"/><text fill="#000000" font-family="sans-serif" font-size="14" lengthAdjust="spacing" textLength="47.9473" x="2998.19" y="344.0152">-x : int</text><text fill="#000000" font-family="sans-serif" font-size="14" lengthAdjust="spacing" textLength="46.6758" x="2998.19" y="360.5034">-y : int</text><line style="stroke:#181818;stroke-width:0.5;" x1="2993.19" x2="3311.8463" y1="367.4566" y2="367.4566"/><text fill="#000000" font-family="sans-serif" font-size="14" lengthAdjust="spacing" textLength="161.6084" x="2998.19" y="384.9917">+Position(x : int, y : int)</text><text fill="#000000" font-family="sans-serif" font-size="14" lengthAdjust="spacing" textLength="82.0244" x="2998.19" y="401.48">+getX() : int</text><text fill="#000000" font-family="sans-serif" font-size="14" lengthAdjust="spacing" textLength="81.9834" x="2998.19" y="417.9683">+getY() : int</text><text fill="#000000" font-family="sans-serif" font-size="14" lengthAdjust="spacing" textLength="308.6563" x="2998.19" y="434.4566">+equalsPosition(position : Position) : boolean</text><text fill="#000000" font-family="sans-serif" font-size="14" lengthAdjust="spacing" textLength="127.2988" x="2998.19" y="450.9448">+toString() : String</text><text fill="#000000" font-family="sans-serif" font-size="14" lengthAdjust="spacing" textLength="22.3945" x="2998.19" y="467.4331">...()</text></g><!--class HouseBlock--><g id="elem_HouseBlock"><rect codeLine="137" fill="#F1F1F1" height="113.9531" id="HouseBlock" rx="2.5" ry="2.5" style="stroke:#181818;stroke-width:0.5;" width="233.3477" x="2556.92" y="706.46"/><ellipse cx="2630.0611" cy="722.46" fill="#ADD1B2" rx="11" ry="11" style="stroke:#181818;stroke-width:1.0;"/><path d="M2633.0343,728.1031 Q2632.4532,728.4019 2631.814,728.5513 Q2631.1749,728.7007 2630.4693,728.7007 Q2627.9625,728.7007 2626.6427,727.0489 Q2625.3228,725.397 2625.3228,722.2759 Q2625.3228,719.1465 2626.6427,717.4947 Q2627.9625,715.8428 2630.4693,715.8428 Q2631.1749,715.8428 2631.8223,715.9922 Q2632.4698,716.1416 2633.0343,716.4405 L2633.0343,719.1631 Q2632.4034,718.5821 2631.8099,718.3123 Q2631.2164,718.0425 2630.5855,718.0425 Q2629.2408,718.0425 2628.556,719.1092 Q2627.8712,720.1758 2627.8712,722.2759 Q2627.8712,724.3677 2628.556,725.4344 Q2629.2408,726.501 2630.5855,726.501 Q2631.2164,726.501 2631.8099,726.2312 Q2632.4034,725.9615 2633.0343,725.3804 Z " fill="#000000"/><text fill="#000000" font-family="sans-serif" font-size="14" lengthAdjust="spacing" textLength="78.5654" x="2650.5611" y="727.751">HouseBlock</text><line style="stroke:#181818;stroke-width:0.5;" x1="2557.92" x2="2789.2677" y1="738.46" y2="738.46"/><text fill="#000000" font-family="sans-serif" font-size="14" lengthAdjust="spacing" textLength="130.6484" x="2562.92" y="755.9952">-position : Position</text><line style="stroke:#181818;stroke-width:0.5;" x1="2557.92" x2="2789.2677" y1="762.9483" y2="762.9483"/><text fill="#000000" font-family="sans-serif" font-size="14" lengthAdjust="spacing" textLength="221.3477" x="2562.92" y="780.4834">+HouseBlock(position : Position)</text><text fill="#000000" font-family="sans-serif" font-size="14" lengthAdjust="spacing" textLength="152.3457" x="2562.92" y="796.9717">getPosition() : Position</text><text fill="#000000" font-family="sans-serif" font-size="14" lengthAdjust="spacing" textLength="22.3945" x="2562.92" y="813.46">...()</text></g><!--link AddCityUI to AddCityController--><g id="link_AddCityUI_AddCityController"><path codeLine="146" d="M224.85,220.16 C224.85,231.78 224.85,237.39 224.85,249 " fill="none" id="AddCityUI-to-AddCityController" style="stroke:#181818;stroke-width:1.0;stroke-dasharray:7.0,7.0;"/><polygon fill="#181818" points="224.85,255,228.85,246,224.85,250,220.85,246,224.85,255" style="stroke:#181818;stroke-width:1.0;"/></g><!--link AddCityUI to Map--><g id="link_AddCityUI_Map"><path codeLine="147" d="M357.05,154.85 C543.61,213.73 879.7783,319.824 1083.7783,384.214 " fill="none" id="AddCityUI-to-Map" style="stroke:#181818;stroke-width:1.0;stroke-dasharray:7.0,7.0;"/><polygon fill="#181818" points="1089.5,386.02,1082.1214,379.4965,1084.7319,384.515,1079.7134,387.1255,1089.5,386.02" style="stroke:#181818;stroke-width:1.0;"/></g><!--link AddCityController to MapRepository--><g id="link_AddCityController_MapRepository"><path codeLine="149" d="M443.08,526.44 C497.47,526.44 547.15,526.44 592.37,526.44 " fill="none" id="AddCityController-to-MapRepository" style="stroke:#181818;stroke-width:1.0;stroke-dasharray:7.0,7.0;"/><polygon fill="#181818" points="598.37,526.44,589.37,522.44,593.37,526.44,589.37,530.44,598.37,526.44" style="stroke:#181818;stroke-width:1.0;"/></g><!--link AddCityController to Map--><g id="link_AddCityController_Map"><path codeLine="150" d="M442.75,489.06 C493.77,481.28 548.05,473.82 598.7,468.44 C765.29,450.75 950.7415,443.6143 1083.8115,440.6343 " fill="none" id="AddCityController-to-Map" style="stroke:#181818;stroke-width:1.0;stroke-dasharray:7.0,7.0;"/><polygon fill="#181818" points="1089.81,440.5,1080.7227,436.7025,1084.8113,440.6119,1080.9018,444.7005,1089.81,440.5" style="stroke:#181818;stroke-width:1.0;"/></g><!--link AddCityController to City--><g id="link_AddCityController_City"><path codeLine="151" d="M443.11,565.23 C494,572.93 548.12,580 598.7,584.44 C918.32,612.51 1276.35,618.4807 1544.36,618.0007 " fill="none" id="AddCityController-to-City" style="stroke:#181818;stroke-width:1.0;stroke-dasharray:7.0,7.0;"/><polygon fill="#181818" points="1550.36,617.99,1541.3529,614.0061,1545.36,617.999,1541.3672,622.0061,1550.36,617.99" style="stroke:#181818;stroke-width:1.0;"/></g><!--link AddCityController to Position--><g id="link_AddCityController_Position"><path codeLine="152" d="M442.98,357.93 C518.86,314.35 607.35,279.44 696.11,279.44 C696.11,279.44 696.11,279.44 2674.59,279.44 C2782.05,279.44 2894.2473,303.5442 2985.9673,329.5342 " fill="none" id="AddCityController-to-Position" style="stroke:#181818;stroke-width:1.0;stroke-dasharray:7.0,7.0;"/><polygon fill="#181818" points="2991.74,331.17,2984.1714,324.8679,2986.9294,329.8069,2981.9904,332.5648,2991.74,331.17" style="stroke:#181818;stroke-width:1.0;"/></g><!--link AddCityController to HouseBlock--><g id="link_AddCityController_HouseBlock"><path codeLine="153" d="M443.05,743.14 C452.76,748.74 462.66,753.88 472.7,758.44 C563.54,799.69 596.34,780.44 696.11,780.44 C696.11,780.44 696.11,780.44 1941.42,780.44 C2158.7,780.44 2406.2137,773.0496 2550.4237,768.0096 " fill="none" id="AddCityController-to-HouseBlock" style="stroke:#181818;stroke-width:1.0;stroke-dasharray:7.0,7.0;"/><polygon fill="#181818" points="2556.42,767.8,2547.2858,764.1168,2551.4231,767.9746,2547.5652,772.1119,2556.42,767.8" style="stroke:#181818;stroke-width:1.0;"/></g><!--link AddCityController to Repositories--><g id="link_AddCityController_Repositories"><path codeLine="154" d="M224.85,798.25 C224.85,824.79 224.85,845.33 224.85,871.87 " fill="none" id="AddCityController-to-Repositories" style="stroke:#181818;stroke-width:1.0;stroke-dasharray:7.0,7.0;"/><polygon fill="#181818" points="224.85,877.87,228.85,868.87,224.85,872.87,220.85,868.87,224.85,877.87" style="stroke:#181818;stroke-width:1.0;"/></g><!--link Repositories to Repositories--><g id="link_Repositories_Repositories"><path codeLine="156" d="M169.5,877.89 C171.15,858.39 189.6,843.22 224.85,843.22 C260.1,843.22 278.0441,852.4114 279.6941,871.9114 " fill="none" id="Repositories-to-Repositories" style="stroke:#181818;stroke-width:1.0;"/><polygon fill="#181818" points="280.2,877.89,283.4269,868.5848,279.7784,872.9078,275.4554,869.2593,280.2,877.89" style="stroke:#181818;stroke-width:1.0;"/><text fill="#000000" font-family="sans-serif" font-size="13" lengthAdjust="spacing" textLength="52.4634" x="198.85" y="834.7884">instance</text><text fill="#000000" font-family="sans-serif" font-size="13" lengthAdjust="spacing" textLength="8.2202" x="277.8282" y="867.4854">1</text></g><!--link Repositories to MapRepository--><g id="link_Repositories_MapRepository"><path codeLine="157" d="M352.52,877.79 C383.32,859.41 415.27,838.17 442.7,815.44 C535.43,738.57 619.8215,631.2608 663.6215,571.8008 " fill="none" id="Repositories-to-MapRepository" style="stroke:#181818;stroke-width:1.0;"/><polygon fill="#181818" points="667.18,566.97,658.6217,571.8439,664.2146,570.9957,665.0628,576.5886,667.18,566.97" style="stroke:#181818;stroke-width:1.0;"/><text fill="#000000" font-family="sans-serif" font-size="13" lengthAdjust="spacing" textLength="94.4722" x="473.7" y="693.7784">mapRepository</text><text fill="#000000" font-family="sans-serif" font-size="13" lengthAdjust="spacing" textLength="8.2202" x="653.5783" y="587.5193">1</text></g><!--link Repositories to CityRepository--><g id="link_Repositories_CityRepository"><path codeLine="158" d="M359.48,929.43 C494.51,915.28 694.5227,894.3151 819.0927,881.2651 " fill="none" id="Repositories-to-CityRepository" style="stroke:#181818;stroke-width:1.0;"/><polygon fill="#181818" points="825.06,880.64,815.6922,877.5995,820.0872,881.161,816.5257,885.5559,825.06,880.64" style="stroke:#181818;stroke-width:1.0;"/><text fill="#000000" font-family="sans-serif" font-size="13" lengthAdjust="spacing" textLength="89.0449" x="476.2" y="904.5884">cityRepository</text><text fill="#000000" font-family="sans-serif" font-size="13" lengthAdjust="spacing" textLength="8.2202" x="809.2032" y="894.534">1</text></g><!--link Repositories to HouseBlockRepository--><g id="link_Repositories_HouseBlockRepository"><path codeLine="159" d="M359.68,946.82 C540.97,951.39 859.4119,959.4388 1064.1119,964.5988 " fill="none" id="Repositories-to-HouseBlockRepository" style="stroke:#181818;stroke-width:1.0;"/><polygon fill="#181818" points="1070.11,964.75,1061.2137,960.5245,1065.1116,964.624,1061.0121,968.5219,1070.11,964.75" style="stroke:#181818;stroke-width:1.0;"/><text fill="#000000" font-family="sans-serif" font-size="13" lengthAdjust="spacing" textLength="138.4424" x="628.11" y="949.5784">houseBlockRepository</text><text fill="#000000" font-family="sans-serif" font-size="13" lengthAdjust="spacing" textLength="8.2202" x="1054.0796" y="977.4434">1</text></g><!--link MapRepository to Map--><g id="link_MapRepository_Map"><path codeLine="161" d="M795.95,512.93 C864.45,503.28 958.06,489.7 1040.3,476.44 C1056.32,473.85 1067.0753,472.0783 1083.7353,469.2383 " fill="none" id="MapRepository-to-Map" style="stroke:#181818;stroke-width:1.0;"/><polygon fill="#181818" points="1089.65,468.23,1080.1058,465.7993,1084.7211,469.0702,1081.4502,473.6855,1089.65,468.23" style="stroke:#181818;stroke-width:1.0;"/><text fill="#000000" font-family="sans-serif" font-size="13" lengthAdjust="spacing" textLength="34.125" x="915.91" y="473.0084">maps</text><text fill="#000000" font-family="sans-serif" font-size="13" lengthAdjust="spacing" textLength="6.2651" x="1075.9562" y="482.495">*</text></g><!--link CityRepository to City--><g id="link_CityRepository_City"><path codeLine="163" d="M1040.57,842.18 C1161.87,811.17 1361.1369,760.2459 1544.8069,713.2959 " fill="none" id="CityRepository-to-City" style="stroke:#181818;stroke-width:1.0;"/><polygon fill="#181818" points="1550.62,711.81,1540.9097,710.1635,1545.7758,713.0483,1542.891,717.9143,1550.62,711.81" style="stroke:#181818;stroke-width:1.0;"/><text fill="#000000" font-family="sans-serif" font-size="13" lengthAdjust="spacing" textLength="32.9063" x="1240.57" y="737.5084">cities</text><text fill="#000000" font-family="sans-serif" font-size="13" lengthAdjust="spacing" textLength="6.2651" x="1536.6441" y="726.5524">*</text></g><!--link Map to HouseBlockRepository--><g id="link_Map_HouseBlockRepository"><path codeLine="165" d="M1089.63,486.91 C1029.4,513.36 967.73,552.93 932.91,610.94 C872.3,711.92 862.12,781.81 932.91,875.94 C965.69,919.53 1011.72,942.3114 1064.39,955.5114 " fill="none" id="Map-to-HouseBlockRepository" style="stroke:#181818;stroke-width:1.0;stroke-dasharray:7.0,7.0;"/><polygon fill="#181818" points="1070.21,956.97,1062.4524,950.9021,1065.36,955.7545,1060.5076,958.6621,1070.21,956.97" style="stroke:#181818;stroke-width:1.0;"/></g><!--link Map to MapElement--><g id="link_Map_MapElement"><path codeLine="166" d="M1423.36,443.94 C1674.14,452.27 2144.9933,467.9108 2431.5133,477.4308 " fill="none" id="Map-to-MapElement" style="stroke:#181818;stroke-width:1.0;"/><polygon fill="#181818" points="2437.51,477.63,2428.6478,473.3333,2432.5128,477.464,2428.3821,481.3289,2437.51,477.63" style="stroke:#181818;stroke-width:1.0;"/><text fill="#000000" font-family="sans-serif" font-size="13" lengthAdjust="spacing" textLength="46.5791" x="1917.42" y="445.1584">contain</text><text fill="#000000" font-family="sans-serif" font-size="13" lengthAdjust="spacing" textLength="8.2202" x="1431.1036" y="457.1044">1</text><text fill="#000000" font-family="sans-serif" font-size="13" lengthAdjust="spacing" textLength="6.2651" x="2423.6696" y="490.1933">*</text></g><!--link Map to City--><g id="link_Map_City"><path codeLine="167" d="M1423.5,480.78 C1462.62,490.76 1500.1565,500.3356 1544.6065,511.6856 " fill="none" id="Map-to-City" style="stroke:#181818;stroke-width:1.0;"/><polygon fill="#181818" points="1550.42,513.17,1542.6894,507.0677,1545.5754,511.933,1540.7102,514.819,1550.42,513.17" style="stroke:#181818;stroke-width:1.0;"/><text fill="#000000" font-family="sans-serif" font-size="13" lengthAdjust="spacing" textLength="46.5791" x="1473.84" y="491.2884">contain</text><text fill="#000000" font-family="sans-serif" font-size="13" lengthAdjust="spacing" textLength="8.2202" x="1431.25" y="495.6137">1</text><text fill="#000000" font-family="sans-serif" font-size="13" lengthAdjust="spacing" textLength="6.2651" x="1536.44" y="523.8775">*</text></g><!--link Map to Position--><g id="link_Map_Position"><path codeLine="168" d="M1423.52,423.75 C1440.18,422.52 1456.84,421.39 1472.84,420.44 C1901.31,394.99 2008.85,394.6 2437.99,386.44 C2628.26,382.82 2841.13,382.7955 2985.74,383.3855 " fill="none" id="Map-to-Position" style="stroke:#181818;stroke-width:1.0;"/><polygon fill="#181818" points="2991.74,383.41,2982.7564,379.3733,2986.74,383.3896,2982.7238,387.3732,2991.74,383.41" style="stroke:#181818;stroke-width:1.0;"/><text fill="#000000" font-family="sans-serif" font-size="13" lengthAdjust="spacing" textLength="21.874" x="2373.49" y="383.7384">has</text><text fill="#000000" font-family="sans-serif" font-size="13" lengthAdjust="spacing" textLength="8.2202" x="1431.2709" y="435.9995">1</text><text fill="#000000" font-family="sans-serif" font-size="13" lengthAdjust="spacing" textLength="22.7119" x="2961.4367" y="396.2996">1..*</text></g><!--link City to HouseBlock--><g id="link_City_HouseBlock"><path codeLine="170" d="M2330.29,692.75 C2413.04,709.83 2488.314,725.3763 2550.814,738.2863 " fill="none" id="City-to-HouseBlock" style="stroke:#181818;stroke-width:1.0;"/><polygon fill="#181818" points="2556.69,739.5,2548.6852,733.7621,2551.7934,738.4886,2547.0669,741.5967,2556.69,739.5" style="stroke:#181818;stroke-width:1.0;"/><text fill="#000000" font-family="sans-serif" font-size="13" lengthAdjust="spacing" textLength="46.5791" x="2360.99" y="698.0284">contain</text><text fill="#000000" font-family="sans-serif" font-size="13" lengthAdjust="spacing" textLength="8.2202" x="2338.2928" y="707.1052">1</text><text fill="#000000" font-family="sans-serif" font-size="13" lengthAdjust="spacing" textLength="22.7119" x="2526.1204" y="750.9745">1..*</text></g><!--link City to Position--><g id="link_City_Position"><path codeLine="171" d="M2330.46,669.56 C2512.03,680.94 2727.63,672.03 2909.19,601.44 C2975.9,575.5 3031.8942,526.4624 3075.5342,479.1024 " fill="none" id="City-to-Position" style="stroke:#181818;stroke-width:1.0;"/><polygon fill="#181818" points="3079.6,474.69,3070.5597,478.598,3076.2118,478.367,3076.4429,484.0191,3079.6,474.69" style="stroke:#181818;stroke-width:1.0;"/><text fill="#000000" font-family="sans-serif" font-size="13" lengthAdjust="spacing" textLength="21.874" x="2663.09" y="598.0084">has</text><text fill="#000000" font-family="sans-serif" font-size="13" lengthAdjust="spacing" textLength="20.5537" x="2338.5915" y="683.4442">0,1</text><text fill="#000000" font-family="sans-serif" font-size="13" lengthAdjust="spacing" textLength="22.7119" x="3050.9411" y="495.0607">1..*</text></g><!--link City to MapElement--><g id="link_City_MapElement"><path codeLine="172" d="M2330.29,544.89 C2366.97,538.52 2397.4287,533.2377 2431.9987,527.2277 " fill="none" id="City-to-MapElement" style="stroke:#181818;stroke-width:1.0;"/><polygon fill="#181818" points="2437.91,526.2,2428.3579,523.8006,2432.9839,527.0564,2429.7281,531.6824,2437.91,526.2" style="stroke:#181818;stroke-width:1.0;"/><text fill="#000000" font-family="sans-serif" font-size="13" lengthAdjust="spacing" textLength="43.9575" x="2362.49" y="530.3984">type of</text></g><!--link MapElement to Position--><g id="link_MapElement_Position"><path codeLine="174" d="M2909.56,435.68 C2937.42,429.78 2959.4799,425.1019 2985.9499,419.5019 " fill="none" id="MapElement-to-Position" style="stroke:#181818;stroke-width:1.0;"/><polygon fill="#181818" points="2991.82,418.26,2982.187,416.2094,2986.9283,419.2949,2983.8428,424.0362,2991.82,418.26" style="stroke:#181818;stroke-width:1.0;"/><text fill="#000000" font-family="sans-serif" font-size="13" lengthAdjust="spacing" textLength="21.874" x="2940.19" y="422.4584">has</text><text fill="#000000" font-family="sans-serif" font-size="13" lengthAdjust="spacing" textLength="20.5537" x="2916.8705" y="446.9984">0,1</text><text fill="#000000" font-family="sans-serif" font-size="13" lengthAdjust="spacing" textLength="22.7119" x="2961.5206" y="432.8377">1..*</text></g><!--SRC=[bLXBJnin4Bxlhx0uXIP4S5rLI24g8bAX5G-rFPhT8R7OsDkrqpP5_FVQNh_NIoW7qCut7izyyx0DVoQqnHtUeXPNptWDTsBV0EgW4fYk6oYuK-0RNBFVXAxH4svuY3I4WjYtW5hMxDL73cETO4K0L0tcV254Hnvt0bOLetVaBw3JecZWII31K4VM6u5gefmXZ1Q5Ne8MTRqaOl-mGYy5aZydIAuL7MiQw4gBBft8wE1Ax71pZTiIoL-5bawzhSaMjwiQbOXGSMp0RaSdnrBqYv7QMEa0rpTu2sgHnXuPQm3J0FxAE57kZgXK6yOut4h5AxRZSD6mwfcFc5hi1DjYGQfKDV7e6bCPswZIV3wV71Ul2N-U8SUZvE0MMkK_w_QQ9_-Pfz749CsLI1aD18gc4jt9_DAr4RS1DIMoH1cGxhQFq0L1w5mOSEF4dmaN9LA_FthTyoIVFhO9aUoqOLvFq1f455hCrbJX2nkcncoa6d9vTV5E4JTY5RT1XZQNXXIzEE35BTUWfSxf98QaRbHX8QV8aphS_YgYK3inOD5jaIZ7z6TM3hUpZdpNEzbCHj2F8VIDr69ZQO-GAr3J80jzgQfTIy1r7hTQsaihjT5Liicw31cn-pUw6Yyx06TrkF5DMhA92i-f3EhS5ESWpOUxVweRxH9BFzdsVWDBa6KFhYIISWZdonJXlbFkcIKhX9E9eHHzk_YnAqq3jpmh9TU7ndhQ46_i4NMasM9gMlLYlwfb8tkYR4CcDZnH6Myt4UDZ0qGwxgL1tSibNduW5BUvOiTk7medzeHvuK8b-5N5kQBoWrRWG3CoaZaLYoAQ4itX-CwarVb7mvcJp6iq6DOs6URJnL6n7HNGBUMf942LG5yWkK7ENMFbE_Mz6TDr5da_opa-Es1kzZxNWkJaPtamtpGO4PSCOZu-XOVT4RPTs8tPaWZ9YtHpBM9MS7Nzaj78F_u-yAc1hPmg_853RNszTcARAPPEu65AVVngWvutkrD-Ye-Fy4OA5qsJNn5CHzdCnj49z7_xjZ32qJR6ZrnqygQ37FbcXSl1U6UybmflT9AjriDs-b9yizw2oyBOgU3e-fyK9DLfGKVFdwZdz-RBPCLvPBHcLY7ehSoj8Rqjm4zvG-E7meiFFS7wNatRTlGSUJFXncXmNkISE9mbjtlXdpRpyynB9eBrAsPub- -HeBd7LFA0ljHc4UTo5lKavF7m-2kAw8GyEKT7PqVngQaItH-7YQvHlevVAj739RyY7f9bCaNpQtB3iinErgA8xo_QmWVjf_PEnfnSegn6_nRghrBQIinci8N2b5U1RJD1Ilq2neGET8pr77esdqi5crKP5ZPEfYhU6M-frpkTlMLCwoWqTBJ_Ly2JZjGErGDs_W40]--></g></svg>