<svg xmlns="http://www.w3.org/2000/svg" xmlns:xlink="http://www.w3.org/1999/xlink" contentStyleType="text/css" height="1569px" preserveAspectRatio="none" style="width:1609px;height:1569px;background:#FFFFFF;" version="1.1" viewBox="0 0 1609 1569" width="1609px" zoomAndPan="magnify"><defs/><g><rect fill="#FFFFFF" height="1387.0195" style="stroke:#181818;stroke-width:1.0;" width="10" x="58.0054" y="91.4883"/><rect fill="#FFFFFF" height="1387.0195" style="stroke:#181818;stroke-width:1.0;" width="10" x="372.4902" y="91.4883"/><rect fill="#FFFFFF" height="204.5293" style="stroke:#181818;stroke-width:1.0;" width="10" x="681.4146" y="220.041"/><rect fill="#FFFFFF" height="175.8633" style="stroke:#181818;stroke-width:1.0;" width="10" x="681.4146" y="648.7441"/><rect fill="#FFFFFF" height="304.7949" style="stroke:#181818;stroke-width:1.0;" width="10" x="681.4146" y="995.1602"/><rect fill="#FFFFFF" height="71.6211" style="stroke:#181818;stroke-width:1.0;" width="10" x="681.4146" y="1384.8867"/><rect fill="#FFFFFF" height="87.2871" style="stroke:#181818;stroke-width:1.0;" width="10" x="1007.4712" y="249.3516"/><rect fill="#FFFFFF" height="58.6211" style="stroke:#181818;stroke-width:1.0;" width="10" x="1007.4712" y="678.0547"/><rect fill="#FFFFFF" height="246.1738" style="stroke:#181818;stroke-width:1.0;" width="10" x="1007.4712" y="1024.4707"/><rect fill="#FFFFFF" height="29.3105" style="stroke:#181818;stroke-width:1.0;" width="10" x="1350.1714" y="365.9492"/><rect fill="#FFFFFF" height="29.3105" style="stroke:#181818;stroke-width:1.0;" width="10" x="1350.1714" y="765.9863"/><rect fill="#FFFFFF" height="29.3105" style="stroke:#181818;stroke-width:1.0;" width="10" x="1528.1294" y="1162.7129"/><rect fill="none" height="1373.0195" style="stroke:#000000;stroke-width:1.5;" width="1593.7598" x="10" y="98.4883"/><rect fill="none" height="414.7031" style="stroke:#000000;stroke-width:1.5;" width="1379.9766" x="20" y="122.7988"/><rect fill="none" height="90.9316" style="stroke:#000000;stroke-width:1.5;" width="479.7593" x="30" y="439.5703"/><rect fill="none" height="386.0371" style="stroke:#000000;stroke-width:1.5;" width="1379.9766" x="20" y="551.502"/><rect fill="none" height="90.9316" style="stroke:#000000;stroke-width:1.5;" width="476.0713" x="30" y="839.6074"/><rect fill="none" height="118.2422" style="stroke:#000000;stroke-width:1.5;" width="632.8921" x="960.8677" y="1124.0918"/><rect fill="none" height="149.5527" style="stroke:#000000;stroke-width:1.5;" width="819.0889" x="30" y="1314.9551"/><line style="stroke:#181818;stroke-width:0.5;stroke-dasharray:5.0,5.0;" x1="63" x2="63" y1="81.4883" y2="1488.5078"/><line style="stroke:#181818;stroke-width:0.5;stroke-dasharray:5.0,5.0;" x1="376.6255" x2="376.6255" y1="81.4883" y2="1488.5078"/><line style="stroke:#181818;stroke-width:0.5;stroke-dasharray:5.0,5.0;" x1="686.3359" x2="686.3359" y1="81.4883" y2="1488.5078"/><line style="stroke:#181818;stroke-width:0.5;stroke-dasharray:5.0,5.0;" x1="1011.8677" x2="1011.8677" y1="81.4883" y2="1488.5078"/><line style="stroke:#181818;stroke-width:0.5;stroke-dasharray:5.0,5.0;" x1="1354.3662" x2="1354.3662" y1="296.3398" y2="1488.5078"/><line style="stroke:#181818;stroke-width:0.5;stroke-dasharray:5.0,5.0;" x1="1435.9766" x2="1435.9766" y1="81.4883" y2="1488.5078"/><line style="stroke:#181818;stroke-width:0.5;stroke-dasharray:5.0,5.0;" x1="1532.499" x2="1532.499" y1="81.4883" y2="1488.5078"/><text fill="#000000" font-family="sans-serif" font-size="14" lengthAdjust="spacing" textLength="40.0107" x="40" y="78.5352">Editor</text><ellipse cx="63.0054" cy="13.5" fill="#E2E2F0" rx="8" ry="8" style="stroke:#181818;stroke-width:0.5;"/><path d="M63.0054,21.5 L63.0054,48.5 M50.0054,29.5 L76.0054,29.5 M63.0054,48.5 L50.0054,63.5 M63.0054,48.5 L76.0054,63.5 " fill="none" style="stroke:#181818;stroke-width:0.5;"/><text fill="#000000" font-family="sans-serif" font-size="14" lengthAdjust="spacing" textLength="40.0107" x="40" y="1501.043">Editor</text><ellipse cx="63.0054" cy="1512.4961" fill="#E2E2F0" rx="8" ry="8" style="stroke:#181818;stroke-width:0.5;"/><path d="M63.0054,1520.4961 L63.0054,1547.4961 M50.0054,1528.4961 L76.0054,1528.4961 M63.0054,1547.4961 L50.0054,1562.4961 M63.0054,1547.4961 L76.0054,1562.4961 " fill="none" style="stroke:#181818;stroke-width:0.5;"/><rect fill="#E2E2F0" height="30.4883" rx="2.5" ry="2.5" style="stroke:#181818;stroke-width:0.5;" width="85.7295" x="334.6255" y="50"/><text fill="#000000" font-family="sans-serif" font-size="14" lengthAdjust="spacing" textLength="71.7295" x="341.6255" y="70.5352">:AddCityUI</text><rect fill="#E2E2F0" height="30.4883" rx="2.5" ry="2.5" style="stroke:#181818;stroke-width:0.5;" width="85.7295" x="334.6255" y="1487.5078"/><text fill="#000000" font-family="sans-serif" font-size="14" lengthAdjust="spacing" textLength="71.7295" x="341.6255" y="1508.043">:AddCityUI</text><rect fill="#E2E2F0" height="30.4883" rx="2.5" ry="2.5" style="stroke:#181818;stroke-width:0.5;" width="140.1572" x="616.3359" y="50"/><text fill="#000000" font-family="sans-serif" font-size="14" lengthAdjust="spacing" textLength="126.1572" x="623.3359" y="70.5352">:AddCityController</text><rect fill="#E2E2F0" height="30.4883" rx="2.5" ry="2.5" style="stroke:#181818;stroke-width:0.5;" width="140.1572" x="616.3359" y="1487.5078"/><text fill="#000000" font-family="sans-serif" font-size="14" lengthAdjust="spacing" textLength="126.1572" x="623.3359" y="1508.043">:AddCityController</text><rect fill="#E2E2F0" height="46.9766" rx="2.5" ry="2.5" style="stroke:#181818;stroke-width:0.5;" width="83.207" x="970.8677" y="33.5117"/><text fill="#000000" font-family="sans-serif" font-size="14" lengthAdjust="spacing" textLength="69.207" x="977.8677" y="54.0469">actualMap</text><text fill="#000000" font-family="sans-serif" font-size="14" lengthAdjust="spacing" textLength="33.0313" x="995.9556" y="70.5352">:Map</text><rect fill="#E2E2F0" height="46.9766" rx="2.5" ry="2.5" style="stroke:#181818;stroke-width:0.5;" width="83.207" x="970.8677" y="1487.5078"/><text fill="#000000" font-family="sans-serif" font-size="14" lengthAdjust="spacing" textLength="69.207" x="977.8677" y="1508.043">actualMap</text><text fill="#000000" font-family="sans-serif" font-size="14" lengthAdjust="spacing" textLength="33.0313" x="995.9556" y="1524.5313">:Map</text><rect fill="#E2E2F0" height="46.9766" rx="2.5" ry="2.5" style="stroke:#181818;stroke-width:0.5;" width="69.6104" x="1320.3662" y="1487.5078"/><text fill="#000000" font-family="sans-serif" font-size="14" lengthAdjust="spacing" textLength="55.6104" x="1327.3662" y="1508.043">sizeMap</text><text fill="#000000" font-family="sans-serif" font-size="14" lengthAdjust="spacing" textLength="31.8418" x="1339.2505" y="1524.5313">:Size</text><rect fill="#E2E2F0" height="46.9766" rx="2.5" ry="2.5" style="stroke:#181818;stroke-width:0.5;" width="72.5225" x="1399.9766" y="33.5117"/><text fill="#000000" font-family="sans-serif" font-size="14" lengthAdjust="spacing" textLength="55.166" x="1408.6548" y="54.0469">position</text><text fill="#000000" font-family="sans-serif" font-size="14" lengthAdjust="spacing" textLength="58.5225" x="1406.9766" y="70.5352">:Position</text><rect fill="#E2E2F0" height="46.9766" rx="2.5" ry="2.5" style="stroke:#181818;stroke-width:0.5;" width="72.5225" x="1399.9766" y="1487.5078"/><text fill="#000000" font-family="sans-serif" font-size="14" lengthAdjust="spacing" textLength="55.166" x="1408.6548" y="1508.043">position</text><text fill="#000000" font-family="sans-serif" font-size="14" lengthAdjust="spacing" textLength="58.5225" x="1406.9766" y="1524.5313">:Position</text><rect fill="#E2E2F0" height="46.9766" rx="2.5" ry="2.5" style="stroke:#181818;stroke-width:0.5;" width="101.2607" x="1482.499" y="33.5117"/><text fill="#000000" font-family="sans-serif" font-size="14" lengthAdjust="spacing" textLength="83.8428" x="1491.208" y="54.0469">mapElement</text><text fill="#000000" font-family="sans-serif" font-size="14" lengthAdjust="spacing" textLength="87.2607" x="1489.499" y="70.5352">:MapElement</text><rect fill="#E2E2F0" height="46.9766" rx="2.5" ry="2.5" style="stroke:#181818;stroke-width:0.5;" width="101.2607" x="1482.499" y="1487.5078"/><text fill="#000000" font-family="sans-serif" font-size="14" lengthAdjust="spacing" textLength="83.8428" x="1491.208" y="1508.043">mapElement</text><text fill="#000000" font-family="sans-serif" font-size="14" lengthAdjust="spacing" textLength="87.2607" x="1489.499" y="1524.5313">:MapElement</text><rect fill="#FFFFFF" height="1387.0195" style="stroke:#181818;stroke-width:1.0;" width="10" x="58.0054" y="91.4883"/><rect fill="#FFFFFF" height="1387.0195" style="stroke:#181818;stroke-width:1.0;" width="10" x="372.4902" y="91.4883"/><rect fill="#FFFFFF" height="204.5293" style="stroke:#181818;stroke-width:1.0;" width="10" x="681.4146" y="220.041"/><rect fill="#FFFFFF" height="175.8633" style="stroke:#181818;stroke-width:1.0;" width="10" x="681.4146" y="648.7441"/><rect fill="#FFFFFF" height="304.7949" style="stroke:#181818;stroke-width:1.0;" width="10" x="681.4146" y="995.1602"/><rect fill="#FFFFFF" height="71.6211" style="stroke:#181818;stroke-width:1.0;" width="10" x="681.4146" y="1384.8867"/><rect fill="#FFFFFF" height="87.2871" style="stroke:#181818;stroke-width:1.0;" width="10" x="1007.4712" y="249.3516"/><rect fill="#FFFFFF" height="58.6211" style="stroke:#181818;stroke-width:1.0;" width="10" x="1007.4712" y="678.0547"/><rect fill="#FFFFFF" height="246.1738" style="stroke:#181818;stroke-width:1.0;" width="10" x="1007.4712" y="1024.4707"/><rect fill="#FFFFFF" height="29.3105" style="stroke:#181818;stroke-width:1.0;" width="10" x="1350.1714" y="365.9492"/><rect fill="#FFFFFF" height="29.3105" style="stroke:#181818;stroke-width:1.0;" width="10" x="1350.1714" y="765.9863"/><rect fill="#FFFFFF" height="29.3105" style="stroke:#181818;stroke-width:1.0;" width="10" x="1528.1294" y="1162.7129"/><path d="M10,98.4883 L84.4468,98.4883 L84.4468,105.7988 L74.4468,115.7988 L10,115.7988 L10,98.4883 " fill="#EEEEEE" style="stroke:#000000;stroke-width:1.5;"/><rect fill="none" height="1373.0195" style="stroke:#000000;stroke-width:1.5;" width="1593.7598" x="10" y="98.4883"/><text fill="#000000" font-family="sans-serif" font-size="13" font-weight="bold" lengthAdjust="spacing" textLength="29.4468" x="25" y="112.0566">loop</text><text fill="#000000" font-family="sans-serif" font-size="11" font-weight="bold" lengthAdjust="spacing" textLength="152.6465" x="99.4468" y="111.123">[until city position is valid]</text><path d="M20,122.7988 L94.4468,122.7988 L94.4468,130.1094 L84.4468,140.1094 L20,140.1094 L20,122.7988 " fill="#EEEEEE" style="stroke:#000000;stroke-width:1.5;"/><rect fill="none" height="414.7031" style="stroke:#000000;stroke-width:1.5;" width="1379.9766" x="20" y="122.7988"/><text fill="#000000" font-family="sans-serif" font-size="13" font-weight="bold" lengthAdjust="spacing" textLength="29.4468" x="35" y="136.3672">loop</text><text fill="#000000" font-family="sans-serif" font-size="11" font-weight="bold" lengthAdjust="spacing" textLength="110.1021" x="109.4468" y="135.4336">[until valid X value]</text><polygon fill="#181818" points="79.0054,157.4199,69.0054,161.4199,79.0054,165.4199,75.0054,161.4199" style="stroke:#181818;stroke-width:1.0;"/><line style="stroke:#181818;stroke-width:1.0;stroke-dasharray:2.0,2.0;" x1="73.0054" x2="371.4902" y1="161.4199" y2="161.4199"/><text fill="#000000" font-family="sans-serif" font-size="13" font-weight="bold" lengthAdjust="spacing" textLength="8.5757" x="85.0054" y="156.6777">1</text><text fill="#000000" font-family="sans-serif" font-size="13" lengthAdjust="spacing" textLength="137.376" x="97.5811" y="156.6777">ask for city X position</text><polygon fill="#181818" points="360.4902,186.7305,370.4902,190.7305,360.4902,194.7305,364.4902,190.7305" style="stroke:#181818;stroke-width:1.0;"/><line style="stroke:#181818;stroke-width:1.0;" x1="68.0054" x2="366.4902" y1="190.7305" y2="190.7305"/><text fill="#000000" font-family="sans-serif" font-size="13" font-weight="bold" lengthAdjust="spacing" textLength="8.5757" x="75.0054" y="185.9883">2</text><text fill="#000000" font-family="sans-serif" font-size="13" lengthAdjust="spacing" textLength="44.9858" x="87.5811" y="185.9883">enter X</text><polygon fill="#181818" points="669.4146,216.041,679.4146,220.041,669.4146,224.041,673.4146,220.041" style="stroke:#181818;stroke-width:1.0;"/><line style="stroke:#181818;stroke-width:1.0;" x1="382.4902" x2="675.4146" y1="220.041" y2="220.041"/><text fill="#000000" font-family="sans-serif" font-size="13" font-weight="bold" lengthAdjust="spacing" textLength="8.5757" x="389.4902" y="215.2988">3</text><text fill="#000000" font-family="sans-serif" font-size="13" lengthAdjust="spacing" textLength="91.2158" x="402.0659" y="215.2988">getWidthMap()</text><polygon fill="#181818" points="995.4712,245.3516,1005.4712,249.3516,995.4712,253.3516,999.4712,249.3516" style="stroke:#181818;stroke-width:1.0;"/><line style="stroke:#181818;stroke-width:1.0;" x1="691.4146" x2="1001.4712" y1="249.3516" y2="249.3516"/><text fill="#000000" font-family="sans-serif" font-size="13" font-weight="bold" lengthAdjust="spacing" textLength="8.5757" x="698.4146" y="244.6094">4</text><text fill="#000000" font-family="sans-serif" font-size="13" lengthAdjust="spacing" textLength="54.1201" x="710.9902" y="244.6094">getSize()</text><polygon fill="#181818" points="1308.3662,274.6621,1318.3662,278.6621,1308.3662,282.6621,1312.3662,278.6621" style="stroke:#181818;stroke-width:1.0;"/><line style="stroke:#181818;stroke-width:1.0;" x1="1017.4712" x2="1314.3662" y1="278.6621" y2="278.6621"/><text fill="#000000" font-family="sans-serif" font-size="13" font-weight="bold" lengthAdjust="spacing" textLength="8.5757" x="1024.4712" y="273.9199">5</text><text fill="#000000" font-family="sans-serif" font-size="13" lengthAdjust="spacing" textLength="81.0151" x="1037.0469" y="273.9199">get map size</text><rect fill="#E2E2F0" height="46.9766" rx="2.5" ry="2.5" style="stroke:#181818;stroke-width:0.5;" width="69.6104" x="1320.3662" y="257.3516"/><text fill="#000000" font-family="sans-serif" font-size="14" lengthAdjust="spacing" textLength="55.6104" x="1327.3662" y="277.8867">sizeMap</text><text fill="#000000" font-family="sans-serif" font-size="14" lengthAdjust="spacing" textLength="31.8418" x="1339.2505" y="294.375">:Size</text><polygon fill="#181818" points="702.4146,332.6387,692.4146,336.6387,702.4146,340.6387,698.4146,336.6387" style="stroke:#181818;stroke-width:1.0;"/><line style="stroke:#181818;stroke-width:1.0;stroke-dasharray:2.0,2.0;" x1="696.4146" x2="1011.4712" y1="336.6387" y2="336.6387"/><text fill="#000000" font-family="sans-serif" font-size="13" font-weight="bold" lengthAdjust="spacing" textLength="8.5757" x="708.4146" y="331.8965">6</text><text fill="#000000" font-family="sans-serif" font-size="13" lengthAdjust="spacing" textLength="95.9448" x="720.9902" y="331.8965">return mapSize</text><polygon fill="#181818" points="1338.1714,361.9492,1348.1714,365.9492,1338.1714,369.9492,1342.1714,365.9492" style="stroke:#181818;stroke-width:1.0;"/><line style="stroke:#181818;stroke-width:1.0;" x1="691.4146" x2="1344.1714" y1="365.9492" y2="365.9492"/><text fill="#000000" font-family="sans-serif" font-size="13" font-weight="bold" lengthAdjust="spacing" textLength="8.5757" x="698.4146" y="361.207">7</text><text fill="#000000" font-family="sans-serif" font-size="13" lengthAdjust="spacing" textLength="64.6572" x="710.9902" y="361.207">getWidth()</text><polygon fill="#181818" points="702.4146,391.2598,692.4146,395.2598,702.4146,399.2598,698.4146,395.2598" style="stroke:#181818;stroke-width:1.0;"/><line style="stroke:#181818;stroke-width:1.0;stroke-dasharray:2.0,2.0;" x1="696.4146" x2="1354.1714" y1="395.2598" y2="395.2598"/><text fill="#000000" font-family="sans-serif" font-size="13" font-weight="bold" lengthAdjust="spacing" textLength="8.5757" x="708.4146" y="390.5176">8</text><text fill="#000000" font-family="sans-serif" font-size="13" lengthAdjust="spacing" textLength="106.4819" x="720.9902" y="390.5176">return mapWidth</text><polygon fill="#181818" points="393.4902,420.5703,383.4902,424.5703,393.4902,428.5703,389.4902,424.5703" style="stroke:#181818;stroke-width:1.0;"/><line style="stroke:#181818;stroke-width:1.0;stroke-dasharray:2.0,2.0;" x1="387.4902" x2="685.4146" y1="424.5703" y2="424.5703"/><text fill="#000000" font-family="sans-serif" font-size="13" font-weight="bold" lengthAdjust="spacing" textLength="8.5757" x="399.4902" y="419.8281">9</text><text fill="#000000" font-family="sans-serif" font-size="13" lengthAdjust="spacing" textLength="106.4819" x="412.0659" y="419.8281">return mapWidth</text><path d="M30,439.5703 L92.1387,439.5703 L92.1387,446.8809 L82.1387,456.8809 L30,456.8809 L30,439.5703 " fill="#EEEEEE" style="stroke:#000000;stroke-width:1.5;"/><rect fill="none" height="90.9316" style="stroke:#000000;stroke-width:1.5;" width="479.7593" x="30" y="439.5703"/><text fill="#000000" font-family="sans-serif" font-size="13" font-weight="bold" lengthAdjust="spacing" textLength="17.1387" x="45" y="453.1387">alt</text><text fill="#000000" font-family="sans-serif" font-size="11" font-weight="bold" lengthAdjust="spacing" textLength="119.813" x="107.1387" y="452.2051">[(0 &lt; X &lt; mapWidth)]</text><line style="stroke:#181818;stroke-width:1.0;" x1="382.4902" x2="424.4902" y1="478.1914" y2="478.1914"/><line style="stroke:#181818;stroke-width:1.0;" x1="424.4902" x2="424.4902" y1="478.1914" y2="491.1914"/><line style="stroke:#181818;stroke-width:1.0;" x1="383.4902" x2="424.4902" y1="491.1914" y2="491.1914"/><polygon fill="#181818" points="393.4902,487.1914,383.4902,491.1914,393.4902,495.1914,389.4902,491.1914" style="stroke:#181818;stroke-width:1.0;"/><text fill="#000000" font-family="sans-serif" font-size="13" font-weight="bold" lengthAdjust="spacing" textLength="17.1514" x="389.4902" y="473.4492">10</text><text fill="#000000" font-family="sans-serif" font-size="13" lengthAdjust="spacing" textLength="77.1177" x="410.6416" y="473.4492">save X value</text><line style="stroke:#000000;stroke-width:1.0;stroke-dasharray:2.0,2.0;" x1="30" x2="509.7593" y1="500.1914" y2="500.1914"/><polygon fill="#181818" points="79.0054,518.502,69.0054,522.502,79.0054,526.502,75.0054,522.502" style="stroke:#181818;stroke-width:1.0;"/><line style="stroke:#181818;stroke-width:1.0;stroke-dasharray:2.0,2.0;" x1="73.0054" x2="371.4902" y1="522.502" y2="522.502"/><text fill="#000000" font-family="sans-serif" font-size="13" font-weight="bold" lengthAdjust="spacing" textLength="17.1514" x="85.0054" y="517.7598">11</text><text fill="#000000" font-family="sans-serif" font-size="13" lengthAdjust="spacing" textLength="189.4585" x="106.1567" y="517.7598">error message: invalid X value</text><path d="M20,551.502 L94.4468,551.502 L94.4468,558.8125 L84.4468,568.8125 L20,568.8125 L20,551.502 " fill="#EEEEEE" style="stroke:#000000;stroke-width:1.5;"/><rect fill="none" height="386.0371" style="stroke:#000000;stroke-width:1.5;" width="1379.9766" x="20" y="551.502"/><text fill="#000000" font-family="sans-serif" font-size="13" font-weight="bold" lengthAdjust="spacing" textLength="29.4468" x="35" y="565.0703">loop</text><text fill="#000000" font-family="sans-serif" font-size="11" font-weight="bold" lengthAdjust="spacing" textLength="110.3169" x="109.4468" y="564.1367">[until valid Y value]</text><polygon fill="#181818" points="79.0054,586.123,69.0054,590.123,79.0054,594.123,75.0054,590.123" style="stroke:#181818;stroke-width:1.0;"/><line style="stroke:#181818;stroke-width:1.0;stroke-dasharray:2.0,2.0;" x1="73.0054" x2="371.4902" y1="590.123" y2="590.123"/><text fill="#000000" font-family="sans-serif" font-size="13" font-weight="bold" lengthAdjust="spacing" textLength="17.1514" x="85.0054" y="585.3809">12</text><text fill="#000000" font-family="sans-serif" font-size="13" lengthAdjust="spacing" textLength="137.3379" x="106.1567" y="585.3809">ask for city Y position</text><polygon fill="#181818" points="360.4902,615.4336,370.4902,619.4336,360.4902,623.4336,364.4902,619.4336" style="stroke:#181818;stroke-width:1.0;"/><line style="stroke:#181818;stroke-width:1.0;" x1="68.0054" x2="366.4902" y1="619.4336" y2="619.4336"/><text fill="#000000" font-family="sans-serif" font-size="13" font-weight="bold" lengthAdjust="spacing" textLength="17.1514" x="75.0054" y="614.6914">13</text><text fill="#000000" font-family="sans-serif" font-size="13" lengthAdjust="spacing" textLength="44.9478" x="96.1567" y="614.6914">enter Y</text><polygon fill="#181818" points="669.4146,644.7441,679.4146,648.7441,669.4146,652.7441,673.4146,648.7441" style="stroke:#181818;stroke-width:1.0;"/><line style="stroke:#181818;stroke-width:1.0;" x1="382.4902" x2="675.4146" y1="648.7441" y2="648.7441"/><text fill="#000000" font-family="sans-serif" font-size="13" font-weight="bold" lengthAdjust="spacing" textLength="17.1514" x="389.4902" y="644.002">14</text><text fill="#000000" font-family="sans-serif" font-size="13" lengthAdjust="spacing" textLength="96.8145" x="410.6416" y="644.002">getHeightMap()</text><polygon fill="#181818" points="995.4712,674.0547,1005.4712,678.0547,995.4712,682.0547,999.4712,678.0547" style="stroke:#181818;stroke-width:1.0;"/><line style="stroke:#181818;stroke-width:1.0;" x1="691.4146" x2="1001.4712" y1="678.0547" y2="678.0547"/><text fill="#000000" font-family="sans-serif" font-size="13" font-weight="bold" lengthAdjust="spacing" textLength="17.1514" x="698.4146" y="673.3125">15</text><text fill="#000000" font-family="sans-serif" font-size="13" lengthAdjust="spacing" textLength="54.1201" x="719.5659" y="673.3125">getSize()</text><polygon fill="#181818" points="1343.1714,703.3652,1353.1714,707.3652,1343.1714,711.3652,1347.1714,707.3652" style="stroke:#181818;stroke-width:1.0;"/><line style="stroke:#181818;stroke-width:1.0;" x1="1017.4712" x2="1349.1714" y1="707.3652" y2="707.3652"/><text fill="#000000" font-family="sans-serif" font-size="13" font-weight="bold" lengthAdjust="spacing" textLength="17.1514" x="1024.4712" y="702.623">16</text><text fill="#000000" font-family="sans-serif" font-size="13" lengthAdjust="spacing" textLength="81.0151" x="1045.6226" y="702.623">get map size</text><polygon fill="#181818" points="702.4146,732.6758,692.4146,736.6758,702.4146,740.6758,698.4146,736.6758" style="stroke:#181818;stroke-width:1.0;"/><line style="stroke:#181818;stroke-width:1.0;stroke-dasharray:2.0,2.0;" x1="696.4146" x2="1011.4712" y1="736.6758" y2="736.6758"/><text fill="#000000" font-family="sans-serif" font-size="13" font-weight="bold" lengthAdjust="spacing" textLength="17.1514" x="708.4146" y="731.9336">17</text><text fill="#000000" font-family="sans-serif" font-size="13" lengthAdjust="spacing" textLength="95.9448" x="729.5659" y="731.9336">return mapSize</text><polygon fill="#181818" points="1338.1714,761.9863,1348.1714,765.9863,1338.1714,769.9863,1342.1714,765.9863" style="stroke:#181818;stroke-width:1.0;"/><line style="stroke:#181818;stroke-width:1.0;" x1="691.4146" x2="1344.1714" y1="765.9863" y2="765.9863"/><text fill="#000000" font-family="sans-serif" font-size="13" font-weight="bold" lengthAdjust="spacing" textLength="17.1514" x="698.4146" y="761.2441">18</text><text fill="#000000" font-family="sans-serif" font-size="13" lengthAdjust="spacing" textLength="70.2559" x="719.5659" y="761.2441">getHeight()</text><polygon fill="#181818" points="702.4146,791.2969,692.4146,795.2969,702.4146,799.2969,698.4146,795.2969" style="stroke:#181818;stroke-width:1.0;"/><line style="stroke:#181818;stroke-width:1.0;stroke-dasharray:2.0,2.0;" x1="696.4146" x2="1354.1714" y1="795.2969" y2="795.2969"/><text fill="#000000" font-family="sans-serif" font-size="13" font-weight="bold" lengthAdjust="spacing" textLength="17.1514" x="708.4146" y="790.5547">19</text><text fill="#000000" font-family="sans-serif" font-size="13" lengthAdjust="spacing" textLength="112.0806" x="729.5659" y="790.5547">return mapHeight</text><polygon fill="#181818" points="393.4902,820.6074,383.4902,824.6074,393.4902,828.6074,389.4902,824.6074" style="stroke:#181818;stroke-width:1.0;"/><line style="stroke:#181818;stroke-width:1.0;stroke-dasharray:2.0,2.0;" x1="387.4902" x2="685.4146" y1="824.6074" y2="824.6074"/><text fill="#000000" font-family="sans-serif" font-size="13" font-weight="bold" lengthAdjust="spacing" textLength="17.1514" x="399.4902" y="819.8652">20</text><text fill="#000000" font-family="sans-serif" font-size="13" lengthAdjust="spacing" textLength="112.0806" x="420.6416" y="819.8652">return mapHeight</text><path d="M30,839.6074 L92.1387,839.6074 L92.1387,846.918 L82.1387,856.918 L30,856.918 L30,839.6074 " fill="#EEEEEE" style="stroke:#000000;stroke-width:1.5;"/><rect fill="none" height="90.9316" style="stroke:#000000;stroke-width:1.5;" width="476.0713" x="30" y="839.6074"/><text fill="#000000" font-family="sans-serif" font-size="13" font-weight="bold" lengthAdjust="spacing" textLength="17.1387" x="45" y="853.1758">alt</text><text fill="#000000" font-family="sans-serif" font-size="11" font-weight="bold" lengthAdjust="spacing" textLength="125.082" x="107.1387" y="852.2422">[(0 &lt; Y &lt; mapHeight)]</text><line style="stroke:#181818;stroke-width:1.0;" x1="382.4902" x2="424.4902" y1="878.2285" y2="878.2285"/><line style="stroke:#181818;stroke-width:1.0;" x1="424.4902" x2="424.4902" y1="878.2285" y2="891.2285"/><line style="stroke:#181818;stroke-width:1.0;" x1="383.4902" x2="424.4902" y1="891.2285" y2="891.2285"/><polygon fill="#181818" points="393.4902,887.2285,383.4902,891.2285,393.4902,895.2285,389.4902,891.2285" style="stroke:#181818;stroke-width:1.0;"/><text fill="#000000" font-family="sans-serif" font-size="13" font-weight="bold" lengthAdjust="spacing" textLength="17.1514" x="389.4902" y="873.4863">21</text><text fill="#000000" font-family="sans-serif" font-size="13" lengthAdjust="spacing" textLength="73.4297" x="410.6416" y="873.4863">save yValue</text><line style="stroke:#000000;stroke-width:1.0;stroke-dasharray:2.0,2.0;" x1="30" x2="506.0713" y1="900.2285" y2="900.2285"/><polygon fill="#181818" points="79.0054,918.5391,69.0054,922.5391,79.0054,926.5391,75.0054,922.5391" style="stroke:#181818;stroke-width:1.0;"/><line style="stroke:#181818;stroke-width:1.0;stroke-dasharray:2.0,2.0;" x1="73.0054" x2="371.4902" y1="922.5391" y2="922.5391"/><text fill="#000000" font-family="sans-serif" font-size="13" font-weight="bold" lengthAdjust="spacing" textLength="17.1514" x="85.0054" y="917.7969">22</text><text fill="#000000" font-family="sans-serif" font-size="13" lengthAdjust="spacing" textLength="189.4204" x="106.1567" y="917.7969">error message: invalid Y value</text><polygon fill="#181818" points="1424.2378,961.8496,1434.2378,965.8496,1424.2378,969.8496,1428.2378,965.8496" style="stroke:#181818;stroke-width:1.0;"/><line style="stroke:#181818;stroke-width:1.0;" x1="382.4902" x2="1430.2378" y1="965.8496" y2="965.8496"/><text fill="#000000" font-family="sans-serif" font-size="13" font-weight="bold" lengthAdjust="spacing" textLength="17.1514" x="389.4902" y="961.1074">23</text><text fill="#000000" font-family="sans-serif" font-size="13" lengthAdjust="spacing" textLength="250.6055" x="410.6416" y="961.1074">positionCity = new Position(X - 1,Y - 1)</text><polygon fill="#181818" points="669.4146,991.1602,679.4146,995.1602,669.4146,999.1602,673.4146,995.1602" style="stroke:#181818;stroke-width:1.0;"/><line style="stroke:#181818;stroke-width:1.0;" x1="382.4902" x2="675.4146" y1="995.1602" y2="995.1602"/><text fill="#000000" font-family="sans-serif" font-size="13" font-weight="bold" lengthAdjust="spacing" textLength="17.1514" x="389.4902" y="990.418">24</text><text fill="#000000" font-family="sans-serif" font-size="13" lengthAdjust="spacing" textLength="170.9297" x="410.6416" y="990.418">getOccupiedPositionsMap()</text><polygon fill="#181818" points="995.4712,1020.4707,1005.4712,1024.4707,995.4712,1028.4707,999.4712,1024.4707" style="stroke:#181818;stroke-width:1.0;"/><line style="stroke:#181818;stroke-width:1.0;" x1="691.4146" x2="1001.4712" y1="1024.4707" y2="1024.4707"/><text fill="#000000" font-family="sans-serif" font-size="13" font-weight="bold" lengthAdjust="spacing" textLength="17.1514" x="698.4146" y="1019.7285">25</text><text fill="#000000" font-family="sans-serif" font-size="13" lengthAdjust="spacing" textLength="144.3711" x="719.5659" y="1019.7285">getOccupiedPositions()</text><line style="stroke:#181818;stroke-width:1.0;" x1="1017.4712" x2="1059.4712" y1="1053.7813" y2="1053.7813"/><line style="stroke:#181818;stroke-width:1.0;" x1="1059.4712" x2="1059.4712" y1="1053.7813" y2="1066.7813"/><line style="stroke:#181818;stroke-width:1.0;" x1="1018.4712" x2="1059.4712" y1="1066.7813" y2="1066.7813"/><polygon fill="#181818" points="1028.4712,1062.7813,1018.4712,1066.7813,1028.4712,1070.7813,1024.4712,1066.7813" style="stroke:#181818;stroke-width:1.0;"/><text fill="#000000" font-family="sans-serif" font-size="13" font-weight="bold" lengthAdjust="spacing" textLength="17.1514" x="1024.4712" y="1049.0391">26</text><text fill="#000000" font-family="sans-serif" font-size="13" lengthAdjust="spacing" textLength="159.6499" x="1045.6226" y="1049.0391">listAllOccupiedPositions()</text><line style="stroke:#181818;stroke-width:1.0;" x1="1017.4712" x2="1059.4712" y1="1096.0918" y2="1096.0918"/><line style="stroke:#181818;stroke-width:1.0;" x1="1059.4712" x2="1059.4712" y1="1096.0918" y2="1109.0918"/><line style="stroke:#181818;stroke-width:1.0;" x1="1018.4712" x2="1059.4712" y1="1109.0918" y2="1109.0918"/><polygon fill="#181818" points="1028.4712,1105.0918,1018.4712,1109.0918,1028.4712,1113.0918,1024.4712,1109.0918" style="stroke:#181818;stroke-width:1.0;"/><text fill="#000000" font-family="sans-serif" font-size="13" font-weight="bold" lengthAdjust="spacing" textLength="17.1514" x="1024.4712" y="1091.3496">27</text><text fill="#000000" font-family="sans-serif" font-size="13" lengthAdjust="spacing" textLength="156.3174" x="1045.6226" y="1091.3496">occupiedPositions.clear()</text><path d="M960.8677,1124.0918 L1035.3145,1124.0918 L1035.3145,1131.4023 L1025.3145,1141.4023 L960.8677,1141.4023 L960.8677,1124.0918 " fill="#EEEEEE" style="stroke:#000000;stroke-width:1.5;"/><rect fill="none" height="118.2422" style="stroke:#000000;stroke-width:1.5;" width="632.8921" x="960.8677" y="1124.0918"/><text fill="#000000" font-family="sans-serif" font-size="13" font-weight="bold" lengthAdjust="spacing" textLength="29.4468" x="975.8677" y="1137.6602">loop</text><text fill="#000000" font-family="sans-serif" font-size="11" font-weight="bold" lengthAdjust="spacing" textLength="249.9976" x="1050.3145" y="1136.7266">[for each mapElement in mapElementsUsed]</text><polygon fill="#181818" points="1516.1294,1158.7129,1526.1294,1162.7129,1516.1294,1166.7129,1520.1294,1162.7129" style="stroke:#181818;stroke-width:1.0;"/><line style="stroke:#181818;stroke-width:1.0;" x1="1017.4712" x2="1522.1294" y1="1162.7129" y2="1162.7129"/><text fill="#000000" font-family="sans-serif" font-size="13" font-weight="bold" lengthAdjust="spacing" textLength="17.1514" x="1024.4712" y="1157.9707">28</text><text fill="#000000" font-family="sans-serif" font-size="13" lengthAdjust="spacing" textLength="144.3711" x="1045.6226" y="1157.9707">getOccupiedPositions()</text><polygon fill="#181818" points="1028.4712,1188.0234,1018.4712,1192.0234,1028.4712,1196.0234,1024.4712,1192.0234" style="stroke:#181818;stroke-width:1.0;"/><line style="stroke:#181818;stroke-width:1.0;stroke-dasharray:2.0,2.0;" x1="1022.4712" x2="1532.1294" y1="1192.0234" y2="1192.0234"/><text fill="#000000" font-family="sans-serif" font-size="13" font-weight="bold" lengthAdjust="spacing" textLength="17.1514" x="1034.4712" y="1187.2813">29</text><text fill="#000000" font-family="sans-serif" font-size="13" lengthAdjust="spacing" textLength="218.5498" x="1055.6226" y="1187.2813">List&lt;Position&gt; occupiedByElement</text><line style="stroke:#181818;stroke-width:1.0;" x1="1017.4712" x2="1059.4712" y1="1221.334" y2="1221.334"/><line style="stroke:#181818;stroke-width:1.0;" x1="1059.4712" x2="1059.4712" y1="1221.334" y2="1234.334"/><line style="stroke:#181818;stroke-width:1.0;" x1="1018.4712" x2="1059.4712" y1="1234.334" y2="1234.334"/><polygon fill="#181818" points="1028.4712,1230.334,1018.4712,1234.334,1028.4712,1238.334,1024.4712,1234.334" style="stroke:#181818;stroke-width:1.0;"/><text fill="#000000" font-family="sans-serif" font-size="13" font-weight="bold" lengthAdjust="spacing" textLength="17.1514" x="1024.4712" y="1216.5918">30</text><text fill="#000000" font-family="sans-serif" font-size="13" lengthAdjust="spacing" textLength="287.5488" x="1045.6226" y="1216.5918">occupiedPositions.addAll(occupiedByElement)</text><polygon fill="#181818" points="702.4146,1266.6445,692.4146,1270.6445,702.4146,1274.6445,698.4146,1270.6445" style="stroke:#181818;stroke-width:1.0;"/><line style="stroke:#181818;stroke-width:1.0;stroke-dasharray:2.0,2.0;" x1="696.4146" x2="1011.4712" y1="1270.6445" y2="1270.6445"/><text fill="#000000" font-family="sans-serif" font-size="13" font-weight="bold" lengthAdjust="spacing" textLength="17.1514" x="708.4146" y="1265.9023">31</text><text fill="#000000" font-family="sans-serif" font-size="13" lengthAdjust="spacing" textLength="270.9053" x="729.5659" y="1265.9023">return new ArrayList&lt;&gt;(occupiedPositions)</text><polygon fill="#181818" points="393.4902,1295.9551,383.4902,1299.9551,393.4902,1303.9551,389.4902,1299.9551" style="stroke:#181818;stroke-width:1.0;"/><line style="stroke:#181818;stroke-width:1.0;stroke-dasharray:2.0,2.0;" x1="387.4902" x2="685.4146" y1="1299.9551" y2="1299.9551"/><text fill="#000000" font-family="sans-serif" font-size="13" font-weight="bold" lengthAdjust="spacing" textLength="17.1514" x="399.4902" y="1295.2129">32</text><text fill="#000000" font-family="sans-serif" font-size="13" lengthAdjust="spacing" textLength="253.7729" x="420.6416" y="1295.2129">return List&lt;Position&gt; occupiedPositions</text><path d="M30,1314.9551 L92.1387,1314.9551 L92.1387,1322.2656 L82.1387,1332.2656 L30,1332.2656 L30,1314.9551 " fill="#EEEEEE" style="stroke:#000000;stroke-width:1.5;"/><rect fill="none" height="149.5527" style="stroke:#000000;stroke-width:1.5;" width="819.0889" x="30" y="1314.9551"/><text fill="#000000" font-family="sans-serif" font-size="13" font-weight="bold" lengthAdjust="spacing" textLength="17.1387" x="45" y="1328.5234">alt</text><text fill="#000000" font-family="sans-serif" font-size="11" font-weight="bold" lengthAdjust="spacing" textLength="108.7324" x="107.1387" y="1327.5898">[position occupied]</text><polygon fill="#181818" points="79.0054,1349.5762,69.0054,1353.5762,79.0054,1357.5762,75.0054,1353.5762" style="stroke:#181818;stroke-width:1.0;"/><line style="stroke:#181818;stroke-width:1.0;stroke-dasharray:2.0,2.0;" x1="73.0054" x2="371.4902" y1="1353.5762" y2="1353.5762"/><text fill="#000000" font-family="sans-serif" font-size="13" font-weight="bold" lengthAdjust="spacing" textLength="17.1514" x="85.0054" y="1348.834">33</text><text fill="#000000" font-family="sans-serif" font-size="13" lengthAdjust="spacing" textLength="259.3335" x="106.1567" y="1348.834">Error message: Position already occupied</text><line style="stroke:#000000;stroke-width:1.0;stroke-dasharray:2.0,2.0;" x1="30" x2="849.0889" y1="1362.5762" y2="1362.5762"/><polygon fill="#181818" points="669.4146,1380.8867,679.4146,1384.8867,669.4146,1388.8867,673.4146,1384.8867" style="stroke:#181818;stroke-width:1.0;"/><line style="stroke:#181818;stroke-width:1.0;" x1="382.4902" x2="675.4146" y1="1384.8867" y2="1384.8867"/><text fill="#000000" font-family="sans-serif" font-size="13" font-weight="bold" lengthAdjust="spacing" textLength="17.1514" x="389.4902" y="1380.1445">34</text><text fill="#000000" font-family="sans-serif" font-size="13" lengthAdjust="spacing" textLength="177.4551" x="410.6416" y="1380.1445">setPositionCity(positionCity)</text><line style="stroke:#181818;stroke-width:1.0;" x1="691.4146" x2="733.4146" y1="1414.1973" y2="1414.1973"/><line style="stroke:#181818;stroke-width:1.0;" x1="733.4146" x2="733.4146" y1="1414.1973" y2="1427.1973"/><line style="stroke:#181818;stroke-width:1.0;" x1="692.4146" x2="733.4146" y1="1427.1973" y2="1427.1973"/><polygon fill="#181818" points="702.4146,1423.1973,692.4146,1427.1973,702.4146,1431.1973,698.4146,1427.1973" style="stroke:#181818;stroke-width:1.0;"/><text fill="#000000" font-family="sans-serif" font-size="13" font-weight="bold" lengthAdjust="spacing" textLength="17.1514" x="698.4146" y="1409.4551">35</text><text fill="#000000" font-family="sans-serif" font-size="13" lengthAdjust="spacing" textLength="107.5229" x="719.5659" y="1409.4551">save positionCity</text><polygon fill="#181818" points="393.4902,1452.5078,383.4902,1456.5078,393.4902,1460.5078,389.4902,1456.5078" style="stroke:#181818;stroke-width:1.0;"/><line style="stroke:#181818;stroke-width:1.0;stroke-dasharray:2.0,2.0;" x1="387.4902" x2="685.4146" y1="1456.5078" y2="1456.5078"/><text fill="#000000" font-family="sans-serif" font-size="13" font-weight="bold" lengthAdjust="spacing" textLength="17.1514" x="399.4902" y="1451.7656">36</text><text fill="#000000" font-family="sans-serif" font-size="13" lengthAdjust="spacing" textLength="137.7314" x="420.6416" y="1451.7656">city position accepted</text><!--SRC=[nLRRQXin47tVhnZov8IwjAycDRYfeOQ4cBfkxL8ewkx45f6rYwHDSB- -8ydQhFPYfwGGWVTYdJbpqHbfzJsN1LDi1mLBxza65sOl41IcXicDm4HN0BrbMVx8vGRkcD2OiDBaijpzHfKaB3MvWhDfnkb-1ap3zDFNXEmCJtd1f86pqIJBhhZPBsTkVZdhdhxAfL6v4EXfhhv-kOw1vAfaueOLF-M8hWvrCvd78Ct_e8SiwCbX5hCVqnXKv9eRdaj2pG-F3Zc_NSJ07Ikc0dSeZVTvU0ckVqslfpUk1lo16NIfLo-KfyZp0affk82KCeJW5xY61oPubW2D6ihz2IjxBz5Dsh6SmN0ujkmm8i_tS4SbTuIhYh82MnI1oMO452egM4L4OrTPcjoW-SupiwMq1kSLf0hVrHzgmvcHEUNjhMs1QvQHjLqNQ0nhIFPsEIukF0LGWS4kMJVuALY5fbJImXTDT8QzNaF8rcKjuxwWdL2QWJZRpaWSLryeBIuVIrYPFfOQGxG0J1WOl8DBMl7BoYfEmo-kOzVi0LigGjkwJODALgWKYMg7MjDMC08kkwM8qcist5lQNJzRk-ldQ7VTgztFo3TRynhYVINf-eJ_atOzsOl5sw0vgTwrLwytEoxV_RUNgtTzGhtU9-twH174Q8yY-00I7o6S3OCL3E7zcxMzdYTTOhnDqxBWc0KB_QJBxegqzDXYw99rKoG7KNeImRMP276Cg6MJDy5lKu5CDKnSazk-fUNTmjEPI7MklUcbngolRy9XUJhPhgJzEGiTe-8TLZbTKnqk0_EuIl7Z_X1dYoVkmcvV9wh6ienAFsZvYjCAiZk-KLZbJPHYUvV8UD3oTfwSs3ywkxMdB1LhqjV0jdch3vTWrhs_J-Cs3Dn4eP1b-zWwwkYeeJIQUQqR1_NM_9VDFj3PxQJESMHhYp_JM9fYOMhPTjN7hghzrUReqw_sHhNv2m00]--></g></svg>