<svg xmlns="http://www.w3.org/2000/svg" xmlns:xlink="http://www.w3.org/1999/xlink" contentStyleType="text/css" height="478px" preserveAspectRatio="none" style="width:738px;height:478px;background:#FFFFFF;" version="1.1" viewBox="0 0 738 478" width="738px" zoomAndPan="magnify"><defs/><g><rect fill="#FFFFFF" height="295.7949" style="stroke:#181818;stroke-width:1.0;" width="10" x="48.0054" y="91.4883"/><rect fill="#FFFFFF" height="295.7949" style="stroke:#181818;stroke-width:1.0;" width="10" x="301.959" y="91.4883"/><rect fill="#FFFFFF" height="71.6211" style="stroke:#181818;stroke-width:1.0;" width="10" x="579.7163" y="293.6621"/><rect fill="none" height="281.7949" style="stroke:#000000;stroke-width:1.5;" width="722.2158" x="10" y="98.4883"/><rect fill="none" height="149.5527" style="stroke:#000000;stroke-width:1.5;" width="702.2158" x="20" y="223.7305"/><line style="stroke:#181818;stroke-width:0.5;stroke-dasharray:5.0,5.0;" x1="53" x2="53" y1="81.4883" y2="397.2832"/><line style="stroke:#181818;stroke-width:0.5;stroke-dasharray:5.0,5.0;" x1="306.0942" x2="306.0942" y1="81.4883" y2="397.2832"/><line style="stroke:#181818;stroke-width:0.5;stroke-dasharray:5.0,5.0;" x1="584.6377" x2="584.6377" y1="81.4883" y2="397.2832"/><text fill="#000000" font-family="sans-serif" font-size="14" lengthAdjust="spacing" textLength="40.0107" x="30" y="78.5352">Editor</text><ellipse cx="53.0054" cy="13.5" fill="#E2E2F0" rx="8" ry="8" style="stroke:#181818;stroke-width:0.5;"/><path d="M53.0054,21.5 L53.0054,48.5 M40.0054,29.5 L66.0054,29.5 M53.0054,48.5 L40.0054,63.5 M53.0054,48.5 L66.0054,63.5 " fill="none" style="stroke:#181818;stroke-width:0.5;"/><text fill="#000000" font-family="sans-serif" font-size="14" lengthAdjust="spacing" textLength="40.0107" x="30" y="409.8184">Editor</text><ellipse cx="53.0054" cy="421.2715" fill="#E2E2F0" rx="8" ry="8" style="stroke:#181818;stroke-width:0.5;"/><path d="M53.0054,429.2715 L53.0054,456.2715 M40.0054,437.2715 L66.0054,437.2715 M53.0054,456.2715 L40.0054,471.2715 M53.0054,456.2715 L66.0054,471.2715 " fill="none" style="stroke:#181818;stroke-width:0.5;"/><rect fill="#E2E2F0" height="30.4883" rx="2.5" ry="2.5" style="stroke:#181818;stroke-width:0.5;" width="85.7295" x="264.0942" y="50"/><text fill="#000000" font-family="sans-serif" font-size="14" lengthAdjust="spacing" textLength="71.7295" x="271.0942" y="70.5352">:AddCityUI</text><rect fill="#E2E2F0" height="30.4883" rx="2.5" ry="2.5" style="stroke:#181818;stroke-width:0.5;" width="85.7295" x="264.0942" y="396.2832"/><text fill="#000000" font-family="sans-serif" font-size="14" lengthAdjust="spacing" textLength="71.7295" x="271.0942" y="416.8184">:AddCityUI</text><rect fill="#E2E2F0" height="30.4883" rx="2.5" ry="2.5" style="stroke:#181818;stroke-width:0.5;" width="140.1572" x="514.6377" y="50"/><text fill="#000000" font-family="sans-serif" font-size="14" lengthAdjust="spacing" textLength="126.1572" x="521.6377" y="70.5352">:AddCityController</text><rect fill="#E2E2F0" height="30.4883" rx="2.5" ry="2.5" style="stroke:#181818;stroke-width:0.5;" width="140.1572" x="514.6377" y="396.2832"/><text fill="#000000" font-family="sans-serif" font-size="14" lengthAdjust="spacing" textLength="126.1572" x="521.6377" y="416.8184">:AddCityController</text><rect fill="#FFFFFF" height="295.7949" style="stroke:#181818;stroke-width:1.0;" width="10" x="48.0054" y="91.4883"/><rect fill="#FFFFFF" height="295.7949" style="stroke:#181818;stroke-width:1.0;" width="10" x="301.959" y="91.4883"/><rect fill="#FFFFFF" height="71.6211" style="stroke:#181818;stroke-width:1.0;" width="10" x="579.7163" y="293.6621"/><path d="M10,98.4883 L84.4468,98.4883 L84.4468,105.7988 L74.4468,115.7988 L10,115.7988 L10,98.4883 " fill="#EEEEEE" style="stroke:#000000;stroke-width:1.5;"/><rect fill="none" height="281.7949" style="stroke:#000000;stroke-width:1.5;" width="722.2158" x="10" y="98.4883"/><text fill="#000000" font-family="sans-serif" font-size="13" font-weight="bold" lengthAdjust="spacing" textLength="29.4468" x="25" y="112.0566">loop</text><text fill="#000000" font-family="sans-serif" font-size="11" font-weight="bold" lengthAdjust="spacing" textLength="99.7036" x="99.4468" y="111.123">[until valid name]</text><polygon fill="#181818" points="69.0054,133.1094,59.0054,137.1094,69.0054,141.1094,65.0054,137.1094" style="stroke:#181818;stroke-width:1.0;"/><line style="stroke:#181818;stroke-width:1.0;stroke-dasharray:2.0,2.0;" x1="63.0054" x2="300.959" y1="137.1094" y2="137.1094"/><text fill="#000000" font-family="sans-serif" font-size="13" font-weight="bold" lengthAdjust="spacing" textLength="8.5757" x="75.0054" y="132.3672">1</text><text fill="#000000" font-family="sans-serif" font-size="13" lengthAdjust="spacing" textLength="108.5259" x="87.5811" y="132.3672">ask for city name</text><polygon fill="#181818" points="289.959,162.4199,299.959,166.4199,289.959,170.4199,293.959,166.4199" style="stroke:#181818;stroke-width:1.0;"/><line style="stroke:#181818;stroke-width:1.0;" x1="58.0054" x2="295.959" y1="166.4199" y2="166.4199"/><text fill="#000000" font-family="sans-serif" font-size="13" font-weight="bold" lengthAdjust="spacing" textLength="8.5757" x="65.0054" y="161.6777">2</text><text fill="#000000" font-family="sans-serif" font-size="13" lengthAdjust="spacing" textLength="95.8813" x="77.5811" y="161.6777">enter nameCity</text><line style="stroke:#181818;stroke-width:1.0;" x1="311.959" x2="353.959" y1="195.7305" y2="195.7305"/><line style="stroke:#181818;stroke-width:1.0;" x1="353.959" x2="353.959" y1="195.7305" y2="208.7305"/><line style="stroke:#181818;stroke-width:1.0;" x1="312.959" x2="353.959" y1="208.7305" y2="208.7305"/><polygon fill="#181818" points="322.959,204.7305,312.959,208.7305,322.959,212.7305,318.959,208.7305" style="stroke:#181818;stroke-width:1.0;"/><text fill="#000000" font-family="sans-serif" font-size="13" font-weight="bold" lengthAdjust="spacing" textLength="8.5757" x="318.959" y="190.9883">3</text><text fill="#000000" font-family="sans-serif" font-size="13" lengthAdjust="spacing" textLength="231.1816" x="331.5347" y="190.9883">check name (no special chars/digits)</text><path d="M20,223.7305 L82.1387,223.7305 L82.1387,231.041 L72.1387,241.041 L20,241.041 L20,223.7305 " fill="#EEEEEE" style="stroke:#000000;stroke-width:1.5;"/><rect fill="none" height="149.5527" style="stroke:#000000;stroke-width:1.5;" width="702.2158" x="20" y="223.7305"/><text fill="#000000" font-family="sans-serif" font-size="13" font-weight="bold" lengthAdjust="spacing" textLength="17.1387" x="35" y="237.2988">alt</text><text fill="#000000" font-family="sans-serif" font-size="11" font-weight="bold" lengthAdjust="spacing" textLength="94.2412" x="97.1387" y="236.3652">[is invalid name]</text><polygon fill="#181818" points="69.0054,258.3516,59.0054,262.3516,69.0054,266.3516,65.0054,262.3516" style="stroke:#181818;stroke-width:1.0;"/><line style="stroke:#181818;stroke-width:1.0;stroke-dasharray:2.0,2.0;" x1="63.0054" x2="300.959" y1="262.3516" y2="262.3516"/><text fill="#000000" font-family="sans-serif" font-size="13" font-weight="bold" lengthAdjust="spacing" textLength="8.5757" x="75.0054" y="257.6094">4</text><text fill="#000000" font-family="sans-serif" font-size="13" lengthAdjust="spacing" textLength="207.3779" x="87.5811" y="257.6094">error message: invalid City name</text><line style="stroke:#000000;stroke-width:1.0;stroke-dasharray:2.0,2.0;" x1="20" x2="722.2158" y1="271.3516" y2="271.3516"/><polygon fill="#181818" points="567.7163,289.6621,577.7163,293.6621,567.7163,297.6621,571.7163,293.6621" style="stroke:#181818;stroke-width:1.0;"/><line style="stroke:#181818;stroke-width:1.0;" x1="311.959" x2="573.7163" y1="293.6621" y2="293.6621"/><text fill="#000000" font-family="sans-serif" font-size="13" font-weight="bold" lengthAdjust="spacing" textLength="8.5757" x="318.959" y="288.9199">5</text><text fill="#000000" font-family="sans-serif" font-size="13" lengthAdjust="spacing" textLength="146.7896" x="331.5347" y="288.9199">setCityName(nameCity)</text><line style="stroke:#181818;stroke-width:1.0;" x1="589.7163" x2="631.7163" y1="322.9727" y2="322.9727"/><line style="stroke:#181818;stroke-width:1.0;" x1="631.7163" x2="631.7163" y1="322.9727" y2="335.9727"/><line style="stroke:#181818;stroke-width:1.0;" x1="590.7163" x2="631.7163" y1="335.9727" y2="335.9727"/><polygon fill="#181818" points="600.7163,331.9727,590.7163,335.9727,600.7163,339.9727,596.7163,335.9727" style="stroke:#181818;stroke-width:1.0;"/><text fill="#000000" font-family="sans-serif" font-size="13" font-weight="bold" lengthAdjust="spacing" textLength="8.5757" x="596.7163" y="318.2305">6</text><text fill="#000000" font-family="sans-serif" font-size="13" lengthAdjust="spacing" textLength="90.9238" x="609.292" y="318.2305">save nameCity</text><polygon fill="#181818" points="322.959,361.2832,312.959,365.2832,322.959,369.2832,318.959,365.2832" style="stroke:#181818;stroke-width:1.0;"/><line style="stroke:#181818;stroke-width:1.0;stroke-dasharray:2.0,2.0;" x1="316.959" x2="583.7163" y1="365.2832" y2="365.2832"/><text fill="#000000" font-family="sans-serif" font-size="13" font-weight="bold" lengthAdjust="spacing" textLength="8.5757" x="328.959" y="360.541">7</text><text fill="#000000" font-family="sans-serif" font-size="13" lengthAdjust="spacing" textLength="121.1323" x="341.5347" y="360.541">city name accepted</text><!--SRC=[TPB1Ri8m38RlVGgB4npGxZqWJHq7f6c73Hx0IqoncYPLOfXu-xaPT4KjlhID___B7wUfOTzXn1OwD0tMz2LNHn392FhQKP46GJgX3J_iQpYYIrJWMO8_jzyKYmADX0YBhMLzBW0JRD_sXVg43NVe1HRbgxKLo_Mmo_t3RhvT1IynE4T_c6h_-PxnV46XJ0MjOK4nS2iNGWTdB-pWWeujU6nfwFPrsC5wlUaXK2gyWQE6DhhfLDfhLAgE4iWBnIpf0qw8DvKvaMco2fO-GEh8C3fTnfXUBDSiQVNWHIV02TW_IJj9J35gtfPIqdig1sCrUm3ghsWEjyapLLmYwQqVwbpU3xUQM8P9vvk0cSgu4HOlD3-iHyCmjtjytSfG9sGd9alFKv3_rz_VHthzFqPVEiTV]--></g></svg>