<svg xmlns="http://www.w3.org/2000/svg" xmlns:xlink="http://www.w3.org/1999/xlink" contentStyleType="text/css" height="604.5px" preserveAspectRatio="none" style="width:733px;height:604px;background:#FFFFFF;" version="1.1" viewBox="0 0 733 604" width="733px" zoomAndPan="magnify"><defs/><g><rect fill="#FFFFFF" height="507.1416" style="stroke:#181818;stroke-width:0.5;" width="5" x="11.4207" y="46.8105"/><rect fill="#FFFFFF" height="495.4961" style="stroke:#181818;stroke-width:0.5;" width="5" x="147.136" y="58.4561"/><rect fill="#FFFFFF" height="479.8506" style="stroke:#181818;stroke-width:0.5;" width="5" x="335.2249" y="74.1016"/><rect fill="#FFFFFF" height="15.6455" style="stroke:#181818;stroke-width:0.5;" width="5" x="520.387" y="400.3271"/><rect fill="#FFFFFF" height="46.9365" style="stroke:#181818;stroke-width:0.5;" width="5" x="564.6782" y="431.6182"/><rect fill="#FFFFFF" height="15.6455" style="stroke:#181818;stroke-width:0.5;" width="5" x="601.7729" y="309.7842"/><rect fill="#FFFFFF" height="15.6455" style="stroke:#181818;stroke-width:0.5;" width="5" x="659.6848" y="447.2637"/><rect fill="#FFFFFF" height="15.6455" style="stroke:#181818;stroke-width:0.5;" width="5" x="712.1519" y="215.9111"/><rect fill="none" height="40.9365" style="stroke:#000000;stroke-width:0.75;" width="268.5093" x="115.262" y="144.1836"/><rect fill="none" height="183.7314" style="stroke:#000000;stroke-width:0.75;" width="589.021" x="110.262" y="355.0752"/><rect fill="none" height="49.252" style="stroke:#000000;stroke-width:0.75;" width="268.5093" x="115.262" y="486.0547"/><line style="stroke:#181818;stroke-width:0.25;stroke-dasharray:5.0,5.0;" x1="13.5" x2="13.5" y1="41.8105" y2="562.9521"/><line style="stroke:#181818;stroke-width:0.25;stroke-dasharray:5.0,5.0;" x1="149.262" x2="149.262" y1="41.8105" y2="562.9521"/><line style="stroke:#181818;stroke-width:0.25;stroke-dasharray:5.0,5.0;" x1="337.6785" x2="337.6785" y1="41.8105" y2="562.9521"/><line style="stroke:#181818;stroke-width:0.25;stroke-dasharray:5.0,5.0;" x1="466.47" x2="466.47" y1="41.8105" y2="562.9521"/><line style="stroke:#181818;stroke-width:0.25;stroke-dasharray:5.0,5.0;" x1="522.8767" x2="522.8767" y1="41.8105" y2="562.9521"/><line style="stroke:#181818;stroke-width:0.25;stroke-dasharray:5.0,5.0;" x1="566.8972" x2="566.8972" y1="41.8105" y2="562.9521"/><line style="stroke:#181818;stroke-width:0.25;stroke-dasharray:5.0,5.0;" x1="603.9592" x2="603.9592" y1="41.8105" y2="562.9521"/><line style="stroke:#181818;stroke-width:0.25;stroke-dasharray:5.0,5.0;" x1="662.0867" x2="662.0867" y1="41.8105" y2="562.9521"/><line style="stroke:#181818;stroke-width:0.25;stroke-dasharray:5.0,5.0;" x1="714.283" x2="714.283" y1="41.8105" y2="562.9521"/><text fill="#000000" font-family="sans-serif" font-size="7" lengthAdjust="spacing" textLength="19.8413" x="2.5" y="40.0537">Player</text><ellipse cx="13.9207" cy="6.75" fill="#E2E2F0" rx="4" ry="4" style="stroke:#181818;stroke-width:0.25;"/><path d="M13.9207,10.75 L13.9207,24.25 M7.4207,14.75 L20.4207,14.75 M13.9207,24.25 L7.4207,31.75 M13.9207,24.25 L20.4207,31.75 " fill="none" style="stroke:#181818;stroke-width:0.25;"/><text fill="#000000" font-family="sans-serif" font-size="7" lengthAdjust="spacing" textLength="19.8413" x="2.5" y="570.0059">Player</text><ellipse cx="13.9207" cy="576.0127" fill="#E2E2F0" rx="4" ry="4" style="stroke:#181818;stroke-width:0.25;"/><path d="M13.9207,580.0127 L13.9207,593.5127 M7.4207,584.0127 L20.4207,584.0127 M13.9207,593.5127 L7.4207,601.0127 M13.9207,593.5127 L20.4207,601.0127 " fill="none" style="stroke:#181818;stroke-width:0.25;"/><rect fill="#E2E2F0" height="16.3105" rx="1.25" ry="1.25" style="stroke:#181818;stroke-width:0.25;" width="58.748" x="120.262" y="25"/><text fill="#000000" font-family="sans-serif" font-size="7" lengthAdjust="spacing" textLength="51.748" x="123.762" y="36.0537">:CreateStationUI</text><rect fill="#E2E2F0" height="16.3105" rx="1.25" ry="1.25" style="stroke:#181818;stroke-width:0.25;" width="58.748" x="120.262" y="562.4521"/><text fill="#000000" font-family="sans-serif" font-size="7" lengthAdjust="spacing" textLength="51.748" x="123.762" y="573.5059">:CreateStationUI</text><rect fill="#E2E2F0" height="16.3105" rx="1.25" ry="1.25" style="stroke:#181818;stroke-width:0.25;" width="82.0928" x="296.6785" y="25"/><text fill="#000000" font-family="sans-serif" font-size="7" lengthAdjust="spacing" textLength="75.0928" x="300.1785" y="36.0537">:CreateStationController</text><rect fill="#E2E2F0" height="16.3105" rx="1.25" ry="1.25" style="stroke:#181818;stroke-width:0.25;" width="82.0928" x="296.6785" y="562.4521"/><text fill="#000000" font-family="sans-serif" font-size="7" lengthAdjust="spacing" textLength="75.0928" x="300.1785" y="573.5059">:CreateStationController</text><rect fill="#E2E2F0" height="16.3105" rx="1.25" ry="1.25" style="stroke:#181818;stroke-width:0.25;" width="45.9067" x="443.97" y="25"/><text fill="#000000" font-family="sans-serif" font-size="7" lengthAdjust="spacing" textLength="38.9067" x="447.47" y="36.0537">Repositories</text><rect fill="#E2E2F0" height="16.3105" rx="1.25" ry="1.25" style="stroke:#181818;stroke-width:0.25;" width="45.9067" x="443.97" y="562.4521"/><text fill="#000000" font-family="sans-serif" font-size="7" lengthAdjust="spacing" textLength="38.9067" x="447.47" y="573.5059">Repositories</text><rect fill="#E2E2F0" height="25.6211" rx="1.25" ry="1.25" style="stroke:#181818;stroke-width:0.25;" width="56.0205" x="494.8767" y="15.6895"/><text fill="#000000" font-family="sans-serif" font-size="7" lengthAdjust="spacing" textLength="47.0757" x="499.3491" y="26.7432">mapRepository</text><text fill="#000000" font-family="sans-serif" font-size="7" lengthAdjust="spacing" textLength="49.0205" x="498.3767" y="36.0537">:MapRepository</text><rect fill="#E2E2F0" height="25.6211" rx="1.25" ry="1.25" style="stroke:#181818;stroke-width:0.25;" width="56.0205" x="494.8767" y="562.4521"/><text fill="#000000" font-family="sans-serif" font-size="7" lengthAdjust="spacing" textLength="47.0757" x="499.3491" y="573.5059">mapRepository</text><text fill="#000000" font-family="sans-serif" font-size="7" lengthAdjust="spacing" textLength="49.0205" x="498.3767" y="582.8164">:MapRepository</text><rect fill="#E2E2F0" height="16.3105" rx="1.25" ry="1.25" style="stroke:#181818;stroke-width:0.25;" width="22.562" x="555.8972" y="25"/><text fill="#000000" font-family="sans-serif" font-size="7" lengthAdjust="spacing" textLength="15.562" x="559.3972" y="36.0537">:Map</text><rect fill="#E2E2F0" height="16.3105" rx="1.25" ry="1.25" style="stroke:#181818;stroke-width:0.25;" width="22.562" x="555.8972" y="562.4521"/><text fill="#000000" font-family="sans-serif" font-size="7" lengthAdjust="spacing" textLength="15.562" x="559.3972" y="573.5059">:Map</text><rect fill="#E2E2F0" height="25.6211" rx="1.25" ry="1.25" style="stroke:#181818;stroke-width:0.25;" width="41.6274" x="583.4592" y="15.6895"/><text fill="#000000" font-family="sans-serif" font-size="7" lengthAdjust="spacing" textLength="31.5137" x="588.5161" y="26.7432">simulation</text><text fill="#000000" font-family="sans-serif" font-size="7" lengthAdjust="spacing" textLength="34.6274" x="586.9592" y="36.0537">:Simulation</text><rect fill="#E2E2F0" height="25.6211" rx="1.25" ry="1.25" style="stroke:#181818;stroke-width:0.25;" width="41.6274" x="583.4592" y="562.4521"/><text fill="#000000" font-family="sans-serif" font-size="7" lengthAdjust="spacing" textLength="31.5137" x="588.5161" y="573.5059">simulation</text><text fill="#000000" font-family="sans-serif" font-size="7" lengthAdjust="spacing" textLength="34.6274" x="586.9592" y="582.8164">:Simulation</text><rect fill="#E2E2F0" height="25.6211" rx="1.25" ry="1.25" style="stroke:#181818;stroke-width:0.25;" width="64.1963" x="630.0867" y="15.6895"/><text fill="#000000" font-family="sans-serif" font-size="7" lengthAdjust="spacing" textLength="54.0825" x="635.1436" y="26.7432">stationRepository</text><text fill="#000000" font-family="sans-serif" font-size="7" lengthAdjust="spacing" textLength="57.1963" x="633.5867" y="36.0537">:StationRepository</text><rect fill="#E2E2F0" height="25.6211" rx="1.25" ry="1.25" style="stroke:#181818;stroke-width:0.25;" width="64.1963" x="630.0867" y="562.4521"/><text fill="#000000" font-family="sans-serif" font-size="7" lengthAdjust="spacing" textLength="54.0825" x="635.1436" y="573.5059">stationRepository</text><text fill="#000000" font-family="sans-serif" font-size="7" lengthAdjust="spacing" textLength="57.1963" x="633.5867" y="582.8164">:StationRepository</text><rect fill="#E2E2F0" height="25.6211" rx="1.25" ry="1.25" style="stroke:#181818;stroke-width:0.25;" width="30.7378" x="699.283" y="15.6895"/><text fill="#000000" font-family="sans-serif" font-size="7" lengthAdjust="spacing" textLength="20.624" x="704.3398" y="26.7432">station</text><text fill="#000000" font-family="sans-serif" font-size="7" lengthAdjust="spacing" textLength="23.7378" x="702.783" y="36.0537">:Station</text><rect fill="#E2E2F0" height="25.6211" rx="1.25" ry="1.25" style="stroke:#181818;stroke-width:0.25;" width="30.7378" x="699.283" y="562.4521"/><text fill="#000000" font-family="sans-serif" font-size="7" lengthAdjust="spacing" textLength="20.624" x="704.3398" y="573.5059">station</text><text fill="#000000" font-family="sans-serif" font-size="7" lengthAdjust="spacing" textLength="23.7378" x="702.783" y="582.8164">:Station</text><rect fill="#FFFFFF" height="507.1416" style="stroke:#181818;stroke-width:0.5;" width="5" x="11.4207" y="46.8105"/><rect fill="#FFFFFF" height="495.4961" style="stroke:#181818;stroke-width:0.5;" width="5" x="147.136" y="58.4561"/><rect fill="#FFFFFF" height="479.8506" style="stroke:#181818;stroke-width:0.5;" width="5" x="335.2249" y="74.1016"/><rect fill="#FFFFFF" height="15.6455" style="stroke:#181818;stroke-width:0.5;" width="5" x="520.387" y="400.3271"/><rect fill="#FFFFFF" height="46.9365" style="stroke:#181818;stroke-width:0.5;" width="5" x="564.6782" y="431.6182"/><rect fill="#FFFFFF" height="15.6455" style="stroke:#181818;stroke-width:0.5;" width="5" x="601.7729" y="309.7842"/><rect fill="#FFFFFF" height="15.6455" style="stroke:#181818;stroke-width:0.5;" width="5" x="659.6848" y="447.2637"/><rect fill="#FFFFFF" height="15.6455" style="stroke:#181818;stroke-width:0.5;" width="5" x="712.1519" y="215.9111"/><polygon fill="#181818" points="141.136,56.4561,146.136,58.4561,141.136,60.4561,143.136,58.4561" style="stroke:#181818;stroke-width:0.5;"/><line style="stroke:#181818;stroke-width:0.5;" x1="16.4207" x2="144.136" y1="58.4561" y2="58.4561"/><text fill="#000000" font-family="sans-serif" font-size="6.5" font-weight="bold" lengthAdjust="spacing" textLength="3.615" x="19.9207" y="55.8247">1</text><text fill="#000000" font-family="sans-serif" font-size="6.5" lengthAdjust="spacing" textLength="115.6003" x="25.5356" y="55.8247">start CreateStationUI(idMap, simulation)</text><polygon fill="#181818" points="329.2249,72.1016,334.2249,74.1016,329.2249,76.1016,331.2249,74.1016" style="stroke:#181818;stroke-width:0.5;"/><line style="stroke:#181818;stroke-width:0.5;" x1="152.136" x2="332.2249" y1="74.1016" y2="74.1016"/><text fill="#000000" font-family="sans-serif" font-size="6.5" font-weight="bold" lengthAdjust="spacing" textLength="3.615" x="155.636" y="71.4702">2</text><text fill="#000000" font-family="sans-serif" font-size="6.5" lengthAdjust="spacing" textLength="122.8303" x="161.251" y="71.4702">CreateStationController(idMap, simulation)</text><polygon fill="#181818" points="329.2249,87.7471,334.2249,89.7471,329.2249,91.7471,331.2249,89.7471" style="stroke:#181818;stroke-width:0.5;"/><line style="stroke:#181818;stroke-width:0.5;" x1="152.136" x2="332.2249" y1="89.7471" y2="89.7471"/><text fill="#000000" font-family="sans-serif" font-size="6.5" font-weight="bold" lengthAdjust="spacing" textLength="3.615" x="155.636" y="87.1157">3</text><text fill="#000000" font-family="sans-serif" font-size="6.5" lengthAdjust="spacing" textLength="55.9958" x="161.251" y="87.1157">selectStationType()</text><polygon fill="#181818" points="157.636,103.3926,152.636,105.3926,157.636,107.3926,155.636,105.3926" style="stroke:#181818;stroke-width:0.5;"/><line style="stroke:#181818;stroke-width:0.5;stroke-dasharray:2.0,2.0;" x1="154.636" x2="334.7249" y1="105.3926" y2="105.3926"/><text fill="#000000" font-family="sans-serif" font-size="6.5" font-weight="bold" lengthAdjust="spacing" textLength="3.615" x="160.636" y="102.7612">4</text><text fill="#000000" font-family="sans-serif" font-size="6.5" lengthAdjust="spacing" textLength="33.6013" x="166.251" y="102.7612">stationType</text><polygon fill="#181818" points="329.2249,119.0381,334.2249,121.0381,329.2249,123.0381,331.2249,121.0381" style="stroke:#181818;stroke-width:0.5;"/><line style="stroke:#181818;stroke-width:0.5;" x1="152.136" x2="332.2249" y1="121.0381" y2="121.0381"/><text fill="#000000" font-family="sans-serif" font-size="6.5" font-weight="bold" lengthAdjust="spacing" textLength="3.615" x="155.636" y="118.4067">5</text><text fill="#000000" font-family="sans-serif" font-size="6.5" lengthAdjust="spacing" textLength="60.6995" x="161.251" y="118.4067">readStationPosition()</text><polygon fill="#181818" points="157.636,134.6836,152.636,136.6836,157.636,138.6836,155.636,136.6836" style="stroke:#181818;stroke-width:0.5;"/><line style="stroke:#181818;stroke-width:0.5;stroke-dasharray:2.0,2.0;" x1="154.636" x2="334.7249" y1="136.6836" y2="136.6836"/><text fill="#000000" font-family="sans-serif" font-size="6.5" font-weight="bold" lengthAdjust="spacing" textLength="3.615" x="160.636" y="134.0522">6</text><text fill="#000000" font-family="sans-serif" font-size="6.5" lengthAdjust="spacing" textLength="22.4041" x="166.251" y="134.0522">position</text><path d="M115.262,144.1836 L145.3474,144.1836 L145.3474,148.8291 L140.3474,153.8291 L115.262,153.8291 L115.262,144.1836 " fill="#EEEEEE" style="stroke:#000000;stroke-width:0.75;"/><rect fill="none" height="40.9365" style="stroke:#000000;stroke-width:0.75;" width="268.5093" x="115.262" y="144.1836"/><text fill="#000000" font-family="sans-serif" font-size="6.5" font-weight="bold" lengthAdjust="spacing" textLength="7.5854" x="122.762" y="151.6978">alt</text><text fill="#000000" font-family="sans-serif" font-size="5.5" font-weight="bold" lengthAdjust="spacing" textLength="45.3777" x="152.8474" y="151.1187">[type = STATION]</text><polygon fill="#181818" points="329.2249,163.4746,334.2249,165.4746,329.2249,167.4746,331.2249,165.4746" style="stroke:#181818;stroke-width:0.5;"/><line style="stroke:#181818;stroke-width:0.5;" x1="152.136" x2="332.2249" y1="165.4746" y2="165.4746"/><text fill="#000000" font-family="sans-serif" font-size="6.5" font-weight="bold" lengthAdjust="spacing" textLength="3.615" x="155.636" y="162.8433">7</text><text fill="#000000" font-family="sans-serif" font-size="6.5" lengthAdjust="spacing" textLength="67.1931" x="161.251" y="162.8433">selectStationDirection()</text><polygon fill="#181818" points="157.636,179.1201,152.636,181.1201,157.636,183.1201,155.636,181.1201" style="stroke:#181818;stroke-width:0.5;"/><line style="stroke:#181818;stroke-width:0.5;stroke-dasharray:2.0,2.0;" x1="154.636" x2="334.7249" y1="181.1201" y2="181.1201"/><text fill="#000000" font-family="sans-serif" font-size="6.5" font-weight="bold" lengthAdjust="spacing" textLength="3.615" x="160.636" y="178.4888">8</text><text fill="#000000" font-family="sans-serif" font-size="6.5" lengthAdjust="spacing" textLength="24.5686" x="166.251" y="178.4888">direction</text><polygon fill="#181818" points="329.2249,198.2656,334.2249,200.2656,329.2249,202.2656,331.2249,200.2656" style="stroke:#181818;stroke-width:0.5;"/><line style="stroke:#181818;stroke-width:0.5;" x1="152.136" x2="332.2249" y1="200.2656" y2="200.2656"/><text fill="#000000" font-family="sans-serif" font-size="6.5" font-weight="bold" lengthAdjust="spacing" textLength="3.615" x="155.636" y="197.6343">9</text><text fill="#000000" font-family="sans-serif" font-size="6.5" lengthAdjust="spacing" textLength="140.9116" x="161.251" y="197.6343">requestSuggestedName(type, position, direction)</text><polygon fill="#181818" points="706.1519,213.9111,711.1519,215.9111,706.1519,217.9111,708.1519,215.9111" style="stroke:#181818;stroke-width:0.5;"/><line style="stroke:#181818;stroke-width:0.5;" x1="340.2249" x2="709.1519" y1="215.9111" y2="215.9111"/><text fill="#000000" font-family="sans-serif" font-size="6.5" font-weight="bold" lengthAdjust="spacing" textLength="7.23" x="343.7249" y="213.2798">10</text><text fill="#000000" font-family="sans-serif" font-size="6.5" lengthAdjust="spacing" textLength="126.093" x="352.9548" y="213.2798">new Station(type, position, idMap, direction)</text><polygon fill="#181818" points="345.7249,229.5566,340.7249,231.5566,345.7249,233.5566,343.7249,231.5566" style="stroke:#181818;stroke-width:0.5;"/><line style="stroke:#181818;stroke-width:0.5;stroke-dasharray:2.0,2.0;" x1="342.7249" x2="714.1519" y1="231.5566" y2="231.5566"/><text fill="#000000" font-family="sans-serif" font-size="6.5" font-weight="bold" lengthAdjust="spacing" textLength="7.23" x="348.7249" y="228.9253">11</text><text fill="#000000" font-family="sans-serif" font-size="6.5" lengthAdjust="spacing" textLength="47.3345" x="357.9548" y="228.9253">suggestedName</text><polygon fill="#181818" points="157.636,245.2021,152.636,247.2021,157.636,249.2021,155.636,247.2021" style="stroke:#181818;stroke-width:0.5;"/><line style="stroke:#181818;stroke-width:0.5;stroke-dasharray:2.0,2.0;" x1="154.636" x2="334.7249" y1="247.2021" y2="247.2021"/><text fill="#000000" font-family="sans-serif" font-size="6.5" font-weight="bold" lengthAdjust="spacing" textLength="7.23" x="160.636" y="244.5708">12</text><text fill="#000000" font-family="sans-serif" font-size="6.5" lengthAdjust="spacing" textLength="47.3345" x="169.866" y="244.5708">suggestedName</text><polygon fill="#181818" points="21.9207,260.8477,16.9207,262.8477,21.9207,264.8477,19.9207,262.8477" style="stroke:#181818;stroke-width:0.5;"/><line style="stroke:#181818;stroke-width:0.5;stroke-dasharray:2.0,2.0;" x1="18.9207" x2="146.636" y1="262.8477" y2="262.8477"/><text fill="#000000" font-family="sans-serif" font-size="6.5" font-weight="bold" lengthAdjust="spacing" textLength="7.23" x="24.9207" y="260.2163">13</text><text fill="#000000" font-family="sans-serif" font-size="6.5" lengthAdjust="spacing" textLength="65.0413" x="34.1506" y="260.2163">show suggested name</text><polygon fill="#181818" points="141.136,276.4932,146.136,278.4932,141.136,280.4932,143.136,278.4932" style="stroke:#181818;stroke-width:0.5;"/><line style="stroke:#181818;stroke-width:0.5;" x1="16.4207" x2="144.136" y1="278.4932" y2="278.4932"/><text fill="#000000" font-family="sans-serif" font-size="6.5" font-weight="bold" lengthAdjust="spacing" textLength="7.23" x="19.9207" y="275.8618">14</text><text fill="#000000" font-family="sans-serif" font-size="6.5" lengthAdjust="spacing" textLength="84.1794" x="29.1506" y="275.8618">accept or enter custom name</text><polygon fill="#181818" points="329.2249,292.1387,334.2249,294.1387,329.2249,296.1387,331.2249,294.1387" style="stroke:#181818;stroke-width:0.5;"/><line style="stroke:#181818;stroke-width:0.5;" x1="152.136" x2="332.2249" y1="294.1387" y2="294.1387"/><text fill="#000000" font-family="sans-serif" font-size="6.5" font-weight="bold" lengthAdjust="spacing" textLength="7.23" x="155.636" y="291.5073">15</text><text fill="#000000" font-family="sans-serif" font-size="6.5" lengthAdjust="spacing" textLength="161.8589" x="164.866" y="291.5073">createStation(type, position, direction, name, simulation)</text><polygon fill="#181818" points="595.7729,307.7842,600.7729,309.7842,595.7729,311.7842,597.7729,309.7842" style="stroke:#181818;stroke-width:0.5;"/><line style="stroke:#181818;stroke-width:0.5;" x1="340.2249" x2="598.7729" y1="309.7842" y2="309.7842"/><text fill="#000000" font-family="sans-serif" font-size="6.5" font-weight="bold" lengthAdjust="spacing" textLength="7.23" x="343.7249" y="307.1528">16</text><text fill="#000000" font-family="sans-serif" font-size="6.5" lengthAdjust="spacing" textLength="50.9399" x="352.9548" y="307.1528">getActualMoney()</text><polygon fill="#181818" points="345.7249,323.4297,340.7249,325.4297,345.7249,327.4297,343.7249,325.4297" style="stroke:#181818;stroke-width:0.5;"/><line style="stroke:#181818;stroke-width:0.5;stroke-dasharray:2.0,2.0;" x1="342.7249" x2="603.7729" y1="325.4297" y2="325.4297"/><text fill="#000000" font-family="sans-serif" font-size="6.5" font-weight="bold" lengthAdjust="spacing" textLength="7.23" x="348.7249" y="322.7983">17</text><text fill="#000000" font-family="sans-serif" font-size="6.5" lengthAdjust="spacing" textLength="36.8545" x="357.9548" y="322.7983">actualMoney</text><line style="stroke:#181818;stroke-width:0.5;" x1="340.2249" x2="361.2249" y1="341.0752" y2="341.0752"/><line style="stroke:#181818;stroke-width:0.5;" x1="361.2249" x2="361.2249" y1="341.0752" y2="347.5752"/><line style="stroke:#181818;stroke-width:0.5;" x1="340.7249" x2="361.2249" y1="347.5752" y2="347.5752"/><polygon fill="#181818" points="345.7249,345.5752,340.7249,347.5752,345.7249,349.5752,343.7249,347.5752" style="stroke:#181818;stroke-width:0.5;"/><text fill="#000000" font-family="sans-serif" font-size="6.5" font-weight="bold" lengthAdjust="spacing" textLength="7.23" x="343.7249" y="338.4438">18</text><text fill="#000000" font-family="sans-serif" font-size="6.5" lengthAdjust="spacing" textLength="102.9685" x="352.9548" y="338.4438">doYouHaveMoney(simulation, type)</text><path d="M110.262,355.0752 L140.3474,355.0752 L140.3474,359.7207 L135.3474,364.7207 L110.262,364.7207 L110.262,355.0752 " fill="#EEEEEE" style="stroke:#000000;stroke-width:0.75;"/><rect fill="none" height="183.7314" style="stroke:#000000;stroke-width:0.75;" width="589.021" x="110.262" y="355.0752"/><text fill="#000000" font-family="sans-serif" font-size="6.5" font-weight="bold" lengthAdjust="spacing" textLength="7.5854" x="117.762" y="362.5894">alt</text><text fill="#000000" font-family="sans-serif" font-size="5.5" font-weight="bold" lengthAdjust="spacing" textLength="55.0081" x="147.8474" y="362.0103">[insufficient balance]</text><polygon fill="#181818" points="157.636,374.3662,152.636,376.3662,157.636,378.3662,155.636,376.3662" style="stroke:#181818;stroke-width:0.5;"/><line style="stroke:#181818;stroke-width:0.5;stroke-dasharray:2.0,2.0;" x1="154.636" x2="334.7249" y1="376.3662" y2="376.3662"/><text fill="#000000" font-family="sans-serif" font-size="6.5" font-weight="bold" lengthAdjust="spacing" textLength="7.23" x="160.636" y="373.7349">19</text><text fill="#000000" font-family="sans-serif" font-size="6.5" lengthAdjust="spacing" textLength="75.791" x="169.866" y="373.7349">error "Insufficient balance"</text><line style="stroke:#000000;stroke-width:0.5;stroke-dasharray:2.0,2.0;" x1="110.262" x2="699.283" y1="380.8662" y2="380.8662"/><text fill="#000000" font-family="sans-serif" font-size="5.5" font-weight="bold" lengthAdjust="spacing" textLength="50.1204" x="112.762" y="386.8013">[sufficient balance]</text><polygon fill="#181818" points="514.387,398.3271,519.387,400.3271,514.387,402.3271,516.387,400.3271" style="stroke:#181818;stroke-width:0.5;"/><line style="stroke:#181818;stroke-width:0.5;" x1="340.2249" x2="517.387" y1="400.3271" y2="400.3271"/><text fill="#000000" font-family="sans-serif" font-size="6.5" font-weight="bold" lengthAdjust="spacing" textLength="7.23" x="343.7249" y="397.6958">20</text><text fill="#000000" font-family="sans-serif" font-size="6.5" lengthAdjust="spacing" textLength="56.7195" x="352.9548" y="397.6958">getMapById(idMap)</text><polygon fill="#181818" points="345.7249,413.9727,340.7249,415.9727,345.7249,417.9727,343.7249,415.9727" style="stroke:#181818;stroke-width:0.5;"/><line style="stroke:#181818;stroke-width:0.5;stroke-dasharray:2.0,2.0;" x1="342.7249" x2="522.387" y1="415.9727" y2="415.9727"/><text fill="#000000" font-family="sans-serif" font-size="6.5" font-weight="bold" lengthAdjust="spacing" textLength="7.23" x="348.7249" y="413.3413">21</text><text fill="#000000" font-family="sans-serif" font-size="6.5" lengthAdjust="spacing" textLength="12.6445" x="357.9548" y="413.3413">Map</text><polygon fill="#181818" points="558.6782,429.6182,563.6782,431.6182,558.6782,433.6182,560.6782,431.6182" style="stroke:#181818;stroke-width:0.5;"/><line style="stroke:#181818;stroke-width:0.5;" x1="340.2249" x2="561.6782" y1="431.6182" y2="431.6182"/><text fill="#000000" font-family="sans-serif" font-size="6.5" font-weight="bold" lengthAdjust="spacing" textLength="7.23" x="343.7249" y="428.9868">22</text><text fill="#000000" font-family="sans-serif" font-size="6.5" lengthAdjust="spacing" textLength="58.1699" x="352.9548" y="428.9868">addElement(station)</text><polygon fill="#181818" points="653.6848,445.2637,658.6848,447.2637,653.6848,449.2637,655.6848,447.2637" style="stroke:#181818;stroke-width:0.5;"/><line style="stroke:#181818;stroke-width:0.5;" x1="569.6782" x2="656.6848" y1="447.2637" y2="447.2637"/><text fill="#000000" font-family="sans-serif" font-size="6.5" font-weight="bold" lengthAdjust="spacing" textLength="7.23" x="573.1782" y="444.6323">23</text><text fill="#000000" font-family="sans-serif" font-size="6.5" lengthAdjust="spacing" textLength="54.5613" x="582.4082" y="444.6323">addStation(station)</text><polygon fill="#181818" points="575.1782,460.9092,570.1782,462.9092,575.1782,464.9092,573.1782,462.9092" style="stroke:#181818;stroke-width:0.5;"/><line style="stroke:#181818;stroke-width:0.5;stroke-dasharray:2.0,2.0;" x1="572.1782" x2="661.6848" y1="462.9092" y2="462.9092"/><text fill="#000000" font-family="sans-serif" font-size="6.5" font-weight="bold" lengthAdjust="spacing" textLength="7.23" x="578.1782" y="460.2778">24</text><text fill="#000000" font-family="sans-serif" font-size="6.5" lengthAdjust="spacing" textLength="31.0813" x="587.4082" y="460.2778">addStation</text><polygon fill="#181818" points="345.7249,476.5547,340.7249,478.5547,345.7249,480.5547,343.7249,478.5547" style="stroke:#181818;stroke-width:0.5;"/><line style="stroke:#181818;stroke-width:0.5;stroke-dasharray:2.0,2.0;" x1="342.7249" x2="566.6782" y1="478.5547" y2="478.5547"/><text fill="#000000" font-family="sans-serif" font-size="6.5" font-weight="bold" lengthAdjust="spacing" textLength="7.23" x="348.7249" y="475.9233">25</text><text fill="#000000" font-family="sans-serif" font-size="6.5" lengthAdjust="spacing" textLength="31.0813" x="357.9548" y="475.9233">addStation</text><path d="M115.262,486.0547 L145.3474,486.0547 L145.3474,490.7002 L140.3474,495.7002 L115.262,495.7002 L115.262,486.0547 " fill="#EEEEEE" style="stroke:#000000;stroke-width:0.75;"/><rect fill="none" height="49.252" style="stroke:#000000;stroke-width:0.75;" width="268.5093" x="115.262" y="486.0547"/><text fill="#000000" font-family="sans-serif" font-size="6.5" font-weight="bold" lengthAdjust="spacing" textLength="7.5854" x="122.762" y="493.5688">alt</text><text fill="#000000" font-family="sans-serif" font-size="5.5" font-weight="bold" lengthAdjust="spacing" textLength="25.3757" x="152.8474" y="492.9897">[success]</text><polygon fill="#181818" points="157.636,505.3457,152.636,507.3457,157.636,509.3457,155.636,507.3457" style="stroke:#181818;stroke-width:0.5;"/><line style="stroke:#181818;stroke-width:0.5;stroke-dasharray:2.0,2.0;" x1="154.636" x2="334.7249" y1="507.3457" y2="507.3457"/><text fill="#000000" font-family="sans-serif" font-size="6.5" font-weight="bold" lengthAdjust="spacing" textLength="7.23" x="160.636" y="504.7144">26</text><text fill="#000000" font-family="sans-serif" font-size="6.5" lengthAdjust="spacing" textLength="42.6372" x="169.866" y="504.7144">station created</text><line style="stroke:#000000;stroke-width:0.5;stroke-dasharray:2.0,2.0;" x1="115.262" x2="383.7712" y1="511.8457" y2="511.8457"/><text fill="#000000" font-family="sans-serif" font-size="5.5" font-weight="bold" lengthAdjust="spacing" textLength="20.1685" x="117.762" y="517.7808">[failure]</text><polygon fill="#181818" points="157.636,529.3066,152.636,531.3066,157.636,533.3066,155.636,531.3066" style="stroke:#181818;stroke-width:0.5;"/><line style="stroke:#181818;stroke-width:0.5;stroke-dasharray:2.0,2.0;" x1="154.636" x2="334.7249" y1="531.3066" y2="531.3066"/><text fill="#000000" font-family="sans-serif" font-size="6.5" font-weight="bold" lengthAdjust="spacing" textLength="7.23" x="160.636" y="528.6753">27</text><text fill="#000000" font-family="sans-serif" font-size="6.5" lengthAdjust="spacing" textLength="137.2839" x="169.866" y="528.6753">error (position occupied or name already exists)</text><polygon fill="#181818" points="19.4207,551.9521,14.4207,553.9521,19.4207,555.9521,17.4207,553.9521" style="stroke:#181818;stroke-width:0.5;"/><line style="stroke:#181818;stroke-width:0.5;stroke-dasharray:2.0,2.0;" x1="16.4207" x2="149.136" y1="553.9521" y2="553.9521"/><text fill="#000000" font-family="sans-serif" font-size="6.5" font-weight="bold" lengthAdjust="spacing" textLength="7.23" x="22.4207" y="551.3208">28</text><text fill="#000000" font-family="sans-serif" font-size="6.5" lengthAdjust="spacing" textLength="32.8745" x="31.6506" y="551.3208">show result</text><!--SRC=[ZLLTRvim57tFhxZAowYK_85AgzHbbHQfQQCaVPWqQNBX9h5gR6QRTlpxNOm1cq0wNX3ut7FF_RHvux9WckLGiFIDdN1lAu6WCRLCdWJEJ0SmPvQf3ovFS6J2X2U2IxHLWQ2qFQiPAwsIPVwAUZPZgLKQvbl1AjHpO0QsZpzdP6PvoWicBSnlLngP9SVCSYLVrWxrihu6MYbfjHB2KwuEkySOliD26KwkEHe7sJrid_Sn9cT51wj-oTjD-EsCDlVRtsGuK4AuzZG-CJmlXTD7RFlkmu7twyq0t4GIATWF_pMcXqiHthgtySYPopX_frIvH0Czz8Rb7MKKRe7ij8L1mXEUKKmBwFNVECEEYOe1_Y4MugeJJcmJDPdYYpXTpSPf3GfgFqzxeBvAUdi7MGRXj9W9BbAOUQPjdLHwJx8L7j1JCM71DVPNoktzOVtyr1rTL_sTrnCKExjqcBMe3eCowxr_WHt-AT5OCENfH6_CGB8Sfo9rs7qBVI9aKejVT84jUe_37DnHW4GYyGDy21UslgeZ55rHgG7RVqIt398Jgkem6OvP3aeSMKQX4wJkRSASrSTKZiBkPscAXQKjHNcsg24jZLLvWnzFQXfs-7Gs5uuZxlYWZAipfczm9B-cF1vfYCazl3B1P8gGy6DW1_YN6sj6ohFUa9uJsllKbanibCGg6Ii1BPgk1cGJ587rbgCb22nRhzuoKpzL-OEzO-Esbxjmut4J3GoNbr5U6GBKkhuXrYDMytukwCA1_wAzQxTsaorgsM_LEcjMKZoBNU3jcWyFMv8WVKGGGOBKjGnJUkhaPzc3m9p49tvhJQiPAcd6qmT5H6q_NYVozqPuvacMeIfFDXNQ28jJ5BJLfnnrIB56KUyqcaPZel-J6zuFOXQXNLCS6HUbnazecYPBsj45bQPbmMbNqDzwT4bHVLDK5-FNBkNH1NsvX3IQKjYnwNBttU0VtQl15z7y0m00]--></g></svg>