<svg xmlns="http://www.w3.org/2000/svg" xmlns:xlink="http://www.w3.org/1999/xlink" contentStyleType="text/css" height="512px" preserveAspectRatio="none" style="width:985px;height:512px;background:#FFFFFF;" version="1.1" viewBox="0 0 985 512" width="985px" zoomAndPan="magnify"><defs/><g><rect fill="#FFFFFF" height="29.3105" style="stroke:#181818;stroke-width:1.0;" width="10" x="58.0054" y="161.4199"/><rect fill="#FFFFFF" height="87.9316" style="stroke:#181818;stroke-width:1.0;" width="10" x="618.7012" y="220.041"/><rect fill="#FFFFFF" height="29.3105" style="stroke:#181818;stroke-width:1.0;" width="10" x="881.3022" y="249.3516"/><rect fill="none" height="316.416" style="stroke:#000000;stroke-width:1.5;" width="969.3989" x="10" y="98.4883"/><rect fill="none" height="285.1055" style="stroke:#000000;stroke-width:1.5;" width="949.3989" x="20" y="122.7988"/><rect fill="none" height="77.9316" style="stroke:#000000;stroke-width:1.5;" width="688.4565" x="30" y="322.9727"/><line style="stroke:#181818;stroke-width:0.5;stroke-dasharray:5.0,5.0;" x1="63" x2="63" y1="81.4883" y2="431.9043"/><line style="stroke:#181818;stroke-width:0.5;stroke-dasharray:5.0,5.0;" x1="329.3452" x2="329.3452" y1="81.4883" y2="431.9043"/><line style="stroke:#181818;stroke-width:0.5;stroke-dasharray:5.0,5.0;" x1="622.9458" x2="622.9458" y1="81.4883" y2="431.9043"/><line style="stroke:#181818;stroke-width:0.5;stroke-dasharray:5.0,5.0;" x1="886.2056" x2="886.2056" y1="81.4883" y2="431.9043"/><text fill="#000000" font-family="sans-serif" font-size="14" lengthAdjust="spacing" textLength="40.0107" x="40" y="78.5352">Editor</text><ellipse cx="63.0054" cy="13.5" fill="#E2E2F0" rx="8" ry="8" style="stroke:#181818;stroke-width:0.5;"/><path d="M63.0054,21.5 L63.0054,48.5 M50.0054,29.5 L76.0054,29.5 M63.0054,48.5 L50.0054,63.5 M63.0054,48.5 L76.0054,63.5 " fill="none" style="stroke:#181818;stroke-width:0.5;"/><text fill="#000000" font-family="sans-serif" font-size="14" lengthAdjust="spacing" textLength="40.0107" x="40" y="444.4395">Editor</text><ellipse cx="63.0054" cy="455.8926" fill="#E2E2F0" rx="8" ry="8" style="stroke:#181818;stroke-width:0.5;"/><path d="M63.0054,463.8926 L63.0054,490.8926 M50.0054,471.8926 L76.0054,471.8926 M63.0054,490.8926 L50.0054,505.8926 M63.0054,490.8926 L76.0054,505.8926 " fill="none" style="stroke:#181818;stroke-width:0.5;"/><rect fill="#E2E2F0" height="30.4883" rx="2.5" ry="2.5" style="stroke:#181818;stroke-width:0.5;" width="115.083" x="272.3452" y="50"/><text fill="#000000" font-family="sans-serif" font-size="14" lengthAdjust="spacing" textLength="101.083" x="279.3452" y="70.5352">:AddIndustryUI</text><rect fill="#E2E2F0" height="30.4883" rx="2.5" ry="2.5" style="stroke:#181818;stroke-width:0.5;" width="115.083" x="272.3452" y="430.9043"/><text fill="#000000" font-family="sans-serif" font-size="14" lengthAdjust="spacing" textLength="101.083" x="279.3452" y="451.4395">:AddIndustryUI</text><rect fill="#E2E2F0" height="30.4883" rx="2.5" ry="2.5" style="stroke:#181818;stroke-width:0.5;" width="169.5107" x="538.9458" y="50"/><text fill="#000000" font-family="sans-serif" font-size="14" lengthAdjust="spacing" textLength="155.5107" x="545.9458" y="70.5352">:AddIndustryController</text><rect fill="#E2E2F0" height="30.4883" rx="2.5" ry="2.5" style="stroke:#181818;stroke-width:0.5;" width="169.5107" x="538.9458" y="430.9043"/><text fill="#000000" font-family="sans-serif" font-size="14" lengthAdjust="spacing" textLength="155.5107" x="545.9458" y="451.4395">:AddIndustryController</text><rect fill="#E2E2F0" height="46.9766" rx="2.5" ry="2.5" style="stroke:#181818;stroke-width:0.5;" width="146.1934" x="813.2056" y="33.5117"/><text fill="#000000" font-family="sans-serif" font-size="14" lengthAdjust="spacing" textLength="127.7773" x="822.4136" y="54.0469">industryRepository</text><text fill="#000000" font-family="sans-serif" font-size="14" lengthAdjust="spacing" textLength="132.1934" x="820.2056" y="70.5352">:IndustryRepository</text><rect fill="#E2E2F0" height="46.9766" rx="2.5" ry="2.5" style="stroke:#181818;stroke-width:0.5;" width="146.1934" x="813.2056" y="430.9043"/><text fill="#000000" font-family="sans-serif" font-size="14" lengthAdjust="spacing" textLength="127.7773" x="822.4136" y="451.4395">industryRepository</text><text fill="#000000" font-family="sans-serif" font-size="14" lengthAdjust="spacing" textLength="132.1934" x="820.2056" y="467.9277">:IndustryRepository</text><rect fill="#FFFFFF" height="29.3105" style="stroke:#181818;stroke-width:1.0;" width="10" x="58.0054" y="161.4199"/><rect fill="#FFFFFF" height="87.9316" style="stroke:#181818;stroke-width:1.0;" width="10" x="618.7012" y="220.041"/><rect fill="#FFFFFF" height="29.3105" style="stroke:#181818;stroke-width:1.0;" width="10" x="881.3022" y="249.3516"/><path d="M10,98.4883 L192.8013,98.4883 L192.8013,105.7988 L182.8013,115.7988 L10,115.7988 L10,98.4883 " fill="#EEEEEE" style="stroke:#000000;stroke-width:1.5;"/><rect fill="none" height="316.416" style="stroke:#000000;stroke-width:1.5;" width="969.3989" x="10" y="98.4883"/><text fill="#000000" font-family="sans-serif" font-size="13" font-weight="bold" lengthAdjust="spacing" textLength="137.8013" x="25" y="112.0566">Industry Name Input</text><path d="M20,122.7988 L94.4468,122.7988 L94.4468,130.1094 L84.4468,140.1094 L20,140.1094 L20,122.7988 " fill="#EEEEEE" style="stroke:#000000;stroke-width:1.5;"/><rect fill="none" height="285.1055" style="stroke:#000000;stroke-width:1.5;" width="949.3989" x="20" y="122.7988"/><text fill="#000000" font-family="sans-serif" font-size="13" font-weight="bold" lengthAdjust="spacing" textLength="29.4468" x="35" y="136.3672">loop</text><text fill="#000000" font-family="sans-serif" font-size="11" font-weight="bold" lengthAdjust="spacing" textLength="99.7036" x="109.4468" y="135.4336">[until valid name]</text><polygon fill="#181818" points="79.0054,157.4199,69.0054,161.4199,79.0054,165.4199,75.0054,161.4199" style="stroke:#181818;stroke-width:1.0;"/><line style="stroke:#181818;stroke-width:1.0;stroke-dasharray:2.0,2.0;" x1="73.0054" x2="328.8867" y1="161.4199" y2="161.4199"/><text fill="#000000" font-family="sans-serif" font-size="13" font-weight="bold" lengthAdjust="spacing" textLength="8.5757" x="85.0054" y="156.6777">1</text><text fill="#000000" font-family="sans-serif" font-size="13" lengthAdjust="spacing" textLength="138.1313" x="97.5811" y="156.6777">ask for industry name</text><polygon fill="#181818" points="317.8867,186.7305,327.8867,190.7305,317.8867,194.7305,321.8867,190.7305" style="stroke:#181818;stroke-width:1.0;"/><line style="stroke:#181818;stroke-width:1.0;" x1="63.0054" x2="323.8867" y1="190.7305" y2="190.7305"/><text fill="#000000" font-family="sans-serif" font-size="13" font-weight="bold" lengthAdjust="spacing" textLength="8.5757" x="70.0054" y="185.9883">2</text><text fill="#000000" font-family="sans-serif" font-size="13" lengthAdjust="spacing" textLength="124.687" x="82.5811" y="185.9883">enter industryName</text><polygon fill="#181818" points="606.7012,216.041,616.7012,220.041,606.7012,224.041,610.7012,220.041" style="stroke:#181818;stroke-width:1.0;"/><line style="stroke:#181818;stroke-width:1.0;" x1="329.8867" x2="612.7012" y1="220.041" y2="220.041"/><text fill="#000000" font-family="sans-serif" font-size="13" font-weight="bold" lengthAdjust="spacing" textLength="8.5757" x="336.8867" y="215.2988">3</text><text fill="#000000" font-family="sans-serif" font-size="13" lengthAdjust="spacing" textLength="257.2388" x="349.4624" y="215.2988">checkIndustryNameExists(industryName)</text><polygon fill="#181818" points="869.3022,245.3516,879.3022,249.3516,869.3022,253.3516,873.3022,249.3516" style="stroke:#181818;stroke-width:1.0;"/><line style="stroke:#181818;stroke-width:1.0;" x1="628.7012" x2="875.3022" y1="249.3516" y2="249.3516"/><text fill="#000000" font-family="sans-serif" font-size="13" font-weight="bold" lengthAdjust="spacing" textLength="8.5757" x="635.7012" y="244.6094">4</text><text fill="#000000" font-family="sans-serif" font-size="13" lengthAdjust="spacing" textLength="221.0254" x="648.2769" y="244.6094">industryNameExists(industryName)</text><polygon fill="#181818" points="639.7012,274.6621,629.7012,278.6621,639.7012,282.6621,635.7012,278.6621" style="stroke:#181818;stroke-width:1.0;"/><line style="stroke:#181818;stroke-width:1.0;stroke-dasharray:2.0,2.0;" x1="633.7012" x2="885.3022" y1="278.6621" y2="278.6621"/><text fill="#000000" font-family="sans-serif" font-size="13" font-weight="bold" lengthAdjust="spacing" textLength="8.5757" x="645.7012" y="273.9199">5</text><text fill="#000000" font-family="sans-serif" font-size="13" lengthAdjust="spacing" textLength="70.1226" x="658.2769" y="273.9199">true / false</text><polygon fill="#181818" points="340.8867,303.9727,330.8867,307.9727,340.8867,311.9727,336.8867,307.9727" style="stroke:#181818;stroke-width:1.0;"/><line style="stroke:#181818;stroke-width:1.0;stroke-dasharray:2.0,2.0;" x1="334.8867" x2="622.7012" y1="307.9727" y2="307.9727"/><text fill="#000000" font-family="sans-serif" font-size="13" font-weight="bold" lengthAdjust="spacing" textLength="8.5757" x="346.8867" y="303.2305">6</text><text fill="#000000" font-family="sans-serif" font-size="13" lengthAdjust="spacing" textLength="71.519" x="359.4624" y="303.2305">nameExists</text><path d="M30,322.9727 L92.1387,322.9727 L92.1387,330.2832 L82.1387,340.2832 L30,340.2832 L30,322.9727 " fill="#EEEEEE" style="stroke:#000000;stroke-width:1.5;"/><rect fill="none" height="77.9316" style="stroke:#000000;stroke-width:1.5;" width="688.4565" x="30" y="322.9727"/><text fill="#000000" font-family="sans-serif" font-size="13" font-weight="bold" lengthAdjust="spacing" textLength="17.1387" x="45" y="336.541">alt</text><text fill="#000000" font-family="sans-serif" font-size="11" font-weight="bold" lengthAdjust="spacing" textLength="76.001" x="107.1387" y="335.6074">[name exists]</text><polygon fill="#181818" points="74.0054,357.5938,64.0054,361.5938,74.0054,365.5938,70.0054,361.5938" style="stroke:#181818;stroke-width:1.0;"/><line style="stroke:#181818;stroke-width:1.0;stroke-dasharray:2.0,2.0;" x1="68.0054" x2="328.8867" y1="361.5938" y2="361.5938"/><text fill="#000000" font-family="sans-serif" font-size="13" font-weight="bold" lengthAdjust="spacing" textLength="8.5757" x="80.0054" y="356.8516">7</text><text fill="#000000" font-family="sans-serif" font-size="13" lengthAdjust="spacing" textLength="230.3057" x="92.5811" y="356.8516">error message: industry name exists</text><line style="stroke:#000000;stroke-width:1.0;stroke-dasharray:2.0,2.0;" x1="30" x2="718.4565" y1="370.5938" y2="370.5938"/><polygon fill="#181818" points="611.7012,388.9043,621.7012,392.9043,611.7012,396.9043,615.7012,392.9043" style="stroke:#181818;stroke-width:1.0;"/><line style="stroke:#181818;stroke-width:1.0;" x1="329.8867" x2="617.7012" y1="392.9043" y2="392.9043"/><text fill="#000000" font-family="sans-serif" font-size="13" font-weight="bold" lengthAdjust="spacing" textLength="8.5757" x="336.8867" y="388.1621">8</text><text fill="#000000" font-family="sans-serif" font-size="13" lengthAdjust="spacing" textLength="202.8521" x="349.4624" y="388.1621">setIndustryName(industryName)</text><!--SRC=[bLEnQiCm4Dtr5KUcTWZTFGHAui5Gqf8cMw6erYKHbYKXdTFwxoihaMFNoL214TQzz_JkdUqhgIrtl0RBoueVy9rQXU2m9AuF2fdl0Vx8XVcM-W1xhlomegH6QYs2SNGqZ3TaT5D_eMECbsGSp78Xmpu3xY5VRLcWaIobvPfWbZqBKMZHU7BjheYONN4ViZIQd54AptBBxUPb39ONu0QjyTsrxOVEYibXP1VhrUScVtjbxE1COo71OCrh36-s8GPXAMCiD9gaWXDNKe0EzLZfrgw0-NpHTGPPKArW7tfEDiRGa8SySS8OGphiY84VP390JNWbhuTSWIFswFf532BmooEMLJ6Wvp_IatyOAZvExSGOqscK2f8fdI0h_wtOHviglThywfPSW_1q-Q1kz3aHELjBOUdUpIroxEbgJ5740uu9am6YSs5yDNeVVeTiFCU_P1pwdip28mqdSISnr8AbFJo_]--></g></svg>