<svg xmlns="http://www.w3.org/2000/svg" xmlns:xlink="http://www.w3.org/1999/xlink" contentStyleType="text/css" height="624px" preserveAspectRatio="none" style="width:1070px;height:624px;background:#FFFFFF;" version="1.1" viewBox="0 0 1070 624" width="1070px" zoomAndPan="magnify"><defs/><g><rect fill="#FFFFFF" height="442.6582" style="stroke:#181818;stroke-width:1.0;" width="10" x="38.0054" y="91.4883"/><rect fill="#FFFFFF" height="29.3105" style="stroke:#181818;stroke-width:1.0;" width="10" x="43.0054" y="430.2148"/><rect fill="#FFFFFF" height="421.3477" style="stroke:#181818;stroke-width:1.0;" width="10" x="251.04" y="112.7988"/><rect fill="#FFFFFF" height="234.4844" style="stroke:#181818;stroke-width:1.0;" width="10" x="510.2261" y="142.1094"/><rect fill="#FFFFFF" height="29.3105" style="stroke:#181818;stroke-width:1.0;" width="10" x="510.2261" y="488.8359"/><rect fill="#FFFFFF" height="29.3105" style="stroke:#181818;stroke-width:1.0;" width="10" x="653.8789" y="171.4199"/><rect fill="#FFFFFF" height="29.3105" style="stroke:#181818;stroke-width:1.0;" width="10" x="763.8887" y="230.041"/><rect fill="#FFFFFF" height="58.6211" style="stroke:#181818;stroke-width:1.0;" width="10" x="884.5796" y="288.6621"/><rect fill="none" height="134.5527" style="stroke:#000000;stroke-width:1.5;" width="599.9814" x="10" y="391.5938"/><line style="stroke:#181818;stroke-width:0.5;stroke-dasharray:5.0,5.0;" x1="43" x2="43" y1="81.4883" y2="543.1465"/><line style="stroke:#181818;stroke-width:0.5;stroke-dasharray:5.0,5.0;" x1="255.4985" x2="255.4985" y1="81.4883" y2="543.1465"/><line style="stroke:#181818;stroke-width:0.5;stroke-dasharray:5.0,5.0;" x1="514.4707" x2="514.4707" y1="81.4883" y2="543.1465"/><line style="stroke:#181818;stroke-width:0.5;stroke-dasharray:5.0,5.0;" x1="657.9814" x2="657.9814" y1="81.4883" y2="543.1465"/><line style="stroke:#181818;stroke-width:0.5;stroke-dasharray:5.0,5.0;" x1="768.7764" x2="768.7764" y1="81.4883" y2="543.1465"/><line style="stroke:#181818;stroke-width:0.5;stroke-dasharray:5.0,5.0;" x1="889.001" x2="889.001" y1="81.4883" y2="543.1465"/><line style="stroke:#181818;stroke-width:0.5;stroke-dasharray:5.0,5.0;" x1="1022.0913" x2="1022.0913" y1="81.4883" y2="543.1465"/><text fill="#000000" font-family="sans-serif" font-size="14" lengthAdjust="spacing" textLength="40.0107" x="20" y="78.5352">Editor</text><ellipse cx="43.0054" cy="13.5" fill="#E2E2F0" rx="8" ry="8" style="stroke:#181818;stroke-width:0.5;"/><path d="M43.0054,21.5 L43.0054,48.5 M30.0054,29.5 L56.0054,29.5 M43.0054,48.5 L30.0054,63.5 M43.0054,48.5 L56.0054,63.5 " fill="none" style="stroke:#181818;stroke-width:0.5;"/><text fill="#000000" font-family="sans-serif" font-size="14" lengthAdjust="spacing" textLength="40.0107" x="20" y="555.6816">Editor</text><ellipse cx="43.0054" cy="567.1348" fill="#E2E2F0" rx="8" ry="8" style="stroke:#181818;stroke-width:0.5;"/><path d="M43.0054,575.1348 L43.0054,602.1348 M30.0054,583.1348 L56.0054,583.1348 M43.0054,602.1348 L30.0054,617.1348 M43.0054,602.1348 L56.0054,617.1348 " fill="none" style="stroke:#181818;stroke-width:0.5;"/><rect fill="#E2E2F0" height="30.4883" rx="2.5" ry="2.5" style="stroke:#181818;stroke-width:0.5;" width="115.083" x="198.4985" y="50"/><text fill="#000000" font-family="sans-serif" font-size="14" lengthAdjust="spacing" textLength="101.083" x="205.4985" y="70.5352">:AddIndustryUI</text><rect fill="#E2E2F0" height="30.4883" rx="2.5" ry="2.5" style="stroke:#181818;stroke-width:0.5;" width="115.083" x="198.4985" y="542.1465"/><text fill="#000000" font-family="sans-serif" font-size="14" lengthAdjust="spacing" textLength="101.083" x="205.4985" y="562.6816">:AddIndustryUI</text><rect fill="#E2E2F0" height="30.4883" rx="2.5" ry="2.5" style="stroke:#181818;stroke-width:0.5;" width="169.5107" x="430.4707" y="50"/><text fill="#000000" font-family="sans-serif" font-size="14" lengthAdjust="spacing" textLength="155.5107" x="437.4707" y="70.5352">:AddIndustryController</text><rect fill="#E2E2F0" height="30.4883" rx="2.5" ry="2.5" style="stroke:#181818;stroke-width:0.5;" width="169.5107" x="430.4707" y="542.1465"/><text fill="#000000" font-family="sans-serif" font-size="14" lengthAdjust="spacing" textLength="155.5107" x="437.4707" y="562.6816">:AddIndustryController</text><rect fill="#E2E2F0" height="30.4883" rx="2.5" ry="2.5" style="stroke:#181818;stroke-width:0.5;" width="97.7949" x="609.9814" y="50"/><text fill="#000000" font-family="sans-serif" font-size="14" lengthAdjust="spacing" textLength="83.7949" x="616.9814" y="70.5352">Repositories</text><rect fill="#E2E2F0" height="30.4883" rx="2.5" ry="2.5" style="stroke:#181818;stroke-width:0.5;" width="97.7949" x="609.9814" y="542.1465"/><text fill="#000000" font-family="sans-serif" font-size="14" lengthAdjust="spacing" textLength="83.7949" x="616.9814" y="562.6816">Repositories</text><rect fill="#E2E2F0" height="46.9766" rx="2.5" ry="2.5" style="stroke:#181818;stroke-width:0.5;" width="102.2246" x="717.7764" y="33.5117"/><text fill="#000000" font-family="sans-serif" font-size="14" lengthAdjust="spacing" textLength="80.6709" x="728.5532" y="54.0469">repositories</text><text fill="#000000" font-family="sans-serif" font-size="14" lengthAdjust="spacing" textLength="88.2246" x="724.7764" y="70.5352">:Repositories</text><rect fill="#E2E2F0" height="46.9766" rx="2.5" ry="2.5" style="stroke:#181818;stroke-width:0.5;" width="102.2246" x="717.7764" y="542.1465"/><text fill="#000000" font-family="sans-serif" font-size="14" lengthAdjust="spacing" textLength="80.6709" x="728.5532" y="562.6816">repositories</text><text fill="#000000" font-family="sans-serif" font-size="14" lengthAdjust="spacing" textLength="88.2246" x="724.7764" y="579.1699">:Repositories</text><rect fill="#E2E2F0" height="46.9766" rx="2.5" ry="2.5" style="stroke:#181818;stroke-width:0.5;" width="119.1572" x="830.001" y="33.5117"/><text fill="#000000" font-family="sans-serif" font-size="14" lengthAdjust="spacing" textLength="101.7393" x="838.71" y="54.0469">mapRepository</text><text fill="#000000" font-family="sans-serif" font-size="14" lengthAdjust="spacing" textLength="105.1572" x="837.001" y="70.5352">:MapRepository</text><rect fill="#E2E2F0" height="46.9766" rx="2.5" ry="2.5" style="stroke:#181818;stroke-width:0.5;" width="119.1572" x="830.001" y="542.1465"/><text fill="#000000" font-family="sans-serif" font-size="14" lengthAdjust="spacing" textLength="101.7393" x="838.71" y="562.6816">mapRepository</text><text fill="#000000" font-family="sans-serif" font-size="14" lengthAdjust="spacing" textLength="105.1572" x="837.001" y="579.1699">:MapRepository</text><rect fill="#E2E2F0" height="46.9766" rx="2.5" ry="2.5" style="stroke:#181818;stroke-width:0.5;" width="83.207" x="981.0913" y="33.5117"/><text fill="#000000" font-family="sans-serif" font-size="14" lengthAdjust="spacing" textLength="69.207" x="988.0913" y="54.0469">actualMap</text><text fill="#000000" font-family="sans-serif" font-size="14" lengthAdjust="spacing" textLength="33.0313" x="1006.1792" y="70.5352">:Map</text><rect fill="#E2E2F0" height="46.9766" rx="2.5" ry="2.5" style="stroke:#181818;stroke-width:0.5;" width="83.207" x="981.0913" y="542.1465"/><text fill="#000000" font-family="sans-serif" font-size="14" lengthAdjust="spacing" textLength="69.207" x="988.0913" y="562.6816">actualMap</text><text fill="#000000" font-family="sans-serif" font-size="14" lengthAdjust="spacing" textLength="33.0313" x="1006.1792" y="579.1699">:Map</text><rect fill="#FFFFFF" height="442.6582" style="stroke:#181818;stroke-width:1.0;" width="10" x="38.0054" y="91.4883"/><rect fill="#FFFFFF" height="29.3105" style="stroke:#181818;stroke-width:1.0;" width="10" x="43.0054" y="430.2148"/><rect fill="#FFFFFF" height="421.3477" style="stroke:#181818;stroke-width:1.0;" width="10" x="251.04" y="112.7988"/><rect fill="#FFFFFF" height="234.4844" style="stroke:#181818;stroke-width:1.0;" width="10" x="510.2261" y="142.1094"/><rect fill="#FFFFFF" height="29.3105" style="stroke:#181818;stroke-width:1.0;" width="10" x="510.2261" y="488.8359"/><rect fill="#FFFFFF" height="29.3105" style="stroke:#181818;stroke-width:1.0;" width="10" x="653.8789" y="171.4199"/><rect fill="#FFFFFF" height="29.3105" style="stroke:#181818;stroke-width:1.0;" width="10" x="763.8887" y="230.041"/><rect fill="#FFFFFF" height="58.6211" style="stroke:#181818;stroke-width:1.0;" width="10" x="884.5796" y="288.6621"/><polygon fill="#181818" points="239.04,108.7988,249.04,112.7988,239.04,116.7988,243.04,112.7988" style="stroke:#181818;stroke-width:1.0;"/><line style="stroke:#181818;stroke-width:1.0;" x1="48.0054" x2="245.04" y1="112.7988" y2="112.7988"/><text fill="#000000" font-family="sans-serif" font-size="13" font-weight="bold" lengthAdjust="spacing" textLength="8.5757" x="55.0054" y="108.0566">1</text><text fill="#000000" font-family="sans-serif" font-size="13" lengthAdjust="spacing" textLength="170.5933" x="67.5811" y="108.0566">start AddIndustryUI(mapId)</text><polygon fill="#181818" points="498.2261,138.1094,508.2261,142.1094,498.2261,146.1094,502.2261,142.1094" style="stroke:#181818;stroke-width:1.0;"/><line style="stroke:#181818;stroke-width:1.0;" x1="261.04" x2="504.2261" y1="142.1094" y2="142.1094"/><text fill="#000000" font-family="sans-serif" font-size="13" font-weight="bold" lengthAdjust="spacing" textLength="8.5757" x="268.04" y="137.3672">2</text><text fill="#000000" font-family="sans-serif" font-size="13" lengthAdjust="spacing" textLength="217.6104" x="280.6157" y="137.3672">new AddIndustryController(mapId)</text><polygon fill="#181818" points="641.8789,167.4199,651.8789,171.4199,641.8789,175.4199,645.8789,171.4199" style="stroke:#181818;stroke-width:1.0;"/><line style="stroke:#181818;stroke-width:1.0;" x1="520.2261" x2="647.8789" y1="171.4199" y2="171.4199"/><text fill="#000000" font-family="sans-serif" font-size="13" font-weight="bold" lengthAdjust="spacing" textLength="8.5757" x="527.2261" y="166.6777">3</text><text fill="#000000" font-family="sans-serif" font-size="13" lengthAdjust="spacing" textLength="81.1167" x="539.8018" y="166.6777">getInstance()</text><polygon fill="#181818" points="531.2261,196.7305,521.2261,200.7305,531.2261,204.7305,527.2261,200.7305" style="stroke:#181818;stroke-width:1.0;"/><line style="stroke:#181818;stroke-width:1.0;stroke-dasharray:2.0,2.0;" x1="525.2261" x2="657.8789" y1="200.7305" y2="200.7305"/><text fill="#000000" font-family="sans-serif" font-size="13" font-weight="bold" lengthAdjust="spacing" textLength="8.5757" x="537.2261" y="195.9883">4</text><text fill="#000000" font-family="sans-serif" font-size="13" lengthAdjust="spacing" textLength="74.9087" x="549.8018" y="195.9883">repositories</text><polygon fill="#181818" points="751.8887,226.041,761.8887,230.041,751.8887,234.041,755.8887,230.041" style="stroke:#181818;stroke-width:1.0;"/><line style="stroke:#181818;stroke-width:1.0;" x1="520.2261" x2="757.8887" y1="230.041" y2="230.041"/><text fill="#000000" font-family="sans-serif" font-size="13" font-weight="bold" lengthAdjust="spacing" textLength="8.5757" x="527.2261" y="225.2988">5</text><text fill="#000000" font-family="sans-serif" font-size="13" lengthAdjust="spacing" textLength="122.1987" x="539.8018" y="225.2988">getMapRepository()</text><polygon fill="#181818" points="531.2261,255.3516,521.2261,259.3516,531.2261,263.3516,527.2261,259.3516" style="stroke:#181818;stroke-width:1.0;"/><line style="stroke:#181818;stroke-width:1.0;stroke-dasharray:2.0,2.0;" x1="525.2261" x2="767.8887" y1="259.3516" y2="259.3516"/><text fill="#000000" font-family="sans-serif" font-size="13" font-weight="bold" lengthAdjust="spacing" textLength="8.5757" x="537.2261" y="254.6094">6</text><text fill="#000000" font-family="sans-serif" font-size="13" lengthAdjust="spacing" textLength="94.4722" x="549.8018" y="254.6094">mapRepository</text><polygon fill="#181818" points="872.5796,284.6621,882.5796,288.6621,872.5796,292.6621,876.5796,288.6621" style="stroke:#181818;stroke-width:1.0;"/><line style="stroke:#181818;stroke-width:1.0;" x1="520.2261" x2="878.5796" y1="288.6621" y2="288.6621"/><text fill="#000000" font-family="sans-serif" font-size="13" font-weight="bold" lengthAdjust="spacing" textLength="8.5757" x="527.2261" y="283.9199">7</text><text fill="#000000" font-family="sans-serif" font-size="13" lengthAdjust="spacing" textLength="120.8467" x="539.8018" y="283.9199">getMapById(mapId)</text><polygon fill="#181818" points="1010.6948,313.9727,1020.6948,317.9727,1010.6948,321.9727,1014.6948,317.9727" style="stroke:#181818;stroke-width:1.0;"/><line style="stroke:#181818;stroke-width:1.0;" x1="894.5796" x2="1016.6948" y1="317.9727" y2="317.9727"/><text fill="#000000" font-family="sans-serif" font-size="13" font-weight="bold" lengthAdjust="spacing" textLength="8.5757" x="901.5796" y="313.2305">8</text><text fill="#000000" font-family="sans-serif" font-size="13" lengthAdjust="spacing" textLength="91.5396" x="914.1553" y="313.2305">find map by id</text><polygon fill="#181818" points="531.2261,343.2832,521.2261,347.2832,531.2261,351.2832,527.2261,347.2832" style="stroke:#181818;stroke-width:1.0;"/><line style="stroke:#181818;stroke-width:1.0;stroke-dasharray:2.0,2.0;" x1="525.2261" x2="888.5796" y1="347.2832" y2="347.2832"/><text fill="#000000" font-family="sans-serif" font-size="13" font-weight="bold" lengthAdjust="spacing" textLength="8.5757" x="537.2261" y="342.541">9</text><text fill="#000000" font-family="sans-serif" font-size="13" lengthAdjust="spacing" textLength="107.2563" x="549.8018" y="342.541">return actualMap</text><polygon fill="#181818" points="272.04,372.5938,262.04,376.5938,272.04,380.5938,268.04,376.5938" style="stroke:#181818;stroke-width:1.0;"/><line style="stroke:#181818;stroke-width:1.0;stroke-dasharray:2.0,2.0;" x1="266.04" x2="514.2261" y1="376.5938" y2="376.5938"/><text fill="#000000" font-family="sans-serif" font-size="13" font-weight="bold" lengthAdjust="spacing" textLength="17.1514" x="278.04" y="371.8516">10</text><text fill="#000000" font-family="sans-serif" font-size="13" lengthAdjust="spacing" textLength="107.2563" x="299.1914" y="371.8516">return actualMap</text><path d="M10,391.5938 L212.5996,391.5938 L212.5996,398.9043 L202.5996,408.9043 L10,408.9043 L10,391.5938 " fill="#EEEEEE" style="stroke:#000000;stroke-width:1.5;"/><rect fill="none" height="134.5527" style="stroke:#000000;stroke-width:1.5;" width="599.9814" x="10" y="391.5938"/><text fill="#000000" font-family="sans-serif" font-size="13" font-weight="bold" lengthAdjust="spacing" textLength="157.5996" x="25" y="405.1621">Industry Type Selection</text><polygon fill="#181818" points="64.0054,426.2148,54.0054,430.2148,64.0054,434.2148,60.0054,430.2148" style="stroke:#181818;stroke-width:1.0;"/><line style="stroke:#181818;stroke-width:1.0;stroke-dasharray:2.0,2.0;" x1="58.0054" x2="250.04" y1="430.2148" y2="430.2148"/><text fill="#000000" font-family="sans-serif" font-size="13" font-weight="bold" lengthAdjust="spacing" textLength="17.1514" x="70.0054" y="425.4727">11</text><text fill="#000000" font-family="sans-serif" font-size="13" lengthAdjust="spacing" textLength="130.584" x="91.1567" y="425.4727">ask for industry type</text><polygon fill="#181818" points="239.04,455.5254,249.04,459.5254,239.04,463.5254,243.04,459.5254" style="stroke:#181818;stroke-width:1.0;"/><line style="stroke:#181818;stroke-width:1.0;" x1="48.0054" x2="245.04" y1="459.5254" y2="459.5254"/><text fill="#000000" font-family="sans-serif" font-size="13" font-weight="bold" lengthAdjust="spacing" textLength="17.1514" x="55.0054" y="454.7832">12</text><text fill="#000000" font-family="sans-serif" font-size="13" lengthAdjust="spacing" textLength="152.8833" x="76.1567" y="454.7832">select industryTypeDesc</text><polygon fill="#181818" points="498.2261,484.8359,508.2261,488.8359,498.2261,492.8359,502.2261,488.8359" style="stroke:#181818;stroke-width:1.0;"/><line style="stroke:#181818;stroke-width:1.0;" x1="261.04" x2="504.2261" y1="488.8359" y2="488.8359"/><text fill="#000000" font-family="sans-serif" font-size="13" font-weight="bold" lengthAdjust="spacing" textLength="17.1514" x="268.04" y="484.0938">13</text><text fill="#000000" font-family="sans-serif" font-size="13" lengthAdjust="spacing" textLength="133.8784" x="289.1914" y="484.0938">getAllIndustryTypes()</text><polygon fill="#181818" points="272.04,514.1465,262.04,518.1465,272.04,522.1465,268.04,518.1465" style="stroke:#181818;stroke-width:1.0;"/><line style="stroke:#181818;stroke-width:1.0;stroke-dasharray:2.0,2.0;" x1="266.04" x2="514.2261" y1="518.1465" y2="518.1465"/><text fill="#000000" font-family="sans-serif" font-size="13" font-weight="bold" lengthAdjust="spacing" textLength="17.1514" x="278.04" y="513.4043">14</text><text fill="#000000" font-family="sans-serif" font-size="13" lengthAdjust="spacing" textLength="129.4922" x="299.1914" y="513.4043">list of industry types</text><!--SRC=[VPDDRi8m48NtESM8LRle1LXKeYsg8l4dGdULAXCFgOMn8zjfbTjtx3J61beaX1BUDs_yPcoFGhNCi1Eqh3wo1YlNImI3jMEgaLZOAB2VZEjleHeuC6dJVwHGwFeMGHltgGlMEQswqnvDKR3QQGEJEHVqEm5cOVwoAmXpeXOjKmucqnddfUATTQP_AuFchVnRygoLCrfA7CezxxQBNBp5Lbjl9z06oNQ-MLUvnYIQTpMzZNnKvUfrCT-jLpbyOcq4UgANwNF0bxFDXo-HSvH5noIf1sPKXf345tCOig4lF3nI1305wuY7B9yxSY_v_PcXh4XBX4-268NVS3EkAp94LmICy71auXjqfI9ZLUDT8Xv274GFPxSqo8BZXJmlVivpiCbok_9Aqh-a4_zi5bSD93LYA-DiOWzFVSclieaJZF819UeW5FU-iEz1y4IGfk8weo0EF6qiLlxjQ9prVymmgSReheLniB3pDwv2ILTLQ5K0VVmYK3s_GbFQhYCSwFA94V1NDCYoVVClifqB5IFbNLxGra6Nj3IYsUvHe3CfomIrDDVCCXp5lybFBuLre0zvi_RIDC2e-0y0]--></g></svg>