<svg xmlns="http://www.w3.org/2000/svg" xmlns:xlink="http://www.w3.org/1999/xlink" contentStyleType="text/css" height="1199px" preserveAspectRatio="none" style="width:1121px;height:1199px;background:#FFFFFF;" version="1.1" viewBox="0 0 1121 1199" width="1121px" zoomAndPan="magnify"><defs/><g><rect fill="#FFFFFF" height="29.3105" style="stroke:#181818;stroke-width:1.0;" width="10" x="68.0054" y="161.4199"/><rect fill="#FFFFFF" height="29.3105" style="stroke:#181818;stroke-width:1.0;" width="10" x="68.0054" y="220.041"/><rect fill="#FFFFFF" height="130.2422" style="stroke:#181818;stroke-width:1.0;" width="10" x="513.4404" y="278.6621"/><rect fill="#FFFFFF" height="130.2422" style="stroke:#181818;stroke-width:1.0;" width="10" x="513.4404" y="438.2148"/><rect fill="#FFFFFF" height="304.7949" style="stroke:#181818;stroke-width:1.0;" width="10" x="513.4404" y="682.6992"/><rect fill="#FFFFFF" height="71.6211" style="stroke:#181818;stroke-width:1.0;" width="10" x="707.9629" y="307.9727"/><rect fill="#FFFFFF" height="71.6211" style="stroke:#181818;stroke-width:1.0;" width="10" x="707.9629" y="467.5254"/><rect fill="#FFFFFF" height="246.1738" style="stroke:#181818;stroke-width:1.0;" width="10" x="707.9629" y="712.0098"/><rect fill="#FFFFFF" height="29.3105" style="stroke:#181818;stroke-width:1.0;" width="10" x="1019.6558" y="850.252"/><rect fill="none" height="1002.9375" style="stroke:#000000;stroke-width:1.5;" width="1105.2861" x="10" y="98.4883"/><rect fill="none" height="971.627" style="stroke:#000000;stroke-width:1.5;" width="1085.2861" x="20" y="122.7988"/><rect fill="none" height="503.9688" style="stroke:#000000;stroke-width:1.5;" width="1065.2861" x="30" y="583.457"/><rect fill="none" height="118.2422" style="stroke:#000000;stroke-width:1.5;" width="423.9268" x="661.3594" y="811.6309"/><rect fill="none" height="77.9316" style="stroke:#000000;stroke-width:1.5;" width="573.1958" x="40" y="1002.4941"/><line style="stroke:#181818;stroke-width:0.5;stroke-dasharray:5.0,5.0;" x1="73" x2="73" y1="81.4883" y2="1118.4258"/><line style="stroke:#181818;stroke-width:0.5;stroke-dasharray:5.0,5.0;" x1="328.3765" x2="328.3765" y1="81.4883" y2="1118.4258"/><line style="stroke:#181818;stroke-width:0.5;stroke-dasharray:5.0,5.0;" x1="517.6851" x2="517.6851" y1="81.4883" y2="1118.4258"/><line style="stroke:#181818;stroke-width:0.5;stroke-dasharray:5.0,5.0;" x1="712.3594" x2="712.3594" y1="81.4883" y2="1118.4258"/><line style="stroke:#181818;stroke-width:0.5;stroke-dasharray:5.0,5.0;" x1="927.5029" x2="927.5029" y1="81.4883" y2="1118.4258"/><line style="stroke:#181818;stroke-width:0.5;stroke-dasharray:5.0,5.0;" x1="1024.0254" x2="1024.0254" y1="81.4883" y2="1118.4258"/><text fill="#000000" font-family="sans-serif" font-size="14" lengthAdjust="spacing" textLength="40.0107" x="50" y="78.5352">Editor</text><ellipse cx="73.0054" cy="13.5" fill="#E2E2F0" rx="8" ry="8" style="stroke:#181818;stroke-width:0.5;"/><path d="M73.0054,21.5 L73.0054,48.5 M60.0054,29.5 L86.0054,29.5 M73.0054,48.5 L60.0054,63.5 M73.0054,48.5 L86.0054,63.5 " fill="none" style="stroke:#181818;stroke-width:0.5;"/><text fill="#000000" font-family="sans-serif" font-size="14" lengthAdjust="spacing" textLength="40.0107" x="50" y="1130.9609">Editor</text><ellipse cx="73.0054" cy="1142.4141" fill="#E2E2F0" rx="8" ry="8" style="stroke:#181818;stroke-width:0.5;"/><path d="M73.0054,1150.4141 L73.0054,1177.4141 M60.0054,1158.4141 L86.0054,1158.4141 M73.0054,1177.4141 L60.0054,1192.4141 M73.0054,1177.4141 L86.0054,1192.4141 " fill="none" style="stroke:#181818;stroke-width:0.5;"/><rect fill="#E2E2F0" height="30.4883" rx="2.5" ry="2.5" style="stroke:#181818;stroke-width:0.5;" width="115.083" x="271.3765" y="50"/><text fill="#000000" font-family="sans-serif" font-size="14" lengthAdjust="spacing" textLength="101.083" x="278.3765" y="70.5352">:AddIndustryUI</text><rect fill="#E2E2F0" height="30.4883" rx="2.5" ry="2.5" style="stroke:#181818;stroke-width:0.5;" width="115.083" x="271.3765" y="1117.4258"/><text fill="#000000" font-family="sans-serif" font-size="14" lengthAdjust="spacing" textLength="101.083" x="278.3765" y="1137.9609">:AddIndustryUI</text><rect fill="#E2E2F0" height="30.4883" rx="2.5" ry="2.5" style="stroke:#181818;stroke-width:0.5;" width="169.5107" x="433.6851" y="50"/><text fill="#000000" font-family="sans-serif" font-size="14" lengthAdjust="spacing" textLength="155.5107" x="440.6851" y="70.5352">:AddIndustryController</text><rect fill="#E2E2F0" height="30.4883" rx="2.5" ry="2.5" style="stroke:#181818;stroke-width:0.5;" width="169.5107" x="433.6851" y="1117.4258"/><text fill="#000000" font-family="sans-serif" font-size="14" lengthAdjust="spacing" textLength="155.5107" x="440.6851" y="1137.9609">:AddIndustryController</text><rect fill="#E2E2F0" height="46.9766" rx="2.5" ry="2.5" style="stroke:#181818;stroke-width:0.5;" width="83.207" x="671.3594" y="33.5117"/><text fill="#000000" font-family="sans-serif" font-size="14" lengthAdjust="spacing" textLength="69.207" x="678.3594" y="54.0469">actualMap</text><text fill="#000000" font-family="sans-serif" font-size="14" lengthAdjust="spacing" textLength="33.0313" x="696.4473" y="70.5352">:Map</text><rect fill="#E2E2F0" height="46.9766" rx="2.5" ry="2.5" style="stroke:#181818;stroke-width:0.5;" width="83.207" x="671.3594" y="1117.4258"/><text fill="#000000" font-family="sans-serif" font-size="14" lengthAdjust="spacing" textLength="69.207" x="678.3594" y="1137.9609">actualMap</text><text fill="#000000" font-family="sans-serif" font-size="14" lengthAdjust="spacing" textLength="33.0313" x="696.4473" y="1154.4492">:Map</text><rect fill="#E2E2F0" height="46.9766" rx="2.5" ry="2.5" style="stroke:#181818;stroke-width:0.5;" width="72.5225" x="891.5029" y="33.5117"/><text fill="#000000" font-family="sans-serif" font-size="14" lengthAdjust="spacing" textLength="55.166" x="900.1812" y="54.0469">position</text><text fill="#000000" font-family="sans-serif" font-size="14" lengthAdjust="spacing" textLength="58.5225" x="898.5029" y="70.5352">:Position</text><rect fill="#E2E2F0" height="46.9766" rx="2.5" ry="2.5" style="stroke:#181818;stroke-width:0.5;" width="72.5225" x="891.5029" y="1117.4258"/><text fill="#000000" font-family="sans-serif" font-size="14" lengthAdjust="spacing" textLength="55.166" x="900.1812" y="1137.9609">position</text><text fill="#000000" font-family="sans-serif" font-size="14" lengthAdjust="spacing" textLength="58.5225" x="898.5029" y="1154.4492">:Position</text><rect fill="#E2E2F0" height="46.9766" rx="2.5" ry="2.5" style="stroke:#181818;stroke-width:0.5;" width="101.2607" x="974.0254" y="33.5117"/><text fill="#000000" font-family="sans-serif" font-size="14" lengthAdjust="spacing" textLength="83.8428" x="982.7344" y="54.0469">mapElement</text><text fill="#000000" font-family="sans-serif" font-size="14" lengthAdjust="spacing" textLength="87.2607" x="981.0254" y="70.5352">:MapElement</text><rect fill="#E2E2F0" height="46.9766" rx="2.5" ry="2.5" style="stroke:#181818;stroke-width:0.5;" width="101.2607" x="974.0254" y="1117.4258"/><text fill="#000000" font-family="sans-serif" font-size="14" lengthAdjust="spacing" textLength="83.8428" x="982.7344" y="1137.9609">mapElement</text><text fill="#000000" font-family="sans-serif" font-size="14" lengthAdjust="spacing" textLength="87.2607" x="981.0254" y="1154.4492">:MapElement</text><rect fill="#FFFFFF" height="29.3105" style="stroke:#181818;stroke-width:1.0;" width="10" x="68.0054" y="161.4199"/><rect fill="#FFFFFF" height="29.3105" style="stroke:#181818;stroke-width:1.0;" width="10" x="68.0054" y="220.041"/><rect fill="#FFFFFF" height="130.2422" style="stroke:#181818;stroke-width:1.0;" width="10" x="513.4404" y="278.6621"/><rect fill="#FFFFFF" height="130.2422" style="stroke:#181818;stroke-width:1.0;" width="10" x="513.4404" y="438.2148"/><rect fill="#FFFFFF" height="304.7949" style="stroke:#181818;stroke-width:1.0;" width="10" x="513.4404" y="682.6992"/><rect fill="#FFFFFF" height="71.6211" style="stroke:#181818;stroke-width:1.0;" width="10" x="707.9629" y="307.9727"/><rect fill="#FFFFFF" height="71.6211" style="stroke:#181818;stroke-width:1.0;" width="10" x="707.9629" y="467.5254"/><rect fill="#FFFFFF" height="246.1738" style="stroke:#181818;stroke-width:1.0;" width="10" x="707.9629" y="712.0098"/><rect fill="#FFFFFF" height="29.3105" style="stroke:#181818;stroke-width:1.0;" width="10" x="1019.6558" y="850.252"/><path d="M10,98.4883 L209.1338,98.4883 L209.1338,105.7988 L199.1338,115.7988 L10,115.7988 L10,98.4883 " fill="#EEEEEE" style="stroke:#000000;stroke-width:1.5;"/><rect fill="none" height="1002.9375" style="stroke:#000000;stroke-width:1.5;" width="1105.2861" x="10" y="98.4883"/><text fill="#000000" font-family="sans-serif" font-size="13" font-weight="bold" lengthAdjust="spacing" textLength="154.1338" x="25" y="112.0566">Industry Position Input</text><path d="M20,122.7988 L94.4468,122.7988 L94.4468,130.1094 L84.4468,140.1094 L20,140.1094 L20,122.7988 " fill="#EEEEEE" style="stroke:#000000;stroke-width:1.5;"/><rect fill="none" height="971.627" style="stroke:#000000;stroke-width:1.5;" width="1085.2861" x="20" y="122.7988"/><text fill="#000000" font-family="sans-serif" font-size="13" font-weight="bold" lengthAdjust="spacing" textLength="29.4468" x="35" y="136.3672">loop</text><text fill="#000000" font-family="sans-serif" font-size="11" font-weight="bold" lengthAdjust="spacing" textLength="115.2959" x="109.4468" y="135.4336">[until valid position]</text><polygon fill="#181818" points="89.0054,157.4199,79.0054,161.4199,89.0054,165.4199,85.0054,161.4199" style="stroke:#181818;stroke-width:1.0;"/><line style="stroke:#181818;stroke-width:1.0;stroke-dasharray:2.0,2.0;" x1="83.0054" x2="327.918" y1="161.4199" y2="161.4199"/><text fill="#000000" font-family="sans-serif" font-size="13" font-weight="bold" lengthAdjust="spacing" textLength="8.5757" x="95.0054" y="156.6777">1</text><text fill="#000000" font-family="sans-serif" font-size="13" lengthAdjust="spacing" textLength="111.1919" x="107.5811" y="156.6777">ask for X position</text><polygon fill="#181818" points="316.918,186.7305,326.918,190.7305,316.918,194.7305,320.918,190.7305" style="stroke:#181818;stroke-width:1.0;"/><line style="stroke:#181818;stroke-width:1.0;" x1="73.0054" x2="322.918" y1="190.7305" y2="190.7305"/><text fill="#000000" font-family="sans-serif" font-size="13" font-weight="bold" lengthAdjust="spacing" textLength="8.5757" x="80.0054" y="185.9883">2</text><text fill="#000000" font-family="sans-serif" font-size="13" lengthAdjust="spacing" textLength="44.9858" x="92.5811" y="185.9883">enter X</text><polygon fill="#181818" points="89.0054,216.041,79.0054,220.041,89.0054,224.041,85.0054,220.041" style="stroke:#181818;stroke-width:1.0;"/><line style="stroke:#181818;stroke-width:1.0;stroke-dasharray:2.0,2.0;" x1="83.0054" x2="327.918" y1="220.041" y2="220.041"/><text fill="#000000" font-family="sans-serif" font-size="13" font-weight="bold" lengthAdjust="spacing" textLength="8.5757" x="95.0054" y="215.2988">3</text><text fill="#000000" font-family="sans-serif" font-size="13" lengthAdjust="spacing" textLength="111.1538" x="107.5811" y="215.2988">ask for Y position</text><polygon fill="#181818" points="316.918,245.3516,326.918,249.3516,316.918,253.3516,320.918,249.3516" style="stroke:#181818;stroke-width:1.0;"/><line style="stroke:#181818;stroke-width:1.0;" x1="73.0054" x2="322.918" y1="249.3516" y2="249.3516"/><text fill="#000000" font-family="sans-serif" font-size="13" font-weight="bold" lengthAdjust="spacing" textLength="8.5757" x="80.0054" y="244.6094">4</text><text fill="#000000" font-family="sans-serif" font-size="13" lengthAdjust="spacing" textLength="44.9478" x="92.5811" y="244.6094">enter Y</text><polygon fill="#181818" points="501.4404,274.6621,511.4404,278.6621,501.4404,282.6621,505.4404,278.6621" style="stroke:#181818;stroke-width:1.0;"/><line style="stroke:#181818;stroke-width:1.0;" x1="328.918" x2="507.4404" y1="278.6621" y2="278.6621"/><text fill="#000000" font-family="sans-serif" font-size="13" font-weight="bold" lengthAdjust="spacing" textLength="8.5757" x="335.918" y="273.9199">5</text><text fill="#000000" font-family="sans-serif" font-size="13" lengthAdjust="spacing" textLength="91.2158" x="348.4937" y="273.9199">getWidthMap()</text><polygon fill="#181818" points="695.9629,303.9727,705.9629,307.9727,695.9629,311.9727,699.9629,307.9727" style="stroke:#181818;stroke-width:1.0;"/><line style="stroke:#181818;stroke-width:1.0;" x1="523.4404" x2="701.9629" y1="307.9727" y2="307.9727"/><text fill="#000000" font-family="sans-serif" font-size="13" font-weight="bold" lengthAdjust="spacing" textLength="8.5757" x="530.4404" y="303.2305">6</text><text fill="#000000" font-family="sans-serif" font-size="13" lengthAdjust="spacing" textLength="54.1201" x="543.0161" y="303.2305">getSize()</text><line style="stroke:#181818;stroke-width:1.0;" x1="717.9629" x2="759.9629" y1="337.2832" y2="337.2832"/><line style="stroke:#181818;stroke-width:1.0;" x1="759.9629" x2="759.9629" y1="337.2832" y2="350.2832"/><line style="stroke:#181818;stroke-width:1.0;" x1="718.9629" x2="759.9629" y1="350.2832" y2="350.2832"/><polygon fill="#181818" points="728.9629,346.2832,718.9629,350.2832,728.9629,354.2832,724.9629,350.2832" style="stroke:#181818;stroke-width:1.0;"/><text fill="#000000" font-family="sans-serif" font-size="13" font-weight="bold" lengthAdjust="spacing" textLength="8.5757" x="724.9629" y="332.541">7</text><text fill="#000000" font-family="sans-serif" font-size="13" lengthAdjust="spacing" textLength="64.6572" x="737.5386" y="332.541">getWidth()</text><polygon fill="#181818" points="534.4404,375.5938,524.4404,379.5938,534.4404,383.5938,530.4404,379.5938" style="stroke:#181818;stroke-width:1.0;"/><line style="stroke:#181818;stroke-width:1.0;stroke-dasharray:2.0,2.0;" x1="528.4404" x2="711.9629" y1="379.5938" y2="379.5938"/><text fill="#000000" font-family="sans-serif" font-size="13" font-weight="bold" lengthAdjust="spacing" textLength="8.5757" x="540.4404" y="374.8516">8</text><text fill="#000000" font-family="sans-serif" font-size="13" lengthAdjust="spacing" textLength="63.4893" x="553.0161" y="374.8516">mapWidth</text><polygon fill="#181818" points="339.918,404.9043,329.918,408.9043,339.918,412.9043,335.918,408.9043" style="stroke:#181818;stroke-width:1.0;"/><line style="stroke:#181818;stroke-width:1.0;stroke-dasharray:2.0,2.0;" x1="333.918" x2="517.4404" y1="408.9043" y2="408.9043"/><text fill="#000000" font-family="sans-serif" font-size="13" font-weight="bold" lengthAdjust="spacing" textLength="8.5757" x="345.918" y="404.1621">9</text><text fill="#000000" font-family="sans-serif" font-size="13" lengthAdjust="spacing" textLength="63.4893" x="358.4937" y="404.1621">mapWidth</text><polygon fill="#181818" points="501.4404,434.2148,511.4404,438.2148,501.4404,442.2148,505.4404,438.2148" style="stroke:#181818;stroke-width:1.0;"/><line style="stroke:#181818;stroke-width:1.0;" x1="328.918" x2="507.4404" y1="438.2148" y2="438.2148"/><text fill="#000000" font-family="sans-serif" font-size="13" font-weight="bold" lengthAdjust="spacing" textLength="17.1514" x="335.918" y="433.4727">10</text><text fill="#000000" font-family="sans-serif" font-size="13" lengthAdjust="spacing" textLength="96.8145" x="357.0693" y="433.4727">getHeightMap()</text><polygon fill="#181818" points="695.9629,463.5254,705.9629,467.5254,695.9629,471.5254,699.9629,467.5254" style="stroke:#181818;stroke-width:1.0;"/><line style="stroke:#181818;stroke-width:1.0;" x1="523.4404" x2="701.9629" y1="467.5254" y2="467.5254"/><text fill="#000000" font-family="sans-serif" font-size="13" font-weight="bold" lengthAdjust="spacing" textLength="17.1514" x="530.4404" y="462.7832">11</text><text fill="#000000" font-family="sans-serif" font-size="13" lengthAdjust="spacing" textLength="54.1201" x="551.5918" y="462.7832">getSize()</text><line style="stroke:#181818;stroke-width:1.0;" x1="717.9629" x2="759.9629" y1="496.8359" y2="496.8359"/><line style="stroke:#181818;stroke-width:1.0;" x1="759.9629" x2="759.9629" y1="496.8359" y2="509.8359"/><line style="stroke:#181818;stroke-width:1.0;" x1="718.9629" x2="759.9629" y1="509.8359" y2="509.8359"/><polygon fill="#181818" points="728.9629,505.8359,718.9629,509.8359,728.9629,513.8359,724.9629,509.8359" style="stroke:#181818;stroke-width:1.0;"/><text fill="#000000" font-family="sans-serif" font-size="13" font-weight="bold" lengthAdjust="spacing" textLength="17.1514" x="724.9629" y="492.0938">12</text><text fill="#000000" font-family="sans-serif" font-size="13" lengthAdjust="spacing" textLength="70.2559" x="746.1143" y="492.0938">getHeight()</text><polygon fill="#181818" points="534.4404,535.1465,524.4404,539.1465,534.4404,543.1465,530.4404,539.1465" style="stroke:#181818;stroke-width:1.0;"/><line style="stroke:#181818;stroke-width:1.0;stroke-dasharray:2.0,2.0;" x1="528.4404" x2="711.9629" y1="539.1465" y2="539.1465"/><text fill="#000000" font-family="sans-serif" font-size="13" font-weight="bold" lengthAdjust="spacing" textLength="17.1514" x="540.4404" y="534.4043">13</text><text fill="#000000" font-family="sans-serif" font-size="13" lengthAdjust="spacing" textLength="69.0879" x="561.5918" y="534.4043">mapHeight</text><polygon fill="#181818" points="339.918,564.457,329.918,568.457,339.918,572.457,335.918,568.457" style="stroke:#181818;stroke-width:1.0;"/><line style="stroke:#181818;stroke-width:1.0;stroke-dasharray:2.0,2.0;" x1="333.918" x2="517.4404" y1="568.457" y2="568.457"/><text fill="#000000" font-family="sans-serif" font-size="13" font-weight="bold" lengthAdjust="spacing" textLength="17.1514" x="345.918" y="563.7148">14</text><text fill="#000000" font-family="sans-serif" font-size="13" lengthAdjust="spacing" textLength="69.0879" x="367.0693" y="563.7148">mapHeight</text><path d="M30,583.457 L92.1387,583.457 L92.1387,590.7676 L82.1387,600.7676 L30,600.7676 L30,583.457 " fill="#EEEEEE" style="stroke:#000000;stroke-width:1.5;"/><rect fill="none" height="503.9688" style="stroke:#000000;stroke-width:1.5;" width="1065.2861" x="30" y="583.457"/><text fill="#000000" font-family="sans-serif" font-size="13" font-weight="bold" lengthAdjust="spacing" textLength="17.1387" x="45" y="597.0254">alt</text><text fill="#000000" font-family="sans-serif" font-size="11" font-weight="bold" lengthAdjust="spacing" textLength="125.7588" x="107.1387" y="596.0918">[X or Y out of bounds]</text><polygon fill="#181818" points="84.0054,618.0781,74.0054,622.0781,84.0054,626.0781,80.0054,622.0781" style="stroke:#181818;stroke-width:1.0;"/><line style="stroke:#181818;stroke-width:1.0;stroke-dasharray:2.0,2.0;" x1="78.0054" x2="327.918" y1="622.0781" y2="622.0781"/><text fill="#000000" font-family="sans-serif" font-size="13" font-weight="bold" lengthAdjust="spacing" textLength="17.1514" x="90.0054" y="617.3359">15</text><text fill="#000000" font-family="sans-serif" font-size="13" lengthAdjust="spacing" textLength="195.457" x="111.1567" y="617.3359">error message: invalid position</text><line style="stroke:#000000;stroke-width:1.0;stroke-dasharray:2.0,2.0;" x1="30" x2="1095.2861" y1="631.0781" y2="631.0781"/><polygon fill="#181818" points="915.7642,649.3887,925.7642,653.3887,915.7642,657.3887,919.7642,653.3887" style="stroke:#181818;stroke-width:1.0;"/><line style="stroke:#181818;stroke-width:1.0;" x1="328.918" x2="921.7642" y1="653.3887" y2="653.3887"/><text fill="#000000" font-family="sans-serif" font-size="13" font-weight="bold" lengthAdjust="spacing" textLength="17.1514" x="335.918" y="648.6465">16</text><text fill="#000000" font-family="sans-serif" font-size="13" lengthAdjust="spacing" textLength="144.0728" x="357.0693" y="648.6465">new Position(X-1, Y-1)</text><polygon fill="#181818" points="501.4404,678.6992,511.4404,682.6992,501.4404,686.6992,505.4404,682.6992" style="stroke:#181818;stroke-width:1.0;"/><line style="stroke:#181818;stroke-width:1.0;" x1="328.918" x2="507.4404" y1="682.6992" y2="682.6992"/><text fill="#000000" font-family="sans-serif" font-size="13" font-weight="bold" lengthAdjust="spacing" textLength="17.1514" x="335.918" y="677.957">17</text><text fill="#000000" font-family="sans-serif" font-size="13" lengthAdjust="spacing" textLength="144.3711" x="357.0693" y="677.957">getOccupiedPositions()</text><polygon fill="#181818" points="695.9629,708.0098,705.9629,712.0098,695.9629,716.0098,699.9629,712.0098" style="stroke:#181818;stroke-width:1.0;"/><line style="stroke:#181818;stroke-width:1.0;" x1="523.4404" x2="701.9629" y1="712.0098" y2="712.0098"/><text fill="#000000" font-family="sans-serif" font-size="13" font-weight="bold" lengthAdjust="spacing" textLength="17.1514" x="530.4404" y="707.2676">18</text><text fill="#000000" font-family="sans-serif" font-size="13" lengthAdjust="spacing" textLength="144.3711" x="551.5918" y="707.2676">getOccupiedPositions()</text><line style="stroke:#181818;stroke-width:1.0;" x1="717.9629" x2="759.9629" y1="741.3203" y2="741.3203"/><line style="stroke:#181818;stroke-width:1.0;" x1="759.9629" x2="759.9629" y1="741.3203" y2="754.3203"/><line style="stroke:#181818;stroke-width:1.0;" x1="718.9629" x2="759.9629" y1="754.3203" y2="754.3203"/><polygon fill="#181818" points="728.9629,750.3203,718.9629,754.3203,728.9629,758.3203,724.9629,754.3203" style="stroke:#181818;stroke-width:1.0;"/><text fill="#000000" font-family="sans-serif" font-size="13" font-weight="bold" lengthAdjust="spacing" textLength="17.1514" x="724.9629" y="736.5781">19</text><text fill="#000000" font-family="sans-serif" font-size="13" lengthAdjust="spacing" textLength="159.6499" x="746.1143" y="736.5781">listAllOccupiedPositions()</text><line style="stroke:#181818;stroke-width:1.0;" x1="717.9629" x2="759.9629" y1="783.6309" y2="783.6309"/><line style="stroke:#181818;stroke-width:1.0;" x1="759.9629" x2="759.9629" y1="783.6309" y2="796.6309"/><line style="stroke:#181818;stroke-width:1.0;" x1="718.9629" x2="759.9629" y1="796.6309" y2="796.6309"/><polygon fill="#181818" points="728.9629,792.6309,718.9629,796.6309,728.9629,800.6309,724.9629,796.6309" style="stroke:#181818;stroke-width:1.0;"/><text fill="#000000" font-family="sans-serif" font-size="13" font-weight="bold" lengthAdjust="spacing" textLength="17.1514" x="724.9629" y="778.8887">20</text><text fill="#000000" font-family="sans-serif" font-size="13" lengthAdjust="spacing" textLength="147.8623" x="746.1143" y="778.8887">clear occupiedPositions</text><path d="M661.3594,811.6309 L735.8062,811.6309 L735.8062,818.9414 L725.8062,828.9414 L661.3594,828.9414 L661.3594,811.6309 " fill="#EEEEEE" style="stroke:#000000;stroke-width:1.5;"/><rect fill="none" height="118.2422" style="stroke:#000000;stroke-width:1.5;" width="423.9268" x="661.3594" y="811.6309"/><text fill="#000000" font-family="sans-serif" font-size="13" font-weight="bold" lengthAdjust="spacing" textLength="29.4468" x="676.3594" y="825.1992">loop</text><text fill="#000000" font-family="sans-serif" font-size="11" font-weight="bold" lengthAdjust="spacing" textLength="127.8267" x="750.8062" y="824.2656">[for each mapElement]</text><polygon fill="#181818" points="1007.6558,846.252,1017.6558,850.252,1007.6558,854.252,1011.6558,850.252" style="stroke:#181818;stroke-width:1.0;"/><line style="stroke:#181818;stroke-width:1.0;" x1="717.9629" x2="1013.6558" y1="850.252" y2="850.252"/><text fill="#000000" font-family="sans-serif" font-size="13" font-weight="bold" lengthAdjust="spacing" textLength="17.1514" x="724.9629" y="845.5098">21</text><text fill="#000000" font-family="sans-serif" font-size="13" lengthAdjust="spacing" textLength="144.3711" x="746.1143" y="845.5098">getOccupiedPositions()</text><polygon fill="#181818" points="728.9629,875.5625,718.9629,879.5625,728.9629,883.5625,724.9629,879.5625" style="stroke:#181818;stroke-width:1.0;"/><line style="stroke:#181818;stroke-width:1.0;stroke-dasharray:2.0,2.0;" x1="722.9629" x2="1023.6558" y1="879.5625" y2="879.5625"/><text fill="#000000" font-family="sans-serif" font-size="13" font-weight="bold" lengthAdjust="spacing" textLength="17.1514" x="734.9629" y="874.8203">22</text><text fill="#000000" font-family="sans-serif" font-size="13" lengthAdjust="spacing" textLength="118.7012" x="756.1143" y="874.8203">occupied positions</text><line style="stroke:#181818;stroke-width:1.0;" x1="717.9629" x2="759.9629" y1="908.873" y2="908.873"/><line style="stroke:#181818;stroke-width:1.0;" x1="759.9629" x2="759.9629" y1="908.873" y2="921.873"/><line style="stroke:#181818;stroke-width:1.0;" x1="718.9629" x2="759.9629" y1="921.873" y2="921.873"/><polygon fill="#181818" points="728.9629,917.873,718.9629,921.873,728.9629,925.873,724.9629,921.873" style="stroke:#181818;stroke-width:1.0;"/><text fill="#000000" font-family="sans-serif" font-size="13" font-weight="bold" lengthAdjust="spacing" textLength="17.1514" x="724.9629" y="904.1309">23</text><text fill="#000000" font-family="sans-serif" font-size="13" lengthAdjust="spacing" textLength="146.3579" x="746.1143" y="904.1309">add occupied positions</text><polygon fill="#181818" points="534.4404,954.1836,524.4404,958.1836,534.4404,962.1836,530.4404,958.1836" style="stroke:#181818;stroke-width:1.0;"/><line style="stroke:#181818;stroke-width:1.0;stroke-dasharray:2.0,2.0;" x1="528.4404" x2="711.9629" y1="958.1836" y2="958.1836"/><text fill="#000000" font-family="sans-serif" font-size="13" font-weight="bold" lengthAdjust="spacing" textLength="17.1514" x="540.4404" y="953.4414">24</text><text fill="#000000" font-family="sans-serif" font-size="13" lengthAdjust="spacing" textLength="136.7095" x="561.5918" y="953.4414">occupiedPositions list</text><polygon fill="#181818" points="339.918,983.4941,329.918,987.4941,339.918,991.4941,335.918,987.4941" style="stroke:#181818;stroke-width:1.0;"/><line style="stroke:#181818;stroke-width:1.0;stroke-dasharray:2.0,2.0;" x1="333.918" x2="517.4404" y1="987.4941" y2="987.4941"/><text fill="#000000" font-family="sans-serif" font-size="13" font-weight="bold" lengthAdjust="spacing" textLength="17.1514" x="345.918" y="982.752">25</text><text fill="#000000" font-family="sans-serif" font-size="13" lengthAdjust="spacing" textLength="113.5913" x="367.0693" y="982.752">occupiedPositions</text><path d="M40,1002.4941 L102.1387,1002.4941 L102.1387,1009.8047 L92.1387,1019.8047 L40,1019.8047 L40,1002.4941 " fill="#EEEEEE" style="stroke:#000000;stroke-width:1.5;"/><rect fill="none" height="77.9316" style="stroke:#000000;stroke-width:1.5;" width="573.1958" x="40" y="1002.4941"/><text fill="#000000" font-family="sans-serif" font-size="13" font-weight="bold" lengthAdjust="spacing" textLength="17.1387" x="55" y="1016.0625">alt</text><text fill="#000000" font-family="sans-serif" font-size="11" font-weight="bold" lengthAdjust="spacing" textLength="108.7324" x="117.1387" y="1015.1289">[position occupied]</text><polygon fill="#181818" points="84.0054,1037.1152,74.0054,1041.1152,84.0054,1045.1152,80.0054,1041.1152" style="stroke:#181818;stroke-width:1.0;"/><line style="stroke:#181818;stroke-width:1.0;stroke-dasharray:2.0,2.0;" x1="78.0054" x2="327.918" y1="1041.1152" y2="1041.1152"/><text fill="#000000" font-family="sans-serif" font-size="13" font-weight="bold" lengthAdjust="spacing" textLength="17.1514" x="90.0054" y="1036.373">26</text><text fill="#000000" font-family="sans-serif" font-size="13" lengthAdjust="spacing" textLength="210.7612" x="111.1567" y="1036.373">error message: position occupied</text><line style="stroke:#000000;stroke-width:1.0;stroke-dasharray:2.0,2.0;" x1="40" x2="613.1958" y1="1050.1152" y2="1050.1152"/><polygon fill="#181818" points="506.4404,1068.4258,516.4404,1072.4258,506.4404,1076.4258,510.4404,1072.4258" style="stroke:#181818;stroke-width:1.0;"/><line style="stroke:#181818;stroke-width:1.0;" x1="328.918" x2="512.4404" y1="1072.4258" y2="1072.4258"/><text fill="#000000" font-family="sans-serif" font-size="13" font-weight="bold" lengthAdjust="spacing" textLength="17.1514" x="335.918" y="1067.6836">27</text><text fill="#000000" font-family="sans-serif" font-size="13" lengthAdjust="spacing" textLength="128.6416" x="357.0693" y="1067.6836">setPosition(position)</text><!--SRC=[lLHTQo8n57sVNt7nIM5zwAiFWdI55IgLjT8A2qiwkOx1c8H9fiN- -hsJQKRZVDJTXnLqnkISSx-lFGXbMCwEO5XwO1cktKaYv9WwfZA9YQq1Ti-uVXSgWnsJzl962eNkP11qxlOwOONJgZY-OfuaB7KwXy6S2teEW5cOVtzAYEP4AWnJ3WQJ6USBnGlhyjDcuJ6RHJVaNYkNQocnahj_-laGWybamUIIcLzgGhyUjPojOf3HLZYX5M5MdwyUk7fSny0ZCtE9HrIkally4rH_pn_cooJ9SbqO22v2aAGJKxW4w2ErDb0e9oIyCIau10_yRVdPB60ydfRvWGcf7s17cNjfuYW-ySOS-ao6mv95PDAO0Bc7nAplE4QKVeFRVpQulSdWr5UCI1cwPy7Tdd8w73Lj-Rg6KqyXAYMyOgx51xQnoZg7mn9yoV7MBaZ-_kmF5TeZsgAubAry2Q7tiNm8dS7_G97jtN-BlZBN6tu5-Uluksbn0fXqrCw-nNJXGE_WLHUAsnhGw4dCSu8VqLfQJ1CGgcDoi5n7rohJSfP9HE5xFO_3b_7TDzYExqOjy7Df7jEqC09veDbXZ6ylKskfRfQwJ76ZVb9ODvFoAx68aqfaEUXhIaJmIwcSUghP7iwhBWB5odxXtHRRTNpLhcoHhZJ7jUl1wRhIji6AcxDJ-PmEnlbNkgXuCvtdncYaqfSbwVQgfJF2sFINfNE4mXW5_skTHknzSzJFRWnJOq8ikdgWWjQeCvFXlNpIzmy0]--></g></svg>