<svg xmlns="http://www.w3.org/2000/svg" xmlns:xlink="http://www.w3.org/1999/xlink" contentStyleType="text/css" height="829px" preserveAspectRatio="none" style="width:1588px;height:829px;background:#FFFFFF;" version="1.1" viewBox="0 0 1588 829" width="1588px" zoomAndPan="magnify"><defs/><g><rect fill="#FFFFFF" height="640.4551" style="stroke:#181818;stroke-width:1.0;" width="10" x="48.0054" y="91.4883"/><rect fill="#FFFFFF" height="640.4551" style="stroke:#181818;stroke-width:1.0;" width="10" x="377.877" y="91.4883"/><rect fill="#FFFFFF" height="494.9023" style="stroke:#181818;stroke-width:1.0;" width="10" x="744.2495" y="137.1094"/><rect fill="#FFFFFF" height="256.1289" style="stroke:#181818;stroke-width:1.0;" width="10" x="1161.7251" y="354.5723"/><rect fill="#FFFFFF" height="71.6211" style="stroke:#181818;stroke-width:1.0;" width="10" x="1374.8315" y="408.1934"/><rect fill="none" height="633.4551" style="stroke:#000000;stroke-width:1.5;" width="1545.8193" x="10" y="98.4883"/><rect fill="none" height="174.1523" style="stroke:#000000;stroke-width:1.5;" width="512.231" x="654.4941" y="152.1094"/><rect fill="none" height="234.1289" style="stroke:#000000;stroke-width:1.5;" width="891.3252" x="654.4941" y="369.5723"/><rect fill="none" height="77.9316" style="stroke:#000000;stroke-width:1.5;" width="430.4185" x="20" y="647.0117"/><line style="stroke:#181818;stroke-width:0.5;stroke-dasharray:5.0,5.0;" x1="53" x2="53" y1="81.4883" y2="748.9434"/><line style="stroke:#181818;stroke-width:0.5;stroke-dasharray:5.0,5.0;" x1="382.3354" x2="382.3354" y1="81.4883" y2="748.9434"/><line style="stroke:#181818;stroke-width:0.5;stroke-dasharray:5.0,5.0;" x1="748.4941" x2="748.4941" y1="81.4883" y2="748.9434"/><line style="stroke:#181818;stroke-width:0.5;stroke-dasharray:5.0,5.0;" x1="1166.1216" x2="1166.1216" y1="81.4883" y2="748.9434"/><line style="stroke:#181818;stroke-width:0.5;stroke-dasharray:5.0,5.0;" x1="1379.7349" x2="1379.7349" y1="81.4883" y2="748.9434"/><line style="stroke:#181818;stroke-width:0.5;stroke-dasharray:5.0,5.0;" x1="1545.7856" x2="1545.7856" y1="81.4883" y2="748.9434"/><text fill="#000000" font-family="sans-serif" font-size="14" lengthAdjust="spacing" textLength="40.0107" x="30" y="78.5352">Editor</text><ellipse cx="53.0054" cy="13.5" fill="#E2E2F0" rx="8" ry="8" style="stroke:#181818;stroke-width:0.5;"/><path d="M53.0054,21.5 L53.0054,48.5 M40.0054,29.5 L66.0054,29.5 M53.0054,48.5 L40.0054,63.5 M53.0054,48.5 L66.0054,63.5 " fill="none" style="stroke:#181818;stroke-width:0.5;"/><text fill="#000000" font-family="sans-serif" font-size="14" lengthAdjust="spacing" textLength="40.0107" x="30" y="761.4785">Editor</text><ellipse cx="53.0054" cy="772.9316" fill="#E2E2F0" rx="8" ry="8" style="stroke:#181818;stroke-width:0.5;"/><path d="M53.0054,780.9316 L53.0054,807.9316 M40.0054,788.9316 L66.0054,788.9316 M53.0054,807.9316 L40.0054,822.9316 M53.0054,807.9316 L66.0054,822.9316 " fill="none" style="stroke:#181818;stroke-width:0.5;"/><rect fill="#E2E2F0" height="30.4883" rx="2.5" ry="2.5" style="stroke:#181818;stroke-width:0.5;" width="115.083" x="325.3354" y="50"/><text fill="#000000" font-family="sans-serif" font-size="14" lengthAdjust="spacing" textLength="101.083" x="332.3354" y="70.5352">:AddIndustryUI</text><rect fill="#E2E2F0" height="30.4883" rx="2.5" ry="2.5" style="stroke:#181818;stroke-width:0.5;" width="115.083" x="325.3354" y="747.9434"/><text fill="#000000" font-family="sans-serif" font-size="14" lengthAdjust="spacing" textLength="101.083" x="332.3354" y="768.4785">:AddIndustryUI</text><rect fill="#E2E2F0" height="30.4883" rx="2.5" ry="2.5" style="stroke:#181818;stroke-width:0.5;" width="169.5107" x="664.4941" y="50"/><text fill="#000000" font-family="sans-serif" font-size="14" lengthAdjust="spacing" textLength="155.5107" x="671.4941" y="70.5352">:AddIndustryController</text><rect fill="#E2E2F0" height="30.4883" rx="2.5" ry="2.5" style="stroke:#181818;stroke-width:0.5;" width="169.5107" x="664.4941" y="747.9434"/><text fill="#000000" font-family="sans-serif" font-size="14" lengthAdjust="spacing" textLength="155.5107" x="671.4941" y="768.4785">:AddIndustryController</text><rect fill="#E2E2F0" height="46.9766" rx="2.5" ry="2.5" style="stroke:#181818;stroke-width:0.5;" width="83.207" x="1125.1216" y="33.5117"/><text fill="#000000" font-family="sans-serif" font-size="14" lengthAdjust="spacing" textLength="69.207" x="1132.1216" y="54.0469">actualMap</text><text fill="#000000" font-family="sans-serif" font-size="14" lengthAdjust="spacing" textLength="33.0313" x="1150.2095" y="70.5352">:Map</text><rect fill="#E2E2F0" height="46.9766" rx="2.5" ry="2.5" style="stroke:#181818;stroke-width:0.5;" width="83.207" x="1125.1216" y="747.9434"/><text fill="#000000" font-family="sans-serif" font-size="14" lengthAdjust="spacing" textLength="69.207" x="1132.1216" y="768.4785">actualMap</text><text fill="#000000" font-family="sans-serif" font-size="14" lengthAdjust="spacing" textLength="33.0313" x="1150.2095" y="784.9668">:Map</text><rect fill="#E2E2F0" height="46.9766" rx="2.5" ry="2.5" style="stroke:#181818;stroke-width:0.5;" width="146.1934" x="1306.7349" y="33.5117"/><text fill="#000000" font-family="sans-serif" font-size="14" lengthAdjust="spacing" textLength="127.7773" x="1315.9429" y="54.0469">industryRepository</text><text fill="#000000" font-family="sans-serif" font-size="14" lengthAdjust="spacing" textLength="132.1934" x="1313.7349" y="70.5352">:IndustryRepository</text><rect fill="#E2E2F0" height="46.9766" rx="2.5" ry="2.5" style="stroke:#181818;stroke-width:0.5;" width="146.1934" x="1306.7349" y="747.9434"/><text fill="#000000" font-family="sans-serif" font-size="14" lengthAdjust="spacing" textLength="127.7773" x="1315.9429" y="768.4785">industryRepository</text><text fill="#000000" font-family="sans-serif" font-size="14" lengthAdjust="spacing" textLength="132.1934" x="1313.7349" y="784.9668">:IndustryRepository</text><rect fill="#E2E2F0" height="46.9766" rx="2.5" ry="2.5" style="stroke:#181818;stroke-width:0.5;" width="74.0674" x="1508.7856" y="33.5117"/><text fill="#000000" font-family="sans-serif" font-size="14" lengthAdjust="spacing" textLength="55.6514" x="1517.9937" y="54.0469">industry</text><text fill="#000000" font-family="sans-serif" font-size="14" lengthAdjust="spacing" textLength="60.0674" x="1515.7856" y="70.5352">:Industry</text><rect fill="#E2E2F0" height="46.9766" rx="2.5" ry="2.5" style="stroke:#181818;stroke-width:0.5;" width="74.0674" x="1508.7856" y="747.9434"/><text fill="#000000" font-family="sans-serif" font-size="14" lengthAdjust="spacing" textLength="55.6514" x="1517.9937" y="768.4785">industry</text><text fill="#000000" font-family="sans-serif" font-size="14" lengthAdjust="spacing" textLength="60.0674" x="1515.7856" y="784.9668">:Industry</text><rect fill="#FFFFFF" height="640.4551" style="stroke:#181818;stroke-width:1.0;" width="10" x="48.0054" y="91.4883"/><rect fill="#FFFFFF" height="640.4551" style="stroke:#181818;stroke-width:1.0;" width="10" x="377.877" y="91.4883"/><rect fill="#FFFFFF" height="494.9023" style="stroke:#181818;stroke-width:1.0;" width="10" x="744.2495" y="137.1094"/><rect fill="#FFFFFF" height="256.1289" style="stroke:#181818;stroke-width:1.0;" width="10" x="1161.7251" y="354.5723"/><rect fill="#FFFFFF" height="71.6211" style="stroke:#181818;stroke-width:1.0;" width="10" x="1374.8315" y="408.1934"/><path d="M10,98.4883 L192.3887,98.4883 L192.3887,105.7988 L182.3887,115.7988 L10,115.7988 L10,98.4883 " fill="#EEEEEE" style="stroke:#000000;stroke-width:1.5;"/><rect fill="none" height="633.4551" style="stroke:#000000;stroke-width:1.5;" width="1545.8193" x="10" y="98.4883"/><text fill="#000000" font-family="sans-serif" font-size="13" font-weight="bold" lengthAdjust="spacing" textLength="137.3887" x="25" y="112.0566">Add Industry to Map</text><polygon fill="#181818" points="732.2495,133.1094,742.2495,137.1094,732.2495,141.1094,736.2495,137.1094" style="stroke:#181818;stroke-width:1.0;"/><line style="stroke:#181818;stroke-width:1.0;" x1="387.877" x2="738.2495" y1="137.1094" y2="137.1094"/><text fill="#000000" font-family="sans-serif" font-size="13" font-weight="bold" lengthAdjust="spacing" textLength="8.5757" x="394.877" y="132.3672">1</text><text fill="#000000" font-family="sans-serif" font-size="13" lengthAdjust="spacing" textLength="324.7969" x="407.4526" y="132.3672">addIndustry(industryTypeDesc, industryName, X, Y)</text><path d="M654.4941,152.1094 L716.6328,152.1094 L716.6328,159.4199 L706.6328,169.4199 L654.4941,169.4199 L654.4941,152.1094 " fill="#EEEEEE" style="stroke:#000000;stroke-width:1.5;"/><rect fill="none" height="174.1523" style="stroke:#000000;stroke-width:1.5;" width="512.231" x="654.4941" y="152.1094"/><text fill="#000000" font-family="sans-serif" font-size="13" font-weight="bold" lengthAdjust="spacing" textLength="17.1387" x="669.4941" y="165.6777">alt</text><text fill="#000000" font-family="sans-serif" font-size="11" font-weight="bold" lengthAdjust="spacing" textLength="278.8887" x="731.6328" y="164.7441">[industryTypeDesc == "Primary Sector Industry"]</text><line style="stroke:#181818;stroke-width:1.0;" x1="754.2495" x2="796.2495" y1="190.7305" y2="190.7305"/><line style="stroke:#181818;stroke-width:1.0;" x1="796.2495" x2="796.2495" y1="190.7305" y2="203.7305"/><line style="stroke:#181818;stroke-width:1.0;" x1="755.2495" x2="796.2495" y1="203.7305" y2="203.7305"/><polygon fill="#181818" points="765.2495,199.7305,755.2495,203.7305,765.2495,207.7305,761.2495,203.7305" style="stroke:#181818;stroke-width:1.0;"/><text fill="#000000" font-family="sans-serif" font-size="13" font-weight="bold" lengthAdjust="spacing" textLength="8.5757" x="761.2495" y="185.9883">2</text><text fill="#000000" font-family="sans-serif" font-size="13" lengthAdjust="spacing" textLength="333.0234" x="773.8252" y="185.9883">create PrimaryIndustry(industryName, type, position)</text><line style="stroke:#000000;stroke-width:1.0;stroke-dasharray:2.0,2.0;" x1="654.4941" x2="1166.7251" y1="212.7305" y2="212.7305"/><text fill="#000000" font-family="sans-serif" font-size="11" font-weight="bold" lengthAdjust="spacing" textLength="274.1353" x="659.4941" y="223.3652">[industryTypeDesc == "Transforming Industry"]</text><line style="stroke:#181818;stroke-width:1.0;" x1="754.2495" x2="796.2495" y1="247.9961" y2="247.9961"/><line style="stroke:#181818;stroke-width:1.0;" x1="796.2495" x2="796.2495" y1="247.9961" y2="260.9961"/><line style="stroke:#181818;stroke-width:1.0;" x1="755.2495" x2="796.2495" y1="260.9961" y2="260.9961"/><polygon fill="#181818" points="765.2495,256.9961,755.2495,260.9961,765.2495,264.9961,761.2495,260.9961" style="stroke:#181818;stroke-width:1.0;"/><text fill="#000000" font-family="sans-serif" font-size="13" font-weight="bold" lengthAdjust="spacing" textLength="8.5757" x="761.2495" y="243.2539">3</text><text fill="#000000" font-family="sans-serif" font-size="13" lengthAdjust="spacing" textLength="370.8999" x="773.8252" y="243.2539">create TransformingIndustry(industryName, type, position)</text><line style="stroke:#000000;stroke-width:1.0;stroke-dasharray:2.0,2.0;" x1="654.4941" x2="1166.7251" y1="269.9961" y2="269.9961"/><text fill="#000000" font-family="sans-serif" font-size="11" font-weight="bold" lengthAdjust="spacing" textLength="230.1191" x="659.4941" y="280.6309">[industryTypeDesc == "Mixed Industry"]</text><line style="stroke:#181818;stroke-width:1.0;" x1="754.2495" x2="796.2495" y1="305.2617" y2="305.2617"/><line style="stroke:#181818;stroke-width:1.0;" x1="796.2495" x2="796.2495" y1="305.2617" y2="318.2617"/><line style="stroke:#181818;stroke-width:1.0;" x1="755.2495" x2="796.2495" y1="318.2617" y2="318.2617"/><polygon fill="#181818" points="765.2495,314.2617,755.2495,318.2617,765.2495,322.2617,761.2495,318.2617" style="stroke:#181818;stroke-width:1.0;"/><text fill="#000000" font-family="sans-serif" font-size="13" font-weight="bold" lengthAdjust="spacing" textLength="8.5757" x="761.2495" y="300.5195">4</text><text fill="#000000" font-family="sans-serif" font-size="13" lengthAdjust="spacing" textLength="323.686" x="773.8252" y="300.5195">create MixedIndustry(industryName, type, position)</text><polygon fill="#181818" points="1149.7251,350.5723,1159.7251,354.5723,1149.7251,358.5723,1153.7251,354.5723" style="stroke:#181818;stroke-width:1.0;"/><line style="stroke:#181818;stroke-width:1.0;" x1="754.2495" x2="1155.7251" y1="354.5723" y2="354.5723"/><text fill="#000000" font-family="sans-serif" font-size="13" font-weight="bold" lengthAdjust="spacing" textLength="8.5757" x="761.2495" y="349.8301">5</text><text fill="#000000" font-family="sans-serif" font-size="13" lengthAdjust="spacing" textLength="134.0308" x="773.8252" y="349.8301">addElement(industry)</text><path d="M654.4941,369.5723 L716.6328,369.5723 L716.6328,376.8828 L706.6328,386.8828 L654.4941,386.8828 L654.4941,369.5723 " fill="#EEEEEE" style="stroke:#000000;stroke-width:1.5;"/><rect fill="none" height="234.1289" style="stroke:#000000;stroke-width:1.5;" width="891.3252" x="654.4941" y="369.5723"/><text fill="#000000" font-family="sans-serif" font-size="13" font-weight="bold" lengthAdjust="spacing" textLength="17.1387" x="669.4941" y="383.1406">alt</text><text fill="#000000" font-family="sans-serif" font-size="11" font-weight="bold" lengthAdjust="spacing" textLength="52.1909" x="731.6328" y="382.207">[success]</text><polygon fill="#181818" points="1362.8315,404.1934,1372.8315,408.1934,1362.8315,412.1934,1366.8315,408.1934" style="stroke:#181818;stroke-width:1.0;"/><line style="stroke:#181818;stroke-width:1.0;stroke-dasharray:2.0,2.0;" x1="1171.7251" x2="1368.8315" y1="408.1934" y2="408.1934"/><text fill="#000000" font-family="sans-serif" font-size="13" font-weight="bold" lengthAdjust="spacing" textLength="8.5757" x="1178.7251" y="403.4512">6</text><text fill="#000000" font-family="sans-serif" font-size="13" lengthAdjust="spacing" textLength="135.3384" x="1191.3008" y="403.4512">addIndustry(industry)</text><line style="stroke:#181818;stroke-width:1.0;" x1="1384.8315" x2="1426.8315" y1="437.5039" y2="437.5039"/><line style="stroke:#181818;stroke-width:1.0;" x1="1426.8315" x2="1426.8315" y1="437.5039" y2="450.5039"/><line style="stroke:#181818;stroke-width:1.0;" x1="1385.8315" x2="1426.8315" y1="450.5039" y2="450.5039"/><polygon fill="#181818" points="1395.8315,446.5039,1385.8315,450.5039,1395.8315,454.5039,1391.8315,450.5039" style="stroke:#181818;stroke-width:1.0;"/><text fill="#000000" font-family="sans-serif" font-size="13" font-weight="bold" lengthAdjust="spacing" textLength="8.5757" x="1391.8315" y="432.7617">7</text><text fill="#000000" font-family="sans-serif" font-size="13" lengthAdjust="spacing" textLength="119.4121" x="1404.4072" y="432.7617">add industry to list</text><polygon fill="#181818" points="1182.7251,475.8145,1172.7251,479.8145,1182.7251,483.8145,1178.7251,479.8145" style="stroke:#181818;stroke-width:1.0;"/><line style="stroke:#181818;stroke-width:1.0;stroke-dasharray:2.0,2.0;" x1="1176.7251" x2="1378.8315" y1="479.8145" y2="479.8145"/><text fill="#000000" font-family="sans-serif" font-size="13" font-weight="bold" lengthAdjust="spacing" textLength="8.5757" x="1188.7251" y="475.0723">8</text><text fill="#000000" font-family="sans-serif" font-size="13" lengthAdjust="spacing" textLength="80.5581" x="1201.3008" y="475.0723">confirmation</text><line style="stroke:#181818;stroke-width:1.0;" x1="1171.7251" x2="1213.7251" y1="509.125" y2="509.125"/><line style="stroke:#181818;stroke-width:1.0;" x1="1213.7251" x2="1213.7251" y1="509.125" y2="522.125"/><line style="stroke:#181818;stroke-width:1.0;" x1="1172.7251" x2="1213.7251" y1="522.125" y2="522.125"/><polygon fill="#181818" points="1182.7251,518.125,1172.7251,522.125,1182.7251,526.125,1178.7251,522.125" style="stroke:#181818;stroke-width:1.0;"/><text fill="#000000" font-family="sans-serif" font-size="13" font-weight="bold" lengthAdjust="spacing" textLength="8.5757" x="1178.7251" y="504.3828">9</text><text fill="#000000" font-family="sans-serif" font-size="13" lengthAdjust="spacing" textLength="166.5308" x="1191.3008" y="504.3828">update occupied positions</text><polygon fill="#181818" points="765.2495,547.4355,755.2495,551.4355,765.2495,555.4355,761.2495,551.4355" style="stroke:#181818;stroke-width:1.0;"/><line style="stroke:#181818;stroke-width:1.0;stroke-dasharray:2.0,2.0;" x1="759.2495" x2="1160.7251" y1="551.4355" y2="551.4355"/><text fill="#000000" font-family="sans-serif" font-size="13" font-weight="bold" lengthAdjust="spacing" textLength="17.1514" x="771.2495" y="546.6934">10</text><text fill="#000000" font-family="sans-serif" font-size="13" lengthAdjust="spacing" textLength="48.5088" x="792.4009" y="546.6934">success</text><line style="stroke:#000000;stroke-width:1.0;stroke-dasharray:2.0,2.0;" x1="654.4941" x2="1545.8193" y1="560.4355" y2="560.4355"/><text fill="#000000" font-family="sans-serif" font-size="11" font-weight="bold" lengthAdjust="spacing" textLength="45.0044" x="659.4941" y="571.0703">[failure]</text><polygon fill="#181818" points="765.2495,591.7012,755.2495,595.7012,765.2495,599.7012,761.2495,595.7012" style="stroke:#181818;stroke-width:1.0;"/><line style="stroke:#181818;stroke-width:1.0;stroke-dasharray:2.0,2.0;" x1="759.2495" x2="1160.7251" y1="595.7012" y2="595.7012"/><text fill="#000000" font-family="sans-serif" font-size="13" font-weight="bold" lengthAdjust="spacing" textLength="17.1514" x="771.2495" y="590.959">11</text><text fill="#000000" font-family="sans-serif" font-size="13" lengthAdjust="spacing" textLength="40.1045" x="792.4009" y="590.959">failure</text><polygon fill="#181818" points="398.877,628.0117,388.877,632.0117,398.877,636.0117,394.877,632.0117" style="stroke:#181818;stroke-width:1.0;"/><line style="stroke:#181818;stroke-width:1.0;stroke-dasharray:2.0,2.0;" x1="392.877" x2="748.2495" y1="632.0117" y2="632.0117"/><text fill="#000000" font-family="sans-serif" font-size="13" font-weight="bold" lengthAdjust="spacing" textLength="17.1514" x="404.877" y="627.2695">12</text><text fill="#000000" font-family="sans-serif" font-size="13" lengthAdjust="spacing" textLength="138.4233" x="426.0283" y="627.2695">return success/failure</text><path d="M20,647.0117 L82.1387,647.0117 L82.1387,654.3223 L72.1387,664.3223 L20,664.3223 L20,647.0117 " fill="#EEEEEE" style="stroke:#000000;stroke-width:1.5;"/><rect fill="none" height="77.9316" style="stroke:#000000;stroke-width:1.5;" width="430.4185" x="20" y="647.0117"/><text fill="#000000" font-family="sans-serif" font-size="13" font-weight="bold" lengthAdjust="spacing" textLength="17.1387" x="35" y="660.5801">alt</text><text fill="#000000" font-family="sans-serif" font-size="11" font-weight="bold" lengthAdjust="spacing" textLength="52.1909" x="97.1387" y="659.6465">[success]</text><polygon fill="#181818" points="69.0054,681.6328,59.0054,685.6328,69.0054,689.6328,65.0054,685.6328" style="stroke:#181818;stroke-width:1.0;"/><line style="stroke:#181818;stroke-width:1.0;stroke-dasharray:2.0,2.0;" x1="63.0054" x2="376.877" y1="685.6328" y2="685.6328"/><text fill="#000000" font-family="sans-serif" font-size="13" font-weight="bold" lengthAdjust="spacing" textLength="17.1514" x="75.0054" y="680.8906">13</text><text fill="#000000" font-family="sans-serif" font-size="13" lengthAdjust="spacing" textLength="274.7202" x="96.1567" y="680.8906">show message: Industry added successfully</text><line style="stroke:#000000;stroke-width:1.0;stroke-dasharray:2.0,2.0;" x1="20" x2="450.4185" y1="694.6328" y2="694.6328"/><polygon fill="#181818" points="69.0054,712.9434,59.0054,716.9434,69.0054,720.9434,65.0054,716.9434" style="stroke:#181818;stroke-width:1.0;"/><line style="stroke:#181818;stroke-width:1.0;stroke-dasharray:2.0,2.0;" x1="63.0054" x2="376.877" y1="716.9434" y2="716.9434"/><text fill="#000000" font-family="sans-serif" font-size="13" font-weight="bold" lengthAdjust="spacing" textLength="17.1514" x="75.0054" y="712.2012">14</text><text fill="#000000" font-family="sans-serif" font-size="13" lengthAdjust="spacing" textLength="237.6943" x="96.1567" y="712.2012">show message: Failed to add industry</text><!--SRC=[hLHTYnen57sVNt7ngGik-oviOLaj3AnRSHLQA9GqSzMmcMJ8HxVpxtiJPsB6KR1G7nIJSqxElUSczbseXXbMGyFuEzlZcsibWa7kcDfBB6m2s0Ehz8TGUzWnQVCTAHIwja7GnXrqmRpJojU_q1G5uquRc2mgGRyJO1OMyqr1D2UuQ9XoC9azLLMfAc-TQRTbn6pBwv1dhPpHKk9HxdcpVXc2wKZFv98rFzIClYDg-RGQWaIdjiP6s-2j9NGvMepaydN-SxrOVRsiaF5wT57iZVODa6lezy1f83S5q8SSYj_COUp5O84A3_-t9Tn_ZgN13DYfza_zeHlgzXmjdqA_yifgdCAtANo_6qh61iKLwU2S3u-FC5aPKJDo-8Onh5HDP8LFD78on0q6uOusydPq4kPX2h6FGgkZ9wInkMnXOvYoEstgC5wt6iX9_yN5Klp1wkRZ8_fVpbLLaQlHJ1xJNKYiKRaaSHPWcDqKeFMSexN9MX2v9x5-Hg_CorqY9DaqrVrEaXZ9fMw58PR2kWkSL13NQYTCpKBX2LVX-DnX3JtTDrL0QSvz8oYDleVZahiqyex4Q7TCI6_m6ZxV3f4KP_v2kqyn4OykuumUHEUDwWzxo4KoRhnhLxCAjvhqwD87smVz0JLjqvixExqIr6qgkcFkl9HjAkmMdI_aY_WKKnxROFmokzrhaws41uc0Vm40]--></g></svg>