<svg xmlns="http://www.w3.org/2000/svg" xmlns:xlink="http://www.w3.org/1999/xlink" contentStyleType="text/css" height="1070px" preserveAspectRatio="none" style="width:623px;height:1070px;background:#FFFFFF;" version="1.1" viewBox="0 0 623 1070" width="623px" zoomAndPan="magnify"><title>System Sequence Diagram (SSD) - US06</title><defs/><g><text fill="#000000" font-family="sans-serif" font-size="14" font-weight="bold" lengthAdjust="spacing" textLength="269.2061" x="178.2432" y="30.1074">System Sequence Diagram (SSD) - US06</text><rect fill="#FFFFFF" height="844.6348" style="stroke:#181818;stroke-width:1.0;" width="10" x="37.8413" y="133.2422"/><rect fill="#FFFFFF" height="57.582" style="stroke:#181818;stroke-width:1.0;" width="10" x="373.1709" y="156.5332"/><rect fill="#FFFFFF" height="732.4707" style="stroke:#181818;stroke-width:1.0;" width="10" x="373.1709" y="245.4063"/><rect fill="none" height="126.1641" style="stroke:#000000;stroke-width:1.5;" width="567.667" x="10" y="171.5332"/><rect fill="none" height="463.7246" style="stroke:#000000;stroke-width:1.5;" width="606.6924" x="10" y="507.1523"/><line style="stroke:#181818;stroke-width:0.5;stroke-dasharray:5.0,5.0;" x1="42" x2="42" y1="123.2422" y2="987.877"/><line style="stroke:#181818;stroke-width:0.5;stroke-dasharray:5.0,5.0;" x1="377.833" x2="377.833" y1="123.2422" y2="987.877"/><text fill="#000000" font-family="sans-serif" font-size="14" lengthAdjust="spacing" textLength="39.6826" x="20" y="119.7285">Player</text><ellipse cx="42.8413" cy="53.1211" fill="#E2E2F0" rx="8" ry="8" style="stroke:#181818;stroke-width:0.5;"/><path d="M42.8413,61.1211 L42.8413,88.1211 M29.8413,69.1211 L55.8413,69.1211 M42.8413,88.1211 L29.8413,103.1211 M42.8413,88.1211 L55.8413,103.1211 " fill="none" style="stroke:#181818;stroke-width:0.5;"/><text fill="#000000" font-family="sans-serif" font-size="14" lengthAdjust="spacing" textLength="39.6826" x="20" y="1001.9844">Player</text><ellipse cx="42.8413" cy="1013.998" fill="#E2E2F0" rx="8" ry="8" style="stroke:#181818;stroke-width:0.5;"/><path d="M42.8413,1021.998 L42.8413,1048.998 M29.8413,1029.998 L55.8413,1029.998 M42.8413,1048.998 L29.8413,1063.998 M42.8413,1048.998 L55.8413,1063.998 " fill="none" style="stroke:#181818;stroke-width:0.5;"/><rect fill="#E2E2F0" height="32.6211" rx="2.5" ry="2.5" style="stroke:#181818;stroke-width:0.5;" width="60.6758" x="347.833" y="89.6211"/><text fill="#000000" font-family="sans-serif" font-size="14" lengthAdjust="spacing" textLength="46.6758" x="354.833" y="111.7285">System</text><rect fill="#E2E2F0" height="32.6211" rx="2.5" ry="2.5" style="stroke:#181818;stroke-width:0.5;" width="60.6758" x="347.833" y="986.877"/><text fill="#000000" font-family="sans-serif" font-size="14" lengthAdjust="spacing" textLength="46.6758" x="354.833" y="1008.9844">System</text><rect fill="#FFFFFF" height="844.6348" style="stroke:#181818;stroke-width:1.0;" width="10" x="37.8413" y="133.2422"/><rect fill="#FFFFFF" height="57.582" style="stroke:#181818;stroke-width:1.0;" width="10" x="373.1709" y="156.5332"/><rect fill="#FFFFFF" height="732.4707" style="stroke:#181818;stroke-width:1.0;" width="10" x="373.1709" y="245.4063"/><polygon fill="#181818" points="361.1709,152.5332,371.1709,156.5332,361.1709,160.5332,365.1709,156.5332" style="stroke:#181818;stroke-width:1.0;"/><line style="stroke:#181818;stroke-width:1.0;" x1="47.8413" x2="367.1709" y1="156.5332" y2="156.5332"/><text fill="#000000" font-family="sans-serif" font-size="13" lengthAdjust="spacing" textLength="179.2324" x="54.8413" y="151.2705">1. Select a station upgrade tool</text><path d="M10,171.5332 L82.4346,171.5332 L82.4346,180.8242 L72.4346,190.8242 L10,190.8242 L10,171.5332 " fill="#EEEEEE" style="stroke:#000000;stroke-width:1.5;"/><rect fill="none" height="126.1641" style="stroke:#000000;stroke-width:1.5;" width="567.667" x="10" y="171.5332"/><text fill="#000000" font-family="sans-serif" font-size="13" font-weight="bold" lengthAdjust="spacing" textLength="27.4346" x="25" y="186.5615">loop</text><text fill="#000000" font-family="sans-serif" font-size="11" font-weight="bold" lengthAdjust="spacing" textLength="112.4492" x="97.4346" y="185.4033">[Until Station is valid]</text><polygon fill="#181818" points="58.8413,210.1152,48.8413,214.1152,58.8413,218.1152,54.8413,214.1152" style="stroke:#181818;stroke-width:1.0;"/><line style="stroke:#181818;stroke-width:1.0;stroke-dasharray:2.0,2.0;" x1="52.8413" x2="377.1709" y1="214.1152" y2="214.1152"/><text fill="#000000" font-family="sans-serif" font-size="13" lengthAdjust="spacing" textLength="208.1206" x="64.8413" y="208.8525">2.0 Question which station to evolve</text><polygon fill="#181818" points="361.1709,241.4063,371.1709,245.4063,361.1709,249.4063,365.1709,245.4063" style="stroke:#181818;stroke-width:1.0;"/><line style="stroke:#181818;stroke-width:1.0;" x1="47.8413" x2="367.1709" y1="245.4063" y2="245.4063"/><text fill="#000000" font-family="sans-serif" font-size="13" lengthAdjust="spacing" textLength="174.8906" x="54.8413" y="240.1436">2.1 Choose a station to evolve</text><line style="stroke:#181818;stroke-width:1.0;" x1="383.1709" x2="425.1709" y1="276.6973" y2="276.6973"/><line style="stroke:#181818;stroke-width:1.0;" x1="425.1709" x2="425.1709" y1="276.6973" y2="289.6973"/><line style="stroke:#181818;stroke-width:1.0;" x1="384.1709" x2="425.1709" y1="289.6973" y2="289.6973"/><polygon fill="#181818" points="394.1709,285.6973,384.1709,289.6973,394.1709,293.6973,390.1709,289.6973" style="stroke:#181818;stroke-width:1.0;"/><text fill="#000000" font-family="sans-serif" font-size="13" lengthAdjust="spacing" textLength="165.4961" x="390.1709" y="271.4346">2.2 Validate station selection</text><polygon fill="#181818" points="58.8413,323.9883,48.8413,327.9883,58.8413,331.9883,54.8413,327.9883" style="stroke:#181818;stroke-width:1.0;"/><line style="stroke:#181818;stroke-width:1.0;stroke-dasharray:2.0,2.0;" x1="52.8413" x2="372.1709" y1="327.9883" y2="327.9883"/><text fill="#000000" font-family="sans-serif" font-size="13" lengthAdjust="spacing" textLength="297.7559" x="64.8413" y="322.7256">3.0 Shows the list of buildings that can be upgraded</text><polygon fill="#181818" points="361.1709,355.2793,371.1709,359.2793,361.1709,363.2793,365.1709,359.2793" style="stroke:#181818;stroke-width:1.0;"/><line style="stroke:#181818;stroke-width:1.0;" x1="47.8413" x2="367.1709" y1="359.2793" y2="359.2793"/><text fill="#000000" font-family="sans-serif" font-size="13" lengthAdjust="spacing" textLength="191.5342" x="54.8413" y="354.0166">3.1 Choose a building to upgrade</text><line style="stroke:#181818;stroke-width:1.0;" x1="383.1709" x2="425.1709" y1="390.5703" y2="390.5703"/><line style="stroke:#181818;stroke-width:1.0;" x1="425.1709" x2="425.1709" y1="390.5703" y2="403.5703"/><line style="stroke:#181818;stroke-width:1.0;" x1="384.1709" x2="425.1709" y1="403.5703" y2="403.5703"/><polygon fill="#181818" points="394.1709,399.5703,384.1709,403.5703,394.1709,407.5703,390.1709,403.5703" style="stroke:#181818;stroke-width:1.0;"/><text fill="#000000" font-family="sans-serif" font-size="13" lengthAdjust="spacing" textLength="189.3315" x="390.1709" y="385.3076">3.2 Check upgrade requirements</text><line style="stroke:#181818;stroke-width:1.0;" x1="383.1709" x2="425.1709" y1="434.8613" y2="434.8613"/><line style="stroke:#181818;stroke-width:1.0;" x1="425.1709" x2="425.1709" y1="434.8613" y2="447.8613"/><line style="stroke:#181818;stroke-width:1.0;" x1="384.1709" x2="425.1709" y1="447.8613" y2="447.8613"/><polygon fill="#181818" points="394.1709,443.8613,384.1709,447.8613,394.1709,451.8613,390.1709,447.8613" style="stroke:#181818;stroke-width:1.0;"/><text fill="#000000" font-family="sans-serif" font-size="13" lengthAdjust="spacing" textLength="182.8125" x="390.1709" y="429.5986">3.3 Get current time and money</text><line style="stroke:#181818;stroke-width:1.0;" x1="383.1709" x2="425.1709" y1="479.1523" y2="479.1523"/><line style="stroke:#181818;stroke-width:1.0;" x1="425.1709" x2="425.1709" y1="479.1523" y2="492.1523"/><line style="stroke:#181818;stroke-width:1.0;" x1="384.1709" x2="425.1709" y1="492.1523" y2="492.1523"/><polygon fill="#181818" points="394.1709,488.1523,384.1709,492.1523,394.1709,496.1523,390.1709,492.1523" style="stroke:#181818;stroke-width:1.0;"/><text fill="#000000" font-family="sans-serif" font-size="13" lengthAdjust="spacing" textLength="200.897" x="390.1709" y="473.8896">3.4 Get existing buildings in station</text><path d="M10,507.1523 L70.1709,507.1523 L70.1709,516.4434 L60.1709,526.4434 L10,526.4434 L10,507.1523 " fill="#EEEEEE" style="stroke:#000000;stroke-width:1.5;"/><rect fill="none" height="463.7246" style="stroke:#000000;stroke-width:1.5;" width="606.6924" x="10" y="507.1523"/><text fill="#000000" font-family="sans-serif" font-size="13" font-weight="bold" lengthAdjust="spacing" textLength="15.1709" x="25" y="522.1807">alt</text><text fill="#000000" font-family="sans-serif" font-size="11" font-weight="bold" lengthAdjust="spacing" textLength="106.9331" x="85.1709" y="521.0225">[Not enough money]</text><polygon fill="#181818" points="58.8413,545.7344,48.8413,549.7344,58.8413,553.7344,54.8413,549.7344" style="stroke:#181818;stroke-width:1.0;"/><line style="stroke:#181818;stroke-width:1.0;stroke-dasharray:2.0,2.0;" x1="52.8413" x2="372.1709" y1="549.7344" y2="549.7344"/><text fill="#000000" font-family="sans-serif" font-size="13" lengthAdjust="spacing" textLength="265.1987" x="64.8413" y="544.4717">4.1 Return error message: Not enough money</text><line style="stroke:#000000;stroke-width:1.0;stroke-dasharray:2.0,2.0;" x1="10" x2="616.6924" y1="558.7344" y2="558.7344"/><text fill="#000000" font-family="sans-serif" font-size="11" font-weight="bold" lengthAdjust="spacing" textLength="127.1445" x="15" y="570.6045">[Building already exists]</text><polygon fill="#181818" points="58.8413,593.6563,48.8413,597.6563,58.8413,601.6563,54.8413,597.6563" style="stroke:#181818;stroke-width:1.0;"/><line style="stroke:#181818;stroke-width:1.0;stroke-dasharray:2.0,2.0;" x1="52.8413" x2="372.1709" y1="597.6563" y2="597.6563"/><text fill="#000000" font-family="sans-serif" font-size="13" lengthAdjust="spacing" textLength="284.6924" x="64.8413" y="592.3936">4.1 Return error message: Building already exists</text><line style="stroke:#000000;stroke-width:1.0;stroke-dasharray:2.0,2.0;" x1="10" x2="616.6924" y1="606.6563" y2="606.6563"/><text fill="#000000" font-family="sans-serif" font-size="11" font-weight="bold" lengthAdjust="spacing" textLength="191.9414" x="15" y="618.5264">[Building has already been replaced]</text><polygon fill="#181818" points="58.8413,641.5781,48.8413,645.5781,58.8413,649.5781,54.8413,645.5781" style="stroke:#181818;stroke-width:1.0;"/><line style="stroke:#181818;stroke-width:1.0;stroke-dasharray:2.0,2.0;" x1="52.8413" x2="372.1709" y1="645.5781" y2="645.5781"/><text fill="#000000" font-family="sans-serif" font-size="13" lengthAdjust="spacing" textLength="301.3296" x="64.8413" y="640.3154">4.1 Return error message: Building already replaced</text><line style="stroke:#000000;stroke-width:1.0;stroke-dasharray:2.0,2.0;" x1="10" x2="616.6924" y1="654.5781" y2="654.5781"/><text fill="#000000" font-family="sans-serif" font-size="11" font-weight="bold" lengthAdjust="spacing" textLength="142.4092" x="15" y="666.4482">[Building replaces another]</text><line style="stroke:#181818;stroke-width:1.0;" x1="383.1709" x2="425.1709" y1="693.5" y2="693.5"/><line style="stroke:#181818;stroke-width:1.0;" x1="425.1709" x2="425.1709" y1="693.5" y2="706.5"/><line style="stroke:#181818;stroke-width:1.0;" x1="384.1709" x2="425.1709" y1="706.5" y2="706.5"/><polygon fill="#181818" points="394.1709,702.5,384.1709,706.5,394.1709,710.5,390.1709,706.5" style="stroke:#181818;stroke-width:1.0;"/><text fill="#000000" font-family="sans-serif" font-size="13" lengthAdjust="spacing" textLength="204.5215" x="390.1709" y="688.2373">4.2 Remove building to be replaced</text><line style="stroke:#181818;stroke-width:1.0;" x1="383.1709" x2="425.1709" y1="737.791" y2="737.791"/><line style="stroke:#181818;stroke-width:1.0;" x1="425.1709" x2="425.1709" y1="737.791" y2="750.791"/><line style="stroke:#181818;stroke-width:1.0;" x1="384.1709" x2="425.1709" y1="750.791" y2="750.791"/><polygon fill="#181818" points="394.1709,746.791,384.1709,750.791,394.1709,754.791,390.1709,750.791" style="stroke:#181818;stroke-width:1.0;"/><text fill="#000000" font-family="sans-serif" font-size="13" lengthAdjust="spacing" textLength="120.7007" x="390.1709" y="732.5283">4.3 Add new building</text><line style="stroke:#181818;stroke-width:1.0;" x1="383.1709" x2="425.1709" y1="782.082" y2="782.082"/><line style="stroke:#181818;stroke-width:1.0;" x1="425.1709" x2="425.1709" y1="782.082" y2="795.082"/><line style="stroke:#181818;stroke-width:1.0;" x1="384.1709" x2="425.1709" y1="795.082" y2="795.082"/><polygon fill="#181818" points="394.1709,791.082,384.1709,795.082,394.1709,799.082,390.1709,795.082" style="stroke:#181818;stroke-width:1.0;"/><text fill="#000000" font-family="sans-serif" font-size="13" lengthAdjust="spacing" textLength="158.958" x="390.1709" y="776.8193">4.4 Deduct cost from player</text><polygon fill="#181818" points="58.8413,822.373,48.8413,826.373,58.8413,830.373,54.8413,826.373" style="stroke:#181818;stroke-width:1.0;"/><line style="stroke:#181818;stroke-width:1.0;stroke-dasharray:2.0,2.0;" x1="52.8413" x2="372.1709" y1="826.373" y2="826.373"/><text fill="#000000" font-family="sans-serif" font-size="13" lengthAdjust="spacing" textLength="274.5933" x="64.8413" y="821.1104">4.5 Return success message: Building replaced</text><line style="stroke:#000000;stroke-width:1.0;stroke-dasharray:2.0,2.0;" x1="10" x2="616.6924" y1="835.373" y2="835.373"/><text fill="#000000" font-family="sans-serif" font-size="11" font-weight="bold" lengthAdjust="spacing" textLength="98.9785" x="15" y="847.2432">[Add new building]</text><line style="stroke:#181818;stroke-width:1.0;" x1="383.1709" x2="425.1709" y1="874.2949" y2="874.2949"/><line style="stroke:#181818;stroke-width:1.0;" x1="425.1709" x2="425.1709" y1="874.2949" y2="887.2949"/><line style="stroke:#181818;stroke-width:1.0;" x1="384.1709" x2="425.1709" y1="887.2949" y2="887.2949"/><polygon fill="#181818" points="394.1709,883.2949,384.1709,887.2949,394.1709,891.2949,390.1709,887.2949" style="stroke:#181818;stroke-width:1.0;"/><text fill="#000000" font-family="sans-serif" font-size="13" lengthAdjust="spacing" textLength="120.7007" x="390.1709" y="869.0322">4.2 Add new building</text><line style="stroke:#181818;stroke-width:1.0;" x1="383.1709" x2="425.1709" y1="918.5859" y2="918.5859"/><line style="stroke:#181818;stroke-width:1.0;" x1="425.1709" x2="425.1709" y1="918.5859" y2="931.5859"/><line style="stroke:#181818;stroke-width:1.0;" x1="384.1709" x2="425.1709" y1="931.5859" y2="931.5859"/><polygon fill="#181818" points="394.1709,927.5859,384.1709,931.5859,394.1709,935.5859,390.1709,931.5859" style="stroke:#181818;stroke-width:1.0;"/><text fill="#000000" font-family="sans-serif" font-size="13" lengthAdjust="spacing" textLength="158.958" x="390.1709" y="913.3232">4.3 Deduct cost from player</text><polygon fill="#181818" points="58.8413,958.877,48.8413,962.877,58.8413,966.877,54.8413,962.877" style="stroke:#181818;stroke-width:1.0;"/><line style="stroke:#181818;stroke-width:1.0;stroke-dasharray:2.0,2.0;" x1="52.8413" x2="372.1709" y1="962.877" y2="962.877"/><text fill="#000000" font-family="sans-serif" font-size="13" lengthAdjust="spacing" textLength="260.876" x="64.8413" y="957.6143">4.4 Return success message: Building added</text><!--SRC=[hLJFRvim5BxxhtZ7xP2e3Qo772PjZRHRrHMrTyT-3TQCpUm7MVxxFGXG4A2rqd99Ohtlr-F3Kf4Fy6Zb1OCePI2ZJ2aTGNQ9X8KWGnRttJ_8y7U5JY4SZ3m5MS2dB3jyXWqyPpTtGaX5ffQ4FT_r2pPVE_mURhVCOL4HI8WaoNW7LSbK6e6yjsyKdRwmtfVmxCXOo3g0YL1BQxG0_dJEDYnobTl3Rdi3FokCxV0vDoeVjCW3rjxMs68rpkIQuxdjtVOMxdFl8uvyJxaMcNfpOwOTl3Jccz6UAROhuLy2dHPY8LB2aRBSdoDGZc1D9F2lSAoCrSQTcbD9eAI38_Rxr0lhJyOvUdGJfCE8kU643T_dg7uDpobm2Kp00Xt5HK02Fv3TL27m290fMCrfABp3oo8WRG7uXsCrVjvY6TVlYCjb2HuyZpbVdVAERQK1AUTyGgg20mo12rvWZFB4HPuneELbVEzN8Mr0gIzNB_7Zz6j4KvLSnc7WYEXufQML2lL_41oeffBTCUiwpnKAA_LC-Ma_OU5hdDJZYCiMny04lcaD3iy3SdKqXGFgYYy1vRd8hy4NK5vlZDNyN_hyiL8S8oviO9hytMPsxnzDFkux_RTlgPkNjNtpvnVIwAIxLFy2]--></g></svg>