<svg xmlns="http://www.w3.org/2000/svg" xmlns:xlink="http://www.w3.org/1999/xlink" contentStyleType="text/css" height="765px" preserveAspectRatio="none" style="width:990px;height:765px;background:#FFFFFF;" version="1.1" viewBox="0 0 990 765" width="990px" zoomAndPan="magnify"><title>Sequence Diagram - US01 - Create a Map</title><defs/><g><text fill="#000000" font-family="sans-serif" font-size="8.4" font-weight="bold" lengthAdjust="spacing" textLength="180.641" x="404.1521" y="17.1211">Sequence Diagram - US01 - Create a Map</text><rect fill="#FFFFFF" height="628.2949" style="stroke:#181818;stroke-width:0.6;" width="6" x="28.8032" y="77.3859"/><rect fill="#FFFFFF" height="17.5863" style="stroke:#181818;stroke-width:0.6;" width="6" x="256.7297" y="90.1723"/><rect fill="#FFFFFF" height="32.1727" style="stroke:#181818;stroke-width:0.6;" width="6" x="256.7297" y="125.3449"/><rect fill="#FFFFFF" height="57.559" style="stroke:#181818;stroke-width:0.6;" width="6" x="256.7297" y="175.1039"/><rect fill="#FFFFFF" height="60.3457" style="stroke:#181818;stroke-width:0.6;" width="6" x="256.7297" y="250.2492"/><rect fill="#FFFFFF" height="57.559" style="stroke:#181818;stroke-width:0.6;" width="6" x="256.7297" y="328.1813"/><rect fill="#FFFFFF" height="26.5594" style="stroke:#181818;stroke-width:0.6;" width="6" x="256.7297" y="403.3266"/><rect fill="#FFFFFF" height="258.2086" style="stroke:#181818;stroke-width:0.6;" width="6" x="256.7297" y="447.4723"/><rect fill="#FFFFFF" height="218.8359" style="stroke:#181818;stroke-width:0.6;" width="6" x="592.2996" y="469.2586"/><rect fill="#FFFFFF" height="17.5863" style="stroke:#181818;stroke-width:0.6;" width="6" x="791.1018" y="617.7492"/><rect fill="#FFFFFF" height="17.5863" style="stroke:#181818;stroke-width:0.6;" width="6" x="846.9583" y="652.9219"/><rect fill="#FFFFFF" height="17.5863" style="stroke:#181818;stroke-width:0.6;" width="6" x="919.3729" y="512.2312"/><rect fill="#FFFFFF" height="17.5863" style="stroke:#181818;stroke-width:0.6;" width="6" x="919.3729" y="547.4039"/><rect fill="#FFFFFF" height="17.5863" style="stroke:#181818;stroke-width:0.6;" width="6" x="969.7928" y="582.5766"/><rect fill="none" height="159.2637" style="stroke:#000000;stroke-width:0.8999999999999999;" width="393.6472" x="6" y="134.3449"/><rect fill="none" height="45.559" style="stroke:#000000;stroke-width:0.8999999999999999;" width="285.1538" x="12" y="209.4902"/><rect fill="none" height="89.7047" style="stroke:#000000;stroke-width:0.8999999999999999;" width="285.1538" x="12" y="362.5676"/><line style="stroke:#181818;stroke-width:0.3;stroke-dasharray:5.0,5.0;" x1="31.8" x2="31.8" y1="71.3859" y2="716.4809"/><line style="stroke:#181818;stroke-width:0.3;stroke-dasharray:5.0,5.0;" x1="259.5056" x2="259.5056" y1="71.3859" y2="716.4809"/><line style="stroke:#181818;stroke-width:0.3;stroke-dasharray:5.0,5.0;" x1="594.9472" x2="594.9472" y1="71.3859" y2="716.4809"/><line style="stroke:#181818;stroke-width:0.3;stroke-dasharray:5.0,5.0;" x1="793.7924" x2="793.7924" y1="71.3859" y2="716.4809"/><line style="stroke:#181818;stroke-width:0.3;stroke-dasharray:5.0,5.0;" x1="849.6111" x2="849.6111" y1="71.3859" y2="716.4809"/><line style="stroke:#181818;stroke-width:0.3;stroke-dasharray:5.0,5.0;" x1="922.3055" x2="922.3055" y1="71.3859" y2="716.4809"/><line style="stroke:#181818;stroke-width:0.3;stroke-dasharray:5.0,5.0;" x1="972.2402" x2="972.2402" y1="71.3859" y2="716.4809"/><text fill="#000000" font-family="sans-serif" font-size="8.4" lengthAdjust="spacing" textLength="24.0064" x="18" y="69.6141">Editor</text><ellipse cx="31.8032" cy="30.593" fill="#E2E2F0" rx="4.8" ry="4.8" style="stroke:#181818;stroke-width:0.3;"/><path d="M31.8032,35.393 L31.8032,51.593 M24.0032,40.193 L39.6032,40.193 M31.8032,51.593 L24.0032,60.593 M31.8032,51.593 L39.6032,60.593 " fill="none" style="stroke:#181818;stroke-width:0.3;"/><text fill="#000000" font-family="sans-serif" font-size="8.4" lengthAdjust="spacing" textLength="24.0064" x="18" y="724.002">Editor</text><ellipse cx="31.8032" cy="730.8738" fill="#E2E2F0" rx="4.8" ry="4.8" style="stroke:#181818;stroke-width:0.3;"/><path d="M31.8032,735.6738 L31.8032,751.8738 M24.0032,740.4738 L39.6032,740.4738 M31.8032,751.8738 L24.0032,760.8738 M31.8032,751.8738 L39.6032,760.8738 " fill="none" style="stroke:#181818;stroke-width:0.3;"/><rect fill="#E2E2F0" height="18.293" rx="1.5" ry="1.5" style="stroke:#181818;stroke-width:0.3;" width="62.8482" x="228.3056" y="52.493"/><text fill="#000000" font-family="sans-serif" font-size="8.4" lengthAdjust="spacing" textLength="54.4482" x="232.5056" y="64.8141">:CreateMapUI</text><rect fill="#E2E2F0" height="18.293" rx="1.5" ry="1.5" style="stroke:#181818;stroke-width:0.3;" width="62.8482" x="228.3056" y="715.8809"/><text fill="#000000" font-family="sans-serif" font-size="8.4" lengthAdjust="spacing" textLength="54.4482" x="232.5056" y="728.202">:CreateMapUI</text><rect fill="#E2E2F0" height="18.293" rx="1.5" ry="1.5" style="stroke:#181818;stroke-width:0.3;" width="95.5049" x="547.5472" y="52.493"/><text fill="#000000" font-family="sans-serif" font-size="8.4" lengthAdjust="spacing" textLength="87.1049" x="551.7472" y="64.8141">:CreateMapController</text><rect fill="#E2E2F0" height="18.293" rx="1.5" ry="1.5" style="stroke:#181818;stroke-width:0.3;" width="95.5049" x="547.5472" y="715.8809"/><text fill="#000000" font-family="sans-serif" font-size="8.4" lengthAdjust="spacing" textLength="87.1049" x="551.7472" y="728.202">:CreateMapController</text><rect fill="#E2E2F0" height="18.293" rx="1.5" ry="1.5" style="stroke:#181818;stroke-width:0.3;" width="28.2188" x="779.9924" y="52.493"/><text fill="#000000" font-family="sans-serif" font-size="8.4" lengthAdjust="spacing" textLength="19.8187" x="784.1924" y="64.8141">:Map</text><rect fill="#E2E2F0" height="18.293" rx="1.5" ry="1.5" style="stroke:#181818;stroke-width:0.3;" width="28.2188" x="779.9924" y="715.8809"/><text fill="#000000" font-family="sans-serif" font-size="8.4" lengthAdjust="spacing" textLength="19.8187" x="784.1924" y="728.202">:Map</text><rect fill="#E2E2F0" height="18.293" rx="1.5" ry="1.5" style="stroke:#181818;stroke-width:0.3;" width="71.4943" x="814.2111" y="52.493"/><text fill="#000000" font-family="sans-serif" font-size="8.4" lengthAdjust="spacing" textLength="63.0943" x="818.4111" y="64.8141">:MapRepository</text><rect fill="#E2E2F0" height="18.293" rx="1.5" ry="1.5" style="stroke:#181818;stroke-width:0.3;" width="71.4943" x="814.2111" y="715.8809"/><text fill="#000000" font-family="sans-serif" font-size="8.4" lengthAdjust="spacing" textLength="63.0943" x="818.4111" y="728.202">:MapRepository</text><rect fill="#E2E2F0" height="18.293" rx="1.5" ry="1.5" style="stroke:#181818;stroke-width:0.3;" width="61.3348" x="891.7055" y="52.493"/><text fill="#000000" font-family="sans-serif" font-size="8.4" lengthAdjust="spacing" textLength="52.9348" x="895.9055" y="64.8141">:Repositories</text><rect fill="#E2E2F0" height="18.293" rx="1.5" ry="1.5" style="stroke:#181818;stroke-width:0.3;" width="61.3348" x="891.7055" y="715.8809"/><text fill="#000000" font-family="sans-serif" font-size="8.4" lengthAdjust="spacing" textLength="52.9348" x="895.9055" y="728.202">:Repositories</text><rect fill="#E2E2F0" height="18.293" rx="1.5" ry="1.5" style="stroke:#181818;stroke-width:0.3;" width="27.5051" x="959.0402" y="52.493"/><text fill="#000000" font-family="sans-serif" font-size="8.4" lengthAdjust="spacing" textLength="19.1051" x="963.2402" y="64.8141">:Size</text><rect fill="#E2E2F0" height="18.293" rx="1.5" ry="1.5" style="stroke:#181818;stroke-width:0.3;" width="27.5051" x="959.0402" y="715.8809"/><text fill="#000000" font-family="sans-serif" font-size="8.4" lengthAdjust="spacing" textLength="19.1051" x="963.2402" y="728.202">:Size</text><rect fill="#FFFFFF" height="628.2949" style="stroke:#181818;stroke-width:0.6;" width="6" x="28.8032" y="77.3859"/><rect fill="#FFFFFF" height="17.5863" style="stroke:#181818;stroke-width:0.6;" width="6" x="256.7297" y="90.1723"/><rect fill="#FFFFFF" height="32.1727" style="stroke:#181818;stroke-width:0.6;" width="6" x="256.7297" y="125.3449"/><rect fill="#FFFFFF" height="57.559" style="stroke:#181818;stroke-width:0.6;" width="6" x="256.7297" y="175.1039"/><rect fill="#FFFFFF" height="60.3457" style="stroke:#181818;stroke-width:0.6;" width="6" x="256.7297" y="250.2492"/><rect fill="#FFFFFF" height="57.559" style="stroke:#181818;stroke-width:0.6;" width="6" x="256.7297" y="328.1813"/><rect fill="#FFFFFF" height="26.5594" style="stroke:#181818;stroke-width:0.6;" width="6" x="256.7297" y="403.3266"/><rect fill="#FFFFFF" height="258.2086" style="stroke:#181818;stroke-width:0.6;" width="6" x="256.7297" y="447.4723"/><rect fill="#FFFFFF" height="218.8359" style="stroke:#181818;stroke-width:0.6;" width="6" x="592.2996" y="469.2586"/><rect fill="#FFFFFF" height="17.5863" style="stroke:#181818;stroke-width:0.6;" width="6" x="791.1018" y="617.7492"/><rect fill="#FFFFFF" height="17.5863" style="stroke:#181818;stroke-width:0.6;" width="6" x="846.9583" y="652.9219"/><rect fill="#FFFFFF" height="17.5863" style="stroke:#181818;stroke-width:0.6;" width="6" x="919.3729" y="512.2312"/><rect fill="#FFFFFF" height="17.5863" style="stroke:#181818;stroke-width:0.6;" width="6" x="919.3729" y="547.4039"/><rect fill="#FFFFFF" height="17.5863" style="stroke:#181818;stroke-width:0.6;" width="6" x="969.7928" y="582.5766"/><polygon fill="#181818" points="249.5297,87.7723,255.5297,90.1723,249.5297,92.5723,251.9297,90.1723" style="stroke:#181818;stroke-width:0.6;"/><line style="stroke:#181818;stroke-width:0.6;" x1="34.8032" x2="253.1297" y1="90.1723" y2="90.1723"/><text fill="#000000" font-family="sans-serif" font-size="7.8" lengthAdjust="spacing" textLength="96.8297" x="39.0032" y="87.327">1. Run Create Map option</text><polygon fill="#181818" points="41.4032,105.3586,35.4032,107.7586,41.4032,110.1586,39.0032,107.7586" style="stroke:#181818;stroke-width:0.6;"/><line style="stroke:#181818;stroke-width:0.6;stroke-dasharray:2.0,2.0;" x1="37.8032" x2="259.1297" y1="107.7586" y2="107.7586"/><text fill="#000000" font-family="sans-serif" font-size="7.8" lengthAdjust="spacing" textLength="115.4575" x="45.0032" y="104.9133">2. Display name options menu</text><polygon fill="#181818" points="249.5297,122.9449,255.5297,125.3449,249.5297,127.7449,251.9297,125.3449" style="stroke:#181818;stroke-width:0.6;"/><line style="stroke:#181818;stroke-width:0.6;" x1="34.8032" x2="253.1297" y1="125.3449" y2="125.3449"/><text fill="#000000" font-family="sans-serif" font-size="7.8" lengthAdjust="spacing" textLength="82.1438" x="39.0032" y="122.4996">3. Select name option</text><path d="M6,134.3449 L43.2832,134.3449 L43.2832,138.7313 L37.2832,144.7313 L6,144.7313 L6,134.3449 " fill="#EEEEEE" style="stroke:#000000;stroke-width:0.8999999999999999;"/><rect fill="none" height="159.2637" style="stroke:#000000;stroke-width:0.8999999999999999;" width="393.6472" x="6" y="134.3449"/><text fill="#000000" font-family="sans-serif" font-size="7.8" font-weight="bold" lengthAdjust="spacing" textLength="10.2832" x="15" y="142.4859">alt</text><text fill="#000000" font-family="sans-serif" font-size="6.6" font-weight="bold" lengthAdjust="spacing" textLength="70.4344" x="52.2832" y="141.9258">[Enter custom name]</text><polygon fill="#181818" points="41.4032,155.1176,35.4032,157.5176,41.4032,159.9176,39.0032,157.5176" style="stroke:#181818;stroke-width:0.6;"/><line style="stroke:#181818;stroke-width:0.6;stroke-dasharray:2.0,2.0;" x1="37.8032" x2="259.1297" y1="157.5176" y2="157.5176"/><text fill="#000000" font-family="sans-serif" font-size="7.8" lengthAdjust="spacing" textLength="176.7835" x="45.0032" y="154.6723">4. Prompt for map name (with validation rules)</text><polygon fill="#181818" points="249.5297,172.7039,255.5297,175.1039,249.5297,177.5039,251.9297,175.1039" style="stroke:#181818;stroke-width:0.6;"/><line style="stroke:#181818;stroke-width:0.6;" x1="34.8032" x2="253.1297" y1="175.1039" y2="175.1039"/><text fill="#000000" font-family="sans-serif" font-size="7.8" lengthAdjust="spacing" textLength="71.6016" x="39.0032" y="172.2586">5. Enter map name</text><line style="stroke:#181818;stroke-width:0.6;" x1="262.7297" x2="287.9297" y1="192.6902" y2="192.6902"/><line style="stroke:#181818;stroke-width:0.6;" x1="287.9297" x2="287.9297" y1="192.6902" y2="200.4902"/><line style="stroke:#181818;stroke-width:0.6;" x1="263.3297" x2="287.9297" y1="200.4902" y2="200.4902"/><polygon fill="#181818" points="269.3297,198.0902,263.3297,200.4902,269.3297,202.8902,266.9297,200.4902" style="stroke:#181818;stroke-width:0.6;"/><text fill="#000000" font-family="sans-serif" font-size="7.8" lengthAdjust="spacing" textLength="119.5175" x="266.9297" y="189.8449">6. Validate name format (AC02)</text><path d="M12,209.4902 L49.2832,209.4902 L49.2832,213.8766 L43.2832,219.8766 L12,219.8766 L12,209.4902 " fill="#EEEEEE" style="stroke:#000000;stroke-width:0.8999999999999999;"/><rect fill="none" height="45.559" style="stroke:#000000;stroke-width:0.8999999999999999;" width="285.1538" x="12" y="209.4902"/><text fill="#000000" font-family="sans-serif" font-size="7.8" font-weight="bold" lengthAdjust="spacing" textLength="10.2832" x="21" y="217.6313">alt</text><text fill="#000000" font-family="sans-serif" font-size="6.6" font-weight="bold" lengthAdjust="spacing" textLength="48.5332" x="58.2832" y="217.0711">[Invalid name]</text><polygon fill="#181818" points="41.4032,230.2629,35.4032,232.6629,41.4032,235.0629,39.0032,232.6629" style="stroke:#181818;stroke-width:0.6;"/><line style="stroke:#181818;stroke-width:0.6;stroke-dasharray:2.0,2.0;" x1="37.8032" x2="259.1297" y1="232.6629" y2="232.6629"/><text fill="#000000" font-family="sans-serif" font-size="7.8" lengthAdjust="spacing" textLength="123.0519" x="45.0032" y="229.8176">6.1 Show error: invalid file name</text><polygon fill="#181818" points="249.5297,247.8492,255.5297,250.2492,249.5297,252.6492,251.9297,250.2492" style="stroke:#181818;stroke-width:0.6;"/><line style="stroke:#181818;stroke-width:0.6;" x1="34.8032" x2="253.1297" y1="250.2492" y2="250.2492"/><text fill="#000000" font-family="sans-serif" font-size="7.8" lengthAdjust="spacing" textLength="71.4759" x="39.0032" y="247.4039">6.2 Re-enter name</text><line style="stroke:#000000;stroke-width:0.6;stroke-dasharray:2.0,2.0;" x1="6" x2="399.6472" y1="259.8492" y2="259.8492"/><text fill="#000000" font-family="sans-serif" font-size="6.6" font-weight="bold" lengthAdjust="spacing" textLength="64.1953" x="9" y="266.2301">[Use default name]</text><line style="stroke:#181818;stroke-width:0.6;" x1="262.7297" x2="287.9297" y1="281.0086" y2="281.0086"/><line style="stroke:#181818;stroke-width:0.6;" x1="287.9297" x2="287.9297" y1="281.0086" y2="288.8086"/><line style="stroke:#181818;stroke-width:0.6;" x1="263.3297" x2="287.9297" y1="288.8086" y2="288.8086"/><polygon fill="#181818" points="269.3297,286.4086,263.3297,288.8086,269.3297,291.2086,266.9297,288.8086" style="stroke:#181818;stroke-width:0.6;"/><text fill="#000000" font-family="sans-serif" font-size="7.8" lengthAdjust="spacing" textLength="73.4868" x="266.9297" y="278.1633">7. Set default name</text><polygon fill="#181818" points="41.4032,308.1949,35.4032,310.5949,41.4032,312.9949,39.0032,310.5949" style="stroke:#181818;stroke-width:0.6;"/><line style="stroke:#181818;stroke-width:0.6;stroke-dasharray:2.0,2.0;" x1="37.8032" x2="259.1297" y1="310.5949" y2="310.5949"/><text fill="#000000" font-family="sans-serif" font-size="7.8" lengthAdjust="spacing" textLength="134.4015" x="45.0032" y="307.7496">8. Prompt for dimensions and scale</text><polygon fill="#181818" points="249.5297,325.7813,255.5297,328.1813,249.5297,330.5813,251.9297,328.1813" style="stroke:#181818;stroke-width:0.6;"/><line style="stroke:#181818;stroke-width:0.6;" x1="34.8032" x2="253.1297" y1="328.1813" y2="328.1813"/><text fill="#000000" font-family="sans-serif" font-size="7.8" lengthAdjust="spacing" textLength="105.6047" x="39.0032" y="325.3359">9. Enter width, height, scale</text><line style="stroke:#181818;stroke-width:0.6;" x1="262.7297" x2="287.9297" y1="345.7676" y2="345.7676"/><line style="stroke:#181818;stroke-width:0.6;" x1="287.9297" x2="287.9297" y1="345.7676" y2="353.5676"/><line style="stroke:#181818;stroke-width:0.6;" x1="263.3297" x2="287.9297" y1="353.5676" y2="353.5676"/><polygon fill="#181818" points="269.3297,351.1676,263.3297,353.5676,269.3297,355.9676,266.9297,353.5676" style="stroke:#181818;stroke-width:0.6;"/><text fill="#000000" font-family="sans-serif" font-size="7.8" lengthAdjust="spacing" textLength="185.3757" x="266.9297" y="342.9223">10. Validate dimensions (AC01) and scale (AC03)</text><path d="M12,362.5676 L49.2832,362.5676 L49.2832,366.9539 L43.2832,372.9539 L12,372.9539 L12,362.5676 " fill="#EEEEEE" style="stroke:#000000;stroke-width:0.8999999999999999;"/><rect fill="none" height="89.7047" style="stroke:#000000;stroke-width:0.8999999999999999;" width="285.1538" x="12" y="362.5676"/><text fill="#000000" font-family="sans-serif" font-size="7.8" font-weight="bold" lengthAdjust="spacing" textLength="10.2832" x="21" y="370.7086">alt</text><text fill="#000000" font-family="sans-serif" font-size="6.6" font-weight="bold" lengthAdjust="spacing" textLength="69.3322" x="58.2832" y="370.1484">[Invalid dimensions]</text><polygon fill="#181818" points="41.4032,383.3402,35.4032,385.7402,41.4032,388.1402,39.0032,385.7402" style="stroke:#181818;stroke-width:0.6;"/><line style="stroke:#181818;stroke-width:0.6;stroke-dasharray:2.0,2.0;" x1="37.8032" x2="259.1297" y1="385.7402" y2="385.7402"/><text fill="#000000" font-family="sans-serif" font-size="7.8" lengthAdjust="spacing" textLength="207.5265" x="45.0032" y="382.8949">10.1 Show error: dimensions must be positive integers</text><polygon fill="#181818" points="249.5297,400.9266,255.5297,403.3266,249.5297,405.7266,251.9297,403.3266" style="stroke:#181818;stroke-width:0.6;"/><line style="stroke:#181818;stroke-width:0.6;" x1="34.8032" x2="253.1297" y1="403.3266" y2="403.3266"/><text fill="#000000" font-family="sans-serif" font-size="7.8" lengthAdjust="spacing" textLength="136.9761" x="39.0032" y="400.4813">10.2 Re-enter dimensions and scale</text><line style="stroke:#000000;stroke-width:0.6;stroke-dasharray:2.0,2.0;" x1="12" x2="297.1538" y1="408.7266" y2="408.7266"/><text fill="#000000" font-family="sans-serif" font-size="6.6" font-weight="bold" lengthAdjust="spacing" textLength="47.1894" x="15" y="415.1074">[Invalid scale]</text><polygon fill="#181818" points="41.4032,427.4859,35.4032,429.8859,41.4032,432.2859,39.0032,429.8859" style="stroke:#181818;stroke-width:0.6;"/><line style="stroke:#181818;stroke-width:0.6;stroke-dasharray:2.0,2.0;" x1="37.8032" x2="259.1297" y1="429.8859" y2="429.8859"/><text fill="#000000" font-family="sans-serif" font-size="7.8" lengthAdjust="spacing" textLength="173.0892" x="45.0032" y="427.0406">10.3 Show error: scale must be positive (kms)</text><polygon fill="#181818" points="249.5297,445.0723,255.5297,447.4723,249.5297,449.8723,251.9297,447.4723" style="stroke:#181818;stroke-width:0.6;"/><line style="stroke:#181818;stroke-width:0.6;" x1="34.8032" x2="253.1297" y1="447.4723" y2="447.4723"/><text fill="#000000" font-family="sans-serif" font-size="7.8" lengthAdjust="spacing" textLength="136.9761" x="39.0032" y="444.627">10.4 Re-enter dimensions and scale</text><polygon fill="#181818" points="585.0996,466.8586,591.0996,469.2586,585.0996,471.6586,587.4996,469.2586" style="stroke:#181818;stroke-width:0.6;"/><line style="stroke:#181818;stroke-width:0.6;" x1="262.7297" x2="588.6996" y1="469.2586" y2="469.2586"/><text fill="#000000" font-family="sans-serif" font-size="7.8" lengthAdjust="spacing" textLength="318.1699" x="266.9297" y="466.4133">11. createMap(name, width, height, scale) ou createMapDefault(width, height, scale)</text><line style="stroke:#181818;stroke-width:0.6;" x1="598.2996" x2="623.4996" y1="486.8449" y2="486.8449"/><line style="stroke:#181818;stroke-width:0.6;" x1="623.4996" x2="623.4996" y1="486.8449" y2="494.6449"/><line style="stroke:#181818;stroke-width:0.6;" x1="598.8996" x2="623.4996" y1="494.6449" y2="494.6449"/><polygon fill="#181818" points="604.8996,492.2449,598.8996,494.6449,604.8996,497.0449,602.4996,494.6449" style="stroke:#181818;stroke-width:0.6;"/><text fill="#000000" font-family="sans-serif" font-size="7.8" lengthAdjust="spacing" textLength="178.4021" x="602.4996" y="483.9996">12. Validate inputs (name, width, height, scale)</text><polygon fill="#181818" points="912.1729,509.8312,918.1729,512.2312,912.1729,514.6313,914.5729,512.2312" style="stroke:#181818;stroke-width:0.6;"/><line style="stroke:#181818;stroke-width:0.6;" x1="598.2996" x2="915.7729" y1="512.2312" y2="512.2312"/><text fill="#000000" font-family="sans-serif" font-size="7.8" lengthAdjust="spacing" textLength="63.4702" x="602.4996" y="509.3859">13. getInstance()</text><polygon fill="#181818" points="604.8996,527.4176,598.8996,529.8176,604.8996,532.2176,602.4996,529.8176" style="stroke:#181818;stroke-width:0.6;"/><line style="stroke:#181818;stroke-width:0.6;stroke-dasharray:2.0,2.0;" x1="601.2996" x2="921.7729" y1="529.8176" y2="529.8176"/><text fill="#000000" font-family="sans-serif" font-size="7.8" lengthAdjust="spacing" textLength="95.4319" x="608.4996" y="526.9723">14. Repositories instance</text><polygon fill="#181818" points="912.1729,545.0039,918.1729,547.4039,912.1729,549.8039,914.5729,547.4039" style="stroke:#181818;stroke-width:0.6;"/><line style="stroke:#181818;stroke-width:0.6;" x1="598.2996" x2="915.7729" y1="547.4039" y2="547.4039"/><text fill="#000000" font-family="sans-serif" font-size="7.8" lengthAdjust="spacing" textLength="88.1194" x="602.4996" y="544.5586">15. getMapRepository()</text><polygon fill="#181818" points="604.8996,562.5902,598.8996,564.9902,604.8996,567.3902,602.4996,564.9902" style="stroke:#181818;stroke-width:0.6;"/><line style="stroke:#181818;stroke-width:0.6;stroke-dasharray:2.0,2.0;" x1="601.2996" x2="921.7729" y1="564.9902" y2="564.9902"/><text fill="#000000" font-family="sans-serif" font-size="7.8" lengthAdjust="spacing" textLength="104.8658" x="608.4996" y="562.1449">16. MapRepository instance</text><polygon fill="#181818" points="962.5928,580.1766,968.5928,582.5766,962.5928,584.9766,964.9928,582.5766" style="stroke:#181818;stroke-width:0.6;"/><line style="stroke:#181818;stroke-width:0.6;" x1="598.2996" x2="966.1928" y1="582.5766" y2="582.5766"/><text fill="#000000" font-family="sans-serif" font-size="7.8" lengthAdjust="spacing" textLength="102.7406" x="602.4996" y="579.7312">17. new Size(width, height)</text><polygon fill="#181818" points="604.8996,597.7629,598.8996,600.1629,604.8996,602.5629,602.4996,600.1629" style="stroke:#181818;stroke-width:0.6;"/><line style="stroke:#181818;stroke-width:0.6;stroke-dasharray:2.0,2.0;" x1="601.2996" x2="972.1928" y1="600.1629" y2="600.1629"/><text fill="#000000" font-family="sans-serif" font-size="7.8" lengthAdjust="spacing" textLength="64.0187" x="608.4996" y="597.3176">18. Size instance</text><polygon fill="#181818" points="783.9018,615.3492,789.9018,617.7492,783.9018,620.1492,786.3018,617.7492" style="stroke:#181818;stroke-width:0.6;"/><line style="stroke:#181818;stroke-width:0.6;" x1="598.2996" x2="787.5018" y1="617.7492" y2="617.7492"/><text fill="#000000" font-family="sans-serif" font-size="7.8" lengthAdjust="spacing" textLength="118.0474" x="602.4996" y="614.9039">19. new Map(name, size, scale)</text><polygon fill="#181818" points="604.8996,632.9355,598.8996,635.3355,604.8996,637.7355,602.4996,635.3355" style="stroke:#181818;stroke-width:0.6;"/><line style="stroke:#181818;stroke-width:0.6;stroke-dasharray:2.0,2.0;" x1="601.2996" x2="793.5018" y1="635.3355" y2="635.3355"/><text fill="#000000" font-family="sans-serif" font-size="7.8" lengthAdjust="spacing" textLength="64.6813" x="608.4996" y="632.4902">20. Map instance</text><polygon fill="#181818" points="839.7583,650.5219,845.7583,652.9219,839.7583,655.3219,842.1583,652.9219" style="stroke:#181818;stroke-width:0.6;"/><line style="stroke:#181818;stroke-width:0.6;" x1="598.2996" x2="843.3583" y1="652.9219" y2="652.9219"/><text fill="#000000" font-family="sans-serif" font-size="7.8" lengthAdjust="spacing" textLength="66.4333" x="602.4996" y="650.0766">21. addMap(map)</text><polygon fill="#181818" points="604.8996,668.1082,598.8996,670.5082,604.8996,672.9082,602.4996,670.5082" style="stroke:#181818;stroke-width:0.6;"/><line style="stroke:#181818;stroke-width:0.6;stroke-dasharray:2.0,2.0;" x1="601.2996" x2="849.3583" y1="670.5082" y2="670.5082"/><text fill="#000000" font-family="sans-serif" font-size="7.8" lengthAdjust="spacing" textLength="64.5366" x="608.4996" y="667.6629">22. Confirmation</text><polygon fill="#181818" points="269.3297,685.6945,263.3297,688.0945,269.3297,690.4945,266.9297,688.0945" style="stroke:#181818;stroke-width:0.6;"/><line style="stroke:#181818;stroke-width:0.6;stroke-dasharray:2.0,2.0;" x1="265.7297" x2="594.6996" y1="688.0945" y2="688.0945"/><text fill="#000000" font-family="sans-serif" font-size="7.8" lengthAdjust="spacing" textLength="61.2155" x="272.9297" y="685.2492">23. Map created</text><polygon fill="#181818" points="38.4032,703.2809,32.4032,705.6809,38.4032,708.0809,36.0032,705.6809" style="stroke:#181818;stroke-width:0.6;"/><line style="stroke:#181818;stroke-width:0.6;stroke-dasharray:2.0,2.0;" x1="34.8032" x2="259.1297" y1="705.6809" y2="705.6809"/><text fill="#000000" font-family="sans-serif" font-size="7.8" lengthAdjust="spacing" textLength="109.558" x="42.0032" y="702.8355">24. Display success message</text><!--SRC=[fLPDRzim3BtxLn0z9K1ZvAFjrXmA36aFEGmO6dHtrMOIORRiINA2xjUFafrPIYHZomeKZYNowP5-5CaoNKbuoJazaff9pJDUCw7XPhcIo3H-PVNR-WQO0kSzPhcgX9PLKQ3qFVhrCq_QivRqlDnvnRfIXjZ7oQPVERF-iy5HMMDtuSnsmt-XjJ4_aaHpNU0IDlYpGP4XF7Esawo42RnjfZDwj540ioGJbcb-CEzTpfBs2PCdDq6mX5aAhuquUTCgLBNcbUWHt8GchlE4m3hO9SnJegJgWds0O2LsA0fA54sIOn0jnccHKfm5Pjg52XDYXOONeL52rYXTbTOZ0VgBChrBuPkiobh3bjvBYjYUCZfolOS3AtZEp7aWcmBLs695-9kjM0ptQSVhT82rZi9uRC-n7bButlB2bYiHBvc6qPVLTDuoD7bO2yk-Fsqm3G_f33RxwWWePIMNm3llBI_GXnY8VYW33-cSz3r1cmKFC0g78a-mK0Xlz9_ZbZM5ZdpHyzC-6Sretyd0nHNxsTD1pacfoagMYHnKnWhyLzq-dhxvaUTwVmjxvBkzlkt0Wb23CSscpeTt29hlFXltFEt2Ofou8kZDXwk1pl1ru9nJKad1EuAze_W1IICQToZLjKL1XpcQ2AOygW-hYrDqlUrGO0ili3PL5p6DVfJNLpaTSdTrG1VgV0gr8dCANTBPQMTaf7qRbDWOggOtV6vBOHIq3AZHwNv9Y4UStjoHAHTreqcY0onZw6upDB3K1dQerq9fHXrlv73ssgRdDecpf7lVC-KTi5lb7l3VyhotFBs-_zzawSht0AzdQyO7WqWNfC2ZVVKbuL2reuPr6A16zwOr2J6o014YPhOWzyUMHwzaHJwNiZHJZF684vbFROw2FEmC5EVXv9LmgBfOdXj2rAjz2iuavxiDqA9ge8KjDotQp2q-BGSnJF3YZfalsZZRmiw3JIbOknSZsbq_ewacor2PyKmfjejsEdUznVaD]--></g></svg>