<svg xmlns="http://www.w3.org/2000/svg" xmlns:xlink="http://www.w3.org/1999/xlink" contentStyleType="text/css" height="1160px" preserveAspectRatio="none" style="width:815px;height:1160px;background:#FFFFFF;" version="1.1" viewBox="0 0 815 1160" width="815px" zoomAndPan="magnify"><title>Class Diagram - US01: Create a Map</title><defs/><g><text fill="#000000" font-family="sans-serif" font-size="14" font-weight="bold" lengthAdjust="spacing" textLength="261.8369" x="269.6738" y="23.5352">Class Diagram - US01: Create a Map</text><!--class CreateMapUI--><g id="elem_CreateMapUI"><rect codeLine="8" fill="#F1F1F1" height="196.3945" id="CreateMapUI" rx="2.5" ry="2.5" style="stroke:#181818;stroke-width:0.5;" width="333.8018" x="91.13" y="44.4883"/><ellipse cx="210.6222" cy="60.4883" fill="#ADD1B2" rx="11" ry="11" style="stroke:#181818;stroke-width:1.0;"/><path d="M213.5953,66.1313 Q213.0143,66.4302 212.3751,66.5796 Q211.736,66.729 211.0304,66.729 Q208.5236,66.729 207.2037,65.0771 Q205.8839,63.4253 205.8839,60.3042 Q205.8839,57.1748 207.2037,55.5229 Q208.5236,53.8711 211.0304,53.8711 Q211.736,53.8711 212.3834,54.0205 Q213.0309,54.1699 213.5953,54.4688 L213.5953,57.1914 Q212.9645,56.6104 212.371,56.3406 Q211.7775,56.0708 211.1466,56.0708 Q209.8019,56.0708 209.1171,57.1375 Q208.4322,58.2041 208.4322,60.3042 Q208.4322,62.396 209.1171,63.4626 Q209.8019,64.5293 211.1466,64.5293 Q211.7775,64.5293 212.371,64.2595 Q212.9645,63.9897 213.5953,63.4087 Z " fill="#000000"/><text fill="#000000" font-family="sans-serif" font-size="14" lengthAdjust="spacing" textLength="86.3174" x="231.1222" y="65.7793">CreateMapUI</text><line style="stroke:#181818;stroke-width:0.5;" x1="92.13" x2="423.9318" y1="76.4883" y2="76.4883"/><text fill="#000000" font-family="sans-serif" font-size="14" lengthAdjust="spacing" textLength="223.3506" x="97.13" y="94.0234">-controller: CreateMapController</text><text fill="#000000" font-family="sans-serif" font-size="14" lengthAdjust="spacing" textLength="122.8213" x="97.13" y="110.5117">-nameMap: String</text><text fill="#000000" font-family="sans-serif" font-size="14" lengthAdjust="spacing" textLength="186.2451" x="97.13" y="127">-defaultNameMap: boolean</text><line style="stroke:#181818;stroke-width:0.5;" x1="92.13" x2="423.9318" y1="133.9531" y2="133.9531"/><text fill="#000000" font-family="sans-serif" font-size="14" lengthAdjust="spacing" textLength="321.8018" x="97.13" y="151.4883">+CreateMapUI(controller: CreateMapController)</text><text fill="#000000" font-family="sans-serif" font-size="14" lengthAdjust="spacing" textLength="80.9033" x="97.13" y="167.9766">+run(): void</text><text fill="#000000" font-family="sans-serif" font-size="14" lengthAdjust="spacing" textLength="141.3125" x="97.13" y="184.4648">-aNameMap(): String</text><text fill="#000000" font-family="sans-serif" font-size="14" lengthAdjust="spacing" textLength="232.2783" x="97.13" y="200.9531">-enterDefaultNameMap(): boolean</text><text fill="#000000" font-family="sans-serif" font-size="14" lengthAdjust="spacing" textLength="241.4795" x="97.13" y="217.4414">+showMapCreated(map: Map): void</text><text fill="#000000" font-family="sans-serif" font-size="14" lengthAdjust="spacing" textLength="22.3945" x="97.13" y="233.9297">...()</text></g><!--class CreateMapController--><g id="elem_CreateMapController"><rect codeLine="20" fill="#F1F1F1" height="163.418" id="CreateMapController" rx="2.5" ry="2.5" style="stroke:#181818;stroke-width:0.5;" width="502.0615" x="7" y="317.8783"/><ellipse cx="183.4082" cy="333.8783" fill="#ADD1B2" rx="11" ry="11" style="stroke:#181818;stroke-width:1.0;"/><path d="M186.3813,339.5213 Q185.8003,339.8202 185.1611,339.9696 Q184.522,340.119 183.8164,340.119 Q181.3096,340.119 179.9897,338.4671 Q178.6699,336.8153 178.6699,333.6942 Q178.6699,330.5648 179.9897,328.9129 Q181.3096,327.2611 183.8164,327.2611 Q184.522,327.2611 185.1694,327.4105 Q185.8169,327.5599 186.3813,327.8587 L186.3813,330.5814 Q185.7505,330.0004 185.157,329.7306 Q184.5635,329.4608 183.9326,329.4608 Q182.5879,329.4608 181.9031,330.5275 Q181.2183,331.5941 181.2183,333.6942 Q181.2183,335.786 181.9031,336.8526 Q182.5879,337.9193 183.9326,337.9193 Q184.5635,337.9193 185.157,337.6495 Q185.7505,337.3797 186.3813,336.7987 Z " fill="#000000"/><text fill="#000000" font-family="sans-serif" font-size="14" lengthAdjust="spacing" textLength="140.7451" x="203.9082" y="339.1693">CreateMapController</text><line style="stroke:#181818;stroke-width:0.5;" x1="8" x2="508.0615" y1="349.8783" y2="349.8783"/><text fill="#000000" font-family="sans-serif" font-size="14" lengthAdjust="spacing" textLength="219.4268" x="13" y="367.4134">-mapRepository: MapRepository</text><text fill="#000000" font-family="sans-serif" font-size="14" lengthAdjust="spacing" textLength="75.1748" x="13" y="383.9017">-map: Map</text><line style="stroke:#181818;stroke-width:0.5;" x1="8" x2="508.0615" y1="390.8548" y2="390.8548"/><text fill="#000000" font-family="sans-serif" font-size="14" lengthAdjust="spacing" textLength="372.3057" x="13" y="408.39">+CreateMapController(mapRepository: MapRepository)</text><text fill="#000000" font-family="sans-serif" font-size="14" lengthAdjust="spacing" textLength="490.0615" x="13" y="424.8783">+createMap(name: String, width: int, height: int, scale: double): boolean</text><text fill="#000000" font-family="sans-serif" font-size="14" lengthAdjust="spacing" textLength="444.2197" x="13" y="441.3666">+createMapDefault(width: int, height: int, scale: double): boolean</text><text fill="#000000" font-family="sans-serif" font-size="14" lengthAdjust="spacing" textLength="160.8564" x="13" y="457.8548">+getMapCreated(): Map</text><text fill="#000000" font-family="sans-serif" font-size="14" lengthAdjust="spacing" textLength="22.3945" x="13" y="474.3431">...()</text></g><!--class MapRepository--><g id="elem_MapRepository"><rect codeLine="30" fill="#F1F1F1" height="146.9297" id="MapRepository" rx="2.5" ry="2.5" style="stroke:#181818;stroke-width:0.5;" width="288.9785" x="339.54" y="558.2983"/><ellipse cx="429.4155" cy="574.2983" fill="#ADD1B2" rx="11" ry="11" style="stroke:#181818;stroke-width:1.0;"/><path d="M432.3886,579.9413 Q431.8076,580.2402 431.1684,580.3896 Q430.5293,580.539 429.8237,580.539 Q427.3169,580.539 425.997,578.8871 Q424.6772,577.2353 424.6772,574.1142 Q424.6772,570.9848 425.997,569.3329 Q427.3169,567.6811 429.8237,567.6811 Q430.5293,567.6811 431.1767,567.8305 Q431.8242,567.9799 432.3886,568.2788 L432.3886,571.0014 Q431.7578,570.4204 431.1643,570.1506 Q430.5708,569.8808 429.9399,569.8808 Q428.5952,569.8808 427.9104,570.9475 Q427.2255,572.0141 427.2255,574.1142 Q427.2255,576.206 427.9104,577.2726 Q428.5952,578.3393 429.9399,578.3393 Q430.5708,578.3393 431.1643,578.0695 Q431.7578,577.7997 432.3886,577.2187 Z " fill="#000000"/><text fill="#000000" font-family="sans-serif" font-size="14" lengthAdjust="spacing" textLength="100.7275" x="449.9155" y="579.5893">MapRepository</text><line style="stroke:#181818;stroke-width:0.5;" x1="340.54" x2="627.5185" y1="590.2983" y2="590.2983"/><text fill="#000000" font-family="sans-serif" font-size="14" lengthAdjust="spacing" textLength="128.4541" x="345.54" y="607.8334">-maps: List&lt;Map&gt;</text><line style="stroke:#181818;stroke-width:0.5;" x1="340.54" x2="627.5185" y1="614.7866" y2="614.7866"/><text fill="#000000" font-family="sans-serif" font-size="14" lengthAdjust="spacing" textLength="204.4014" x="345.54" y="632.3217">+addMap(map: Map): boolean</text><text fill="#000000" font-family="sans-serif" font-size="14" lengthAdjust="spacing" textLength="248.4932" x="345.54" y="648.81">+getMapByName(name: String): Map</text><text fill="#000000" font-family="sans-serif" font-size="14" lengthAdjust="spacing" textLength="179.0947" x="345.54" y="665.2983">+getAllMaps(): List&lt;Map&gt;</text><text fill="#000000" font-family="sans-serif" font-size="14" lengthAdjust="spacing" textLength="276.9785" x="345.54" y="681.7866">+existsMapName(name: String): boolean</text><text fill="#000000" font-family="sans-serif" font-size="14" lengthAdjust="spacing" textLength="22.3945" x="345.54" y="698.2748">...()</text></g><!--class Map--><g id="elem_Map"><rect codeLine="39" fill="#F1F1F1" height="179.9063" id="Map" rx="2.5" ry="2.5" style="stroke:#181818;stroke-width:0.5;" width="317.457" x="128.3" y="782.2283"/><ellipse cx="268.4777" cy="798.2283" fill="#ADD1B2" rx="11" ry="11" style="stroke:#181818;stroke-width:1.0;"/><path d="M271.4509,803.8713 Q270.8698,804.1702 270.2307,804.3196 Q269.5915,804.469 268.8859,804.469 Q266.3791,804.469 265.0593,802.8171 Q263.7395,801.1653 263.7395,798.0442 Q263.7395,794.9148 265.0593,793.2629 Q266.3791,791.6111 268.8859,791.6111 Q269.5915,791.6111 270.239,791.7605 Q270.8864,791.9099 271.4509,792.2087 L271.4509,794.9314 Q270.82,794.3504 270.2265,794.0806 Q269.633,793.8108 269.0021,793.8108 Q267.6574,793.8108 266.9726,794.8775 Q266.2878,795.9441 266.2878,798.0442 Q266.2878,800.136 266.9726,801.2026 Q267.6574,802.2693 269.0021,802.2693 Q269.633,802.2693 270.2265,801.9995 Q270.82,801.7297 271.4509,801.1487 Z " fill="#000000"/><text fill="#000000" font-family="sans-serif" font-size="14" lengthAdjust="spacing" textLength="28.6016" x="288.9777" y="803.5193">Map</text><line style="stroke:#181818;stroke-width:0.5;" x1="129.3" x2="444.757" y1="814.2283" y2="814.2283"/><text fill="#000000" font-family="sans-serif" font-size="14" lengthAdjust="spacing" textLength="94.2197" x="134.3" y="831.7634">-name: String</text><text fill="#000000" font-family="sans-serif" font-size="14" lengthAdjust="spacing" textLength="71.3809" x="134.3" y="848.2517">-size: Size</text><text fill="#000000" font-family="sans-serif" font-size="14" lengthAdjust="spacing" textLength="97.6035" x="134.3" y="864.74">-scale: double</text><line style="stroke:#181818;stroke-width:0.5;" x1="129.3" x2="444.757" y1="871.6931" y2="871.6931"/><text fill="#000000" font-family="sans-serif" font-size="14" lengthAdjust="spacing" textLength="305.457" x="134.3" y="889.2283">+Map(name: String, size: Size, scale: double)</text><text fill="#000000" font-family="sans-serif" font-size="14" lengthAdjust="spacing" textLength="129.7734" x="134.3" y="905.7166">+getName(): String</text><text fill="#000000" font-family="sans-serif" font-size="14" lengthAdjust="spacing" textLength="105.6836" x="134.3" y="922.2048">+getSize(): Size</text><text fill="#000000" font-family="sans-serif" font-size="14" lengthAdjust="spacing" textLength="131.9063" x="134.3" y="938.6931">+getScale(): double</text><text fill="#000000" font-family="sans-serif" font-size="14" lengthAdjust="spacing" textLength="22.3945" x="134.3" y="955.1814">...()</text></g><!--class Size--><g id="elem_Size"><rect codeLine="50" fill="#F1F1F1" height="113.9531" id="Size" rx="2.5" ry="2.5" style="stroke:#181818;stroke-width:0.5;" width="202.9277" x="185.57" y="1039.1383"/><ellipse cx="269.0778" cy="1055.1383" fill="#ADD1B2" rx="11" ry="11" style="stroke:#181818;stroke-width:1.0;"/><path d="M272.051,1060.7813 Q271.4699,1061.0802 270.8307,1061.2296 Q270.1916,1061.379 269.486,1061.379 Q266.9792,1061.379 265.6594,1059.7271 Q264.3395,1058.0753 264.3395,1054.9542 Q264.3395,1051.8248 265.6594,1050.1729 Q266.9792,1048.5211 269.486,1048.5211 Q270.1916,1048.5211 270.839,1048.6705 Q271.4865,1048.8199 272.051,1049.1187 L272.051,1051.8414 Q271.4201,1051.2604 270.8266,1050.9906 Q270.2331,1050.7208 269.6022,1050.7208 Q268.2575,1050.7208 267.5727,1051.7875 Q266.8879,1052.8541 266.8879,1054.9542 Q266.8879,1057.046 267.5727,1058.1126 Q268.2575,1059.1793 269.6022,1059.1793 Q270.2331,1059.1793 270.8266,1058.9095 Q271.4201,1058.6397 272.051,1058.0587 Z " fill="#000000"/><text fill="#000000" font-family="sans-serif" font-size="14" lengthAdjust="spacing" textLength="27.4121" x="289.5778" y="1060.4293">Size</text><line style="stroke:#181818;stroke-width:0.5;" x1="186.57" x2="387.4977" y1="1071.1383" y2="1071.1383"/><line style="stroke:#181818;stroke-width:0.5;" x1="186.57" x2="387.4977" y1="1079.1383" y2="1079.1383"/><text fill="#000000" font-family="sans-serif" font-size="14" lengthAdjust="spacing" textLength="190.9277" x="191.57" y="1096.6734">+Size(width: int, height: int)</text><text fill="#000000" font-family="sans-serif" font-size="14" lengthAdjust="spacing" textLength="107.5908" x="191.57" y="1113.1617">+getWidth(): int</text><text fill="#000000" font-family="sans-serif" font-size="14" lengthAdjust="spacing" textLength="113.6201" x="191.57" y="1129.65">+getHeight(): int</text><text fill="#000000" font-family="sans-serif" font-size="14" lengthAdjust="spacing" textLength="22.3945" x="191.57" y="1146.1383">...()</text></g><!--class Position--><g id="elem_Position"><rect codeLine="57" fill="#F1F1F1" height="146.9297" id="Position" rx="2.5" ry="2.5" style="stroke:#181818;stroke-width:0.5;" width="311.7969" x="460.13" y="69.2183"/><ellipse cx="584.7321" cy="85.2183" fill="#ADD1B2" rx="11" ry="11" style="stroke:#181818;stroke-width:1.0;"/><path d="M587.7052,90.8613 Q587.1241,91.1602 586.485,91.3096 Q585.8458,91.459 585.1403,91.459 Q582.6334,91.459 581.3136,89.8071 Q579.9938,88.1553 579.9938,85.0342 Q579.9938,81.9048 581.3136,80.2529 Q582.6334,78.6011 585.1403,78.6011 Q585.8458,78.6011 586.4933,78.7505 Q587.1407,78.8999 587.7052,79.1988 L587.7052,81.9214 Q587.0743,81.3404 586.4808,81.0706 Q585.8873,80.8008 585.2565,80.8008 Q583.9117,80.8008 583.2269,81.8675 Q582.5421,82.9341 582.5421,85.0342 Q582.5421,87.126 583.2269,88.1926 Q583.9117,89.2593 585.2565,89.2593 Q585.8873,89.2593 586.4808,88.9895 Q587.0743,88.7197 587.7052,88.1387 Z " fill="#000000"/><text fill="#000000" font-family="sans-serif" font-size="14" lengthAdjust="spacing" textLength="54.0928" x="605.2321" y="90.5093">Position</text><line style="stroke:#181818;stroke-width:0.5;" x1="461.13" x2="770.9269" y1="101.2183" y2="101.2183"/><line style="stroke:#181818;stroke-width:0.5;" x1="461.13" x2="770.9269" y1="109.2183" y2="109.2183"/><text fill="#000000" font-family="sans-serif" font-size="14" lengthAdjust="spacing" textLength="152.749" x="466.13" y="126.7534">+Position(x: int, y: int)</text><text fill="#000000" font-family="sans-serif" font-size="14" lengthAdjust="spacing" textLength="77.5947" x="466.13" y="143.2417">+getX(): int</text><text fill="#000000" font-family="sans-serif" font-size="14" lengthAdjust="spacing" textLength="77.5537" x="466.13" y="159.73">+getY(): int</text><text fill="#000000" font-family="sans-serif" font-size="14" lengthAdjust="spacing" textLength="299.7969" x="466.13" y="176.2183">+equalsPosition(position: Position): boolean</text><text fill="#000000" font-family="sans-serif" font-size="14" lengthAdjust="spacing" textLength="122.8691" x="466.13" y="192.7066">+toString(): String</text><text fill="#000000" font-family="sans-serif" font-size="14" lengthAdjust="spacing" textLength="22.3945" x="466.13" y="209.1948">...()</text></g><!--class Repositories--><g id="elem_Repositories"><rect codeLine="66" fill="#F1F1F1" height="113.9531" id="Repositories" rx="2.5" ry="2.5" style="stroke:#181818;stroke-width:0.5;" width="264.3145" x="543.87" y="342.6183"/><ellipse cx="629.8798" cy="358.6183" fill="#ADD1B2" rx="11" ry="11" style="stroke:#181818;stroke-width:1.0;"/><path d="M632.8529,364.2613 Q632.2719,364.5602 631.6327,364.7096 Q630.9935,364.859 630.288,364.859 Q627.7811,364.859 626.4613,363.2071 Q625.1415,361.5553 625.1415,358.4342 Q625.1415,355.3048 626.4613,353.6529 Q627.7811,352.0011 630.288,352.0011 Q630.9935,352.0011 631.641,352.1505 Q632.2885,352.2999 632.8529,352.5987 L632.8529,355.3214 Q632.2221,354.7404 631.6285,354.4706 Q631.035,354.2008 630.4042,354.2008 Q629.0595,354.2008 628.3746,355.2675 Q627.6898,356.3341 627.6898,358.4342 Q627.6898,360.526 628.3746,361.5926 Q629.0595,362.6593 630.4042,362.6593 Q631.035,362.6593 631.6285,362.3895 Q632.2221,362.1197 632.8529,361.5387 Z " fill="#000000"/><text fill="#000000" font-family="sans-serif" font-size="14" lengthAdjust="spacing" textLength="83.7949" x="650.3798" y="363.9093">Repositories</text><line style="stroke:#181818;stroke-width:0.5;" x1="544.87" x2="807.1845" y1="374.6183" y2="374.6183"/><text fill="#000000" font-family="sans-serif" font-size="14" lengthAdjust="spacing" textLength="219.4268" x="549.87" y="392.1534">-mapRepository: MapRepository</text><line style="stroke:#181818;stroke-width:0.5;" x1="544.87" x2="807.1845" y1="399.1066" y2="399.1066"/><text fill="#000000" font-family="sans-serif" font-size="14" lengthAdjust="spacing" text-decoration="underline" textLength="191.1396" x="549.87" y="416.6417">+getInstance(): Repositories</text><text fill="#000000" font-family="sans-serif" font-size="14" lengthAdjust="spacing" textLength="252.3145" x="549.87" y="433.13">+getMapRepository(): MapRepository</text><text fill="#000000" font-family="sans-serif" font-size="14" lengthAdjust="spacing" textLength="22.3945" x="549.87" y="449.6183">...()</text></g><!--link CreateMapUI to CreateMapController--><g id="link_CreateMapUI_CreateMapController"><path codeLine="73" d="M258.03,241.1483 C258.03,266.4383 258.03,287.4183 258.03,311.7483 " fill="none" id="CreateMapUI-to-CreateMapController" style="stroke:#181818;stroke-width:1.0;"/><polygon fill="#181818" points="258.03,317.7483,262.03,308.7483,258.03,312.7483,254.03,308.7483,258.03,317.7483" style="stroke:#181818;stroke-width:1.0;"/><text fill="#000000" font-family="sans-serif" font-size="13" lengthAdjust="spacing" textLength="28.5645" x="259.03" y="284.4466">uses</text></g><!--link CreateMapController to MapRepository--><g id="link_CreateMapController_MapRepository"><path codeLine="74" d="M337.71,481.7383 C362.11,506.5883 384.5873,529.4761 408.3973,553.7361 " fill="none" id="CreateMapController-to-MapRepository" style="stroke:#181818;stroke-width:1.0;"/><polygon fill="#181818" points="412.6,558.0183,409.1507,548.7932,409.0977,554.4498,403.4411,554.3969,412.6,558.0183" style="stroke:#181818;stroke-width:1.0;"/><text fill="#000000" font-family="sans-serif" font-size="13" lengthAdjust="spacing" textLength="28.5645" x="378.81" y="524.8666">uses</text></g><!--link CreateMapController to Map--><g id="link_CreateMapController_Map"><path codeLine="75" d="M262.54,481.4283 C267.58,571.6783 275.03,705.2283 275.03,705.2283 C275.03,705.2283 277.2973,736.6239 280.1373,775.9039 " fill="none" id="CreateMapController-to-Map" style="stroke:#181818;stroke-width:1.0;"/><polygon fill="#181818" points="280.57,781.8883,283.9106,772.6233,280.2094,776.9013,275.9314,773.2002,280.57,781.8883" style="stroke:#181818;stroke-width:1.0;"/><text fill="#000000" font-family="sans-serif" font-size="13" lengthAdjust="spacing" textLength="45.1318" x="276.03" y="636.8366">creates</text></g><!--link MapRepository to Map--><g id="link_MapRepository_Map"><path codeLine="76" d="M423.85,705.5883 C403.94,729.6983 385.3714,752.1626 364.5614,777.3526 " fill="none" id="MapRepository-to-Map" style="stroke:#181818;stroke-width:1.0;"/><polygon fill="#181818" points="360.74,781.9783,369.5559,777.5873,363.9245,778.1235,363.3883,772.4922,360.74,781.9783" style="stroke:#181818;stroke-width:1.0;"/><text fill="#000000" font-family="sans-serif" font-size="13" lengthAdjust="spacing" textLength="56.5386" x="398.33" y="748.7966">manages</text></g><!--link Map to Size--><g id="link_Map_Size"><path codeLine="77" d="M287.03,962.4883 C287.03,988.2683 287.03,1009.6583 287.03,1032.8283 " fill="none" id="Map-to-Size" style="stroke:#181818;stroke-width:1.0;"/><polygon fill="#181818" points="287.03,1038.8283,291.03,1029.8283,287.03,1033.8283,283.03,1029.8283,287.03,1038.8283" style="stroke:#181818;stroke-width:1.0;"/><text fill="#000000" font-family="sans-serif" font-size="13" lengthAdjust="spacing" textLength="21.874" x="288.03" y="1005.7066">has</text></g><!--link Repositories to MapRepository--><g id="link_Repositories_MapRepository"><path codeLine="78" d="M629.06,456.8983 C603.64,487.3783 575.7835,520.7609 548.5135,553.4509 " fill="none" id="Repositories-to-MapRepository" style="stroke:#181818;stroke-width:1.0;"/><polygon fill="#181818" points="544.67,558.0583,553.5068,553.7095,547.8729,554.2188,547.3636,548.5849,544.67,558.0583" style="stroke:#181818;stroke-width:1.0;"/><text fill="#000000" font-family="sans-serif" font-size="13" lengthAdjust="spacing" textLength="54.0249" x="581.03" y="524.8666">provides</text></g><!--SRC=[dLLDRzim3BtxL_3ee4tGNOsXG9SU6c0RXWN5jgDYixPGHV8ikQaNzB-FKcHRijDrQ0v1z4Y-HpvzH3zoMRE6xQ5c-IChSMiwWT1WRfWi1IPwID0LAzI1on8UcD1XH729fgiHQYKwkmXYkM1QtnZJy5rhS9ChkUL_4AwIn713IciRXrlEIfkzXFljrOSCrWqoWy3W2wkJn75uZ83x3HmJeCyIYCuqIWXiiZ6-7a2V9TdUuXbigGrPUhJ01zOAyxKFxfGIoAIBNeHgwHig2r_Ij39TPF2aUE4bc2UtSAIDqc1p6pLWS-8MTAKELiWf5kdUDadhK6ArMgMBv6LcqTZSO1MLVyTQQMvKqpcYSJcckC3KWf4j_HTBxqFUrwNM-7xoIpZmmbGPS6akeK9ULiOlTCu4vHMgtGcSsJ3GUR_IT_AKQ08t5-Ea4nEZcKBxT0QVkJOVAU7QSxAYi7C6MtDEyrDdzpXoOn4QJLatGj1QsxQc6lXCW2RW74aeDvzZw3wiyf2cQqWGVVT0w9xNdc_YM3RrUnp6DHeVUOVRAeVteYVKibWuK9wCufwCeoznBA-SWQ297pR3qX8yedSkDuGdKj_indCb1xaUI9-zN3TL-ZbJ-HKZ-Bkb5tCWglsFRE2UdHkZJjvDN9pqEXnJZlh_x_a57BLXXkSljjMDf8NCtGQ4VD417XdylPbG3ds5R_HoUNtsGSgWrSH_BcHBukltTZAbd5u8dSIbOtpF9FspkRX3tN7Ae68wYImy9rytweaNLFmN]--></g></svg>