<svg xmlns="http://www.w3.org/2000/svg" xmlns:xlink="http://www.w3.org/1999/xlink" contentStyleType="text/css" height="510.5px" preserveAspectRatio="none" style="width:452px;height:510px;background:#FFFFFF;" version="1.1" viewBox="0 0 452 510" width="452px" zoomAndPan="magnify"><title>Relevant Domain Model Excerpt - US07</title><defs/><g><text fill="#000000" font-family="sans-serif" font-size="7" font-weight="bold" lengthAdjust="spacing" textLength="130.3135" x="157.5205" y="12.5537">Relevant Domain Model Excerpt - US07</text><!--class Player--><g id="elem_Player"><rect codeLine="11" fill="#F1F1F1" height="36.9316" id="Player" rx="1.25" ry="1.25" style="stroke:#181818;stroke-width:0.25;" width="54.6309" x="157" y="23.3105"/><text fill="#000000" font-family="sans-serif" font-size="7" lengthAdjust="spacing" textLength="19.8413" x="174.3948" y="33.3643">Player</text><line style="stroke:#181818;stroke-width:0.25;" x1="157.5" x2="211.1309" y1="37.6211" y2="37.6211"/><text fill="#000000" font-family="sans-serif" font-size="7" lengthAdjust="spacing" textLength="48.6309" x="160" y="47.1748">username: Text</text><text fill="#000000" font-family="sans-serif" font-size="7" lengthAdjust="spacing" textLength="47.4619" x="160" y="56.4854">password: Text</text></g><!--class Simulator--><g id="elem_Simulator"><rect codeLine="16" fill="#F1F1F1" height="36.9316" id="Simulator" rx="1.25" ry="1.25" style="stroke:#181818;stroke-width:0.25;" width="84.979" x="192.75" y="99.8105"/><text fill="#000000" font-family="sans-serif" font-size="7" lengthAdjust="spacing" textLength="29.5654" x="220.4568" y="109.8643">Simulator</text><line style="stroke:#181818;stroke-width:0.25;" x1="193.25" x2="277.229" y1="114.1211" y2="114.1211"/><text fill="#000000" font-family="sans-serif" font-size="7" lengthAdjust="spacing" textLength="48.2549" x="195.75" y="123.6748">status: Boolean</text><text fill="#000000" font-family="sans-serif" font-size="7" lengthAdjust="spacing" textLength="78.979" x="195.75" y="132.9854">timeOfSimulation: Integer</text></g><!--class Map--><g id="elem_Map"><rect codeLine="21" fill="#F1F1F1" height="27.6211" id="Map" rx="1.25" ry="1.25" style="stroke:#181818;stroke-width:0.25;" width="41.0137" x="71.25" y="176.3105"/><text fill="#000000" font-family="sans-serif" font-size="7" lengthAdjust="spacing" textLength="13.6172" x="84.9482" y="186.3643">Map</text><line style="stroke:#181818;stroke-width:0.25;" x1="71.75" x2="111.7637" y1="190.6211" y2="190.6211"/><text fill="#000000" font-family="sans-serif" font-size="7" lengthAdjust="spacing" textLength="35.0137" x="74.25" y="200.1748">name: Text</text></g><!--class Station--><g id="elem_Station"><rect codeLine="25" fill="#F1F1F1" height="46.2422" id="Station" rx="1.25" ry="1.25" style="stroke:#181818;stroke-width:0.25;" width="90.8066" x="126.75" y="243.3105"/><text fill="#000000" font-family="sans-serif" font-size="7" lengthAdjust="spacing" textLength="21.793" x="161.2568" y="253.3643">Station</text><line style="stroke:#181818;stroke-width:0.25;" x1="127.25" x2="217.0566" y1="257.6211" y2="257.6211"/><text fill="#000000" font-family="sans-serif" font-size="7" lengthAdjust="spacing" textLength="35.0137" x="129.75" y="267.1748">name: Text</text><text fill="#000000" font-family="sans-serif" font-size="7" lengthAdjust="spacing" textLength="84.8066" x="129.75" y="276.4854">constructionCosts: Decimal</text><text fill="#000000" font-family="sans-serif" font-size="7" lengthAdjust="spacing" textLength="55.6377" x="129.75" y="285.7959">stationType: Type</text></g><!--class Position--><g id="elem_Position"><rect codeLine="31" fill="#F1F1F1" height="36.9316" id="Position" rx="1.25" ry="1.25" style="stroke:#181818;stroke-width:0.25;" width="60.479" x="3.5" y="338.0605"/><text fill="#000000" font-family="sans-serif" font-size="7" lengthAdjust="spacing" textLength="24.9033" x="21.2878" y="348.1143">Position</text><line style="stroke:#181818;stroke-width:0.25;" x1="4" x2="63.479" y1="352.3711" y2="352.3711"/><text fill="#000000" font-family="sans-serif" font-size="7" lengthAdjust="spacing" textLength="54.479" x="6.5" y="361.9248">Xposition: Integer</text><text fill="#000000" font-family="sans-serif" font-size="7" lengthAdjust="spacing" textLength="54.479" x="6.5" y="371.2354">Yposition: Integer</text></g><!--class Building--><g id="elem_Building"><rect codeLine="36" fill="#F1F1F1" height="55.5527" id="Building" rx="1.25" ry="1.25" style="stroke:#181818;stroke-width:0.25;" width="74.0996" x="333.25" y="328.8105"/><text fill="#000000" font-family="sans-serif" font-size="7" lengthAdjust="spacing" textLength="24.9067" x="357.8464" y="338.8643">Building</text><line style="stroke:#181818;stroke-width:0.25;" x1="333.75" x2="406.8496" y1="343.1211" y2="343.1211"/><text fill="#000000" font-family="sans-serif" font-size="7" lengthAdjust="spacing" textLength="35.0137" x="336.25" y="352.6748">name: Text</text><text fill="#000000" font-family="sans-serif" font-size="7" lengthAdjust="spacing" textLength="42.0103" x="336.25" y="361.9854">cost: Decimal</text><text fill="#000000" font-family="sans-serif" font-size="7" lengthAdjust="spacing" textLength="68.0996" x="336.25" y="371.2959">requiredLevel: Integer</text><text fill="#000000" font-family="sans-serif" font-size="7" lengthAdjust="spacing" textLength="59.1445" x="336.25" y="380.6064">buildingType: Type</text></g><!--class Size--><g id="elem_Size"><rect codeLine="43" fill="#F1F1F1" height="36.9316" id="Size" rx="1.25" ry="1.25" style="stroke:#181818;stroke-width:0.25;" width="50.7549" x="81.75" y="338.0605"/><text fill="#000000" font-family="sans-serif" font-size="7" lengthAdjust="spacing" textLength="13.6172" x="100.3188" y="348.1143">Size</text><line style="stroke:#181818;stroke-width:0.25;" x1="82.25" x2="132.0049" y1="352.3711" y2="352.3711"/><text fill="#000000" font-family="sans-serif" font-size="7" lengthAdjust="spacing" textLength="42.0239" x="84.75" y="361.9248">width: Integer</text><text fill="#000000" font-family="sans-serif" font-size="7" lengthAdjust="spacing" textLength="44.7549" x="84.75" y="371.2354">height: Integer</text></g><!--class Cargo--><g id="elem_Cargo"><rect codeLine="48" fill="#F1F1F1" height="27.6211" id="Cargo" rx="1.25" ry="1.25" style="stroke:#181818;stroke-width:0.25;" width="56.5757" x="220.5" y="342.8105"/><text fill="#000000" font-family="sans-serif" font-size="7" lengthAdjust="spacing" textLength="19.0654" x="239.2551" y="352.8643">Cargo</text><line style="stroke:#181818;stroke-width:0.25;" x1="221" x2="276.5757" y1="357.1211" y2="357.1211"/><text fill="#000000" font-family="sans-serif" font-size="7" lengthAdjust="spacing" textLength="50.5757" x="223.5" y="366.6748">cargoType: Text</text></g><!--class StationType--><g id="elem_StationType"><rect codeLine="52" fill="#F1F1F1" height="46.2422" id="StationType" rx="1.25" ry="1.25" style="stroke:#181818;stroke-width:0.25;" width="40.355" x="150.5" y="333.5605"/><text fill="#000000" font-family="sans-serif" font-size="7" font-style="italic" lengthAdjust="spacing" textLength="37.355" x="152" y="343.6143">StationType</text><line style="stroke:#181818;stroke-width:0.25;" x1="151" x2="190.355" y1="347.8711" y2="347.8711"/><text fill="#000000" font-family="sans-serif" font-size="7" lengthAdjust="spacing" textLength="22.1792" x="153.5" y="357.4248">Depots</text><text fill="#000000" font-family="sans-serif" font-size="7" lengthAdjust="spacing" textLength="25.293" x="153.5" y="366.7354">Stations</text><text fill="#000000" font-family="sans-serif" font-size="7" lengthAdjust="spacing" textLength="30.7275" x="153.5" y="376.0459">Terminals</text></g><!--class BuildingType--><g id="elem_BuildingType"><rect codeLine="58" fill="#F1F1F1" height="83.4844" id="BuildingType" rx="1.25" ry="1.25" style="stroke:#181818;stroke-width:0.25;" width="49.1997" x="345.75" y="423.8105"/><text fill="#000000" font-family="sans-serif" font-size="7" font-style="italic" lengthAdjust="spacing" textLength="40.4688" x="350.1155" y="433.8643">BuildingType</text><line style="stroke:#181818;stroke-width:0.25;" x1="346.25" x2="394.4497" y1="438.1211" y2="438.1211"/><text fill="#000000" font-family="sans-serif" font-size="7" lengthAdjust="spacing" textLength="31.5205" x="348.75" y="447.6748">Telegraph</text><text fill="#000000" font-family="sans-serif" font-size="7" lengthAdjust="spacing" textLength="20.624" x="348.75" y="456.9854">Coffee</text><text fill="#000000" font-family="sans-serif" font-size="7" lengthAdjust="spacing" textLength="27.6172" x="348.75" y="466.2959">Customs</text><text fill="#000000" font-family="sans-serif" font-size="7" lengthAdjust="spacing" textLength="32.2896" x="348.75" y="475.6064">PostOffice</text><text fill="#000000" font-family="sans-serif" font-size="7" lengthAdjust="spacing" textLength="16.3413" x="348.75" y="484.917">Hotel</text><text fill="#000000" font-family="sans-serif" font-size="7" lengthAdjust="spacing" textLength="11.6724" x="348.75" y="494.2275">Silo</text><text fill="#000000" font-family="sans-serif" font-size="7" lengthAdjust="spacing" textLength="43.1997" x="348.75" y="503.5381">LiquidStorage</text></g><!--link Player to Simulator--><g id="link_Player_Simulator"><path codeLine="68" d="M211.685,58.5605 C217.63,63.2705 223.31,68.8955 227.25,75.3105 C231.695,82.5405 233.77,91.6655 234.71,99.6105 " fill="none" id="Player-Simulator" style="stroke:#181818;stroke-width:0.5;"/><polygon fill="#000000" points="234.473,82.3137,233.5422,77.6504,230.9789,79.0882,234.473,82.3137" style="stroke:#000000;stroke-width:0.5;"/><text fill="#000000" font-family="sans-serif" font-size="6.5" lengthAdjust="spacing" textLength="32.1572" x="237.75" y="82.8247">start/pause</text><text fill="#000000" font-family="sans-serif" font-size="6.5" lengthAdjust="spacing" textLength="3.615" x="215.6057" y="58.7688">1</text><text fill="#000000" font-family="sans-serif" font-size="6.5" lengthAdjust="spacing" textLength="3.615" x="230.8281" y="94.1986">1</text></g><!--link Simulator to Player--><g id="link_Simulator_Player"><path codeLine="75" d="M194.325,99.7705 C188.89,95.6405 184.065,90.6905 180.75,84.8105 C176.645,77.5205 176.845,68.3855 178.35,60.4555 " fill="none" id="Simulator-Player" style="stroke:#181818;stroke-width:0.5;"/><polygon fill="#000000" points="184.1911,82.4494,183.85,77.7064,181.1273,78.8127,184.1911,82.4494" style="stroke:#000000;stroke-width:0.5;"/><text fill="#000000" font-family="sans-serif" font-size="6.5" lengthAdjust="spacing" textLength="35.0454" x="187.75" y="82.8247">create/plays</text><text fill="#000000" font-family="sans-serif" font-size="6.5" lengthAdjust="spacing" textLength="9.0359" x="179.7923" y="95.5202">0,1</text><text fill="#000000" font-family="sans-serif" font-size="6.5" lengthAdjust="spacing" textLength="9.0359" x="178.1103" y="71.2794">0,1</text></g><!--link Player to Map--><g id="link_Player_Map"><path codeLine="69" d="M158.82,60.4005 C153.095,64.9755 147.245,70.0805 142.25,75.3105 C113.94,104.9455 99.905,153.0955 94.5,176.2705 " fill="none" id="Player-Map" style="stroke:#181818;stroke-width:0.5;"/><polygon fill="#000000" points="124.5366,120.5691,128.0164,117.3281,125.4468,115.9018,124.5366,120.5691" style="stroke:#000000;stroke-width:0.5;"/><text fill="#000000" font-family="sans-serif" font-size="6.5" lengthAdjust="spacing" textLength="10.48" x="130.25" y="121.0747">has</text><text fill="#000000" font-family="sans-serif" font-size="6.5" lengthAdjust="spacing" textLength="3.615" x="150.817" y="71.2153">1</text><text fill="#000000" font-family="sans-serif" font-size="6.5" lengthAdjust="spacing" textLength="2.5295" x="92.3487" y="170.6158">*</text></g><!--link Player to Building--><g id="link_Player_Building"><path codeLine="70" d="M211.535,45.4205 C272.46,53.1205 414.25,75.5755 414.25,117.8105 C414.25,117.8105 414.25,117.8105 414.25,266.8105 C414.25,289.2705 402.905,311.9305 391.735,328.8005 " fill="none" id="Player-Building" style="stroke:#181818;stroke-width:0.5;"/><polygon fill="#000000" points="418.0915,192.2429,416.9047,187.6381,414.4247,189.2151,418.0915,192.2429" style="stroke:#000000;stroke-width:0.5;"/><text fill="#000000" font-family="sans-serif" font-size="6.5" lengthAdjust="spacing" textLength="27.1045" x="421.25" y="192.8247">upgrades</text><text fill="#000000" font-family="sans-serif" font-size="6.5" lengthAdjust="spacing" textLength="3.615" x="215.6169" y="43.8597">1</text><text fill="#000000" font-family="sans-serif" font-size="6.5" lengthAdjust="spacing" textLength="2.5295" x="391.8231" y="323.2194">*</text></g><!--link Player to Station--><g id="link_Player_Station"><path codeLine="71" d="M178.015,60.3355 C176.48,65.1605 174.94,70.4005 173.75,75.3105 C164.63,112.8755 158.635,122.7105 160.75,161.3105 C162.305,189.6505 166.215,222.1155 169.045,243.2405 " fill="none" id="Player-Station" style="stroke:#181818;stroke-width:0.5;"/><polygon fill="#000000" points="163.1275,159.1303,164.8168,154.6852,161.8814,154.5412,163.1275,159.1303" style="stroke:#000000;stroke-width:0.5;"/><text fill="#000000" font-family="sans-serif" font-size="6.5" lengthAdjust="spacing" textLength="45.8904" x="167.75" y="159.3247">build / manages</text><text fill="#000000" font-family="sans-serif" font-size="6.5" lengthAdjust="spacing" textLength="3.615" x="173.1412" y="71.2825">1</text><text fill="#000000" font-family="sans-serif" font-size="6.5" lengthAdjust="spacing" textLength="2.5295" x="165.907" y="237.735">*</text></g><!--link Simulator to Map--><g id="link_Simulator_Map"><path codeLine="72" d="M192.63,123.0905 C168.36,127.2655 138.465,135.5155 116.25,151.8105 C107.81,158.0005 101.49,168.0555 97.385,176.2305 " fill="none" id="Simulator-Map" style="stroke:#181818;stroke-width:0.5;"/><polygon fill="#000000" points="116.5668,157.8514,121.2322,156.9311,119.8003,154.3646,116.5668,157.8514" style="stroke:#000000;stroke-width:0.5;"/><text fill="#000000" font-family="sans-serif" font-size="6.5" lengthAdjust="spacing" textLength="10.48" x="123.25" y="159.3247">has</text><text fill="#000000" font-family="sans-serif" font-size="6.5" lengthAdjust="spacing" textLength="2.5295" x="186.2251" y="121.6614">*</text><text fill="#000000" font-family="sans-serif" font-size="6.5" lengthAdjust="spacing" textLength="3.615" x="99.1045" y="170.5665">1</text></g><!--link Simulator to Station--><g id="link_Simulator_Station"><path codeLine="73" d="M227.525,136.8355 C216.025,163.6705 194.42,214.0855 181.895,243.3055 " fill="none" id="Simulator-Station" style="stroke:#181818;stroke-width:0.5;"/><polygon fill="#000000" points="211.2652,192.4312,214.3974,188.8531,211.6961,187.6954,211.2652,192.4312" style="stroke:#000000;stroke-width:0.5;"/><text fill="#000000" font-family="sans-serif" font-size="6.5" lengthAdjust="spacing" textLength="10.48" x="216.75" y="192.8247">has</text><text fill="#000000" font-family="sans-serif" font-size="6.5" lengthAdjust="spacing" textLength="2.5295" x="223.4868" y="147.7825">*</text><text fill="#000000" font-family="sans-serif" font-size="6.5" lengthAdjust="spacing" textLength="2.5295" x="180.6976" y="237.6389">*</text></g><!--link Simulator to Building--><g id="link_Simulator_Building"><path codeLine="74" d="M246.515,136.8505 C266.895,169.7105 310.92,241.7205 344.75,304.3105 C348.99,312.1505 353.36,320.7955 357.265,328.7355 " fill="none" id="Simulator-Building" style="stroke:#181818;stroke-width:0.5;"/><polygon fill="#000000" points="304.4997,225.7985,303.5117,221.147,300.9663,222.6161,304.4997,225.7985" style="stroke:#000000;stroke-width:0.5;"/><text fill="#000000" font-family="sans-serif" font-size="6.5" lengthAdjust="spacing" textLength="10.48" x="307.75" y="226.3247">has</text><text fill="#000000" font-family="sans-serif" font-size="6.5" lengthAdjust="spacing" textLength="2.5295" x="245.7407" y="147.8001">*</text><text fill="#000000" font-family="sans-serif" font-size="6.5" lengthAdjust="spacing" textLength="2.5295" x="352.9367" y="323.146">*</text></g><!--link Simulator to Cargo--><g id="link_Simulator_Cargo"><path codeLine="76" d="M237.065,136.8205 C240.295,169.9405 246.93,242.7505 249.25,304.3105 C249.74,317.3305 249.515,332.2005 249.225,342.6505 " fill="none" id="Simulator-Cargo" style="stroke:#181818;stroke-width:0.5;"/><polygon fill="#000000" points="247.3974,226.1289,248.5976,221.5276,245.6638,221.7009,247.3974,226.1289" style="stroke:#000000;stroke-width:0.5;"/><text fill="#000000" font-family="sans-serif" font-size="6.5" lengthAdjust="spacing" textLength="25.6604" x="251.75" y="226.3247">generate</text><text fill="#000000" font-family="sans-serif" font-size="6.5" lengthAdjust="spacing" textLength="2.5295" x="234.6665" y="147.765">*</text><text fill="#000000" font-family="sans-serif" font-size="6.5" lengthAdjust="spacing" textLength="2.5295" x="246.5504" y="337.1949">*</text></g><!--link Map to Station--><g id="link_Map_Station"><path codeLine="77" d="M102.34,203.8505 C108.555,211.3405 116.74,220.6905 124.75,228.3105 C130.08,233.3805 136.045,238.4805 141.9,243.2155 " fill="none" id="Map-Station" style="stroke:#181818;stroke-width:0.5;"/><polygon fill="#000000" points="129.0221,225.3967,126.8528,221.1651,124.7798,223.2483,129.0221,225.3967" style="stroke:#000000;stroke-width:0.5;"/><text fill="#000000" font-family="sans-serif" font-size="6.5" lengthAdjust="spacing" textLength="10.48" x="131.75" y="226.3247">has</text><text fill="#000000" font-family="sans-serif" font-size="6.5" lengthAdjust="spacing" textLength="2.5295" x="102.0017" y="215.0393">*</text><text fill="#000000" font-family="sans-serif" font-size="6.5" lengthAdjust="spacing" textLength="2.5295" x="134.7751" y="237.7063">*</text></g><!--link Map to Size--><g id="link_Map_Size"><path codeLine="78" d="M92.815,203.8255 C94.35,222.7855 97.33,258.7355 100.25,289.3105 C101.82,305.7805 103.805,324.5155 105.255,337.9405 " fill="none" id="Map-Size" style="stroke:#181818;stroke-width:0.5;"/><polygon fill="#000000" points="102.9809,268.8726,104.0264,264.2337,101.1,264.5051,102.9809,268.8726" style="stroke:#000000;stroke-width:0.5;"/><text fill="#000000" font-family="sans-serif" font-size="6.5" lengthAdjust="spacing" textLength="10.48" x="107.25" y="269.0747">has</text><text fill="#000000" font-family="sans-serif" font-size="6.5" lengthAdjust="spacing" textLength="2.5295" x="90.2741" y="215.0085">*</text><text fill="#000000" font-family="sans-serif" font-size="6.5" lengthAdjust="spacing" textLength="3.615" x="101.12" y="332.4">1</text></g><!--link Map to Position--><g id="link_Map_Position"><path codeLine="79" d="M87.1,203.8255 C76.75,233.3555 51.8,304.5555 40.06,338.0605 " fill="none" id="Map-Position" style="stroke:#181818;stroke-width:0.5;"/><polygon fill="#000000" points="74.9232,268.7426,77.8057,264.9605,75.0321,263.9886,74.9232,268.7426" style="stroke:#000000;stroke-width:0.5;"/><text fill="#000000" font-family="sans-serif" font-size="6.5" lengthAdjust="spacing" textLength="10.48" x="80.25" y="269.0747">has</text><text fill="#000000" font-family="sans-serif" font-size="6.5" lengthAdjust="spacing" textLength="2.5295" x="83.2375" y="215.0085">*</text><text fill="#000000" font-family="sans-serif" font-size="6.5" lengthAdjust="spacing" textLength="9.7563" x="30.8732" y="332.3999">1..*</text></g><!--link Station to Cargo--><g id="link_Station_Cargo"><path codeLine="80" d="M187.74,289.3305 C193.465,297.2655 200.17,306.1205 206.75,313.8105 C215.425,323.9455 226.02,334.5955 234.4,342.6655 " fill="none" id="Station-Cargo" style="stroke:#181818;stroke-width:0.5;"/><polygon fill="#000000" points="210.8961,311.0149,209.0242,306.6435,206.8123,308.5786,210.8961,311.0149" style="stroke:#000000;stroke-width:0.5;"/><text fill="#000000" font-family="sans-serif" font-size="6.5" lengthAdjust="spacing" textLength="33.2458" x="213.75" y="311.8247">assigned to</text><text fill="#000000" font-family="sans-serif" font-size="6.5" lengthAdjust="spacing" textLength="2.5295" x="187.4376" y="300.513">*</text><text fill="#000000" font-family="sans-serif" font-size="6.5" lengthAdjust="spacing" textLength="2.5295" x="228.4825" y="337.2132">*</text></g><!--link Station to StationType--><g id="link_Station_StationType"><path codeLine="81" d="M170.15,289.4005 C169.775,294.3105 169.445,299.4805 169.25,304.3105 C168.87,313.8755 169.065,324.4405 169.42,333.5155 " fill="none" id="Station-StationType" style="stroke:#181818;stroke-width:0.5;"/><polygon fill="#000000" points="171.7086,311.633,173.2527,307.1353,170.3142,307.0867,171.7086,311.633" style="stroke:#000000;stroke-width:0.5;"/><text fill="#000000" font-family="sans-serif" font-size="6.5" lengthAdjust="spacing" textLength="10.48" x="176.25" y="311.8247">has</text><text fill="#000000" font-family="sans-serif" font-size="6.5" lengthAdjust="spacing" textLength="2.5295" x="167.1541" y="300.5937">*</text><text fill="#000000" font-family="sans-serif" font-size="6.5" lengthAdjust="spacing" textLength="3.615" x="165.4867" y="328.0137">1</text></g><!--link Station to Building--><g id="link_Station_Building"><path codeLine="82" d="M217.925,287.4005 C252.93,303.1755 300.61,324.6705 333.25,339.3805 " fill="none" id="Station-Building" style="stroke:#181818;stroke-width:0.5;"/><polygon fill="#000000" points="276.0292,310.1606,272.5099,306.9625,271.3023,309.6419,276.0292,310.1606" style="stroke:#000000;stroke-width:0.5;"/><text fill="#000000" font-family="sans-serif" font-size="6.5" lengthAdjust="spacing" textLength="62.1563" x="278.25" y="311.8247">can be upgraded with</text><text fill="#000000" font-family="sans-serif" font-size="6.5" lengthAdjust="spacing" textLength="3.615" x="221.5678" y="287.2003">1</text><text fill="#000000" font-family="sans-serif" font-size="6.5" lengthAdjust="spacing" textLength="9.7563" x="319.4526" y="335.6895">1..*</text></g><!--link Station to Position--><g id="link_Station_Position"><path codeLine="83" d="M135.1,289.3205 C116.27,300.8905 93.13,315.3505 72.75,328.8105 C68.34,331.7255 63.695,334.8805 59.21,337.9855 " fill="none" id="Station-Position" style="stroke:#181818;stroke-width:0.5;"/><polygon fill="#000000" points="111.1455,310.4828,115.7458,309.2785,114.1593,306.8045,111.1455,310.4828" style="stroke:#000000;stroke-width:0.5;"/><text fill="#000000" font-family="sans-serif" font-size="6.5" lengthAdjust="spacing" textLength="10.48" x="117.75" y="311.8247">has</text><text fill="#000000" font-family="sans-serif" font-size="6.5" lengthAdjust="spacing" textLength="9.0359" x="119.7399" y="300.5015">0,1</text><text fill="#000000" font-family="sans-serif" font-size="6.5" lengthAdjust="spacing" textLength="3.615" x="59.9455" y="332.4531">1</text></g><!--link Station to Size--><g id="link_Station_Size"><path codeLine="84" d="M155.85,289.3305 C144.865,304.4105 130.605,323.9955 120.375,338.0405 " fill="none" id="Station-Size" style="stroke:#181818;stroke-width:0.5;"/><polygon fill="#000000" points="144.2782,311.1542,148.1285,308.3635,145.7529,306.6333,144.2782,311.1542" style="stroke:#000000;stroke-width:0.5;"/><text fill="#000000" font-family="sans-serif" font-size="6.5" lengthAdjust="spacing" textLength="10.48" x="150.25" y="311.8247">has</text><text fill="#000000" font-family="sans-serif" font-size="6.5" lengthAdjust="spacing" textLength="2.5295" x="150.6644" y="300.513">*</text><text fill="#000000" font-family="sans-serif" font-size="6.5" lengthAdjust="spacing" textLength="3.615" x="119.0055" y="332.3762">1</text></g><!--link Building to BuildingType--><g id="link_Building_BuildingType"><path codeLine="85" d="M370.25,384.3155 C370.25,396.2505 370.25,410.5155 370.25,423.7155 " fill="none" id="Building-BuildingType" style="stroke:#181818;stroke-width:0.5;"/><polygon fill="#000000" points="372.75,406.6333,374.2195,402.1108,371.2805,402.1108,372.75,406.6333" style="stroke:#000000;stroke-width:0.5;"/><text fill="#000000" font-family="sans-serif" font-size="6.5" lengthAdjust="spacing" textLength="10.48" x="377.25" y="406.8247">has</text><text fill="#000000" font-family="sans-serif" font-size="6.5" lengthAdjust="spacing" textLength="2.5295" x="367.5854" y="395.4363">*</text><text fill="#000000" font-family="sans-serif" font-size="6.5" lengthAdjust="spacing" textLength="3.615" x="366.5904" y="418.1315">1</text></g><!--SRC=[ZLDDRzim3BtxLn0v3akRd0OOmu2r7R02BLei6R0T5PcsXSgI9z7zsB3_FbgMRQKnYkMGKEBZumlvv1-KQOKJ3JJMM5axso2Gwp3pKwOLya5KkACNZU1GaZ2LJW6-5eLzKgQ2KcYVPgGMtdycSkhG4LvBQtRgDy8cosfL84Zb93E5k46gRU6pZ1Hnds-eyL4OWYlR26NWrXQeuSkpHDSIhE7xRlCXom8_t6lnWWx-PC2VpgCpei4SzlXCuQfbq9DrHRpwEzRjLDDfGNOizIIeypbSMAjHc717gi6xCYALDJbS6y8AtKnpAzf8aFITcr2eEqNqHnw8vsdB7d5fFN7pAvIg4NeIn9dzIziNyVTCUs-zcdb_jF4uo-FRdwUtK_r5ftJHhwolFr8bMKSgm-6lJZaiRl0HTSf_Y1HByiAQWxGdLL1z9Aj6LTMqeEbIkCh6GSa-ZinndehnhXGInvdswGY_mjQI3s5C3eSzkaOPTkKnmKKYFJBisN2L4sqTJfUsB167iFDacu6EfqvtPQdaaFfg2OTDxPIs8RXHFArYnwRY9zCtZUPSRLUmNeUVsNPvls57vwrWryAdrzXtg-2j76hX5xFJ4dFeMXPVu39kz60-x0pEeH66zVNeMKsFZ1BJjgU08yOtG8cy4zJcVPGNWYWv1-bG49wtVFRmSPbsi4aE5HfqZ6RYNk-fkh5jcWtpPsykvixEE9fUrgGw_jS52UnQLHaiWEm2SBiwSke9tpPjcmnB2WC775TQy1EYEgsRPhVz3xMl__3K9m4SFOSH-0y0]--></g></svg>