<svg xmlns="http://www.w3.org/2000/svg" xmlns:xlink="http://www.w3.org/1999/xlink" contentStyleType="text/css" height="1205px" preserveAspectRatio="none" style="width:515px;height:1205px;background:#FFFFFF;" version="1.1" viewBox="0 0 515 1205" width="515px" zoomAndPan="magnify"><title>System Sequence Diagram (SSD) - US05</title><defs/><g><text fill="#000000" font-family="sans-serif" font-size="14" font-weight="bold" lengthAdjust="spacing" textLength="269.2061" x="124.6987" y="30.1074">System Sequence Diagram (SSD) - US05</text><rect fill="#FFFFFF" height="980.3809" style="stroke:#181818;stroke-width:1.0;" width="10" x="47.8413" y="133.2422"/><rect fill="#FFFFFF" height="57.582" style="stroke:#181818;stroke-width:1.0;" width="10" x="285.6328" y="156.5332"/><rect fill="#FFFFFF" height="221.377" style="stroke:#181818;stroke-width:1.0;" width="10" x="285.6328" y="245.4063"/><rect fill="#FFFFFF" height="71.582" style="stroke:#181818;stroke-width:1.0;" width="10" x="285.6328" y="572.2871"/><rect fill="#FFFFFF" height="234.377" style="stroke:#181818;stroke-width:1.0;" width="10" x="285.6328" y="675.1602"/><rect fill="#FFFFFF" height="149.7949" style="stroke:#181818;stroke-width:1.0;" width="10" x="285.6328" y="940.8281"/><rect fill="none" height="238.668" style="stroke:#000000;stroke-width:1.5;" width="475.7554" x="10" y="171.5332"/><rect fill="none" height="98.5039" style="stroke:#000000;stroke-width:1.5;" width="310.9707" x="20" y="304.6973"/><rect fill="none" height="163.0859" style="stroke:#000000;stroke-width:1.5;" width="330.9707" x="10" y="424.2012"/><rect fill="none" height="98.5039" style="stroke:#000000;stroke-width:1.5;" width="310.9707" x="20" y="481.7832"/><rect fill="none" height="251.668" style="stroke:#000000;stroke-width:1.5;" width="499.6035" x="10" y="601.2871"/><rect fill="none" height="111.5039" style="stroke:#000000;stroke-width:1.5;" width="423.8735" x="20" y="734.4512"/><rect fill="none" height="238.668" style="stroke:#000000;stroke-width:1.5;" width="462.749" x="10" y="866.9551"/><rect fill="none" height="98.5039" style="stroke:#000000;stroke-width:1.5;" width="310.9707" x="20" y="1000.1191"/><line style="stroke:#181818;stroke-width:0.5;stroke-dasharray:5.0,5.0;" x1="52" x2="52" y1="123.2422" y2="1122.623"/><line style="stroke:#181818;stroke-width:0.5;stroke-dasharray:5.0,5.0;" x1="290.2949" x2="290.2949" y1="123.2422" y2="1122.623"/><text fill="#000000" font-family="sans-serif" font-size="14" lengthAdjust="spacing" textLength="39.6826" x="30" y="119.7285">Player</text><ellipse cx="52.8413" cy="53.1211" fill="#E2E2F0" rx="8" ry="8" style="stroke:#181818;stroke-width:0.5;"/><path d="M52.8413,61.1211 L52.8413,88.1211 M39.8413,69.1211 L65.8413,69.1211 M52.8413,88.1211 L39.8413,103.1211 M52.8413,88.1211 L65.8413,103.1211 " fill="none" style="stroke:#181818;stroke-width:0.5;"/><text fill="#000000" font-family="sans-serif" font-size="14" lengthAdjust="spacing" textLength="39.6826" x="30" y="1136.7305">Player</text><ellipse cx="52.8413" cy="1148.7441" fill="#E2E2F0" rx="8" ry="8" style="stroke:#181818;stroke-width:0.5;"/><path d="M52.8413,1156.7441 L52.8413,1183.7441 M39.8413,1164.7441 L65.8413,1164.7441 M52.8413,1183.7441 L39.8413,1198.7441 M52.8413,1183.7441 L65.8413,1198.7441 " fill="none" style="stroke:#181818;stroke-width:0.5;"/><rect fill="#E2E2F0" height="32.6211" rx="2.5" ry="2.5" style="stroke:#181818;stroke-width:0.5;" width="60.6758" x="260.2949" y="89.6211"/><text fill="#000000" font-family="sans-serif" font-size="14" lengthAdjust="spacing" textLength="46.6758" x="267.2949" y="111.7285">System</text><rect fill="#E2E2F0" height="32.6211" rx="2.5" ry="2.5" style="stroke:#181818;stroke-width:0.5;" width="60.6758" x="260.2949" y="1121.623"/><text fill="#000000" font-family="sans-serif" font-size="14" lengthAdjust="spacing" textLength="46.6758" x="267.2949" y="1143.7305">System</text><rect fill="#FFFFFF" height="980.3809" style="stroke:#181818;stroke-width:1.0;" width="10" x="47.8413" y="133.2422"/><rect fill="#FFFFFF" height="57.582" style="stroke:#181818;stroke-width:1.0;" width="10" x="285.6328" y="156.5332"/><rect fill="#FFFFFF" height="221.377" style="stroke:#181818;stroke-width:1.0;" width="10" x="285.6328" y="245.4063"/><rect fill="#FFFFFF" height="71.582" style="stroke:#181818;stroke-width:1.0;" width="10" x="285.6328" y="572.2871"/><rect fill="#FFFFFF" height="234.377" style="stroke:#181818;stroke-width:1.0;" width="10" x="285.6328" y="675.1602"/><rect fill="#FFFFFF" height="149.7949" style="stroke:#181818;stroke-width:1.0;" width="10" x="285.6328" y="940.8281"/><polygon fill="#181818" points="273.6328,152.5332,283.6328,156.5332,273.6328,160.5332,277.6328,156.5332" style="stroke:#181818;stroke-width:1.0;"/><line style="stroke:#181818;stroke-width:1.0;" x1="57.8413" x2="279.6328" y1="156.5332" y2="156.5332"/><text fill="#000000" font-family="sans-serif" font-size="13" lengthAdjust="spacing" textLength="156.0889" x="64.8413" y="151.2705">1. Select Station Build Tool</text><path d="M10,171.5332 L82.4346,171.5332 L82.4346,180.8242 L72.4346,190.8242 L10,190.8242 L10,171.5332 " fill="#EEEEEE" style="stroke:#000000;stroke-width:1.5;"/><rect fill="none" height="238.668" style="stroke:#000000;stroke-width:1.5;" width="475.7554" x="10" y="171.5332"/><text fill="#000000" font-family="sans-serif" font-size="13" font-weight="bold" lengthAdjust="spacing" textLength="27.4346" x="25" y="186.5615">loop</text><text fill="#000000" font-family="sans-serif" font-size="11" font-weight="bold" lengthAdjust="spacing" textLength="169.27" x="97.4346" y="185.4033">[Until Building Location is Valid]</text><polygon fill="#181818" points="68.8413,210.1152,58.8413,214.1152,68.8413,218.1152,64.8413,214.1152" style="stroke:#181818;stroke-width:1.0;"/><line style="stroke:#181818;stroke-width:1.0;stroke-dasharray:2.0,2.0;" x1="62.8413" x2="289.6328" y1="214.1152" y2="214.1152"/><text fill="#000000" font-family="sans-serif" font-size="13" lengthAdjust="spacing" textLength="182.1079" x="74.8413" y="208.8525">2.1 Ask for the Building location</text><polygon fill="#181818" points="273.6328,241.4063,283.6328,245.4063,273.6328,249.4063,277.6328,245.4063" style="stroke:#181818;stroke-width:1.0;"/><line style="stroke:#181818;stroke-width:1.0;" x1="57.8413" x2="279.6328" y1="245.4063" y2="245.4063"/><text fill="#000000" font-family="sans-serif" font-size="13" lengthAdjust="spacing" textLength="166.9307" x="64.8413" y="240.1436">2.2 Select location for station</text><line style="stroke:#181818;stroke-width:1.0;" x1="295.6328" x2="337.6328" y1="276.6973" y2="276.6973"/><line style="stroke:#181818;stroke-width:1.0;" x1="337.6328" x2="337.6328" y1="276.6973" y2="289.6973"/><line style="stroke:#181818;stroke-width:1.0;" x1="296.6328" x2="337.6328" y1="289.6973" y2="289.6973"/><polygon fill="#181818" points="306.6328,285.6973,296.6328,289.6973,306.6328,293.6973,302.6328,289.6973" style="stroke:#181818;stroke-width:1.0;"/><text fill="#000000" font-family="sans-serif" font-size="13" lengthAdjust="spacing" textLength="161.1226" x="302.6328" y="271.4346">3. (AC01) Check for overlap</text><path d="M20,304.6973 L80.1709,304.6973 L80.1709,313.9883 L70.1709,323.9883 L20,323.9883 L20,304.6973 " fill="#EEEEEE" style="stroke:#000000;stroke-width:1.5;"/><rect fill="none" height="98.5039" style="stroke:#000000;stroke-width:1.5;" width="310.9707" x="20" y="304.6973"/><text fill="#000000" font-family="sans-serif" font-size="13" font-weight="bold" lengthAdjust="spacing" textLength="15.1709" x="35" y="319.7256">alt</text><text fill="#000000" font-family="sans-serif" font-size="11" font-weight="bold" lengthAdjust="spacing" textLength="82.5376" x="95.1709" y="318.5674">[Overlap exists]</text><polygon fill="#181818" points="68.8413,343.2793,58.8413,347.2793,68.8413,351.2793,64.8413,347.2793" style="stroke:#181818;stroke-width:1.0;"/><line style="stroke:#181818;stroke-width:1.0;stroke-dasharray:2.0,2.0;" x1="62.8413" x2="284.6328" y1="347.2793" y2="347.2793"/><text fill="#000000" font-family="sans-serif" font-size="13" lengthAdjust="spacing" textLength="151.728" x="74.8413" y="342.0166">4.1 Display error message</text><line style="stroke:#000000;stroke-width:1.0;stroke-dasharray:2.0,2.0;" x1="20" x2="330.9707" y1="356.2793" y2="356.2793"/><text fill="#000000" font-family="sans-serif" font-size="11" font-weight="bold" lengthAdjust="spacing" textLength="118.1479" x="25" y="368.1494">[Overlap doesn't exist]</text><polygon fill="#181818" points="68.8413,391.2012,58.8413,395.2012,68.8413,399.2012,64.8413,395.2012" style="stroke:#181818;stroke-width:1.0;"/><line style="stroke:#181818;stroke-width:1.0;stroke-dasharray:2.0,2.0;" x1="62.8413" x2="284.6328" y1="395.2012" y2="395.2012"/><text fill="#000000" font-family="sans-serif" font-size="13" lengthAdjust="spacing" textLength="167.6353" x="74.8413" y="389.9385">4.2 Return success message</text><path d="M10,424.2012 L82.4346,424.2012 L82.4346,433.4922 L72.4346,443.4922 L10,443.4922 L10,424.2012 " fill="#EEEEEE" style="stroke:#000000;stroke-width:1.5;"/><rect fill="none" height="163.0859" style="stroke:#000000;stroke-width:1.5;" width="330.9707" x="10" y="424.2012"/><text fill="#000000" font-family="sans-serif" font-size="13" font-weight="bold" lengthAdjust="spacing" textLength="27.4346" x="25" y="439.2295">loop</text><text fill="#000000" font-family="sans-serif" font-size="11" font-weight="bold" lengthAdjust="spacing" textLength="127.7568" x="97.4346" y="438.0713">[Until Name is accepted]</text><polygon fill="#181818" points="68.8413,462.7832,58.8413,466.7832,68.8413,470.7832,64.8413,466.7832" style="stroke:#181818;stroke-width:1.0;"/><line style="stroke:#181818;stroke-width:1.0;stroke-dasharray:2.0,2.0;" x1="62.8413" x2="289.6328" y1="466.7832" y2="466.7832"/><text fill="#000000" font-family="sans-serif" font-size="13" lengthAdjust="spacing" textLength="199.4561" x="74.8413" y="461.5205">5.0 Propose a name for the station</text><path d="M20,481.7832 L80.1709,481.7832 L80.1709,491.0742 L70.1709,501.0742 L20,501.0742 L20,481.7832 " fill="#EEEEEE" style="stroke:#000000;stroke-width:1.5;"/><rect fill="none" height="98.5039" style="stroke:#000000;stroke-width:1.5;" width="310.9707" x="20" y="481.7832"/><text fill="#000000" font-family="sans-serif" font-size="13" font-weight="bold" lengthAdjust="spacing" textLength="15.1709" x="35" y="496.8115">alt</text><text fill="#000000" font-family="sans-serif" font-size="11" font-weight="bold" lengthAdjust="spacing" textLength="115.6987" x="95.1709" y="495.6533">[doesn't accept name]</text><polygon fill="#181818" points="278.6328,520.3652,288.6328,524.3652,278.6328,528.3652,282.6328,524.3652" style="stroke:#181818;stroke-width:1.0;"/><line style="stroke:#181818;stroke-width:1.0;" x1="57.8413" x2="284.6328" y1="524.3652" y2="524.3652"/><text fill="#000000" font-family="sans-serif" font-size="13" lengthAdjust="spacing" textLength="165.0835" x="64.8413" y="519.1025">5.1 Doesn't accept the name</text><line style="stroke:#000000;stroke-width:1.0;stroke-dasharray:2.0,2.0;" x1="20" x2="330.9707" y1="533.3652" y2="533.3652"/><text fill="#000000" font-family="sans-serif" font-size="11" font-weight="bold" lengthAdjust="spacing" textLength="73.9707" x="25" y="545.2354">[accept name]</text><polygon fill="#181818" points="273.6328,568.2871,283.6328,572.2871,273.6328,576.2871,277.6328,572.2871" style="stroke:#181818;stroke-width:1.0;"/><line style="stroke:#181818;stroke-width:1.0;" x1="57.8413" x2="279.6328" y1="572.2871" y2="572.2871"/><text fill="#000000" font-family="sans-serif" font-size="13" lengthAdjust="spacing" textLength="119.2407" x="64.8413" y="567.0244">5.2 Accept the name</text><path d="M10,601.2871 L82.4346,601.2871 L82.4346,610.5781 L72.4346,620.5781 L10,620.5781 L10,601.2871 " fill="#EEEEEE" style="stroke:#000000;stroke-width:1.5;"/><rect fill="none" height="251.668" style="stroke:#000000;stroke-width:1.5;" width="499.6035" x="10" y="601.2871"/><text fill="#000000" font-family="sans-serif" font-size="13" font-weight="bold" lengthAdjust="spacing" textLength="27.4346" x="25" y="616.3154">loop</text><text fill="#000000" font-family="sans-serif" font-size="11" font-weight="bold" lengthAdjust="spacing" textLength="151.5615" x="97.4346" y="615.1572">[Until type of Station is valid]</text><polygon fill="#181818" points="68.8413,639.8691,58.8413,643.8691,68.8413,647.8691,64.8413,643.8691" style="stroke:#181818;stroke-width:1.0;"/><line style="stroke:#181818;stroke-width:1.0;stroke-dasharray:2.0,2.0;" x1="62.8413" x2="289.6328" y1="643.8691" y2="643.8691"/><text fill="#000000" font-family="sans-serif" font-size="13" lengthAdjust="spacing" textLength="202.3442" x="74.8413" y="638.6064">6.0 What is the type of the Station?</text><polygon fill="#181818" points="273.6328,671.1602,283.6328,675.1602,273.6328,679.1602,277.6328,675.1602" style="stroke:#181818;stroke-width:1.0;"/><line style="stroke:#181818;stroke-width:1.0;" x1="57.8413" x2="279.6328" y1="675.1602" y2="675.1602"/><text fill="#000000" font-family="sans-serif" font-size="13" lengthAdjust="spacing" textLength="104.7808" x="64.8413" y="669.8975">6.1 Gives the type</text><line style="stroke:#181818;stroke-width:1.0;" x1="295.6328" x2="337.6328" y1="706.4512" y2="706.4512"/><line style="stroke:#181818;stroke-width:1.0;" x1="337.6328" x2="337.6328" y1="706.4512" y2="719.4512"/><line style="stroke:#181818;stroke-width:1.0;" x1="296.6328" x2="337.6328" y1="719.4512" y2="719.4512"/><polygon fill="#181818" points="306.6328,715.4512,296.6328,719.4512,306.6328,723.4512,302.6328,719.4512" style="stroke:#181818;stroke-width:1.0;"/><text fill="#000000" font-family="sans-serif" font-size="13" lengthAdjust="spacing" textLength="184.9707" x="302.6328" y="701.1885">6.2 Verify if Station Type is valid</text><path d="M20,734.4512 L80.1709,734.4512 L80.1709,743.7422 L70.1709,753.7422 L20,753.7422 L20,734.4512 " fill="#EEEEEE" style="stroke:#000000;stroke-width:1.5;"/><rect fill="none" height="111.5039" style="stroke:#000000;stroke-width:1.5;" width="423.8735" x="20" y="734.4512"/><text fill="#000000" font-family="sans-serif" font-size="13" font-weight="bold" lengthAdjust="spacing" textLength="15.1709" x="35" y="749.4795">alt</text><text fill="#000000" font-family="sans-serif" font-size="11" font-weight="bold" lengthAdjust="spacing" textLength="120.3931" x="95.1709" y="748.3213">[Invalid type of station]</text><polygon fill="#181818" points="68.8413,773.0332,58.8413,777.0332,68.8413,781.0332,64.8413,777.0332" style="stroke:#181818;stroke-width:1.0;"/><line style="stroke:#181818;stroke-width:1.0;stroke-dasharray:2.0,2.0;" x1="62.8413" x2="284.6328" y1="777.0332" y2="777.0332"/><text fill="#000000" font-family="sans-serif" font-size="13" lengthAdjust="spacing" textLength="149.5635" x="74.8413" y="771.7705">6.3 Return Error message</text><line style="stroke:#000000;stroke-width:1.0;stroke-dasharray:2.0,2.0;" x1="20" x2="443.8735" y1="786.0332" y2="786.0332"/><text fill="#000000" font-family="sans-serif" font-size="11" font-weight="bold" lengthAdjust="spacing" textLength="114.8931" x="25" y="797.9033">[Valid Type of station]</text><line style="stroke:#181818;stroke-width:1.0;" x1="295.6328" x2="337.6328" y1="824.9551" y2="824.9551"/><line style="stroke:#181818;stroke-width:1.0;" x1="337.6328" x2="337.6328" y1="824.9551" y2="837.9551"/><line style="stroke:#181818;stroke-width:1.0;" x1="296.6328" x2="337.6328" y1="837.9551" y2="837.9551"/><polygon fill="#181818" points="306.6328,833.9551,296.6328,837.9551,306.6328,841.9551,302.6328,837.9551" style="stroke:#181818;stroke-width:1.0;"/><text fill="#000000" font-family="sans-serif" font-size="13" lengthAdjust="spacing" textLength="119.2407" x="302.6328" y="819.6924">6.4 Accept the name</text><path d="M10,866.9551 L82.4346,866.9551 L82.4346,876.2461 L72.4346,886.2461 L10,886.2461 L10,866.9551 " fill="#EEEEEE" style="stroke:#000000;stroke-width:1.5;"/><rect fill="none" height="238.668" style="stroke:#000000;stroke-width:1.5;" width="462.749" x="10" y="866.9551"/><text fill="#000000" font-family="sans-serif" font-size="13" font-weight="bold" lengthAdjust="spacing" textLength="27.4346" x="25" y="881.9834">loop</text><text fill="#000000" font-family="sans-serif" font-size="11" font-weight="bold" lengthAdjust="spacing" textLength="108.1899" x="97.4346" y="880.8252">[Until center is valid]</text><polygon fill="#181818" points="68.8413,905.5371,58.8413,909.5371,68.8413,913.5371,64.8413,909.5371" style="stroke:#181818;stroke-width:1.0;"/><line style="stroke:#181818;stroke-width:1.0;stroke-dasharray:2.0,2.0;" x1="62.8413" x2="289.6328" y1="909.5371" y2="909.5371"/><text fill="#000000" font-family="sans-serif" font-size="13" lengthAdjust="spacing" textLength="203.7915" x="74.8413" y="904.2744">7.0 Ask where the center should be</text><polygon fill="#181818" points="273.6328,936.8281,283.6328,940.8281,273.6328,944.8281,277.6328,940.8281" style="stroke:#181818;stroke-width:1.0;"/><line style="stroke:#181818;stroke-width:1.0;" x1="57.8413" x2="279.6328" y1="940.8281" y2="940.8281"/><text fill="#000000" font-family="sans-serif" font-size="13" lengthAdjust="spacing" textLength="164.7598" x="64.8413" y="935.5654">7.1 Gives the center location</text><line style="stroke:#181818;stroke-width:1.0;" x1="295.6328" x2="337.6328" y1="972.1191" y2="972.1191"/><line style="stroke:#181818;stroke-width:1.0;" x1="337.6328" x2="337.6328" y1="972.1191" y2="985.1191"/><line style="stroke:#181818;stroke-width:1.0;" x1="296.6328" x2="337.6328" y1="985.1191" y2="985.1191"/><polygon fill="#181818" points="306.6328,981.1191,296.6328,985.1191,306.6328,989.1191,302.6328,985.1191" style="stroke:#181818;stroke-width:1.0;"/><text fill="#000000" font-family="sans-serif" font-size="13" lengthAdjust="spacing" textLength="148.1162" x="302.6328" y="966.8564">7.2 Verify if center is valid</text><path d="M20,1000.1191 L80.1709,1000.1191 L80.1709,1009.4102 L70.1709,1019.4102 L20,1019.4102 L20,1000.1191 " fill="#EEEEEE" style="stroke:#000000;stroke-width:1.5;"/><rect fill="none" height="98.5039" style="stroke:#000000;stroke-width:1.5;" width="310.9707" x="20" y="1000.1191"/><text fill="#000000" font-family="sans-serif" font-size="13" font-weight="bold" lengthAdjust="spacing" textLength="15.1709" x="35" y="1015.1475">alt</text><text fill="#000000" font-family="sans-serif" font-size="11" font-weight="bold" lengthAdjust="spacing" textLength="140.7603" x="95.1709" y="1013.9893">[Doesn't accept the center]</text><polygon fill="#181818" points="68.8413,1038.7012,58.8413,1042.7012,68.8413,1046.7012,64.8413,1042.7012" style="stroke:#181818;stroke-width:1.0;"/><line style="stroke:#181818;stroke-width:1.0;stroke-dasharray:2.0,2.0;" x1="62.8413" x2="284.6328" y1="1042.7012" y2="1042.7012"/><text fill="#000000" font-family="sans-serif" font-size="13" lengthAdjust="spacing" textLength="160.4053" x="74.8413" y="1037.4385">7.3.1 Return Error message</text><line style="stroke:#000000;stroke-width:1.0;stroke-dasharray:2.0,2.0;" x1="20" x2="330.9707" y1="1051.7012" y2="1051.7012"/><text fill="#000000" font-family="sans-serif" font-size="11" font-weight="bold" lengthAdjust="spacing" textLength="99.6338" x="25" y="1063.5713">[Accept the center]</text><polygon fill="#181818" points="68.8413,1086.623,58.8413,1090.623,68.8413,1094.623,64.8413,1090.623" style="stroke:#181818;stroke-width:1.0;"/><line style="stroke:#181818;stroke-width:1.0;stroke-dasharray:2.0,2.0;" x1="62.8413" x2="289.6328" y1="1090.623" y2="1090.623"/><text fill="#000000" font-family="sans-serif" font-size="13" lengthAdjust="spacing" textLength="178.4771" x="74.8413" y="1085.3604">7.3.2 Return success message</text><!--SRC=[bPHDZzem48Rl-HLpw-w12C824eUkw59LbQfsLVRZx2O3iMhir7Pe-VUruzX986INI2Z4cdbcvdrjarGB2O-C75561P6QfhGWNCFcg3Jk8qqrmsNz1HlyKo9F4TQKx2JPmyrcixw54JnlnhCeYaYgwO5ez43tWj776h24IMmW35DJG1DD1OTF9MKPF0d1clIwE1EYW6UkANDHbE_WcqXT7bNmGXZD8Z1FtT_8L78rbv344rYftx0ry-aS6mAh2LLYXgT5xUfvtqcS-CPzVaLMRegeIkj3-SuQr3I6czN3U78B3pccha5nGCb8KMEOXXzk0V0VLLfLonVcl3Dphgagp2UWb0QsHwN83XqCcS90omGg_a4xQZHCJU0dwb9oK6MQ6cB0LbIUHVRNjkWxsQDrXPZmGkD5OsRn61wbA8HfZ02tMTuZhsQ_Cq4SFuQhL272BEVMpQn0tGnRgyfg97elAu7L2SD7zxdVfvC-5WXY6mw0aUmmj97dHg_Nd6WRQ8lwVFk_PjmFANO-nTmeyeKUiE5TiNtdHe8Nb7Hx1DeCyMIR2fC4fxxoQY7qt3RuuhXJl_C-TxPpiAewzgxY0BBTyLslQS6SjZifSctKUikKXJ75tYv_SvHOOUj4bOlIt6U_yAhhPT5nf4PrBghtcRFec7CwIx2bvpYus25Z5l7KTDbhJUiShQv53jupbpNqvlq7]--></g></svg>