<svg xmlns="http://www.w3.org/2000/svg" xmlns:xlink="http://www.w3.org/1999/xlink" contentStyleType="text/css" height="1231px" preserveAspectRatio="none" style="width:2076px;height:1231px;background:#FFFFFF;" version="1.1" viewBox="0 0 2076 1231" width="2076px" zoomAndPan="magnify"><defs/><g><!--class MaintenanceRailwayLineUI--><g id="elem_MaintenanceRailwayLineUI"><rect codeLine="8" fill="#F1F1F1" height="178.3477" id="MaintenanceRailwayLineUI" rx="2.5" ry="2.5" style="stroke:#181818;stroke-width:0.5;" width="722.8555" x="7" y="407.5"/><ellipse cx="279.354" cy="423.5" fill="#ADD1B2" rx="11" ry="11" style="stroke:#181818;stroke-width:1.0;"/><path d="M282.1196,419.375 Q282.2759,419.1563 282.4634,419.0469 Q282.6509,418.9375 282.8696,418.9375 Q283.2446,418.9375 283.479,419.2031 Q283.7134,419.4531 283.7134,420.0625 L283.7134,421.5156 Q283.7134,422.125 283.479,422.3906 Q283.2446,422.6563 282.8696,422.6563 Q282.5259,422.6563 282.3228,422.4531 Q282.1196,422.2656 282.0103,421.75 Q281.9634,421.3906 281.7759,421.2031 Q281.4478,420.8281 280.8384,420.6094 Q280.229,420.3906 279.604,420.3906 Q278.8384,420.3906 278.1978,420.7188 Q277.5728,421.0469 277.0728,421.7969 Q276.5884,422.5469 276.5884,423.5781 L276.5884,424.6719 Q276.5884,425.9063 277.479,426.7344 Q278.3696,427.5469 279.9634,427.5469 Q280.9009,427.5469 281.5571,427.2969 Q281.9478,427.1406 282.3696,426.7031 Q282.6353,426.4375 282.7759,426.3594 Q282.9321,426.2813 283.1353,426.2813 Q283.4634,426.2813 283.7134,426.5469 Q283.979,426.7969 283.979,427.1406 Q283.979,427.4844 283.6353,427.8906 Q283.1353,428.4688 282.3384,428.7969 Q281.2603,429.25 279.9634,429.25 Q278.4478,429.25 277.2446,428.625 Q276.2603,428.125 275.5728,427.0625 Q274.8853,425.9844 274.8853,424.7031 L274.8853,423.5469 Q274.8853,422.2188 275.4946,421.0781 Q276.1196,419.9219 277.2134,419.3125 Q278.3071,418.6875 279.5415,418.6875 Q280.2759,418.6875 280.9165,418.8594 Q281.5728,419.0156 282.1196,419.375 Z " fill="#000000"/><text fill="#000000" font-family="sans-serif" font-size="14" lengthAdjust="spacing" textLength="169.6475" x="299.854" y="429.2969">MaintenanceRailwayLineUI</text><line style="stroke:#181818;stroke-width:0.5;" x1="8" x2="728.8555" y1="439.5" y2="439.5"/><text fill="#000000" font-family="sans-serif" font-size="14" lengthAdjust="spacing" textLength="286.3574" x="13" y="458.6074">-controller: MaintenanceRailwayLineController</text><line style="stroke:#181818;stroke-width:0.5;" x1="8" x2="728.8555" y1="466.1211" y2="466.1211"/><text fill="#000000" font-family="sans-serif" font-size="14" lengthAdjust="spacing" textLength="710.8555" x="13" y="485.2285">+MaintenanceRailwayLineUI(stationList: List&lt;Station&gt;, railwayLineList:  List&lt;RailwayLine&gt;, scenarioName:  String)</text><text fill="#000000" font-family="sans-serif" font-size="14" lengthAdjust="spacing" textLength="71.1963" x="13" y="503.8496">+run(): void</text><text fill="#000000" font-family="sans-serif" font-size="14" lengthAdjust="spacing" textLength="223.3438" x="13" y="522.4707">-chooseRailwayLineType(): boolean</text><text fill="#000000" font-family="sans-serif" font-size="14" lengthAdjust="spacing" textLength="193.0059" x="13" y="541.0918">-chooseInitialStation(): boolean</text><text fill="#000000" font-family="sans-serif" font-size="14" lengthAdjust="spacing" textLength="196.0889" x="13" y="559.7129">-chooseTheNextStations(): void</text><text fill="#000000" font-family="sans-serif" font-size="14" lengthAdjust="spacing" textLength="213.9922" x="13" y="578.334">-printFinalMaintenancePath(): void</text></g><!--class MaintenanceRailwayLineController--><g id="elem_MaintenanceRailwayLineController"><rect codeLine="18" fill="#F1F1F1" height="979.0547" id="MaintenanceRailwayLineController" rx="2.5" ry="2.5" style="stroke:#181818;stroke-width:0.5;" width="698.7383" x="765" y="7"/><ellipse cx="1001.9507" cy="23" fill="#ADD1B2" rx="11" ry="11" style="stroke:#181818;stroke-width:1.0;"/><path d="M1004.7163,18.875 Q1004.8726,18.6563 1005.0601,18.5469 Q1005.2476,18.4375 1005.4663,18.4375 Q1005.8413,18.4375 1006.0757,18.7031 Q1006.3101,18.9531 1006.3101,19.5625 L1006.3101,21.0156 Q1006.3101,21.625 1006.0757,21.8906 Q1005.8413,22.1563 1005.4663,22.1563 Q1005.1226,22.1563 1004.9194,21.9531 Q1004.7163,21.7656 1004.6069,21.25 Q1004.5601,20.8906 1004.3726,20.7031 Q1004.0444,20.3281 1003.4351,20.1094 Q1002.8257,19.8906 1002.2007,19.8906 Q1001.4351,19.8906 1000.7944,20.2188 Q1000.1694,20.5469 999.6694,21.2969 Q999.1851,22.0469 999.1851,23.0781 L999.1851,24.1719 Q999.1851,25.4063 1000.0757,26.2344 Q1000.9663,27.0469 1002.5601,27.0469 Q1003.4976,27.0469 1004.1538,26.7969 Q1004.5444,26.6406 1004.9663,26.2031 Q1005.2319,25.9375 1005.3726,25.8594 Q1005.5288,25.7813 1005.7319,25.7813 Q1006.0601,25.7813 1006.3101,26.0469 Q1006.5757,26.2969 1006.5757,26.6406 Q1006.5757,26.9844 1006.2319,27.3906 Q1005.7319,27.9688 1004.9351,28.2969 Q1003.8569,28.75 1002.5601,28.75 Q1001.0444,28.75 999.8413,28.125 Q998.8569,27.625 998.1694,26.5625 Q997.4819,25.4844 997.4819,24.2031 L997.4819,23.0469 Q997.4819,21.7188 998.0913,20.5781 Q998.7163,19.4219 999.8101,18.8125 Q1000.9038,18.1875 1002.1382,18.1875 Q1002.8726,18.1875 1003.5132,18.3594 Q1004.1694,18.5156 1004.7163,18.875 Z " fill="#000000"/><text fill="#000000" font-family="sans-serif" font-size="14" lengthAdjust="spacing" textLength="216.3369" x="1022.4507" y="28.7969">MaintenanceRailwayLineController</text><line style="stroke:#181818;stroke-width:0.5;" x1="766" x2="1462.7383" y1="39" y2="39"/><text fill="#000000" font-family="sans-serif" font-size="14" lengthAdjust="spacing" textLength="157.1992" x="771" y="58.1074">-stationList: List&lt;Station&gt;</text><text fill="#000000" font-family="sans-serif" font-size="14" lengthAdjust="spacing" textLength="173.5439" x="771" y="76.7285">-validStations: List&lt;Station&gt;</text><text fill="#000000" font-family="sans-serif" font-size="14" lengthAdjust="spacing" textLength="207.0127" x="771" y="95.3496">-oddDegreeStations: List&lt;String&gt;</text><text fill="#000000" font-family="sans-serif" font-size="14" lengthAdjust="spacing" textLength="173.5371" x="771" y="113.9707">-allLines: List&lt;RailwayLine&gt;</text><text fill="#000000" font-family="sans-serif" font-size="14" lengthAdjust="spacing" textLength="214.792" x="771" y="132.5918">-availableLines: List&lt;RailwayLine&gt;</text><text fill="#000000" font-family="sans-serif" font-size="14" lengthAdjust="spacing" textLength="245.1436" x="771" y="151.2129">-selectedStartingStations: List&lt;Station&gt;</text><text fill="#000000" font-family="sans-serif" font-size="14" lengthAdjust="spacing" textLength="185.2061" x="771" y="169.834">-vertexDegrees: List&lt;Integer&gt;</text><text fill="#000000" font-family="sans-serif" font-size="14" lengthAdjust="spacing" textLength="139.2754" x="771" y="188.4551">-scenarioName: String</text><text fill="#000000" font-family="sans-serif" font-size="14" lengthAdjust="spacing" textLength="181.2959" x="771" y="207.0762">-firstStationAlgorithm: Station</text><text fill="#000000" font-family="sans-serif" font-size="14" lengthAdjust="spacing" textLength="157.1719" x="771" y="225.6973">-railwayLinesType: String</text><text fill="#000000" font-family="sans-serif" font-size="14" lengthAdjust="spacing" textLength="143.1924" x="771" y="244.3184">-semiEulerian: boolean</text><text fill="#000000" font-family="sans-serif" font-size="14" lengthAdjust="spacing" textLength="112.082" x="771" y="262.9395">-eulerian: boolean</text><text fill="#000000" font-family="sans-serif" font-size="14" lengthAdjust="spacing" textLength="228.8125" x="771" y="281.5605">-finalMaintenancePath: List&lt;Station&gt;</text><line style="stroke:#181818;stroke-width:0.5;" x1="766" x2="1462.7383" y1="289.0742" y2="289.0742"/><text fill="#000000" font-family="sans-serif" font-size="14" lengthAdjust="spacing" textLength="686.7383" x="771" y="308.1816">+MaintenanceRailwayLineController(stationList: List&lt;Station&gt;, lines: List&lt;RailwayLine&gt;, scenarioName: String)</text><text fill="#000000" font-family="sans-serif" font-size="14" lengthAdjust="spacing" textLength="191.8369" x="771" y="326.8027">+getStationList(): List&lt;Station&gt;</text><text fill="#000000" font-family="sans-serif" font-size="14" lengthAdjust="spacing" textLength="287.5469" x="771" y="345.4238">+setStationList(stationList: List&lt;Station&gt;): void</text><text fill="#000000" font-family="sans-serif" font-size="14" lengthAdjust="spacing" textLength="207.3887" x="771" y="364.0449">+getAllLines(): List&lt;RailwayLine&gt;</text><text fill="#000000" font-family="sans-serif" font-size="14" lengthAdjust="spacing" textLength="463.4355" x="771" y="382.666">+setSelectedStartingStations(selectedStartingStations: List&lt;Station&gt;): void</text><text fill="#000000" font-family="sans-serif" font-size="14" lengthAdjust="spacing" textLength="173.9131" x="771" y="401.2871">+getScenarioName(): String</text><text fill="#000000" font-family="sans-serif" font-size="14" lengthAdjust="spacing" textLength="296.8506" x="771" y="419.9082">+setScenarioName(scenarioName: String): void</text><text fill="#000000" font-family="sans-serif" font-size="14" lengthAdjust="spacing" textLength="335.7539" x="771" y="438.5293">+setRailwayLinesType(railwayLinesType: String): void</text><text fill="#000000" font-family="sans-serif" font-size="14" lengthAdjust="spacing" textLength="320.2363" x="771" y="457.1504">+setValidStations(validStations: List&lt;Station&gt;): void</text><text fill="#000000" font-family="sans-serif" font-size="14" lengthAdjust="spacing" textLength="265.7744" x="771" y="475.7715">+getFinalMaintenancePath(): List&lt;Station&gt;</text><text fill="#000000" font-family="sans-serif" font-size="14" lengthAdjust="spacing" textLength="152.1338" x="771" y="494.3926">+getSizeStationList(): int</text><text fill="#000000" font-family="sans-serif" font-size="14" lengthAdjust="spacing" textLength="207.3818" x="771" y="513.0137">+getSizeStartingStationsList(): int</text><text fill="#000000" font-family="sans-serif" font-size="14" lengthAdjust="spacing" textLength="190.2646" x="771" y="531.6348">+getSizeValidStationsList(): int</text><text fill="#000000" font-family="sans-serif" font-size="14" lengthAdjust="spacing" textLength="236.168" x="771" y="550.2559">+getStationsNamesList(): List&lt;String&gt;</text><text fill="#000000" font-family="sans-serif" font-size="14" lengthAdjust="spacing" textLength="325.6914" x="771" y="568.877">+addStationToStartingStations(station: Station): void</text><text fill="#000000" font-family="sans-serif" font-size="14" lengthAdjust="spacing" textLength="206.623" x="771" y="587.498">+getLastStartingStation(): Station</text><text fill="#000000" font-family="sans-serif" font-size="14" lengthAdjust="spacing" textLength="394.9189" x="771" y="606.1191">+convertStationsToNames(stations: List&lt;Station&gt;): List&lt;String&gt;</text><text fill="#000000" font-family="sans-serif" font-size="14" lengthAdjust="spacing" textLength="580.1455" x="771" y="624.7402">+removeStationsInList(stations: List&lt;Station&gt;, stationsRemoves: List&lt;Station&gt;): List&lt;Station&gt;</text><text fill="#000000" font-family="sans-serif" font-size="14" lengthAdjust="spacing" textLength="264.9678" x="771" y="643.3613">+getStationByName(name: String): Station</text><text fill="#000000" font-family="sans-serif" font-size="14" lengthAdjust="spacing" textLength="187.9063" x="771" y="661.9824">+buildAdjacencyMatrix(): int[][]</text><text fill="#000000" font-family="sans-serif" font-size="14" lengthAdjust="spacing" textLength="495.3252" x="771" y="680.6035">+getRailwayLineBetweenStations(station1: String, station2: String): RailwayLine</text><text fill="#000000" font-family="sans-serif" font-size="14" lengthAdjust="spacing" textLength="352.1123" x="771" y="699.2246">+removeLineFromAvailableLines(line: RailwayLine): void</text><text fill="#000000" font-family="sans-serif" font-size="14" lengthAdjust="spacing" textLength="191.0166" x="771" y="717.8457">+filterRailwayLinesType(): void</text><text fill="#000000" font-family="sans-serif" font-size="14" lengthAdjust="spacing" textLength="205.0713" x="771" y="736.4668">+setEulerianPathType(): boolean</text><text fill="#000000" font-family="sans-serif" font-size="14" lengthAdjust="spacing" textLength="193.3682" x="771" y="755.0879">+typeOfEulerianGraph(): String</text><text fill="#000000" font-family="sans-serif" font-size="14" lengthAdjust="spacing" textLength="152.9268" x="771" y="773.709">+setFinalPath(): boolean</text><text fill="#000000" font-family="sans-serif" font-size="14" lengthAdjust="spacing" textLength="289.9053" x="771" y="792.3301">+findEulerianMaintenancePath(): List&lt;Station&gt;</text><text fill="#000000" font-family="sans-serif" font-size="14" lengthAdjust="spacing" textLength="224.499" x="771" y="810.9512">+findStationsWithOddDegree(): void</text><text fill="#000000" font-family="sans-serif" font-size="14" lengthAdjust="spacing" textLength="199.5957" x="771" y="829.5723">+calculateVertexDegrees(): void</text><text fill="#000000" font-family="sans-serif" font-size="14" lengthAdjust="spacing" textLength="213.6299" x="771" y="848.1934">+isNotGraphConnected(): boolean</text><text fill="#000000" font-family="sans-serif" font-size="14" lengthAdjust="spacing" textLength="464.9873" x="771" y="866.8145">+findEulerianPath(start: Station, allLines: List&lt;RailwayLine&gt;): List&lt;Station&gt;</text><text fill="#000000" font-family="sans-serif" font-size="14" lengthAdjust="spacing" textLength="457.9668" x="771" y="885.4355">+findUnvisitedLine(station: Station, lines: List&lt;RailwayLine&gt;): RailwayLine</text><text fill="#000000" font-family="sans-serif" font-size="14" lengthAdjust="spacing" textLength="393.3945" x="771" y="904.0566">+getOppositeStation(station: Station, line: RailwayLine): Station</text><text fill="#000000" font-family="sans-serif" font-size="14" lengthAdjust="spacing" textLength="252.54" x="771" y="922.6777">+setValidStationsConnectedLines(): void</text><text fill="#000000" font-family="sans-serif" font-size="14" lengthAdjust="spacing" textLength="430.001" x="771" y="941.2988">+getStationsConnectedAnotherStation(station: Station): List&lt;Station&gt;</text><text fill="#000000" font-family="sans-serif" font-size="14" lengthAdjust="spacing" textLength="242.3613" x="771" y="959.9199">+visualisationOfRailwayNetwork(): void</text><text fill="#000000" font-family="sans-serif" font-size="14" lengthAdjust="spacing" textLength="469.6494" x="771" y="978.541">+findSameTypeStations(type: char, stationList: List&lt;Station&gt;): List&lt;Station&gt;</text></g><!--class Utils_MDISC--><g id="elem_Utils_MDISC"><rect codeLine="71" fill="#F1F1F1" height="103.8633" id="Utils_MDISC" rx="2.5" ry="2.5" style="stroke:#181818;stroke-width:0.5;" width="570.3525" x="1499.5" y="444.5"/><ellipse cx="1740.3677" cy="460.5" fill="#ADD1B2" rx="11" ry="11" style="stroke:#181818;stroke-width:1.0;"/><path d="M1743.1333,456.375 Q1743.2896,456.1563 1743.4771,456.0469 Q1743.6646,455.9375 1743.8833,455.9375 Q1744.2583,455.9375 1744.4927,456.2031 Q1744.7271,456.4531 1744.7271,457.0625 L1744.7271,458.5156 Q1744.7271,459.125 1744.4927,459.3906 Q1744.2583,459.6563 1743.8833,459.6563 Q1743.5396,459.6563 1743.3364,459.4531 Q1743.1333,459.2656 1743.0239,458.75 Q1742.9771,458.3906 1742.7896,458.2031 Q1742.4614,457.8281 1741.8521,457.6094 Q1741.2427,457.3906 1740.6177,457.3906 Q1739.8521,457.3906 1739.2114,457.7188 Q1738.5864,458.0469 1738.0864,458.7969 Q1737.6021,459.5469 1737.6021,460.5781 L1737.6021,461.6719 Q1737.6021,462.9063 1738.4927,463.7344 Q1739.3833,464.5469 1740.9771,464.5469 Q1741.9146,464.5469 1742.5708,464.2969 Q1742.9614,464.1406 1743.3833,463.7031 Q1743.6489,463.4375 1743.7896,463.3594 Q1743.9458,463.2813 1744.1489,463.2813 Q1744.4771,463.2813 1744.7271,463.5469 Q1744.9927,463.7969 1744.9927,464.1406 Q1744.9927,464.4844 1744.6489,464.8906 Q1744.1489,465.4688 1743.3521,465.7969 Q1742.2739,466.25 1740.9771,466.25 Q1739.4614,466.25 1738.2583,465.625 Q1737.2739,465.125 1736.5864,464.0625 Q1735.8989,462.9844 1735.8989,461.7031 L1735.8989,460.5469 Q1735.8989,459.2188 1736.5083,458.0781 Q1737.1333,456.9219 1738.2271,456.3125 Q1739.3208,455.6875 1740.5552,455.6875 Q1741.2896,455.6875 1741.9302,455.8594 Q1742.5864,456.0156 1743.1333,456.375 Z " fill="#000000"/><text fill="#000000" font-family="sans-serif" font-size="14" lengthAdjust="spacing" textLength="80.1172" x="1760.8677" y="466.2969">Utils_MDISC</text><line style="stroke:#181818;stroke-width:0.5;" x1="1500.5" x2="2068.8525" y1="476.5" y2="476.5"/><text fill="#000000" font-family="sans-serif" font-size="14" lengthAdjust="spacing" textLength="151.3408" x="1505.5" y="495.6074">+adjacencyMatrix:  int[][]</text><line style="stroke:#181818;stroke-width:0.5;" x1="1500.5" x2="2068.8525" y1="503.1211" y2="503.1211"/><text fill="#000000" font-family="sans-serif" font-size="14" lengthAdjust="spacing" textLength="558.3525" x="1505.5" y="522.2285">+buildAdjacencyMatrix(stationList: List&lt;Station&gt;, availableLines: List&lt;RailwayLine&gt;): int[][]</text><text fill="#000000" font-family="sans-serif" font-size="14" lengthAdjust="spacing" textLength="20.9932" x="1505.5" y="540.8496">...()</text></g><!--class Station--><g id="elem_Station"><rect codeLine="77" fill="#F1F1F1" height="103.8633" id="Station" rx="2.5" ry="2.5" style="stroke:#181818;stroke-width:0.5;" width="130.6582" x="1157" y="1083"/><ellipse cx="1196.7825" cy="1099" fill="#ADD1B2" rx="11" ry="11" style="stroke:#181818;stroke-width:1.0;"/><path d="M1199.5481,1094.875 Q1199.7044,1094.6563 1199.8919,1094.5469 Q1200.0794,1094.4375 1200.2981,1094.4375 Q1200.6731,1094.4375 1200.9075,1094.7031 Q1201.1419,1094.9531 1201.1419,1095.5625 L1201.1419,1097.0156 Q1201.1419,1097.625 1200.9075,1097.8906 Q1200.6731,1098.1563 1200.2981,1098.1563 Q1199.9544,1098.1563 1199.7513,1097.9531 Q1199.5481,1097.7656 1199.4388,1097.25 Q1199.3919,1096.8906 1199.2044,1096.7031 Q1198.8763,1096.3281 1198.2669,1096.1094 Q1197.6575,1095.8906 1197.0325,1095.8906 Q1196.2669,1095.8906 1195.6263,1096.2188 Q1195.0013,1096.5469 1194.5013,1097.2969 Q1194.0169,1098.0469 1194.0169,1099.0781 L1194.0169,1100.1719 Q1194.0169,1101.4063 1194.9075,1102.2344 Q1195.7981,1103.0469 1197.3919,1103.0469 Q1198.3294,1103.0469 1198.9856,1102.7969 Q1199.3763,1102.6406 1199.7981,1102.2031 Q1200.0638,1101.9375 1200.2044,1101.8594 Q1200.3606,1101.7813 1200.5638,1101.7813 Q1200.8919,1101.7813 1201.1419,1102.0469 Q1201.4075,1102.2969 1201.4075,1102.6406 Q1201.4075,1102.9844 1201.0638,1103.3906 Q1200.5638,1103.9688 1199.7669,1104.2969 Q1198.6888,1104.75 1197.3919,1104.75 Q1195.8763,1104.75 1194.6731,1104.125 Q1193.6888,1103.625 1193.0013,1102.5625 Q1192.3138,1101.4844 1192.3138,1100.2031 L1192.3138,1099.0469 Q1192.3138,1097.7188 1192.9231,1096.5781 Q1193.5481,1095.4219 1194.6419,1094.8125 Q1195.7356,1094.1875 1196.97,1094.1875 Q1197.7044,1094.1875 1198.345,1094.3594 Q1199.0013,1094.5156 1199.5481,1094.875 Z " fill="#000000"/><text fill="#000000" font-family="sans-serif" font-size="14" lengthAdjust="spacing" textLength="43.5859" x="1216.2897" y="1104.7969">Station</text><line style="stroke:#181818;stroke-width:0.5;" x1="1158" x2="1286.6582" y1="1115" y2="1115"/><text fill="#000000" font-family="sans-serif" font-size="14" lengthAdjust="spacing" textLength="84.0342" x="1163" y="1134.1074">-name: String</text><line style="stroke:#181818;stroke-width:0.5;" x1="1158" x2="1286.6582" y1="1141.6211" y2="1141.6211"/><text fill="#000000" font-family="sans-serif" font-size="14" lengthAdjust="spacing" textLength="118.6582" x="1163" y="1160.7285">+getName(): String</text><text fill="#000000" font-family="sans-serif" font-size="14" lengthAdjust="spacing" textLength="20.9932" x="1163" y="1179.3496">...()</text></g><!--class RailwayLine--><g id="elem_RailwayLine"><rect codeLine="83" fill="#F1F1F1" height="178.3477" id="RailwayLine" rx="2.5" ry="2.5" style="stroke:#181818;stroke-width:0.5;" width="231.0439" x="891" y="1046"/><ellipse cx="964.5308" cy="1062" fill="#ADD1B2" rx="11" ry="11" style="stroke:#181818;stroke-width:1.0;"/><path d="M967.2964,1057.875 Q967.4526,1057.6563 967.6401,1057.5469 Q967.8276,1057.4375 968.0464,1057.4375 Q968.4214,1057.4375 968.6558,1057.7031 Q968.8901,1057.9531 968.8901,1058.5625 L968.8901,1060.0156 Q968.8901,1060.625 968.6558,1060.8906 Q968.4214,1061.1563 968.0464,1061.1563 Q967.7026,1061.1563 967.4995,1060.9531 Q967.2964,1060.7656 967.187,1060.25 Q967.1401,1059.8906 966.9526,1059.7031 Q966.6245,1059.3281 966.0151,1059.1094 Q965.4058,1058.8906 964.7808,1058.8906 Q964.0151,1058.8906 963.3745,1059.2188 Q962.7495,1059.5469 962.2495,1060.2969 Q961.7651,1061.0469 961.7651,1062.0781 L961.7651,1063.1719 Q961.7651,1064.4063 962.6558,1065.2344 Q963.5464,1066.0469 965.1401,1066.0469 Q966.0776,1066.0469 966.7339,1065.7969 Q967.1245,1065.6406 967.5464,1065.2031 Q967.812,1064.9375 967.9526,1064.8594 Q968.1089,1064.7813 968.312,1064.7813 Q968.6401,1064.7813 968.8901,1065.0469 Q969.1558,1065.2969 969.1558,1065.6406 Q969.1558,1065.9844 968.812,1066.3906 Q968.312,1066.9688 967.5151,1067.2969 Q966.437,1067.75 965.1401,1067.75 Q963.6245,1067.75 962.4214,1067.125 Q961.437,1066.625 960.7495,1065.5625 Q960.062,1064.4844 960.062,1063.2031 L960.062,1062.0469 Q960.062,1060.7188 960.6714,1059.5781 Q961.2964,1058.4219 962.3901,1057.8125 Q963.4839,1057.1875 964.7183,1057.1875 Q965.4526,1057.1875 966.0933,1057.3594 Q966.7495,1057.5156 967.2964,1057.875 Z " fill="#000000"/><text fill="#000000" font-family="sans-serif" font-size="14" lengthAdjust="spacing" textLength="75.4824" x="985.0308" y="1067.7969">RailwayLine</text><line style="stroke:#181818;stroke-width:0.5;" x1="892" x2="1121.0439" y1="1078" y2="1078"/><text fill="#000000" font-family="sans-serif" font-size="14" lengthAdjust="spacing" textLength="105.0615" x="897" y="1097.1074">-station2: Station</text><text fill="#000000" font-family="sans-serif" font-size="14" lengthAdjust="spacing" textLength="105.0615" x="897" y="1115.7285">-station1: Station</text><text fill="#000000" font-family="sans-serif" font-size="14" lengthAdjust="spacing" textLength="145.5098" x="897" y="1134.3496">-type: RailwayLineType</text><line style="stroke:#181818;stroke-width:0.5;" x1="892" x2="1121.0439" y1="1141.8633" y2="1141.8633"/><text fill="#000000" font-family="sans-serif" font-size="14" lengthAdjust="spacing" textLength="170.0303" x="897" y="1160.9707">+getNameStation1(): String</text><text fill="#000000" font-family="sans-serif" font-size="14" lengthAdjust="spacing" textLength="170.0303" x="897" y="1179.5918">+getNameStation2(): String</text><text fill="#000000" font-family="sans-serif" font-size="14" lengthAdjust="spacing" textLength="219.0439" x="897" y="1198.2129">+getTypeEnum(): RailwayLineType</text><text fill="#000000" font-family="sans-serif" font-size="14" lengthAdjust="spacing" textLength="20.9932" x="897" y="1216.834">...()</text></g><!--link MaintenanceRailwayLineUI to MaintenanceRailwayLineController--><g id="link_MaintenanceRailwayLineUI_MaintenanceRailwayLineController"><path codeLine="95" d="M730.22,496.5 C741.77,496.5 747.45,496.5 758.85,496.5 " fill="none" id="MaintenanceRailwayLineUI-to-MaintenanceRailwayLineController" style="stroke:#181818;stroke-width:1.0;stroke-dasharray:7.0,7.0;"/><polygon fill="#181818" points="764.85,496.5,755.85,492.5,759.85,496.5,755.85,500.5,764.85,496.5" style="stroke:#181818;stroke-width:1.0;"/></g><!--link MaintenanceRailwayLineController to Utils_MDISC--><g id="link_MaintenanceRailwayLineController_Utils_MDISC"><path codeLine="96" d="M1464.18,496.5 C1476.32,496.5 1482.23,496.5 1493.31,496.5 " fill="none" id="MaintenanceRailwayLineController-to-Utils_MDISC" style="stroke:#181818;stroke-width:1.0;stroke-dasharray:7.0,7.0;"/><polygon fill="#181818" points="1499.31,496.5,1490.31,492.5,1494.31,496.5,1490.31,500.5,1499.31,496.5" style="stroke:#181818;stroke-width:1.0;"/></g><!--link MaintenanceRailwayLineController to Station--><g id="link_MaintenanceRailwayLineController_Station"><path codeLine="97" d="M1197.45,986.37 C1203.88,1024.27 1208.5262,1051.6646 1212.8262,1077.0046 " fill="none" id="MaintenanceRailwayLineController-to-Station" style="stroke:#181818;stroke-width:1.0;stroke-dasharray:7.0,7.0;"/><polygon fill="#181818" points="1213.83,1082.92,1216.2679,1073.3776,1212.9935,1077.9905,1208.3807,1074.716,1213.83,1082.92" style="stroke:#181818;stroke-width:1.0;"/></g><!--link MaintenanceRailwayLineController to RailwayLine--><g id="link_MaintenanceRailwayLineController_RailwayLine"><path codeLine="98" d="M1031.55,986.37 C1027.9,1007.91 1025.4913,1022.0441 1022.4513,1040.0041 " fill="none" id="MaintenanceRailwayLineController-to-RailwayLine" style="stroke:#181818;stroke-width:1.0;stroke-dasharray:7.0,7.0;"/><polygon fill="#181818" points="1021.45,1045.92,1026.8959,1037.7138,1022.2845,1040.9901,1019.0081,1036.3787,1021.45,1045.92" style="stroke:#181818;stroke-width:1.0;"/></g><!--link RailwayLine to Station--><g id="link_RailwayLine_Station"><path codeLine="99" d="M1122.04,1135 C1137.21,1135 1150.5,1135 1150.5,1135 C1150.5,1135 1146.82,1135 1150.64,1135 " fill="none" id="RailwayLine-to-Station" style="stroke:#181818;stroke-width:1.0;stroke-dasharray:7.0,7.0;"/><polygon fill="#181818" points="1156.64,1135,1147.64,1131,1151.64,1135,1147.64,1139,1156.64,1135" style="stroke:#181818;stroke-width:1.0;"/></g><!--SRC=[ZLTBJnin4BxdL-nnKI0g755LARogI3mg0lI0K6Ls9ucBOqUs4qYh_lUETzUExLrlo045ppSFptmpuwWtobT4acMs8iKRcSDKRnba4WfD-9p1G3c0Mf1Il5C-psQ4AL_2A0UzNK6s4cnh_Xbume8HfSPQI_gwrZ0f19_IFv1z6GmgINP3ADV02I_Wdb3sJhRNQE5nalqTPFWvob13Iy4OoDC4-DmXAfLXqcQkDD5Ky6kgz6bc_dwTrYVV3ZEvGzRo6k0PG90gqAoaufOi0H5Jl1QV7pHkvPhd1wVPHj3InhuGGlanF62Q3EPL20Q41x09fveIraIKGZqiu1O-T8DIaSCLngElA2VCoy4FeXSEzwy_yRjSkWAaazO0DeJHqWRK3H5bUG5p2T22cGHQ567Cn625VkejOeDdv9N17fm2XXG64vNKwA4_kWr83HzrW1OomUJCGJg3GU7hi1lHZ4fbwp5cSo6fNYmDfZffG1wxb251P4F1abwkCUkKyBZka3YVTPIvwtx3lQNkxGkMoFHXPqviByp1fiGe6lPr1QP2L3eCd-MLyN535MUvHOBQUe87-IS9ql8xzUviV7jLh1twyiu41HPHupvYHfwYIalpoU-xlAyBMzT8ZOYk8fbRuyYEoecgBNcGoIGm2BiRrGXDtbJ4dzsy66Qaj7OUHBl2zHVNYAqSN9EgRNsjkgAxlXsQxMEcWxNwKDNI6U_8SqUO4fPYuoRV9E2wQlMR5TnNMcaFhHhL9sVRYdeyf5nugTSrPUMu_4sGdyNsXY3geod2yylpoywcnyqpqEy0F4xliNNY0Z_nt7hwGIxCmPKKot4mpdCpQWAbi6OpoZJ8Lh-q-i8EKaFgheKxpCnhvMvcSTybMIswchdg4jiQeGKSlgNL_sGV6HMRlf-u8-xiJenkK11Mh1dHyEIlfGX4rQtGLU0undarolg3h29JXkwE3OTz2xVd4ezyGnL5ZmROwhFqnkWa1BBiRhKInfvjmcwBCJ52IiVZq6N5RObeZiUuCHTw0J8LGo8Tc8WrkbNLuTsiYV0MUqN8jpocBzOVsz9GqhMHhWPyiI3oCEjTVw5tzufxr9IfNpSNa-bvys1Bj7VVYj_xgchD1X9QnwUmBn-DHld1BiR6aOiFqz-nFeyo7h-j8ZjUHB6jniLnguj3-KdBfp-q_FUQFzvydg4zKxzBlbxc8P_DSQDS5xLBvcuq62H_-8o-xV-Ti_VnZaOyQkp77w62lUbdZFkDxDV5C_CV]--></g></svg>