<svg xmlns="http://www.w3.org/2000/svg" xmlns:xlink="http://www.w3.org/1999/xlink" contentStyleType="text/css" height="841px" preserveAspectRatio="none" style="width:1163px;height:841px;background:#FFFFFF;" version="1.1" viewBox="0 0 1163 841" width="1163.5px" zoomAndPan="magnify"><defs/><g><rect fill="#FFFFFF" height="747.9219" style="stroke:#181818;stroke-width:0.5;" width="5" x="23.9207" y="46.8105"/><rect fill="#FFFFFF" height="607.4424" style="stroke:#181818;stroke-width:0.5;" width="5" x="153.7603" y="58.4561"/><rect fill="#FFFFFF" height="15.6455" style="stroke:#181818;stroke-width:0.5;" width="5" x="153.7603" y="768.0869"/><rect fill="#FFFFFF" height="720.6309" style="stroke:#181818;stroke-width:0.5;" width="5" x="301.7551" y="74.1016"/><rect fill="#FFFFFF" height="15.6455" style="stroke:#181818;stroke-width:0.5;" width="5" x="399.5168" y="102.8926"/><rect fill="#FFFFFF" height="15.6455" style="stroke:#181818;stroke-width:0.5;" width="5" x="451.396" y="134.1836"/><rect fill="#FFFFFF" height="37.4561" style="stroke:#181818;stroke-width:0.5;" width="5" x="502.6924" y="165.4746"/><rect fill="#FFFFFF" height="15.6455" style="stroke:#181818;stroke-width:0.5;" width="5" x="631.5488" y="218.5762"/><rect fill="#FFFFFF" height="15.6455" style="stroke:#181818;stroke-width:0.5;" width="5" x="631.5488" y="736.7959"/><rect fill="#FFFFFF" height="15.6455" style="stroke:#181818;stroke-width:0.5;" width="5" x="675.6487" y="249.8672"/><rect fill="#FFFFFF" height="15.6455" style="stroke:#181818;stroke-width:0.5;" width="5" x="675.6487" y="605.8164"/><rect fill="#FFFFFF" height="15.6455" style="stroke:#181818;stroke-width:0.5;" width="5" x="675.6487" y="705.5049"/><rect fill="#FFFFFF" height="174.3486" style="stroke:#181818;stroke-width:0.5;" width="5" x="735.7002" y="319.9492"/><rect fill="#FFFFFF" height="14" style="stroke:#181818;stroke-width:0.5;" width="5" x="738.2002" y="405.1963"/><rect fill="#FFFFFF" height="15" style="stroke:#181818;stroke-width:0.5;" width="5" x="832.9128" y="370.5508"/><rect fill="#FFFFFF" height="15" style="stroke:#181818;stroke-width:0.5;" width="5" x="962.7986" y="460.1523"/><rect fill="none" height="210.0566" style="stroke:#000000;stroke-width:0.75;" width="637.2522" x="259.1863" y="81.6016"/><rect fill="none" height="215.2852" style="stroke:#000000;stroke-width:0.75;" width="1041.4412" x="119.3586" y="298.6582"/><rect fill="none" height="129.8926" style="stroke:#000000;stroke-width:0.75;" width="456.8374" x="698.9624" y="349.2598"/><rect fill="none" height="56.582" style="stroke:#000000;stroke-width:0.75;" width="339.324" x="10" y="520.9434"/><rect fill="none" height="206.707" style="stroke:#000000;stroke-width:0.75;" width="703.9624" x="5" y="584.5254"/><rect fill="none" height="158.7705" style="stroke:#000000;stroke-width:0.75;" width="693.9624" x="10" y="628.9619"/><line style="stroke:#181818;stroke-width:0.25;stroke-dasharray:5.0,5.0;" x1="26" x2="26" y1="41.8105" y2="799.7324"/><line style="stroke:#181818;stroke-width:0.25;stroke-dasharray:5.0,5.0;" x1="155.8586" x2="155.8586" y1="41.8105" y2="799.7324"/><line style="stroke:#181818;stroke-width:0.25;stroke-dasharray:5.0,5.0;" x1="304.1863" x2="304.1863" y1="41.8105" y2="799.7324"/><line style="stroke:#181818;stroke-width:0.25;stroke-dasharray:5.0,5.0;" x1="401.5635" x2="401.5635" y1="41.8105" y2="799.7324"/><line style="stroke:#181818;stroke-width:0.25;stroke-dasharray:5.0,5.0;" x1="453.4702" x2="453.4702" y1="41.8105" y2="799.7324"/><line style="stroke:#181818;stroke-width:0.25;stroke-dasharray:5.0,5.0;" x1="504.8218" x2="504.8218" y1="41.8105" y2="799.7324"/><line style="stroke:#181818;stroke-width:0.25;stroke-dasharray:5.0,5.0;" x1="571.563" x2="571.563" y1="41.8105" y2="799.7324"/><line style="stroke:#181818;stroke-width:0.25;stroke-dasharray:5.0,5.0;" x1="633.7627" x2="633.7627" y1="41.8105" y2="799.7324"/><line style="stroke:#181818;stroke-width:0.25;stroke-dasharray:5.0,5.0;" x1="677.835" x2="677.835" y1="41.8105" y2="799.7324"/><line style="stroke:#181818;stroke-width:0.25;stroke-dasharray:5.0,5.0;" x1="737.9624" x2="737.9624" y1="41.8105" y2="799.7324"/><line style="stroke:#181818;stroke-width:0.25;stroke-dasharray:5.0,5.0;" x1="835.3872" x2="835.3872" y1="185.3799" y2="799.7324"/><line style="stroke:#181818;stroke-width:0.25;stroke-dasharray:5.0,5.0;" x1="964.9385" x2="964.9385" y1="339.8545" y2="799.7324"/><line style="stroke:#181818;stroke-width:0.25;stroke-dasharray:5.0,5.0;" x1="1094.6587" x2="1094.6587" y1="442.6016" y2="799.7324"/><text fill="#000000" font-family="sans-serif" font-size="7" lengthAdjust="spacing" textLength="19.8413" x="15" y="40.0537">Player</text><ellipse cx="26.4207" cy="6.75" fill="#E2E2F0" rx="4" ry="4" style="stroke:#181818;stroke-width:0.25;"/><path d="M26.4207,10.75 L26.4207,24.25 M19.9207,14.75 L32.9207,14.75 M26.4207,24.25 L19.9207,31.75 M26.4207,24.25 L32.9207,31.75 " fill="none" style="stroke:#181818;stroke-width:0.25;"/><text fill="#000000" font-family="sans-serif" font-size="7" lengthAdjust="spacing" textLength="19.8413" x="15" y="806.7861">Player</text><ellipse cx="26.4207" cy="812.793" fill="#E2E2F0" rx="4" ry="4" style="stroke:#181818;stroke-width:0.25;"/><path d="M26.4207,816.793 L26.4207,830.293 M19.9207,820.793 L32.9207,820.793 M26.4207,830.293 L19.9207,837.793 M26.4207,830.293 L32.9207,837.793 " fill="none" style="stroke:#181818;stroke-width:0.25;"/><rect fill="#E2E2F0" height="16.3105" rx="1.25" ry="1.25" style="stroke:#181818;stroke-width:0.25;" width="63.8032" x="124.3586" y="25"/><text fill="#000000" font-family="sans-serif" font-size="7" lengthAdjust="spacing" textLength="56.8032" x="127.8586" y="36.0537">:BuyLocomotiveUI</text><rect fill="#E2E2F0" height="16.3105" rx="1.25" ry="1.25" style="stroke:#181818;stroke-width:0.25;" width="63.8032" x="124.3586" y="799.2324"/><text fill="#000000" font-family="sans-serif" font-size="7" lengthAdjust="spacing" textLength="56.8032" x="127.8586" y="810.2861">:BuyLocomotiveUI</text><rect fill="#E2E2F0" height="16.3105" rx="1.25" ry="1.25" style="stroke:#181818;stroke-width:0.25;" width="80.1377" x="264.1863" y="25"/><text fill="#000000" font-family="sans-serif" font-size="7" lengthAdjust="spacing" textLength="73.1377" x="267.6863" y="36.0537">:BuyTrainPartController</text><rect fill="#E2E2F0" height="16.3105" rx="1.25" ry="1.25" style="stroke:#181818;stroke-width:0.25;" width="80.1377" x="264.1863" y="799.2324"/><text fill="#000000" font-family="sans-serif" font-size="7" lengthAdjust="spacing" textLength="73.1377" x="267.6863" y="810.2861">:BuyTrainPartController</text><rect fill="#E2E2F0" height="16.3105" rx="1.25" ry="1.25" style="stroke:#181818;stroke-width:0.25;" width="45.9067" x="379.0635" y="25"/><text fill="#000000" font-family="sans-serif" font-size="7" lengthAdjust="spacing" textLength="38.9067" x="382.5635" y="36.0537">Repositories</text><rect fill="#E2E2F0" height="16.3105" rx="1.25" ry="1.25" style="stroke:#181818;stroke-width:0.25;" width="45.9067" x="379.0635" y="799.2324"/><text fill="#000000" font-family="sans-serif" font-size="7" lengthAdjust="spacing" textLength="38.9067" x="382.5635" y="810.2861">Repositories</text><rect fill="#E2E2F0" height="25.6211" rx="1.25" ry="1.25" style="stroke:#181818;stroke-width:0.25;" width="47.8516" x="429.9702" y="15.6895"/><text fill="#000000" font-family="sans-serif" font-size="7" lengthAdjust="spacing" textLength="36.1826" x="435.8047" y="26.7432">repositories</text><text fill="#000000" font-family="sans-serif" font-size="7" lengthAdjust="spacing" textLength="40.8516" x="433.4702" y="36.0537">:Repositories</text><rect fill="#E2E2F0" height="25.6211" rx="1.25" ry="1.25" style="stroke:#181818;stroke-width:0.25;" width="47.8516" x="429.9702" y="799.2324"/><text fill="#000000" font-family="sans-serif" font-size="7" lengthAdjust="spacing" textLength="36.1826" x="435.8047" y="810.2861">repositories</text><text fill="#000000" font-family="sans-serif" font-size="7" lengthAdjust="spacing" textLength="40.8516" x="433.4702" y="819.5967">:Repositories</text><rect fill="#E2E2F0" height="16.3105" rx="1.25" ry="1.25" style="stroke:#181818;stroke-width:0.25;" width="44.7412" x="482.8218" y="25"/><text fill="#000000" font-family="sans-serif" font-size="7" lengthAdjust="spacing" textLength="37.7412" x="486.3218" y="36.0537">:Locomotive</text><rect fill="#E2E2F0" height="16.3105" rx="1.25" ry="1.25" style="stroke:#181818;stroke-width:0.25;" width="44.7412" x="482.8218" y="799.2324"/><text fill="#000000" font-family="sans-serif" font-size="7" lengthAdjust="spacing" textLength="37.7412" x="486.3218" y="810.2861">:Locomotive</text><rect fill="#E2E2F0" height="25.6211" rx="1.25" ry="1.25" style="stroke:#181818;stroke-width:0.25;" width="78.1997" x="532.563" y="15.6895"/><text fill="#000000" font-family="sans-serif" font-size="7" lengthAdjust="spacing" textLength="66.917" x="538.2043" y="26.7432">locomotiveRepository</text><text fill="#000000" font-family="sans-serif" font-size="7" lengthAdjust="spacing" textLength="71.1997" x="536.063" y="36.0537">:LocomotiveRepository</text><rect fill="#E2E2F0" height="25.6211" rx="1.25" ry="1.25" style="stroke:#181818;stroke-width:0.25;" width="78.1997" x="532.563" y="799.2324"/><text fill="#000000" font-family="sans-serif" font-size="7" lengthAdjust="spacing" textLength="66.917" x="538.2043" y="810.2861">locomotiveRepository</text><text fill="#000000" font-family="sans-serif" font-size="7" lengthAdjust="spacing" textLength="71.1997" x="536.063" y="819.5967">:LocomotiveRepository</text><rect fill="#E2E2F0" height="16.3105" rx="1.25" ry="1.25" style="stroke:#181818;stroke-width:0.25;" width="36.5723" x="615.7627" y="25"/><text fill="#000000" font-family="sans-serif" font-size="7" lengthAdjust="spacing" textLength="29.5723" x="619.2627" y="36.0537">:Scenario</text><rect fill="#E2E2F0" height="16.3105" rx="1.25" ry="1.25" style="stroke:#181818;stroke-width:0.25;" width="36.5723" x="615.7627" y="799.2324"/><text fill="#000000" font-family="sans-serif" font-size="7" lengthAdjust="spacing" textLength="29.5723" x="619.2627" y="810.2861">:Scenario</text><rect fill="#E2E2F0" height="16.3105" rx="1.25" ry="1.25" style="stroke:#181818;stroke-width:0.25;" width="41.6274" x="657.335" y="25"/><text fill="#000000" font-family="sans-serif" font-size="7" lengthAdjust="spacing" textLength="34.6274" x="660.835" y="36.0537">:Simulation</text><rect fill="#E2E2F0" height="16.3105" rx="1.25" ry="1.25" style="stroke:#181818;stroke-width:0.25;" width="41.6274" x="657.335" y="799.2324"/><text fill="#000000" font-family="sans-serif" font-size="7" lengthAdjust="spacing" textLength="34.6274" x="660.835" y="810.2861">:Simulation</text><rect fill="#E2E2F0" height="16.3105" rx="1.25" ry="1.25" style="stroke:#181818;stroke-width:0.25;" width="68.4756" x="703.9624" y="25"/><text fill="#000000" font-family="sans-serif" font-size="7" lengthAdjust="spacing" textLength="61.4756" x="707.4624" y="36.0537">:LocomotiveMapper</text><rect fill="#E2E2F0" height="16.3105" rx="1.25" ry="1.25" style="stroke:#181818;stroke-width:0.25;" width="68.4756" x="703.9624" y="799.2324"/><text fill="#000000" font-family="sans-serif" font-size="7" lengthAdjust="spacing" textLength="61.4756" x="707.4624" y="810.2861">:LocomotiveMapper</text><rect fill="#E2E2F0" height="16.3105" rx="1.25" ry="1.25" style="stroke:#181818;stroke-width:0.25;" width="112.0513" x="779.3872" y="799.2324"/><text fill="#000000" font-family="sans-serif" font-size="7" lengthAdjust="spacing" textLength="105.0513" x="782.8872" y="810.2861">locomotiveList : List&lt;Locomotive&gt;</text><rect fill="#E2E2F0" height="16.3105" rx="1.25" ry="1.25" style="stroke:#181818;stroke-width:0.25;" width="137.7202" x="896.4385" y="799.2324"/><text fill="#000000" font-family="sans-serif" font-size="7" lengthAdjust="spacing" textLength="130.7202" x="899.9385" y="810.2861">locomotiveDtoList : List&lt;LocomotiveDTO&gt;</text><rect fill="#E2E2F0" height="16.3105" rx="1.25" ry="1.25" style="stroke:#181818;stroke-width:0.25;" width="111.6411" x="1039.1587" y="799.2324"/><text fill="#000000" font-family="sans-serif" font-size="7" lengthAdjust="spacing" textLength="104.6411" x="1042.6587" y="810.2861">locomotiveDTO : LocomotiveDTO</text><rect fill="#FFFFFF" height="747.9219" style="stroke:#181818;stroke-width:0.5;" width="5" x="23.9207" y="46.8105"/><rect fill="#FFFFFF" height="607.4424" style="stroke:#181818;stroke-width:0.5;" width="5" x="153.7603" y="58.4561"/><rect fill="#FFFFFF" height="15.6455" style="stroke:#181818;stroke-width:0.5;" width="5" x="153.7603" y="768.0869"/><rect fill="#FFFFFF" height="720.6309" style="stroke:#181818;stroke-width:0.5;" width="5" x="301.7551" y="74.1016"/><rect fill="#FFFFFF" height="15.6455" style="stroke:#181818;stroke-width:0.5;" width="5" x="399.5168" y="102.8926"/><rect fill="#FFFFFF" height="15.6455" style="stroke:#181818;stroke-width:0.5;" width="5" x="451.396" y="134.1836"/><rect fill="#FFFFFF" height="37.4561" style="stroke:#181818;stroke-width:0.5;" width="5" x="502.6924" y="165.4746"/><rect fill="#FFFFFF" height="15.6455" style="stroke:#181818;stroke-width:0.5;" width="5" x="631.5488" y="218.5762"/><rect fill="#FFFFFF" height="15.6455" style="stroke:#181818;stroke-width:0.5;" width="5" x="631.5488" y="736.7959"/><rect fill="#FFFFFF" height="15.6455" style="stroke:#181818;stroke-width:0.5;" width="5" x="675.6487" y="249.8672"/><rect fill="#FFFFFF" height="15.6455" style="stroke:#181818;stroke-width:0.5;" width="5" x="675.6487" y="605.8164"/><rect fill="#FFFFFF" height="15.6455" style="stroke:#181818;stroke-width:0.5;" width="5" x="675.6487" y="705.5049"/><rect fill="#FFFFFF" height="174.3486" style="stroke:#181818;stroke-width:0.5;" width="5" x="735.7002" y="319.9492"/><rect fill="#FFFFFF" height="14" style="stroke:#181818;stroke-width:0.5;" width="5" x="738.2002" y="405.1963"/><rect fill="#FFFFFF" height="15" style="stroke:#181818;stroke-width:0.5;" width="5" x="832.9128" y="370.5508"/><rect fill="#FFFFFF" height="15" style="stroke:#181818;stroke-width:0.5;" width="5" x="962.7986" y="460.1523"/><polygon fill="#181818" points="147.7603,56.4561,152.7603,58.4561,147.7603,60.4561,149.7603,58.4561" style="stroke:#181818;stroke-width:0.5;"/><line style="stroke:#181818;stroke-width:0.5;" x1="28.9207" x2="150.7603" y1="58.4561" y2="58.4561"/><text fill="#000000" font-family="sans-serif" font-size="6.5" font-weight="bold" lengthAdjust="spacing" textLength="3.615" x="32.4207" y="55.8247">1</text><text fill="#000000" font-family="sans-serif" font-size="6.5" lengthAdjust="spacing" textLength="82.7385" x="38.0356" y="55.8247">requests to buy a locomotive</text><polygon fill="#181818" points="295.7551,72.1016,300.7551,74.1016,295.7551,76.1016,297.7551,74.1016" style="stroke:#181818;stroke-width:0.5;"/><line style="stroke:#181818;stroke-width:0.5;" x1="158.7603" x2="298.7551" y1="74.1016" y2="74.1016"/><text fill="#000000" font-family="sans-serif" font-size="6.5" font-weight="bold" lengthAdjust="spacing" textLength="3.615" x="162.2603" y="71.4702">2</text><text fill="#000000" font-family="sans-serif" font-size="6.5" lengthAdjust="spacing" textLength="127.8799" x="167.8752" y="71.4702">BuyTrainPartController(scenario, simulation)</text><path d="M259.1863,81.6016 L380.2971,81.6016 L380.2971,86.2471 L375.2971,91.2471 L259.1863,91.2471 L259.1863,81.6016 " fill="#EEEEEE" style="stroke:#000000;stroke-width:0.75;"/><rect fill="none" height="210.0566" style="stroke:#000000;stroke-width:0.75;" width="637.2522" x="259.1863" y="81.6016"/><text fill="#000000" font-family="sans-serif" font-size="6.5" font-weight="bold" lengthAdjust="spacing" textLength="98.6108" x="266.6863" y="89.1157">Retrieve and Filter Locomotives</text><polygon fill="#181818" points="393.5168,100.8926,398.5168,102.8926,393.5168,104.8926,395.5168,102.8926" style="stroke:#181818;stroke-width:0.5;"/><line style="stroke:#181818;stroke-width:0.5;" x1="306.7551" x2="396.5168" y1="102.8926" y2="102.8926"/><text fill="#000000" font-family="sans-serif" font-size="6.5" font-weight="bold" lengthAdjust="spacing" textLength="3.615" x="310.2551" y="100.2612">3</text><text fill="#000000" font-family="sans-serif" font-size="6.5" lengthAdjust="spacing" textLength="37.9368" x="315.8701" y="100.2612">getInstance()</text><polygon fill="#181818" points="312.2551,116.5381,307.2551,118.5381,312.2551,120.5381,310.2551,118.5381" style="stroke:#181818;stroke-width:0.5;"/><line style="stroke:#181818;stroke-width:0.5;stroke-dasharray:2.0,2.0;" x1="309.2551" x2="401.5168" y1="118.5381" y2="118.5381"/><text fill="#000000" font-family="sans-serif" font-size="6.5" font-weight="bold" lengthAdjust="spacing" textLength="3.615" x="315.2551" y="115.9067">4</text><text fill="#000000" font-family="sans-serif" font-size="6.5" lengthAdjust="spacing" textLength="33.5981" x="320.8701" y="115.9067">repositories</text><polygon fill="#181818" points="445.396,132.1836,450.396,134.1836,445.396,136.1836,447.396,134.1836" style="stroke:#181818;stroke-width:0.5;"/><line style="stroke:#181818;stroke-width:0.5;" x1="306.7551" x2="448.396" y1="134.1836" y2="134.1836"/><text fill="#000000" font-family="sans-serif" font-size="6.5" font-weight="bold" lengthAdjust="spacing" textLength="3.615" x="310.2551" y="131.5522">5</text><text fill="#000000" font-family="sans-serif" font-size="6.5" lengthAdjust="spacing" textLength="77.6731" x="315.8701" y="131.5522">getLocomotiveRepository()</text><polygon fill="#181818" points="312.2551,147.8291,307.2551,149.8291,312.2551,151.8291,310.2551,149.8291" style="stroke:#181818;stroke-width:0.5;"/><line style="stroke:#181818;stroke-width:0.5;stroke-dasharray:2.0,2.0;" x1="309.2551" x2="453.396" y1="149.8291" y2="149.8291"/><text fill="#000000" font-family="sans-serif" font-size="6.5" font-weight="bold" lengthAdjust="spacing" textLength="3.615" x="315.2551" y="147.1978">6</text><text fill="#000000" font-family="sans-serif" font-size="6.5" lengthAdjust="spacing" textLength="62.1372" x="320.8701" y="147.1978">locomotiveRepository</text><polygon fill="#181818" points="496.6924,163.4746,501.6924,165.4746,496.6924,167.4746,498.6924,165.4746" style="stroke:#181818;stroke-width:0.5;"/><line style="stroke:#181818;stroke-width:0.5;" x1="306.7551" x2="499.6924" y1="165.4746" y2="165.4746"/><text fill="#000000" font-family="sans-serif" font-size="6.5" font-weight="bold" lengthAdjust="spacing" textLength="3.615" x="310.2551" y="162.8433">7</text><text fill="#000000" font-family="sans-serif" font-size="6.5" lengthAdjust="spacing" textLength="57.0781" x="315.8701" y="162.8433">getAllLocomotives()</text><polygon fill="#181818" points="773.3872,179.1201,778.3872,181.1201,773.3872,183.1201,775.3872,181.1201" style="stroke:#181818;stroke-width:0.5;"/><line style="stroke:#181818;stroke-width:0.5;" x1="507.6924" x2="776.3872" y1="181.1201" y2="181.1201"/><text fill="#000000" font-family="sans-serif" font-size="6.5" font-weight="bold" lengthAdjust="spacing" textLength="3.615" x="511.1924" y="178.4888">8</text><text fill="#000000" font-family="sans-serif" font-size="6.5" lengthAdjust="spacing" textLength="22.3945" x="516.8074" y="178.4888">create()</text><rect fill="#E2E2F0" height="16.3105" rx="1.25" ry="1.25" style="stroke:#181818;stroke-width:0.25;" width="112.0513" x="779.3872" y="169.4746"/><text fill="#000000" font-family="sans-serif" font-size="7" lengthAdjust="spacing" textLength="105.0513" x="782.8872" y="180.5283">locomotiveList : List&lt;Locomotive&gt;</text><polygon fill="#181818" points="312.2551,200.9307,307.2551,202.9307,312.2551,204.9307,310.2551,202.9307" style="stroke:#181818;stroke-width:0.5;"/><line style="stroke:#181818;stroke-width:0.5;stroke-dasharray:2.0,2.0;" x1="309.2551" x2="504.6924" y1="202.9307" y2="202.9307"/><text fill="#000000" font-family="sans-serif" font-size="6.5" font-weight="bold" lengthAdjust="spacing" textLength="3.615" x="315.2551" y="200.2993">9</text><text fill="#000000" font-family="sans-serif" font-size="6.5" lengthAdjust="spacing" textLength="53.1077" x="320.8701" y="200.2993">allLocomotivesList</text><polygon fill="#181818" points="625.5488,216.5762,630.5488,218.5762,625.5488,220.5762,627.5488,218.5762" style="stroke:#181818;stroke-width:0.5;"/><line style="stroke:#181818;stroke-width:0.5;" x1="306.7551" x2="628.5488" y1="218.5762" y2="218.5762"/><text fill="#000000" font-family="sans-serif" font-size="6.5" font-weight="bold" lengthAdjust="spacing" textLength="7.23" x="310.2551" y="215.9448">10</text><text fill="#000000" font-family="sans-serif" font-size="6.5" lengthAdjust="spacing" textLength="83.0972" x="319.4851" y="215.9448">getAvailableLocomotiveList()</text><polygon fill="#181818" points="312.2551,232.2217,307.2551,234.2217,312.2551,236.2217,310.2551,234.2217" style="stroke:#181818;stroke-width:0.5;"/><line style="stroke:#181818;stroke-width:0.5;stroke-dasharray:2.0,2.0;" x1="309.2551" x2="633.5488" y1="234.2217" y2="234.2217"/><text fill="#000000" font-family="sans-serif" font-size="6.5" font-weight="bold" lengthAdjust="spacing" textLength="7.23" x="315.2551" y="231.5903">11</text><text fill="#000000" font-family="sans-serif" font-size="6.5" lengthAdjust="spacing" textLength="62.1467" x="324.4851" y="231.5903">availableLocomotives</text><polygon fill="#181818" points="669.6487,247.8672,674.6487,249.8672,669.6487,251.8672,671.6487,249.8672" style="stroke:#181818;stroke-width:0.5;"/><line style="stroke:#181818;stroke-width:0.5;" x1="306.7551" x2="672.6487" y1="249.8672" y2="249.8672"/><text fill="#000000" font-family="sans-serif" font-size="6.5" font-weight="bold" lengthAdjust="spacing" textLength="7.23" x="310.2551" y="247.2358">12</text><text fill="#000000" font-family="sans-serif" font-size="6.5" lengthAdjust="spacing" textLength="49.4832" x="319.4851" y="247.2358">getCurrentTime()</text><polygon fill="#181818" points="312.2551,263.5127,307.2551,265.5127,312.2551,267.5127,310.2551,265.5127" style="stroke:#181818;stroke-width:0.5;"/><line style="stroke:#181818;stroke-width:0.5;stroke-dasharray:2.0,2.0;" x1="309.2551" x2="677.6487" y1="265.5127" y2="265.5127"/><text fill="#000000" font-family="sans-serif" font-size="6.5" font-weight="bold" lengthAdjust="spacing" textLength="7.23" x="315.2551" y="262.8813">13</text><text fill="#000000" font-family="sans-serif" font-size="6.5" lengthAdjust="spacing" textLength="34.6741" x="324.4851" y="262.8813">currentTime</text><line style="stroke:#181818;stroke-width:0.5;" x1="306.7551" x2="327.7551" y1="281.1582" y2="281.1582"/><line style="stroke:#181818;stroke-width:0.5;" x1="327.7551" x2="327.7551" y1="281.1582" y2="287.6582"/><line style="stroke:#181818;stroke-width:0.5;" x1="307.2551" x2="327.7551" y1="287.6582" y2="287.6582"/><polygon fill="#181818" points="312.2551,285.6582,307.2551,287.6582,312.2551,289.6582,310.2551,287.6582" style="stroke:#181818;stroke-width:0.5;"/><text fill="#000000" font-family="sans-serif" font-size="6.5" font-weight="bold" lengthAdjust="spacing" textLength="7.23" x="310.2551" y="278.5269">14</text><text fill="#000000" font-family="sans-serif" font-size="6.5" lengthAdjust="spacing" textLength="71.5317" x="319.4851" y="278.5269">filter locomotives by date</text><path d="M119.3586,298.6582 L178.3259,298.6582 L178.3259,303.3037 L173.3259,308.3037 L119.3586,308.3037 L119.3586,298.6582 " fill="#EEEEEE" style="stroke:#000000;stroke-width:0.75;"/><rect fill="none" height="215.2852" style="stroke:#000000;stroke-width:0.75;" width="1041.4412" x="119.3586" y="298.6582"/><text fill="#000000" font-family="sans-serif" font-size="6.5" font-weight="bold" lengthAdjust="spacing" textLength="36.4673" x="126.8586" y="306.1724">Map to DTO</text><polygon fill="#181818" points="729.7002,317.9492,734.7002,319.9492,729.7002,321.9492,731.7002,319.9492" style="stroke:#181818;stroke-width:0.5;"/><line style="stroke:#181818;stroke-width:0.5;" x1="306.7551" x2="732.7002" y1="319.9492" y2="319.9492"/><text fill="#000000" font-family="sans-serif" font-size="6.5" font-weight="bold" lengthAdjust="spacing" textLength="7.23" x="310.2551" y="317.3179">15</text><text fill="#000000" font-family="sans-serif" font-size="6.5" lengthAdjust="spacing" textLength="64.6541" x="319.4851" y="317.3179">toDTO(locomotiveList)</text><polygon fill="#181818" points="890.4385,333.5947,895.4385,335.5947,890.4385,337.5947,892.4385,335.5947" style="stroke:#181818;stroke-width:0.5;"/><line style="stroke:#181818;stroke-width:0.5;" x1="740.7002" x2="893.4385" y1="335.5947" y2="335.5947"/><text fill="#000000" font-family="sans-serif" font-size="6.5" font-weight="bold" lengthAdjust="spacing" textLength="7.23" x="744.2002" y="332.9634">16</text><text fill="#000000" font-family="sans-serif" font-size="6.5" lengthAdjust="spacing" textLength="22.3945" x="753.4302" y="332.9634">create()</text><rect fill="#E2E2F0" height="16.3105" rx="1.25" ry="1.25" style="stroke:#181818;stroke-width:0.25;" width="137.7202" x="896.4385" y="323.9492"/><text fill="#000000" font-family="sans-serif" font-size="7" lengthAdjust="spacing" textLength="130.7202" x="899.9385" y="335.0029">locomotiveDtoList : List&lt;LocomotiveDTO&gt;</text><path d="M698.9624,349.2598 L735.1797,349.2598 L735.1797,353.9053 L730.1797,358.9053 L698.9624,358.9053 L698.9624,349.2598 " fill="#EEEEEE" style="stroke:#000000;stroke-width:0.75;"/><rect fill="none" height="129.8926" style="stroke:#000000;stroke-width:0.75;" width="456.8374" x="698.9624" y="349.2598"/><text fill="#000000" font-family="sans-serif" font-size="6.5" font-weight="bold" lengthAdjust="spacing" textLength="13.7173" x="706.4624" y="356.7739">loop</text><text fill="#000000" font-family="sans-serif" font-size="5.5" font-weight="bold" lengthAdjust="spacing" textLength="102.3757" x="742.6797" y="356.1948">[for each locomotive in locomotiveList]</text><polygon fill="#181818" points="826.9128,368.5508,831.9128,370.5508,826.9128,372.5508,828.9128,370.5508" style="stroke:#181818;stroke-width:0.5;"/><line style="stroke:#181818;stroke-width:0.5;" x1="740.7002" x2="829.9128" y1="370.5508" y2="370.5508"/><text fill="#000000" font-family="sans-serif" font-size="6.5" font-weight="bold" lengthAdjust="spacing" textLength="7.23" x="744.2002" y="367.9194">17</text><text fill="#000000" font-family="sans-serif" font-size="6.5" lengthAdjust="spacing" textLength="28.9041" x="753.4302" y="367.9194">get(index)</text><line style="stroke:#181818;stroke-width:0.5;" x1="743.2002" x2="764.2002" y1="401.1963" y2="401.1963"/><line style="stroke:#181818;stroke-width:0.5;" x1="764.2002" x2="764.2002" y1="401.1963" y2="407.6963"/><line style="stroke:#181818;stroke-width:0.5;" x1="743.7002" x2="764.2002" y1="407.6963" y2="407.6963"/><polygon fill="#181818" points="748.7002,405.6963,743.7002,407.6963,748.7002,409.6963,746.7002,407.6963" style="stroke:#181818;stroke-width:0.5;"/><text fill="#000000" font-family="sans-serif" font-size="6.5" font-weight="bold" lengthAdjust="spacing" textLength="7.23" x="746.7002" y="398.5649">18</text><text fill="#000000" font-family="sans-serif" font-size="6.5" lengthAdjust="spacing" textLength="70.9827" x="755.9302" y="398.5649">dto = toDTO(locomotive)</text><polygon fill="#181818" points="1033.1587,436.3418,1038.1587,438.3418,1033.1587,440.3418,1035.1587,438.3418" style="stroke:#181818;stroke-width:0.5;"/><line style="stroke:#181818;stroke-width:0.5;" x1="740.7002" x2="1036.1587" y1="438.3418" y2="438.3418"/><text fill="#000000" font-family="sans-serif" font-size="6.5" font-weight="bold" lengthAdjust="spacing" textLength="7.23" x="744.2002" y="435.7104">19</text><text fill="#000000" font-family="sans-serif" font-size="6.5" lengthAdjust="spacing" textLength="22.3945" x="753.4302" y="435.7104">create()</text><rect fill="#E2E2F0" height="16.3105" rx="1.25" ry="1.25" style="stroke:#181818;stroke-width:0.25;" width="111.6411" x="1039.1587" y="426.6963"/><text fill="#000000" font-family="sans-serif" font-size="7" lengthAdjust="spacing" textLength="104.6411" x="1042.6587" y="437.75">locomotiveDTO : LocomotiveDTO</text><polygon fill="#181818" points="956.7986,458.1523,961.7986,460.1523,956.7986,462.1523,958.7986,460.1523" style="stroke:#181818;stroke-width:0.5;"/><line style="stroke:#181818;stroke-width:0.5;" x1="740.7002" x2="959.7986" y1="460.1523" y2="460.1523"/><text fill="#000000" font-family="sans-serif" font-size="6.5" font-weight="bold" lengthAdjust="spacing" textLength="7.23" x="744.2002" y="457.521">20</text><text fill="#000000" font-family="sans-serif" font-size="6.5" lengthAdjust="spacing" textLength="56.3577" x="753.4302" y="457.521">add(locomotiveDto)</text><polygon fill="#181818" points="312.2551,492.2979,307.2551,494.2979,312.2551,496.2979,310.2551,494.2979" style="stroke:#181818;stroke-width:0.5;"/><line style="stroke:#181818;stroke-width:0.5;stroke-dasharray:2.0,2.0;" x1="309.2551" x2="737.7002" y1="494.2979" y2="494.2979"/><text fill="#000000" font-family="sans-serif" font-size="6.5" font-weight="bold" lengthAdjust="spacing" textLength="7.23" x="315.2551" y="491.6665">21</text><text fill="#000000" font-family="sans-serif" font-size="6.5" lengthAdjust="spacing" textLength="51.2986" x="324.4851" y="491.6665">locomotiveDtoList</text><polygon fill="#181818" points="164.2603,507.9434,159.2603,509.9434,164.2603,511.9434,162.2603,509.9434" style="stroke:#181818;stroke-width:0.5;"/><line style="stroke:#181818;stroke-width:0.5;stroke-dasharray:2.0,2.0;" x1="161.2603" x2="301.2551" y1="509.9434" y2="509.9434"/><text fill="#000000" font-family="sans-serif" font-size="6.5" font-weight="bold" lengthAdjust="spacing" textLength="7.23" x="167.2603" y="507.312">22</text><text fill="#000000" font-family="sans-serif" font-size="6.5" lengthAdjust="spacing" textLength="51.2986" x="176.4902" y="507.312">locomotiveDtoList</text><path d="M10,520.9434 L89.9336,520.9434 L89.9336,525.5889 L84.9336,530.5889 L10,530.5889 L10,520.9434 " fill="#EEEEEE" style="stroke:#000000;stroke-width:0.75;"/><rect fill="none" height="56.582" style="stroke:#000000;stroke-width:0.75;" width="339.324" x="10" y="520.9434"/><text fill="#000000" font-family="sans-serif" font-size="6.5" font-weight="bold" lengthAdjust="spacing" textLength="57.4336" x="17.5" y="528.4575">Select Locomotive</text><polygon fill="#181818" points="34.4207,540.2344,29.4207,542.2344,34.4207,544.2344,32.4207,542.2344" style="stroke:#181818;stroke-width:0.5;"/><line style="stroke:#181818;stroke-width:0.5;stroke-dasharray:2.0,2.0;" x1="31.4207" x2="153.2603" y1="542.2344" y2="542.2344"/><text fill="#000000" font-family="sans-serif" font-size="6.5" font-weight="bold" lengthAdjust="spacing" textLength="7.23" x="37.4207" y="539.603">23</text><text fill="#000000" font-family="sans-serif" font-size="6.5" lengthAdjust="spacing" textLength="78.7617" x="46.6506" y="539.603">show available locomotives</text><polygon fill="#181818" points="147.7603,555.8799,152.7603,557.8799,147.7603,559.8799,149.7603,557.8799" style="stroke:#181818;stroke-width:0.5;"/><line style="stroke:#181818;stroke-width:0.5;" x1="28.9207" x2="150.7603" y1="557.8799" y2="557.8799"/><text fill="#000000" font-family="sans-serif" font-size="6.5" font-weight="bold" lengthAdjust="spacing" textLength="7.23" x="32.4207" y="555.2485">24</text><text fill="#000000" font-family="sans-serif" font-size="6.5" lengthAdjust="spacing" textLength="49.8545" x="41.6506" y="555.2485">select locomotive</text><polygon fill="#181818" points="295.7551,571.5254,300.7551,573.5254,295.7551,575.5254,297.7551,573.5254" style="stroke:#181818;stroke-width:0.5;"/><line style="stroke:#181818;stroke-width:0.5;" x1="158.7603" x2="298.7551" y1="573.5254" y2="573.5254"/><text fill="#000000" font-family="sans-serif" font-size="6.5" font-weight="bold" lengthAdjust="spacing" textLength="7.23" x="162.2603" y="570.894">25</text><text fill="#000000" font-family="sans-serif" font-size="6.5" lengthAdjust="spacing" textLength="119.2185" x="171.4902" y="570.894">buyLocomotive(selectedLocomotiveDTO)</text><path d="M5,584.5254 L83.499,584.5254 L83.499,589.1709 L78.499,594.1709 L5,594.1709 L5,584.5254 " fill="#EEEEEE" style="stroke:#000000;stroke-width:0.75;"/><rect fill="none" height="206.707" style="stroke:#000000;stroke-width:0.75;" width="703.9624" x="5" y="584.5254"/><text fill="#000000" font-family="sans-serif" font-size="6.5" font-weight="bold" lengthAdjust="spacing" textLength="55.999" x="12.5" y="592.0396">Validate Purchase</text><polygon fill="#181818" points="669.6487,603.8164,674.6487,605.8164,669.6487,607.8164,671.6487,605.8164" style="stroke:#181818;stroke-width:0.5;"/><line style="stroke:#181818;stroke-width:0.5;" x1="306.7551" x2="672.6487" y1="605.8164" y2="605.8164"/><text fill="#000000" font-family="sans-serif" font-size="6.5" font-weight="bold" lengthAdjust="spacing" textLength="7.23" x="310.2551" y="603.1851">26</text><text fill="#000000" font-family="sans-serif" font-size="6.5" lengthAdjust="spacing" textLength="50.9399" x="319.4851" y="603.1851">getActualMoney()</text><polygon fill="#181818" points="312.2551,619.4619,307.2551,621.4619,312.2551,623.4619,310.2551,621.4619" style="stroke:#181818;stroke-width:0.5;"/><line style="stroke:#181818;stroke-width:0.5;stroke-dasharray:2.0,2.0;" x1="309.2551" x2="677.6487" y1="621.4619" y2="621.4619"/><text fill="#000000" font-family="sans-serif" font-size="6.5" font-weight="bold" lengthAdjust="spacing" textLength="7.23" x="315.2551" y="618.8306">27</text><text fill="#000000" font-family="sans-serif" font-size="6.5" lengthAdjust="spacing" textLength="36.8545" x="324.4851" y="618.8306">actualMoney</text><path d="M10,628.9619 L40.0854,628.9619 L40.0854,633.6074 L35.0854,638.6074 L10,638.6074 L10,628.9619 " fill="#EEEEEE" style="stroke:#000000;stroke-width:0.75;"/><rect fill="none" height="158.7705" style="stroke:#000000;stroke-width:0.75;" width="693.9624" x="10" y="628.9619"/><text fill="#000000" font-family="sans-serif" font-size="6.5" font-weight="bold" lengthAdjust="spacing" textLength="7.5854" x="17.5" y="636.4761">alt</text><text fill="#000000" font-family="sans-serif" font-size="5.5" font-weight="bold" lengthAdjust="spacing" textLength="53.4666" x="47.5854" y="635.897">[Not enough money]</text><polygon fill="#181818" points="164.2603,648.2529,159.2603,650.2529,164.2603,652.2529,162.2603,650.2529" style="stroke:#181818;stroke-width:0.5;"/><line style="stroke:#181818;stroke-width:0.5;stroke-dasharray:2.0,2.0;" x1="161.2603" x2="301.2551" y1="650.2529" y2="650.2529"/><text fill="#000000" font-family="sans-serif" font-size="6.5" font-weight="bold" lengthAdjust="spacing" textLength="7.23" x="167.2603" y="647.6216">28</text><text fill="#000000" font-family="sans-serif" font-size="6.5" lengthAdjust="spacing" textLength="96.77" x="176.4902" y="647.6216">"You do not have enough money"</text><polygon fill="#181818" points="34.4207,663.8984,29.4207,665.8984,34.4207,667.8984,32.4207,665.8984" style="stroke:#181818;stroke-width:0.5;"/><line style="stroke:#181818;stroke-width:0.5;stroke-dasharray:2.0,2.0;" x1="31.4207" x2="155.7603" y1="665.8984" y2="665.8984"/><text fill="#000000" font-family="sans-serif" font-size="6.5" font-weight="bold" lengthAdjust="spacing" textLength="7.23" x="37.4207" y="663.2671">29</text><text fill="#000000" font-family="sans-serif" font-size="6.5" lengthAdjust="spacing" textLength="93.4883" x="46.6506" y="663.2671">showError("Not enough money")</text><polygon fill="#181818" points="34.4207,679.5439,29.4207,681.5439,34.4207,683.5439,32.4207,681.5439" style="stroke:#181818;stroke-width:0.5;"/><line style="stroke:#181818;stroke-width:0.5;stroke-dasharray:2.0,2.0;" x1="31.4207" x2="155.7603" y1="681.5439" y2="681.5439"/><text fill="#000000" font-family="sans-serif" font-size="6.5" font-weight="bold" lengthAdjust="spacing" textLength="7.23" x="37.4207" y="678.9126">30</text><text fill="#000000" font-family="sans-serif" font-size="6.5" lengthAdjust="spacing" textLength="1.8059" x="46.6506" y="678.9126">&#160;</text><line style="stroke:#000000;stroke-width:0.5;stroke-dasharray:2.0,2.0;" x1="10" x2="703.9624" y1="686.0439" y2="686.0439"/><text fill="#000000" font-family="sans-serif" font-size="5.5" font-weight="bold" lengthAdjust="spacing" textLength="47.9746" x="12.5" y="691.979">[Sufficient money]</text><polygon fill="#181818" points="669.6487,703.5049,674.6487,705.5049,669.6487,707.5049,671.6487,705.5049" style="stroke:#181818;stroke-width:0.5;"/><line style="stroke:#181818;stroke-width:0.5;" x1="306.7551" x2="672.6487" y1="705.5049" y2="705.5049"/><text fill="#000000" font-family="sans-serif" font-size="6.5" font-weight="bold" lengthAdjust="spacing" textLength="7.23" x="310.2551" y="702.8735">31</text><text fill="#000000" font-family="sans-serif" font-size="6.5" lengthAdjust="spacing" textLength="107.2944" x="319.4851" y="702.8735">setActualMoney(actualMoney - price)</text><polygon fill="#181818" points="312.2551,719.1504,307.2551,721.1504,312.2551,723.1504,310.2551,721.1504" style="stroke:#181818;stroke-width:0.5;"/><line style="stroke:#181818;stroke-width:0.5;stroke-dasharray:2.0,2.0;" x1="309.2551" x2="677.6487" y1="721.1504" y2="721.1504"/><text fill="#000000" font-family="sans-serif" font-size="6.5" font-weight="bold" lengthAdjust="spacing" textLength="7.23" x="315.2551" y="718.519">32</text><text fill="#000000" font-family="sans-serif" font-size="6.5" lengthAdjust="spacing" textLength="61.4294" x="324.4851" y="718.519">actualMoneyUpdated</text><polygon fill="#181818" points="625.5488,734.7959,630.5488,736.7959,625.5488,738.7959,627.5488,736.7959" style="stroke:#181818;stroke-width:0.5;"/><line style="stroke:#181818;stroke-width:0.5;" x1="306.7551" x2="628.5488" y1="736.7959" y2="736.7959"/><text fill="#000000" font-family="sans-serif" font-size="6.5" font-weight="bold" lengthAdjust="spacing" textLength="7.23" x="310.2551" y="734.1646">33</text><text fill="#000000" font-family="sans-serif" font-size="6.5" lengthAdjust="spacing" textLength="140.1848" x="319.4851" y="734.1646">addBoughtLocomotive(selectedLocomotiveDTO)</text><polygon fill="#181818" points="312.2551,750.4414,307.2551,752.4414,312.2551,754.4414,310.2551,752.4414" style="stroke:#181818;stroke-width:0.5;"/><line style="stroke:#181818;stroke-width:0.5;stroke-dasharray:2.0,2.0;" x1="309.2551" x2="633.5488" y1="752.4414" y2="752.4414"/><text fill="#000000" font-family="sans-serif" font-size="6.5" font-weight="bold" lengthAdjust="spacing" textLength="7.23" x="315.2551" y="749.8101">34</text><text fill="#000000" font-family="sans-serif" font-size="6.5" lengthAdjust="spacing" textLength="49.864" x="324.4851" y="749.8101">locomotiveAdded</text><polygon fill="#181818" points="164.2603,766.0869,159.2603,768.0869,164.2603,770.0869,162.2603,768.0869" style="stroke:#181818;stroke-width:0.5;"/><line style="stroke:#181818;stroke-width:0.5;stroke-dasharray:2.0,2.0;" x1="161.2603" x2="301.2551" y1="768.0869" y2="768.0869"/><text fill="#000000" font-family="sans-serif" font-size="6.5" font-weight="bold" lengthAdjust="spacing" textLength="7.23" x="167.2603" y="765.4556">35</text><text fill="#000000" font-family="sans-serif" font-size="6.5" lengthAdjust="spacing" textLength="96.386" x="176.4902" y="765.4556">"Locomotive bought successfully"</text><polygon fill="#181818" points="34.4207,781.7324,29.4207,783.7324,34.4207,785.7324,32.4207,783.7324" style="stroke:#181818;stroke-width:0.5;"/><line style="stroke:#181818;stroke-width:0.5;stroke-dasharray:2.0,2.0;" x1="31.4207" x2="155.7603" y1="783.7324" y2="783.7324"/><text fill="#000000" font-family="sans-serif" font-size="6.5" font-weight="bold" lengthAdjust="spacing" textLength="7.23" x="37.4207" y="781.1011">36</text><text fill="#000000" font-family="sans-serif" font-size="6.5" lengthAdjust="spacing" textLength="103.6096" x="46.6506" y="781.1011">showSuccess("Locomotive bought")</text><!--SRC=[fLRHYjiw47ttLmnvofQxFx2qXJJT2m7l9YJPGk52KMmb4LKaLvAtpTztB3coPClUXUiNOtdcpD7ep8pqJoOgeiW5AbBy92UwCrTEGT72477YDDFUG9z9ANypSO8ZuJhymvcWvbfHaCgSPKPg8qLzEL2LPQGmKi5imycLgXaG3PlyUuPkXXMi8iB0xE5BVSrb8I_Ii5Vwih9MBwkXqLuH9ZQukfJ2ACbvYxZSR_FOUaihgHb6PbHRa-tZPhsBRLHWyvzuIBlyM3tlzZqc7LThbw-NiG7t_ptc5GFaYUKRm0yCbWgrAwWWYabhjri-FY-sgtNVXbrgJWoJmbcjdbxonNwrVXwb_KIggatTqsApUTncOnl8cJRm0CthO-V_sTFELttAdUzN8zFkN_Vh3W4_fb7swmOX_0vzhS3OAp7KwWhmmJVSVqO1eP-YlsggZGOZuL1VWK27R8szD-gj-KOlz6q4XTvfoSrrUoZ_WFQflulHh2Bjqad9ke8jDQYhLmf4bF0luuQgO4_QMZQF3Om4hFQGmOcQbT1OYGMTttah7yQf-hRidEux_g72lLL9U-xfu5QDZa5AkADid8eZIWugu9Kga55-3d104iyV7Bq5vq4gKyIQ2hqjDdxEtShkmmS4AHH5iy3J6dLyIHIXKNEMejk46V2y5MtBzPKmJWwSvb69fKZxQh_zyKWXio5UygGzs92VRnUEuR9MYWgpPvUaueBkudbr206peiD94kfm1fHQXAChaqui6WvNAD7RUb1HXXM6FQqfygObzF5SZqD48_7tFEvkYJtUUY84JulHAkVMj6BrH0vSoWgEEFfmp-TW4y04n0mYjs6i9euxcZaJ9VrpDx0F1UXwQTyY5gcpcGZh4rPYHZyDqZR1e4tTHFnKSfC9JbVcz7aq5L6MysW6lP4lFt_Uo5dI3ZLe3pgjbLJ3QuTYzexCEFdU9baQebS4EyhntXPC5W_Mp3M4QcRZ0rxavE-kTOGLraKFfwXsiC7ep29Wlyz3U96REpTQHiFxBiNx6-6ij3EyLiMPQFfccreKfYRyIGfw_LzjYdGuxsrJX1jubWRt8ElJ6IwHx_3WPjzb3QK4WIvdWWqWz9j5ZeD3UbHAglci7sqMQJeRKMrxexazYffQ2Rz4yGOFk_fun3iNzkdHRVHIh-FK1-c3UwWKAsYl3quToRkEvQLgb56ExN84DZ5-iJDyQN9etYVHjmVos53kwcHHbXFCKtXJGkf8mi5k17HT55JhOyrvJqfZAfZMsyxXpOUXOidrP9O5_R0hxy36NeTZd-0Bu_y5]--></g></svg>