<svg xmlns="http://www.w3.org/2000/svg" xmlns:xlink="http://www.w3.org/1999/xlink" contentStyleType="text/css" height="469.2px" preserveAspectRatio="none" style="width:571px;height:469px;background:#FFFFFF;" version="1.1" viewBox="0 0 571 469" width="571.2px" zoomAndPan="magnify"><defs/><g><rect fill="#FFFFFF" height="357.7195" style="stroke:#181818;stroke-width:0.6;" width="6" x="28.7048" y="56.1727"/><rect fill="#FFFFFF" height="343.7449" style="stroke:#181818;stroke-width:0.6;" width="6" x="165.1163" y="70.1473"/><rect fill="#FFFFFF" height="20.1727" style="stroke:#181818;stroke-width:0.6;" width="6" x="360.7597" y="94.9219"/><rect fill="#FFFFFF" height="260.0484" style="stroke:#181818;stroke-width:0.6;" width="6" x="360.7597" y="149.6437"/><rect fill="#FFFFFF" height="18.7746" style="stroke:#181818;stroke-width:0.6;" width="6" x="444.2774" y="168.4184"/><rect fill="#FFFFFF" height="18.7746" style="stroke:#181818;stroke-width:0.6;" width="6" x="491.3628" y="205.9676"/><rect fill="#FFFFFF" height="18.7746" style="stroke:#181818;stroke-width:0.6;" width="6" x="491.3628" y="296.8406"/><rect fill="#FFFFFF" height="18.7746" style="stroke:#181818;stroke-width:0.6;" width="6" x="536.8137" y="243.5168"/><rect fill="none" height="285.5977" style="stroke:#000000;stroke-width:0.8999999999999999;" width="561.9888" x="6" y="124.0945"/><rect fill="none" height="134.2008" style="stroke:#000000;stroke-width:0.8999999999999999;" width="505.6386" x="12" y="271.2914"/><line style="stroke:#181818;stroke-width:0.3;stroke-dasharray:5.0,5.0;" x1="31.2" x2="31.2" y1="50.1727" y2="419.8922"/><line style="stroke:#181818;stroke-width:0.3;stroke-dasharray:5.0,5.0;" x1="167.8433" x2="167.8433" y1="50.1727" y2="419.8922"/><line style="stroke:#181818;stroke-width:0.3;stroke-dasharray:5.0,5.0;" x1="363.2798" x2="363.2798" y1="94.0336" y2="419.8922"/><line style="stroke:#181818;stroke-width:0.3;stroke-dasharray:5.0,5.0;" x1="446.8679" x2="446.8679" y1="50.1727" y2="419.8922"/><line style="stroke:#181818;stroke-width:0.3;stroke-dasharray:5.0,5.0;" x1="493.887" x2="493.887" y1="50.1727" y2="419.8922"/><line style="stroke:#181818;stroke-width:0.3;stroke-dasharray:5.0,5.0;" x1="539.2386" x2="539.2386" y1="50.1727" y2="419.8922"/><text fill="#000000" font-family="sans-serif" font-size="8.4" lengthAdjust="spacing" textLength="23.8096" x="18" y="48.0645">Player</text><ellipse cx="31.7048" cy="8.1" fill="#E2E2F0" rx="4.8" ry="4.8" style="stroke:#181818;stroke-width:0.3;"/><path d="M31.7048,12.9 L31.7048,29.1 M23.9048,17.7 L39.5048,17.7 M31.7048,29.1 L23.9048,38.1 M31.7048,29.1 L39.5048,38.1 " fill="none" style="stroke:#181818;stroke-width:0.3;"/><text fill="#000000" font-family="sans-serif" font-size="8.4" lengthAdjust="spacing" textLength="23.8096" x="18" y="428.3566">Player</text><ellipse cx="31.7048" cy="435.5648" fill="#E2E2F0" rx="4.8" ry="4.8" style="stroke:#181818;stroke-width:0.3;"/><path d="M31.7048,440.3648 L31.7048,456.5648 M23.9048,445.1648 L39.5048,445.1648 M31.7048,456.5648 L23.9048,465.5648 M31.7048,456.5648 L39.5048,465.5648 " fill="none" style="stroke:#181818;stroke-width:0.3;"/><rect fill="#E2E2F0" height="19.5727" rx="1.5" ry="1.5" style="stroke:#181818;stroke-width:0.3;" width="40.1461" x="148.0433" y="30"/><text fill="#000000" font-family="sans-serif" font-size="8.4" lengthAdjust="spacing" textLength="31.7461" x="152.2433" y="43.2645">:US12UI</text><rect fill="#E2E2F0" height="19.5727" rx="1.5" ry="1.5" style="stroke:#181818;stroke-width:0.3;" width="40.1461" x="148.0433" y="419.2922"/><text fill="#000000" font-family="sans-serif" font-size="8.4" lengthAdjust="spacing" textLength="31.7461" x="152.2433" y="432.5566">:US12UI</text><rect fill="#E2E2F0" height="19.5727" rx="1.5" ry="1.5" style="stroke:#181818;stroke-width:0.3;" width="68.1598" x="329.6798" y="419.2922"/><text fill="#000000" font-family="sans-serif" font-size="8.4" lengthAdjust="spacing" textLength="59.7598" x="333.8798" y="432.5566">:US12Controller</text><rect fill="#E2E2F0" height="19.5727" rx="1.5" ry="1.5" style="stroke:#181818;stroke-width:0.3;" width="47.6191" x="423.4679" y="30"/><text fill="#000000" font-family="sans-serif" font-size="8.4" lengthAdjust="spacing" textLength="39.2191" x="427.6679" y="43.2645">Simulation</text><rect fill="#E2E2F0" height="19.5727" rx="1.5" ry="1.5" style="stroke:#181818;stroke-width:0.3;" width="47.6191" x="423.4679" y="419.2922"/><text fill="#000000" font-family="sans-serif" font-size="8.4" lengthAdjust="spacing" textLength="39.2191" x="427.6679" y="432.5566">Simulation</text><rect fill="#E2E2F0" height="19.5727" rx="1.5" ry="1.5" style="stroke:#181818;stroke-width:0.3;" width="34.5516" x="477.087" y="30"/><text fill="#000000" font-family="sans-serif" font-size="8.4" lengthAdjust="spacing" textLength="26.1516" x="481.287" y="43.2645">Station</text><rect fill="#E2E2F0" height="19.5727" rx="1.5" ry="1.5" style="stroke:#181818;stroke-width:0.3;" width="34.5516" x="477.087" y="419.2922"/><text fill="#000000" font-family="sans-serif" font-size="8.4" lengthAdjust="spacing" textLength="26.1516" x="481.287" y="432.5566">Station</text><rect fill="#E2E2F0" height="19.5727" rx="1.5" ry="1.5" style="stroke:#181818;stroke-width:0.3;" width="44.3502" x="517.6386" y="30"/><text fill="#000000" font-family="sans-serif" font-size="8.4" lengthAdjust="spacing" textLength="35.9502" x="521.8386" y="43.2645">Resource</text><rect fill="#E2E2F0" height="19.5727" rx="1.5" ry="1.5" style="stroke:#181818;stroke-width:0.3;" width="44.3502" x="517.6386" y="419.2922"/><text fill="#000000" font-family="sans-serif" font-size="8.4" lengthAdjust="spacing" textLength="35.9502" x="521.8386" y="432.5566">Resource</text><rect fill="#FFFFFF" height="357.7195" style="stroke:#181818;stroke-width:0.6;" width="6" x="28.7048" y="56.1727"/><rect fill="#FFFFFF" height="343.7449" style="stroke:#181818;stroke-width:0.6;" width="6" x="165.1163" y="70.1473"/><rect fill="#FFFFFF" height="20.1727" style="stroke:#181818;stroke-width:0.6;" width="6" x="360.7597" y="94.9219"/><rect fill="#FFFFFF" height="260.0484" style="stroke:#181818;stroke-width:0.6;" width="6" x="360.7597" y="149.6437"/><rect fill="#FFFFFF" height="18.7746" style="stroke:#181818;stroke-width:0.6;" width="6" x="444.2774" y="168.4184"/><rect fill="#FFFFFF" height="18.7746" style="stroke:#181818;stroke-width:0.6;" width="6" x="491.3628" y="205.9676"/><rect fill="#FFFFFF" height="18.7746" style="stroke:#181818;stroke-width:0.6;" width="6" x="491.3628" y="296.8406"/><rect fill="#FFFFFF" height="18.7746" style="stroke:#181818;stroke-width:0.6;" width="6" x="536.8137" y="243.5168"/><polygon fill="#181818" points="157.9163,67.7473,163.9163,70.1473,157.9163,72.5473,160.3163,70.1473" style="stroke:#181818;stroke-width:0.6;"/><line style="stroke:#181818;stroke-width:0.6;" x1="34.7048" x2="161.5163" y1="70.1473" y2="70.1473"/><text fill="#000000" font-family="sans-serif" font-size="7.8" font-weight="bold" lengthAdjust="spacing" textLength="4.338" x="38.9048" y="66.9896">1</text><text fill="#000000" font-family="sans-serif" font-size="7.8" lengthAdjust="spacing" textLength="112.2735" x="45.6428" y="66.9896">start US12UI(simulation, station)</text><polygon fill="#181818" points="322.4798,86.5219,328.4798,88.9219,322.4798,91.3219,324.8798,88.9219" style="stroke:#181818;stroke-width:0.6;"/><line style="stroke:#181818;stroke-width:0.6;" x1="171.1163" x2="326.0798" y1="88.9219" y2="88.9219"/><text fill="#000000" font-family="sans-serif" font-size="7.8" font-weight="bold" lengthAdjust="spacing" textLength="4.338" x="175.3163" y="85.7643">2</text><text fill="#000000" font-family="sans-serif" font-size="7.8" lengthAdjust="spacing" textLength="137.4255" x="182.0543" y="85.7643">new US12Controller(simulation, station)</text><rect fill="#E2E2F0" height="19.5727" rx="1.5" ry="1.5" style="stroke:#181818;stroke-width:0.3;" width="68.1598" x="329.6798" y="74.9473"/><text fill="#000000" font-family="sans-serif" font-size="8.4" lengthAdjust="spacing" textLength="59.7598" x="333.8798" y="88.2117">:US12Controller</text><polygon fill="#181818" points="177.7163,112.6945,171.7163,115.0945,177.7163,117.4945,175.3163,115.0945" style="stroke:#181818;stroke-width:0.6;"/><line style="stroke:#181818;stroke-width:0.6;stroke-dasharray:2.0,2.0;" x1="174.1163" x2="363.1597" y1="115.0945" y2="115.0945"/><text fill="#000000" font-family="sans-serif" font-size="7.8" font-weight="bold" lengthAdjust="spacing" textLength="4.338" x="181.3163" y="111.9369">3</text><text fill="#000000" font-family="sans-serif" font-size="7.8" lengthAdjust="spacing" textLength="60.2634" x="188.0543" y="111.9369">controller created</text><path d="M6,124.0945 L70.6975,124.0945 L70.6975,129.6691 L64.6975,135.6691 L6,135.6691 L6,124.0945 " fill="#EEEEEE" style="stroke:#000000;stroke-width:0.8999999999999999;"/><rect fill="none" height="285.5977" style="stroke:#000000;stroke-width:0.8999999999999999;" width="561.9888" x="6" y="124.0945"/><text fill="#000000" font-family="sans-serif" font-size="7.8" font-weight="bold" lengthAdjust="spacing" textLength="37.6975" x="15" y="133.1115">Main Flow</text><polygon fill="#181818" points="353.5597,147.2438,359.5597,149.6437,353.5597,152.0438,355.9597,149.6437" style="stroke:#181818;stroke-width:0.6;"/><line style="stroke:#181818;stroke-width:0.6;" x1="171.1163" x2="357.1597" y1="149.6437" y2="149.6437"/><text fill="#000000" font-family="sans-serif" font-size="7.8" font-weight="bold" lengthAdjust="spacing" textLength="4.338" x="175.3163" y="146.4861">4</text><text fill="#000000" font-family="sans-serif" font-size="7.8" lengthAdjust="spacing" textLength="73.2583" x="182.0543" y="146.4861">performUS12Action()</text><polygon fill="#181818" points="437.0774,166.0184,443.0774,168.4184,437.0774,170.8184,439.4774,168.4184" style="stroke:#181818;stroke-width:0.6;"/><line style="stroke:#181818;stroke-width:0.6;" x1="366.7597" x2="440.6774" y1="168.4184" y2="168.4184"/><text fill="#000000" font-family="sans-serif" font-size="7.8" font-weight="bold" lengthAdjust="spacing" textLength="4.338" x="370.9597" y="165.2607">5</text><text fill="#000000" font-family="sans-serif" font-size="7.8" lengthAdjust="spacing" textLength="59.3798" x="377.6977" y="165.2607">getCurrentTime()</text><polygon fill="#181818" points="373.3597,184.793,367.3597,187.193,373.3597,189.593,370.9597,187.193" style="stroke:#181818;stroke-width:0.6;"/><line style="stroke:#181818;stroke-width:0.6;stroke-dasharray:2.0,2.0;" x1="369.7597" x2="446.6774" y1="187.193" y2="187.193"/><text fill="#000000" font-family="sans-serif" font-size="7.8" font-weight="bold" lengthAdjust="spacing" textLength="4.338" x="376.9597" y="184.0354">6</text><text fill="#000000" font-family="sans-serif" font-size="7.8" lengthAdjust="spacing" textLength="41.6089" x="383.6977" y="184.0354">currentTime</text><polygon fill="#181818" points="484.1628,203.5676,490.1628,205.9676,484.1628,208.3676,486.5628,205.9676" style="stroke:#181818;stroke-width:0.6;"/><line style="stroke:#181818;stroke-width:0.6;" x1="366.7597" x2="487.7628" y1="205.9676" y2="205.9676"/><text fill="#000000" font-family="sans-serif" font-size="7.8" font-weight="bold" lengthAdjust="spacing" textLength="4.338" x="370.9597" y="202.81">7</text><text fill="#000000" font-family="sans-serif" font-size="7.8" lengthAdjust="spacing" textLength="48.1216" x="377.6977" y="202.81">getInventory()</text><polygon fill="#181818" points="373.3597,222.3422,367.3597,224.7422,373.3597,227.1422,370.9597,224.7422" style="stroke:#181818;stroke-width:0.6;"/><line style="stroke:#181818;stroke-width:0.6;stroke-dasharray:2.0,2.0;" x1="369.7597" x2="493.7628" y1="224.7422" y2="224.7422"/><text fill="#000000" font-family="sans-serif" font-size="7.8" font-weight="bold" lengthAdjust="spacing" textLength="4.338" x="376.9597" y="221.5846">8</text><text fill="#000000" font-family="sans-serif" font-size="7.8" lengthAdjust="spacing" textLength="31.6494" x="383.6977" y="221.5846">inventory</text><polygon fill="#181818" points="529.6137,241.1168,535.6137,243.5168,529.6137,245.9168,532.0137,243.5168" style="stroke:#181818;stroke-width:0.6;"/><line style="stroke:#181818;stroke-width:0.6;" x1="366.7597" x2="533.2137" y1="243.5168" y2="243.5168"/><text fill="#000000" font-family="sans-serif" font-size="7.8" font-weight="bold" lengthAdjust="spacing" textLength="4.338" x="370.9597" y="240.3592">9</text><text fill="#000000" font-family="sans-serif" font-size="7.8" lengthAdjust="spacing" textLength="95.8014" x="377.6977" y="240.3592">checkResourceAvailability()</text><polygon fill="#181818" points="373.3597,259.8914,367.3597,262.2914,373.3597,264.6914,370.9597,262.2914" style="stroke:#181818;stroke-width:0.6;"/><line style="stroke:#181818;stroke-width:0.6;stroke-dasharray:2.0,2.0;" x1="369.7597" x2="539.2137" y1="262.2914" y2="262.2914"/><text fill="#000000" font-family="sans-serif" font-size="7.8" font-weight="bold" lengthAdjust="spacing" textLength="8.676" x="376.9597" y="259.1338">10</text><text fill="#000000" font-family="sans-serif" font-size="7.8" lengthAdjust="spacing" textLength="53.3241" x="388.0356" y="259.1338">resource status</text><path d="M12,271.2914 L48.1025,271.2914 L48.1025,276.866 L42.1025,282.866 L12,282.866 L12,271.2914 " fill="#EEEEEE" style="stroke:#000000;stroke-width:0.8999999999999999;"/><rect fill="none" height="134.2008" style="stroke:#000000;stroke-width:0.8999999999999999;" width="505.6386" x="12" y="271.2914"/><text fill="#000000" font-family="sans-serif" font-size="7.8" font-weight="bold" lengthAdjust="spacing" textLength="9.1025" x="21" y="280.3084">alt</text><text fill="#000000" font-family="sans-serif" font-size="6.6" font-weight="bold" lengthAdjust="spacing" textLength="61.9975" x="57.1025" y="279.6135">[resource available]</text><polygon fill="#181818" points="484.1628,294.4406,490.1628,296.8406,484.1628,299.2406,486.5628,296.8406" style="stroke:#181818;stroke-width:0.6;"/><line style="stroke:#181818;stroke-width:0.6;" x1="366.7597" x2="487.7628" y1="296.8406" y2="296.8406"/><text fill="#000000" font-family="sans-serif" font-size="7.8" font-weight="bold" lengthAdjust="spacing" textLength="8.676" x="370.9597" y="293.683">11</text><text fill="#000000" font-family="sans-serif" font-size="7.8" lengthAdjust="spacing" textLength="61.1355" x="382.0356" y="293.683">updateInventory()</text><polygon fill="#181818" points="373.3597,313.2152,367.3597,315.6152,373.3597,318.0152,370.9597,315.6152" style="stroke:#181818;stroke-width:0.6;"/><line style="stroke:#181818;stroke-width:0.6;stroke-dasharray:2.0,2.0;" x1="369.7597" x2="493.7628" y1="315.6152" y2="315.6152"/><text fill="#000000" font-family="sans-serif" font-size="7.8" font-weight="bold" lengthAdjust="spacing" textLength="8.676" x="376.9597" y="312.4576">12</text><text fill="#000000" font-family="sans-serif" font-size="7.8" lengthAdjust="spacing" textLength="62.0115" x="388.0356" y="312.4576">inventory updated</text><polygon fill="#181818" points="177.7163,331.9898,171.7163,334.3898,177.7163,336.7898,175.3163,334.3898" style="stroke:#181818;stroke-width:0.6;"/><line style="stroke:#181818;stroke-width:0.6;stroke-dasharray:2.0,2.0;" x1="174.1163" x2="360.1597" y1="334.3898" y2="334.3898"/><text fill="#000000" font-family="sans-serif" font-size="7.8" font-weight="bold" lengthAdjust="spacing" textLength="8.676" x="181.3163" y="331.2322">13</text><text fill="#000000" font-family="sans-serif" font-size="7.8" lengthAdjust="spacing" textLength="123.4556" x="192.3923" y="331.2322">"Resource successfully processed."</text><polygon fill="#181818" points="41.3048,350.7645,35.3048,353.1645,41.3048,355.5645,38.9048,353.1645" style="stroke:#181818;stroke-width:0.6;"/><line style="stroke:#181818;stroke-width:0.6;stroke-dasharray:2.0,2.0;" x1="37.7048" x2="164.5163" y1="353.1645" y2="353.1645"/><text fill="#000000" font-family="sans-serif" font-size="7.8" font-weight="bold" lengthAdjust="spacing" textLength="8.676" x="44.9048" y="350.0068">14</text><text fill="#000000" font-family="sans-serif" font-size="7.8" lengthAdjust="spacing" textLength="48.552" x="55.9808" y="350.0068">show success</text><line style="stroke:#000000;stroke-width:0.6;stroke-dasharray:2.0,2.0;" x1="12" x2="517.6386" y1="358.5645" y2="358.5645"/><text fill="#000000" font-family="sans-serif" font-size="6.6" font-weight="bold" lengthAdjust="spacing" textLength="74.0921" x="15" y="365.6865">[resource not available]</text><polygon fill="#181818" points="177.7163,379.5176,171.7163,381.9176,177.7163,384.3176,175.3163,381.9176" style="stroke:#181818;stroke-width:0.6;"/><line style="stroke:#181818;stroke-width:0.6;stroke-dasharray:2.0,2.0;" x1="174.1163" x2="360.1597" y1="381.9176" y2="381.9176"/><text fill="#000000" font-family="sans-serif" font-size="7.8" font-weight="bold" lengthAdjust="spacing" textLength="8.676" x="181.3163" y="378.76">15</text><text fill="#000000" font-family="sans-serif" font-size="7.8" lengthAdjust="spacing" textLength="87.053" x="192.3923" y="378.76">"Resource not available."</text><polygon fill="#181818" points="41.3048,398.2922,35.3048,400.6922,41.3048,403.0922,38.9048,400.6922" style="stroke:#181818;stroke-width:0.6;"/><line style="stroke:#181818;stroke-width:0.6;stroke-dasharray:2.0,2.0;" x1="37.7048" x2="164.5163" y1="400.6922" y2="400.6922"/><text fill="#000000" font-family="sans-serif" font-size="7.8" font-weight="bold" lengthAdjust="spacing" textLength="8.676" x="44.9048" y="397.5346">16</text><text fill="#000000" font-family="sans-serif" font-size="7.8" lengthAdjust="spacing" textLength="36.8443" x="55.9808" y="397.5346">show error</text><!--SRC=[XPHDQ-Cm48Rl_XL3JctPBBJ77WebT27GGecTmnvLUUA8o98PoGd-zpkIlnDlQx29DVFC-seyYZifKmaI9LH2daI1gMyq0g7qmXGQ4pSakAF8xKMP0Wv2ksb4AuE-gH0i-QDDHEsjgSilf2GHqbk2rQSM3T8AX8FFzxy9Orv9LGdZOVMyJn-VzjiOt6yNOXjhF5cjkmARRFS-pqfLMMlXbJKn8Tr-NCNz99ZDOpjqjYQ9CRXxIwDbTHOUerE-OVt2lk0Pd6SGMhTtRj3y5GBXn_s8yZuOOJ2OVNXWsE05vflveKJSPdZ0kZSW1nOa8IVbIOvp82d8rXLy26NWZxQN1FWQhN2H2kbWgGnUNcNGlBkFILTreBjQ1o-XgGmNw3Sr4HgVgH8xSaQ7vlUBWLcFod8aXvI9_q3UocQjwjQS6RNKB6fcesGsLLGzjQYNtShn00IZHvIdVZ1Upq9fyQMqyelYOMRwnO1FvAah4RzkxPPCn8aRQce_CgBLrMElRlfILpdNM6hD_zhpJOkwQlaiTzwkMoFzP0x725mj9JftgBLke28RNZ3_lPh1OI0P3OUBZzNHNdfio4B-XnbxOQp_jX-tDcR4Z-f8P6dKDddxJQuFLmnC5lcKJzwutZy0]--></g></svg>