<svg xmlns="http://www.w3.org/2000/svg" xmlns:xlink="http://www.w3.org/1999/xlink" contentStyleType="text/css" height="754.4px" preserveAspectRatio="none" style="width:452px;height:754px;background:#FFFFFF;" version="1.1" viewBox="0 0 452 754" width="452.8px" zoomAndPan="magnify"><defs/><g><!--class Simulation--><g id="elem_Simulation"><rect codeLine="7" fill="#F1F1F1" height="86.2359" id="Simulation" rx="1" ry="1" style="stroke:#181818;stroke-width:0.20000000000000004;" width="79.9789" x="201" y="2.8"/><ellipse cx="226.2164" cy="9.2" fill="#ADD1B2" rx="4.4" ry="4.4" style="stroke:#181818;stroke-width:0.4000000000000001;"/><path d="M227.3227,7.55 Q227.3852,7.4625 227.4602,7.4188 Q227.5352,7.375 227.6227,7.375 Q227.7727,7.375 227.8664,7.4813 Q227.9602,7.5813 227.9602,7.825 L227.9602,8.4063 Q227.9602,8.65 227.8664,8.7563 Q227.7727,8.8625 227.6227,8.8625 Q227.4852,8.8625 227.4039,8.7813 Q227.3227,8.7063 227.2789,8.5 Q227.2602,8.3563 227.1852,8.2813 Q227.0539,8.1313 226.8102,8.0438 Q226.5664,7.9563 226.3164,7.9563 Q226.0102,7.9563 225.7539,8.0875 Q225.5039,8.2188 225.3039,8.5188 Q225.1102,8.8188 225.1102,9.2313 L225.1102,9.6688 Q225.1102,10.1625 225.4664,10.4938 Q225.8227,10.8188 226.4602,10.8188 Q226.8352,10.8188 227.0977,10.7188 Q227.2539,10.6563 227.4227,10.4813 Q227.5289,10.375 227.5852,10.3438 Q227.6477,10.3125 227.7289,10.3125 Q227.8602,10.3125 227.9602,10.4188 Q228.0664,10.5188 228.0664,10.6563 Q228.0664,10.7938 227.9289,10.9563 Q227.7289,11.1875 227.4102,11.3188 Q226.9789,11.5 226.4602,11.5 Q225.8539,11.5 225.3727,11.25 Q224.9789,11.05 224.7039,10.625 Q224.4289,10.1938 224.4289,9.6813 L224.4289,9.2188 Q224.4289,8.6875 224.6727,8.2313 Q224.9227,7.7688 225.3602,7.525 Q225.7977,7.275 226.2914,7.275 Q226.5852,7.275 226.8414,7.3438 Q227.1039,7.4063 227.3227,7.55 Z " fill="#000000"/><text fill="#000000" font-family="sans-serif" font-size="5.6" lengthAdjust="spacing" textLength="26.1461" x="234.4164" y="11.5188">Simulation</text><line style="stroke:#181818;stroke-width:0.20000000000000004;" x1="201.4" x2="280.5789" y1="15.6" y2="15.6"/><text fill="#000000" font-family="sans-serif" font-size="5.6" lengthAdjust="spacing" textLength="39.2082" x="203.4" y="23.243">-int currentTime</text><text fill="#000000" font-family="sans-serif" font-size="5.6" lengthAdjust="spacing" textLength="41.0867" x="203.4" y="30.6914">-int actualMoney</text><text fill="#000000" font-family="sans-serif" font-size="5.6" lengthAdjust="spacing" textLength="49.4949" x="203.4" y="38.1398">-List&lt;Event&gt; events</text><text fill="#000000" font-family="sans-serif" font-size="5.6" lengthAdjust="spacing" textLength="4.6676" x="203.4" y="45.5883">...</text><line style="stroke:#181818;stroke-width:0.20000000000000004;" x1="201.4" x2="280.5789" y1="48.5938" y2="48.5938"/><text fill="#000000" font-family="sans-serif" font-size="5.6" lengthAdjust="spacing" textLength="54.6246" x="203.4" y="56.2367">+runSimulation(): void</text><text fill="#000000" font-family="sans-serif" font-size="5.6" lengthAdjust="spacing" textLength="75.1789" x="203.4" y="63.6852">+addEvent(event: Event): void</text><text fill="#000000" font-family="sans-serif" font-size="5.6" lengthAdjust="spacing" textLength="54.9281" x="203.4" y="71.1336">+getCurrentTime(): int</text><text fill="#000000" font-family="sans-serif" font-size="5.6" lengthAdjust="spacing" textLength="56.1832" x="203.4" y="78.582">+getActualMoney(): int</text><text fill="#000000" font-family="sans-serif" font-size="5.6" lengthAdjust="spacing" textLength="8.3973" x="203.4" y="86.0305">...()</text></g><!--class Event--><g id="elem_Event"><rect codeLine="19" fill="#F1F1F1" height="78.7875" id="Event" rx="1" ry="1" style="stroke:#181818;stroke-width:0.20000000000000004;" width="79.6617" x="78" y="120.8"/><ellipse cx="108.9709" cy="127.2" fill="#A9DCDF" rx="4.4" ry="4.4" style="stroke:#181818;stroke-width:0.4000000000000001;"/><path d="M109.8459,127.9063 L108.1896,127.9063 L108.0209,128.3188 L108.1896,128.3188 Q108.4334,128.3188 108.5396,128.4125 Q108.6459,128.5063 108.6459,128.6625 Q108.6459,128.8125 108.5396,128.9063 Q108.4334,129 108.1896,129 L107.2709,129 Q107.0271,129 106.9271,128.9063 Q106.8209,128.8125 106.8209,128.6563 Q106.8209,128.5063 106.9334,128.4125 Q107.0396,128.3125 107.2896,128.3188 L108.3584,125.6563 L107.9146,125.6563 Q107.6709,125.6563 107.5646,125.5625 Q107.4584,125.4688 107.4584,125.3125 Q107.4584,125.1625 107.5646,125.0688 Q107.6709,124.975 107.9146,124.975 L109.3834,124.975 L110.7396,128.3188 Q110.9771,128.3188 111.0521,128.375 Q111.2084,128.4813 111.2084,128.6625 Q111.2084,128.8125 111.1021,128.9063 Q111.0021,129 110.7584,129 L109.8396,129 Q109.5959,129 109.4896,128.9063 Q109.3834,128.8125 109.3834,128.6563 Q109.3834,128.5063 109.4896,128.4125 Q109.5959,128.3188 109.8396,128.3188 L110.0084,128.3188 L109.8459,127.9063 Z M109.5584,127.225 L109.0146,125.875 L108.4646,127.225 L109.5584,127.225 Z " fill="#000000"/><text fill="#000000" font-family="sans-serif" font-size="5.6" font-style="italic" lengthAdjust="spacing" textLength="14.3199" x="117.1709" y="129.5188">Event</text><line style="stroke:#181818;stroke-width:0.20000000000000004;" x1="78.4" x2="157.2617" y1="133.6" y2="133.6"/><text fill="#000000" font-family="sans-serif" font-size="5.6" lengthAdjust="spacing" textLength="27.3875" x="80.4" y="141.243">-int interval</text><text fill="#000000" font-family="sans-serif" font-size="5.6" lengthAdjust="spacing" textLength="32.0578" x="80.4" y="148.6914">-String name</text><text fill="#000000" font-family="sans-serif" font-size="5.6" lengthAdjust="spacing" textLength="59.4563" x="80.4" y="156.1398">-int nextGenerationDate</text><text fill="#000000" font-family="sans-serif" font-size="5.6" lengthAdjust="spacing" textLength="4.6676" x="80.4" y="163.5883">...</text><line style="stroke:#181818;stroke-width:0.20000000000000004;" x1="78.4" x2="157.2617" y1="166.5938" y2="166.5938"/><text fill="#000000" font-family="sans-serif" font-size="5.6" lengthAdjust="spacing" textLength="36.2578" x="80.4" y="174.2367">+trigger(): void</text><text fill="#000000" font-family="sans-serif" font-size="5.6" lengthAdjust="spacing" textLength="74.8617" x="80.4" y="181.6852">+getNextGenerationDate(): int</text><text fill="#000000" font-family="sans-serif" font-size="5.6" lengthAdjust="spacing" textLength="42.175" x="80.4" y="189.1336">+getInterval(): int</text><text fill="#000000" font-family="sans-serif" font-size="5.6" lengthAdjust="spacing" textLength="8.3973" x="80.4" y="196.582">...()</text></g><!--class GenerationEvent--><g id="elem_GenerationEvent"><rect codeLine="30" fill="#F1F1F1" height="56.4422" id="GenerationEvent" rx="1" ry="1" style="stroke:#181818;stroke-width:0.20000000000000004;" width="54.8273" x="99.6" y="323.4"/><ellipse cx="105.6" cy="329.8" fill="#ADD1B2" rx="4.4" ry="4.4" style="stroke:#181818;stroke-width:0.4000000000000001;"/><path d="M106.7063,328.15 Q106.7688,328.0625 106.8438,328.0188 Q106.9188,327.975 107.0063,327.975 Q107.1563,327.975 107.25,328.0813 Q107.3438,328.1813 107.3438,328.425 L107.3438,329.0063 Q107.3438,329.25 107.25,329.3563 Q107.1563,329.4625 107.0063,329.4625 Q106.8688,329.4625 106.7875,329.3813 Q106.7063,329.3063 106.6625,329.1 Q106.6438,328.9563 106.5688,328.8813 Q106.4375,328.7313 106.1938,328.6438 Q105.95,328.5563 105.7,328.5563 Q105.3938,328.5563 105.1375,328.6875 Q104.8875,328.8188 104.6875,329.1188 Q104.4938,329.4188 104.4938,329.8313 L104.4938,330.2688 Q104.4938,330.7625 104.85,331.0938 Q105.2063,331.4188 105.8438,331.4188 Q106.2188,331.4188 106.4813,331.3188 Q106.6375,331.2563 106.8063,331.0813 Q106.9125,330.975 106.9688,330.9438 Q107.0313,330.9125 107.1125,330.9125 Q107.2438,330.9125 107.3438,331.0188 Q107.45,331.1188 107.45,331.2563 Q107.45,331.3938 107.3125,331.5563 Q107.1125,331.7875 106.7938,331.9188 Q106.3625,332.1 105.8438,332.1 Q105.2375,332.1 104.7563,331.85 Q104.3625,331.65 104.0875,331.225 Q103.8125,330.7938 103.8125,330.2813 L103.8125,329.8188 Q103.8125,329.2875 104.0563,328.8313 Q104.3063,328.3688 104.7438,328.125 Q105.1813,327.875 105.675,327.875 Q105.9688,327.875 106.225,327.9438 Q106.4875,328.0063 106.7063,328.15 Z " fill="#000000"/><text fill="#000000" font-family="sans-serif" font-size="5.6" lengthAdjust="spacing" textLength="42.0273" x="111.2" y="332.1188">GenerationEvent</text><line style="stroke:#181818;stroke-width:0.20000000000000004;" x1="100" x2="154.0273" y1="336.2" y2="336.2"/><text fill="#000000" font-family="sans-serif" font-size="5.6" lengthAdjust="spacing" textLength="37.3543" x="102" y="343.843">-Station station</text><text fill="#000000" font-family="sans-serif" font-size="5.6" lengthAdjust="spacing" textLength="49.175" x="102" y="351.2914">-Resource resource</text><text fill="#000000" font-family="sans-serif" font-size="5.6" lengthAdjust="spacing" textLength="4.6676" x="102" y="358.7398">...</text><line style="stroke:#181818;stroke-width:0.20000000000000004;" x1="100" x2="154.0273" y1="361.7453" y2="361.7453"/><text fill="#000000" font-family="sans-serif" font-size="5.6" lengthAdjust="spacing" textLength="36.2578" x="102" y="369.3883">+trigger(): void</text><text fill="#000000" font-family="sans-serif" font-size="5.6" lengthAdjust="spacing" textLength="8.3973" x="102" y="376.8367">...()</text></g><!--class ExportEvent--><g id="elem_ExportEvent"><rect codeLine="38" fill="#F1F1F1" height="56.4422" id="ExportEvent" rx="1" ry="1" style="stroke:#181818;stroke-width:0.20000000000000004;" width="81.6742" x="3.8" y="323.4"/><ellipse cx="27.6848" cy="329.8" fill="#ADD1B2" rx="4.4" ry="4.4" style="stroke:#181818;stroke-width:0.4000000000000001;"/><path d="M28.791,328.15 Q28.8535,328.0625 28.9285,328.0188 Q29.0035,327.975 29.091,327.975 Q29.241,327.975 29.3348,328.0813 Q29.4285,328.1813 29.4285,328.425 L29.4285,329.0063 Q29.4285,329.25 29.3348,329.3563 Q29.241,329.4625 29.091,329.4625 Q28.9535,329.4625 28.8723,329.3813 Q28.791,329.3063 28.7473,329.1 Q28.7285,328.9563 28.6535,328.8813 Q28.5223,328.7313 28.2785,328.6438 Q28.0348,328.5563 27.7848,328.5563 Q27.4785,328.5563 27.2223,328.6875 Q26.9723,328.8188 26.7723,329.1188 Q26.5785,329.4188 26.5785,329.8313 L26.5785,330.2688 Q26.5785,330.7625 26.9348,331.0938 Q27.291,331.4188 27.9285,331.4188 Q28.3035,331.4188 28.566,331.3188 Q28.7223,331.2563 28.891,331.0813 Q28.9973,330.975 29.0535,330.9438 Q29.116,330.9125 29.1973,330.9125 Q29.3285,330.9125 29.4285,331.0188 Q29.5348,331.1188 29.5348,331.2563 Q29.5348,331.3938 29.3973,331.5563 Q29.1973,331.7875 28.8785,331.9188 Q28.4473,332.1 27.9285,332.1 Q27.3223,332.1 26.841,331.85 Q26.4473,331.65 26.1723,331.225 Q25.8973,330.7938 25.8973,330.2813 L25.8973,329.8188 Q25.8973,329.2875 26.141,328.8313 Q26.391,328.3688 26.8285,328.125 Q27.266,327.875 27.7598,327.875 Q28.0535,327.875 28.3098,327.9438 Q28.5723,328.0063 28.791,328.15 Z " fill="#000000"/><text fill="#000000" font-family="sans-serif" font-size="5.6" lengthAdjust="spacing" textLength="30.5047" x="35.8848" y="332.1188">ExportEvent</text><line style="stroke:#181818;stroke-width:0.20000000000000004;" x1="4.2" x2="85.0742" y1="336.2" y2="336.2"/><text fill="#000000" font-family="sans-serif" font-size="5.6" lengthAdjust="spacing" textLength="37.3543" x="6.2" y="343.843">-Station station</text><text fill="#000000" font-family="sans-serif" font-size="5.6" lengthAdjust="spacing" textLength="76.8742" x="6.2" y="351.2914">-ResourcesType resourceType</text><text fill="#000000" font-family="sans-serif" font-size="5.6" lengthAdjust="spacing" textLength="4.6676" x="6.2" y="358.7398">...</text><line style="stroke:#181818;stroke-width:0.20000000000000004;" x1="4.2" x2="85.0742" y1="361.7453" y2="361.7453"/><text fill="#000000" font-family="sans-serif" font-size="5.6" lengthAdjust="spacing" textLength="36.2578" x="6.2" y="369.3883">+trigger(): void</text><text fill="#000000" font-family="sans-serif" font-size="5.6" lengthAdjust="spacing" textLength="8.3973" x="6.2" y="376.8367">...()</text></g><!--class RouteEvent--><g id="elem_RouteEvent"><rect codeLine="46" fill="#F1F1F1" height="63.8906" id="RouteEvent" rx="1" ry="1" style="stroke:#181818;stroke-width:0.20000000000000004;" width="59.5777" x="244" y="231.2"/><ellipse cx="257.8815" cy="237.6" fill="#ADD1B2" rx="4.4" ry="4.4" style="stroke:#181818;stroke-width:0.4000000000000001;"/><path d="M258.9878,235.95 Q259.0503,235.8625 259.1253,235.8188 Q259.2003,235.775 259.2878,235.775 Q259.4378,235.775 259.5315,235.8813 Q259.6253,235.9813 259.6253,236.225 L259.6253,236.8063 Q259.6253,237.05 259.5315,237.1563 Q259.4378,237.2625 259.2878,237.2625 Q259.1503,237.2625 259.069,237.1813 Q258.9878,237.1063 258.944,236.9 Q258.9253,236.7563 258.8503,236.6813 Q258.719,236.5313 258.4753,236.4438 Q258.2315,236.3563 257.9815,236.3563 Q257.6753,236.3563 257.419,236.4875 Q257.169,236.6188 256.969,236.9188 Q256.7753,237.2188 256.7753,237.6313 L256.7753,238.0688 Q256.7753,238.5625 257.1315,238.8938 Q257.4878,239.2188 258.1253,239.2188 Q258.5003,239.2188 258.7628,239.1188 Q258.919,239.0563 259.0878,238.8813 Q259.194,238.775 259.2503,238.7438 Q259.3128,238.7125 259.394,238.7125 Q259.5253,238.7125 259.6253,238.8188 Q259.7315,238.9188 259.7315,239.0563 Q259.7315,239.1938 259.594,239.3563 Q259.394,239.5875 259.0753,239.7188 Q258.644,239.9 258.1253,239.9 Q257.519,239.9 257.0378,239.65 Q256.644,239.45 256.369,239.025 Q256.094,238.5938 256.094,238.0813 L256.094,237.6188 Q256.094,237.0875 256.3378,236.6313 Q256.5878,236.1688 257.0253,235.925 Q257.4628,235.675 257.9565,235.675 Q258.2503,235.675 258.5065,235.7438 Q258.769,235.8063 258.9878,235.95 Z " fill="#000000"/><text fill="#000000" font-family="sans-serif" font-size="5.6" lengthAdjust="spacing" textLength="29.2633" x="265.2329" y="239.9188">RouteEvent</text><line style="stroke:#181818;stroke-width:0.20000000000000004;" x1="244.4" x2="303.1777" y1="244" y2="244"/><text fill="#000000" font-family="sans-serif" font-size="5.6" lengthAdjust="spacing" textLength="31.1281" x="246.4" y="251.643">-Route route</text><text fill="#000000" font-family="sans-serif" font-size="5.6" lengthAdjust="spacing" textLength="54.7777" x="246.4" y="259.0914">-Simulation simulation</text><text fill="#000000" font-family="sans-serif" font-size="5.6" lengthAdjust="spacing" textLength="46.6895" x="246.4" y="266.5398">-Scenario scenario</text><text fill="#000000" font-family="sans-serif" font-size="5.6" lengthAdjust="spacing" textLength="4.6676" x="246.4" y="273.9883">...</text><line style="stroke:#181818;stroke-width:0.20000000000000004;" x1="244.4" x2="303.1777" y1="276.9938" y2="276.9938"/><text fill="#000000" font-family="sans-serif" font-size="5.6" lengthAdjust="spacing" textLength="36.2578" x="246.4" y="284.6367">+trigger(): void</text><text fill="#000000" font-family="sans-serif" font-size="5.6" lengthAdjust="spacing" textLength="8.3973" x="246.4" y="292.0852">...()</text></g><!--class Station--><g id="elem_Station"><rect codeLine="55" fill="#F1F1F1" height="78.7875" id="Station" rx="1" ry="1" style="stroke:#181818;stroke-width:0.20000000000000004;" width="164.9441" x="77.4" y="408"/><ellipse cx="149.4549" cy="414.4" fill="#ADD1B2" rx="4.4" ry="4.4" style="stroke:#181818;stroke-width:0.4000000000000001;"/><path d="M150.5611,412.75 Q150.6236,412.6625 150.6986,412.6188 Q150.7736,412.575 150.8611,412.575 Q151.0111,412.575 151.1049,412.6813 Q151.1986,412.7813 151.1986,413.025 L151.1986,413.6063 Q151.1986,413.85 151.1049,413.9563 Q151.0111,414.0625 150.8611,414.0625 Q150.7236,414.0625 150.6424,413.9813 Q150.5611,413.9063 150.5174,413.7 Q150.4986,413.5563 150.4236,413.4813 Q150.2924,413.3313 150.0486,413.2438 Q149.8049,413.1563 149.5549,413.1563 Q149.2486,413.1563 148.9924,413.2875 Q148.7424,413.4188 148.5424,413.7188 Q148.3486,414.0188 148.3486,414.4313 L148.3486,414.8688 Q148.3486,415.3625 148.7049,415.6938 Q149.0611,416.0188 149.6986,416.0188 Q150.0736,416.0188 150.3361,415.9188 Q150.4924,415.8563 150.6611,415.6813 Q150.7674,415.575 150.8236,415.5438 Q150.8861,415.5125 150.9674,415.5125 Q151.0986,415.5125 151.1986,415.6188 Q151.3049,415.7188 151.3049,415.8563 Q151.3049,415.9938 151.1674,416.1563 Q150.9674,416.3875 150.6486,416.5188 Q150.2174,416.7 149.6986,416.7 Q149.0924,416.7 148.6111,416.45 Q148.2174,416.25 147.9424,415.825 Q147.6674,415.3938 147.6674,414.8813 L147.6674,414.4188 Q147.6674,413.8875 147.9111,413.4313 Q148.1611,412.9688 148.5986,412.725 Q149.0361,412.475 149.5299,412.475 Q149.8236,412.475 150.0799,412.5438 Q150.3424,412.6063 150.5611,412.75 Z " fill="#000000"/><text fill="#000000" font-family="sans-serif" font-size="5.6" lengthAdjust="spacing" textLength="17.4344" x="157.6549" y="416.7188">Station</text><line style="stroke:#181818;stroke-width:0.20000000000000004;" x1="77.8" x2="241.9441" y1="420.8" y2="420.8"/><text fill="#000000" font-family="sans-serif" font-size="5.6" lengthAdjust="spacing" textLength="49.1777" x="79.8" y="428.443">-Inventory inventory</text><text fill="#000000" font-family="sans-serif" font-size="5.6" lengthAdjust="spacing" textLength="98.3637" x="79.8" y="435.8914">-List&lt;StationAssociations&gt; associations</text><text fill="#000000" font-family="sans-serif" font-size="5.6" lengthAdjust="spacing" textLength="4.6676" x="79.8" y="443.3398">...</text><line style="stroke:#181818;stroke-width:0.20000000000000004;" x1="77.8" x2="241.9441" y1="446.3453" y2="446.3453"/><text fill="#000000" font-family="sans-serif" font-size="5.6" lengthAdjust="spacing" textLength="127.7719" x="79.8" y="453.9883">+addResourceToInventory(resource: Resource): int</text><text fill="#000000" font-family="sans-serif" font-size="5.6" lengthAdjust="spacing" textLength="143.6313" x="79.8" y="461.4367">+removeResourceFromInventory(resource: Resource): int</text><text fill="#000000" font-family="sans-serif" font-size="5.6" lengthAdjust="spacing" textLength="160.1441" x="79.8" y="468.8852">+existsResourceInInventory(resource: ResourcesType): boolean</text><text fill="#000000" font-family="sans-serif" font-size="5.6" lengthAdjust="spacing" textLength="138.6711" x="79.8" y="476.3336">+getResourcesTypeRequested(): List&lt;ResourcesType&gt;</text><text fill="#000000" font-family="sans-serif" font-size="5.6" lengthAdjust="spacing" textLength="8.3973" x="79.8" y="483.782">...()</text></g><!--class Inventory--><g id="elem_Inventory"><rect codeLine="66" fill="#F1F1F1" height="63.8906" id="Inventory" rx="1" ry="1" style="stroke:#181818;stroke-width:0.20000000000000004;" width="112.332" x="103.6" y="511.2"/><ellipse cx="146.5488" cy="517.6" fill="#ADD1B2" rx="4.4" ry="4.4" style="stroke:#181818;stroke-width:0.4000000000000001;"/><path d="M147.6551,515.95 Q147.7176,515.8625 147.7926,515.8188 Q147.8676,515.775 147.9551,515.775 Q148.1051,515.775 148.1988,515.8813 Q148.2926,515.9813 148.2926,516.225 L148.2926,516.8063 Q148.2926,517.05 148.1988,517.1563 Q148.1051,517.2625 147.9551,517.2625 Q147.8176,517.2625 147.7363,517.1813 Q147.6551,517.1063 147.6113,516.9 Q147.5926,516.7563 147.5176,516.6813 Q147.3863,516.5313 147.1426,516.4438 Q146.8988,516.3563 146.6488,516.3563 Q146.3426,516.3563 146.0863,516.4875 Q145.8363,516.6188 145.6363,516.9188 Q145.4426,517.2188 145.4426,517.6313 L145.4426,518.0688 Q145.4426,518.5625 145.7988,518.8938 Q146.1551,519.2188 146.7926,519.2188 Q147.1676,519.2188 147.4301,519.1188 Q147.5863,519.0563 147.7551,518.8813 Q147.8613,518.775 147.9176,518.7438 Q147.9801,518.7125 148.0613,518.7125 Q148.1926,518.7125 148.2926,518.8188 Q148.3988,518.9188 148.3988,519.0563 Q148.3988,519.1938 148.2613,519.3563 Q148.0613,519.5875 147.7426,519.7188 Q147.3113,519.9 146.7926,519.9 Q146.1863,519.9 145.7051,519.65 Q145.3113,519.45 145.0363,519.025 Q144.7613,518.5938 144.7613,518.0813 L144.7613,517.6188 Q144.7613,517.0875 145.0051,516.6313 Q145.2551,516.1688 145.6926,515.925 Q146.1301,515.675 146.6238,515.675 Q146.9176,515.675 147.1738,515.7438 Q147.4363,515.8063 147.6551,515.95 Z " fill="#000000"/><text fill="#000000" font-family="sans-serif" font-size="5.6" lengthAdjust="spacing" textLength="23.0344" x="154.7488" y="519.9188">Inventory</text><line style="stroke:#181818;stroke-width:0.20000000000000004;" x1="104" x2="215.532" y1="524" y2="524"/><text fill="#000000" font-family="sans-serif" font-size="5.6" lengthAdjust="spacing" textLength="67.2301" x="106" y="531.643">-List&lt;Resource&gt; resources</text><text fill="#000000" font-family="sans-serif" font-size="5.6" lengthAdjust="spacing" textLength="4.6676" x="106" y="539.0914">...</text><line style="stroke:#181818;stroke-width:0.20000000000000004;" x1="104" x2="215.532" y1="542.0969" y2="542.0969"/><text fill="#000000" font-family="sans-serif" font-size="5.6" lengthAdjust="spacing" textLength="98.2023" x="106" y="549.7398">+addResource(resource: Resource): int</text><text fill="#000000" font-family="sans-serif" font-size="5.6" lengthAdjust="spacing" textLength="107.532" x="106" y="557.1883">+removeResource(resource: Resource): int</text><text fill="#000000" font-family="sans-serif" font-size="5.6" lengthAdjust="spacing" textLength="90.1086" x="106" y="564.6367">+getAllResources(): List&lt;Resource&gt;</text><text fill="#000000" font-family="sans-serif" font-size="5.6" lengthAdjust="spacing" textLength="8.3973" x="106" y="572.0852">...()</text></g><!--class Resource--><g id="elem_Resource"><rect codeLine="75" fill="#F1F1F1" height="63.8906" id="Resource" rx="1" ry="1" style="stroke:#181818;stroke-width:0.20000000000000004;" width="98.3293" x="49" y="599.6"/><ellipse cx="84.4813" cy="606" fill="#ADD1B2" rx="4.4" ry="4.4" style="stroke:#181818;stroke-width:0.4000000000000001;"/><path d="M85.5875,604.35 Q85.65,604.2625 85.725,604.2188 Q85.8,604.175 85.8875,604.175 Q86.0375,604.175 86.1313,604.2813 Q86.225,604.3813 86.225,604.625 L86.225,605.2063 Q86.225,605.45 86.1313,605.5563 Q86.0375,605.6625 85.8875,605.6625 Q85.75,605.6625 85.6688,605.5813 Q85.5875,605.5063 85.5438,605.3 Q85.525,605.1563 85.45,605.0813 Q85.3188,604.9313 85.075,604.8438 Q84.8313,604.7563 84.5813,604.7563 Q84.275,604.7563 84.0188,604.8875 Q83.7688,605.0188 83.5688,605.3188 Q83.375,605.6188 83.375,606.0313 L83.375,606.4688 Q83.375,606.9625 83.7313,607.2938 Q84.0875,607.6188 84.725,607.6188 Q85.1,607.6188 85.3625,607.5188 Q85.5188,607.4563 85.6875,607.2813 Q85.7938,607.175 85.85,607.1438 Q85.9125,607.1125 85.9938,607.1125 Q86.125,607.1125 86.225,607.2188 Q86.3313,607.3188 86.3313,607.4563 Q86.3313,607.5938 86.1938,607.7563 Q85.9938,607.9875 85.675,608.1188 Q85.2438,608.3 84.725,608.3 Q84.1188,608.3 83.6375,608.05 Q83.2438,607.85 82.9688,607.425 Q82.6938,606.9938 82.6938,606.4813 L82.6938,606.0188 Q82.6938,605.4875 82.9375,605.0313 Q83.1875,604.5688 83.625,604.325 Q84.0625,604.075 84.5563,604.075 Q84.85,604.075 85.1063,604.1438 Q85.3688,604.2063 85.5875,604.35 Z " fill="#000000"/><text fill="#000000" font-family="sans-serif" font-size="5.6" lengthAdjust="spacing" textLength="23.9668" x="92.6813" y="608.3188">Resource</text><line style="stroke:#181818;stroke-width:0.20000000000000004;" x1="49.4" x2="146.9293" y1="612.4" y2="612.4"/><text fill="#000000" font-family="sans-serif" font-size="5.6" lengthAdjust="spacing" textLength="76.8742" x="51.4" y="620.043">-ResourcesType resourceType</text><text fill="#000000" font-family="sans-serif" font-size="5.6" lengthAdjust="spacing" textLength="28.9488" x="51.4" y="627.4914">-int quantity</text><text fill="#000000" font-family="sans-serif" font-size="5.6" lengthAdjust="spacing" textLength="4.6676" x="51.4" y="634.9398">...</text><line style="stroke:#181818;stroke-width:0.20000000000000004;" x1="49.4" x2="146.9293" y1="637.9453" y2="637.9453"/><text fill="#000000" font-family="sans-serif" font-size="5.6" lengthAdjust="spacing" textLength="93.5293" x="51.4" y="645.5883">+getResourceType(): ResourcesType</text><text fill="#000000" font-family="sans-serif" font-size="5.6" lengthAdjust="spacing" textLength="44.666" x="51.4" y="653.0367">+getQuantity(): int</text><text fill="#000000" font-family="sans-serif" font-size="5.6" lengthAdjust="spacing" textLength="8.3973" x="51.4" y="660.4852">...()</text></g><!--class ResourcesType--><g id="elem_ResourcesType"><rect codeLine="84" fill="#F1F1F1" height="63.8906" id="ResourcesType" rx="1" ry="1" style="stroke:#181818;stroke-width:0.20000000000000004;" width="65.957" x="2.8" y="688"/><ellipse cx="15.0733" cy="694.4" fill="#ADD1B2" rx="4.4" ry="4.4" style="stroke:#181818;stroke-width:0.4000000000000001;"/><path d="M16.1795,692.75 Q16.242,692.6625 16.317,692.6188 Q16.392,692.575 16.4795,692.575 Q16.6295,692.575 16.7233,692.6813 Q16.817,692.7813 16.817,693.025 L16.817,693.6063 Q16.817,693.85 16.7233,693.9563 Q16.6295,694.0625 16.4795,694.0625 Q16.342,694.0625 16.2608,693.9813 Q16.1795,693.9063 16.1358,693.7 Q16.117,693.5563 16.042,693.4813 Q15.9108,693.3313 15.667,693.2438 Q15.4233,693.1563 15.1733,693.1563 Q14.867,693.1563 14.6108,693.2875 Q14.3608,693.4188 14.1608,693.7188 Q13.967,694.0188 13.967,694.4313 L13.967,694.8688 Q13.967,695.3625 14.3233,695.6938 Q14.6795,696.0188 15.317,696.0188 Q15.692,696.0188 15.9545,695.9188 Q16.1108,695.8563 16.2795,695.6813 Q16.3858,695.575 16.442,695.5438 Q16.5045,695.5125 16.5858,695.5125 Q16.717,695.5125 16.817,695.6188 Q16.9233,695.7188 16.9233,695.8563 Q16.9233,695.9938 16.7858,696.1563 Q16.5858,696.3875 16.267,696.5188 Q15.8358,696.7 15.317,696.7 Q14.7108,696.7 14.2295,696.45 Q13.8358,696.25 13.5608,695.825 Q13.2858,695.3938 13.2858,694.8813 L13.2858,694.4188 Q13.2858,693.8875 13.5295,693.4313 Q13.7795,692.9688 14.217,692.725 Q14.6545,692.475 15.1483,692.475 Q15.442,692.475 15.6983,692.5438 Q15.9608,692.6063 16.1795,692.75 Z " fill="#000000"/><text fill="#000000" font-family="sans-serif" font-size="5.6" lengthAdjust="spacing" textLength="39.2164" x="22.0673" y="696.7188">ResourcesType</text><line style="stroke:#181818;stroke-width:0.20000000000000004;" x1="3.2" x2="68.357" y1="700.8" y2="700.8"/><text fill="#000000" font-family="sans-serif" font-size="5.6" lengthAdjust="spacing" textLength="32.0578" x="5.2" y="708.443">-String name</text><text fill="#000000" font-family="sans-serif" font-size="5.6" lengthAdjust="spacing" textLength="46.6813" x="5.2" y="715.8914">-int maxResources</text><text fill="#000000" font-family="sans-serif" font-size="5.6" lengthAdjust="spacing" textLength="4.6676" x="5.2" y="723.3398">...</text><line style="stroke:#181818;stroke-width:0.20000000000000004;" x1="3.2" x2="68.357" y1="726.3453" y2="726.3453"/><text fill="#000000" font-family="sans-serif" font-size="5.6" lengthAdjust="spacing" textLength="47.4633" x="5.2" y="733.9883">+getName(): String</text><text fill="#000000" font-family="sans-serif" font-size="5.6" lengthAdjust="spacing" textLength="61.157" x="5.2" y="741.4367">+getMaxResources(): int</text><text fill="#000000" font-family="sans-serif" font-size="5.6" lengthAdjust="spacing" textLength="8.3973" x="5.2" y="748.8852">...()</text></g><!--class route--><g id="elem_Route"><rect codeLine="93" fill="#F1F1F1" height="63.8906" id="Route" rx="1" ry="1" style="stroke:#181818;stroke-width:0.20000000000000004;" width="75.6203" x="200.4" y="319.6"/><ellipse cx="229.0385" cy="326" fill="#ADD1B2" rx="4.4" ry="4.4" style="stroke:#181818;stroke-width:0.4000000000000001;"/><path d="M230.1447,324.35 Q230.2072,324.2625 230.2822,324.2188 Q230.3572,324.175 230.4447,324.175 Q230.5947,324.175 230.6885,324.2813 Q230.7822,324.3813 230.7822,324.625 L230.7822,325.2063 Q230.7822,325.45 230.6885,325.5563 Q230.5947,325.6625 230.4447,325.6625 Q230.3072,325.6625 230.226,325.5813 Q230.1447,325.5063 230.101,325.3 Q230.0822,325.1563 230.0072,325.0813 Q229.876,324.9313 229.6322,324.8438 Q229.3885,324.7563 229.1385,324.7563 Q228.8322,324.7563 228.576,324.8875 Q228.326,325.0188 228.126,325.3188 Q227.9322,325.6188 227.9322,326.0313 L227.9322,326.4688 Q227.9322,326.9625 228.2885,327.2938 Q228.6447,327.6188 229.2822,327.6188 Q229.6572,327.6188 229.9197,327.5188 Q230.076,327.4563 230.2447,327.2813 Q230.351,327.175 230.4072,327.1438 Q230.4697,327.1125 230.551,327.1125 Q230.6822,327.1125 230.7822,327.2188 Q230.8885,327.3188 230.8885,327.4563 Q230.8885,327.5938 230.751,327.7563 Q230.551,327.9875 230.2322,328.1188 Q229.801,328.3 229.2822,328.3 Q228.676,328.3 228.1947,328.05 Q227.801,327.85 227.526,327.425 Q227.251,326.9938 227.251,326.4813 L227.251,326.0188 Q227.251,325.4875 227.4947,325.0313 Q227.7447,324.5688 228.1822,324.325 Q228.6197,324.075 229.1135,324.075 Q229.4072,324.075 229.6635,324.1438 Q229.926,324.2063 230.1447,324.35 Z " fill="#000000"/><text fill="#000000" font-family="sans-serif" font-size="5.6" lengthAdjust="spacing" textLength="14.9434" x="237.2385" y="328.3188">Route</text><line style="stroke:#181818;stroke-width:0.20000000000000004;" x1="200.8" x2="275.6203" y1="332.4" y2="332.4"/><text fill="#000000" font-family="sans-serif" font-size="5.6" lengthAdjust="spacing" textLength="27.073" x="202.8" y="340.043">-Train train</text><text fill="#000000" font-family="sans-serif" font-size="5.6" lengthAdjust="spacing" textLength="55.4094" x="202.8" y="347.4914">-List&lt;Station&gt; stations</text><text fill="#000000" font-family="sans-serif" font-size="5.6" lengthAdjust="spacing" textLength="4.6676" x="202.8" y="354.9398">...</text><line style="stroke:#181818;stroke-width:0.20000000000000004;" x1="200.8" x2="275.6203" y1="357.9453" y2="357.9453"/><text fill="#000000" font-family="sans-serif" font-size="5.6" lengthAdjust="spacing" textLength="70.8203" x="202.8" y="365.5883">+getStations(): List&lt;Station&gt;</text><text fill="#000000" font-family="sans-serif" font-size="5.6" lengthAdjust="spacing" textLength="43.4137" x="202.8" y="373.0367">+getTrain(): Train</text><text fill="#000000" font-family="sans-serif" font-size="5.6" lengthAdjust="spacing" textLength="8.3973" x="202.8" y="380.4852">...()</text></g><!--class Train--><g id="elem_Train"><rect codeLine="102" fill="#F1F1F1" height="48.9938" id="Train" rx="1" ry="1" style="stroke:#181818;stroke-width:0.20000000000000004;" width="68.7652" x="256.2" y="423"/><ellipse cx="282.5033" cy="429.4" fill="#ADD1B2" rx="4.4" ry="4.4" style="stroke:#181818;stroke-width:0.4000000000000001;"/><path d="M283.6096,427.75 Q283.6721,427.6625 283.7471,427.6188 Q283.8221,427.575 283.9096,427.575 Q284.0596,427.575 284.1533,427.6813 Q284.2471,427.7813 284.2471,428.025 L284.2471,428.6063 Q284.2471,428.85 284.1533,428.9563 Q284.0596,429.0625 283.9096,429.0625 Q283.7721,429.0625 283.6908,428.9813 Q283.6096,428.9063 283.5658,428.7 Q283.5471,428.5563 283.4721,428.4813 Q283.3408,428.3313 283.0971,428.2438 Q282.8533,428.1563 282.6033,428.1563 Q282.2971,428.1563 282.0408,428.2875 Q281.7908,428.4188 281.5908,428.7188 Q281.3971,429.0188 281.3971,429.4313 L281.3971,429.8688 Q281.3971,430.3625 281.7533,430.6938 Q282.1096,431.0188 282.7471,431.0188 Q283.1221,431.0188 283.3846,430.9188 Q283.5408,430.8563 283.7096,430.6813 Q283.8158,430.575 283.8721,430.5438 Q283.9346,430.5125 284.0158,430.5125 Q284.1471,430.5125 284.2471,430.6188 Q284.3533,430.7188 284.3533,430.8563 Q284.3533,430.9938 284.2158,431.1563 Q284.0158,431.3875 283.6971,431.5188 Q283.2658,431.7 282.7471,431.7 Q282.1408,431.7 281.6596,431.45 Q281.2658,431.25 280.9908,430.825 Q280.7158,430.3938 280.7158,429.8813 L280.7158,429.4188 Q280.7158,428.8875 280.9596,428.4313 Q281.2096,427.9688 281.6471,427.725 Q282.0846,427.475 282.5783,427.475 Q282.8721,427.475 283.1283,427.5438 Q283.3908,427.6063 283.6096,427.75 Z " fill="#000000"/><text fill="#000000" font-family="sans-serif" font-size="5.6" lengthAdjust="spacing" textLength="12.7586" x="290.7033" y="431.7188">Train</text><line style="stroke:#181818;stroke-width:0.20000000000000004;" x1="256.6" x2="324.5652" y1="435.8" y2="435.8"/><text fill="#000000" font-family="sans-serif" font-size="5.6" lengthAdjust="spacing" textLength="49.1777" x="258.6" y="443.443">-Inventory inventory</text><text fill="#000000" font-family="sans-serif" font-size="5.6" lengthAdjust="spacing" textLength="4.6676" x="258.6" y="450.8914">...</text><line style="stroke:#181818;stroke-width:0.20000000000000004;" x1="256.6" x2="324.5652" y1="453.8969" y2="453.8969"/><text fill="#000000" font-family="sans-serif" font-size="5.6" lengthAdjust="spacing" textLength="63.9652" x="258.6" y="461.5398">+getInventory(): Inventory</text><text fill="#000000" font-family="sans-serif" font-size="5.6" lengthAdjust="spacing" textLength="8.3973" x="258.6" y="468.9883">...()</text></g><!--class City--><g id="elem_City"><rect codeLine="109" fill="#F1F1F1" height="19.2" id="City" rx="1" ry="1" style="stroke:#181818;stroke-width:0.20000000000000004;" width="22.4441" x="361" y="622"/><ellipse cx="367" cy="628.4" fill="#ADD1B2" rx="4.4" ry="4.4" style="stroke:#181818;stroke-width:0.4000000000000001;"/><path d="M368.1063,626.75 Q368.1688,626.6625 368.2438,626.6188 Q368.3188,626.575 368.4063,626.575 Q368.5563,626.575 368.65,626.6813 Q368.7438,626.7813 368.7438,627.025 L368.7438,627.6063 Q368.7438,627.85 368.65,627.9563 Q368.5563,628.0625 368.4063,628.0625 Q368.2688,628.0625 368.1875,627.9813 Q368.1063,627.9063 368.0625,627.7 Q368.0438,627.5563 367.9688,627.4813 Q367.8375,627.3313 367.5938,627.2438 Q367.35,627.1563 367.1,627.1563 Q366.7938,627.1563 366.5375,627.2875 Q366.2875,627.4188 366.0875,627.7188 Q365.8938,628.0188 365.8938,628.4313 L365.8938,628.8688 Q365.8938,629.3625 366.25,629.6938 Q366.6063,630.0188 367.2438,630.0188 Q367.6188,630.0188 367.8813,629.9188 Q368.0375,629.8563 368.2063,629.6813 Q368.3125,629.575 368.3688,629.5438 Q368.4313,629.5125 368.5125,629.5125 Q368.6438,629.5125 368.7438,629.6188 Q368.85,629.7188 368.85,629.8563 Q368.85,629.9938 368.7125,630.1563 Q368.5125,630.3875 368.1938,630.5188 Q367.7625,630.7 367.2438,630.7 Q366.6375,630.7 366.1563,630.45 Q365.7625,630.25 365.4875,629.825 Q365.2125,629.3938 365.2125,628.8813 L365.2125,628.4188 Q365.2125,627.8875 365.4563,627.4313 Q365.7063,626.9688 366.1438,626.725 Q366.5813,626.475 367.075,626.475 Q367.3688,626.475 367.625,626.5438 Q367.8875,626.6063 368.1063,626.75 Z " fill="#000000"/><text fill="#000000" font-family="sans-serif" font-size="5.6" lengthAdjust="spacing" textLength="9.6441" x="372.6" y="630.7188">City</text><line style="stroke:#181818;stroke-width:0.20000000000000004;" x1="361.4" x2="383.0441" y1="634.8" y2="634.8"/><line style="stroke:#181818;stroke-width:0.20000000000000004;" x1="361.4" x2="383.0441" y1="638" y2="638"/></g><!--class Industry--><g id="elem_Industry"><rect codeLine="110" fill="#F1F1F1" height="19.2" id="Industry" rx="1" ry="1" style="stroke:#181818;stroke-width:0.20000000000000004;" width="32.7199" x="415.8" y="622"/><ellipse cx="421.8" cy="628.4" fill="#ADD1B2" rx="4.4" ry="4.4" style="stroke:#181818;stroke-width:0.4000000000000001;"/><path d="M422.9063,626.75 Q422.9688,626.6625 423.0438,626.6188 Q423.1188,626.575 423.2063,626.575 Q423.3563,626.575 423.45,626.6813 Q423.5438,626.7813 423.5438,627.025 L423.5438,627.6063 Q423.5438,627.85 423.45,627.9563 Q423.3563,628.0625 423.2063,628.0625 Q423.0688,628.0625 422.9875,627.9813 Q422.9063,627.9063 422.8625,627.7 Q422.8438,627.5563 422.7688,627.4813 Q422.6375,627.3313 422.3938,627.2438 Q422.15,627.1563 421.9,627.1563 Q421.5938,627.1563 421.3375,627.2875 Q421.0875,627.4188 420.8875,627.7188 Q420.6938,628.0188 420.6938,628.4313 L420.6938,628.8688 Q420.6938,629.3625 421.05,629.6938 Q421.4063,630.0188 422.0438,630.0188 Q422.4188,630.0188 422.6813,629.9188 Q422.8375,629.8563 423.0063,629.6813 Q423.1125,629.575 423.1688,629.5438 Q423.2313,629.5125 423.3125,629.5125 Q423.4438,629.5125 423.5438,629.6188 Q423.65,629.7188 423.65,629.8563 Q423.65,629.9938 423.5125,630.1563 Q423.3125,630.3875 422.9938,630.5188 Q422.5625,630.7 422.0438,630.7 Q421.4375,630.7 420.9563,630.45 Q420.5625,630.25 420.2875,629.825 Q420.0125,629.3938 420.0125,628.8813 L420.0125,628.4188 Q420.0125,627.8875 420.2563,627.4313 Q420.5063,626.9688 420.9438,626.725 Q421.3813,626.475 421.875,626.475 Q422.1688,626.475 422.425,626.5438 Q422.6875,626.6063 422.9063,626.75 Z " fill="#000000"/><text fill="#000000" font-family="sans-serif" font-size="5.6" lengthAdjust="spacing" textLength="19.9199" x="427.4" y="630.7188">Industry</text><line style="stroke:#181818;stroke-width:0.20000000000000004;" x1="416.2" x2="448.1199" y1="634.8" y2="634.8"/><line style="stroke:#181818;stroke-width:0.20000000000000004;" x1="416.2" x2="448.1199" y1="638" y2="638"/></g><!--class Scenario--><g id="elem_Scenario"><rect fill="#F1F1F1" height="19.2" id="Scenario" rx="1" ry="1" style="stroke:#181818;stroke-width:0.20000000000000004;" width="34.902" x="290" y="342"/><ellipse cx="296" cy="348.4" fill="#ADD1B2" rx="4.4" ry="4.4" style="stroke:#181818;stroke-width:0.4000000000000001;"/><path d="M297.1063,346.75 Q297.1688,346.6625 297.2438,346.6188 Q297.3188,346.575 297.4063,346.575 Q297.5563,346.575 297.65,346.6813 Q297.7438,346.7813 297.7438,347.025 L297.7438,347.6063 Q297.7438,347.85 297.65,347.9563 Q297.5563,348.0625 297.4063,348.0625 Q297.2688,348.0625 297.1875,347.9813 Q297.1063,347.9063 297.0625,347.7 Q297.0438,347.5563 296.9688,347.4813 Q296.8375,347.3313 296.5938,347.2438 Q296.35,347.1563 296.1,347.1563 Q295.7938,347.1563 295.5375,347.2875 Q295.2875,347.4188 295.0875,347.7188 Q294.8938,348.0188 294.8938,348.4313 L294.8938,348.8688 Q294.8938,349.3625 295.25,349.6938 Q295.6063,350.0188 296.2438,350.0188 Q296.6188,350.0188 296.8813,349.9188 Q297.0375,349.8563 297.2063,349.6813 Q297.3125,349.575 297.3688,349.5438 Q297.4313,349.5125 297.5125,349.5125 Q297.6438,349.5125 297.7438,349.6188 Q297.85,349.7188 297.85,349.8563 Q297.85,349.9938 297.7125,350.1563 Q297.5125,350.3875 297.1938,350.5188 Q296.7625,350.7 296.2438,350.7 Q295.6375,350.7 295.1563,350.45 Q294.7625,350.25 294.4875,349.825 Q294.2125,349.3938 294.2125,348.8813 L294.2125,348.4188 Q294.2125,347.8875 294.4563,347.4313 Q294.7063,346.9688 295.1438,346.725 Q295.5813,346.475 296.075,346.475 Q296.3688,346.475 296.625,346.5438 Q296.8875,346.6063 297.1063,346.75 Z " fill="#000000"/><text fill="#000000" font-family="sans-serif" font-size="5.6" lengthAdjust="spacing" textLength="22.102" x="301.6" y="350.7188">Scenario</text><line style="stroke:#181818;stroke-width:0.20000000000000004;" x1="290.4" x2="324.502" y1="354.8" y2="354.8"/><line style="stroke:#181818;stroke-width:0.20000000000000004;" x1="290.4" x2="324.502" y1="358" y2="358"/></g><!--class StationAssociations--><g id="elem_StationAssociations"><rect fill="#F1F1F1" height="19.2" id="StationAssociations" rx="1" ry="1" style="stroke:#181818;stroke-width:0.20000000000000004;" width="61.6715" x="367.4" y="533.6"/><ellipse cx="373.4" cy="540" fill="#ADD1B2" rx="4.4" ry="4.4" style="stroke:#181818;stroke-width:0.4000000000000001;"/><path d="M374.5063,538.35 Q374.5688,538.2625 374.6438,538.2188 Q374.7188,538.175 374.8063,538.175 Q374.9563,538.175 375.05,538.2813 Q375.1438,538.3813 375.1438,538.625 L375.1438,539.2063 Q375.1438,539.45 375.05,539.5563 Q374.9563,539.6625 374.8063,539.6625 Q374.6688,539.6625 374.5875,539.5813 Q374.5063,539.5063 374.4625,539.3 Q374.4438,539.1563 374.3688,539.0813 Q374.2375,538.9313 373.9938,538.8438 Q373.75,538.7563 373.5,538.7563 Q373.1938,538.7563 372.9375,538.8875 Q372.6875,539.0188 372.4875,539.3188 Q372.2938,539.6188 372.2938,540.0313 L372.2938,540.4688 Q372.2938,540.9625 372.65,541.2938 Q373.0063,541.6188 373.6438,541.6188 Q374.0188,541.6188 374.2813,541.5188 Q374.4375,541.4563 374.6063,541.2813 Q374.7125,541.175 374.7688,541.1438 Q374.8313,541.1125 374.9125,541.1125 Q375.0438,541.1125 375.1438,541.2188 Q375.25,541.3188 375.25,541.4563 Q375.25,541.5938 375.1125,541.7563 Q374.9125,541.9875 374.5938,542.1188 Q374.1625,542.3 373.6438,542.3 Q373.0375,542.3 372.5563,542.05 Q372.1625,541.85 371.8875,541.425 Q371.6125,540.9938 371.6125,540.4813 L371.6125,540.0188 Q371.6125,539.4875 371.8563,539.0313 Q372.1063,538.5688 372.5438,538.325 Q372.9813,538.075 373.475,538.075 Q373.7688,538.075 374.025,538.1438 Q374.2875,538.2063 374.5063,538.35 Z " fill="#000000"/><text fill="#000000" font-family="sans-serif" font-size="5.6" lengthAdjust="spacing" textLength="48.8715" x="379" y="542.3188">StationAssociations</text><line style="stroke:#181818;stroke-width:0.20000000000000004;" x1="367.8" x2="428.6715" y1="546.4" y2="546.4"/><line style="stroke:#181818;stroke-width:0.20000000000000004;" x1="367.8" x2="428.6715" y1="549.6" y2="549.6"/></g><!--reverse link Simulation to Event--><g id="link_Simulation_Event"><path codeLine="113" d="M196.8533,72.1376 C171.2693,87.0536 147,101.2 147,101.2 C147,101.2 142.632,109.964 137.276,120.712 " fill="none" id="Simulation-backto-Event" style="stroke:#181818;stroke-width:0.4000000000000001;"/><polygon fill="#181818" points="201,69.72,198.1208,69.5466,196.8533,72.1376,199.7325,72.311,201,69.72" style="stroke:#181818;stroke-width:0.4000000000000001;"/><text fill="#000000" font-family="sans-serif" font-size="5.2" lengthAdjust="spacing" textLength="20.8152" x="147.4" y="107.2113">schedule</text><text fill="#000000" font-family="sans-serif" font-size="5.2" lengthAdjust="spacing" textLength="2.892" x="194.9054" y="70.1618">1</text><text fill="#000000" font-family="sans-serif" font-size="5.2" lengthAdjust="spacing" textLength="2.0236" x="136.6891" y="116.2447">*</text></g><!--link Simulation to Station--><g id="link_Simulation_Station"><path codeLine="114" d="M217.56,89.272 C200.004,121.384 179,159.8 179,159.8 C179,159.8 179,159.8 179,352 C179,352 173.4635,379.3956 168.1675,405.5956 " fill="none" id="Simulation-to-Station" style="stroke:#181818;stroke-width:0.4000000000000001;stroke-dasharray:7.0,7.0;"/><polygon fill="#181818" points="167.692,407.948,169.9735,404.7364,168.0883,405.9876,166.837,404.1024,167.692,407.948" style="stroke:#181818;stroke-width:0.4000000000000001;"/></g><!--link Simulation to route--><g id="link_Simulation_Route"><path codeLine="115" d="M240.072,89.26 C238.892,143.852 237,231.2 237,231.2 C237,231.2 237,295.2 237,295.2 C237,295.2 237.2006,304.4965 237.4726,317.2005 " fill="none" id="Simulation-to-Route" style="stroke:#181818;stroke-width:0.4000000000000001;stroke-dasharray:7.0,7.0;"/><polygon fill="#181818" points="237.524,319.6,239.0466,315.9666,237.4812,317.6005,235.8473,316.0351,237.524,319.6" style="stroke:#181818;stroke-width:0.4000000000000001;"/><text fill="#000000" font-family="sans-serif" font-size="5.2" lengthAdjust="spacing" textLength="10.984" x="237.8" y="217.6113">uses</text></g><!--link Simulation to City--><g id="link_Simulation_City"><path codeLine="116" d="M280.772,89.272 C310.564,121.384 346.2,159.8 346.2,159.8 C346.2,159.8 346.2,159.8 346.2,543.6 C346.2,543.6 362.1091,597.1992 368.7851,619.6912 " fill="none" id="Simulation-to-City" style="stroke:#181818;stroke-width:0.4000000000000001;stroke-dasharray:7.0,7.0;"/><polygon fill="#181818" points="369.468,621.992,369.9775,618.0855,368.8989,620.0747,366.9098,618.9961,369.468,621.992" style="stroke:#181818;stroke-width:0.4000000000000001;"/></g><!--link Simulation to Industry--><g id="link_Simulation_Industry"><path codeLine="117" d="M281.088,68.132 C341.832,101.06 450.2,159.8 450.2,159.8 C450.2,159.8 450.2,159.8 450.2,543.6 C450.2,543.6 439.1949,597.1491 434.5749,619.6411 " fill="none" id="Simulation-to-Industry" style="stroke:#181818;stroke-width:0.4000000000000001;stroke-dasharray:7.0,7.0;"/><polygon fill="#181818" points="434.092,621.992,436.3836,618.7876,434.4944,620.0329,433.2491,618.1437,434.092,621.992" style="stroke:#181818;stroke-width:0.4000000000000001;"/></g><!--reverse link Event to GenerationEvent--><g id="link_Event_GenerationEvent"><path codeLine="119" d="M120.031,206.8236 C121.807,243.6356 124.08,290.708 125.656,323.336 " fill="none" id="Event-backto-GenerationEvent" style="stroke:#181818;stroke-width:0.4000000000000001;"/><polygon fill="none" points="119.684,199.632,117.6337,206.9393,122.4282,206.708,119.684,199.632" style="stroke:#181818;stroke-width:0.4000000000000001;"/></g><!--reverse link Event to ExportEvent--><g id="link_Event_ExportEvent"><path codeLine="120" d="M100.2303,206.3532 C86.0903,243.1652 67.832,290.708 55.3,323.336 " fill="none" id="Event-backto-ExportEvent" style="stroke:#181818;stroke-width:0.4000000000000001;"/><polygon fill="none" points="102.812,199.632,97.9899,205.4926,102.4707,207.2138,102.812,199.632" style="stroke:#181818;stroke-width:0.4000000000000001;"/></g><!--reverse link Event to RouteEvent--><g id="link_Event_RouteEvent"><path codeLine="121" d="M164.247,180.4082 C199.039,195.2442 237.4,211.6 237.4,211.6 C237.4,211.6 243.82,220.628 251.264,231.104 " fill="none" id="Event-backto-RouteEvent" style="stroke:#181818;stroke-width:0.4000000000000001;"/><polygon fill="none" points="157.624,177.584,163.3056,182.6158,165.1884,178.2005,157.624,177.584" style="stroke:#181818;stroke-width:0.4000000000000001;"/></g><!--link GenerationEvent to Station--><g id="link_GenerationEvent_Station"><path codeLine="123" d="M136.62,379.86 C139.644,388.62 142.2565,396.1955 145.5005,405.5875 " fill="none" id="GenerationEvent-to-Station" style="stroke:#181818;stroke-width:0.4000000000000001;"/><polygon fill="#181818" points="146.284,407.856,146.621,403.9309,145.6311,405.9656,143.5964,404.9756,146.284,407.856" style="stroke:#181818;stroke-width:0.4000000000000001;"/></g><!--link GenerationEvent to Resource--><g id="link_GenerationEvent_Resource"><path codeLine="124" d="M99.6,379.016 C85.072,393.336 70.2,408 70.2,408 C70.2,408 70.2,486.8 70.2,486.8 C70.2,486.8 83.3551,554.6479 91.5991,597.1559 " fill="none" id="GenerationEvent-to-Resource" style="stroke:#181818;stroke-width:0.4000000000000001;"/><polygon fill="#181818" points="92.056,599.512,92.9413,595.6732,91.6752,597.5486,89.7999,596.2825,92.056,599.512" style="stroke:#181818;stroke-width:0.4000000000000001;"/></g><!--link ExportEvent to Station--><g id="link_ExportEvent_Station"><path codeLine="126" d="M78.384,379.86 C89.04,388.648 99.1646,396.9968 110.5846,406.4168 " fill="none" id="ExportEvent-to-Station" style="stroke:#181818;stroke-width:0.4000000000000001;"/><polygon fill="#181818" points="112.436,407.944,110.677,404.419,110.8932,406.6714,108.6408,406.8875,112.436,407.944" style="stroke:#181818;stroke-width:0.4000000000000001;"/></g><!--link ExportEvent to ResourcesType--><g id="link_ExportEvent_ResourcesType"><path codeLine="127" d="M39.672,379.86 C34.716,407.892 27.8,447 27.8,447 C27.8,447 27.8,447 27.8,632 C27.8,632 30.4017,660.494 32.6937,685.586 " fill="none" id="ExportEvent-to-ResourcesType" style="stroke:#181818;stroke-width:0.4000000000000001;"/><polygon fill="#181818" points="32.912,687.976,34.1779,684.2454,32.7301,685.9843,30.9912,684.5365,32.912,687.976" style="stroke:#181818;stroke-width:0.4000000000000001;"/></g><!--link RouteEvent to route--><g id="link_RouteEvent_Route"><path codeLine="129" d="M260.948,295.224 C257.74,303.116 255.2038,309.3567 251.9958,317.2487 " fill="none" id="RouteEvent-to-Route" style="stroke:#181818;stroke-width:0.4000000000000001;"/><polygon fill="#181818" points="251.092,319.472,253.9299,316.7395,251.8451,317.6192,250.9654,315.5345,251.092,319.472" style="stroke:#181818;stroke-width:0.4000000000000001;"/></g><!--link RouteEvent to Simulation--><g id="link_RouteEvent_Simulation"><path codeLine="130" d="M268.988,231.064 C263.308,193.58 254.1917,133.4249 247.8597,91.6569 " fill="none" id="RouteEvent-to-Simulation" style="stroke:#181818;stroke-width:0.4000000000000001;"/><polygon fill="#181818" points="247.5,89.284,246.4577,93.0832,247.7998,91.2614,249.6215,92.6035,247.5,89.284" style="stroke:#181818;stroke-width:0.4000000000000001;"/></g><!--link RouteEvent to Scenario--><g id="link_RouteEvent_Scenario"><path codeLine="131" d="M285.932,295.224 C292.284,311.792 298.7442,328.6393 302.9882,339.6993 " fill="none" id="RouteEvent-to-Scenario" style="stroke:#181818;stroke-width:0.4000000000000001;"/><polygon fill="#181818" points="303.848,341.94,304.0521,338.0057,303.1315,340.0728,301.0645,339.1522,303.848,341.94" style="stroke:#181818;stroke-width:0.4000000000000001;"/></g><!--link Station to Inventory--><g id="link_Station_Inventory"><path codeLine="133" d="M159.8,486.852 C159.8,494.936 159.8,500.96 159.8,508.744 " fill="none" id="Station-to-Inventory" style="stroke:#181818;stroke-width:0.4000000000000001;"/><polygon fill="#181818" points="159.8,511.144,161.4,507.544,159.8,509.144,158.2,507.544,159.8,511.144" style="stroke:#181818;stroke-width:0.4000000000000001;"/><text fill="#000000" font-family="sans-serif" font-size="5.2" lengthAdjust="spacing" textLength="2.892" x="156.8953" y="495.615">1</text><text fill="#000000" font-family="sans-serif" font-size="5.2" lengthAdjust="spacing" textLength="2.892" x="156.8783" y="506.6971">1</text></g><!--link Station to StationAssociations--><g id="link_Station_StationAssociations"><path codeLine="134" d="M242.22,483.676 C246.692,485.62 249.4,486.8 249.4,486.8 C249.4,486.8 329.1178,516.8027 371.3818,532.7067 " fill="none" id="Station-to-StationAssociations" style="stroke:#181818;stroke-width:0.4000000000000001;"/><polygon fill="#181818" points="373.628,533.552,370.8222,530.7866,371.7561,532.8476,369.6952,533.7816,373.628,533.552" style="stroke:#181818;stroke-width:0.4000000000000001;"/><text fill="#000000" font-family="sans-serif" font-size="5.2" lengthAdjust="spacing" textLength="2.892" x="245.4932" y="483.7741">1</text><text fill="#000000" font-family="sans-serif" font-size="5.2" lengthAdjust="spacing" textLength="2.0236" x="365.069" y="529.0347">*</text></g><!--reverse link StationAssociations to City--><g id="link_StationAssociations_City"><path codeLine="135" d="M393.4184,559.7101 C388.4224,576.5341 379.932,605.152 374.936,621.984 " fill="none" id="StationAssociations-backto-City" style="stroke:#181818;stroke-width:0.4000000000000001;"/><polygon fill="none" points="395.468,552.808,391.1177,559.0269,395.7191,560.3933,395.468,552.808" style="stroke:#181818;stroke-width:0.4000000000000001;"/></g><!--reverse link StationAssociations to Industry--><g id="link_StationAssociations_Industry"><path codeLine="136" d="M404.3805,559.5204 C410.9085,576.3444 422.092,605.152 428.624,621.984 " fill="none" id="StationAssociations-backto-Industry" style="stroke:#181818;stroke-width:0.4000000000000001;"/><polygon fill="none" points="401.776,552.808,402.1431,560.3886,406.618,558.6522,401.776,552.808" style="stroke:#181818;stroke-width:0.4000000000000001;"/></g><!--reverse link Inventory to Resource--><g id="link_Inventory_Resource"><path codeLine="138" d="M134.7995,579.1508 C129.2515,587.0428 126.06,591.58 120.508,599.472 " fill="none" id="Inventory-backto-Resource" style="stroke:#181818;stroke-width:0.4000000000000001;"/><polygon fill="#181818" points="137.56,575.224,134.8708,576.2672,134.7995,579.1508,137.4887,578.1076,137.56,575.224" style="stroke:#181818;stroke-width:0.4000000000000001;"/><text fill="#000000" font-family="sans-serif" font-size="5.2" lengthAdjust="spacing" textLength="2.892" x="132.7353" y="583.8893">1</text><text fill="#000000" font-family="sans-serif" font-size="5.2" lengthAdjust="spacing" textLength="2.0236" x="120.4099" y="595.1292">*</text></g><!--link Resource to ResourcesType--><g id="link_Resource_ResourcesType"><path codeLine="139" d="M75.672,663.624 C70.052,671.516 65.4168,678.0255 59.7928,685.9175 " fill="none" id="Resource-to-ResourcesType" style="stroke:#181818;stroke-width:0.4000000000000001;"/><polygon fill="#181818" points="58.4,687.872,61.7922,685.8688,59.5607,686.2433,59.1862,684.0117,58.4,687.872" style="stroke:#181818;stroke-width:0.4000000000000001;"/></g><!--link route to Station--><g id="link_Route_Station"><path codeLine="141" d="M212.092,383.632 C205.68,391.408 200.2635,397.9689 193.5995,406.0449 " fill="none" id="Route-to-Station" style="stroke:#181818;stroke-width:0.4000000000000001;"/><polygon fill="#181818" points="192.072,407.896,195.5973,406.1376,193.3449,406.3534,193.1291,404.1009,192.072,407.896" style="stroke:#181818;stroke-width:0.4000000000000001;"/><text fill="#000000" font-family="sans-serif" font-size="5.2" lengthAdjust="spacing" textLength="2.892" x="206.9311" y="392.298">1</text><text fill="#000000" font-family="sans-serif" font-size="5.2" lengthAdjust="spacing" textLength="2.0236" x="192.3641" y="403.5613">*</text></g><!--link route to Train--><g id="link_Route_Train"><path codeLine="142" d="M255.648,383.632 C262.704,396.424 269.5569,408.8504 276.1289,420.7664 " fill="none" id="Route-to-Train" style="stroke:#181818;stroke-width:0.4000000000000001;"/><polygon fill="#181818" points="277.288,422.868,276.9504,418.9429,276.3221,421.1167,274.1484,420.4884,277.288,422.868" style="stroke:#181818;stroke-width:0.4000000000000001;"/><text fill="#000000" font-family="sans-serif" font-size="5.2" lengthAdjust="spacing" textLength="2.892" x="254.2302" y="392.298">1</text><text fill="#000000" font-family="sans-serif" font-size="5.2" lengthAdjust="spacing" textLength="2.892" x="272.7943" y="418.4452">1</text></g><!--link Train to Inventory--><g id="link_Train_Inventory"><path codeLine="144" d="M265.212,471.832 C256.732,479.86 249.4,486.8 249.4,486.8 C249.4,486.8 232.7191,497.2239 212.3951,509.9279 " fill="none" id="Train-to-Inventory" style="stroke:#181818;stroke-width:0.4000000000000001;"/><polygon fill="#181818" points="210.36,511.2,214.2608,510.6486,212.0559,510.1399,212.5646,507.9351,210.36,511.2" style="stroke:#181818;stroke-width:0.4000000000000001;"/><text fill="#000000" font-family="sans-serif" font-size="5.2" lengthAdjust="spacing" textLength="2.892" x="259.1549" y="480.8306">1</text><text fill="#000000" font-family="sans-serif" font-size="5.2" lengthAdjust="spacing" textLength="2.892" x="212.2532" y="506.648">1</text></g><!--SRC=[bLPjZzem3FwUNn7nPTnDeEqhEY4XTfkGngG1Vo3NUX1TIRWaPNHi_trvQPeqBHmWGLe_TlpOSMpaAsK78iWU7qZsIhQmLbK1M42c2DiMW6IZ87Savxyfs-9Vf90nKb06gZe0Fl2YCYyHbXL4ofbIWhwK2XOPPslw1_0dX3xWqMY4buGolARxiY2ASeRdHX-amP2rZS4pmlepmfGfd9L205CRkeT8IZ9LacB96LIrz3kLwkdvg5Md6CmYBJ0UZ-tw4OkI1HV3Xma-SfhN6CbpQpgqbXDiNzegMr3pGCNOQnu1cmL2CQRT3n_GFuJ8YrH2itQ9SWvQSUelY2CfQj5QPr8V0IEji1cSr3TW86mGNuY294XjjTs267Qu_-XOTa9Or0nw-JlQOOTs06lb3awwjPQkGF9IPARCtCCDP1E7pwS35-eUPt9ZAjHxD2_tUrrnNSDjfrQ4XVdrD4AzokRHOnam8YZ7idwuduEFqXDOCCE7YqgVJVqKLtwjFfEIPzG-oYacqLl2G5UypzY6DtiFVTucJJvRLI9Wpu_WeQ-2xsysXPEcAJsqODSCxHbgwnVE2o0ib6XBOGLl9KW5kKcZJK8BdlPbDMJn76VF6qwRmhcIh_kIz9wswHr5qJ3lnD8RHdEpphTLl-iURoLXYgeg2ItAgp4m35hR1RMVzGPNEaIRoFbgDzkJq-f2kat78gxDEjiWNqPMruZO2-i9R8IPFyhyzjoQgUybFJHgbN0mtYQesCqDlcdsJyWuz-zTvPRVS3_qnejKBzvyRexKbtTUwZbJ-Qcx0jUMv8uUtAoDkjRWym0_QgN1uw2UHnFThtQGb_h_GAGt7azzDqh5BiaJNEfHdcAMLY8B_9p3fx_QVp9KOYXg_x4uz6U4qf4q6WMsVPYl7KqXcYsnLIflNmOK3GUBsf6G24FO7SGF1EGRl3a6WvWrd7C7rOVKq-DHZypboAN_4XeE8XHZN0zDbffESoaJVGnJHA_kQY1t4Vf3_Wy0]--></g></svg>