<svg xmlns="http://www.w3.org/2000/svg" xmlns:xlink="http://www.w3.org/1999/xlink" contentStyleType="text/css" height="821px" preserveAspectRatio="none" style="width:638px;height:821px;background:#FFFFFF;" version="1.1" viewBox="0 0 638 821" width="638px" zoomAndPan="magnify"><title>System Sequence Diagram (SSD) - US01 - Create a Map</title><defs/><g><text fill="#000000" font-family="sans-serif" font-size="14" font-weight="bold" lengthAdjust="spacing" textLength="399.3008" x="121.3262" y="28.5352">System Sequence Diagram (SSD) - US01 - Create a Map</text><rect fill="#FFFFFF" height="602.1895" style="stroke:#181818;stroke-width:1.0;" width="10" x="58.0054" y="128.9766"/><rect fill="#FFFFFF" height="29.3105" style="stroke:#181818;stroke-width:1.0;" width="10" x="417.7056" y="150.2871"/><rect fill="#FFFFFF" height="144.5527" style="stroke:#181818;stroke-width:1.0;" width="10" x="417.7056" y="208.9082"/><rect fill="#FFFFFF" height="160.1973" style="stroke:#181818;stroke-width:1.0;" width="10" x="417.7056" y="382.7715"/><rect fill="#FFFFFF" height="149.8867" style="stroke:#181818;stroke-width:1.0;" width="10" x="417.7056" y="572.2793"/><rect fill="none" height="427.6367" style="stroke:#000000;stroke-width:1.5;" width="622.9531" x="10" y="223.9082"/><rect fill="none" height="396.3262" style="stroke:#000000;stroke-width:1.5;" width="602.9531" x="20" y="248.2188"/><rect fill="none" height="175.5078" style="stroke:#000000;stroke-width:1.5;" width="582.9531" x="30" y="272.5293"/><rect fill="none" height="175.5078" style="stroke:#000000;stroke-width:1.5;" width="572.3843" x="30" y="462.0371"/><line style="stroke:#181818;stroke-width:0.5;stroke-dasharray:5.0,5.0;" x1="63" x2="63" y1="118.9766" y2="740.166"/><line style="stroke:#181818;stroke-width:0.5;stroke-dasharray:5.0,5.0;" x1="422.4419" x2="422.4419" y1="118.9766" y2="740.166"/><text fill="#000000" font-family="sans-serif" font-size="14" lengthAdjust="spacing" textLength="40.0107" x="40" y="116.0234">Editor</text><ellipse cx="63.0054" cy="50.9883" fill="#E2E2F0" rx="8" ry="8" style="stroke:#181818;stroke-width:0.5;"/><path d="M63.0054,58.9883 L63.0054,85.9883 M50.0054,66.9883 L76.0054,66.9883 M63.0054,85.9883 L50.0054,100.9883 M63.0054,85.9883 L76.0054,100.9883 " fill="none" style="stroke:#181818;stroke-width:0.5;"/><text fill="#000000" font-family="sans-serif" font-size="14" lengthAdjust="spacing" textLength="40.0107" x="40" y="752.7012">Editor</text><ellipse cx="63.0054" cy="764.1543" fill="#E2E2F0" rx="8" ry="8" style="stroke:#181818;stroke-width:0.5;"/><path d="M63.0054,772.1543 L63.0054,799.1543 M50.0054,780.1543 L76.0054,780.1543 M63.0054,799.1543 L50.0054,814.1543 M63.0054,799.1543 L76.0054,814.1543 " fill="none" style="stroke:#181818;stroke-width:0.5;"/><rect fill="#E2E2F0" height="30.4883" rx="2.5" ry="2.5" style="stroke:#181818;stroke-width:0.5;" width="66.5273" x="389.4419" y="87.4883"/><text fill="#000000" font-family="sans-serif" font-size="14" lengthAdjust="spacing" textLength="52.5273" x="396.4419" y="108.0234">:System</text><rect fill="#E2E2F0" height="30.4883" rx="2.5" ry="2.5" style="stroke:#181818;stroke-width:0.5;" width="66.5273" x="389.4419" y="739.166"/><text fill="#000000" font-family="sans-serif" font-size="14" lengthAdjust="spacing" textLength="52.5273" x="396.4419" y="759.7012">:System</text><rect fill="#FFFFFF" height="602.1895" style="stroke:#181818;stroke-width:1.0;" width="10" x="58.0054" y="128.9766"/><rect fill="#FFFFFF" height="29.3105" style="stroke:#181818;stroke-width:1.0;" width="10" x="417.7056" y="150.2871"/><rect fill="#FFFFFF" height="144.5527" style="stroke:#181818;stroke-width:1.0;" width="10" x="417.7056" y="208.9082"/><rect fill="#FFFFFF" height="160.1973" style="stroke:#181818;stroke-width:1.0;" width="10" x="417.7056" y="382.7715"/><rect fill="#FFFFFF" height="149.8867" style="stroke:#181818;stroke-width:1.0;" width="10" x="417.7056" y="572.2793"/><polygon fill="#181818" points="405.7056,146.2871,415.7056,150.2871,405.7056,154.2871,409.7056,150.2871" style="stroke:#181818;stroke-width:1.0;"/><line style="stroke:#181818;stroke-width:1.0;" x1="68.0054" x2="411.7056" y1="150.2871" y2="150.2871"/><text fill="#000000" font-family="sans-serif" font-size="13" lengthAdjust="spacing" textLength="187.5225" x="75.0054" y="145.5449">1. Request to create new map</text><polygon fill="#181818" points="79.0054,175.5977,69.0054,179.5977,79.0054,183.5977,75.0054,179.5977" style="stroke:#181818;stroke-width:1.0;"/><line style="stroke:#181818;stroke-width:1.0;stroke-dasharray:2.0,2.0;" x1="73.0054" x2="421.7056" y1="179.5977" y2="179.5977"/><text fill="#000000" font-family="sans-serif" font-size="13" lengthAdjust="spacing" textLength="258.7749" x="85.0054" y="174.8555">2. Prompt for map name and dimensions</text><polygon fill="#181818" points="405.7056,204.9082,415.7056,208.9082,405.7056,212.9082,409.7056,208.9082" style="stroke:#181818;stroke-width:1.0;"/><line style="stroke:#181818;stroke-width:1.0;" x1="68.0054" x2="411.7056" y1="208.9082" y2="208.9082"/><text fill="#000000" font-family="sans-serif" font-size="13" lengthAdjust="spacing" textLength="330.7002" x="75.0054" y="204.166">3. Submit map name and dimensions (width, height)</text><path d="M10,223.9082 L72.1387,223.9082 L72.1387,231.2188 L62.1387,241.2188 L10,241.2188 L10,223.9082 " fill="#EEEEEE" style="stroke:#000000;stroke-width:1.5;"/><rect fill="none" height="427.6367" style="stroke:#000000;stroke-width:1.5;" width="622.9531" x="10" y="223.9082"/><text fill="#000000" font-family="sans-serif" font-size="13" font-weight="bold" lengthAdjust="spacing" textLength="17.1387" x="25" y="237.4766">alt</text><text fill="#000000" font-family="sans-serif" font-size="11" font-weight="bold" lengthAdjust="spacing" textLength="79.8574" x="87.1387" y="236.543">[Invalid input]</text><path d="M20,248.2188 L94.4468,248.2188 L94.4468,255.5293 L84.4468,265.5293 L20,265.5293 L20,248.2188 " fill="#EEEEEE" style="stroke:#000000;stroke-width:1.5;"/><rect fill="none" height="396.3262" style="stroke:#000000;stroke-width:1.5;" width="602.9531" x="20" y="248.2188"/><text fill="#000000" font-family="sans-serif" font-size="13" font-weight="bold" lengthAdjust="spacing" textLength="29.4468" x="35" y="261.7871">loop</text><text fill="#000000" font-family="sans-serif" font-size="11" font-weight="bold" lengthAdjust="spacing" textLength="181.3711" x="109.4468" y="260.8535">[Until valid inputs are provided]</text><path d="M30,272.5293 L92.1387,272.5293 L92.1387,279.8398 L82.1387,289.8398 L30,289.8398 L30,272.5293 " fill="#EEEEEE" style="stroke:#000000;stroke-width:1.5;"/><rect fill="none" height="175.5078" style="stroke:#000000;stroke-width:1.5;" width="582.9531" x="30" y="272.5293"/><text fill="#000000" font-family="sans-serif" font-size="13" font-weight="bold" lengthAdjust="spacing" textLength="17.1387" x="45" y="286.0977">alt</text><text fill="#000000" font-family="sans-serif" font-size="11" font-weight="bold" lengthAdjust="spacing" textLength="404.7388" x="107.1387" y="285.1641">[Invalid dimensions (AC1: The maps dimensions are positive integers.)]</text><line style="stroke:#181818;stroke-width:1.0;" x1="427.7056" x2="469.7056" y1="311.1504" y2="311.1504"/><line style="stroke:#181818;stroke-width:1.0;" x1="469.7056" x2="469.7056" y1="311.1504" y2="324.1504"/><line style="stroke:#181818;stroke-width:1.0;" x1="428.7056" x2="469.7056" y1="324.1504" y2="324.1504"/><polygon fill="#181818" points="438.7056,320.1504,428.7056,324.1504,438.7056,328.1504,434.7056,324.1504" style="stroke:#181818;stroke-width:1.0;"/><text fill="#000000" font-family="sans-serif" font-size="13" lengthAdjust="spacing" textLength="151.8931" x="434.7056" y="306.4082">4.1 Validate dimensions</text><polygon fill="#181818" points="79.0054,349.4609,69.0054,353.4609,79.0054,357.4609,75.0054,353.4609" style="stroke:#181818;stroke-width:1.0;"/><line style="stroke:#181818;stroke-width:1.0;stroke-dasharray:2.0,2.0;" x1="73.0054" x2="421.7056" y1="353.4609" y2="353.4609"/><text fill="#000000" font-family="sans-serif" font-size="13" lengthAdjust="spacing" textLength="295.2104" x="85.0054" y="348.7188">4.1.1 Show error message (invalid dimensions)</text><polygon fill="#181818" points="405.7056,378.7715,415.7056,382.7715,405.7056,386.7715,409.7056,382.7715" style="stroke:#181818;stroke-width:1.0;"/><line style="stroke:#181818;stroke-width:1.0;" x1="68.0054" x2="411.7056" y1="382.7715" y2="382.7715"/><text fill="#000000" font-family="sans-serif" font-size="13" lengthAdjust="spacing" textLength="138.4424" x="75.0054" y="378.0293">4.1.2 Re-enter details</text><line style="stroke:#000000;stroke-width:1.0;stroke-dasharray:2.0,2.0;" x1="30" x2="612.9531" y1="391.7715" y2="391.7715"/><text fill="#000000" font-family="sans-serif" font-size="11" font-weight="bold" lengthAdjust="spacing" textLength="105.8428" x="35" y="402.4063">[Valid dimensions]</text><line style="stroke:#181818;stroke-width:1.0;" x1="427.7056" x2="469.7056" y1="427.0371" y2="427.0371"/><line style="stroke:#181818;stroke-width:1.0;" x1="469.7056" x2="469.7056" y1="427.0371" y2="440.0371"/><line style="stroke:#181818;stroke-width:1.0;" x1="428.7056" x2="469.7056" y1="440.0371" y2="440.0371"/><polygon fill="#181818" points="438.7056,436.0371,428.7056,440.0371,438.7056,444.0371,434.7056,440.0371" style="stroke:#181818;stroke-width:1.0;"/><text fill="#000000" font-family="sans-serif" font-size="13" lengthAdjust="spacing" textLength="156.2476" x="434.7056" y="422.2949">4.1 Dimensions are valid</text><path d="M30,462.0371 L92.1387,462.0371 L92.1387,469.3477 L82.1387,479.3477 L30,479.3477 L30,462.0371 " fill="#EEEEEE" style="stroke:#000000;stroke-width:1.5;"/><rect fill="none" height="175.5078" style="stroke:#000000;stroke-width:1.5;" width="572.3843" x="30" y="462.0371"/><text fill="#000000" font-family="sans-serif" font-size="13" font-weight="bold" lengthAdjust="spacing" textLength="17.1387" x="45" y="475.6055">alt</text><text fill="#000000" font-family="sans-serif" font-size="11" font-weight="bold" lengthAdjust="spacing" textLength="368.0488" x="107.1387" y="474.6719">[Invalid map name (AC2: Map name should be a valid file name.)]</text><line style="stroke:#181818;stroke-width:1.0;" x1="427.7056" x2="469.7056" y1="500.6582" y2="500.6582"/><line style="stroke:#181818;stroke-width:1.0;" x1="469.7056" x2="469.7056" y1="500.6582" y2="513.6582"/><line style="stroke:#181818;stroke-width:1.0;" x1="428.7056" x2="469.7056" y1="513.6582" y2="513.6582"/><polygon fill="#181818" points="438.7056,509.6582,428.7056,513.6582,438.7056,517.6582,434.7056,513.6582" style="stroke:#181818;stroke-width:1.0;"/><text fill="#000000" font-family="sans-serif" font-size="13" lengthAdjust="spacing" textLength="145.6787" x="434.7056" y="495.916">4.2 Validate map name</text><polygon fill="#181818" points="79.0054,538.9688,69.0054,542.9688,79.0054,546.9688,75.0054,542.9688" style="stroke:#181818;stroke-width:1.0;"/><line style="stroke:#181818;stroke-width:1.0;stroke-dasharray:2.0,2.0;" x1="73.0054" x2="421.7056" y1="542.9688" y2="542.9688"/><text fill="#000000" font-family="sans-serif" font-size="13" lengthAdjust="spacing" textLength="276.9229" x="85.0054" y="538.2266">4.2.1 Show error message (invalid filename)</text><polygon fill="#181818" points="405.7056,568.2793,415.7056,572.2793,405.7056,576.2793,409.7056,572.2793" style="stroke:#181818;stroke-width:1.0;"/><line style="stroke:#181818;stroke-width:1.0;" x1="68.0054" x2="411.7056" y1="572.2793" y2="572.2793"/><text fill="#000000" font-family="sans-serif" font-size="13" lengthAdjust="spacing" textLength="138.4424" x="75.0054" y="567.5371">4.2.2 Re-enter details</text><line style="stroke:#000000;stroke-width:1.0;stroke-dasharray:2.0,2.0;" x1="30" x2="602.3843" y1="581.2793" y2="581.2793"/><text fill="#000000" font-family="sans-serif" font-size="11" font-weight="bold" lengthAdjust="spacing" textLength="99.2256" x="35" y="591.9141">[Valid map name]</text><line style="stroke:#181818;stroke-width:1.0;" x1="427.7056" x2="469.7056" y1="616.5449" y2="616.5449"/><line style="stroke:#181818;stroke-width:1.0;" x1="469.7056" x2="469.7056" y1="616.5449" y2="629.5449"/><line style="stroke:#181818;stroke-width:1.0;" x1="428.7056" x2="469.7056" y1="629.5449" y2="629.5449"/><polygon fill="#181818" points="438.7056,625.5449,428.7056,629.5449,438.7056,633.5449,434.7056,629.5449" style="stroke:#181818;stroke-width:1.0;"/><text fill="#000000" font-family="sans-serif" font-size="13" lengthAdjust="spacing" textLength="109.0464" x="434.7056" y="611.8027">4.2 Name is valid</text><line style="stroke:#181818;stroke-width:1.0;" x1="427.7056" x2="469.7056" y1="679.8555" y2="679.8555"/><line style="stroke:#181818;stroke-width:1.0;" x1="469.7056" x2="469.7056" y1="679.8555" y2="692.8555"/><line style="stroke:#181818;stroke-width:1.0;" x1="428.7056" x2="469.7056" y1="692.8555" y2="692.8555"/><polygon fill="#181818" points="438.7056,688.8555,428.7056,692.8555,438.7056,696.8555,434.7056,692.8555" style="stroke:#181818;stroke-width:1.0;"/><text fill="#000000" font-family="sans-serif" font-size="13" lengthAdjust="spacing" textLength="88.8989" x="434.7056" y="675.1133">5. Create map</text><polygon fill="#181818" points="79.0054,718.166,69.0054,722.166,79.0054,726.166,75.0054,722.166" style="stroke:#181818;stroke-width:1.0;"/><line style="stroke:#181818;stroke-width:1.0;stroke-dasharray:2.0,2.0;" x1="73.0054" x2="421.7056" y1="722.166" y2="722.166"/><text fill="#000000" font-family="sans-serif" font-size="13" lengthAdjust="spacing" textLength="179.7974" x="85.0054" y="717.4238">6. Display operation success</text><!--SRC=[hPHDZvim48Rl_8hHdXAfGGtzE72eL6rwwA5LLRgzU_5i6CdOr1uIxR_l64XA27HpM2xuQnw_CwzjLRBpy4MJ_996UQQI6cKPxlBYEJ3MTw02zCs4YGtcGmyA_DEYBH5sfFPUrR0gYjqQDl1GlDtAxzwZOWG5trIJ9AfaEiJ-i5S2ylLjs7mwCNFOfl0pWWC3EoXxXiKZr4A9CMVG82gE3T4R0Gt87B8KVdXNDmnFqfTeiAeMELQ3fXfj86T35wrnobmIzow5edsiYPTui3gIvkeDL4ZxYjUpYlj1m_3L7fGX3MIRbhlH-1dd6dYmJ0P6qm6KHsYyEv16VLuyHOsbVBxVvl2hmYWsZ6SwaWiaib3eZ7lq8LrVGCTb7LNWVRg5tt6dcC-aZdEXOqSaLgABoXq1lO-cO0XgZx2YA_NNOgvTcgwOCInkcSc1sg1awON1Yiorsl-HqGJiKxubtqcfTfT5xxAyf5kTB9fvFcHYPPR7UzHtG-LQe-4nNgv-vHCPxEPkTJ7xv-9fbnizp5xmC4g9k5TpC7j51r_CTLAaxx7S51QCcxRFPixGFgId1_7qaCsLzsCgHoOqHZs3Qz0hbgC3eIrBgVB2M_KN]--></g></svg>