<svg xmlns="http://www.w3.org/2000/svg" xmlns:xlink="http://www.w3.org/1999/xlink" contentStyleType="text/css" height="1199px" preserveAspectRatio="none" style="width:1542px;height:1199px;background:#FFFFFF;" version="1.1" viewBox="0 0 1542 1199" width="1542px" zoomAndPan="magnify"><title>Relevant Domain Model excerpt for US12 - Create a simulator</title><defs/><g><text fill="#000000" font-family="sans-serif" font-size="14" font-weight="bold" lengthAdjust="spacing" textLength="407.6748" x="560.323" y="25.1074">Relevant Domain Model excerpt for US12 - Create a simulator</text><!--class Simulator--><g id="elem_Simulator"><rect codeLine="12" fill="#F1F1F1" height="73.8633" id="Simulator" rx="2.5" ry="2.5" style="stroke:#181818;stroke-width:0.5;" width="169.958" x="716" y="46.6211"/><text fill="#000000" font-family="sans-serif" font-size="14" lengthAdjust="spacing" textLength="59.1309" x="771.4136" y="66.7285">Simulator</text><line style="stroke:#181818;stroke-width:0.5;" x1="717" x2="884.958" y1="75.2422" y2="75.2422"/><text fill="#000000" font-family="sans-serif" font-size="14" lengthAdjust="spacing" textLength="96.5098" x="722" y="94.3496">status: Boolean</text><text fill="#000000" font-family="sans-serif" font-size="14" lengthAdjust="spacing" textLength="157.958" x="722" y="112.9707">timeOfSimulation: Integer</text></g><!--class Player--><g id="elem_Player"><rect codeLine="17" fill="#F1F1F1" height="73.8633" id="Player" rx="2.5" ry="2.5" style="stroke:#181818;stroke-width:0.5;" width="109.2617" x="836.5" y="279.6211"/><text fill="#000000" font-family="sans-serif" font-size="14" lengthAdjust="spacing" textLength="39.6826" x="871.2896" y="299.7285">Player</text><line style="stroke:#181818;stroke-width:0.5;" x1="837.5" x2="944.7617" y1="308.2422" y2="308.2422"/><text fill="#000000" font-family="sans-serif" font-size="14" lengthAdjust="spacing" textLength="97.2617" x="842.5" y="327.3496">username: Text</text><text fill="#000000" font-family="sans-serif" font-size="14" lengthAdjust="spacing" textLength="94.9238" x="842.5" y="345.9707">password: Text</text></g><!--class Map--><g id="elem_Map"><rect codeLine="22" fill="#F1F1F1" height="55.2422" id="Map" rx="2.5" ry="2.5" style="stroke:#181818;stroke-width:0.5;" width="82.0273" x="800" y="442.1211"/><text fill="#000000" font-family="sans-serif" font-size="14" lengthAdjust="spacing" textLength="27.2344" x="827.3965" y="462.2285">Map</text><line style="stroke:#181818;stroke-width:0.5;" x1="801" x2="881.0273" y1="470.7422" y2="470.7422"/><text fill="#000000" font-family="sans-serif" font-size="14" lengthAdjust="spacing" textLength="70.0273" x="806" y="489.8496">name: Text</text></g><!--class Scenario--><g id="elem_Scenario"><rect codeLine="26" fill="#F1F1F1" height="73.8633" id="Scenario" rx="2.5" ry="2.5" style="stroke:#181818;stroke-width:0.5;" width="166.8613" x="458.5" y="594.6211"/><text fill="#000000" font-family="sans-serif" font-size="14" lengthAdjust="spacing" textLength="55.2549" x="514.3032" y="614.7285">Scenario</text><line style="stroke:#181818;stroke-width:0.5;" x1="459.5" x2="624.3613" y1="623.2422" y2="623.2422"/><text fill="#000000" font-family="sans-serif" font-size="14" lengthAdjust="spacing" textLength="119.0479" x="464.5" y="642.3496">scenarioType: Text</text><text fill="#000000" font-family="sans-serif" font-size="14" lengthAdjust="spacing" textLength="154.8613" x="464.5" y="660.9707">simulationPeriod: Integer</text></g><!--class HistoricalEvent--><g id="elem_HistoricalEvent"><rect codeLine="31" fill="#F1F1F1" height="111.1055" id="HistoricalEvent" rx="2.5" ry="2.5" style="stroke:#181818;stroke-width:0.5;" width="174.6133" x="316.5" y="756.6211"/><text fill="#000000" font-family="sans-serif" font-size="14" lengthAdjust="spacing" textLength="93.3652" x="357.124" y="776.7285">HistoricalEvent</text><line style="stroke:#181818;stroke-width:0.5;" x1="317.5" x2="490.1133" y1="785.2422" y2="785.2422"/><text fill="#000000" font-family="sans-serif" font-size="14" lengthAdjust="spacing" textLength="70.0273" x="322.5" y="804.3496">name: Text</text><text fill="#000000" font-family="sans-serif" font-size="14" lengthAdjust="spacing" textLength="94.1514" x="322.5" y="822.9707">startDate: Date</text><text fill="#000000" font-family="sans-serif" font-size="14" lengthAdjust="spacing" textLength="90.2822" x="322.5" y="841.5918">endDate: Date</text><text fill="#000000" font-family="sans-serif" font-size="14" lengthAdjust="spacing" textLength="162.6133" x="322.5" y="860.2129">temporalRestrictions: Map</text></g><!--class route--><g id="elem_Route"><rect codeLine="38" fill="#F1F1F1" height="73.8633" id="Route" rx="2.5" ry="2.5" style="stroke:#181818;stroke-width:0.5;" width="110.041" x="1204" y="279.6211"/><text fill="#000000" font-family="sans-serif" font-size="14" lengthAdjust="spacing" textLength="37.3584" x="1240.3413" y="299.7285">Route</text><line style="stroke:#181818;stroke-width:0.5;" x1="1205" x2="1313.041" y1="308.2422" y2="308.2422"/><text fill="#000000" font-family="sans-serif" font-size="14" lengthAdjust="spacing" textLength="70.0273" x="1210" y="327.3496">name: Text</text><text fill="#000000" font-family="sans-serif" font-size="14" lengthAdjust="spacing" textLength="98.041" x="1210" y="345.9707">routeType: Text</text></g><!--class Cargo--><g id="elem_Cargo"><rect codeLine="42" fill="#F1F1F1" height="55.2422" id="Cargo" rx="2.5" ry="2.5" style="stroke:#181818;stroke-width:0.5;" width="113.1514" x="1191.5" y="1118.1211"/><text fill="#000000" font-family="sans-serif" font-size="14" lengthAdjust="spacing" textLength="38.1309" x="1229.0103" y="1138.2285">Cargo</text><line style="stroke:#181818;stroke-width:0.5;" x1="1192.5" x2="1303.6514" y1="1146.7422" y2="1146.7422"/><text fill="#000000" font-family="sans-serif" font-size="14" lengthAdjust="spacing" textLength="101.1514" x="1197.5" y="1165.8496">cargoType: Text</text></g><!--class Station--><g id="elem_Station"><rect codeLine="46" fill="#F1F1F1" height="92.4844" id="Station" rx="2.5" ry="2.5" style="stroke:#181818;stroke-width:0.5;" width="181.6133" x="1130" y="585.6211"/><text fill="#000000" font-family="sans-serif" font-size="14" lengthAdjust="spacing" textLength="43.5859" x="1199.0137" y="605.7285">Station</text><line style="stroke:#181818;stroke-width:0.5;" x1="1131" x2="1310.6133" y1="614.2422" y2="614.2422"/><text fill="#000000" font-family="sans-serif" font-size="14" lengthAdjust="spacing" textLength="70.0273" x="1136" y="633.3496">name: Text</text><text fill="#000000" font-family="sans-serif" font-size="14" lengthAdjust="spacing" textLength="169.6133" x="1136" y="651.9707">constructionCosts: Decimal</text><text fill="#000000" font-family="sans-serif" font-size="14" lengthAdjust="spacing" textLength="111.2754" x="1136" y="670.5918">stationType: Type</text></g><!--class Industry--><g id="elem_Industry"><rect codeLine="52" fill="#F1F1F1" height="73.8633" id="Industry" rx="2.5" ry="2.5" style="stroke:#181818;stroke-width:0.5;" width="131.0479" x="423.5" y="946.6211"/><text fill="#000000" font-family="sans-serif" font-size="14" lengthAdjust="spacing" textLength="49.7998" x="464.124" y="966.7285">Industry</text><line style="stroke:#181818;stroke-width:0.5;" x1="424.5" x2="553.5479" y1="975.2422" y2="975.2422"/><text fill="#000000" font-family="sans-serif" font-size="14" lengthAdjust="spacing" textLength="70.0273" x="429.5" y="994.3496">name: Text</text><text fill="#000000" font-family="sans-serif" font-size="14" lengthAdjust="spacing" textLength="119.0479" x="429.5" y="1012.9707">industryType: Type</text></g><!--class City--><g id="elem_City"><rect codeLine="57" fill="#F1F1F1" height="73.8633" id="City" rx="2.5" ry="2.5" style="stroke:#181818;stroke-width:0.5;" width="142.7441" x="573.5" y="432.6211"/><text fill="#000000" font-family="sans-serif" font-size="14" lengthAdjust="spacing" textLength="24.1104" x="632.8169" y="452.7285">City</text><line style="stroke:#181818;stroke-width:0.5;" x1="574.5" x2="715.2441" y1="461.2422" y2="461.2422"/><text fill="#000000" font-family="sans-serif" font-size="14" lengthAdjust="spacing" textLength="70.0273" x="579.5" y="480.3496">name: Text</text><text fill="#000000" font-family="sans-serif" font-size="14" lengthAdjust="spacing" textLength="130.7441" x="579.5" y="498.9707">houseBlocks: Integer</text></g><!--class Size--><g id="elem_Size"><rect codeLine="62" fill="#F1F1F1" height="73.8633" id="Size" rx="2.5" ry="2.5" style="stroke:#181818;stroke-width:0.5;" width="101.5098" x="1018" y="775.1211"/><text fill="#000000" font-family="sans-serif" font-size="14" lengthAdjust="spacing" textLength="27.2344" x="1055.1377" y="795.2285">Size</text><line style="stroke:#181818;stroke-width:0.5;" x1="1019" x2="1118.5098" y1="803.7422" y2="803.7422"/><text fill="#000000" font-family="sans-serif" font-size="14" lengthAdjust="spacing" textLength="84.0479" x="1024" y="822.8496">width: Integer</text><text fill="#000000" font-family="sans-serif" font-size="14" lengthAdjust="spacing" textLength="89.5098" x="1024" y="841.4707">height: Integer</text></g><!--class Position--><g id="elem_Position"><rect codeLine="67" fill="#F1F1F1" height="73.8633" id="Position" rx="2.5" ry="2.5" style="stroke:#181818;stroke-width:0.5;" width="120.958" x="529.5" y="1108.6211"/><text fill="#000000" font-family="sans-serif" font-size="14" lengthAdjust="spacing" textLength="49.8066" x="565.0757" y="1128.7285">Position</text><line style="stroke:#181818;stroke-width:0.5;" x1="530.5" x2="649.458" y1="1137.2422" y2="1137.2422"/><text fill="#000000" font-family="sans-serif" font-size="14" lengthAdjust="spacing" textLength="108.958" x="535.5" y="1156.3496">Xposition: Integer</text><text fill="#000000" font-family="sans-serif" font-size="14" lengthAdjust="spacing" textLength="108.958" x="535.5" y="1174.9707">Yposition: Integer</text></g><!--class StationType--><g id="elem_StationType"><rect codeLine="74" fill="#F1F1F1" height="92.4844" id="StationType" rx="2.5" ry="2.5" style="stroke:#181818;stroke-width:0.5;" width="80.71" x="979.5" y="585.6211"/><text fill="#000000" font-family="sans-serif" font-size="14" font-style="italic" lengthAdjust="spacing" textLength="74.71" x="982.5" y="605.7285">StationType</text><line style="stroke:#181818;stroke-width:0.5;" x1="980.5" x2="1059.21" y1="614.2422" y2="614.2422"/><text fill="#000000" font-family="sans-serif" font-size="14" lengthAdjust="spacing" textLength="44.3584" x="985.5" y="633.3496">Depots</text><text fill="#000000" font-family="sans-serif" font-size="14" lengthAdjust="spacing" textLength="50.5859" x="985.5" y="651.9707">Stations</text><text fill="#000000" font-family="sans-serif" font-size="14" lengthAdjust="spacing" textLength="61.4551" x="985.5" y="670.5918">Terminals</text></g><!--class IndustryType--><g id="elem_IndustryType"><rect codeLine="80" fill="#F1F1F1" height="92.4844" id="IndustryType" rx="2.5" ry="2.5" style="stroke:#181818;stroke-width:0.5;" width="150.4824" x="7" y="1099.6211"/><text fill="#000000" font-family="sans-serif" font-size="14" font-style="italic" lengthAdjust="spacing" textLength="80.9238" x="41.7793" y="1119.7285">IndustryType</text><line style="stroke:#181818;stroke-width:0.5;" x1="8" x2="156.4824" y1="1128.2422" y2="1128.2422"/><text fill="#000000" font-family="sans-serif" font-size="14" lengthAdjust="spacing" textLength="138.4824" x="13" y="1147.3496">PrimarySectorIndustry</text><text fill="#000000" font-family="sans-serif" font-size="14" lengthAdjust="spacing" textLength="132.2686" x="13" y="1165.9707">TransformingIndustry</text><text fill="#000000" font-family="sans-serif" font-size="14" lengthAdjust="spacing" textLength="87.1445" x="13" y="1184.5918">MixedIndustry</text></g><!--link Simulator to Industry--><g id="link_Simulator_Industry"><path codeLine="89" d="M715.84,91.1511 C552.45,104.8211 211,139.4611 211,190.1211 C211,190.1211 211,190.1211 211,547.1211 C211,694.8411 209.93,749.7811 299,867.6211 C330.5,909.3011 381.89,939.0711 423.28,957.8711 " fill="none" id="Simulator-Industry" style="stroke:#181818;stroke-width:1.0;"/><polygon fill="#000000" points="214.4009,474.504,220.0783,466.8739,214.5091,464.994,214.4009,474.504" style="stroke:#000000;stroke-width:1.0;"/><text fill="#000000" font-family="sans-serif" font-size="13" lengthAdjust="spacing" textLength="20.96" x="225" y="475.1494">has</text><text fill="#000000" font-family="sans-serif" font-size="13" lengthAdjust="spacing" textLength="5.0591" x="699.3473" y="106.6261">*</text><text fill="#000000" font-family="sans-serif" font-size="13" lengthAdjust="spacing" textLength="5.0591" x="406.6128" y="950.964">*</text></g><!--link Simulator to City--><g id="link_Simulator_City"><path codeLine="90" d="M767.27,120.9111 C759.87,130.1311 752.59,140.3511 747,150.6211 C695.21,245.8711 664.65,371.6411 651.95,432.5311 " fill="none" id="Simulator-City" style="stroke:#181818;stroke-width:1.0;"/><polygon fill="#000000" points="713.2647,244.9558,719.1601,237.4929,713.6477,235.453,713.2647,244.9558" style="stroke:#000000;stroke-width:1.0;"/><text fill="#000000" font-family="sans-serif" font-size="13" lengthAdjust="spacing" textLength="20.96" x="724" y="245.6494">has</text><text fill="#000000" font-family="sans-serif" font-size="13" lengthAdjust="spacing" textLength="5.0591" x="744.7673" y="142.5588">*</text><text fill="#000000" font-family="sans-serif" font-size="13" lengthAdjust="spacing" textLength="5.0591" x="647.7707" y="421.4768">*</text></g><!--link Simulator to Map--><g id="link_Simulator_Map"><path codeLine="91" d="M872.09,120.6811 C896.58,136.3411 922.07,156.8311 939,181.6211 C964.29,218.6511 957.63,235.1011 963,279.6211 C966.94,312.2711 975.89,323.3611 963,353.6211 C946.74,391.7811 910.78,423.0911 882.09,443.3511 " fill="none" id="Simulator-Map" style="stroke:#181818;stroke-width:1.0;"/><polygon fill="#000000" points="966.1549,245.2642,968.8122,236.1324,962.9372,236.3145,966.1549,245.2642" style="stroke:#000000;stroke-width:1.0;"/><text fill="#000000" font-family="sans-serif" font-size="13" lengthAdjust="spacing" textLength="20.96" x="975" y="245.6494">has</text><text fill="#000000" font-family="sans-serif" font-size="13" lengthAdjust="spacing" textLength="5.0591" x="878.8876" y="142.5768">*</text><text fill="#000000" font-family="sans-serif" font-size="13" lengthAdjust="spacing" textLength="7.23" x="890.0395" y="435.059">1</text></g><!--link Simulator to Scenario--><g id="link_Simulator_Scenario"><path codeLine="92" d="M715.97,89.1411 C594.81,97.9511 387,122.8611 387,190.1211 C387,190.1211 387,190.1211 387,470.6211 C387,524.3811 432.7,566.9311 474.47,594.5911 " fill="none" id="Simulator-Scenario" style="stroke:#181818;stroke-width:1.0;"/><polygon fill="#000000" points="389.8444,321.2781,396.3957,314.3837,391.0921,311.8497,389.8444,321.2781" style="stroke:#000000;stroke-width:1.0;"/><text fill="#000000" font-family="sans-serif" font-size="13" lengthAdjust="spacing" textLength="20.96" x="401" y="322.1494">has</text><text fill="#000000" font-family="sans-serif" font-size="13" lengthAdjust="spacing" textLength="5.0591" x="702.9055" y="85.9144">*</text><text fill="#000000" font-family="sans-serif" font-size="13" lengthAdjust="spacing" textLength="7.23" x="439.1584" y="583.2643">1</text></g><!--link Simulator to Station--><g id="link_Simulator_Station"><path codeLine="93" d="M886.1,103.2511 C956.82,123.0911 1054.93,161.4611 1113,230.6211 C1124.64,244.4811 1184.72,483.7511 1209.89,585.4611 " fill="none" id="Simulator-Station" style="stroke:#181818;stroke-width:1.0;"/><polygon fill="#000000" points="1157.7873,320.9176,1155.1849,311.77,1150.3051,315.0467,1157.7873,320.9176" style="stroke:#000000;stroke-width:1.0;"/><text fill="#000000" font-family="sans-serif" font-size="13" lengthAdjust="spacing" textLength="20.96" x="1164" y="322.1494">has</text><text fill="#000000" font-family="sans-serif" font-size="13" lengthAdjust="spacing" textLength="5.0591" x="897.7099" y="119.7152">*</text><text fill="#000000" font-family="sans-serif" font-size="13" lengthAdjust="spacing" textLength="5.0591" x="1195.8626" y="574.447">*</text></g><!--link Simulator to route--><g id="link_Simulator_Route"><path codeLine="94" d="M886.32,92.1011 C978.36,101.5711 1117.58,120.4011 1161,150.6211 C1205.98,181.9311 1233.62,241.1311 1247.63,279.4511 " fill="none" id="Simulator-Route" style="stroke:#181818;stroke-width:1.0;"/><polygon fill="#000000" points="1217.4388,193.5682,1210.7618,186.7955,1208.0561,192.0136,1217.4388,193.5682" style="stroke:#000000;stroke-width:1.0;"/><text fill="#000000" font-family="sans-serif" font-size="13" lengthAdjust="spacing" textLength="20.96" x="1222" y="196.6494">has</text><text fill="#000000" font-family="sans-serif" font-size="13" lengthAdjust="spacing" textLength="5.0591" x="893.8714" y="89.1461">*</text><text fill="#000000" font-family="sans-serif" font-size="13" lengthAdjust="spacing" textLength="5.0591" x="1232.9566" y="268.3825">*</text></g><!--link Simulator to Cargo--><g id="link_Simulator_Cargo"><path codeLine="95" d="M886.28,89.3411 C1066.37,100.4411 1469,131.7811 1469,190.1211 C1469,190.1211 1469,190.1211 1469,984.6211 C1469,1065.7411 1370.11,1109.9311 1304.63,1130.2911 " fill="none" id="Simulator-Cargo" style="stroke:#181818;stroke-width:1.0;"/><polygon fill="#000000" points="1475.8645,550.906,1475.2185,541.4174,1469.7646,543.6092,1475.8645,550.906" style="stroke:#000000;stroke-width:1.0;"/><text fill="#000000" font-family="sans-serif" font-size="13" lengthAdjust="spacing" textLength="51.3208" x="1483" y="551.6494">generate</text><text fill="#000000" font-family="sans-serif" font-size="13" lengthAdjust="spacing" textLength="5.0591" x="893.9586" y="104.8579">*</text><text fill="#000000" font-family="sans-serif" font-size="13" lengthAdjust="spacing" textLength="5.0591" x="1312.5694" y="1124.1205">*</text></g><!--link Simulator to HistoricalEvent--><g id="link_Simulator_HistoricalEvent"><path codeLine="96" d="M715.84,85.2211 C572.62,88.5611 299,105.9611 299,190.1211 C299,190.1211 299,190.1211 299,394.1211 C299,544.7011 316.98,583.5711 364,726.6211 C367.24,736.4911 371.37,746.7011 375.72,756.4811 " fill="none" id="Simulator-HistoricalEvent" style="stroke:#181818;stroke-width:1.0;"/><polygon fill="#000000" points="301.7401,397.7267,308.4499,390.9866,303.2067,388.3299,301.7401,397.7267" style="stroke:#000000;stroke-width:1.0;"/><text fill="#000000" font-family="sans-serif" font-size="13" lengthAdjust="spacing" textLength="20.96" x="313" y="398.6494">has</text><text fill="#000000" font-family="sans-serif" font-size="13" lengthAdjust="spacing" textLength="5.0591" x="703.0373" y="100.168">*</text><text fill="#000000" font-family="sans-serif" font-size="13" lengthAdjust="spacing" textLength="5.0591" x="355.5485" y="745.3034">*</text></g><!--link Simulator to Player--><g id="link_Simulator_Player"><path codeLine="97" d="M815.06,120.7111 C831.92,163.9811 860.01,236.0711 876.89,279.4011 " fill="none" id="Simulator-Player" style="stroke:#181818;stroke-width:1.0;"/><polygon fill="#000000" points="849.1848,186.6077,849.7301,196.1027,855.207,193.9687,849.1848,186.6077" style="stroke:#000000;stroke-width:1.0;"/><text fill="#000000" font-family="sans-serif" font-size="13" lengthAdjust="spacing" textLength="70.0908" x="860" y="196.6494">create/plays</text><text fill="#000000" font-family="sans-serif" font-size="13" lengthAdjust="spacing" textLength="18.0718" x="794.7342" y="142.612">0,1</text><text fill="#000000" font-family="sans-serif" font-size="13" lengthAdjust="spacing" textLength="18.0718" x="847.1531" y="268.3236">0,1</text></g><!--link Player to Simulator--><g id="link_Player_Simulator"><path codeLine="100" d="M836.15,285.8311 C805.85,266.0711 770.99,237.0711 754,200.6211 C741.74,174.3311 755.05,143.9111 770.59,120.8211 " fill="none" id="Player-Simulator" style="stroke:#181818;stroke-width:1.0;"/><polygon fill="#000000" points="757.1538,186.6199,757.7623,196.111,763.2248,193.9407,757.1538,186.6199" style="stroke:#000000;stroke-width:1.0;"/><text fill="#000000" font-family="sans-serif" font-size="13" lengthAdjust="spacing" textLength="64.3145" x="768" y="196.6494">start/pause</text><text fill="#000000" font-family="sans-serif" font-size="13" lengthAdjust="spacing" textLength="7.23" x="803.3642" y="278.3412">1</text><text fill="#000000" font-family="sans-serif" font-size="13" lengthAdjust="spacing" textLength="7.23" x="766.1556" y="142.4539">1</text></g><!--link Player to Station--><g id="link_Player_Station"><path codeLine="101" d="M905.34,353.7311 C923.07,394.7911 956.57,461.9111 1002,506.6211 C1038.51,542.5611 1087.52,571.5911 1129.91,592.5011 " fill="none" id="Player-Station" style="stroke:#181818;stroke-width:1.0;"/><polygon fill="#000000" points="1010.4256,473.4088,1006.3695,464.8065,1002.0878,468.8335,1010.4256,473.4088" style="stroke:#000000;stroke-width:1.0;"/><text fill="#000000" font-family="sans-serif" font-size="13" lengthAdjust="spacing" textLength="91.7808" x="1016" y="475.1494">build / manages</text><text fill="#000000" font-family="sans-serif" font-size="13" lengthAdjust="spacing" textLength="7.23" x="900.2004" y="375.6354">1</text><text fill="#000000" font-family="sans-serif" font-size="13" lengthAdjust="spacing" textLength="5.0591" x="1116.8863" y="585.4288">*</text></g><!--link Player to Map--><g id="link_Player_Map"><path codeLine="102" d="M879.02,353.7911 C870.07,380.8411 858.02,417.2311 849.9,441.7311 " fill="none" id="Player-Map" style="stroke:#181818;stroke-width:1.0;"/><polygon fill="#000000" points="872.4283,398.0131,878.0615,390.3504,872.4816,388.5027,872.4283,398.0131" style="stroke:#000000;stroke-width:1.0;"/><text fill="#000000" font-family="sans-serif" font-size="13" lengthAdjust="spacing" textLength="20.96" x="883" y="398.6494">has</text><text fill="#000000" font-family="sans-serif" font-size="13" lengthAdjust="spacing" textLength="7.23" x="861.8923" y="375.4189">1</text><text fill="#000000" font-family="sans-serif" font-size="13" lengthAdjust="spacing" textLength="5.0591" x="846.3035" y="430.8044">*</text></g><!--link Player to route--><g id="link_Player_Route"><path codeLine="103" d="M945.92,280.1011 C990.04,255.1911 1053.94,228.9911 1111.5,242.6211 C1143.84,250.2811 1177.16,266.1911 1203.92,281.3011 " fill="none" id="Player-Route" style="stroke:#181818;stroke-width:1.0;"/><polygon fill="#000000" points="1064.4999,240.2899,1055.4686,237.3089,1055.4413,243.1867,1064.4999,240.2899" style="stroke:#000000;stroke-width:1.0;"/><text fill="#000000" font-family="sans-serif" font-size="13" lengthAdjust="spacing" textLength="42.6309" x="1068.5" y="245.6494">creates</text><text fill="#000000" font-family="sans-serif" font-size="13" lengthAdjust="spacing" textLength="7.23" x="953.7681" y="271.1086">1</text><text fill="#000000" font-family="sans-serif" font-size="13" lengthAdjust="spacing" textLength="5.0591" x="1190.8241" y="272.1973">*</text></g><!--link Map to Size--><g id="link_Map_Size"><path codeLine="106" d="M848.11,497.2311 C859.95,538.4411 886.5,619.0511 927,677.6211 C952.98,715.1911 991.05,750.2611 1021.23,775.0211 " fill="none" id="Map-Size" style="stroke:#181818;stroke-width:1.0;"/><polygon fill="#000000" points="934.6445,636.01,932.3548,626.7792,927.3663,629.888,934.6445,636.01" style="stroke:#000000;stroke-width:1.0;"/><text fill="#000000" font-family="sans-serif" font-size="13" lengthAdjust="spacing" textLength="20.96" x="941" y="637.1494">has</text><text fill="#000000" font-family="sans-serif" font-size="13" lengthAdjust="spacing" textLength="5.0591" x="832.2245" y="519.6155">*</text><text fill="#000000" font-family="sans-serif" font-size="13" lengthAdjust="spacing" textLength="7.23" x="985.5638" y="763.965">1</text></g><!--link Map to Station--><g id="link_Map_Station"><path codeLine="107" d="M865.19,497.2311 C884.02,516.3311 911.8,541.1511 941,555.6211 C996.85,583.2911 1017.77,569.5811 1078,585.6211 C1094.85,590.1111 1112.68,595.3311 1129.81,600.5911 " fill="none" id="Map-Station" style="stroke:#181818;stroke-width:1.0;"/><polygon fill="#000000" points="950.6573,548.0857,943.3014,542.0574,941.1629,547.5324,950.6573,548.0857" style="stroke:#000000;stroke-width:1.0;"/><text fill="#000000" font-family="sans-serif" font-size="13" lengthAdjust="spacing" textLength="20.96" x="955" y="551.6494">has</text><text fill="#000000" font-family="sans-serif" font-size="13" lengthAdjust="spacing" textLength="5.0591" x="865.2095" y="519.6155">*</text><text fill="#000000" font-family="sans-serif" font-size="13" lengthAdjust="spacing" textLength="5.0591" x="1117.0698" y="612.7456">*</text></g><!--link City to Map--><g id="link_City_Map"><path codeLine="108" d="M716.59,469.6211 C744.59,469.6211 775.69,469.6211 799.79,469.6211 " fill="none" id="City-Map" style="stroke:#181818;stroke-width:1.0;"/><polygon fill="#000000" points="740.75,457.2666,749.7951,460.2055,749.7951,454.3277,740.75,457.2666" style="stroke:#000000;stroke-width:1.0;"/><text fill="#000000" font-family="sans-serif" font-size="13" lengthAdjust="spacing" textLength="20.96" x="754.75" y="462.6494">has</text><text fill="#000000" font-family="sans-serif" font-size="13" lengthAdjust="spacing" textLength="5.0591" x="724.2468" y="465.7949">*</text><text fill="#000000" font-family="sans-serif" font-size="13" lengthAdjust="spacing" textLength="5.0591" x="787.007" y="465.1397">*</text></g><!--link Map to Scenario--><g id="link_Map_Scenario"><path codeLine="109" d="M799.87,491.2411 C774.44,504.0911 741.2,521.0811 712,536.6211 C676.87,555.3111 638,576.7511 606.31,594.4211 " fill="none" id="Map-Scenario" style="stroke:#181818;stroke-width:1.0;"/><polygon fill="#000000" points="712.5877,548.6186,721.9521,546.9572,719.1871,541.7703,712.5877,548.6186" style="stroke:#000000;stroke-width:1.0;"/><text fill="#000000" font-family="sans-serif" font-size="13" lengthAdjust="spacing" textLength="20.96" x="726" y="551.6494">has</text><text fill="#000000" font-family="sans-serif" font-size="13" lengthAdjust="spacing" textLength="5.0591" x="786.8286" y="490.6929">*</text><text fill="#000000" font-family="sans-serif" font-size="13" lengthAdjust="spacing" textLength="5.0591" x="612.3375" y="583.3472">*</text></g><!--link Map to Industry--><g id="link_Map_Industry"><path codeLine="110" d="M822.38,497.2411 C813.99,509.2611 803.98,523.6411 795,536.6211 C689.92,688.5811 565.61,870.4011 513.7,946.4311 " fill="none" id="Map-Industry" style="stroke:#181818;stroke-width:1.0;"/><polygon fill="#000000" points="677.1682,721.3874,684.7131,715.5973,679.8688,712.2683,677.1682,721.3874" style="stroke:#000000;stroke-width:1.0;"/><text fill="#000000" font-family="sans-serif" font-size="13" lengthAdjust="spacing" textLength="20.96" x="689" y="722.6494">has</text><text fill="#000000" font-family="sans-serif" font-size="13" lengthAdjust="spacing" textLength="5.0591" x="812.7635" y="519.176">*</text><text fill="#000000" font-family="sans-serif" font-size="13" lengthAdjust="spacing" textLength="5.0591" x="505.451" y="935.359">*</text></g><!--link Map to Position--><g id="link_Map_Position"><path codeLine="111" d="M840.28,497.4411 C837.12,607.8311 822.96,1023.4911 788,1069.6211 C755.7,1112.2511 696.15,1130.6511 650.77,1138.5911 " fill="none" id="Map-Position" style="stroke:#181818;stroke-width:1.0;"/><polygon fill="#000000" points="833.5827,817.0615,838.965,809.2205,833.3282,807.5544,833.5827,817.0615" style="stroke:#000000;stroke-width:1.0;"/><text fill="#000000" font-family="sans-serif" font-size="13" lengthAdjust="spacing" textLength="20.96" x="844" y="817.6494">has</text><text fill="#000000" font-family="sans-serif" font-size="13" lengthAdjust="spacing" textLength="5.0591" x="845.4698" y="519.4198">*</text><text fill="#000000" font-family="sans-serif" font-size="13" lengthAdjust="spacing" textLength="19.5127" x="658.6836" y="1133.9442">1..*</text></g><!--link Scenario to HistoricalEvent--><g id="link_Scenario_HistoricalEvent"><path codeLine="114" d="M514.07,668.7411 C494.62,693.9011 468.32,727.9211 446.3,756.4011 " fill="none" id="Scenario-HistoricalEvent" style="stroke:#181818;stroke-width:1.0;"/><polygon fill="#000000" points="483.9418,721.2223,491.7992,715.8639,487.149,712.2688,483.9418,721.2223" style="stroke:#000000;stroke-width:1.0;"/><text fill="#000000" font-family="sans-serif" font-size="13" lengthAdjust="spacing" textLength="20.96" x="496" y="722.6494">has</text><text fill="#000000" font-family="sans-serif" font-size="13" lengthAdjust="spacing" textLength="5.0591" x="499.8863" y="690.6471">*</text><text fill="#000000" font-family="sans-serif" font-size="13" lengthAdjust="spacing" textLength="5.0591" x="442.6056" y="745.2131">*</text></g><!--link HistoricalEvent to City--><g id="link_HistoricalEvent_City"><path codeLine="117" d="M382.75,756.4111 C367.6,707.6411 355.13,636.3411 388,585.6211 C428.67,522.8611 512.53,494.0411 573.42,481.0111 " fill="none" id="HistoricalEvent-City" style="stroke:#181818;stroke-width:1.0;"/><polygon fill="#000000" points="395.8461,627.6557,388.2811,633.4195,393.1138,636.7653,395.8461,627.6557" style="stroke:#000000;stroke-width:1.0;"/><text fill="#000000" font-family="sans-serif" font-size="13" lengthAdjust="spacing" textLength="38.2954" x="402" y="637.1494">affects</text><text fill="#000000" font-family="sans-serif" font-size="13" lengthAdjust="spacing" textLength="5.0591" x="374.7356" y="745.2244">*</text><text fill="#000000" font-family="sans-serif" font-size="13" lengthAdjust="spacing" textLength="5.0591" x="553.4454" y="497.2383">*</text></g><!--link HistoricalEvent to Industry--><g id="link_HistoricalEvent_Industry"><path codeLine="118" d="M431.36,867.6811 C444.32,893.5211 459.44,923.6711 470.94,946.6011 " fill="none" id="HistoricalEvent-Industry" style="stroke:#181818;stroke-width:1.0;"/><polygon fill="#000000" points="462.2415,911.736,460.8136,902.3332,455.5595,904.9683,462.2415,911.736" style="stroke:#000000;stroke-width:1.0;"/><text fill="#000000" font-family="sans-serif" font-size="13" lengthAdjust="spacing" textLength="45.519" x="469" y="912.6494">disrupts</text><text fill="#000000" font-family="sans-serif" font-size="13" lengthAdjust="spacing" textLength="5.0591" x="418.3173" y="889.929">*</text><text fill="#000000" font-family="sans-serif" font-size="13" lengthAdjust="spacing" textLength="5.0591" x="462.1503" y="935.2761">*</text></g><!--link route to Cargo--><g id="link_Route_Cargo"><path codeLine="121" d="M1303.34,353.7211 C1332.39,381.6511 1365,423.1411 1365,468.6211 C1365,468.6211 1365,468.6211 1365,984.6211 C1365,1040.2011 1318.44,1089.3311 1284.06,1118.0311 " fill="none" id="Route-Cargo" style="stroke:#181818;stroke-width:1.0;"/><polygon fill="#000000" points="1369.8739,722.265,1373.04,713.2969,1367.164,713.1487,1369.8739,722.265" style="stroke:#000000;stroke-width:1.0;"/><text fill="#000000" font-family="sans-serif" font-size="13" lengthAdjust="spacing" textLength="66.4917" x="1379" y="722.6494">assigned to</text><text fill="#000000" font-family="sans-serif" font-size="13" lengthAdjust="spacing" textLength="5.0591" x="1289.6028" y="375.6237">*</text><text fill="#000000" font-family="sans-serif" font-size="13" lengthAdjust="spacing" textLength="5.0591" x="1286.8101" y="1106.7192">*</text></g><!--link route to Station--><g id="link_Route_Station"><path codeLine="122" d="M1254.6,353.8311 C1247.64,411.2011 1234.08,522.8711 1226.49,585.4111 " fill="none" id="Route-Station" style="stroke:#181818;stroke-width:1.0;"/><polygon fill="#000000" points="1249.3975,474.7302,1253.4049,466.1051,1247.5699,465.3969,1249.3975,474.7302" style="stroke:#000000;stroke-width:1.0;"/><text fill="#000000" font-family="sans-serif" font-size="13" lengthAdjust="spacing" textLength="75.8926" x="1259" y="475.1494">goes through</text><text fill="#000000" font-family="sans-serif" font-size="13" lengthAdjust="spacing" textLength="5.0591" x="1241.3116" y="375.4656">*</text><text fill="#000000" font-family="sans-serif" font-size="13" lengthAdjust="spacing" textLength="19.5127" x="1206.9671" y="574.3897">2..*</text></g><!--link route to City--><g id="link_Route_City"><path codeLine="123" d="M1203.87,344.8111 C1195.05,348.2811 1185.9,351.3911 1177,353.6211 C1009.22,395.6411 953.97,331.6511 789,383.6211 C754.8,394.3911 720.09,414.5511 693.31,432.5411 " fill="none" id="Route-City" style="stroke:#181818;stroke-width:1.0;"/><polygon fill="#000000" points="789.0722,394.1133,798.4844,395.478,797.489,389.6851,789.0722,394.1133" style="stroke:#000000;stroke-width:1.0;"/><text fill="#000000" font-family="sans-serif" font-size="13" lengthAdjust="spacing" textLength="52.0317" x="803" y="398.6494">connects</text><text fill="#000000" font-family="sans-serif" font-size="13" lengthAdjust="spacing" textLength="5.0591" x="1183.7345" y="344.6384">*</text><text fill="#000000" font-family="sans-serif" font-size="13" lengthAdjust="spacing" textLength="5.0591" x="696.498" y="421.4886">*</text></g><!--link Station to Cargo--><g id="link_Station_Cargo"><path codeLine="126" d="M1223.4,678.0611 C1228.89,782.1911 1242.24,1035.4811 1246.6,1118.0911 " fill="none" id="Station-Cargo" style="stroke:#181818;stroke-width:1.0;"/><polygon fill="#000000" points="1240.2633,912.2597,1242.7219,903.0724,1236.8522,903.3819,1240.2633,912.2597" style="stroke:#000000;stroke-width:1.0;"/><text fill="#000000" font-family="sans-serif" font-size="13" lengthAdjust="spacing" textLength="66.4917" x="1249" y="912.6494">assigned to</text><text fill="#000000" font-family="sans-serif" font-size="13" lengthAdjust="spacing" textLength="5.0591" x="1214.5322" y="700.1445">*</text><text fill="#000000" font-family="sans-serif" font-size="13" lengthAdjust="spacing" textLength="5.0591" x="1236.5158" y="1106.7931">*</text></g><!--link StationType to Station--><g id="link_StationType_Station"><path codeLine="127" d="M1060.68,631.6211 C1080.64,631.6211 1105.55,631.6211 1129.74,631.6211 " fill="none" id="StationType-Station" style="stroke:#181818;stroke-width:1.0;"/><polygon fill="#000000" points="1077.75,619.2666,1086.7951,622.2055,1086.7951,616.3277,1077.75,619.2666" style="stroke:#000000;stroke-width:1.0;"/><text fill="#000000" font-family="sans-serif" font-size="13" lengthAdjust="spacing" textLength="20.96" x="1091.75" y="624.6494">has</text><text fill="#000000" font-family="sans-serif" font-size="13" lengthAdjust="spacing" textLength="7.23" x="1068.3181" y="627.1719">1</text><text fill="#000000" font-family="sans-serif" font-size="13" lengthAdjust="spacing" textLength="5.0591" x="1116.994" y="627.9375">*</text></g><!--link Station to Position--><g id="link_Station_Position"><path codeLine="128" d="M1213.86,677.8411 C1204.01,728.4311 1182.19,810.7211 1138,867.6211 C1011.96,1029.9011 765.05,1104.8411 650.74,1131.9711 " fill="none" id="Station-Position" style="stroke:#181818;stroke-width:1.0;"/><polygon fill="#000000" points="1110.1079,910.4054,1118.9937,907.015,1115.3038,902.4396,1110.1079,910.4054" style="stroke:#000000;stroke-width:1.0;"/><text fill="#000000" font-family="sans-serif" font-size="13" lengthAdjust="spacing" textLength="20.96" x="1123" y="912.6494">has</text><text fill="#000000" font-family="sans-serif" font-size="13" lengthAdjust="spacing" textLength="18.0718" x="1178.386" y="700.2336">0,1</text><text fill="#000000" font-family="sans-serif" font-size="13" lengthAdjust="spacing" textLength="7.23" x="658.6824" y="1145.4904">1</text></g><!--link Station to Size--><g id="link_Station_Size"><path codeLine="129" d="M1143.25,677.7111 C1131.8,686.6111 1120.89,696.6411 1112,707.6211 C1096.08,727.2711 1085.24,753.6611 1078.42,774.8711 " fill="none" id="Station-Size" style="stroke:#181818;stroke-width:1.0;"/><polygon fill="#000000" points="1114.2248,721.4257,1121.6898,715.533,1116.8005,712.2706,1114.2248,721.4257" style="stroke:#000000;stroke-width:1.0;"/><text fill="#000000" font-family="sans-serif" font-size="13" lengthAdjust="spacing" textLength="20.96" x="1126" y="722.6494">has</text><text fill="#000000" font-family="sans-serif" font-size="13" lengthAdjust="spacing" textLength="5.0591" x="1114.57" y="700.0837">*</text><text fill="#000000" font-family="sans-serif" font-size="13" lengthAdjust="spacing" textLength="7.23" x="1069.3259" y="763.7883">1</text></g><!--link Industry to Position--><g id="link_Industry_Position"><path codeLine="132" d="M490.02,1020.7611 C491.77,1036.5911 495.67,1054.8811 504,1069.6211 C512.28,1084.2811 524.54,1097.4811 537.23,1108.5611 " fill="none" id="Industry-Position" style="stroke:#181818;stroke-width:1.0;"/><polygon fill="#000000" points="511.3679,1064.6704,509.6728,1055.3121,504.4959,1058.0957,511.3679,1064.6704" style="stroke:#000000;stroke-width:1.0;"/><text fill="#000000" font-family="sans-serif" font-size="13" lengthAdjust="spacing" textLength="20.96" x="518" y="1065.6494">has</text><text fill="#000000" font-family="sans-serif" font-size="13" lengthAdjust="spacing" textLength="18.0718" x="467.5025" y="1042.384">0,1</text><text fill="#000000" font-family="sans-serif" font-size="13" lengthAdjust="spacing" textLength="7.23" x="507.8511" y="1097.2287">1</text></g><!--link Industry to IndustryType--><g id="link_Industry_IndustryType"><path codeLine="133" d="M423.16,1010.5011 C350.38,1039.1211 233.37,1085.1111 157.08,1115.1011 " fill="none" id="Industry-IndustryType" style="stroke:#181818;stroke-width:1.0;"/><polygon fill="#000000" points="310.3467,1062.0959,319.8399,1061.5218,317.6894,1056.0515,310.3467,1062.0959" style="stroke:#000000;stroke-width:1.0;"/><text fill="#000000" font-family="sans-serif" font-size="13" lengthAdjust="spacing" textLength="20.96" x="324" y="1065.6494">has</text><text fill="#000000" font-family="sans-serif" font-size="13" lengthAdjust="spacing" textLength="5.0591" x="406.9272" y="1009.5631">*</text><text fill="#000000" font-family="sans-serif" font-size="13" lengthAdjust="spacing" textLength="7.23" x="165.3568" y="1108.0955">1</text></g><!--link Industry to Cargo--><g id="link_Industry_Cargo"><path codeLine="134" d="M554.79,1003.0511 C621.52,1021.3811 727.94,1049.5711 821,1069.6211 C952.89,1098.0411 1109.43,1123.4311 1191.44,1136.1011 " fill="none" id="Industry-Cargo" style="stroke:#181818;stroke-width:1.0;"/><polygon fill="#000000" points="830.8943,1061.2894,822.6417,1056.5623,821.4393,1062.3159,830.8943,1061.2894" style="stroke:#000000;stroke-width:1.0;"/><text fill="#000000" font-family="sans-serif" font-size="13" lengthAdjust="spacing" textLength="53.479" x="835" y="1065.6494">produces</text><text fill="#000000" font-family="sans-serif" font-size="13" lengthAdjust="spacing" textLength="5.0591" x="562.6867" y="1001.3679">*</text><text fill="#000000" font-family="sans-serif" font-size="13" lengthAdjust="spacing" textLength="5.0591" x="1178.4976" y="1130.7113">*</text></g><!--link City to Position--><g id="link_City_Position"><path codeLine="137" d="M573.45,473.3611 C434.14,482.9211 140,525.6611 140,716.1211 C140,716.1211 140,716.1211 140,984.6211 C140,1066.2911 406.48,1117.0111 529.31,1136.0611 " fill="none" id="City-Position" style="stroke:#181818;stroke-width:1.0;"/><polygon fill="#000000" points="144.6677,817.2555,148.2013,808.4258,142.3364,808.0351,144.6677,817.2555" style="stroke:#000000;stroke-width:1.0;"/><text fill="#000000" font-family="sans-serif" font-size="13" lengthAdjust="spacing" textLength="20.96" x="154" y="817.6494">has</text><text fill="#000000" font-family="sans-serif" font-size="13" lengthAdjust="spacing" textLength="18.0718" x="544.037" y="469.9206">0,1</text><text fill="#000000" font-family="sans-serif" font-size="13" lengthAdjust="spacing" textLength="7.23" x="507.0905" y="1130.9144">1</text></g><!--link City to Cargo--><g id="link_City_Cargo"><path codeLine="138" d="M655.99,506.8611 C661.62,522.5311 669.33,540.6711 679,555.6211 C746.43,659.8711 799.69,656.4211 873,756.6211 C906.11,801.8811 898.06,823.7511 933,867.6211 C1017.61,973.8611 1146.12,1072.3211 1209.66,1117.9511 " fill="none" id="City-Cargo" style="stroke:#181818;stroke-width:1.0;"/><polygon fill="#000000" points="941.3572,815.9719,937.4619,807.2956,933.1061,811.2422,941.3572,815.9719" style="stroke:#000000;stroke-width:1.0;"/><text fill="#000000" font-family="sans-serif" font-size="13" lengthAdjust="spacing" textLength="53.479" x="947" y="817.6494">demands</text><text fill="#000000" font-family="sans-serif" font-size="13" lengthAdjust="spacing" textLength="5.0591" x="652.4222" y="528.5005">*</text><text fill="#000000" font-family="sans-serif" font-size="13" lengthAdjust="spacing" textLength="5.0591" x="1188.3256" y="1107.0726">*</text></g><!--SRC=[XLRRRjiu47tNLmpoOY3OD7KVZUu2gPD53JHjO7k1zf6LnX8HYHH8gectoB_ly2AAkXXh80OvSsPuvkhePovQfbW3ZHGohvHi48pgCDDHqxBycPLuCESQGM5kc2Zh5A0hLiWNBaeuiLgdchncMjyPe_ZFpk0kb-B0_qLudrMyGCYvoicHEpTeAbdeB3FSq3DxhF4N4mRkPSEuW4TPO0tucgDg3PoaWdyEwmzm0rk5p20mqBpfQcQaoh8L_9b-OFlbxd1OwR4qonmvEFHsy3i3-cZ3JASty4dA6fbmCiCR_7OAI2x51dR2O8agU-lTFDNiZBsFJgCIhC4D7F7LE55Be1UfYY2ATe-izKO9FYeFEGgck7G87Ix7Spiurf7J4vAkM63scMkAZkUiVlY5b55FSKAFebRcdZAv0VljP2YAYSHWqqh5wZrgAcbkdwLCKGZ3Qtj9XLv-GrbLmlujc6oPAcKmoUrvXEbJOLoK3ZRoIpr5P3f7PYkr8KBtcFE6rPal9ic3G_eU7Ev4qP7XUPPzkl6WMxBRShDeKqcg-gTQvizweGYkxPtL2ozCDI2i9VAoCaiz9JMFGSFtDbn7nZ_cqhVv1Eo-7X_sVzzj7-PJmCbAdLYEVOfjkA4QzzXAezqnAFtbYAhXWcRTlZKus2Lf2nwU55L2dG-qDQJgzTw7OaBJ89EZSgHuvAzOHCai6DW_VBaxxhvzFNpUFKt28UmmpjGO0dsFPeFq2gxfx-Oc768NRA1Y6lwQ825WhwzytHTGrnwn1WUsu_o_e3ZM5nwD_2mszFrbfnxdv-uooaRWvcm39GfKTcbUyaRVqwMnuFZz7sl7zCOVwHnsu0PojvHlMxfh-4XL2Pgq947aSn92NbybwtZZbz9josYmwEbe40CQSlEputK1jz0mGRzKEaKd9KoBatfpoZw1dhk5P2jha7AszxGjUkvkkdlF3dIzG7AYxjfvNqrjfusIwdtTPmqSEGQAxzxPFe-hf8VHfFJEHuFI2oTpSgaVijLKatgRwiRKG-JiT2AyTJQ3ZoSm2RNWMdMjyGnyvT9tlSIRmwp_QRNoKc01Hf9zWlN83vInj6obf6umz9zHLrPB-A66WK98Rt0mocwGJPAxJ2o2RT9gF1a_7ycIZaFP8zqSZfiJbegVyXZWapxELZ7XQGnH61U0VshXcG4QurqdBJkAOS3E5rQhPD7bOIPThbD2JZ0ciy35eyRz5zmNI6kZiA3_0000]--></g></svg>