<svg xmlns="http://www.w3.org/2000/svg" xmlns:xlink="http://www.w3.org/1999/xlink" contentStyleType="text/css" height="661px" preserveAspectRatio="none" style="width:582px;height:661px;background:#FFFFFF;" version="1.1" viewBox="0 0 582 661" width="582px" zoomAndPan="magnify"><title>System Sequence Diagram (SSD) - US06</title><defs/><g><text fill="#000000" font-family="sans-serif" font-size="14" font-weight="bold" lengthAdjust="spacing" textLength="269.2061" x="163.8613" y="30.1074">System Sequence Diagram (SSD) - US06</text><rect fill="#FFFFFF" height="436.123" style="stroke:#181818;stroke-width:1.0;" width="10" x="37.8413" y="133.2422"/><rect fill="#FFFFFF" height="57.582" style="stroke:#181818;stroke-width:1.0;" width="10" x="369.5972" y="156.5332"/><rect fill="#FFFFFF" height="82.582" style="stroke:#181818;stroke-width:1.0;" width="10" x="369.5972" y="245.4063"/><rect fill="#FFFFFF" height="194.0859" style="stroke:#181818;stroke-width:1.0;" width="10" x="369.5972" y="359.2793"/><rect fill="none" height="126.1641" style="stroke:#000000;stroke-width:1.5;" width="564.0933" x="10" y="171.5332"/><rect fill="none" height="142.7949" style="stroke:#000000;stroke-width:1.5;" width="560.4878" x="10" y="418.5703"/><line style="stroke:#181818;stroke-width:0.5;stroke-dasharray:5.0,5.0;" x1="42" x2="42" y1="123.2422" y2="578.3652"/><line style="stroke:#181818;stroke-width:0.5;stroke-dasharray:5.0,5.0;" x1="374.2593" x2="374.2593" y1="123.2422" y2="578.3652"/><text fill="#000000" font-family="sans-serif" font-size="14" lengthAdjust="spacing" textLength="39.6826" x="20" y="119.7285">Player</text><ellipse cx="42.8413" cy="53.1211" fill="#E2E2F0" rx="8" ry="8" style="stroke:#181818;stroke-width:0.5;"/><path d="M42.8413,61.1211 L42.8413,88.1211 M29.8413,69.1211 L55.8413,69.1211 M42.8413,88.1211 L29.8413,103.1211 M42.8413,88.1211 L55.8413,103.1211 " fill="none" style="stroke:#181818;stroke-width:0.5;"/><text fill="#000000" font-family="sans-serif" font-size="14" lengthAdjust="spacing" textLength="39.6826" x="20" y="592.4727">Player</text><ellipse cx="42.8413" cy="604.4863" fill="#E2E2F0" rx="8" ry="8" style="stroke:#181818;stroke-width:0.5;"/><path d="M42.8413,612.4863 L42.8413,639.4863 M29.8413,620.4863 L55.8413,620.4863 M42.8413,639.4863 L29.8413,654.4863 M42.8413,639.4863 L55.8413,654.4863 " fill="none" style="stroke:#181818;stroke-width:0.5;"/><rect fill="#E2E2F0" height="32.6211" rx="2.5" ry="2.5" style="stroke:#181818;stroke-width:0.5;" width="60.6758" x="344.2593" y="89.6211"/><text fill="#000000" font-family="sans-serif" font-size="14" lengthAdjust="spacing" textLength="46.6758" x="351.2593" y="111.7285">System</text><rect fill="#E2E2F0" height="32.6211" rx="2.5" ry="2.5" style="stroke:#181818;stroke-width:0.5;" width="60.6758" x="344.2593" y="577.3652"/><text fill="#000000" font-family="sans-serif" font-size="14" lengthAdjust="spacing" textLength="46.6758" x="351.2593" y="599.4727">System</text><rect fill="#FFFFFF" height="436.123" style="stroke:#181818;stroke-width:1.0;" width="10" x="37.8413" y="133.2422"/><rect fill="#FFFFFF" height="57.582" style="stroke:#181818;stroke-width:1.0;" width="10" x="369.5972" y="156.5332"/><rect fill="#FFFFFF" height="82.582" style="stroke:#181818;stroke-width:1.0;" width="10" x="369.5972" y="245.4063"/><rect fill="#FFFFFF" height="194.0859" style="stroke:#181818;stroke-width:1.0;" width="10" x="369.5972" y="359.2793"/><polygon fill="#181818" points="357.5972,152.5332,367.5972,156.5332,357.5972,160.5332,361.5972,156.5332" style="stroke:#181818;stroke-width:1.0;"/><line style="stroke:#181818;stroke-width:1.0;" x1="47.8413" x2="363.5972" y1="156.5332" y2="156.5332"/><text fill="#000000" font-family="sans-serif" font-size="13" lengthAdjust="spacing" textLength="179.2324" x="54.8413" y="151.2705">1. Select a station upgrade tool</text><path d="M10,171.5332 L82.4346,171.5332 L82.4346,180.8242 L72.4346,190.8242 L10,190.8242 L10,171.5332 " fill="#EEEEEE" style="stroke:#000000;stroke-width:1.5;"/><rect fill="none" height="126.1641" style="stroke:#000000;stroke-width:1.5;" width="564.0933" x="10" y="171.5332"/><text fill="#000000" font-family="sans-serif" font-size="13" font-weight="bold" lengthAdjust="spacing" textLength="27.4346" x="25" y="186.5615">loop</text><text fill="#000000" font-family="sans-serif" font-size="11" font-weight="bold" lengthAdjust="spacing" textLength="112.4492" x="97.4346" y="185.4033">[Until Station is valid]</text><polygon fill="#181818" points="58.8413,210.1152,48.8413,214.1152,58.8413,218.1152,54.8413,214.1152" style="stroke:#181818;stroke-width:1.0;"/><line style="stroke:#181818;stroke-width:1.0;stroke-dasharray:2.0,2.0;" x1="52.8413" x2="373.5972" y1="214.1152" y2="214.1152"/><text fill="#000000" font-family="sans-serif" font-size="13" lengthAdjust="spacing" textLength="208.1206" x="64.8413" y="208.8525">2.0 Question which station to evolve</text><polygon fill="#181818" points="357.5972,241.4063,367.5972,245.4063,357.5972,249.4063,361.5972,245.4063" style="stroke:#181818;stroke-width:1.0;"/><line style="stroke:#181818;stroke-width:1.0;" x1="47.8413" x2="363.5972" y1="245.4063" y2="245.4063"/><text fill="#000000" font-family="sans-serif" font-size="13" lengthAdjust="spacing" textLength="174.8906" x="54.8413" y="240.1436">2.1 Choose a station to evolve</text><line style="stroke:#181818;stroke-width:1.0;" x1="379.5972" x2="421.5972" y1="276.6973" y2="276.6973"/><line style="stroke:#181818;stroke-width:1.0;" x1="421.5972" x2="421.5972" y1="276.6973" y2="289.6973"/><line style="stroke:#181818;stroke-width:1.0;" x1="380.5972" x2="421.5972" y1="289.6973" y2="289.6973"/><polygon fill="#181818" points="390.5972,285.6973,380.5972,289.6973,390.5972,293.6973,386.5972,289.6973" style="stroke:#181818;stroke-width:1.0;"/><text fill="#000000" font-family="sans-serif" font-size="13" lengthAdjust="spacing" textLength="165.4961" x="386.5972" y="271.4346">2.2 Validate station selection</text><polygon fill="#181818" points="58.8413,323.9883,48.8413,327.9883,58.8413,331.9883,54.8413,327.9883" style="stroke:#181818;stroke-width:1.0;"/><line style="stroke:#181818;stroke-width:1.0;stroke-dasharray:2.0,2.0;" x1="52.8413" x2="373.5972" y1="327.9883" y2="327.9883"/><text fill="#000000" font-family="sans-serif" font-size="13" lengthAdjust="spacing" textLength="297.7559" x="64.8413" y="322.7256">3.0 Shows the list of buildings that can be upgraded</text><polygon fill="#181818" points="357.5972,355.2793,367.5972,359.2793,357.5972,363.2793,361.5972,359.2793" style="stroke:#181818;stroke-width:1.0;"/><line style="stroke:#181818;stroke-width:1.0;" x1="47.8413" x2="363.5972" y1="359.2793" y2="359.2793"/><text fill="#000000" font-family="sans-serif" font-size="13" lengthAdjust="spacing" textLength="191.5342" x="54.8413" y="354.0166">3.1 Choose a building to upgrade</text><line style="stroke:#181818;stroke-width:1.0;" x1="379.5972" x2="421.5972" y1="390.5703" y2="390.5703"/><line style="stroke:#181818;stroke-width:1.0;" x1="421.5972" x2="421.5972" y1="390.5703" y2="403.5703"/><line style="stroke:#181818;stroke-width:1.0;" x1="380.5972" x2="421.5972" y1="403.5703" y2="403.5703"/><polygon fill="#181818" points="390.5972,399.5703,380.5972,403.5703,390.5972,407.5703,386.5972,403.5703" style="stroke:#181818;stroke-width:1.0;"/><text fill="#000000" font-family="sans-serif" font-size="13" lengthAdjust="spacing" textLength="189.3315" x="386.5972" y="385.3076">3.2 Check upgrade requirements</text><path d="M10,418.5703 L70.1709,418.5703 L70.1709,427.8613 L60.1709,437.8613 L10,437.8613 L10,418.5703 " fill="#EEEEEE" style="stroke:#000000;stroke-width:1.5;"/><rect fill="none" height="142.7949" style="stroke:#000000;stroke-width:1.5;" width="560.4878" x="10" y="418.5703"/><text fill="#000000" font-family="sans-serif" font-size="13" font-weight="bold" lengthAdjust="spacing" textLength="15.1709" x="25" y="433.5986">alt</text><text fill="#000000" font-family="sans-serif" font-size="11" font-weight="bold" lengthAdjust="spacing" textLength="201.0776" x="85.1709" y="432.4404">[Valid Building Upgrade requirements]</text><line style="stroke:#181818;stroke-width:1.0;" x1="379.5972" x2="421.5972" y1="461.1523" y2="461.1523"/><line style="stroke:#181818;stroke-width:1.0;" x1="421.5972" x2="421.5972" y1="461.1523" y2="474.1523"/><line style="stroke:#181818;stroke-width:1.0;" x1="380.5972" x2="421.5972" y1="474.1523" y2="474.1523"/><polygon fill="#181818" points="390.5972,470.1523,380.5972,474.1523,390.5972,478.1523,386.5972,474.1523" style="stroke:#181818;stroke-width:1.0;"/><text fill="#000000" font-family="sans-serif" font-size="13" lengthAdjust="spacing" textLength="161.8906" x="386.5972" y="455.8896">3.3 Apply upgrade to station</text><polygon fill="#181818" points="58.8413,501.4434,48.8413,505.4434,58.8413,509.4434,54.8413,505.4434" style="stroke:#181818;stroke-width:1.0;"/><line style="stroke:#181818;stroke-width:1.0;stroke-dasharray:2.0,2.0;" x1="52.8413" x2="368.5972" y1="505.4434" y2="505.4434"/><text fill="#000000" font-family="sans-serif" font-size="13" lengthAdjust="spacing" textLength="167.6353" x="64.8413" y="500.1807">4.1 Return success message</text><line style="stroke:#000000;stroke-width:1.0;stroke-dasharray:2.0,2.0;" x1="10" x2="570.4878" y1="514.4434" y2="514.4434"/><text fill="#000000" font-family="sans-serif" font-size="11" font-weight="bold" lengthAdjust="spacing" textLength="209.6338" x="15" y="526.3135">[Invalid Building Upgrade requirements]</text><polygon fill="#181818" points="58.8413,549.3652,48.8413,553.3652,58.8413,557.3652,54.8413,553.3652" style="stroke:#181818;stroke-width:1.0;"/><line style="stroke:#181818;stroke-width:1.0;stroke-dasharray:2.0,2.0;" x1="52.8413" x2="373.5972" y1="553.3652" y2="553.3652"/><text fill="#000000" font-family="sans-serif" font-size="13" lengthAdjust="spacing" textLength="148.1226" x="64.8413" y="548.1025">4.1 Return error message</text><!--SRC=[ZPC_JyCm4CLtVuetmj2eRH131oHe5pOWAhlh78s5OmVxaghV7gT9Ib1QGORyiUpVU-_k8XKxZnSZZ-H59JrhfIjf6TanC9M2DHjQzL_8wAicgmWRBVTUbhZ9iiqjPjXcytiXX5Ii6yaq0Bi7PWyzO8L54Y6654CYi6JjBEegid82EsT-4Bq1OPohiBMi3RB-W0vefD6vGBnwQxCeqicji4pcUAqfd3OV2gsAinOxKEDCGwUpEKtaskMfxMMomBfmBj38zs_MHT9WRanQuhqrtsuTIE5KalWcoEP2N8YKnaXPuGu1N12C3WptWLsjJQxjlbsL32KjTZJKCnVJUDDawJZPm6kZzPH9GwQHqXXfNP3wF7VInpdHdago78Gqt2N6qu3VNjftfM1fakAnginnD2T3uQuDm5qCzKPS-rZQMYaA0MMyoJrrAcHYt6VR_CFLtmhaVVo51lwLiMhx-Wq0]--></g></svg>