<svg xmlns="http://www.w3.org/2000/svg" xmlns:xlink="http://www.w3.org/1999/xlink" contentStyleType="text/css" height="408px" preserveAspectRatio="none" style="width:1110px;height:408px;background:#FFFFFF;" version="1.1" viewBox="0 0 1110 408" width="1110px" zoomAndPan="magnify"><defs/><g><!--class CreateMapUI--><g id="elem_CreateMapUI"><rect codeLine="10" fill="#F1F1F1" height="141.1055" id="CreateMapUI" rx="2.5" ry="2.5" style="stroke:#181818;stroke-width:0.5;" width="211.9648" x="7" y="49"/><ellipse cx="67.105" cy="65" fill="#ADD1B2" rx="11" ry="11" style="stroke:#181818;stroke-width:1.0;"/><path d="M69.8706,60.875 Q70.0269,60.6563 70.2144,60.5469 Q70.4019,60.4375 70.6206,60.4375 Q70.9956,60.4375 71.23,60.7031 Q71.4644,60.9531 71.4644,61.5625 L71.4644,63.0156 Q71.4644,63.625 71.23,63.8906 Q70.9956,64.1563 70.6206,64.1563 Q70.2769,64.1563 70.0737,63.9531 Q69.8706,63.7656 69.7612,63.25 Q69.7144,62.8906 69.5269,62.7031 Q69.1987,62.3281 68.5894,62.1094 Q67.98,61.8906 67.355,61.8906 Q66.5894,61.8906 65.9487,62.2188 Q65.3237,62.5469 64.8237,63.2969 Q64.3394,64.0469 64.3394,65.0781 L64.3394,66.1719 Q64.3394,67.4063 65.23,68.2344 Q66.1206,69.0469 67.7144,69.0469 Q68.6519,69.0469 69.3081,68.7969 Q69.6987,68.6406 70.1206,68.2031 Q70.3862,67.9375 70.5269,67.8594 Q70.6831,67.7813 70.8862,67.7813 Q71.2144,67.7813 71.4644,68.0469 Q71.73,68.2969 71.73,68.6406 Q71.73,68.9844 71.3862,69.3906 Q70.8862,69.9688 70.0894,70.2969 Q69.0112,70.75 67.7144,70.75 Q66.1987,70.75 64.9956,70.125 Q64.0112,69.625 63.3237,68.5625 Q62.6362,67.4844 62.6362,66.2031 L62.6362,65.0469 Q62.6362,63.7188 63.2456,62.5781 Q63.8706,61.4219 64.9644,60.8125 Q66.0581,60.1875 67.2925,60.1875 Q68.0269,60.1875 68.6675,60.3594 Q69.3237,60.5156 69.8706,60.875 Z " fill="#000000"/><text fill="#000000" font-family="sans-serif" font-size="14" lengthAdjust="spacing" textLength="83.2549" x="87.605" y="70.7969">CreateMapUI</text><line style="stroke:#181818;stroke-width:0.5;" x1="8" x2="217.9648" y1="81" y2="81"/><text fill="#000000" font-family="sans-serif" font-size="14" lengthAdjust="spacing" textLength="199.9648" x="13" y="100.1074">-controller: CreateMapController</text><text fill="#000000" font-family="sans-serif" font-size="14" lengthAdjust="spacing" textLength="111.2686" x="13" y="118.7285">-nameMap: String</text><text fill="#000000" font-family="sans-serif" font-size="14" lengthAdjust="spacing" textLength="168.8818" x="13" y="137.3496">-defaultNameMap: boolean</text><line style="stroke:#181818;stroke-width:0.5;" x1="8" x2="217.9648" y1="144.8633" y2="144.8633"/><text fill="#000000" font-family="sans-serif" font-size="14" lengthAdjust="spacing" textLength="119.8135" x="13" y="163.9707">-aNameMap(): void</text><text fill="#000000" font-family="sans-serif" font-size="14" lengthAdjust="spacing" textLength="188.2959" x="13" y="182.5918">-enterDefaultNameMap(): void</text></g><!--class CreateMapController--><g id="elem_CreateMapController"><rect codeLine="18" fill="#F1F1F1" height="178.3477" id="CreateMapController" rx="2.5" ry="2.5" style="stroke:#181818;stroke-width:0.5;" width="339.9951" x="254" y="30.5"/><ellipse cx="354.7754" cy="46.5" fill="#ADD1B2" rx="11" ry="11" style="stroke:#181818;stroke-width:1.0;"/><path d="M357.541,42.375 Q357.6973,42.1563 357.8848,42.0469 Q358.0723,41.9375 358.291,41.9375 Q358.666,41.9375 358.9004,42.2031 Q359.1348,42.4531 359.1348,43.0625 L359.1348,44.5156 Q359.1348,45.125 358.9004,45.3906 Q358.666,45.6563 358.291,45.6563 Q357.9473,45.6563 357.7441,45.4531 Q357.541,45.2656 357.4316,44.75 Q357.3848,44.3906 357.1973,44.2031 Q356.8691,43.8281 356.2598,43.6094 Q355.6504,43.3906 355.0254,43.3906 Q354.2598,43.3906 353.6191,43.7188 Q352.9941,44.0469 352.4941,44.7969 Q352.0098,45.5469 352.0098,46.5781 L352.0098,47.6719 Q352.0098,48.9063 352.9004,49.7344 Q353.791,50.5469 355.3848,50.5469 Q356.3223,50.5469 356.9785,50.2969 Q357.3691,50.1406 357.791,49.7031 Q358.0566,49.4375 358.1973,49.3594 Q358.3535,49.2813 358.5566,49.2813 Q358.8848,49.2813 359.1348,49.5469 Q359.4004,49.7969 359.4004,50.1406 Q359.4004,50.4844 359.0566,50.8906 Q358.5566,51.4688 357.7598,51.7969 Q356.6816,52.25 355.3848,52.25 Q353.8691,52.25 352.666,51.625 Q351.6816,51.125 350.9941,50.0625 Q350.3066,48.9844 350.3066,47.7031 L350.3066,46.5469 Q350.3066,45.2188 350.916,44.0781 Q351.541,42.9219 352.6348,42.3125 Q353.7285,41.6875 354.9629,41.6875 Q355.6973,41.6875 356.3379,41.8594 Q356.9941,42.0156 357.541,42.375 Z " fill="#000000"/><text fill="#000000" font-family="sans-serif" font-size="14" lengthAdjust="spacing" textLength="129.9443" x="375.2754" y="52.2969">CreateMapController</text><line style="stroke:#181818;stroke-width:0.5;" x1="255" x2="592.9951" y1="62.5" y2="62.5"/><text fill="#000000" font-family="sans-serif" font-size="14" lengthAdjust="spacing" textLength="200.7441" x="260" y="81.6074">-mapRepository: MapRepository</text><text fill="#000000" font-family="sans-serif" font-size="14" lengthAdjust="spacing" textLength="66.9102" x="260" y="100.2285">-map: Map</text><line style="stroke:#181818;stroke-width:0.5;" x1="255" x2="592.9951" y1="107.7422" y2="107.7422"/><text fill="#000000" font-family="sans-serif" font-size="14" lengthAdjust="spacing" textLength="147.4443" x="260" y="126.8496">+CreateMapController()</text><text fill="#000000" font-family="sans-serif" font-size="14" lengthAdjust="spacing" textLength="161.0615" x="260" y="145.4707">-getMapRepository(): void</text><text fill="#000000" font-family="sans-serif" font-size="14" lengthAdjust="spacing" textLength="327.9951" x="260" y="164.0918">+createMap(name: String, width: int, height: int): void</text><text fill="#000000" font-family="sans-serif" font-size="14" lengthAdjust="spacing" textLength="285.2021" x="260" y="182.7129">+createMapDefault(width: int, height: int): void</text><text fill="#000000" font-family="sans-serif" font-size="14" lengthAdjust="spacing" textLength="149.0166" x="260" y="201.334">+getMapCreated(): Map</text></g><!--class Repositories--><g id="elem_Repositories"><rect codeLine="29" fill="#F1F1F1" height="122.4844" id="Repositories" rx="2.5" ry="2.5" style="stroke:#181818;stroke-width:0.5;" width="245.0439" x="68.5" y="279"/><ellipse cx="147.8652" cy="295" fill="#ADD1B2" rx="11" ry="11" style="stroke:#181818;stroke-width:1.0;"/><path d="M150.6309,290.875 Q150.7871,290.6563 150.9746,290.5469 Q151.1621,290.4375 151.3809,290.4375 Q151.7559,290.4375 151.9902,290.7031 Q152.2246,290.9531 152.2246,291.5625 L152.2246,293.0156 Q152.2246,293.625 151.9902,293.8906 Q151.7559,294.1563 151.3809,294.1563 Q151.0371,294.1563 150.834,293.9531 Q150.6309,293.7656 150.5215,293.25 Q150.4746,292.8906 150.2871,292.7031 Q149.959,292.3281 149.3496,292.1094 Q148.7402,291.8906 148.1152,291.8906 Q147.3496,291.8906 146.709,292.2188 Q146.084,292.5469 145.584,293.2969 Q145.0996,294.0469 145.0996,295.0781 L145.0996,296.1719 Q145.0996,297.4063 145.9902,298.2344 Q146.8809,299.0469 148.4746,299.0469 Q149.4121,299.0469 150.0684,298.7969 Q150.459,298.6406 150.8809,298.2031 Q151.1465,297.9375 151.2871,297.8594 Q151.4434,297.7813 151.6465,297.7813 Q151.9746,297.7813 152.2246,298.0469 Q152.4902,298.2969 152.4902,298.6406 Q152.4902,298.9844 152.1465,299.3906 Q151.6465,299.9688 150.8496,300.2969 Q149.7715,300.75 148.4746,300.75 Q146.959,300.75 145.7559,300.125 Q144.7715,299.625 144.084,298.5625 Q143.3965,297.4844 143.3965,296.2031 L143.3965,295.0469 Q143.3965,293.7188 144.0059,292.5781 Q144.6309,291.4219 145.7246,290.8125 Q146.8184,290.1875 148.0527,290.1875 Q148.7871,290.1875 149.4277,290.3594 Q150.084,290.5156 150.6309,290.875 Z " fill="#000000"/><text fill="#000000" font-family="sans-serif" font-size="14" lengthAdjust="spacing" textLength="77.8135" x="168.3652" y="300.7969">Repositories</text><line style="stroke:#181818;stroke-width:0.5;" x1="69.5" x2="312.5439" y1="311" y2="311"/><text fill="#000000" font-family="sans-serif" font-size="14" lengthAdjust="spacing" textLength="200.7441" x="74.5" y="330.1074">-mapRepository: MapRepository</text><line style="stroke:#181818;stroke-width:0.5;" x1="69.5" x2="312.5439" y1="337.6211" y2="337.6211"/><text fill="#000000" font-family="sans-serif" font-size="14" lengthAdjust="spacing" text-decoration="underline" textLength="175.4785" x="74.5" y="356.7285">+getInstance(): Repositories</text><text fill="#000000" font-family="sans-serif" font-size="14" lengthAdjust="spacing" textLength="233.0439" x="74.5" y="375.3496">+getMapRepository(): MapRepository</text><text fill="#000000" font-family="sans-serif" font-size="14" lengthAdjust="spacing" textLength="20.9932" x="74.5" y="393.9707">...()</text></g><!--class Size--><g id="elem_Size"><rect codeLine="36" fill="#F1F1F1" height="122.4844" id="Size" rx="2.5" ry="2.5" style="stroke:#181818;stroke-width:0.5;" width="180.4717" x="629" y="58.5"/><ellipse cx="701.3687" cy="74.5" fill="#ADD1B2" rx="11" ry="11" style="stroke:#181818;stroke-width:1.0;"/><path d="M704.1343,70.375 Q704.2905,70.1563 704.478,70.0469 Q704.6655,69.9375 704.8843,69.9375 Q705.2593,69.9375 705.4937,70.2031 Q705.728,70.4531 705.728,71.0625 L705.728,72.5156 Q705.728,73.125 705.4937,73.3906 Q705.2593,73.6563 704.8843,73.6563 Q704.5405,73.6563 704.3374,73.4531 Q704.1343,73.2656 704.0249,72.75 Q703.978,72.3906 703.7905,72.2031 Q703.4624,71.8281 702.853,71.6094 Q702.2437,71.3906 701.6187,71.3906 Q700.853,71.3906 700.2124,71.7188 Q699.5874,72.0469 699.0874,72.7969 Q698.603,73.5469 698.603,74.5781 L698.603,75.6719 Q698.603,76.9063 699.4937,77.7344 Q700.3843,78.5469 701.978,78.5469 Q702.9155,78.5469 703.5718,78.2969 Q703.9624,78.1406 704.3843,77.7031 Q704.6499,77.4375 704.7905,77.3594 Q704.9468,77.2813 705.1499,77.2813 Q705.478,77.2813 705.728,77.5469 Q705.9937,77.7969 705.9937,78.1406 Q705.9937,78.4844 705.6499,78.8906 Q705.1499,79.4688 704.353,79.7969 Q703.2749,80.25 701.978,80.25 Q700.4624,80.25 699.2593,79.625 Q698.2749,79.125 697.5874,78.0625 Q696.8999,76.9844 696.8999,75.7031 L696.8999,74.5469 Q696.8999,73.2188 697.5093,72.0781 Q698.1343,70.9219 699.228,70.3125 Q700.3218,69.6875 701.5562,69.6875 Q702.2905,69.6875 702.9312,69.8594 Q703.5874,70.0156 704.1343,70.375 Z " fill="#000000"/><text fill="#000000" font-family="sans-serif" font-size="14" lengthAdjust="spacing" textLength="27.2344" x="721.8687" y="80.2969">Size</text><line style="stroke:#181818;stroke-width:0.5;" x1="630" x2="808.4717" y1="90.5" y2="90.5"/><text fill="#000000" font-family="sans-serif" font-size="14" lengthAdjust="spacing" textLength="59.9102" x="635" y="109.6074">-width: int</text><text fill="#000000" font-family="sans-serif" font-size="14" lengthAdjust="spacing" textLength="65.3721" x="635" y="128.2285">-height: int</text><line style="stroke:#181818;stroke-width:0.5;" x1="630" x2="808.4717" y1="135.7422" y2="135.7422"/><text fill="#000000" font-family="sans-serif" font-size="14" lengthAdjust="spacing" textLength="168.4717" x="635" y="154.8496">+Size(width: int, height: int)</text><text fill="#000000" font-family="sans-serif" font-size="14" lengthAdjust="spacing" textLength="20.9932" x="635" y="173.4707">...()</text></g><!--class Map--><g id="elem_Map"><rect codeLine="43" fill="#F1F1F1" height="196.9688" id="Map" rx="2.5" ry="2.5" style="stroke:#181818;stroke-width:0.5;" width="259.4473" x="844.5" y="21"/><ellipse cx="956.3564" cy="37" fill="#ADD1B2" rx="11" ry="11" style="stroke:#181818;stroke-width:1.0;"/><path d="M959.1221,32.875 Q959.2783,32.6563 959.4658,32.5469 Q959.6533,32.4375 959.8721,32.4375 Q960.2471,32.4375 960.4814,32.7031 Q960.7158,32.9531 960.7158,33.5625 L960.7158,35.0156 Q960.7158,35.625 960.4814,35.8906 Q960.2471,36.1563 959.8721,36.1563 Q959.5283,36.1563 959.3252,35.9531 Q959.1221,35.7656 959.0127,35.25 Q958.9658,34.8906 958.7783,34.7031 Q958.4502,34.3281 957.8408,34.1094 Q957.2314,33.8906 956.6064,33.8906 Q955.8408,33.8906 955.2002,34.2188 Q954.5752,34.5469 954.0752,35.2969 Q953.5908,36.0469 953.5908,37.0781 L953.5908,38.1719 Q953.5908,39.4063 954.4814,40.2344 Q955.3721,41.0469 956.9658,41.0469 Q957.9033,41.0469 958.5596,40.7969 Q958.9502,40.6406 959.3721,40.2031 Q959.6377,39.9375 959.7783,39.8594 Q959.9346,39.7813 960.1377,39.7813 Q960.4658,39.7813 960.7158,40.0469 Q960.9814,40.2969 960.9814,40.6406 Q960.9814,40.9844 960.6377,41.3906 Q960.1377,41.9688 959.3408,42.2969 Q958.2627,42.75 956.9658,42.75 Q955.4502,42.75 954.2471,42.125 Q953.2627,41.625 952.5752,40.5625 Q951.8877,39.4844 951.8877,38.2031 L951.8877,37.0469 Q951.8877,35.7188 952.4971,34.5781 Q953.1221,33.4219 954.2158,32.8125 Q955.3096,32.1875 956.5439,32.1875 Q957.2783,32.1875 957.9189,32.3594 Q958.5752,32.5156 959.1221,32.875 Z " fill="#000000"/><text fill="#000000" font-family="sans-serif" font-size="14" lengthAdjust="spacing" textLength="27.2344" x="976.8564" y="42.7969">Map</text><line style="stroke:#181818;stroke-width:0.5;" x1="845.5" x2="1102.9473" y1="53" y2="53"/><text fill="#000000" font-family="sans-serif" font-size="14" lengthAdjust="spacing" textLength="84.0342" x="850.5" y="72.1074">-name: String</text><text fill="#000000" font-family="sans-serif" font-size="14" lengthAdjust="spacing" textLength="64.5723" x="850.5" y="90.7285">-size: Size</text><text fill="#000000" font-family="sans-serif" font-size="14" lengthAdjust="spacing" textLength="38.124" x="850.5" y="109.3496">-id: int</text><text fill="#000000" font-family="sans-serif" font-size="14" lengthAdjust="spacing" textLength="247.4473" x="850.5" y="127.9707">-mapElementsUsed: List&lt;MapElement&gt;</text><text fill="#000000" font-family="sans-serif" font-size="14" lengthAdjust="spacing" textLength="213.2334" x="850.5" y="146.5918">-occupiedPositions: List&lt;Position&gt;</text><text fill="#000000" font-family="sans-serif" font-size="14" lengthAdjust="spacing" textLength="157.9648" x="850.5" y="165.2129">-counterCreatedMaps: int</text><line style="stroke:#181818;stroke-width:0.5;" x1="845.5" x2="1102.9473" y1="172.7266" y2="172.7266"/><text fill="#000000" font-family="sans-serif" font-size="14" lengthAdjust="spacing" textLength="191.7959" x="850.5" y="191.834">+Map(name: String, size: Size)</text><text fill="#000000" font-family="sans-serif" font-size="14" lengthAdjust="spacing" textLength="20.9932" x="850.5" y="210.4551">...()</text></g><!--class MapRepository--><g id="elem_MapRepository"><rect codeLine="54" fill="#F1F1F1" height="103.8633" id="MapRepository" rx="2.5" ry="2.5" style="stroke:#181818;stroke-width:0.5;" width="175.8027" x="427" y="288"/><ellipse cx="464.3431" cy="304" fill="#ADD1B2" rx="11" ry="11" style="stroke:#181818;stroke-width:1.0;"/><path d="M467.1087,299.875 Q467.265,299.6563 467.4525,299.5469 Q467.64,299.4375 467.8587,299.4375 Q468.2337,299.4375 468.4681,299.7031 Q468.7025,299.9531 468.7025,300.5625 L468.7025,302.0156 Q468.7025,302.625 468.4681,302.8906 Q468.2337,303.1563 467.8587,303.1563 Q467.515,303.1563 467.3119,302.9531 Q467.1087,302.7656 466.9994,302.25 Q466.9525,301.8906 466.765,301.7031 Q466.4369,301.3281 465.8275,301.1094 Q465.2181,300.8906 464.5931,300.8906 Q463.8275,300.8906 463.1869,301.2188 Q462.5619,301.5469 462.0619,302.2969 Q461.5775,303.0469 461.5775,304.0781 L461.5775,305.1719 Q461.5775,306.4063 462.4681,307.2344 Q463.3587,308.0469 464.9525,308.0469 Q465.89,308.0469 466.5462,307.7969 Q466.9369,307.6406 467.3587,307.2031 Q467.6244,306.9375 467.765,306.8594 Q467.9212,306.7813 468.1244,306.7813 Q468.4525,306.7813 468.7025,307.0469 Q468.9681,307.2969 468.9681,307.6406 Q468.9681,307.9844 468.6244,308.3906 Q468.1244,308.9688 467.3275,309.2969 Q466.2494,309.75 464.9525,309.75 Q463.4369,309.75 462.2337,309.125 Q461.2494,308.625 460.5619,307.5625 Q459.8744,306.4844 459.8744,305.2031 L459.8744,304.0469 Q459.8744,302.7188 460.4837,301.5781 Q461.1087,300.4219 462.2025,299.8125 Q463.2962,299.1875 464.5306,299.1875 Q465.265,299.1875 465.9056,299.3594 Q466.5619,299.5156 467.1087,299.875 Z " fill="#000000"/><text fill="#000000" font-family="sans-serif" font-size="14" lengthAdjust="spacing" textLength="94.1514" x="483.3083" y="309.7969">MapRepository</text><line style="stroke:#181818;stroke-width:0.5;" x1="428" x2="601.8027" y1="320" y2="320"/><text fill="#000000" font-family="sans-serif" font-size="14" lengthAdjust="spacing" textLength="112.0479" x="433" y="339.1074">-maps: List&lt;Map&gt;</text><line style="stroke:#181818;stroke-width:0.5;" x1="428" x2="601.8027" y1="346.6211" y2="346.6211"/><text fill="#000000" font-family="sans-serif" font-size="14" lengthAdjust="spacing" textLength="163.8027" x="433" y="365.7285">+addMap(map: Map): void</text><text fill="#000000" font-family="sans-serif" font-size="14" lengthAdjust="spacing" textLength="20.9932" x="433" y="384.3496">...()</text></g><!--link CreateMapUI to CreateMapController--><g id="link_CreateMapUI_CreateMapController"><path codeLine="61" d="M219.23,119.5 C224.72,119.5 232.38,119.5 247.95,119.5 " fill="none" id="CreateMapUI-to-CreateMapController" style="stroke:#181818;stroke-width:1.0;stroke-dasharray:7.0,7.0;"/><polygon fill="#181818" points="253.95,119.5,244.95,115.5,248.95,119.5,244.95,123.5,253.95,119.5" style="stroke:#181818;stroke-width:1.0;"/></g><!--link CreateMapController to Repositories--><g id="link_CreateMapController_Repositories"><path codeLine="63" d="M329.9,208.74 C304.77,232.31 282.5678,253.1369 259.4578,274.7969 " fill="none" id="CreateMapController-to-Repositories" style="stroke:#181818;stroke-width:1.0;stroke-dasharray:7.0,7.0;"/><polygon fill="#181818" points="255.08,278.9,264.382,275.6639,258.7281,275.4808,258.9112,269.8269,255.08,278.9" style="stroke:#181818;stroke-width:1.0;"/></g><!--link CreateMapController to Map--><g id="link_CreateMapController_Map"><path codeLine="64" d="M585.16,30.49 C611.03,16.2 629.5,6 629.5,6 C629.5,6 809.5,6 809.5,6 C809.5,6 819.0616,12.5923 839.4516,26.6623 " fill="none" id="CreateMapController-to-Map" style="stroke:#181818;stroke-width:1.0;stroke-dasharray:7.0,7.0;"/><polygon fill="#181818" points="844.39,30.07,839.2542,21.6662,840.2747,27.2303,834.7106,28.2507,844.39,30.07" style="stroke:#181818;stroke-width:1.0;"/></g><!--link CreateMapController to MapRepository--><g id="link_CreateMapController_MapRepository"><path codeLine="65" d="M460.75,208.74 C471.95,235.63 481.5736,258.741 491.3836,282.301 " fill="none" id="CreateMapController-to-MapRepository" style="stroke:#181818;stroke-width:1.0;stroke-dasharray:7.0,7.0;"/><polygon fill="#181818" points="493.69,287.84,493.9231,277.9939,491.768,283.2242,486.5378,281.069,493.69,287.84" style="stroke:#181818;stroke-width:1.0;"/></g><!--link CreateMapController to Size--><g id="link_CreateMapController_Size"><path codeLine="66" d="M594.06,119.5 C609.18,119.5 620.67,119.5 620.67,119.5 C620.67,119.5 617.71,119.5 622.71,119.5 " fill="none" id="CreateMapController-to-Size" style="stroke:#181818;stroke-width:1.0;stroke-dasharray:7.0,7.0;"/><polygon fill="#181818" points="628.71,119.5,619.71,115.5,623.71,119.5,619.71,123.5,628.71,119.5" style="stroke:#181818;stroke-width:1.0;"/></g><!--link Repositories to Repositories--><g id="link_Repositories_Repositories"><path codeLine="68" d="M313.83,324.32 C334.34,326.51 348.5,331.74 348.5,340 C348.5,348.26 340.3061,352.853 319.7961,355.043 " fill="none" id="Repositories-to-Repositories" style="stroke:#181818;stroke-width:1.0;"/><polygon fill="#181818" points="313.83,355.68,323.2038,358.7018,318.8017,355.1491,322.3544,350.747,313.83,355.68" style="stroke:#181818;stroke-width:1.0;"/><text fill="#000000" font-family="sans-serif" font-size="13" lengthAdjust="spacing" textLength="48.4199" x="354.5" y="345.5283">instance</text><text fill="#000000" font-family="sans-serif" font-size="13" lengthAdjust="spacing" textLength="7.23" x="321.5339" y="353.14">1</text></g><!--SRC=[ZLDDRzim3BthLn2zn4MQOBiQGu2Xso50CmmB-WDKcR65of8XqIsoelzzaYr_2BMB-MIIxv6F5Bbnpr8ttF8QQgEDgAof4SYsoAP8myKpB_5CLuLWKH3NfPe3NCKByofr2HUkt3oYf4QwDWYDKTTWiCr2q5WoCv9GtBdlH5O-jOH7OVHP_aNumjX6uOM035XPLWI536gaqOnr7BYto0bFl7aylZ7mtmuycwnH2cq-XUz7PqHfNWT_3cTVLPVHM-25juf-3S4dOnHotKTvT6UtERmOMKGEQaBx8o6EYFSFEYSXC0YkUVC76-Ca6NlDuJGt9qWNO9szNKgNtKPiYPIaIEHkGGpKB8nWwFyENcL1LGvIqnrK6ART6Ilas6_sNwnUKQ-v27929-DeHgKINPp95juSSPBYFN2FsXjQO63EmKdsjD-L6Nu-vlr-xuSuwWehECW9_wkznlnJE3fccANyNa2NVWiV7yFvUdbNjSlUh-jyLtSpI2mdYx5Kr-nFXRNVJVVeq4SUfADlfz5xw656YBQHMFmES_1dvI9mi2DCc3OiUNn1dyLzrjKqrl4vUH5OsR36wG7LNRv1u27DocON3ll3uaMpfUlQUN2oBKiWZmcxkCPFTsGbGVS4BDdYtG5kljuavSF0-ZLc_m00]--></g></svg>