<svg xmlns="http://www.w3.org/2000/svg" xmlns:xlink="http://www.w3.org/1999/xlink" contentStyleType="text/css" height="1208px" preserveAspectRatio="none" style="width:1322px;height:1208px;background:#FFFFFF;" version="1.1" viewBox="0 0 1322 1208" width="1322px" zoomAndPan="magnify"><title>Sequence Diagram - US01 - Create a Map</title><defs/><g><text fill="#000000" font-family="sans-serif" font-size="14" font-weight="bold" lengthAdjust="spacing" textLength="273.0957" x="523.5896" y="30.1074">Sequence Diagram - US01 - Create a Map</text><rect fill="#FFFFFF" height="974.0703" style="stroke:#181818;stroke-width:1.0;" width="10" x="46.2861" y="133.2422"/><rect fill="#FFFFFF" height="31.291" style="stroke:#181818;stroke-width:1.0;" width="10" x="346.1704" y="156.5332"/><rect fill="#FFFFFF" height="57.582" style="stroke:#181818;stroke-width:1.0;" width="10" x="346.1704" y="219.1152"/><rect fill="#FFFFFF" height="101.873" style="stroke:#181818;stroke-width:1.0;" width="10" x="346.1704" y="307.9883"/><rect fill="#FFFFFF" height="106.2129" style="stroke:#181818;stroke-width:1.0;" width="10" x="346.1704" y="441.1523"/><rect fill="#FFFFFF" height="101.873" style="stroke:#181818;stroke-width:1.0;" width="10" x="346.1704" y="578.6563"/><rect fill="#FFFFFF" height="395.4922" style="stroke:#181818;stroke-width:1.0;" width="10" x="346.1704" y="711.8203"/><rect fill="#FFFFFF" height="325.9102" style="stroke:#181818;stroke-width:1.0;" width="10" x="782.709" y="750.1113"/><rect fill="#FFFFFF" height="31.291" style="stroke:#181818;stroke-width:1.0;" width="10" x="1060.9688" y="950.8574"/><rect fill="#FFFFFF" height="31.291" style="stroke:#181818;stroke-width:1.0;" width="10" x="1149.5513" y="1013.4395"/><rect fill="#FFFFFF" height="31.291" style="stroke:#181818;stroke-width:1.0;" width="10" x="1263.4233" y="825.6934"/><rect fill="#FFFFFF" height="31.291" style="stroke:#181818;stroke-width:1.0;" width="10" x="1263.4233" y="888.2754"/><rect fill="none" height="282.959" style="stroke:#000000;stroke-width:1.5;" width="513.1875" x="10" y="234.1152"/><rect fill="none" height="81.873" style="stroke:#000000;stroke-width:1.5;" width="391.7427" x="20" y="367.2793"/><rect fill="none" height="81.873" style="stroke:#000000;stroke-width:1.5;" width="391.7427" x="20" y="637.9473"/><line style="stroke:#181818;stroke-width:0.5;stroke-dasharray:5.0,5.0;" x1="51" x2="51" y1="123.2422" y2="1125.3125"/><line style="stroke:#181818;stroke-width:0.5;stroke-dasharray:5.0,5.0;" x1="350.5981" x2="350.5981" y1="123.2422" y2="1125.3125"/><line style="stroke:#181818;stroke-width:0.5;stroke-dasharray:5.0,5.0;" x1="786.792" x2="786.792" y1="123.2422" y2="1125.3125"/><line style="stroke:#181818;stroke-width:0.5;stroke-dasharray:5.0,5.0;" x1="1065.4067" x2="1065.4067" y1="123.2422" y2="1125.3125"/><line style="stroke:#181818;stroke-width:0.5;stroke-dasharray:5.0,5.0;" x1="1154.5308" x2="1154.5308" y1="123.2422" y2="1125.3125"/><line style="stroke:#181818;stroke-width:0.5;stroke-dasharray:5.0,5.0;" x1="1267.5718" x2="1267.5718" y1="123.2422" y2="1125.3125"/><text fill="#000000" font-family="sans-serif" font-size="14" lengthAdjust="spacing" textLength="36.5723" x="30" y="119.7285">Editor</text><ellipse cx="51.2861" cy="53.1211" fill="#E2E2F0" rx="8" ry="8" style="stroke:#181818;stroke-width:0.5;"/><path d="M51.2861,61.1211 L51.2861,88.1211 M38.2861,69.1211 L64.2861,69.1211 M51.2861,88.1211 L38.2861,103.1211 M51.2861,88.1211 L64.2861,103.1211 " fill="none" style="stroke:#181818;stroke-width:0.5;"/><text fill="#000000" font-family="sans-serif" font-size="14" lengthAdjust="spacing" textLength="36.5723" x="30" y="1139.4199">Editor</text><ellipse cx="51.2861" cy="1151.4336" fill="#E2E2F0" rx="8" ry="8" style="stroke:#181818;stroke-width:0.5;"/><path d="M51.2861,1159.4336 L51.2861,1186.4336 M38.2861,1167.4336 L64.2861,1167.4336 M51.2861,1186.4336 L38.2861,1201.4336 M51.2861,1186.4336 L64.2861,1201.4336 " fill="none" style="stroke:#181818;stroke-width:0.5;"/><rect fill="#E2E2F0" height="32.6211" rx="2.5" ry="2.5" style="stroke:#181818;stroke-width:0.5;" width="101.1445" x="300.5981" y="89.6211"/><text fill="#000000" font-family="sans-serif" font-size="14" lengthAdjust="spacing" textLength="87.1445" x="307.5981" y="111.7285">:CreateMapUI</text><rect fill="#E2E2F0" height="32.6211" rx="2.5" ry="2.5" style="stroke:#181818;stroke-width:0.5;" width="101.1445" x="300.5981" y="1124.3125"/><text fill="#000000" font-family="sans-serif" font-size="14" lengthAdjust="spacing" textLength="87.1445" x="307.5981" y="1146.4199">:CreateMapUI</text><rect fill="#E2E2F0" height="32.6211" rx="2.5" ry="2.5" style="stroke:#181818;stroke-width:0.5;" width="147.834" x="713.792" y="89.6211"/><text fill="#000000" font-family="sans-serif" font-size="14" lengthAdjust="spacing" textLength="133.834" x="720.792" y="111.7285">:CreateMapController</text><rect fill="#E2E2F0" height="32.6211" rx="2.5" ry="2.5" style="stroke:#181818;stroke-width:0.5;" width="147.834" x="713.792" y="1124.3125"/><text fill="#000000" font-family="sans-serif" font-size="14" lengthAdjust="spacing" textLength="133.834" x="720.792" y="1146.4199">:CreateMapController</text><rect fill="#E2E2F0" height="32.6211" rx="2.5" ry="2.5" style="stroke:#181818;stroke-width:0.5;" width="45.124" x="1043.4067" y="89.6211"/><text fill="#000000" font-family="sans-serif" font-size="14" lengthAdjust="spacing" textLength="31.124" x="1050.4067" y="111.7285">:Map</text><rect fill="#E2E2F0" height="32.6211" rx="2.5" ry="2.5" style="stroke:#181818;stroke-width:0.5;" width="45.124" x="1043.4067" y="1124.3125"/><text fill="#000000" font-family="sans-serif" font-size="14" lengthAdjust="spacing" textLength="31.124" x="1050.4067" y="1146.4199">:Map</text><rect fill="#E2E2F0" height="32.6211" rx="2.5" ry="2.5" style="stroke:#181818;stroke-width:0.5;" width="112.041" x="1098.5308" y="89.6211"/><text fill="#000000" font-family="sans-serif" font-size="14" lengthAdjust="spacing" textLength="98.041" x="1105.5308" y="111.7285">:MapRepository</text><rect fill="#E2E2F0" height="32.6211" rx="2.5" ry="2.5" style="stroke:#181818;stroke-width:0.5;" width="112.041" x="1098.5308" y="1124.3125"/><text fill="#000000" font-family="sans-serif" font-size="14" lengthAdjust="spacing" textLength="98.041" x="1105.5308" y="1146.4199">:MapRepository</text><rect fill="#E2E2F0" height="32.6211" rx="2.5" ry="2.5" style="stroke:#181818;stroke-width:0.5;" width="95.7031" x="1220.5718" y="89.6211"/><text fill="#000000" font-family="sans-serif" font-size="14" lengthAdjust="spacing" textLength="81.7031" x="1227.5718" y="111.7285">:Repositories</text><rect fill="#E2E2F0" height="32.6211" rx="2.5" ry="2.5" style="stroke:#181818;stroke-width:0.5;" width="95.7031" x="1220.5718" y="1124.3125"/><text fill="#000000" font-family="sans-serif" font-size="14" lengthAdjust="spacing" textLength="81.7031" x="1227.5718" y="1146.4199">:Repositories</text><rect fill="#FFFFFF" height="974.0703" style="stroke:#181818;stroke-width:1.0;" width="10" x="46.2861" y="133.2422"/><rect fill="#FFFFFF" height="31.291" style="stroke:#181818;stroke-width:1.0;" width="10" x="346.1704" y="156.5332"/><rect fill="#FFFFFF" height="57.582" style="stroke:#181818;stroke-width:1.0;" width="10" x="346.1704" y="219.1152"/><rect fill="#FFFFFF" height="101.873" style="stroke:#181818;stroke-width:1.0;" width="10" x="346.1704" y="307.9883"/><rect fill="#FFFFFF" height="106.2129" style="stroke:#181818;stroke-width:1.0;" width="10" x="346.1704" y="441.1523"/><rect fill="#FFFFFF" height="101.873" style="stroke:#181818;stroke-width:1.0;" width="10" x="346.1704" y="578.6563"/><rect fill="#FFFFFF" height="395.4922" style="stroke:#181818;stroke-width:1.0;" width="10" x="346.1704" y="711.8203"/><rect fill="#FFFFFF" height="325.9102" style="stroke:#181818;stroke-width:1.0;" width="10" x="782.709" y="750.1113"/><rect fill="#FFFFFF" height="31.291" style="stroke:#181818;stroke-width:1.0;" width="10" x="1060.9688" y="950.8574"/><rect fill="#FFFFFF" height="31.291" style="stroke:#181818;stroke-width:1.0;" width="10" x="1149.5513" y="1013.4395"/><rect fill="#FFFFFF" height="31.291" style="stroke:#181818;stroke-width:1.0;" width="10" x="1263.4233" y="825.6934"/><rect fill="#FFFFFF" height="31.291" style="stroke:#181818;stroke-width:1.0;" width="10" x="1263.4233" y="888.2754"/><polygon fill="#181818" points="334.1704,152.5332,344.1704,156.5332,334.1704,160.5332,338.1704,156.5332" style="stroke:#181818;stroke-width:1.0;"/><line style="stroke:#181818;stroke-width:1.0;" x1="56.2861" x2="340.1704" y1="156.5332" y2="156.5332"/><text fill="#000000" font-family="sans-serif" font-size="13" lengthAdjust="spacing" textLength="148.8652" x="63.2861" y="151.2705">1. Run Create Map option</text><polygon fill="#181818" points="67.2861,183.8242,57.2861,187.8242,67.2861,191.8242,63.2861,187.8242" style="stroke:#181818;stroke-width:1.0;"/><line style="stroke:#181818;stroke-width:1.0;stroke-dasharray:2.0,2.0;" x1="61.2861" x2="350.1704" y1="187.8242" y2="187.8242"/><text fill="#000000" font-family="sans-serif" font-size="13" lengthAdjust="spacing" textLength="174.8716" x="73.2861" y="182.5615">2. Display name options menu</text><polygon fill="#181818" points="334.1704,215.1152,344.1704,219.1152,334.1704,223.1152,338.1704,219.1152" style="stroke:#181818;stroke-width:1.0;"/><line style="stroke:#181818;stroke-width:1.0;" x1="56.2861" x2="340.1704" y1="219.1152" y2="219.1152"/><text fill="#000000" font-family="sans-serif" font-size="13" lengthAdjust="spacing" textLength="125.7471" x="63.2861" y="213.8525">3. Select name option</text><path d="M10,234.1152 L70.1709,234.1152 L70.1709,243.4063 L60.1709,253.4063 L10,253.4063 L10,234.1152 " fill="#EEEEEE" style="stroke:#000000;stroke-width:1.5;"/><rect fill="none" height="282.959" style="stroke:#000000;stroke-width:1.5;" width="513.1875" x="10" y="234.1152"/><text fill="#000000" font-family="sans-serif" font-size="13" font-weight="bold" lengthAdjust="spacing" textLength="15.1709" x="25" y="249.1436">alt</text><text fill="#000000" font-family="sans-serif" font-size="11" font-weight="bold" lengthAdjust="spacing" textLength="109.4092" x="85.1709" y="247.9854">[Enter custom name]</text><polygon fill="#181818" points="67.2861,272.6973,57.2861,276.6973,67.2861,280.6973,63.2861,276.6973" style="stroke:#181818;stroke-width:1.0;"/><line style="stroke:#181818;stroke-width:1.0;stroke-dasharray:2.0,2.0;" x1="61.2861" x2="350.1704" y1="276.6973" y2="276.6973"/><text fill="#000000" font-family="sans-serif" font-size="13" lengthAdjust="spacing" textLength="265.8843" x="73.2861" y="271.4346">4. Prompt for map name (with validation rules)</text><polygon fill="#181818" points="334.1704,303.9883,344.1704,307.9883,334.1704,311.9883,338.1704,307.9883" style="stroke:#181818;stroke-width:1.0;"/><line style="stroke:#181818;stroke-width:1.0;" x1="56.2861" x2="340.1704" y1="307.9883" y2="307.9883"/><text fill="#000000" font-family="sans-serif" font-size="13" lengthAdjust="spacing" textLength="110.5571" x="63.2861" y="302.7256">5. Enter map name</text><line style="stroke:#181818;stroke-width:1.0;" x1="356.1704" x2="398.1704" y1="339.2793" y2="339.2793"/><line style="stroke:#181818;stroke-width:1.0;" x1="398.1704" x2="398.1704" y1="339.2793" y2="352.2793"/><line style="stroke:#181818;stroke-width:1.0;" x1="357.1704" x2="398.1704" y1="352.2793" y2="352.2793"/><polygon fill="#181818" points="367.1704,348.2793,357.1704,352.2793,367.1704,356.2793,363.1704,352.2793" style="stroke:#181818;stroke-width:1.0;"/><text fill="#000000" font-family="sans-serif" font-size="13" lengthAdjust="spacing" textLength="138.0171" x="363.1704" y="334.0166">6. Validate name format</text><path d="M20,367.2793 L80.1709,367.2793 L80.1709,376.5703 L70.1709,386.5703 L20,386.5703 L20,367.2793 " fill="#EEEEEE" style="stroke:#000000;stroke-width:1.5;"/><rect fill="none" height="81.873" style="stroke:#000000;stroke-width:1.5;" width="391.7427" x="20" y="367.2793"/><text fill="#000000" font-family="sans-serif" font-size="13" font-weight="bold" lengthAdjust="spacing" textLength="15.1709" x="35" y="382.3076">alt</text><text fill="#000000" font-family="sans-serif" font-size="11" font-weight="bold" lengthAdjust="spacing" textLength="73.96" x="95.1709" y="381.1494">[Invalid name]</text><polygon fill="#181818" points="67.2861,405.8613,57.2861,409.8613,67.2861,413.8613,63.2861,409.8613" style="stroke:#181818;stroke-width:1.0;"/><line style="stroke:#181818;stroke-width:1.0;stroke-dasharray:2.0,2.0;" x1="61.2861" x2="350.1704" y1="409.8613" y2="409.8613"/><text fill="#000000" font-family="sans-serif" font-size="13" lengthAdjust="spacing" textLength="141.6226" x="73.2861" y="404.5986">6.1 Show error message</text><polygon fill="#181818" points="334.1704,437.1523,344.1704,441.1523,334.1704,445.1523,338.1704,441.1523" style="stroke:#181818;stroke-width:1.0;"/><line style="stroke:#181818;stroke-width:1.0;" x1="56.2861" x2="340.1704" y1="441.1523" y2="441.1523"/><text fill="#000000" font-family="sans-serif" font-size="13" lengthAdjust="spacing" textLength="108.3926" x="63.2861" y="435.8896">6.2 Re-enter name</text><line style="stroke:#000000;stroke-width:1.0;stroke-dasharray:2.0,2.0;" x1="10" x2="523.1875" y1="457.1523" y2="457.1523"/><text fill="#000000" font-family="sans-serif" font-size="11" font-weight="bold" lengthAdjust="spacing" textLength="98.4092" x="15" y="469.0225">[Use default name]</text><line style="stroke:#181818;stroke-width:1.0;" x1="356.1704" x2="398.1704" y1="496.0742" y2="496.0742"/><line style="stroke:#181818;stroke-width:1.0;" x1="398.1704" x2="398.1704" y1="496.0742" y2="509.0742"/><line style="stroke:#181818;stroke-width:1.0;" x1="357.1704" x2="398.1704" y1="509.0742" y2="509.0742"/><polygon fill="#181818" points="367.1704,505.0742,357.1704,509.0742,367.1704,513.0742,363.1704,509.0742" style="stroke:#181818;stroke-width:1.0;"/><text fill="#000000" font-family="sans-serif" font-size="13" lengthAdjust="spacing" textLength="112.7407" x="363.1704" y="490.8115">7. Set default name</text><polygon fill="#181818" points="67.2861,543.3652,57.2861,547.3652,67.2861,551.3652,63.2861,547.3652" style="stroke:#181818;stroke-width:1.0;"/><line style="stroke:#181818;stroke-width:1.0;stroke-dasharray:2.0,2.0;" x1="61.2861" x2="350.1704" y1="547.3652" y2="547.3652"/><text fill="#000000" font-family="sans-serif" font-size="13" lengthAdjust="spacing" textLength="144.5044" x="73.2861" y="542.1025">8. Prompt for dimensions</text><polygon fill="#181818" points="334.1704,574.6563,344.1704,578.6563,334.1704,582.6563,338.1704,578.6563" style="stroke:#181818;stroke-width:1.0;"/><line style="stroke:#181818;stroke-width:1.0;" x1="56.2861" x2="340.1704" y1="578.6563" y2="578.6563"/><text fill="#000000" font-family="sans-serif" font-size="13" lengthAdjust="spacing" textLength="143.8188" x="63.2861" y="573.3936">9. Enter width and height</text><line style="stroke:#181818;stroke-width:1.0;" x1="356.1704" x2="398.1704" y1="609.9473" y2="609.9473"/><line style="stroke:#181818;stroke-width:1.0;" x1="398.1704" x2="398.1704" y1="609.9473" y2="622.9473"/><line style="stroke:#181818;stroke-width:1.0;" x1="357.1704" x2="398.1704" y1="622.9473" y2="622.9473"/><polygon fill="#181818" points="367.1704,618.9473,357.1704,622.9473,367.1704,626.9473,363.1704,622.9473" style="stroke:#181818;stroke-width:1.0;"/><text fill="#000000" font-family="sans-serif" font-size="13" lengthAdjust="spacing" textLength="138.0298" x="363.1704" y="604.6846">10. Validate dimensions</text><path d="M20,637.9473 L80.1709,637.9473 L80.1709,647.2383 L70.1709,657.2383 L20,657.2383 L20,637.9473 " fill="#EEEEEE" style="stroke:#000000;stroke-width:1.5;"/><rect fill="none" height="81.873" style="stroke:#000000;stroke-width:1.5;" width="391.7427" x="20" y="637.9473"/><text fill="#000000" font-family="sans-serif" font-size="13" font-weight="bold" lengthAdjust="spacing" textLength="15.1709" x="35" y="652.9756">alt</text><text fill="#000000" font-family="sans-serif" font-size="11" font-weight="bold" lengthAdjust="spacing" textLength="106.3477" x="95.1709" y="651.8174">[Invalid dimensions]</text><polygon fill="#181818" points="67.2861,676.5293,57.2861,680.5293,67.2861,684.5293,63.2861,680.5293" style="stroke:#181818;stroke-width:1.0;"/><line style="stroke:#181818;stroke-width:1.0;stroke-dasharray:2.0,2.0;" x1="61.2861" x2="350.1704" y1="680.5293" y2="680.5293"/><text fill="#000000" font-family="sans-serif" font-size="13" lengthAdjust="spacing" textLength="148.8525" x="73.2861" y="675.2666">10.1 Show error message</text><polygon fill="#181818" points="334.1704,707.8203,344.1704,711.8203,334.1704,715.8203,338.1704,711.8203" style="stroke:#181818;stroke-width:1.0;"/><line style="stroke:#181818;stroke-width:1.0;" x1="56.2861" x2="340.1704" y1="711.8203" y2="711.8203"/><text fill="#000000" font-family="sans-serif" font-size="13" lengthAdjust="spacing" textLength="148.8589" x="63.2861" y="706.5576">10.2 Re-enter dimensions</text><polygon fill="#181818" points="770.709,746.1113,780.709,750.1113,770.709,754.1113,774.709,750.1113" style="stroke:#181818;stroke-width:1.0;"/><line style="stroke:#181818;stroke-width:1.0;" x1="356.1704" x2="776.709" y1="750.1113" y2="750.1113"/><text fill="#000000" font-family="sans-serif" font-size="13" lengthAdjust="spacing" textLength="407.5386" x="363.1704" y="744.8486">11. createMap(name, width, height) or createMapDefault(width, height)</text><line style="stroke:#181818;stroke-width:1.0;" x1="792.709" x2="834.709" y1="781.4023" y2="781.4023"/><line style="stroke:#181818;stroke-width:1.0;" x1="834.709" x2="834.709" y1="781.4023" y2="794.4023"/><line style="stroke:#181818;stroke-width:1.0;" x1="793.709" x2="834.709" y1="794.4023" y2="794.4023"/><polygon fill="#181818" points="803.709,790.4023,793.709,794.4023,803.709,798.4023,799.709,794.4023" style="stroke:#181818;stroke-width:1.0;"/><text fill="#000000" font-family="sans-serif" font-size="13" lengthAdjust="spacing" textLength="106.9644" x="799.709" y="776.1396">12. Validate inputs</text><polygon fill="#181818" points="1251.4233,821.6934,1261.4233,825.6934,1251.4233,829.6934,1255.4233,825.6934" style="stroke:#181818;stroke-width:1.0;"/><line style="stroke:#181818;stroke-width:1.0;" x1="792.709" x2="1257.4233" y1="825.6934" y2="825.6934"/><text fill="#000000" font-family="sans-serif" font-size="13" lengthAdjust="spacing" textLength="97.5571" x="799.709" y="820.4307">13. getInstance()</text><polygon fill="#181818" points="803.709,852.9844,793.709,856.9844,803.709,860.9844,799.709,856.9844" style="stroke:#181818;stroke-width:1.0;"/><line style="stroke:#181818;stroke-width:1.0;stroke-dasharray:2.0,2.0;" x1="797.709" x2="1267.4233" y1="856.9844" y2="856.9844"/><text fill="#000000" font-family="sans-serif" font-size="13" lengthAdjust="spacing" textLength="145.9707" x="809.709" y="851.7217">14. Repositories instance</text><polygon fill="#181818" points="1251.4233,884.2754,1261.4233,888.2754,1251.4233,892.2754,1255.4233,888.2754" style="stroke:#181818;stroke-width:1.0;"/><line style="stroke:#181818;stroke-width:1.0;" x1="792.709" x2="1257.4233" y1="888.2754" y2="888.2754"/><text fill="#000000" font-family="sans-serif" font-size="13" lengthAdjust="spacing" textLength="135.8398" x="799.709" y="883.0127">15. getMapRepository()</text><polygon fill="#181818" points="803.709,915.5664,793.709,919.5664,803.709,923.5664,799.709,919.5664" style="stroke:#181818;stroke-width:1.0;"/><line style="stroke:#181818;stroke-width:1.0;stroke-dasharray:2.0,2.0;" x1="797.709" x2="1267.4233" y1="919.5664" y2="919.5664"/><text fill="#000000" font-family="sans-serif" font-size="13" lengthAdjust="spacing" textLength="161.1416" x="809.709" y="914.3037">16. MapRepository instance</text><polygon fill="#181818" points="1048.9688,946.8574,1058.9688,950.8574,1048.9688,954.8574,1052.9688,950.8574" style="stroke:#181818;stroke-width:1.0;"/><line style="stroke:#181818;stroke-width:1.0;" x1="792.709" x2="1054.9688" y1="950.8574" y2="950.8574"/><text fill="#000000" font-family="sans-serif" font-size="13" lengthAdjust="spacing" textLength="249.2598" x="799.709" y="945.5947">17. new Map(name, size) or new Map(size)</text><polygon fill="#181818" points="803.709,978.1484,793.709,982.1484,803.709,986.1484,799.709,982.1484" style="stroke:#181818;stroke-width:1.0;"/><line style="stroke:#181818;stroke-width:1.0;stroke-dasharray:2.0,2.0;" x1="797.709" x2="1064.9688" y1="982.1484" y2="982.1484"/><text fill="#000000" font-family="sans-serif" font-size="13" lengthAdjust="spacing" textLength="99.0044" x="809.709" y="976.8857">18. Map instance</text><polygon fill="#181818" points="1137.5513,1009.4395,1147.5513,1013.4395,1137.5513,1017.4395,1141.5513,1013.4395" style="stroke:#181818;stroke-width:1.0;"/><line style="stroke:#181818;stroke-width:1.0;" x1="792.709" x2="1143.5513" y1="1013.4395" y2="1013.4395"/><text fill="#000000" font-family="sans-serif" font-size="13" lengthAdjust="spacing" textLength="102.6099" x="799.709" y="1008.1768">19. addMap(map)</text><polygon fill="#181818" points="803.709,1040.7305,793.709,1044.7305,803.709,1048.7305,799.709,1044.7305" style="stroke:#181818;stroke-width:1.0;"/><line style="stroke:#181818;stroke-width:1.0;stroke-dasharray:2.0,2.0;" x1="797.709" x2="1153.5513" y1="1044.7305" y2="1044.7305"/><text fill="#000000" font-family="sans-serif" font-size="13" lengthAdjust="spacing" textLength="95.3799" x="809.709" y="1039.4678">20. Confirmation</text><polygon fill="#181818" points="367.1704,1072.0215,357.1704,1076.0215,367.1704,1080.0215,363.1704,1076.0215" style="stroke:#181818;stroke-width:1.0;"/><line style="stroke:#181818;stroke-width:1.0;stroke-dasharray:2.0,2.0;" x1="361.1704" x2="786.709" y1="1076.0215" y2="1076.0215"/><text fill="#000000" font-family="sans-serif" font-size="13" lengthAdjust="spacing" textLength="93.9453" x="373.1704" y="1070.7588">21. Map created</text><polygon fill="#181818" points="62.2861,1103.3125,52.2861,1107.3125,62.2861,1111.3125,58.2861,1107.3125" style="stroke:#181818;stroke-width:1.0;"/><line style="stroke:#181818;stroke-width:1.0;stroke-dasharray:2.0,2.0;" x1="56.2861" x2="350.1704" y1="1107.3125" y2="1107.3125"/><text fill="#000000" font-family="sans-serif" font-size="13" lengthAdjust="spacing" textLength="171.2407" x="68.2861" y="1102.0498">22. Display success message</text><!--SRC=[fPLDRzim38Rl_XL4JodG64ssVYo7NjeUSXWmDCZkWiKa0cpPa-G6tQyV9Tknb4Z6rWK814lYguSYHRB2r0fUkQ0XQvWoeX0DamQkLiyAcS7lhDckhu1fyBvJEvzhQLHTbgX2Yt7-p9BMt4uQBrVUiAcr1ViOzempPxjF2mArs-nFP9aHfiGLRF1NYx90U15ihrW5SzXkRXSqTAJ074Z62YFUxNT_Bratmlp9lmHOmIA7jrOErZGBTMD4BKS5_z8ottXEOhti2fOv8UccP1yWMOMzYeOAPPjnZAgbcBxav6U9XV6bua2iDF0g3IeeMctgobbaGByawTSSVgYwQWpiwBiYZzqfiwCm1tXdfU3CdWUgBL5VEwq4lrrA-N2Nzrp30MvtKYQWFTUwp-5dnuKTAu5Np7IAT05hwR37OoRzlyyNi3dKHq2bx0MWrcm_satuEkNlVRwaZ9sZypa0ISgXv1cM6c5BVuuxrfOc4R_pqnviXfZGoCgby_CnY3eNb9VQ9kY_vkQt8Qv7mIbVcEHmGB4_c7X-JdgnkFK2wo7vCVMc9wDAMicmVY9zISwBvnb4LEto-fzYrTDgKyqfXfMPZTrDTvit_LLU0o6TThnqGPw5MoBNxPNeB7Po6cZfnK78fZKw9U0NPMj9fMgFPYsrOLILPnvMKBu3itaQX6fJi5NqmdwMXdtXBpdl76VGV_uRbifI8FXvMjjsI91UjSGZZ5cXnMzqoJ1CkuaHsxOwQpi1-UWWesYkKQQ9FCT8XzuzuzmoK44F4RoM7fgbiPRqycbY9smTjyqjnF8Kuu0NxtMvwFpiNWsFLhNe-xZeuruZrsrHK1avrP947V7dEvq_]--></g></svg>