<svg xmlns="http://www.w3.org/2000/svg" xmlns:xlink="http://www.w3.org/1999/xlink" contentStyleType="text/css" height="446.4px" preserveAspectRatio="none" style="width:922px;height:446px;background:#FFFFFF;" version="1.1" viewBox="0 0 922 446" width="922.8px" zoomAndPan="magnify"><defs/><g><rect fill="#FFFFFF" height="18" style="stroke:#181818;stroke-width:0.6;" width="6" x="28.8032" y="323.8746"/><rect fill="#FFFFFF" height="18" style="stroke:#181818;stroke-width:0.6;" width="6" x="28.8032" y="360.6609"/><rect fill="#FFFFFF" height="209.4363" style="stroke:#181818;stroke-width:0.6;" width="6" x="437.5497" y="82.2656"/><rect fill="#FFFFFF" height="153.6773" style="stroke:#181818;stroke-width:0.6;" width="6" x="666.5508" y="125.2383"/><rect fill="#FFFFFF" height="42.9727" style="stroke:#181818;stroke-width:0.6;" width="6" x="794.4146" y="157.4109"/><rect fill="none" height="328.568" style="stroke:#000000;stroke-width:0.8999999999999999;" width="897.0073" x="6" y="59.093"/><rect fill="none" height="140.4773" style="stroke:#000000;stroke-width:0.8999999999999999;" width="513.3108" x="383.6965" y="134.2383"/><rect fill="none" height="82.759" style="stroke:#000000;stroke-width:0.8999999999999999;" width="252.2511" x="12" y="300.702"/><line style="stroke:#181818;stroke-width:0.3;stroke-dasharray:5.0,5.0;" x1="31.8" x2="31.8" y1="48.893" y2="397.8609"/><line style="stroke:#181818;stroke-width:0.3;stroke-dasharray:5.0,5.0;" x1="223.4013" x2="223.4013" y1="48.893" y2="397.8609"/><line style="stroke:#181818;stroke-width:0.3;stroke-dasharray:5.0,5.0;" x1="440.0965" x2="440.0965" y1="48.893" y2="397.8609"/><line style="stroke:#181818;stroke-width:0.3;stroke-dasharray:5.0,5.0;" x1="669.1887" x2="669.1887" y1="48.893" y2="397.8609"/><line style="stroke:#181818;stroke-width:0.3;stroke-dasharray:5.0,5.0;" x1="797.3566" x2="797.3566" y1="48.893" y2="397.8609"/><line style="stroke:#181818;stroke-width:0.3;stroke-dasharray:5.0,5.0;" x1="896.9871" x2="896.9871" y1="48.893" y2="397.8609"/><text fill="#000000" font-family="sans-serif" font-size="8.4" lengthAdjust="spacing" textLength="24.0064" x="18" y="47.1211">Editor</text><ellipse cx="31.8032" cy="8.1" fill="#E2E2F0" rx="4.8" ry="4.8" style="stroke:#181818;stroke-width:0.3;"/><path d="M31.8032,12.9 L31.8032,29.1 M24.0032,17.7 L39.6032,17.7 M31.8032,29.1 L24.0032,38.1 M31.8032,29.1 L39.6032,38.1 " fill="none" style="stroke:#181818;stroke-width:0.3;"/><text fill="#000000" font-family="sans-serif" font-size="8.4" lengthAdjust="spacing" textLength="24.0064" x="18" y="405.382">Editor</text><ellipse cx="31.8032" cy="412.2539" fill="#E2E2F0" rx="4.8" ry="4.8" style="stroke:#181818;stroke-width:0.3;"/><path d="M31.8032,417.0539 L31.8032,433.2539 M24.0032,421.8539 L39.6032,421.8539 M31.8032,433.2539 L24.0032,442.2539 M31.8032,433.2539 L39.6032,442.2539 " fill="none" style="stroke:#181818;stroke-width:0.3;"/><rect fill="#E2E2F0" height="18.293" rx="1.5" ry="1.5" style="stroke:#181818;stroke-width:0.3;" width="69.0498" x="189.2013" y="30"/><text fill="#000000" font-family="sans-serif" font-size="8.4" lengthAdjust="spacing" textLength="60.6498" x="193.4013" y="42.3211">:AddIndustryUI</text><rect fill="#E2E2F0" height="18.293" rx="1.5" ry="1.5" style="stroke:#181818;stroke-width:0.3;" width="69.0498" x="189.2013" y="397.2609"/><text fill="#000000" font-family="sans-serif" font-size="8.4" lengthAdjust="spacing" textLength="60.6498" x="193.4013" y="409.582">:AddIndustryUI</text><rect fill="#E2E2F0" height="18.293" rx="1.5" ry="1.5" style="stroke:#181818;stroke-width:0.3;" width="101.7064" x="389.6965" y="30"/><text fill="#000000" font-family="sans-serif" font-size="8.4" lengthAdjust="spacing" textLength="93.3064" x="393.8965" y="42.3211">:AddIndustryController</text><rect fill="#E2E2F0" height="18.293" rx="1.5" ry="1.5" style="stroke:#181818;stroke-width:0.3;" width="101.7064" x="389.6965" y="397.2609"/><text fill="#000000" font-family="sans-serif" font-size="8.4" lengthAdjust="spacing" textLength="93.3064" x="393.8965" y="409.582">:AddIndustryController</text><rect fill="#E2E2F0" height="28.1859" rx="1.5" ry="1.5" style="stroke:#181818;stroke-width:0.3;" width="49.9242" x="644.5887" y="20.107"/><text fill="#000000" font-family="sans-serif" font-size="8.4" lengthAdjust="spacing" textLength="41.5242" x="648.7887" y="32.4281">actualMap</text><text fill="#000000" font-family="sans-serif" font-size="8.4" lengthAdjust="spacing" textLength="19.8187" x="659.6414" y="42.3211">:Map</text><rect fill="#E2E2F0" height="28.1859" rx="1.5" ry="1.5" style="stroke:#181818;stroke-width:0.3;" width="49.9242" x="644.5887" y="397.2609"/><text fill="#000000" font-family="sans-serif" font-size="8.4" lengthAdjust="spacing" textLength="41.5242" x="648.7887" y="409.582">actualMap</text><text fill="#000000" font-family="sans-serif" font-size="8.4" lengthAdjust="spacing" textLength="19.8187" x="659.6414" y="419.475">:Map</text><rect fill="#E2E2F0" height="28.1859" rx="1.5" ry="1.5" style="stroke:#181818;stroke-width:0.3;" width="87.716" x="753.5566" y="20.107"/><text fill="#000000" font-family="sans-serif" font-size="8.4" lengthAdjust="spacing" textLength="76.6664" x="759.0814" y="32.4281">industryRepository</text><text fill="#000000" font-family="sans-serif" font-size="8.4" lengthAdjust="spacing" textLength="79.316" x="757.7566" y="42.3211">:IndustryRepository</text><rect fill="#E2E2F0" height="28.1859" rx="1.5" ry="1.5" style="stroke:#181818;stroke-width:0.3;" width="87.716" x="753.5566" y="397.2609"/><text fill="#000000" font-family="sans-serif" font-size="8.4" lengthAdjust="spacing" textLength="76.6664" x="759.0814" y="409.582">industryRepository</text><text fill="#000000" font-family="sans-serif" font-size="8.4" lengthAdjust="spacing" textLength="79.316" x="757.7566" y="419.475">:IndustryRepository</text><rect fill="#E2E2F0" height="28.1859" rx="1.5" ry="1.5" style="stroke:#181818;stroke-width:0.3;" width="44.4404" x="874.7871" y="20.107"/><text fill="#000000" font-family="sans-serif" font-size="8.4" lengthAdjust="spacing" textLength="33.3908" x="880.3119" y="32.4281">industry</text><text fill="#000000" font-family="sans-serif" font-size="8.4" lengthAdjust="spacing" textLength="36.0404" x="878.9871" y="42.3211">:Industry</text><rect fill="#E2E2F0" height="28.1859" rx="1.5" ry="1.5" style="stroke:#181818;stroke-width:0.3;" width="44.4404" x="874.7871" y="397.2609"/><text fill="#000000" font-family="sans-serif" font-size="8.4" lengthAdjust="spacing" textLength="33.3908" x="880.3119" y="409.582">industry</text><text fill="#000000" font-family="sans-serif" font-size="8.4" lengthAdjust="spacing" textLength="36.0404" x="878.9871" y="419.475">:Industry</text><rect fill="#FFFFFF" height="18" style="stroke:#181818;stroke-width:0.6;" width="6" x="28.8032" y="323.8746"/><rect fill="#FFFFFF" height="18" style="stroke:#181818;stroke-width:0.6;" width="6" x="28.8032" y="360.6609"/><rect fill="#FFFFFF" height="209.4363" style="stroke:#181818;stroke-width:0.6;" width="6" x="437.5497" y="82.2656"/><rect fill="#FFFFFF" height="153.6773" style="stroke:#181818;stroke-width:0.6;" width="6" x="666.5508" y="125.2383"/><rect fill="#FFFFFF" height="42.9727" style="stroke:#181818;stroke-width:0.6;" width="6" x="794.4146" y="157.4109"/><path d="M6,59.093 L115.4332,59.093 L115.4332,63.4793 L109.4332,69.4793 L6,69.4793 L6,59.093 " fill="#EEEEEE" style="stroke:#000000;stroke-width:0.8999999999999999;"/><rect fill="none" height="328.568" style="stroke:#000000;stroke-width:0.8999999999999999;" width="897.0073" x="6" y="59.093"/><text fill="#000000" font-family="sans-serif" font-size="7.8" font-weight="bold" lengthAdjust="spacing" textLength="82.4332" x="15" y="67.234">Add Industry to Map</text><polygon fill="#181818" points="430.3497,79.8656,436.3497,82.2656,430.3497,84.6656,432.7497,82.2656" style="stroke:#181818;stroke-width:0.6;"/><line style="stroke:#181818;stroke-width:0.6;" x1="223.7262" x2="433.9497" y1="82.2656" y2="82.2656"/><text fill="#000000" font-family="sans-serif" font-size="7.8" font-weight="bold" lengthAdjust="spacing" textLength="5.1454" x="227.9262" y="79.4203">1</text><text fill="#000000" font-family="sans-serif" font-size="7.8" lengthAdjust="spacing" textLength="194.8781" x="235.4716" y="79.4203">addIndustry(industryTypeDesc, industryName, X, Y)</text><line style="stroke:#181818;stroke-width:0.6;" x1="443.5497" x2="468.7497" y1="99.852" y2="99.852"/><line style="stroke:#181818;stroke-width:0.6;" x1="468.7497" x2="468.7497" y1="99.852" y2="107.652"/><line style="stroke:#181818;stroke-width:0.6;" x1="444.1497" x2="468.7497" y1="107.652" y2="107.652"/><polygon fill="#181818" points="450.1497,105.252,444.1497,107.652,450.1497,110.052,447.7497,107.652" style="stroke:#181818;stroke-width:0.6;"/><text fill="#000000" font-family="sans-serif" font-size="7.8" font-weight="bold" lengthAdjust="spacing" textLength="5.1454" x="447.7497" y="97.0066">2</text><text fill="#000000" font-family="sans-serif" font-size="7.8" lengthAdjust="spacing" textLength="201.0557" x="455.2951" y="97.0066">create Industry object (Primary/Mixed/Transforming)</text><polygon fill="#181818" points="659.3508,122.8383,665.3508,125.2383,659.3508,127.6383,661.7508,125.2383" style="stroke:#181818;stroke-width:0.6;"/><line style="stroke:#181818;stroke-width:0.6;" x1="443.5497" x2="662.9508" y1="125.2383" y2="125.2383"/><text fill="#000000" font-family="sans-serif" font-size="7.8" font-weight="bold" lengthAdjust="spacing" textLength="5.1454" x="447.7497" y="122.393">3</text><text fill="#000000" font-family="sans-serif" font-size="7.8" lengthAdjust="spacing" textLength="80.4185" x="455.2951" y="122.393">addElement(industry)</text><path d="M383.6965,134.2383 L420.9797,134.2383 L420.9797,138.6246 L414.9797,144.6246 L383.6965,144.6246 L383.6965,134.2383 " fill="#EEEEEE" style="stroke:#000000;stroke-width:0.8999999999999999;"/><rect fill="none" height="140.4773" style="stroke:#000000;stroke-width:0.8999999999999999;" width="513.3108" x="383.6965" y="134.2383"/><text fill="#000000" font-family="sans-serif" font-size="7.8" font-weight="bold" lengthAdjust="spacing" textLength="10.2832" x="392.6965" y="142.3793">alt</text><text fill="#000000" font-family="sans-serif" font-size="6.6" font-weight="bold" lengthAdjust="spacing" textLength="31.3146" x="429.9797" y="141.8191">[success]</text><polygon fill="#181818" points="787.2146,155.0109,793.2146,157.4109,787.2146,159.8109,789.6146,157.4109" style="stroke:#181818;stroke-width:0.6;"/><line style="stroke:#181818;stroke-width:0.6;stroke-dasharray:2.0,2.0;" x1="672.5508" x2="790.8146" y1="157.4109" y2="157.4109"/><text fill="#000000" font-family="sans-serif" font-size="7.8" font-weight="bold" lengthAdjust="spacing" textLength="5.1454" x="676.7508" y="154.5656">4</text><text fill="#000000" font-family="sans-serif" font-size="7.8" lengthAdjust="spacing" textLength="81.203" x="684.2962" y="154.5656">addIndustry(industry)</text><line style="stroke:#181818;stroke-width:0.6;" x1="800.4146" x2="825.6146" y1="174.9973" y2="174.9973"/><line style="stroke:#181818;stroke-width:0.6;" x1="825.6146" x2="825.6146" y1="174.9973" y2="182.7973"/><line style="stroke:#181818;stroke-width:0.6;" x1="801.0146" x2="825.6146" y1="182.7973" y2="182.7973"/><polygon fill="#181818" points="807.0146,180.3973,801.0146,182.7973,807.0146,185.1973,804.6146,182.7973" style="stroke:#181818;stroke-width:0.6;"/><text fill="#000000" font-family="sans-serif" font-size="7.8" font-weight="bold" lengthAdjust="spacing" textLength="5.1454" x="804.6146" y="172.152">5</text><text fill="#000000" font-family="sans-serif" font-size="7.8" lengthAdjust="spacing" textLength="71.6473" x="812.1601" y="172.152">add industry to list</text><polygon fill="#181818" points="679.1508,197.9836,673.1508,200.3836,679.1508,202.7836,676.7508,200.3836" style="stroke:#181818;stroke-width:0.6;"/><line style="stroke:#181818;stroke-width:0.6;stroke-dasharray:2.0,2.0;" x1="675.5508" x2="796.8146" y1="200.3836" y2="200.3836"/><text fill="#000000" font-family="sans-serif" font-size="7.8" font-weight="bold" lengthAdjust="spacing" textLength="5.1454" x="682.7508" y="197.5383">6</text><text fill="#000000" font-family="sans-serif" font-size="7.8" lengthAdjust="spacing" textLength="48.3349" x="690.2962" y="197.5383">confirmation</text><line style="stroke:#181818;stroke-width:0.6;" x1="672.5508" x2="697.7508" y1="217.9699" y2="217.9699"/><line style="stroke:#181818;stroke-width:0.6;" x1="697.7508" x2="697.7508" y1="217.9699" y2="225.7699"/><line style="stroke:#181818;stroke-width:0.6;" x1="673.1508" x2="697.7508" y1="225.7699" y2="225.7699"/><polygon fill="#181818" points="679.1508,223.3699,673.1508,225.7699,679.1508,228.1699,676.7508,225.7699" style="stroke:#181818;stroke-width:0.6;"/><text fill="#000000" font-family="sans-serif" font-size="7.8" font-weight="bold" lengthAdjust="spacing" textLength="5.1454" x="676.7508" y="215.1246">7</text><text fill="#000000" font-family="sans-serif" font-size="7.8" lengthAdjust="spacing" textLength="99.9185" x="684.2962" y="215.1246">update occupied positions</text><polygon fill="#181818" points="450.1497,240.9562,444.1497,243.3563,450.1497,245.7563,447.7497,243.3563" style="stroke:#181818;stroke-width:0.6;"/><line style="stroke:#181818;stroke-width:0.6;stroke-dasharray:2.0,2.0;" x1="446.5497" x2="665.9508" y1="243.3563" y2="243.3563"/><text fill="#000000" font-family="sans-serif" font-size="7.8" font-weight="bold" lengthAdjust="spacing" textLength="5.1454" x="453.7497" y="240.5109">8</text><text fill="#000000" font-family="sans-serif" font-size="7.8" lengthAdjust="spacing" textLength="29.1053" x="461.2951" y="240.5109">success</text><line style="stroke:#000000;stroke-width:0.6;stroke-dasharray:2.0,2.0;" x1="383.6965" x2="897.0073" y1="248.7563" y2="248.7563"/><text fill="#000000" font-family="sans-serif" font-size="6.6" font-weight="bold" lengthAdjust="spacing" textLength="27.0026" x="386.6965" y="255.1371">[failure]</text><polygon fill="#181818" points="450.1497,267.5156,444.1497,269.9156,450.1497,272.3156,447.7497,269.9156" style="stroke:#181818;stroke-width:0.6;"/><line style="stroke:#181818;stroke-width:0.6;stroke-dasharray:2.0,2.0;" x1="446.5497" x2="665.9508" y1="269.9156" y2="269.9156"/><text fill="#000000" font-family="sans-serif" font-size="7.8" font-weight="bold" lengthAdjust="spacing" textLength="5.1454" x="453.7497" y="267.0703">9</text><text fill="#000000" font-family="sans-serif" font-size="7.8" lengthAdjust="spacing" textLength="24.0627" x="461.2951" y="267.0703">failure</text><polygon fill="#181818" points="230.3262,289.302,224.3262,291.702,230.3262,294.102,227.9262,291.702" style="stroke:#181818;stroke-width:0.6;"/><line style="stroke:#181818;stroke-width:0.6;stroke-dasharray:2.0,2.0;" x1="226.7262" x2="439.9497" y1="291.702" y2="291.702"/><text fill="#000000" font-family="sans-serif" font-size="7.8" font-weight="bold" lengthAdjust="spacing" textLength="10.2908" x="233.9262" y="288.8566">10</text><text fill="#000000" font-family="sans-serif" font-size="7.8" lengthAdjust="spacing" textLength="83.054" x="246.617" y="288.8566">return success/failure</text><path d="M12,300.702 L49.2832,300.702 L49.2832,305.0883 L43.2832,311.0883 L12,311.0883 L12,300.702 " fill="#EEEEEE" style="stroke:#000000;stroke-width:0.8999999999999999;"/><rect fill="none" height="82.759" style="stroke:#000000;stroke-width:0.8999999999999999;" width="252.2511" x="12" y="300.702"/><text fill="#000000" font-family="sans-serif" font-size="7.8" font-weight="bold" lengthAdjust="spacing" textLength="10.2832" x="21" y="308.843">alt</text><text fill="#000000" font-family="sans-serif" font-size="6.6" font-weight="bold" lengthAdjust="spacing" textLength="31.3146" x="58.2832" y="308.2828">[success]</text><polygon fill="#181818" points="41.4032,321.4746,35.4032,323.8746,41.4032,326.2746,39.0032,323.8746" style="stroke:#181818;stroke-width:0.6;"/><line style="stroke:#181818;stroke-width:0.6;stroke-dasharray:2.0,2.0;" x1="37.8032" x2="223.1262" y1="323.8746" y2="323.8746"/><text fill="#000000" font-family="sans-serif" font-size="7.8" font-weight="bold" lengthAdjust="spacing" textLength="10.2908" x="45.0032" y="321.0293">11</text><text fill="#000000" font-family="sans-serif" font-size="7.8" lengthAdjust="spacing" textLength="164.8321" x="57.694" y="321.0293">show message: Industry added successfully</text><line style="stroke:#000000;stroke-width:0.6;stroke-dasharray:2.0,2.0;" x1="12" x2="264.2511" y1="347.2746" y2="347.2746"/><polygon fill="#181818" points="41.4032,358.2609,35.4032,360.6609,41.4032,363.0609,39.0032,360.6609" style="stroke:#181818;stroke-width:0.6;"/><line style="stroke:#181818;stroke-width:0.6;stroke-dasharray:2.0,2.0;" x1="37.8032" x2="223.1262" y1="360.6609" y2="360.6609"/><text fill="#000000" font-family="sans-serif" font-size="7.8" font-weight="bold" lengthAdjust="spacing" textLength="10.2908" x="45.0032" y="357.8156">12</text><text fill="#000000" font-family="sans-serif" font-size="7.8" lengthAdjust="spacing" textLength="142.6166" x="57.694" y="357.8156">show message: Failed to add industry</text><!--SRC=[bLJVYnf137xVloBuT8A7x_jGE4uB2_KgLg65GidDH9tUxCmoFthT_xwPrHtNhaAxe6BovKlo9Ld_fao33cjeKBpXWRw4LXCu4W7DGLFXCy0VKTftPGwmH-s77gqCXROXi2uSRO4nM1FhLt95WI9O1vEbLFmx0VImN6mB3WjAg0PDW4dv96LbPFJ1jRkgm-og-v1dQuApMjE9xdcx-NGDvfGHzGgRxwRaxmwrUbfVWzIPRKEDzQcsbj7LoDW5Lo-B7vlb-lDjXa5SZowAWxEn0QuQUXy42rnD0VpiAdZyq5KE9U2bjOUUSyjYBiYB6VIM5wnf1bzdy6tQKN2JwXS6ElMVB1tTXLOuIkwSthx-v9d2mzgf6bqxNwdV9ETRXyRlhQjvhDCh6bRiLDnIKqqcvDh-of-KFLbq01-58E-x_-b998zCrYjufzrf3iYqMVFUaob6T5cZ9B5MFjo8oGq9Q_RArHYKDHadQPptkeS-F3OoeQmGiL4aeTiJfXgtV1x3K17Yg-7RKJewkeSVkid8Knc3-fBSbp5n7EzIoUSQeZDzilcGP13RhShTMQMbP3u-prJsqRv3pMv-8vIN9MArkUbpv3vgtOudb-xxXh2zEOdmBpa_SW-SYqSw7F7_fsCD-VC7]--></g></svg>