<svg xmlns="http://www.w3.org/2000/svg" xmlns:xlink="http://www.w3.org/1999/xlink" contentStyleType="text/css" height="374.4px" preserveAspectRatio="none" style="width:642px;height:374px;background:#FFFFFF;" version="1.1" viewBox="0 0 642 374" width="642px" zoomAndPan="magnify"><defs/><g><rect fill="#FFFFFF" height="265.5949" style="stroke:#181818;stroke-width:0.6;" width="6" x="22.8032" y="54.893"/><rect fill="#FFFFFF" height="17.5863" style="stroke:#181818;stroke-width:0.6;" width="6" x="25.8032" y="258.1289"/><rect fill="#FFFFFF" height="252.8086" style="stroke:#181818;stroke-width:0.6;" width="6" x="150.624" y="67.6793"/><rect fill="#FFFFFF" height="140.6906" style="stroke:#181818;stroke-width:0.6;" width="6" x="306.1356" y="85.2656"/><rect fill="#FFFFFF" height="17.5863" style="stroke:#181818;stroke-width:0.6;" width="6" x="306.1356" y="293.3016"/><rect fill="#FFFFFF" height="17.5863" style="stroke:#181818;stroke-width:0.6;" width="6" x="392.3273" y="102.852"/><rect fill="#FFFFFF" height="17.5863" style="stroke:#181818;stroke-width:0.6;" width="6" x="458.3332" y="138.0246"/><rect fill="#FFFFFF" height="35.1727" style="stroke:#181818;stroke-width:0.6;" width="6" x="530.7478" y="173.1973"/><rect fill="none" height="80.7316" style="stroke:#000000;stroke-width:0.8999999999999999;" width="359.9889" x="6" y="234.9562"/><line style="stroke:#181818;stroke-width:0.3;stroke-dasharray:5.0,5.0;" x1="25.8" x2="25.8" y1="48.893" y2="325.8879"/><line style="stroke:#181818;stroke-width:0.3;stroke-dasharray:5.0,5.0;" x1="153.2991" x2="153.2991" y1="48.893" y2="325.8879"/><line style="stroke:#181818;stroke-width:0.3;stroke-dasharray:5.0,5.0;" x1="308.6824" x2="308.6824" y1="48.893" y2="325.8879"/><line style="stroke:#181818;stroke-width:0.3;stroke-dasharray:5.0,5.0;" x1="394.7889" x2="394.7889" y1="48.893" y2="325.8879"/><line style="stroke:#181818;stroke-width:0.3;stroke-dasharray:5.0,5.0;" x1="461.2658" x2="461.2658" y1="48.893" y2="325.8879"/><line style="stroke:#181818;stroke-width:0.3;stroke-dasharray:5.0,5.0;" x1="533.4006" x2="533.4006" y1="48.893" y2="325.8879"/><line style="stroke:#181818;stroke-width:0.3;stroke-dasharray:5.0,5.0;" x1="613.2548" x2="613.2548" y1="48.893" y2="325.8879"/><text fill="#000000" font-family="sans-serif" font-size="8.4" lengthAdjust="spacing" textLength="24.0064" x="12" y="47.1211">Editor</text><ellipse cx="25.8032" cy="8.1" fill="#E2E2F0" rx="4.8" ry="4.8" style="stroke:#181818;stroke-width:0.3;"/><path d="M25.8032,12.9 L25.8032,29.1 M18.0032,17.7 L33.6032,17.7 M25.8032,29.1 L18.0032,38.1 M25.8032,29.1 L33.6032,38.1 " fill="none" style="stroke:#181818;stroke-width:0.3;"/><text fill="#000000" font-family="sans-serif" font-size="8.4" lengthAdjust="spacing" textLength="24.0064" x="12" y="333.409">Editor</text><ellipse cx="25.8032" cy="340.2809" fill="#E2E2F0" rx="4.8" ry="4.8" style="stroke:#181818;stroke-width:0.3;"/><path d="M25.8032,345.0809 L25.8032,361.2809 M18.0032,349.8809 L33.6032,349.8809 M25.8032,361.2809 L18.0032,370.2809 M25.8032,361.2809 L33.6032,370.2809 " fill="none" style="stroke:#181818;stroke-width:0.3;"/><rect fill="#E2E2F0" height="18.293" rx="1.5" ry="1.5" style="stroke:#181818;stroke-width:0.3;" width="69.0498" x="119.0991" y="30"/><text fill="#000000" font-family="sans-serif" font-size="8.4" lengthAdjust="spacing" textLength="60.6498" x="123.2991" y="42.3211">:AddIndustryUI</text><rect fill="#E2E2F0" height="18.293" rx="1.5" ry="1.5" style="stroke:#181818;stroke-width:0.3;" width="69.0498" x="119.0991" y="325.2879"/><text fill="#000000" font-family="sans-serif" font-size="8.4" lengthAdjust="spacing" textLength="60.6498" x="123.2991" y="337.609">:AddIndustryUI</text><rect fill="#E2E2F0" height="18.293" rx="1.5" ry="1.5" style="stroke:#181818;stroke-width:0.3;" width="101.7064" x="258.2824" y="30"/><text fill="#000000" font-family="sans-serif" font-size="8.4" lengthAdjust="spacing" textLength="93.3064" x="262.4824" y="42.3211">:AddIndustryController</text><rect fill="#E2E2F0" height="18.293" rx="1.5" ry="1.5" style="stroke:#181818;stroke-width:0.3;" width="101.7064" x="258.2824" y="325.2879"/><text fill="#000000" font-family="sans-serif" font-size="8.4" lengthAdjust="spacing" textLength="93.3064" x="262.4824" y="337.609">:AddIndustryController</text><rect fill="#E2E2F0" height="18.293" rx="1.5" ry="1.5" style="stroke:#181818;stroke-width:0.3;" width="58.677" x="365.9889" y="30"/><text fill="#000000" font-family="sans-serif" font-size="8.4" lengthAdjust="spacing" textLength="50.277" x="370.1889" y="42.3211">Repositories</text><rect fill="#E2E2F0" height="18.293" rx="1.5" ry="1.5" style="stroke:#181818;stroke-width:0.3;" width="58.677" x="365.9889" y="325.2879"/><text fill="#000000" font-family="sans-serif" font-size="8.4" lengthAdjust="spacing" textLength="50.277" x="370.1889" y="337.609">Repositories</text><rect fill="#E2E2F0" height="28.1859" rx="1.5" ry="1.5" style="stroke:#181818;stroke-width:0.3;" width="61.3348" x="430.6658" y="20.107"/><text fill="#000000" font-family="sans-serif" font-size="8.4" lengthAdjust="spacing" textLength="48.4025" x="437.1319" y="32.4281">repositories</text><text fill="#000000" font-family="sans-serif" font-size="8.4" lengthAdjust="spacing" textLength="52.9348" x="434.8658" y="42.3211">:Repositories</text><rect fill="#E2E2F0" height="28.1859" rx="1.5" ry="1.5" style="stroke:#181818;stroke-width:0.3;" width="61.3348" x="430.6658" y="325.2879"/><text fill="#000000" font-family="sans-serif" font-size="8.4" lengthAdjust="spacing" textLength="48.4025" x="437.1319" y="337.609">repositories</text><text fill="#000000" font-family="sans-serif" font-size="8.4" lengthAdjust="spacing" textLength="52.9348" x="434.8658" y="347.502">:Repositories</text><rect fill="#E2E2F0" height="28.1859" rx="1.5" ry="1.5" style="stroke:#181818;stroke-width:0.3;" width="71.4943" x="498.0006" y="20.107"/><text fill="#000000" font-family="sans-serif" font-size="8.4" lengthAdjust="spacing" textLength="61.0436" x="503.226" y="32.4281">mapRepository</text><text fill="#000000" font-family="sans-serif" font-size="8.4" lengthAdjust="spacing" textLength="63.0943" x="502.2006" y="42.3211">:MapRepository</text><rect fill="#E2E2F0" height="28.1859" rx="1.5" ry="1.5" style="stroke:#181818;stroke-width:0.3;" width="71.4943" x="498.0006" y="325.2879"/><text fill="#000000" font-family="sans-serif" font-size="8.4" lengthAdjust="spacing" textLength="61.0436" x="503.226" y="337.609">mapRepository</text><text fill="#000000" font-family="sans-serif" font-size="8.4" lengthAdjust="spacing" textLength="63.0943" x="502.2006" y="347.502">:MapRepository</text><rect fill="#E2E2F0" height="28.1859" rx="1.5" ry="1.5" style="stroke:#181818;stroke-width:0.3;" width="49.9242" x="588.6548" y="20.107"/><text fill="#000000" font-family="sans-serif" font-size="8.4" lengthAdjust="spacing" textLength="41.5242" x="592.8548" y="32.4281">actualMap</text><text fill="#000000" font-family="sans-serif" font-size="8.4" lengthAdjust="spacing" textLength="19.8187" x="603.7075" y="42.3211">:Map</text><rect fill="#E2E2F0" height="28.1859" rx="1.5" ry="1.5" style="stroke:#181818;stroke-width:0.3;" width="49.9242" x="588.6548" y="325.2879"/><text fill="#000000" font-family="sans-serif" font-size="8.4" lengthAdjust="spacing" textLength="41.5242" x="592.8548" y="337.609">actualMap</text><text fill="#000000" font-family="sans-serif" font-size="8.4" lengthAdjust="spacing" textLength="19.8187" x="603.7075" y="347.502">:Map</text><rect fill="#FFFFFF" height="265.5949" style="stroke:#181818;stroke-width:0.6;" width="6" x="22.8032" y="54.893"/><rect fill="#FFFFFF" height="17.5863" style="stroke:#181818;stroke-width:0.6;" width="6" x="25.8032" y="258.1289"/><rect fill="#FFFFFF" height="252.8086" style="stroke:#181818;stroke-width:0.6;" width="6" x="150.624" y="67.6793"/><rect fill="#FFFFFF" height="140.6906" style="stroke:#181818;stroke-width:0.6;" width="6" x="306.1356" y="85.2656"/><rect fill="#FFFFFF" height="17.5863" style="stroke:#181818;stroke-width:0.6;" width="6" x="306.1356" y="293.3016"/><rect fill="#FFFFFF" height="17.5863" style="stroke:#181818;stroke-width:0.6;" width="6" x="392.3273" y="102.852"/><rect fill="#FFFFFF" height="17.5863" style="stroke:#181818;stroke-width:0.6;" width="6" x="458.3332" y="138.0246"/><rect fill="#FFFFFF" height="35.1727" style="stroke:#181818;stroke-width:0.6;" width="6" x="530.7478" y="173.1973"/><polygon fill="#181818" points="143.424,65.2793,149.424,67.6793,143.424,70.0793,145.824,67.6793" style="stroke:#181818;stroke-width:0.6;"/><line style="stroke:#181818;stroke-width:0.6;" x1="28.8032" x2="147.024" y1="67.6793" y2="67.6793"/><text fill="#000000" font-family="sans-serif" font-size="7.8" font-weight="bold" lengthAdjust="spacing" textLength="5.1454" x="33.0032" y="64.834">1</text><text fill="#000000" font-family="sans-serif" font-size="7.8" lengthAdjust="spacing" textLength="102.356" x="40.5486" y="64.834">start AddIndustryUI(mapId)</text><polygon fill="#181818" points="298.9356,82.8656,304.9356,85.2656,298.9356,87.6656,301.3356,85.2656" style="stroke:#181818;stroke-width:0.6;"/><line style="stroke:#181818;stroke-width:0.6;" x1="156.624" x2="302.5356" y1="85.2656" y2="85.2656"/><text fill="#000000" font-family="sans-serif" font-size="7.8" font-weight="bold" lengthAdjust="spacing" textLength="5.1454" x="160.824" y="82.4203">2</text><text fill="#000000" font-family="sans-serif" font-size="7.8" lengthAdjust="spacing" textLength="130.5662" x="168.3694" y="82.4203">new AddIndustryController(mapId)</text><polygon fill="#181818" points="385.1273,100.452,391.1273,102.852,385.1273,105.252,387.5273,102.852" style="stroke:#181818;stroke-width:0.6;"/><line style="stroke:#181818;stroke-width:0.6;" x1="312.1356" x2="388.7273" y1="102.852" y2="102.852"/><text fill="#000000" font-family="sans-serif" font-size="7.8" font-weight="bold" lengthAdjust="spacing" textLength="5.1454" x="316.3356" y="100.0066">3</text><text fill="#000000" font-family="sans-serif" font-size="7.8" lengthAdjust="spacing" textLength="48.67" x="323.8811" y="100.0066">getInstance()</text><polygon fill="#181818" points="318.7356,118.0383,312.7356,120.4383,318.7356,122.8383,316.3356,120.4383" style="stroke:#181818;stroke-width:0.6;"/><line style="stroke:#181818;stroke-width:0.6;stroke-dasharray:2.0,2.0;" x1="315.1356" x2="394.7273" y1="120.4383" y2="120.4383"/><text fill="#000000" font-family="sans-serif" font-size="7.8" font-weight="bold" lengthAdjust="spacing" textLength="5.1454" x="322.3356" y="117.593">4</text><text fill="#000000" font-family="sans-serif" font-size="7.8" lengthAdjust="spacing" textLength="44.9452" x="329.8811" y="117.593">repositories</text><polygon fill="#181818" points="451.1332,135.6246,457.1332,138.0246,451.1332,140.4246,453.5332,138.0246" style="stroke:#181818;stroke-width:0.6;"/><line style="stroke:#181818;stroke-width:0.6;" x1="312.1356" x2="454.7332" y1="138.0246" y2="138.0246"/><text fill="#000000" font-family="sans-serif" font-size="7.8" font-weight="bold" lengthAdjust="spacing" textLength="5.1454" x="316.3356" y="135.1793">5</text><text fill="#000000" font-family="sans-serif" font-size="7.8" lengthAdjust="spacing" textLength="73.3192" x="323.8811" y="135.1793">getMapRepository()</text><polygon fill="#181818" points="318.7356,153.2109,312.7356,155.6109,318.7356,158.0109,316.3356,155.6109" style="stroke:#181818;stroke-width:0.6;"/><line style="stroke:#181818;stroke-width:0.6;stroke-dasharray:2.0,2.0;" x1="315.1356" x2="460.7332" y1="155.6109" y2="155.6109"/><text fill="#000000" font-family="sans-serif" font-size="7.8" font-weight="bold" lengthAdjust="spacing" textLength="5.1454" x="322.3356" y="152.7656">6</text><text fill="#000000" font-family="sans-serif" font-size="7.8" lengthAdjust="spacing" textLength="56.6833" x="329.8811" y="152.7656">mapRepository</text><polygon fill="#181818" points="523.5478,170.7973,529.5478,173.1973,523.5478,175.5973,525.9478,173.1973" style="stroke:#181818;stroke-width:0.6;"/><line style="stroke:#181818;stroke-width:0.6;" x1="312.1356" x2="527.1478" y1="173.1973" y2="173.1973"/><text fill="#000000" font-family="sans-serif" font-size="7.8" font-weight="bold" lengthAdjust="spacing" textLength="5.1454" x="316.3356" y="170.352">7</text><text fill="#000000" font-family="sans-serif" font-size="7.8" lengthAdjust="spacing" textLength="72.508" x="323.8811" y="170.352">getMapById(mapId)</text><polygon fill="#181818" points="606.4169,188.3836,612.4169,190.7836,606.4169,193.1836,608.8169,190.7836" style="stroke:#181818;stroke-width:0.6;"/><line style="stroke:#181818;stroke-width:0.6;" x1="536.7478" x2="610.0169" y1="190.7836" y2="190.7836"/><text fill="#000000" font-family="sans-serif" font-size="7.8" font-weight="bold" lengthAdjust="spacing" textLength="5.1454" x="540.9478" y="187.9383">8</text><text fill="#000000" font-family="sans-serif" font-size="7.8" lengthAdjust="spacing" textLength="54.9237" x="548.4932" y="187.9383">find map by id</text><polygon fill="#181818" points="318.7356,205.9699,312.7356,208.3699,318.7356,210.7699,316.3356,208.3699" style="stroke:#181818;stroke-width:0.6;"/><line style="stroke:#181818;stroke-width:0.6;stroke-dasharray:2.0,2.0;" x1="315.1356" x2="533.1478" y1="208.3699" y2="208.3699"/><text fill="#000000" font-family="sans-serif" font-size="7.8" font-weight="bold" lengthAdjust="spacing" textLength="5.1454" x="322.3356" y="205.5246">9</text><text fill="#000000" font-family="sans-serif" font-size="7.8" lengthAdjust="spacing" textLength="64.3538" x="329.8811" y="205.5246">return actualMap</text><polygon fill="#181818" points="163.224,223.5563,157.224,225.9562,163.224,228.3563,160.824,225.9562" style="stroke:#181818;stroke-width:0.6;"/><line style="stroke:#181818;stroke-width:0.6;stroke-dasharray:2.0,2.0;" x1="159.624" x2="308.5356" y1="225.9562" y2="225.9562"/><text fill="#000000" font-family="sans-serif" font-size="7.8" font-weight="bold" lengthAdjust="spacing" textLength="10.2908" x="166.824" y="223.1109">10</text><text fill="#000000" font-family="sans-serif" font-size="7.8" lengthAdjust="spacing" textLength="64.3538" x="179.5148" y="223.1109">return actualMap</text><path d="M6,234.9562 L127.5598,234.9562 L127.5598,239.3426 L121.5598,245.3426 L6,245.3426 L6,234.9562 " fill="#EEEEEE" style="stroke:#000000;stroke-width:0.8999999999999999;"/><rect fill="none" height="80.7316" style="stroke:#000000;stroke-width:0.8999999999999999;" width="359.9889" x="6" y="234.9562"/><text fill="#000000" font-family="sans-serif" font-size="7.8" font-weight="bold" lengthAdjust="spacing" textLength="94.5598" x="15" y="243.0973">Industry Type Selection</text><polygon fill="#181818" points="38.4032,255.7289,32.4032,258.1289,38.4032,260.5289,36.0032,258.1289" style="stroke:#181818;stroke-width:0.6;"/><line style="stroke:#181818;stroke-width:0.6;stroke-dasharray:2.0,2.0;" x1="34.8032" x2="150.024" y1="258.1289" y2="258.1289"/><text fill="#000000" font-family="sans-serif" font-size="7.8" font-weight="bold" lengthAdjust="spacing" textLength="10.2908" x="42.0032" y="255.2836">11</text><text fill="#000000" font-family="sans-serif" font-size="7.8" lengthAdjust="spacing" textLength="78.3504" x="54.694" y="255.2836">ask for industry type</text><polygon fill="#181818" points="143.424,273.3152,149.424,275.7152,143.424,278.1152,145.824,275.7152" style="stroke:#181818;stroke-width:0.6;"/><line style="stroke:#181818;stroke-width:0.6;" x1="28.8032" x2="147.024" y1="275.7152" y2="275.7152"/><text fill="#000000" font-family="sans-serif" font-size="7.8" font-weight="bold" lengthAdjust="spacing" textLength="10.2908" x="33.0032" y="272.8699">12</text><text fill="#000000" font-family="sans-serif" font-size="7.8" lengthAdjust="spacing" textLength="91.73" x="45.694" y="272.8699">select industryTypeDesc</text><polygon fill="#181818" points="298.9356,290.9016,304.9356,293.3016,298.9356,295.7016,301.3356,293.3016" style="stroke:#181818;stroke-width:0.6;"/><line style="stroke:#181818;stroke-width:0.6;" x1="156.624" x2="302.5356" y1="293.3016" y2="293.3016"/><text fill="#000000" font-family="sans-serif" font-size="7.8" font-weight="bold" lengthAdjust="spacing" textLength="10.2908" x="160.824" y="290.4563">13</text><text fill="#000000" font-family="sans-serif" font-size="7.8" lengthAdjust="spacing" textLength="80.3271" x="173.5148" y="290.4563">getAllIndustryTypes()</text><polygon fill="#181818" points="163.224,308.4879,157.224,310.8879,163.224,313.2879,160.824,310.8879" style="stroke:#181818;stroke-width:0.6;"/><line style="stroke:#181818;stroke-width:0.6;stroke-dasharray:2.0,2.0;" x1="159.624" x2="308.5356" y1="310.8879" y2="310.8879"/><text fill="#000000" font-family="sans-serif" font-size="7.8" font-weight="bold" lengthAdjust="spacing" textLength="10.2908" x="166.824" y="308.0426">14</text><text fill="#000000" font-family="sans-serif" font-size="7.8" lengthAdjust="spacing" textLength="77.6953" x="179.5148" y="308.0426">list of industry types</text><!--SRC=[VPDDRi8m48NtESM8LRle1LXKeYsg8l4dGdULAXCFgOMn8zjfbTjtx3J61beaX1BUDs_yPcoFGhNCi1Eqh3wo1YlNImI3jMEgaLZOAB2VZEjleHeuC6dJVwHGwFeMGHltgGlMEQswqnvDKR3QQGEJEHVqEm5cOVwoAmXpeXOjKmucqnddfUATTQP_AuFchVnRygoLCrfA7CezxxQBNBp5Lbjl9z06oNQ-MLUvnYIQTpMzZNnKvUfrCT-jLpbyOcq4UgANwNF0bxFDXo-HSvH5noIf1sPKXf345tCOig4lF3nI1305wuY7B9yxSY_v_PcXh4XBX4-268NVS3EkAp94LmICy71auXjqfI9ZLUDT8Xv274GFPxSqo8BZXJmlVivpiCbok_9Aqh-a4_zi5bSD93LYA-DiOWzFVSclieaJZF819UeW5FU-iEz1y4IGfk8weo0EF6qiLlxjQ9prVymmgSReheLniB3pDwv2ILTLQ5K0VVmYK3s_GbFQhYCSwFA94V1NDCYoVVClifqB5IFbNLxGra6Nj3IYsUvHe3CfomIrDDVCCXp5lybFBuLre0zvi_RIDC2e-0y0]--></g></svg>