<svg xmlns="http://www.w3.org/2000/svg" xmlns:xlink="http://www.w3.org/1999/xlink" contentStyleType="text/css" height="719.4px" preserveAspectRatio="none" style="width:672px;height:719px;background:#FFFFFF;" version="1.1" viewBox="0 0 672 719" width="672.6px" zoomAndPan="magnify"><defs/><g><rect fill="#FFFFFF" height="17.5863" style="stroke:#181818;stroke-width:0.6;" width="6" x="40.8032" y="96.852"/><rect fill="#FFFFFF" height="17.5863" style="stroke:#181818;stroke-width:0.6;" width="6" x="40.8032" y="132.0246"/><rect fill="#FFFFFF" height="78.1453" style="stroke:#181818;stroke-width:0.6;" width="6" x="308.0643" y="167.1973"/><rect fill="#FFFFFF" height="78.1453" style="stroke:#181818;stroke-width:0.6;" width="6" x="308.0643" y="262.9289"/><rect fill="#FFFFFF" height="182.877" style="stroke:#181818;stroke-width:0.6;" width="6" x="308.0643" y="409.6195"/><rect fill="#FFFFFF" height="42.9727" style="stroke:#181818;stroke-width:0.6;" width="6" x="424.7777" y="184.7836"/><rect fill="#FFFFFF" height="42.9727" style="stroke:#181818;stroke-width:0.6;" width="6" x="424.7777" y="280.5152"/><rect fill="#FFFFFF" height="147.7043" style="stroke:#181818;stroke-width:0.6;" width="6" x="424.7777" y="427.2059"/><rect fill="#FFFFFF" height="17.5863" style="stroke:#181818;stroke-width:0.6;" width="6" x="611.7935" y="510.1512"/><rect fill="none" height="601.7625" style="stroke:#000000;stroke-width:0.8999999999999999;" width="663.1717" x="6" y="59.093"/><rect fill="none" height="582.9762" style="stroke:#000000;stroke-width:0.8999999999999999;" width="651.1717" x="12" y="73.6793"/><rect fill="none" height="302.3812" style="stroke:#000000;stroke-width:0.8999999999999999;" width="639.1717" x="18" y="350.0742"/><rect fill="none" height="70.9453" style="stroke:#000000;stroke-width:0.8999999999999999;" width="254.3561" x="396.8156" y="486.9785"/><rect fill="none" height="46.759" style="stroke:#000000;stroke-width:0.8999999999999999;" width="343.9175" x="24" y="601.4965"/><line style="stroke:#181818;stroke-width:0.3;stroke-dasharray:5.0,5.0;" x1="43.8" x2="43.8" y1="48.893" y2="671.0555"/><line style="stroke:#181818;stroke-width:0.3;stroke-dasharray:5.0,5.0;" x1="197.0259" x2="197.0259" y1="48.893" y2="671.0555"/><line style="stroke:#181818;stroke-width:0.3;stroke-dasharray:5.0,5.0;" x1="310.611" x2="310.611" y1="48.893" y2="671.0555"/><line style="stroke:#181818;stroke-width:0.3;stroke-dasharray:5.0,5.0;" x1="427.4156" x2="427.4156" y1="48.893" y2="671.0555"/><line style="stroke:#181818;stroke-width:0.3;stroke-dasharray:5.0,5.0;" x1="556.5018" x2="556.5018" y1="48.893" y2="671.0555"/><line style="stroke:#181818;stroke-width:0.3;stroke-dasharray:5.0,5.0;" x1="614.4152" x2="614.4152" y1="48.893" y2="671.0555"/><text fill="#000000" font-family="sans-serif" font-size="8.4" lengthAdjust="spacing" textLength="24.0064" x="30" y="47.1211">Editor</text><ellipse cx="43.8032" cy="8.1" fill="#E2E2F0" rx="4.8" ry="4.8" style="stroke:#181818;stroke-width:0.3;"/><path d="M43.8032,12.9 L43.8032,29.1 M36.0032,17.7 L51.6032,17.7 M43.8032,29.1 L36.0032,38.1 M43.8032,29.1 L51.6032,38.1 " fill="none" style="stroke:#181818;stroke-width:0.3;"/><text fill="#000000" font-family="sans-serif" font-size="8.4" lengthAdjust="spacing" textLength="24.0064" x="30" y="678.5766">Editor</text><ellipse cx="43.8032" cy="685.4484" fill="#E2E2F0" rx="4.8" ry="4.8" style="stroke:#181818;stroke-width:0.3;"/><path d="M43.8032,690.2484 L43.8032,706.4484 M36.0032,695.0484 L51.6032,695.0484 M43.8032,706.4484 L36.0032,715.4484 M43.8032,706.4484 L51.6032,715.4484 " fill="none" style="stroke:#181818;stroke-width:0.3;"/><rect fill="#E2E2F0" height="18.293" rx="1.5" ry="1.5" style="stroke:#181818;stroke-width:0.3;" width="69.0498" x="162.8259" y="30"/><text fill="#000000" font-family="sans-serif" font-size="8.4" lengthAdjust="spacing" textLength="60.6498" x="167.0259" y="42.3211">:AddIndustryUI</text><rect fill="#E2E2F0" height="18.293" rx="1.5" ry="1.5" style="stroke:#181818;stroke-width:0.3;" width="69.0498" x="162.8259" y="670.4555"/><text fill="#000000" font-family="sans-serif" font-size="8.4" lengthAdjust="spacing" textLength="60.6498" x="167.0259" y="682.7766">:AddIndustryUI</text><rect fill="#E2E2F0" height="18.293" rx="1.5" ry="1.5" style="stroke:#181818;stroke-width:0.3;" width="101.7064" x="260.211" y="30"/><text fill="#000000" font-family="sans-serif" font-size="8.4" lengthAdjust="spacing" textLength="93.3064" x="264.411" y="42.3211">:AddIndustryController</text><rect fill="#E2E2F0" height="18.293" rx="1.5" ry="1.5" style="stroke:#181818;stroke-width:0.3;" width="101.7064" x="260.211" y="670.4555"/><text fill="#000000" font-family="sans-serif" font-size="8.4" lengthAdjust="spacing" textLength="93.3064" x="264.411" y="682.7766">:AddIndustryController</text><rect fill="#E2E2F0" height="28.1859" rx="1.5" ry="1.5" style="stroke:#181818;stroke-width:0.3;" width="49.9242" x="402.8156" y="20.107"/><text fill="#000000" font-family="sans-serif" font-size="8.4" lengthAdjust="spacing" textLength="41.5242" x="407.0156" y="32.4281">actualMap</text><text fill="#000000" font-family="sans-serif" font-size="8.4" lengthAdjust="spacing" textLength="19.8187" x="417.8684" y="42.3211">:Map</text><rect fill="#E2E2F0" height="28.1859" rx="1.5" ry="1.5" style="stroke:#181818;stroke-width:0.3;" width="49.9242" x="402.8156" y="670.4555"/><text fill="#000000" font-family="sans-serif" font-size="8.4" lengthAdjust="spacing" textLength="41.5242" x="407.0156" y="682.7766">actualMap</text><text fill="#000000" font-family="sans-serif" font-size="8.4" lengthAdjust="spacing" textLength="19.8187" x="417.8684" y="692.6695">:Map</text><rect fill="#E2E2F0" height="28.1859" rx="1.5" ry="1.5" style="stroke:#181818;stroke-width:0.3;" width="43.5135" x="534.9018" y="20.107"/><text fill="#000000" font-family="sans-serif" font-size="8.4" lengthAdjust="spacing" textLength="33.0996" x="540.1087" y="32.4281">position</text><text fill="#000000" font-family="sans-serif" font-size="8.4" lengthAdjust="spacing" textLength="35.1135" x="539.1018" y="42.3211">:Position</text><rect fill="#E2E2F0" height="28.1859" rx="1.5" ry="1.5" style="stroke:#181818;stroke-width:0.3;" width="43.5135" x="534.9018" y="670.4555"/><text fill="#000000" font-family="sans-serif" font-size="8.4" lengthAdjust="spacing" textLength="33.0996" x="540.1087" y="682.7766">position</text><text fill="#000000" font-family="sans-serif" font-size="8.4" lengthAdjust="spacing" textLength="35.1135" x="539.1018" y="692.6695">:Position</text><rect fill="#E2E2F0" height="28.1859" rx="1.5" ry="1.5" style="stroke:#181818;stroke-width:0.3;" width="60.7564" x="584.4152" y="20.107"/><text fill="#000000" font-family="sans-serif" font-size="8.4" lengthAdjust="spacing" textLength="50.3057" x="589.6406" y="32.4281">mapElement</text><text fill="#000000" font-family="sans-serif" font-size="8.4" lengthAdjust="spacing" textLength="52.3564" x="588.6152" y="42.3211">:MapElement</text><rect fill="#E2E2F0" height="28.1859" rx="1.5" ry="1.5" style="stroke:#181818;stroke-width:0.3;" width="60.7564" x="584.4152" y="670.4555"/><text fill="#000000" font-family="sans-serif" font-size="8.4" lengthAdjust="spacing" textLength="50.3057" x="589.6406" y="682.7766">mapElement</text><text fill="#000000" font-family="sans-serif" font-size="8.4" lengthAdjust="spacing" textLength="52.3564" x="588.6152" y="692.6695">:MapElement</text><rect fill="#FFFFFF" height="17.5863" style="stroke:#181818;stroke-width:0.6;" width="6" x="40.8032" y="96.852"/><rect fill="#FFFFFF" height="17.5863" style="stroke:#181818;stroke-width:0.6;" width="6" x="40.8032" y="132.0246"/><rect fill="#FFFFFF" height="78.1453" style="stroke:#181818;stroke-width:0.6;" width="6" x="308.0643" y="167.1973"/><rect fill="#FFFFFF" height="78.1453" style="stroke:#181818;stroke-width:0.6;" width="6" x="308.0643" y="262.9289"/><rect fill="#FFFFFF" height="182.877" style="stroke:#181818;stroke-width:0.6;" width="6" x="308.0643" y="409.6195"/><rect fill="#FFFFFF" height="42.9727" style="stroke:#181818;stroke-width:0.6;" width="6" x="424.7777" y="184.7836"/><rect fill="#FFFFFF" height="42.9727" style="stroke:#181818;stroke-width:0.6;" width="6" x="424.7777" y="280.5152"/><rect fill="#FFFFFF" height="147.7043" style="stroke:#181818;stroke-width:0.6;" width="6" x="424.7777" y="427.2059"/><rect fill="#FFFFFF" height="17.5863" style="stroke:#181818;stroke-width:0.6;" width="6" x="611.7935" y="510.1512"/><path d="M6,59.093 L125.4803,59.093 L125.4803,63.4793 L119.4803,69.4793 L6,69.4793 L6,59.093 " fill="#EEEEEE" style="stroke:#000000;stroke-width:0.8999999999999999;"/><rect fill="none" height="601.7625" style="stroke:#000000;stroke-width:0.8999999999999999;" width="663.1717" x="6" y="59.093"/><text fill="#000000" font-family="sans-serif" font-size="7.8" font-weight="bold" lengthAdjust="spacing" textLength="92.4803" x="15" y="67.234">Industry Position Input</text><path d="M12,73.6793 L56.6681,73.6793 L56.6681,78.0656 L50.6681,84.0656 L12,84.0656 L12,73.6793 " fill="#EEEEEE" style="stroke:#000000;stroke-width:0.8999999999999999;"/><rect fill="none" height="582.9762" style="stroke:#000000;stroke-width:0.8999999999999999;" width="651.1717" x="12" y="73.6793"/><text fill="#000000" font-family="sans-serif" font-size="7.8" font-weight="bold" lengthAdjust="spacing" textLength="17.6681" x="21" y="81.8203">loop</text><text fill="#000000" font-family="sans-serif" font-size="6.6" font-weight="bold" lengthAdjust="spacing" textLength="69.1775" x="65.6681" y="81.2602">[until valid position]</text><polygon fill="#181818" points="53.4032,94.452,47.4032,96.852,53.4032,99.252,51.0032,96.852" style="stroke:#181818;stroke-width:0.6;"/><line style="stroke:#181818;stroke-width:0.6;stroke-dasharray:2.0,2.0;" x1="49.8032" x2="196.7508" y1="96.852" y2="96.852"/><text fill="#000000" font-family="sans-serif" font-size="7.8" font-weight="bold" lengthAdjust="spacing" textLength="5.1454" x="57.0032" y="94.0066">1</text><text fill="#000000" font-family="sans-serif" font-size="7.8" lengthAdjust="spacing" textLength="66.7151" x="64.5486" y="94.0066">ask for X position</text><polygon fill="#181818" points="190.1508,112.0383,196.1508,114.4383,190.1508,116.8383,192.5508,114.4383" style="stroke:#181818;stroke-width:0.6;"/><line style="stroke:#181818;stroke-width:0.6;" x1="43.8032" x2="193.7508" y1="114.4383" y2="114.4383"/><text fill="#000000" font-family="sans-serif" font-size="7.8" font-weight="bold" lengthAdjust="spacing" textLength="5.1454" x="48.0032" y="111.593">2</text><text fill="#000000" font-family="sans-serif" font-size="7.8" lengthAdjust="spacing" textLength="26.9915" x="55.5486" y="111.593">enter X</text><polygon fill="#181818" points="53.4032,129.6246,47.4032,132.0246,53.4032,134.4246,51.0032,132.0246" style="stroke:#181818;stroke-width:0.6;"/><line style="stroke:#181818;stroke-width:0.6;stroke-dasharray:2.0,2.0;" x1="49.8032" x2="196.7508" y1="132.0246" y2="132.0246"/><text fill="#000000" font-family="sans-serif" font-size="7.8" font-weight="bold" lengthAdjust="spacing" textLength="5.1454" x="57.0032" y="129.1793">3</text><text fill="#000000" font-family="sans-serif" font-size="7.8" lengthAdjust="spacing" textLength="66.6923" x="64.5486" y="129.1793">ask for Y position</text><polygon fill="#181818" points="190.1508,147.2109,196.1508,149.6109,190.1508,152.0109,192.5508,149.6109" style="stroke:#181818;stroke-width:0.6;"/><line style="stroke:#181818;stroke-width:0.6;" x1="43.8032" x2="193.7508" y1="149.6109" y2="149.6109"/><text fill="#000000" font-family="sans-serif" font-size="7.8" font-weight="bold" lengthAdjust="spacing" textLength="5.1454" x="48.0032" y="146.7656">4</text><text fill="#000000" font-family="sans-serif" font-size="7.8" lengthAdjust="spacing" textLength="26.9687" x="55.5486" y="146.7656">enter Y</text><polygon fill="#181818" points="300.8643,164.7973,306.8643,167.1973,300.8643,169.5973,303.2643,167.1973" style="stroke:#181818;stroke-width:0.6;"/><line style="stroke:#181818;stroke-width:0.6;" x1="197.3508" x2="304.4643" y1="167.1973" y2="167.1973"/><text fill="#000000" font-family="sans-serif" font-size="7.8" font-weight="bold" lengthAdjust="spacing" textLength="5.1454" x="201.5508" y="164.352">5</text><text fill="#000000" font-family="sans-serif" font-size="7.8" lengthAdjust="spacing" textLength="54.7295" x="209.0962" y="164.352">getWidthMap()</text><polygon fill="#181818" points="417.5777,182.3836,423.5777,184.7836,417.5777,187.1836,419.9777,184.7836" style="stroke:#181818;stroke-width:0.6;"/><line style="stroke:#181818;stroke-width:0.6;" x1="314.0643" x2="421.1777" y1="184.7836" y2="184.7836"/><text fill="#000000" font-family="sans-serif" font-size="7.8" font-weight="bold" lengthAdjust="spacing" textLength="5.1454" x="318.2643" y="181.9383">6</text><text fill="#000000" font-family="sans-serif" font-size="7.8" lengthAdjust="spacing" textLength="32.4721" x="325.8097" y="181.9383">getSize()</text><line style="stroke:#181818;stroke-width:0.6;" x1="430.7777" x2="455.9777" y1="202.3699" y2="202.3699"/><line style="stroke:#181818;stroke-width:0.6;" x1="455.9777" x2="455.9777" y1="202.3699" y2="210.1699"/><line style="stroke:#181818;stroke-width:0.6;" x1="431.3777" x2="455.9777" y1="210.1699" y2="210.1699"/><polygon fill="#181818" points="437.3777,207.7699,431.3777,210.1699,437.3777,212.5699,434.9777,210.1699" style="stroke:#181818;stroke-width:0.6;"/><text fill="#000000" font-family="sans-serif" font-size="7.8" font-weight="bold" lengthAdjust="spacing" textLength="5.1454" x="434.9777" y="199.5246">7</text><text fill="#000000" font-family="sans-serif" font-size="7.8" lengthAdjust="spacing" textLength="38.7943" x="442.5231" y="199.5246">getWidth()</text><polygon fill="#181818" points="320.6643,225.3563,314.6643,227.7563,320.6643,230.1563,318.2643,227.7563" style="stroke:#181818;stroke-width:0.6;"/><line style="stroke:#181818;stroke-width:0.6;stroke-dasharray:2.0,2.0;" x1="317.0643" x2="427.1777" y1="227.7563" y2="227.7563"/><text fill="#000000" font-family="sans-serif" font-size="7.8" font-weight="bold" lengthAdjust="spacing" textLength="5.1454" x="324.2643" y="224.9109">8</text><text fill="#000000" font-family="sans-serif" font-size="7.8" lengthAdjust="spacing" textLength="38.0936" x="331.8097" y="224.9109">mapWidth</text><polygon fill="#181818" points="203.9508,242.9426,197.9508,245.3426,203.9508,247.7426,201.5508,245.3426" style="stroke:#181818;stroke-width:0.6;"/><line style="stroke:#181818;stroke-width:0.6;stroke-dasharray:2.0,2.0;" x1="200.3508" x2="310.4643" y1="245.3426" y2="245.3426"/><text fill="#000000" font-family="sans-serif" font-size="7.8" font-weight="bold" lengthAdjust="spacing" textLength="5.1454" x="207.5508" y="242.4973">9</text><text fill="#000000" font-family="sans-serif" font-size="7.8" lengthAdjust="spacing" textLength="38.0936" x="215.0962" y="242.4973">mapWidth</text><polygon fill="#181818" points="300.8643,260.5289,306.8643,262.9289,300.8643,265.3289,303.2643,262.9289" style="stroke:#181818;stroke-width:0.6;"/><line style="stroke:#181818;stroke-width:0.6;" x1="197.3508" x2="304.4643" y1="262.9289" y2="262.9289"/><text fill="#000000" font-family="sans-serif" font-size="7.8" font-weight="bold" lengthAdjust="spacing" textLength="10.2908" x="201.5508" y="260.0836">10</text><text fill="#000000" font-family="sans-serif" font-size="7.8" lengthAdjust="spacing" textLength="58.0887" x="214.2416" y="260.0836">getHeightMap()</text><polygon fill="#181818" points="417.5777,278.1152,423.5777,280.5152,417.5777,282.9152,419.9777,280.5152" style="stroke:#181818;stroke-width:0.6;"/><line style="stroke:#181818;stroke-width:0.6;" x1="314.0643" x2="421.1777" y1="280.5152" y2="280.5152"/><text fill="#000000" font-family="sans-serif" font-size="7.8" font-weight="bold" lengthAdjust="spacing" textLength="10.2908" x="318.2643" y="277.6699">11</text><text fill="#000000" font-family="sans-serif" font-size="7.8" lengthAdjust="spacing" textLength="32.4721" x="330.9551" y="277.6699">getSize()</text><line style="stroke:#181818;stroke-width:0.6;" x1="430.7777" x2="455.9777" y1="298.1016" y2="298.1016"/><line style="stroke:#181818;stroke-width:0.6;" x1="455.9777" x2="455.9777" y1="298.1016" y2="305.9016"/><line style="stroke:#181818;stroke-width:0.6;" x1="431.3777" x2="455.9777" y1="305.9016" y2="305.9016"/><polygon fill="#181818" points="437.3777,303.5016,431.3777,305.9016,437.3777,308.3016,434.9777,305.9016" style="stroke:#181818;stroke-width:0.6;"/><text fill="#000000" font-family="sans-serif" font-size="7.8" font-weight="bold" lengthAdjust="spacing" textLength="10.2908" x="434.9777" y="295.2562">12</text><text fill="#000000" font-family="sans-serif" font-size="7.8" lengthAdjust="spacing" textLength="42.1535" x="447.6686" y="295.2562">getHeight()</text><polygon fill="#181818" points="320.6643,321.0879,314.6643,323.4879,320.6643,325.8879,318.2643,323.4879" style="stroke:#181818;stroke-width:0.6;"/><line style="stroke:#181818;stroke-width:0.6;stroke-dasharray:2.0,2.0;" x1="317.0643" x2="427.1777" y1="323.4879" y2="323.4879"/><text fill="#000000" font-family="sans-serif" font-size="7.8" font-weight="bold" lengthAdjust="spacing" textLength="10.2908" x="324.2643" y="320.6426">13</text><text fill="#000000" font-family="sans-serif" font-size="7.8" lengthAdjust="spacing" textLength="41.4527" x="336.9551" y="320.6426">mapHeight</text><polygon fill="#181818" points="203.9508,338.6742,197.9508,341.0742,203.9508,343.4742,201.5508,341.0742" style="stroke:#181818;stroke-width:0.6;"/><line style="stroke:#181818;stroke-width:0.6;stroke-dasharray:2.0,2.0;" x1="200.3508" x2="310.4643" y1="341.0742" y2="341.0742"/><text fill="#000000" font-family="sans-serif" font-size="7.8" font-weight="bold" lengthAdjust="spacing" textLength="10.2908" x="207.5508" y="338.2289">14</text><text fill="#000000" font-family="sans-serif" font-size="7.8" lengthAdjust="spacing" textLength="41.4527" x="220.2416" y="338.2289">mapHeight</text><path d="M18,350.0742 L55.2832,350.0742 L55.2832,354.4605 L49.2832,360.4605 L18,360.4605 L18,350.0742 " fill="#EEEEEE" style="stroke:#000000;stroke-width:0.8999999999999999;"/><rect fill="none" height="302.3812" style="stroke:#000000;stroke-width:0.8999999999999999;" width="639.1717" x="18" y="350.0742"/><text fill="#000000" font-family="sans-serif" font-size="7.8" font-weight="bold" lengthAdjust="spacing" textLength="10.2832" x="27" y="358.2152">alt</text><text fill="#000000" font-family="sans-serif" font-size="6.6" font-weight="bold" lengthAdjust="spacing" textLength="75.4553" x="64.2832" y="357.6551">[X or Y out of bounds]</text><polygon fill="#181818" points="50.4032,370.8469,44.4032,373.2469,50.4032,375.6469,48.0032,373.2469" style="stroke:#181818;stroke-width:0.6;"/><line style="stroke:#181818;stroke-width:0.6;stroke-dasharray:2.0,2.0;" x1="46.8032" x2="196.7508" y1="373.2469" y2="373.2469"/><text fill="#000000" font-family="sans-serif" font-size="7.8" font-weight="bold" lengthAdjust="spacing" textLength="10.2908" x="54.0032" y="370.4016">15</text><text fill="#000000" font-family="sans-serif" font-size="7.8" lengthAdjust="spacing" textLength="117.2742" x="66.694" y="370.4016">error message: invalid position</text><line style="stroke:#000000;stroke-width:0.6;stroke-dasharray:2.0,2.0;" x1="18" x2="657.1717" y1="378.6469" y2="378.6469"/><polygon fill="#181818" points="549.4585,389.6332,555.4585,392.0332,549.4585,394.4332,551.8585,392.0332" style="stroke:#181818;stroke-width:0.6;"/><line style="stroke:#181818;stroke-width:0.6;" x1="197.3508" x2="553.0585" y1="392.0332" y2="392.0332"/><text fill="#000000" font-family="sans-serif" font-size="7.8" font-weight="bold" lengthAdjust="spacing" textLength="10.2908" x="201.5508" y="389.1879">16</text><text fill="#000000" font-family="sans-serif" font-size="7.8" lengthAdjust="spacing" textLength="86.4437" x="214.2416" y="389.1879">new Position(X-1, Y-1)</text><polygon fill="#181818" points="300.8643,407.2195,306.8643,409.6195,300.8643,412.0195,303.2643,409.6195" style="stroke:#181818;stroke-width:0.6;"/><line style="stroke:#181818;stroke-width:0.6;" x1="197.3508" x2="304.4643" y1="409.6195" y2="409.6195"/><text fill="#000000" font-family="sans-serif" font-size="7.8" font-weight="bold" lengthAdjust="spacing" textLength="10.2908" x="201.5508" y="406.7742">17</text><text fill="#000000" font-family="sans-serif" font-size="7.8" lengthAdjust="spacing" textLength="86.6227" x="214.2416" y="406.7742">getOccupiedPositions()</text><polygon fill="#181818" points="417.5777,424.8059,423.5777,427.2059,417.5777,429.6059,419.9777,427.2059" style="stroke:#181818;stroke-width:0.6;"/><line style="stroke:#181818;stroke-width:0.6;" x1="314.0643" x2="421.1777" y1="427.2059" y2="427.2059"/><text fill="#000000" font-family="sans-serif" font-size="7.8" font-weight="bold" lengthAdjust="spacing" textLength="10.2908" x="318.2643" y="424.3605">18</text><text fill="#000000" font-family="sans-serif" font-size="7.8" lengthAdjust="spacing" textLength="86.6227" x="330.9551" y="424.3605">getOccupiedPositions()</text><line style="stroke:#181818;stroke-width:0.6;" x1="430.7777" x2="455.9777" y1="444.7922" y2="444.7922"/><line style="stroke:#181818;stroke-width:0.6;" x1="455.9777" x2="455.9777" y1="444.7922" y2="452.5922"/><line style="stroke:#181818;stroke-width:0.6;" x1="431.3777" x2="455.9777" y1="452.5922" y2="452.5922"/><polygon fill="#181818" points="437.3777,450.1922,431.3777,452.5922,437.3777,454.9922,434.9777,452.5922" style="stroke:#181818;stroke-width:0.6;"/><text fill="#000000" font-family="sans-serif" font-size="7.8" font-weight="bold" lengthAdjust="spacing" textLength="10.2908" x="434.9777" y="441.9469">19</text><text fill="#000000" font-family="sans-serif" font-size="7.8" lengthAdjust="spacing" textLength="95.7899" x="447.6686" y="441.9469">listAllOccupiedPositions()</text><line style="stroke:#181818;stroke-width:0.6;" x1="430.7777" x2="455.9777" y1="470.1785" y2="470.1785"/><line style="stroke:#181818;stroke-width:0.6;" x1="455.9777" x2="455.9777" y1="470.1785" y2="477.9785"/><line style="stroke:#181818;stroke-width:0.6;" x1="431.3777" x2="455.9777" y1="477.9785" y2="477.9785"/><polygon fill="#181818" points="437.3777,475.5785,431.3777,477.9785,437.3777,480.3785,434.9777,477.9785" style="stroke:#181818;stroke-width:0.6;"/><text fill="#000000" font-family="sans-serif" font-size="7.8" font-weight="bold" lengthAdjust="spacing" textLength="10.2908" x="434.9777" y="467.3332">20</text><text fill="#000000" font-family="sans-serif" font-size="7.8" lengthAdjust="spacing" textLength="88.7174" x="447.6686" y="467.3332">clear occupiedPositions</text><path d="M396.8156,486.9785 L441.4837,486.9785 L441.4837,491.3648 L435.4837,497.3648 L396.8156,497.3648 L396.8156,486.9785 " fill="#EEEEEE" style="stroke:#000000;stroke-width:0.8999999999999999;"/><rect fill="none" height="70.9453" style="stroke:#000000;stroke-width:0.8999999999999999;" width="254.3561" x="396.8156" y="486.9785"/><text fill="#000000" font-family="sans-serif" font-size="7.8" font-weight="bold" lengthAdjust="spacing" textLength="17.6681" x="405.8156" y="495.1195">loop</text><text fill="#000000" font-family="sans-serif" font-size="6.6" font-weight="bold" lengthAdjust="spacing" textLength="76.696" x="450.4837" y="494.5594">[for each mapElement]</text><polygon fill="#181818" points="604.5935,507.7512,610.5935,510.1512,604.5935,512.5512,606.9935,510.1512" style="stroke:#181818;stroke-width:0.6;"/><line style="stroke:#181818;stroke-width:0.6;" x1="430.7777" x2="608.1935" y1="510.1512" y2="510.1512"/><text fill="#000000" font-family="sans-serif" font-size="7.8" font-weight="bold" lengthAdjust="spacing" textLength="10.2908" x="434.9777" y="507.3059">21</text><text fill="#000000" font-family="sans-serif" font-size="7.8" lengthAdjust="spacing" textLength="86.6227" x="447.6686" y="507.3059">getOccupiedPositions()</text><polygon fill="#181818" points="437.3777,525.3375,431.3777,527.7375,437.3777,530.1375,434.9777,527.7375" style="stroke:#181818;stroke-width:0.6;"/><line style="stroke:#181818;stroke-width:0.6;stroke-dasharray:2.0,2.0;" x1="433.7777" x2="614.1935" y1="527.7375" y2="527.7375"/><text fill="#000000" font-family="sans-serif" font-size="7.8" font-weight="bold" lengthAdjust="spacing" textLength="10.2908" x="440.9777" y="524.8922">22</text><text fill="#000000" font-family="sans-serif" font-size="7.8" lengthAdjust="spacing" textLength="71.2207" x="453.6686" y="524.8922">occupied positions</text><line style="stroke:#181818;stroke-width:0.6;" x1="430.7777" x2="455.9777" y1="545.3238" y2="545.3238"/><line style="stroke:#181818;stroke-width:0.6;" x1="455.9777" x2="455.9777" y1="545.3238" y2="553.1238"/><line style="stroke:#181818;stroke-width:0.6;" x1="431.3777" x2="455.9777" y1="553.1238" y2="553.1238"/><polygon fill="#181818" points="437.3777,550.7238,431.3777,553.1238,437.3777,555.5238,434.9777,553.1238" style="stroke:#181818;stroke-width:0.6;"/><text fill="#000000" font-family="sans-serif" font-size="7.8" font-weight="bold" lengthAdjust="spacing" textLength="10.2908" x="434.9777" y="542.4785">23</text><text fill="#000000" font-family="sans-serif" font-size="7.8" lengthAdjust="spacing" textLength="87.8147" x="447.6686" y="542.4785">add occupied positions</text><polygon fill="#181818" points="320.6643,572.5102,314.6643,574.9102,320.6643,577.3102,318.2643,574.9102" style="stroke:#181818;stroke-width:0.6;"/><line style="stroke:#181818;stroke-width:0.6;stroke-dasharray:2.0,2.0;" x1="317.0643" x2="427.1777" y1="574.9102" y2="574.9102"/><text fill="#000000" font-family="sans-serif" font-size="7.8" font-weight="bold" lengthAdjust="spacing" textLength="10.2908" x="324.2643" y="572.0648">24</text><text fill="#000000" font-family="sans-serif" font-size="7.8" lengthAdjust="spacing" textLength="82.0257" x="336.9551" y="572.0648">occupiedPositions list</text><polygon fill="#181818" points="203.9508,590.0965,197.9508,592.4965,203.9508,594.8965,201.5508,592.4965" style="stroke:#181818;stroke-width:0.6;"/><line style="stroke:#181818;stroke-width:0.6;stroke-dasharray:2.0,2.0;" x1="200.3508" x2="310.4643" y1="592.4965" y2="592.4965"/><text fill="#000000" font-family="sans-serif" font-size="7.8" font-weight="bold" lengthAdjust="spacing" textLength="10.2908" x="207.5508" y="589.6512">25</text><text fill="#000000" font-family="sans-serif" font-size="7.8" lengthAdjust="spacing" textLength="68.1548" x="220.2416" y="589.6512">occupiedPositions</text><path d="M24,601.4965 L61.2832,601.4965 L61.2832,605.8828 L55.2832,611.8828 L24,611.8828 L24,601.4965 " fill="#EEEEEE" style="stroke:#000000;stroke-width:0.8999999999999999;"/><rect fill="none" height="46.759" style="stroke:#000000;stroke-width:0.8999999999999999;" width="343.9175" x="24" y="601.4965"/><text fill="#000000" font-family="sans-serif" font-size="7.8" font-weight="bold" lengthAdjust="spacing" textLength="10.2832" x="33" y="609.6375">alt</text><text fill="#000000" font-family="sans-serif" font-size="6.6" font-weight="bold" lengthAdjust="spacing" textLength="65.2395" x="70.2832" y="609.0773">[position occupied]</text><polygon fill="#181818" points="50.4032,622.2691,44.4032,624.6691,50.4032,627.0691,48.0032,624.6691" style="stroke:#181818;stroke-width:0.6;"/><line style="stroke:#181818;stroke-width:0.6;stroke-dasharray:2.0,2.0;" x1="46.8032" x2="196.7508" y1="624.6691" y2="624.6691"/><text fill="#000000" font-family="sans-serif" font-size="7.8" font-weight="bold" lengthAdjust="spacing" textLength="10.2908" x="54.0032" y="621.8238">26</text><text fill="#000000" font-family="sans-serif" font-size="7.8" lengthAdjust="spacing" textLength="126.4567" x="66.694" y="621.8238">error message: position occupied</text><line style="stroke:#000000;stroke-width:0.6;stroke-dasharray:2.0,2.0;" x1="24" x2="367.9175" y1="630.0691" y2="630.0691"/><polygon fill="#181818" points="303.8643,641.0555,309.8643,643.4555,303.8643,645.8555,306.2643,643.4555" style="stroke:#181818;stroke-width:0.6;"/><line style="stroke:#181818;stroke-width:0.6;" x1="197.3508" x2="307.4643" y1="643.4555" y2="643.4555"/><text fill="#000000" font-family="sans-serif" font-size="7.8" font-weight="bold" lengthAdjust="spacing" textLength="10.2908" x="201.5508" y="640.6102">27</text><text fill="#000000" font-family="sans-serif" font-size="7.8" lengthAdjust="spacing" textLength="77.185" x="214.2416" y="640.6102">setPosition(position)</text><!--SRC=[lLHTQo8n57sVNt7nIM5zwAiFWdI55IgLjT8A2qiwkOx1c8H9fiN- -hsJQKRZVDJTXnLqnkISSx-lFGXbMCwEO5XwO1cktKaYv9WwfZA9YQq1Ti-uVXSgWnsJzl962eNkP11qxlOwOONJgZY-OfuaB7KwXy6S2teEW5cOVtzAYEP4AWnJ3WQJ6USBnGlhyjDcuJ6RHJVaNYkNQocnahj_-laGWybamUIIcLzgGhyUjPojOf3HLZYX5M5MdwyUk7fSny0ZCtE9HrIkally4rH_pn_cooJ9SbqO22v2aAGJKxW4w2ErDb0e9oIyCIau10_yRVdPB60ydfRvWGcf7s17cNjfuYW-ySOS-ao6mv95PDAO0Bc7nAplE4QKVeFRVpQulSdWr5UCI1cwPy7Tdd8w73Lj-Rg6KqyXAYMyOgx51xQnoZg7mn9yoV7MBaZ-_kmF5TeZsgAubAry2Q7tiNm8dS7_G97jtN-BlZBN6tu5-Uluksbn0fXqrCw-nNJXGE_WLHUAsnhGw4dCSu8VqLfQJ1CGgcDoi5n7rohJSfP9HE5xFO_3b_7TDzYExqOjy7Df7jEqC09veDbXZ6ylKskfRfQwJ76ZVb9ODvFoAx68aqfaEUXhIaJmIwcSUghP7iwhBWB5odxXtHRRTNpLhcoHhZJ7jUl1wRhIji6AcxDJ-PmEnlbNkgXuCvtdncYaqfSbwVQgfJF2sFINfNE4mXW5_skTHknzSzJFRWnJOq8ikdgWWjQeCvFXlNpIzmy0]--></g></svg>