<svg xmlns="http://www.w3.org/2000/svg" xmlns:xlink="http://www.w3.org/1999/xlink" contentStyleType="text/css" height="476px" preserveAspectRatio="none" style="width:809px;height:476px;background:#FFFFFF;" version="1.1" viewBox="0 0 809 476" width="809px" zoomAndPan="magnify"><defs/><g><rect fill="#FFFFFF" height="294.4395" style="stroke:#181818;stroke-width:1.0;" width="10" x="38.1797" y="91.4883"/><rect fill="#FFFFFF" height="29.3105" style="stroke:#181818;stroke-width:1.0;" width="10" x="43.1797" y="112.7988"/><rect fill="#FFFFFF" height="30" style="stroke:#181818;stroke-width:1.0;" width="10" x="43.1797" y="225.041"/><rect fill="none" height="192.5078" style="stroke:#000000;stroke-width:1.5;" width="792.7358" x="10" y="186.4199"/><line style="stroke:#181818;stroke-width:0.5;stroke-dasharray:5.0,5.0;" x1="43" x2="43" y1="81.4883" y2="395.9277"/><line style="stroke:#181818;stroke-width:0.5;stroke-dasharray:5.0,5.0;" x1="294.2603" x2="294.2603" y1="81.4883" y2="395.9277"/><line style="stroke:#181818;stroke-width:0.5;stroke-dasharray:5.0,5.0;" x1="557.564" x2="557.564" y1="81.4883" y2="395.9277"/><text fill="#000000" font-family="sans-serif" font-size="14" lengthAdjust="spacing" textLength="40.3594" x="20" y="78.5352">Player</text><ellipse cx="43.1797" cy="13.5" fill="#E2E2F0" rx="8" ry="8" style="stroke:#181818;stroke-width:0.5;"/><path d="M43.1797,21.5 L43.1797,48.5 M30.1797,29.5 L56.1797,29.5 M43.1797,48.5 L30.1797,63.5 M43.1797,48.5 L56.1797,63.5 " fill="none" style="stroke:#181818;stroke-width:0.5;"/><text fill="#000000" font-family="sans-serif" font-size="14" lengthAdjust="spacing" textLength="40.3594" x="20" y="408.4629">Player</text><ellipse cx="43.1797" cy="419.916" fill="#E2E2F0" rx="8" ry="8" style="stroke:#181818;stroke-width:0.5;"/><path d="M43.1797,427.916 L43.1797,454.916 M30.1797,435.916 L56.1797,435.916 M43.1797,454.916 L30.1797,469.916 M43.1797,454.916 L56.1797,469.916 " fill="none" style="stroke:#181818;stroke-width:0.5;"/><rect fill="#E2E2F0" height="30.4883" rx="2.5" ry="2.5" style="stroke:#181818;stroke-width:0.5;" width="226.3037" x="181.2603" y="50"/><text fill="#000000" font-family="sans-serif" font-size="14" lengthAdjust="spacing" textLength="212.3037" x="188.2603" y="70.5352">:ConnectivityBetweenStationsUI</text><rect fill="#E2E2F0" height="30.4883" rx="2.5" ry="2.5" style="stroke:#181818;stroke-width:0.5;" width="226.3037" x="181.2603" y="394.9277"/><text fill="#000000" font-family="sans-serif" font-size="14" lengthAdjust="spacing" textLength="212.3037" x="188.2603" y="415.4629">:ConnectivityBetweenStationsUI</text><rect fill="#E2E2F0" height="30.4883" rx="2.5" ry="2.5" style="stroke:#181818;stroke-width:0.5;" width="280.7314" x="417.564" y="50"/><text fill="#000000" font-family="sans-serif" font-size="14" lengthAdjust="spacing" textLength="266.7314" x="424.564" y="70.5352">:ConnectivityBetweenStationsController</text><rect fill="#E2E2F0" height="30.4883" rx="2.5" ry="2.5" style="stroke:#181818;stroke-width:0.5;" width="280.7314" x="417.564" y="394.9277"/><text fill="#000000" font-family="sans-serif" font-size="14" lengthAdjust="spacing" textLength="266.7314" x="424.564" y="415.4629">:ConnectivityBetweenStationsController</text><rect fill="#FFFFFF" height="294.4395" style="stroke:#181818;stroke-width:1.0;" width="10" x="38.1797" y="91.4883"/><rect fill="#FFFFFF" height="29.3105" style="stroke:#181818;stroke-width:1.0;" width="10" x="43.1797" y="112.7988"/><rect fill="#FFFFFF" height="30" style="stroke:#181818;stroke-width:1.0;" width="10" x="43.1797" y="225.041"/><polygon fill="#181818" points="64.1797,108.7988,54.1797,112.7988,64.1797,116.7988,60.1797,112.7988" style="stroke:#181818;stroke-width:1.0;"/><line style="stroke:#181818;stroke-width:1.0;stroke-dasharray:2.0,2.0;" x1="58.1797" x2="293.4121" y1="112.7988" y2="112.7988"/><text fill="#000000" font-family="sans-serif" font-size="13" font-weight="bold" lengthAdjust="spacing" textLength="8.5757" x="70.1797" y="108.0566">1</text><text fill="#000000" font-family="sans-serif" font-size="13" lengthAdjust="spacing" textLength="209.6567" x="82.7554" y="108.0566">Request destination station input</text><polygon fill="#181818" points="282.4121,138.1094,292.4121,142.1094,282.4121,146.1094,286.4121,142.1094" style="stroke:#181818;stroke-width:1.0;"/><line style="stroke:#181818;stroke-width:1.0;" x1="48.1797" x2="288.4121" y1="142.1094" y2="142.1094"/><text fill="#000000" font-family="sans-serif" font-size="13" font-weight="bold" lengthAdjust="spacing" textLength="8.5757" x="55.1797" y="137.3672">2</text><text fill="#000000" font-family="sans-serif" font-size="13" lengthAdjust="spacing" textLength="193.4385" x="67.7554" y="137.3672">Enter destination station name</text><polygon fill="#181818" points="545.9297,167.4199,555.9297,171.4199,545.9297,175.4199,549.9297,171.4199" style="stroke:#181818;stroke-width:1.0;"/><line style="stroke:#181818;stroke-width:1.0;" x1="294.4121" x2="551.9297" y1="171.4199" y2="171.4199"/><text fill="#000000" font-family="sans-serif" font-size="13" font-weight="bold" lengthAdjust="spacing" textLength="8.5757" x="301.4121" y="166.6777">3</text><text fill="#000000" font-family="sans-serif" font-size="13" lengthAdjust="spacing" textLength="211.561" x="313.9878" y="166.6777">Validate destination station name</text><path d="M10,186.4199 L72.1387,186.4199 L72.1387,193.7305 L62.1387,203.7305 L10,203.7305 L10,186.4199 " fill="#EEEEEE" style="stroke:#000000;stroke-width:1.5;"/><rect fill="none" height="192.5078" style="stroke:#000000;stroke-width:1.5;" width="792.7358" x="10" y="186.4199"/><text fill="#000000" font-family="sans-serif" font-size="13" font-weight="bold" lengthAdjust="spacing" textLength="17.1387" x="25" y="199.9883">alt</text><text fill="#000000" font-family="sans-serif" font-size="11" font-weight="bold" lengthAdjust="spacing" textLength="157.1045" x="87.1387" y="199.0547">[Invalid destination station]</text><polygon fill="#181818" points="64.1797,221.041,54.1797,225.041,64.1797,229.041,60.1797,225.041" style="stroke:#181818;stroke-width:1.0;"/><line style="stroke:#181818;stroke-width:1.0;stroke-dasharray:2.0,2.0;" x1="58.1797" x2="293.4121" y1="225.041" y2="225.041"/><text fill="#000000" font-family="sans-serif" font-size="13" font-weight="bold" lengthAdjust="spacing" textLength="8.5757" x="70.1797" y="220.2988">4</text><text fill="#000000" font-family="sans-serif" font-size="13" lengthAdjust="spacing" textLength="187.3638" x="82.7554" y="220.2988">Error message: Invalid station</text><line style="stroke:#000000;stroke-width:1.0;stroke-dasharray:2.0,2.0;" x1="10" x2="802.7358" y1="264.041" y2="264.041"/><text fill="#000000" font-family="sans-serif" font-size="11" font-weight="bold" lengthAdjust="spacing" textLength="147.3936" x="15" y="274.6758">[Valid destination station]</text><polygon fill="#181818" points="545.9297,295.3066,555.9297,299.3066,545.9297,303.3066,549.9297,299.3066" style="stroke:#181818;stroke-width:1.0;"/><line style="stroke:#181818;stroke-width:1.0;" x1="294.4121" x2="551.9297" y1="299.3066" y2="299.3066"/><text fill="#000000" font-family="sans-serif" font-size="13" font-weight="bold" lengthAdjust="spacing" textLength="8.5757" x="301.4121" y="294.5645">5</text><text fill="#000000" font-family="sans-serif" font-size="13" lengthAdjust="spacing" textLength="150.3125" x="313.9878" y="294.5645">Save destination station</text><line style="stroke:#181818;stroke-width:1.0;" x1="557.9297" x2="599.9297" y1="328.6172" y2="328.6172"/><line style="stroke:#181818;stroke-width:1.0;" x1="599.9297" x2="599.9297" y1="328.6172" y2="341.6172"/><line style="stroke:#181818;stroke-width:1.0;" x1="558.9297" x2="599.9297" y1="341.6172" y2="341.6172"/><polygon fill="#181818" points="568.9297,337.6172,558.9297,341.6172,568.9297,345.6172,564.9297,341.6172" style="stroke:#181818;stroke-width:1.0;"/><text fill="#000000" font-family="sans-serif" font-size="13" font-weight="bold" lengthAdjust="spacing" textLength="8.5757" x="564.9297" y="323.875">6</text><text fill="#000000" font-family="sans-serif" font-size="13" lengthAdjust="spacing" textLength="213.2305" x="577.5054" y="323.875">Save destination station internally</text><polygon fill="#181818" points="305.4121,366.9277,295.4121,370.9277,305.4121,374.9277,301.4121,370.9277" style="stroke:#181818;stroke-width:1.0;"/><line style="stroke:#181818;stroke-width:1.0;stroke-dasharray:2.0,2.0;" x1="299.4121" x2="556.9297" y1="370.9277" y2="370.9277"/><text fill="#000000" font-family="sans-serif" font-size="13" font-weight="bold" lengthAdjust="spacing" textLength="8.5757" x="311.4121" y="366.1855">7</text><text fill="#000000" font-family="sans-serif" font-size="13" lengthAdjust="spacing" textLength="179.9243" x="323.9878" y="366.1855">Destination station accepted</text><!--SRC=[ZPB1ReCm38RlF8N5lI_0eOTrFI3jCBLbTmyy6ZKuB35KlFtSGD7KqNOve8Jy_-VVc70otAB71beiJrZJNWPBuAaKvDfI4cP1E6BbpePh-48RVjzOmoH3I-2y75s2dJZkca_oIOAbE0_fkyM1V0eOODmcwXHJcXPP8CqsZbbBcjx8y49o9kAze1Z7eSYZhSZ_Rz4hySxQgUBci7kBIKoFGjS0eAl8ORLQJsyWWnrzTnG4AdqOZZ088nIqsKwYQuaq8HIcp0osB7fQmZ0s51qLtKkqZecLye7ML1V1Gn1QWPpxYtP963LBpMwzrz4q58AEFPiHjxQbbFVpa_uPO-wdMUOszzZJGtNKFTVhYFIhCrext5YlOtbTC65PKYjKZV6vIluqzWC0]--></g></svg>