<svg xmlns="http://www.w3.org/2000/svg" xmlns:xlink="http://www.w3.org/1999/xlink" contentStyleType="text/css" height="476px" preserveAspectRatio="none" style="width:753px;height:476px;background:#FFFFFF;" version="1.1" viewBox="0 0 753 476" width="753px" zoomAndPan="magnify"><defs/><g><rect fill="#FFFFFF" height="294.4395" style="stroke:#181818;stroke-width:1.0;" width="10" x="38.1797" y="91.4883"/><rect fill="#FFFFFF" height="29.3105" style="stroke:#181818;stroke-width:1.0;" width="10" x="43.1797" y="112.7988"/><rect fill="#FFFFFF" height="30" style="stroke:#181818;stroke-width:1.0;" width="10" x="43.1797" y="225.041"/><rect fill="none" height="192.5078" style="stroke:#000000;stroke-width:1.5;" width="736.8447" x="10" y="186.4199"/><line style="stroke:#181818;stroke-width:0.5;stroke-dasharray:5.0,5.0;" x1="43" x2="43" y1="81.4883" y2="395.9277"/><line style="stroke:#181818;stroke-width:0.5;stroke-dasharray:5.0,5.0;" x1="271.9673" x2="271.9673" y1="81.4883" y2="395.9277"/><line style="stroke:#181818;stroke-width:0.5;stroke-dasharray:5.0,5.0;" x1="535.271" x2="535.271" y1="81.4883" y2="395.9277"/><text fill="#000000" font-family="sans-serif" font-size="14" lengthAdjust="spacing" textLength="40.3594" x="20" y="78.5352">Player</text><ellipse cx="43.1797" cy="13.5" fill="#E2E2F0" rx="8" ry="8" style="stroke:#181818;stroke-width:0.5;"/><path d="M43.1797,21.5 L43.1797,48.5 M30.1797,29.5 L56.1797,29.5 M43.1797,48.5 L30.1797,63.5 M43.1797,48.5 L56.1797,63.5 " fill="none" style="stroke:#181818;stroke-width:0.5;"/><text fill="#000000" font-family="sans-serif" font-size="14" lengthAdjust="spacing" textLength="40.3594" x="20" y="408.4629">Player</text><ellipse cx="43.1797" cy="419.916" fill="#E2E2F0" rx="8" ry="8" style="stroke:#181818;stroke-width:0.5;"/><path d="M43.1797,427.916 L43.1797,454.916 M30.1797,435.916 L56.1797,435.916 M43.1797,454.916 L30.1797,469.916 M43.1797,454.916 L56.1797,469.916 " fill="none" style="stroke:#181818;stroke-width:0.5;"/><rect fill="#E2E2F0" height="30.4883" rx="2.5" ry="2.5" style="stroke:#181818;stroke-width:0.5;" width="226.3037" x="158.9673" y="50"/><text fill="#000000" font-family="sans-serif" font-size="14" lengthAdjust="spacing" textLength="212.3037" x="165.9673" y="70.5352">:ConnectivityBetweenStationsUI</text><rect fill="#E2E2F0" height="30.4883" rx="2.5" ry="2.5" style="stroke:#181818;stroke-width:0.5;" width="226.3037" x="158.9673" y="394.9277"/><text fill="#000000" font-family="sans-serif" font-size="14" lengthAdjust="spacing" textLength="212.3037" x="165.9673" y="415.4629">:ConnectivityBetweenStationsUI</text><rect fill="#E2E2F0" height="30.4883" rx="2.5" ry="2.5" style="stroke:#181818;stroke-width:0.5;" width="280.7314" x="395.271" y="50"/><text fill="#000000" font-family="sans-serif" font-size="14" lengthAdjust="spacing" textLength="266.7314" x="402.271" y="70.5352">:ConnectivityBetweenStationsController</text><rect fill="#E2E2F0" height="30.4883" rx="2.5" ry="2.5" style="stroke:#181818;stroke-width:0.5;" width="280.7314" x="395.271" y="394.9277"/><text fill="#000000" font-family="sans-serif" font-size="14" lengthAdjust="spacing" textLength="266.7314" x="402.271" y="415.4629">:ConnectivityBetweenStationsController</text><rect fill="#FFFFFF" height="294.4395" style="stroke:#181818;stroke-width:1.0;" width="10" x="38.1797" y="91.4883"/><rect fill="#FFFFFF" height="29.3105" style="stroke:#181818;stroke-width:1.0;" width="10" x="43.1797" y="112.7988"/><rect fill="#FFFFFF" height="30" style="stroke:#181818;stroke-width:1.0;" width="10" x="43.1797" y="225.041"/><polygon fill="#181818" points="64.1797,108.7988,54.1797,112.7988,64.1797,116.7988,60.1797,112.7988" style="stroke:#181818;stroke-width:1.0;"/><line style="stroke:#181818;stroke-width:1.0;stroke-dasharray:2.0,2.0;" x1="58.1797" x2="271.1191" y1="112.7988" y2="112.7988"/><text fill="#000000" font-family="sans-serif" font-size="13" font-weight="bold" lengthAdjust="spacing" textLength="8.5757" x="70.1797" y="108.0566">1</text><text fill="#000000" font-family="sans-serif" font-size="13" lengthAdjust="spacing" textLength="176.0586" x="82.7554" y="108.0566">Request origin station input</text><polygon fill="#181818" points="260.1191,138.1094,270.1191,142.1094,260.1191,146.1094,264.1191,142.1094" style="stroke:#181818;stroke-width:1.0;"/><line style="stroke:#181818;stroke-width:1.0;" x1="48.1797" x2="266.1191" y1="142.1094" y2="142.1094"/><text fill="#000000" font-family="sans-serif" font-size="13" font-weight="bold" lengthAdjust="spacing" textLength="8.5757" x="55.1797" y="137.3672">2</text><text fill="#000000" font-family="sans-serif" font-size="13" lengthAdjust="spacing" textLength="159.8403" x="67.7554" y="137.3672">Enter origin station name</text><polygon fill="#181818" points="523.6367,167.4199,533.6367,171.4199,523.6367,175.4199,527.6367,171.4199" style="stroke:#181818;stroke-width:1.0;"/><line style="stroke:#181818;stroke-width:1.0;" x1="272.1191" x2="529.6367" y1="171.4199" y2="171.4199"/><text fill="#000000" font-family="sans-serif" font-size="13" font-weight="bold" lengthAdjust="spacing" textLength="8.5757" x="279.1191" y="166.6777">3</text><text fill="#000000" font-family="sans-serif" font-size="13" lengthAdjust="spacing" textLength="177.9629" x="291.6948" y="166.6777">Validate origin station name</text><path d="M10,186.4199 L72.1387,186.4199 L72.1387,193.7305 L62.1387,203.7305 L10,203.7305 L10,186.4199 " fill="#EEEEEE" style="stroke:#000000;stroke-width:1.5;"/><rect fill="none" height="192.5078" style="stroke:#000000;stroke-width:1.5;" width="736.8447" x="10" y="186.4199"/><text fill="#000000" font-family="sans-serif" font-size="13" font-weight="bold" lengthAdjust="spacing" textLength="17.1387" x="25" y="199.9883">alt</text><text fill="#000000" font-family="sans-serif" font-size="11" font-weight="bold" lengthAdjust="spacing" textLength="126.8008" x="87.1387" y="199.0547">[Invalid origin station]</text><polygon fill="#181818" points="64.1797,221.041,54.1797,225.041,64.1797,229.041,60.1797,225.041" style="stroke:#181818;stroke-width:1.0;"/><line style="stroke:#181818;stroke-width:1.0;stroke-dasharray:2.0,2.0;" x1="58.1797" x2="271.1191" y1="225.041" y2="225.041"/><text fill="#000000" font-family="sans-serif" font-size="13" font-weight="bold" lengthAdjust="spacing" textLength="8.5757" x="70.1797" y="220.2988">4</text><text fill="#000000" font-family="sans-serif" font-size="13" lengthAdjust="spacing" textLength="187.3638" x="82.7554" y="220.2988">Error message: Invalid station</text><line style="stroke:#000000;stroke-width:1.0;stroke-dasharray:2.0,2.0;" x1="10" x2="746.8447" y1="264.041" y2="264.041"/><text fill="#000000" font-family="sans-serif" font-size="11" font-weight="bold" lengthAdjust="spacing" textLength="117.0898" x="15" y="274.6758">[Valid origin station]</text><polygon fill="#181818" points="523.6367,295.3066,533.6367,299.3066,523.6367,303.3066,527.6367,299.3066" style="stroke:#181818;stroke-width:1.0;"/><line style="stroke:#181818;stroke-width:1.0;" x1="272.1191" x2="529.6367" y1="299.3066" y2="299.3066"/><text fill="#000000" font-family="sans-serif" font-size="13" font-weight="bold" lengthAdjust="spacing" textLength="8.5757" x="279.1191" y="294.5645">5</text><text fill="#000000" font-family="sans-serif" font-size="13" lengthAdjust="spacing" textLength="116.7144" x="291.6948" y="294.5645">Save origin station</text><line style="stroke:#181818;stroke-width:1.0;" x1="535.6367" x2="577.6367" y1="328.6172" y2="328.6172"/><line style="stroke:#181818;stroke-width:1.0;" x1="577.6367" x2="577.6367" y1="328.6172" y2="341.6172"/><line style="stroke:#181818;stroke-width:1.0;" x1="536.6367" x2="577.6367" y1="341.6172" y2="341.6172"/><polygon fill="#181818" points="546.6367,337.6172,536.6367,341.6172,546.6367,345.6172,542.6367,341.6172" style="stroke:#181818;stroke-width:1.0;"/><text fill="#000000" font-family="sans-serif" font-size="13" font-weight="bold" lengthAdjust="spacing" textLength="8.5757" x="542.6367" y="323.875">6</text><text fill="#000000" font-family="sans-serif" font-size="13" lengthAdjust="spacing" textLength="179.6323" x="555.2124" y="323.875">Save origin station internally</text><polygon fill="#181818" points="283.1191,366.9277,273.1191,370.9277,283.1191,374.9277,279.1191,370.9277" style="stroke:#181818;stroke-width:1.0;"/><line style="stroke:#181818;stroke-width:1.0;stroke-dasharray:2.0,2.0;" x1="277.1191" x2="534.6367" y1="370.9277" y2="370.9277"/><text fill="#000000" font-family="sans-serif" font-size="13" font-weight="bold" lengthAdjust="spacing" textLength="8.5757" x="289.1191" y="366.1855">7</text><text fill="#000000" font-family="sans-serif" font-size="13" lengthAdjust="spacing" textLength="146.8848" x="301.6948" y="366.1855">Origin station accepted</text><!--SRC=[ZL8nRiCm3Dpz2Y9xFk0XGuCC1WgqIEhkhCmwGcJAbMW7_dqPsGbQDmwgIHBlZdUYuiboYm4RQD6SiAQ338uWa17asb4MRu1unCgVBTVmYIx-h3ZB94DBu8CSVOQTUEwQ3mfPXaPyWDMhmu722Z32kCsKATRO5bbWbMyzixQqlPNXYUHCn0T1iPvZMIHQMVoVeYK9thcfu_Pj_voSs1w5hWP0Lrd0UhsPRY27FNrr54LpsDeon54FD6SdYN1FP6AhZihbi6FHqqo1iQ44hcZ9noRvL85tTBQw09Oqq0aKt5zWCqmgtmks2q77q52CEkBynfxJxdbRTatw2qQtZspSSXsmfoLWWZo4wX3qNHcT6sQiwyE__CQZCTGALQDLhh8_8Ru1]--></g></svg>