<svg xmlns="http://www.w3.org/2000/svg" xmlns:xlink="http://www.w3.org/1999/xlink" contentStyleType="text/css" height="542.4px" preserveAspectRatio="none" style="width:1625px;height:542px;background:#FFFFFF;" version="1.1" viewBox="0 0 1625 542" width="1625.4px" zoomAndPan="magnify"><defs/><g><!--class Station--><g id="elem_Station"><rect codeLine="11" fill="#F1F1F1" height="73.4906" id="Station" rx="1.5" ry="1.5" style="stroke:#181818;stroke-width:0.3;" width="103.1479" x="527.4" y="454.2"/><ellipse cx="563.3481" cy="463.8" fill="#ADD1B2" rx="6.6" ry="6.6" style="stroke:#181818;stroke-width:0.6;"/><path d="M565.0075,461.325 Q565.1013,461.1937 565.2138,461.1281 Q565.3263,461.0625 565.4575,461.0625 Q565.6825,461.0625 565.8231,461.2219 Q565.9638,461.3719 565.9638,461.7375 L565.9638,462.6094 Q565.9638,462.975 565.8231,463.1344 Q565.6825,463.2938 565.4575,463.2938 Q565.2513,463.2938 565.1294,463.1719 Q565.0075,463.0594 564.9419,462.75 Q564.9138,462.5344 564.8013,462.4219 Q564.6044,462.1969 564.2388,462.0656 Q563.8731,461.9344 563.4981,461.9344 Q563.0388,461.9344 562.6544,462.1312 Q562.2794,462.3281 561.9794,462.7781 Q561.6888,463.2281 561.6888,463.8469 L561.6888,464.5031 Q561.6888,465.2438 562.2231,465.7406 Q562.7575,466.2281 563.7138,466.2281 Q564.2763,466.2281 564.67,466.0781 Q564.9044,465.9844 565.1575,465.7219 Q565.3169,465.5625 565.4013,465.5156 Q565.495,465.4688 565.6169,465.4688 Q565.8138,465.4688 565.9638,465.6281 Q566.1231,465.7781 566.1231,465.9844 Q566.1231,466.1906 565.9169,466.4344 Q565.6169,466.7813 565.1388,466.9781 Q564.4919,467.25 563.7138,467.25 Q562.8044,467.25 562.0825,466.875 Q561.4919,466.575 561.0794,465.9375 Q560.6669,465.2906 560.6669,464.5219 L560.6669,463.8281 Q560.6669,463.0313 561.0325,462.3469 Q561.4075,461.6531 562.0638,461.2875 Q562.72,460.9125 563.4606,460.9125 Q563.9013,460.9125 564.2856,461.0156 Q564.6794,461.1094 565.0075,461.325 Z " fill="#000000"/><text fill="#000000" font-family="sans-serif" font-size="8.4" lengthAdjust="spacing" textLength="26.1516" x="575.6481" y="467.2781">Station</text><line style="stroke:#181818;stroke-width:0.3;" x1="528" x2="629.9479" y1="473.4" y2="473.4"/><text fill="#000000" font-family="sans-serif" font-size="8.4" lengthAdjust="spacing" textLength="52.7543" x="531" y="484.8645">-name : String</text><text fill="#000000" font-family="sans-serif" font-size="8.4" lengthAdjust="spacing" textLength="70.5018" x="531" y="496.0371">-type : StationType</text><line style="stroke:#181818;stroke-width:0.3;" x1="528" x2="629.9479" y1="500.5453" y2="500.5453"/><text fill="#000000" font-family="sans-serif" font-size="8.4" lengthAdjust="spacing" textLength="73.5287" x="531" y="512.0098">+getName() : String</text><text fill="#000000" font-family="sans-serif" font-size="8.4" lengthAdjust="spacing" textLength="95.9479" x="531" y="523.1824">+getStationType() : String</text></g><!--class RailwayLine--><g id="elem_RailwayLine"><rect codeLine="18" fill="#F1F1F1" height="118.1812" id="RailwayLine" rx="1.5" ry="1.5" style="stroke:#181818;stroke-width:0.3;" width="140.9602" x="508.5" y="277.2"/><ellipse cx="553.7854" cy="286.8" fill="#ADD1B2" rx="6.6" ry="6.6" style="stroke:#181818;stroke-width:0.6;"/><path d="M555.4447,284.325 Q555.5385,284.1937 555.651,284.1281 Q555.7635,284.0625 555.8947,284.0625 Q556.1197,284.0625 556.2604,284.2219 Q556.401,284.3719 556.401,284.7375 L556.401,285.6094 Q556.401,285.975 556.2604,286.1344 Q556.1197,286.2938 555.8947,286.2938 Q555.6885,286.2938 555.5666,286.1719 Q555.4447,286.0594 555.3791,285.75 Q555.351,285.5344 555.2385,285.4219 Q555.0416,285.1969 554.676,285.0656 Q554.3104,284.9344 553.9354,284.9344 Q553.476,284.9344 553.0916,285.1312 Q552.7166,285.3281 552.4166,285.7781 Q552.126,286.2281 552.126,286.8469 L552.126,287.5031 Q552.126,288.2438 552.6604,288.7406 Q553.1947,289.2281 554.151,289.2281 Q554.7135,289.2281 555.1072,289.0781 Q555.3416,288.9844 555.5947,288.7219 Q555.7541,288.5625 555.8385,288.5156 Q555.9322,288.4688 556.0541,288.4688 Q556.251,288.4688 556.401,288.6281 Q556.5604,288.7781 556.5604,288.9844 Q556.5604,289.1906 556.3541,289.4344 Q556.0541,289.7813 555.576,289.9781 Q554.9291,290.25 554.151,290.25 Q553.2416,290.25 552.5197,289.875 Q551.9291,289.575 551.5166,288.9375 Q551.1041,288.2906 551.1041,287.5219 L551.1041,286.8281 Q551.1041,286.0313 551.4697,285.3469 Q551.8447,284.6531 552.501,284.2875 Q553.1572,283.9125 553.8979,283.9125 Q554.3385,283.9125 554.7229,284.0156 Q555.1166,284.1094 555.4447,284.325 Z " fill="#000000"/><text fill="#000000" font-family="sans-serif" font-size="8.4" lengthAdjust="spacing" textLength="45.2895" x="566.0854" y="290.2781">RailwayLine</text><line style="stroke:#181818;stroke-width:0.3;" x1="509.1" x2="648.8602" y1="296.4" y2="296.4"/><text fill="#000000" font-family="sans-serif" font-size="8.4" lengthAdjust="spacing" textLength="65.3707" x="512.1" y="307.8645">-station1 : Station</text><text fill="#000000" font-family="sans-serif" font-size="8.4" lengthAdjust="spacing" textLength="65.3707" x="512.1" y="319.0371">-station2 : Station</text><text fill="#000000" font-family="sans-serif" font-size="8.4" lengthAdjust="spacing" textLength="89.6396" x="512.1" y="330.2098">-type : RailwayLineType</text><line style="stroke:#181818;stroke-width:0.3;" x1="509.1" x2="648.8602" y1="334.718" y2="334.718"/><text fill="#000000" font-family="sans-serif" font-size="8.4" lengthAdjust="spacing" textLength="108.5643" x="512.1" y="346.1824">+getStations() : List&lt;Station&gt;</text><text fill="#000000" font-family="sans-serif" font-size="8.4" lengthAdjust="spacing" textLength="133.7602" x="512.1" y="357.3551">+getTypeEnum() : RailwayLineType</text><text fill="#000000" font-family="sans-serif" font-size="8.4" lengthAdjust="spacing" textLength="104.352" x="512.1" y="368.5277">+getNameStation1() : String</text><text fill="#000000" font-family="sans-serif" font-size="8.4" lengthAdjust="spacing" textLength="104.352" x="512.1" y="379.7004">+getNameStation2() : String</text><text fill="#000000" font-family="sans-serif" font-size="8.4" lengthAdjust="spacing" textLength="12.5959" x="512.1" y="390.873">...()</text></g><!--class ConnectivityBetweenStationsUI--><g id="elem_ConnectivityBetweenStationsUI"><rect codeLine="32" fill="#F1F1F1" height="95.8359" id="ConnectivityBetweenStationsUI" rx="1.5" ry="1.5" style="stroke:#181818;stroke-width:0.3;" width="196.7537" x="811.2" y="442.8"/><ellipse cx="848.4299" cy="452.4" fill="#ADD1B2" rx="6.6" ry="6.6" style="stroke:#181818;stroke-width:0.6;"/><path d="M850.0893,449.925 Q850.183,449.7938 850.2955,449.7281 Q850.408,449.6625 850.5393,449.6625 Q850.7643,449.6625 850.9049,449.8219 Q851.0455,449.9719 851.0455,450.3375 L851.0455,451.2094 Q851.0455,451.575 850.9049,451.7344 Q850.7643,451.8938 850.5393,451.8938 Q850.333,451.8938 850.2111,451.7719 Q850.0893,451.6594 850.0236,451.35 Q849.9955,451.1344 849.883,451.0219 Q849.6861,450.7969 849.3205,450.6656 Q848.9549,450.5344 848.5799,450.5344 Q848.1205,450.5344 847.7361,450.7313 Q847.3611,450.9281 847.0611,451.3781 Q846.7705,451.8281 846.7705,452.4469 L846.7705,453.1031 Q846.7705,453.8438 847.3049,454.3406 Q847.8393,454.8281 848.7955,454.8281 Q849.358,454.8281 849.7518,454.6781 Q849.9861,454.5844 850.2393,454.3219 Q850.3986,454.1625 850.483,454.1156 Q850.5768,454.0687 850.6986,454.0687 Q850.8955,454.0687 851.0455,454.2281 Q851.2049,454.3781 851.2049,454.5844 Q851.2049,454.7906 850.9986,455.0344 Q850.6986,455.3812 850.2205,455.5781 Q849.5736,455.85 848.7955,455.85 Q847.8861,455.85 847.1643,455.475 Q846.5736,455.175 846.1611,454.5375 Q845.7486,453.8906 845.7486,453.1219 L845.7486,452.4281 Q845.7486,451.6312 846.1143,450.9469 Q846.4893,450.2531 847.1455,449.8875 Q847.8018,449.5125 848.5424,449.5125 Q848.983,449.5125 849.3674,449.6156 Q849.7611,449.7094 850.0893,449.925 Z " fill="#000000"/><text fill="#000000" font-family="sans-serif" font-size="8.4" lengthAdjust="spacing" textLength="117.1939" x="860.7299" y="455.8781">ConnectivityBetweenStationsUI</text><line style="stroke:#181818;stroke-width:0.3;" x1="811.8" x2="1007.3537" y1="462" y2="462"/><text fill="#000000" font-family="sans-serif" font-size="8.4" lengthAdjust="spacing" textLength="189.5537" x="814.8" y="473.4645">-controller : ConnectivityBetweenStationsController</text><line style="stroke:#181818;stroke-width:0.3;" x1="811.8" x2="1007.3537" y1="477.9727" y2="477.9727"/><text fill="#000000" font-family="sans-serif" font-size="8.4" lengthAdjust="spacing" textLength="45.0516" x="814.8" y="489.4371">+run() : void</text><text fill="#000000" font-family="sans-serif" font-size="8.4" lengthAdjust="spacing" textLength="119.0561" x="814.8" y="500.6098">-chooseTypeOfTrain() : boolean</text><text fill="#000000" font-family="sans-serif" font-size="8.4" lengthAdjust="spacing" textLength="163.6482" x="814.8" y="511.7824">+checkConnectivityBetweenStations() : void</text><text fill="#000000" font-family="sans-serif" font-size="8.4" lengthAdjust="spacing" textLength="179.5172" x="814.8" y="522.9551">+checkConnectivityBetweenTwoStations() : void</text><text fill="#000000" font-family="sans-serif" font-size="8.4" lengthAdjust="spacing" textLength="123.2314" x="814.8" y="534.1277">-visualizeRailwayNetwork() : void</text></g><!--class ViewAdjacencyMatrixUI--><g id="elem_ViewAdjacencyMatrixUI"><rect codeLine="41" fill="#F1F1F1" height="62.318" id="ViewAdjacencyMatrixUI" rx="1.5" ry="1.5" style="stroke:#181818;stroke-width:0.3;" width="196.7537" x="1207.2" y="305.1"/><ellipse cx="1258.9125" cy="314.7" fill="#ADD1B2" rx="6.6" ry="6.6" style="stroke:#181818;stroke-width:0.6;"/><path d="M1260.5719,312.225 Q1260.6656,312.0938 1260.7781,312.0281 Q1260.8906,311.9625 1261.0219,311.9625 Q1261.2469,311.9625 1261.3875,312.1219 Q1261.5281,312.2719 1261.5281,312.6375 L1261.5281,313.5094 Q1261.5281,313.875 1261.3875,314.0344 Q1261.2469,314.1937 1261.0219,314.1937 Q1260.8156,314.1937 1260.6938,314.0719 Q1260.5719,313.9594 1260.5063,313.65 Q1260.4781,313.4344 1260.3656,313.3219 Q1260.1688,313.0969 1259.8031,312.9656 Q1259.4375,312.8344 1259.0625,312.8344 Q1258.6031,312.8344 1258.2188,313.0313 Q1257.8438,313.2281 1257.5438,313.6781 Q1257.2531,314.1281 1257.2531,314.7469 L1257.2531,315.4031 Q1257.2531,316.1438 1257.7875,316.6406 Q1258.3219,317.1281 1259.2781,317.1281 Q1259.8406,317.1281 1260.2344,316.9781 Q1260.4688,316.8844 1260.7219,316.6219 Q1260.8813,316.4625 1260.9656,316.4156 Q1261.0594,316.3688 1261.1812,316.3688 Q1261.3781,316.3688 1261.5281,316.5281 Q1261.6875,316.6781 1261.6875,316.8844 Q1261.6875,317.0906 1261.4813,317.3344 Q1261.1812,317.6813 1260.7031,317.8781 Q1260.0562,318.15 1259.2781,318.15 Q1258.3687,318.15 1257.6469,317.775 Q1257.0562,317.475 1256.6438,316.8375 Q1256.2313,316.1906 1256.2313,315.4219 L1256.2313,314.7281 Q1256.2313,313.9313 1256.5969,313.2469 Q1256.9719,312.5531 1257.6281,312.1875 Q1258.2844,311.8125 1259.025,311.8125 Q1259.4656,311.8125 1259.85,311.9156 Q1260.2437,312.0094 1260.5719,312.225 Z " fill="#000000"/><text fill="#000000" font-family="sans-serif" font-size="8.4" lengthAdjust="spacing" textLength="88.2287" x="1271.2125" y="318.1781">ViewAdjacencyMatrixUI</text><line style="stroke:#181818;stroke-width:0.3;" x1="1207.8" x2="1403.3537" y1="324.3" y2="324.3"/><text fill="#000000" font-family="sans-serif" font-size="8.4" lengthAdjust="spacing" textLength="189.5537" x="1210.8" y="335.7645">-controller : ConnectivityBetweenStationsController</text><line style="stroke:#181818;stroke-width:0.3;" x1="1207.8" x2="1403.3537" y1="340.2727" y2="340.2727"/><text fill="#000000" font-family="sans-serif" font-size="8.4" lengthAdjust="spacing" textLength="45.0516" x="1210.8" y="351.7371">+run() : void</text><text fill="#000000" font-family="sans-serif" font-size="8.4" lengthAdjust="spacing" textLength="119.0561" x="1210.8" y="362.9098">-chooseTypeOfTrain() : boolean</text></g><!--class ViewTransitiveMatrixUI--><g id="elem_ViewTransitiveMatrixUI"><rect codeLine="47" fill="#F1F1F1" height="62.318" id="ViewTransitiveMatrixUI" rx="1.5" ry="1.5" style="stroke:#181818;stroke-width:0.3;" width="196.7537" x="1425" y="305.1"/><ellipse cx="1477.8855" cy="314.7" fill="#ADD1B2" rx="6.6" ry="6.6" style="stroke:#181818;stroke-width:0.6;"/><path d="M1479.5449,312.225 Q1479.6387,312.0938 1479.7512,312.0281 Q1479.8637,311.9625 1479.9949,311.9625 Q1480.2199,311.9625 1480.3605,312.1219 Q1480.5012,312.2719 1480.5012,312.6375 L1480.5012,313.5094 Q1480.5012,313.875 1480.3605,314.0344 Q1480.2199,314.1937 1479.9949,314.1937 Q1479.7887,314.1937 1479.6668,314.0719 Q1479.5449,313.9594 1479.4793,313.65 Q1479.4512,313.4344 1479.3387,313.3219 Q1479.1418,313.0969 1478.7762,312.9656 Q1478.4105,312.8344 1478.0355,312.8344 Q1477.5762,312.8344 1477.1918,313.0313 Q1476.8168,313.2281 1476.5168,313.6781 Q1476.2262,314.1281 1476.2262,314.7469 L1476.2262,315.4031 Q1476.2262,316.1438 1476.7605,316.6406 Q1477.2949,317.1281 1478.2512,317.1281 Q1478.8137,317.1281 1479.2074,316.9781 Q1479.4418,316.8844 1479.6949,316.6219 Q1479.8543,316.4625 1479.9387,316.4156 Q1480.0324,316.3688 1480.1543,316.3688 Q1480.3512,316.3688 1480.5012,316.5281 Q1480.6605,316.6781 1480.6605,316.8844 Q1480.6605,317.0906 1480.4543,317.3344 Q1480.1543,317.6813 1479.6762,317.8781 Q1479.0293,318.15 1478.2512,318.15 Q1477.3418,318.15 1476.6199,317.775 Q1476.0293,317.475 1475.6168,316.8375 Q1475.2043,316.1906 1475.2043,315.4219 L1475.2043,314.7281 Q1475.2043,313.9313 1475.5699,313.2469 Q1475.9449,312.5531 1476.6012,312.1875 Q1477.2574,311.8125 1477.998,311.8125 Q1478.4387,311.8125 1478.823,311.9156 Q1479.2168,312.0094 1479.5449,312.225 Z " fill="#000000"/><text fill="#000000" font-family="sans-serif" font-size="8.4" lengthAdjust="spacing" textLength="85.8826" x="1490.1855" y="318.1781">ViewTransitiveMatrixUI</text><line style="stroke:#181818;stroke-width:0.3;" x1="1425.6" x2="1621.1537" y1="324.3" y2="324.3"/><text fill="#000000" font-family="sans-serif" font-size="8.4" lengthAdjust="spacing" textLength="189.5537" x="1428.6" y="335.7645">-controller : ConnectivityBetweenStationsController</text><line style="stroke:#181818;stroke-width:0.3;" x1="1425.6" x2="1621.1537" y1="340.2727" y2="340.2727"/><text fill="#000000" font-family="sans-serif" font-size="8.4" lengthAdjust="spacing" textLength="45.0516" x="1428.6" y="351.7371">+run() : void</text><text fill="#000000" font-family="sans-serif" font-size="8.4" lengthAdjust="spacing" textLength="119.0561" x="1428.6" y="362.9098">-chooseTypeOfTrain() : boolean</text></g><!--class MenuItem--><g id="elem_MenuItem"><rect codeLine="53" fill="#F1F1F1" height="95.8359" id="MenuItem" rx="1.5" ry="1.5" style="stroke:#181818;stroke-width:0.3;" width="179.724" x="1006.2" y="288.3"/><ellipse cx="1074.8376" cy="297.9" fill="#ADD1B2" rx="6.6" ry="6.6" style="stroke:#181818;stroke-width:0.6;"/><path d="M1076.497,295.425 Q1076.5907,295.2938 1076.7032,295.2281 Q1076.8157,295.1625 1076.947,295.1625 Q1077.172,295.1625 1077.3126,295.3219 Q1077.4532,295.4719 1077.4532,295.8375 L1077.4532,296.7094 Q1077.4532,297.075 1077.3126,297.2344 Q1077.172,297.3938 1076.947,297.3938 Q1076.7407,297.3938 1076.6188,297.2719 Q1076.497,297.1594 1076.4313,296.85 Q1076.4032,296.6344 1076.2907,296.5219 Q1076.0938,296.2969 1075.7282,296.1656 Q1075.3626,296.0344 1074.9876,296.0344 Q1074.5282,296.0344 1074.1438,296.2313 Q1073.7688,296.4281 1073.4688,296.8781 Q1073.1782,297.3281 1073.1782,297.9469 L1073.1782,298.6031 Q1073.1782,299.3438 1073.7126,299.8406 Q1074.247,300.3281 1075.2032,300.3281 Q1075.7657,300.3281 1076.1595,300.1781 Q1076.3938,300.0844 1076.647,299.8219 Q1076.8063,299.6625 1076.8907,299.6156 Q1076.9845,299.5687 1077.1063,299.5687 Q1077.3032,299.5687 1077.4532,299.7281 Q1077.6126,299.8781 1077.6126,300.0844 Q1077.6126,300.2906 1077.4063,300.5344 Q1077.1063,300.8812 1076.6282,301.0781 Q1075.9813,301.35 1075.2032,301.35 Q1074.2938,301.35 1073.572,300.975 Q1072.9813,300.675 1072.5688,300.0375 Q1072.1563,299.3906 1072.1563,298.6219 L1072.1563,297.9281 Q1072.1563,297.1312 1072.522,296.4469 Q1072.897,295.7531 1073.5532,295.3875 Q1074.2095,295.0125 1074.9501,295.0125 Q1075.3907,295.0125 1075.7751,295.1156 Q1076.1688,295.2094 1076.497,295.425 Z " fill="#000000"/><text fill="#000000" font-family="sans-serif" font-size="8.4" lengthAdjust="spacing" textLength="37.3488" x="1087.1376" y="301.3781">MenuItem</text><line style="stroke:#181818;stroke-width:0.3;" x1="1006.8" x2="1185.324" y1="307.5" y2="307.5"/><text fill="#000000" font-family="sans-serif" font-size="8.4" lengthAdjust="spacing" textLength="72.3639" x="1009.8" y="318.9645">-description : String</text><text fill="#000000" font-family="sans-serif" font-size="8.4" lengthAdjust="spacing" textLength="52.299" x="1009.8" y="330.1371">-ui : Runnable</text><line style="stroke:#181818;stroke-width:0.3;" x1="1006.8" x2="1185.324" y1="334.6453" y2="334.6453"/><text fill="#000000" font-family="sans-serif" font-size="8.4" lengthAdjust="spacing" textLength="171.5848" x="1009.8" y="346.1098">+MenuItem(description : String, ui : Runnable)</text><text fill="#000000" font-family="sans-serif" font-size="8.4" lengthAdjust="spacing" textLength="45.0516" x="1009.8" y="357.2824">+run() : void</text><text fill="#000000" font-family="sans-serif" font-size="8.4" lengthAdjust="spacing" textLength="172.524" x="1009.8" y="368.4551">+hasDescription(description : String) : boolean</text><text fill="#000000" font-family="sans-serif" font-size="8.4" lengthAdjust="spacing" textLength="68.3936" x="1009.8" y="379.6277">+toString() : String</text></g><!--class ConnectivityBetweenStationsController--><g id="elem_ConnectivityBetweenStationsController"><rect codeLine="65" fill="#F1F1F1" height="162.8719" id="ConnectivityBetweenStationsController" rx="1.5" ry="1.5" style="stroke:#181818;stroke-width:0.3;" width="269.8518" x="631.8" y="67.2"/><ellipse cx="691.5721" cy="76.8" fill="#ADD1B2" rx="6.6" ry="6.6" style="stroke:#181818;stroke-width:0.6;"/><path d="M693.2314,74.325 Q693.3252,74.1938 693.4377,74.1281 Q693.5502,74.0625 693.6814,74.0625 Q693.9064,74.0625 694.0471,74.2219 Q694.1877,74.3719 694.1877,74.7375 L694.1877,75.6094 Q694.1877,75.975 694.0471,76.1344 Q693.9064,76.2938 693.6814,76.2938 Q693.4752,76.2938 693.3533,76.1719 Q693.2314,76.0594 693.1658,75.75 Q693.1377,75.5344 693.0252,75.4219 Q692.8283,75.1969 692.4627,75.0656 Q692.0971,74.9344 691.7221,74.9344 Q691.2627,74.9344 690.8783,75.1313 Q690.5033,75.3281 690.2033,75.7781 Q689.9127,76.2281 689.9127,76.8469 L689.9127,77.5031 Q689.9127,78.2437 690.4471,78.7406 Q690.9814,79.2281 691.9377,79.2281 Q692.5002,79.2281 692.8939,79.0781 Q693.1283,78.9844 693.3814,78.7219 Q693.5408,78.5625 693.6252,78.5156 Q693.7189,78.4688 693.8408,78.4688 Q694.0377,78.4688 694.1877,78.6281 Q694.3471,78.7781 694.3471,78.9844 Q694.3471,79.1906 694.1408,79.4344 Q693.8408,79.7813 693.3627,79.9781 Q692.7158,80.25 691.9377,80.25 Q691.0283,80.25 690.3064,79.875 Q689.7158,79.575 689.3033,78.9375 Q688.8908,78.2906 688.8908,77.5219 L688.8908,76.8281 Q688.8908,76.0313 689.2564,75.3469 Q689.6314,74.6531 690.2877,74.2875 Q690.9439,73.9125 691.6846,73.9125 Q692.1252,73.9125 692.5096,74.0156 Q692.9033,74.1094 693.2314,74.325 Z " fill="#000000"/><text fill="#000000" font-family="sans-serif" font-size="8.4" lengthAdjust="spacing" textLength="145.2076" x="703.8721" y="80.2781">ConnectivityBetweenStationsController</text><line style="stroke:#181818;stroke-width:0.3;" x1="632.4" x2="901.0518" y1="86.4" y2="86.4"/><text fill="#000000" font-family="sans-serif" font-size="8.4" lengthAdjust="spacing" textLength="96.6533" x="635.4" y="97.8645">-stationList : List&lt;Station&gt;</text><text fill="#000000" font-family="sans-serif" font-size="8.4" lengthAdjust="spacing" textLength="106.4561" x="635.4" y="109.0371">-allLines : List&lt;RailwayLine&gt;</text><text fill="#000000" font-family="sans-serif" font-size="8.4" lengthAdjust="spacing" textLength="131.209" x="635.4" y="120.2098">-availableLines : List&lt;RailwayLine&gt;</text><text fill="#000000" font-family="sans-serif" font-size="8.4" lengthAdjust="spacing" textLength="85.899" x="635.4" y="131.3824">-scenarioName : String</text><text fill="#000000" font-family="sans-serif" font-size="8.4" lengthAdjust="spacing" textLength="100.841" x="635.4" y="142.5551">-selectedTrainType : String</text><line style="stroke:#181818;stroke-width:0.3;" x1="632.4" x2="901.0518" y1="147.0633" y2="147.0633"/><text fill="#000000" font-family="sans-serif" font-size="8.4" lengthAdjust="spacing" textLength="116.9438" x="635.4" y="158.5277">+filterRailwayLinesType() : void</text><text fill="#000000" font-family="sans-serif" font-size="8.4" lengthAdjust="spacing" textLength="215.935" x="635.4" y="169.7004">+removeLineFromAvailableLines(line : RailwayLine) : void</text><text fill="#000000" font-family="sans-serif" font-size="8.4" lengthAdjust="spacing" textLength="115.0775" x="635.4" y="180.873">+buildAdjacencyMatrix() : int[][]</text><text fill="#000000" font-family="sans-serif" font-size="8.4" lengthAdjust="spacing" textLength="135.6059" x="635.4" y="192.0457">+getTransitiveClosureMatrix() : int[][]</text><text fill="#000000" font-family="sans-serif" font-size="8.4" lengthAdjust="spacing" textLength="262.6518" x="635.4" y="203.2184">+isConnectedTransitive(origin : Station, destination : Station) : boolean</text><text fill="#000000" font-family="sans-serif" font-size="8.4" lengthAdjust="spacing" textLength="225.7377" x="635.4" y="214.391">+verifyConnectivity(impossibleStationType : char[]) : boolean</text><text fill="#000000" font-family="sans-serif" font-size="8.4" lengthAdjust="spacing" textLength="190.2674" x="635.4" y="225.5637">+findSameTypeStations(type : char) : List&lt;Station&gt;</text></g><!--class Utils_MDISC--><g id="elem_Utils_MDISC"><rect codeLine="83" fill="#F1F1F1" height="51.1453" id="Utils_MDISC" rx="1.5" ry="1.5" style="stroke:#181818;stroke-width:0.3;" width="349.2129" x="4.2" y="310.8"/><ellipse cx="152.2213" cy="320.4" fill="#ADD1B2" rx="6.6" ry="6.6" style="stroke:#181818;stroke-width:0.6;"/><path d="M153.8807,317.925 Q153.9744,317.7938 154.0869,317.7281 Q154.1994,317.6625 154.3307,317.6625 Q154.5557,317.6625 154.6963,317.8219 Q154.8369,317.9719 154.8369,318.3375 L154.8369,319.2094 Q154.8369,319.575 154.6963,319.7344 Q154.5557,319.8938 154.3307,319.8938 Q154.1244,319.8938 154.0025,319.7719 Q153.8807,319.6594 153.815,319.35 Q153.7869,319.1344 153.6744,319.0219 Q153.4775,318.7969 153.1119,318.6656 Q152.7463,318.5344 152.3713,318.5344 Q151.9119,318.5344 151.5275,318.7313 Q151.1525,318.9281 150.8525,319.3781 Q150.5619,319.8281 150.5619,320.4469 L150.5619,321.1031 Q150.5619,321.8438 151.0963,322.3406 Q151.6307,322.8281 152.5869,322.8281 Q153.1494,322.8281 153.5432,322.6781 Q153.7775,322.5844 154.0307,322.3219 Q154.19,322.1625 154.2744,322.1156 Q154.3682,322.0687 154.49,322.0687 Q154.6869,322.0687 154.8369,322.2281 Q154.9963,322.3781 154.9963,322.5844 Q154.9963,322.7906 154.79,323.0344 Q154.49,323.3812 154.0119,323.5781 Q153.365,323.85 152.5869,323.85 Q151.6775,323.85 150.9557,323.475 Q150.365,323.175 149.9525,322.5375 Q149.54,321.8906 149.54,321.1219 L149.54,320.4281 Q149.54,319.6312 149.9057,318.9469 Q150.2807,318.2531 150.9369,317.8875 Q151.5932,317.5125 152.3338,317.5125 Q152.7744,317.5125 153.1588,317.6156 Q153.5525,317.7094 153.8807,317.925 Z " fill="#000000"/><text fill="#000000" font-family="sans-serif" font-size="8.4" lengthAdjust="spacing" textLength="48.0703" x="164.5213" y="323.8781">Utils_MDISC</text><line style="stroke:#181818;stroke-width:0.3;" x1="4.8" x2="352.8129" y1="330" y2="330"/><line style="stroke:#181818;stroke-width:0.3;" x1="4.8" x2="352.8129" y1="334.8" y2="334.8"/><text fill="#000000" font-family="sans-serif" font-size="8.4" lengthAdjust="spacing" textLength="342.0129" x="7.8" y="346.2645">+buildAdjacencyMatrix(stationList : List&lt;Station&gt;, availableLines : List&lt;RailwayLine&gt;) : int[][]</text><text fill="#000000" font-family="sans-serif" font-size="8.4" lengthAdjust="spacing" textLength="286.9207" x="7.8" y="357.4371">+getStationPositionsInList(stationList : List&lt;Station&gt;, line : RailwayLine) : int[]</text></g><g id="elem_GMN19"><path d="M834.3,322.8 L834.3,349.5492 A0,0 0 0 0 834.3,349.5492 L907.2,349.5492 L909.6,442.746 L912,349.5492 L984.7635,349.5492 A0,0 0 0 0 984.7635,349.5492 L984.7635,328.8 L978.7635,322.8 L834.3,322.8 A0,0 0 0 0 834.3,322.8 " fill="#FEFFDD" style="stroke:#181818;stroke-width:0.3;"/><path d="M978.7635,322.8 L978.7635,328.8 L984.7635,328.8 L978.7635,322.8 " fill="#FEFFDD" style="stroke:#181818;stroke-width:0.3;"/><text fill="#000000" font-family="sans-serif" font-size="7.8" lengthAdjust="spacing" textLength="137.8635" x="837.9" y="334.217">User interface for analyzing connectivity</text><text fill="#000000" font-family="sans-serif" font-size="7.8" lengthAdjust="spacing" textLength="87.1444" x="837.9" y="344.5916">between railway stations.</text></g><g id="elem_GMN22"><path d="M679.8,3.6 L679.8,30.3492 A0,0 0 0 0 679.8,30.3492 L764.4,30.3492 L766.8,67.02 L769.2,30.3492 L853.6787,30.3492 A0,0 0 0 0 853.6787,30.3492 L853.6787,9.6 L847.6787,3.6 L679.8,3.6 A0,0 0 0 0 679.8,3.6 " fill="#FEFFDD" style="stroke:#181818;stroke-width:0.3;"/><path d="M847.6787,3.6 L847.6787,9.6 L853.6787,9.6 L847.6787,3.6 " fill="#FEFFDD" style="stroke:#181818;stroke-width:0.3;"/><text fill="#000000" font-family="sans-serif" font-size="7.8" lengthAdjust="spacing" textLength="161.2787" x="683.4" y="15.017">Controller responsible for the connectivity logic</text><text fill="#000000" font-family="sans-serif" font-size="7.8" lengthAdjust="spacing" textLength="87.1444" x="683.4" y="25.3916">between railway stations.</text></g><g id="elem_GMN25"><path d="M1225.2,135 L1225.2,161.7492 A0,0 0 0 0 1225.2,161.7492 L1303.2,161.7492 L1305.6,305.076 L1308,161.7492 L1386.0724,161.7492 A0,0 0 0 0 1386.0724,161.7492 L1386.0724,141 L1380.0724,135 L1225.2,135 A0,0 0 0 0 1225.2,135 " fill="#FEFFDD" style="stroke:#181818;stroke-width:0.3;"/><path d="M1380.0724,135 L1380.0724,141 L1386.0724,141 L1380.0724,135 " fill="#FEFFDD" style="stroke:#181818;stroke-width:0.3;"/><text fill="#000000" font-family="sans-serif" font-size="7.8" lengthAdjust="spacing" textLength="148.2724" x="1228.8" y="146.417">User interface for visualizing the adjacency</text><text fill="#000000" font-family="sans-serif" font-size="7.8" lengthAdjust="spacing" textLength="101.0001" x="1228.8" y="156.7916">matrix of the railway network.</text></g><g id="elem_GMN28"><path d="M1444.8,135 L1444.8,161.7492 A0,0 0 0 0 1444.8,161.7492 L1521,161.7492 L1523.4,305.076 L1525.8,161.7492 L1601.7609,161.7492 A0,0 0 0 0 1601.7609,161.7492 L1601.7609,141 L1595.7609,135 L1444.8,135 A0,0 0 0 0 1444.8,135 " fill="#FEFFDD" style="stroke:#181818;stroke-width:0.3;"/><path d="M1595.7609,135 L1595.7609,141 L1601.7609,141 L1595.7609,135 " fill="#FEFFDD" style="stroke:#181818;stroke-width:0.3;"/><text fill="#000000" font-family="sans-serif" font-size="7.8" lengthAdjust="spacing" textLength="144.3609" x="1448.4" y="146.417">User interface for visualizing the transitive</text><text fill="#000000" font-family="sans-serif" font-size="7.8" lengthAdjust="spacing" textLength="101.0001" x="1448.4" y="156.7916">matrix of the railway network.</text></g><g id="elem_GMN31"><path d="M374.4,328.2 L374.4,344.5746 A0,0 0 0 0 374.4,344.5746 L435.75,344.5746 L544.116,454.116 L440.55,344.5746 L487.147,344.5746 A0,0 0 0 0 487.147,344.5746 L487.147,334.2 L481.147,328.2 L374.4,328.2 A0,0 0 0 0 374.4,328.2 " fill="#FEFFDD" style="stroke:#181818;stroke-width:0.3;"/><path d="M481.147,328.2 L481.147,334.2 L487.147,334.2 L481.147,328.2 " fill="#FEFFDD" style="stroke:#181818;stroke-width:0.3;"/><text fill="#000000" font-family="sans-serif" font-size="7.8" lengthAdjust="spacing" textLength="100.147" x="378" y="339.617">Represents a railway station.</text></g><g id="elem_GMN34"><path d="M237.9,140.4 L237.9,156.7746 L423.056,156.7746 L423.056,146.4 L417.056,140.4 L237.9,140.4 " fill="#FEFFDD" style="stroke:#181818;stroke-width:0.3;"/><path d="M417.056,140.4 L417.056,146.4 L423.056,146.4 L417.056,140.4 " fill="#FEFFDD" style="stroke:#181818;stroke-width:0.6;"/><text fill="#000000" font-family="sans-serif" font-size="7.8" lengthAdjust="spacing" textLength="172.556" x="241.5" y="151.817">Represents a railway line connecting two stations.</text></g><!--link RailwayLine to Station--><g id="link_RailwayLine_Station"><path codeLine="91" d="M579,395.514 C579,415.206 579,432.984 579,450.438 " fill="none" id="RailwayLine-to-Station" style="stroke:#181818;stroke-width:0.6;"/><polygon fill="#181818" points="579,454.038,581.4,448.638,579,451.038,576.6,448.638,579,454.038" style="stroke:#181818;stroke-width:0.6;"/><text fill="#000000" font-family="sans-serif" font-size="7.8" lengthAdjust="spacing" textLength="11.7076" x="567.1942" y="408.6612">0..*</text><text fill="#000000" font-family="sans-serif" font-size="7.8" lengthAdjust="spacing" textLength="4.338" x="574.5682" y="447.408">1</text></g><!--link ConnectivityBetweenStationsController to Station--><g id="link_ConnectivityBetweenStationsController_Station"><path codeLine="92" d="M733.158,229.932 C705.51,295.812 669.408,380.328 660,395.4 C646.986,416.244 632.0101,434.5711 616.6741,451.4851 " fill="none" id="ConnectivityBetweenStationsController-to-Station" style="stroke:#181818;stroke-width:0.6;stroke-dasharray:7.0,7.0;"/><polygon fill="#181818" points="614.256,454.152,619.6612,451.7637,616.2711,451.9295,616.1052,448.5395,614.256,454.152" style="stroke:#181818;stroke-width:0.6;"/><text fill="#000000" font-family="sans-serif" font-size="7.8" lengthAdjust="spacing" textLength="32.0874" x="712.8" y="339.617">manages</text><text fill="#000000" font-family="sans-serif" font-size="7.8" lengthAdjust="spacing" textLength="4.338" x="726.8999" y="243.3488">1</text><text fill="#000000" font-family="sans-serif" font-size="7.8" lengthAdjust="spacing" textLength="11.7076" x="606.2942" y="447.5352">0..*</text></g><!--link ConnectivityBetweenStationsController to RailwayLine--><g id="link_ConnectivityBetweenStationsController_RailwayLine"><path codeLine="93" d="M640.164,229.92 C634.014,235.656 628.17,241.626 622.8,247.8 C615.246,256.482 610.3535,263.5345 604.7075,273.8725 " fill="none" id="ConnectivityBetweenStationsController-to-RailwayLine" style="stroke:#181818;stroke-width:0.6;stroke-dasharray:7.0,7.0;"/><polygon fill="#181818" points="602.982,277.032,607.6766,273.4431,604.4199,274.3991,603.464,271.1424,602.982,277.032" style="stroke:#181818;stroke-width:0.6;"/><text fill="#000000" font-family="sans-serif" font-size="7.8" lengthAdjust="spacing" textLength="52.4596" x="623.4" y="256.817">filters and uses</text><text fill="#000000" font-family="sans-serif" font-size="7.8" lengthAdjust="spacing" textLength="4.338" x="628.5297" y="243.3361">1</text><text fill="#000000" font-family="sans-serif" font-size="7.8" lengthAdjust="spacing" textLength="11.7076" x="592.9373" y="270.5291">0..*</text></g><!--link ConnectivityBetweenStationsController to ViewAdjacencyMatrixUI--><g id="link_ConnectivityBetweenStationsController_ViewAdjacencyMatrixUI"><path codeLine="94" d="M901.818,187.8 C1017.27,221.142 1169.088,265.668 1197,277.2 C1216.098,285.09 1233.0793,293.6097 1250.7493,303.3237 " fill="none" id="ConnectivityBetweenStationsController-to-ViewAdjacencyMatrixUI" style="stroke:#181818;stroke-width:0.6;stroke-dasharray:7.0,7.0;"/><polygon fill="#181818" points="1253.904,305.058,1250.3281,300.3534,1251.2751,303.6128,1248.0157,304.5597,1253.904,305.058" style="stroke:#181818;stroke-width:0.6;"/><text fill="#000000" font-family="sans-serif" font-size="7.8" lengthAdjust="spacing" textLength="34.6925" x="1134.6" y="256.817">generates</text><text fill="#000000" font-family="sans-serif" font-size="7.8" lengthAdjust="spacing" textLength="4.338" x="906.3219" y="187.1376">1</text><text fill="#000000" font-family="sans-serif" font-size="7.8" lengthAdjust="spacing" textLength="4.338" x="1242.4875" y="298.4088">1</text></g><!--link ConnectivityBetweenStationsController to ViewTransitiveMatrixUI--><g id="link_ConnectivityBetweenStationsController_ViewTransitiveMatrixUI"><path codeLine="95" d="M901.872,173.574 C1077.402,205.728 1367.19,260.112 1414.8,277.2 C1434.954,284.436 1452.7946,293.1837 1470.8786,303.3057 " fill="none" id="ConnectivityBetweenStationsController-to-ViewTransitiveMatrixUI" style="stroke:#181818;stroke-width:0.6;stroke-dasharray:7.0,7.0;"/><polygon fill="#181818" points="1474.02,305.064,1470.4801,300.3323,1471.4022,303.5987,1468.1357,304.5208,1474.02,305.064" style="stroke:#181818;stroke-width:0.6;"/><text fill="#000000" font-family="sans-serif" font-size="7.8" lengthAdjust="spacing" textLength="34.6925" x="1334.4" y="256.817">generates</text><text fill="#000000" font-family="sans-serif" font-size="7.8" lengthAdjust="spacing" textLength="4.338" x="906.3777" y="172.4448">1</text><text fill="#000000" font-family="sans-serif" font-size="7.8" lengthAdjust="spacing" textLength="4.338" x="1462.9148" y="298.4156">1</text></g><!--link ConnectivityBetweenStationsController to MenuItem--><g id="link_ConnectivityBetweenStationsController_MenuItem"><path codeLine="96" d="M901.92,224.376 C932.7,241.644 965.22,259.986 995.4,277.2 C1001.64,280.758 1004.9631,282.6595 1011.4431,286.3855 " fill="none" id="ConnectivityBetweenStationsController-to-MenuItem" style="stroke:#181818;stroke-width:0.6;stroke-dasharray:7.0,7.0;"/><polygon fill="#181818" points="1014.564,288.18,1011.079,283.4077,1011.9633,286.6846,1008.6864,287.5688,1014.564,288.18" style="stroke:#181818;stroke-width:0.6;"/><text fill="#000000" font-family="sans-serif" font-size="7.8" lengthAdjust="spacing" textLength="29.4823" x="958.2" y="256.817">provides</text><text fill="#000000" font-family="sans-serif" font-size="7.8" lengthAdjust="spacing" textLength="4.338" x="906.4272" y="224.9137">1</text><text fill="#000000" font-family="sans-serif" font-size="7.8" lengthAdjust="spacing" textLength="3.0354" x="1003.9143" y="281.5064">*</text></g><!--link ConnectivityBetweenStationsUI to ConnectivityBetweenStationsController--><g id="link_ConnectivityBetweenStationsUI_ConnectivityBetweenStationsController"><path codeLine="97" d="M819.714,442.692 C802.962,429.642 787.602,413.886 777.6,395.4 C750.462,345.24 748.3304,284.1518 752.8304,233.6618 " fill="none" id="ConnectivityBetweenStationsUI-to-ConnectivityBetweenStationsController" style="stroke:#181818;stroke-width:0.6;stroke-dasharray:7.0,7.0;"/><polygon fill="#181818" points="753.15,230.076,750.2801,235.2416,752.8837,233.0642,755.0611,235.6677,753.15,230.076" style="stroke:#181818;stroke-width:0.6;"/><text fill="#000000" font-family="sans-serif" font-size="7.8" lengthAdjust="spacing" textLength="45.5165" x="778.2" y="339.617">interacts with</text><text fill="#000000" font-family="sans-serif" font-size="7.8" lengthAdjust="spacing" textLength="4.338" x="807.0425" y="436.0195">1</text><text fill="#000000" font-family="sans-serif" font-size="7.8" lengthAdjust="spacing" textLength="4.338" x="748.0965" y="243.2304">1</text></g><!--link MenuItem to ConnectivityBetweenStationsUI--><g id="link_MenuItem_ConnectivityBetweenStationsUI"><path codeLine="98" d="M1038.438,384.354 C1015.854,402.912 992.7817,421.8608 970.1917,440.4188 " fill="none" id="MenuItem-to-ConnectivityBetweenStationsUI" style="stroke:#181818;stroke-width:0.6;stroke-dasharray:7.0,7.0;"/><polygon fill="#181818" points="967.41,442.704,973.106,441.1307,969.7281,440.7997,970.0591,437.4217,967.41,442.704" style="stroke:#181818;stroke-width:0.6;"/><text fill="#000000" font-family="sans-serif" font-size="7.8" lengthAdjust="spacing" textLength="24.276" x="1003.2" y="422.417">links to</text><text fill="#000000" font-family="sans-serif" font-size="7.8" lengthAdjust="spacing" textLength="4.338" x="1029.1114" y="397.3535">1</text><text fill="#000000" font-family="sans-serif" font-size="7.8" lengthAdjust="spacing" textLength="11.7076" x="960.8302" y="436.0326">1..*</text></g><!--link ConnectivityBetweenStationsController to Utils_MDISC--><g id="link_ConnectivityBetweenStationsController_Utils_MDISC"><path codeLine="99" d="M631.716,191.97 C515.832,228.744 356.2914,279.3752 260.7234,309.6992 " fill="none" id="ConnectivityBetweenStationsController-to-Utils_MDISC" style="stroke:#181818;stroke-width:0.6;stroke-dasharray:7.0,7.0;"/><polygon fill="#181818" points="257.292,310.788,263.165,311.4424,260.1515,309.8807,261.7132,306.8672,257.292,310.788" style="stroke:#181818;stroke-width:0.6;"/><text fill="#000000" font-family="sans-serif" font-size="7.8" lengthAdjust="spacing" textLength="16.476" x="456" y="256.817">uses</text></g><!--link GMN34 to RailwayLine--><g id="link_GMN34_RailwayLine"><path d="M328.698,156.852 C324.282,176.97 315.72,231.192 343.8,259.2 C368.136,283.47 465.348,264.792 497.4,277.2 C501.06,278.616 504.702,280.236 508.308,282.012 " fill="none" id="GMN34-RailwayLine" style="stroke:#181818;stroke-width:0.6;stroke-dasharray:7.0,7.0;"/></g><!--SRC=[pLTBRo8v4Bxthx1oMRAJeCaSqIeIIxAQbWYCQBANA5gPxW8y6Bjbks6PqVptAPj-kA6xbsGFkrm8hlhg-LNPqHicKghebgGqtj0LHER0WIY83HKh3e4k5VIQ9dBFn8eiATU-X3C1vf02IIK_s1zDCgcCzCvZJhKU6gFO8ZCGnb94x1kGZq7m2xbj-E3nm_Hf64x8Q3oCeiUeJIzmbabag65IaEy1mSyj4NGBP8372ZF8prnSWq9rZh-Su0DPWPcWVk-wZd02JzkN_oWSpoZZUteOOzwbStt4t5NEwe9FPu8yDCzOFRnSMxiGnaoRt_AJ-qh78Xv5jdKwhPPieZdshZ5XJ-7JgKA_t-zTsznRc_OSjicEvHf98P1iRCVCuNSmUm1HvFOSbWL4UXWbEGU5_ZiWer8lZrzbmiMyaomfRAsbrAu8q-LSKNPKM4Z9WOeS5gyXtdJugTjirv_lPJFabkoOpYX7pkUTcI12gasbLZBgJmRxOVALnY3YmnF5wl_zdvIc5X2AXMRe2VuF4Js1o483spA617IiMEfMmCdKPyoEGoO4NV1Y3WfyhmbtKuTSjqNxWQofVgWCD1exvvgHHyd9DccTgD5qCfzDn-F7sRidgwhywOgogwHnezmIohdT7heGUnkbLDdXcQtHFobgv39LJ4uQjh86Zc53ujezBrQqjvEMZ1jGdbLTBcEl5mgsSkS2-KF9xR0MMS_UIlMbU89UP8md9qFdF31XNbvVNhqjMmx2Y4kTAMXLPZflYSij1_MaOYicgWlWndBNC45BshY_pdcp0yMM1x_BFRPDfTOCq_HkAGJ6QwfUNizDB9b88co1LIltbAamvvTBvwetZEjkJZgLlvuUmcYKCw-br1rqlBc0PesToWryaRRoc6dep7UxQYQACzrPYzdZU3WFfvFeS_YbzQdYFnMkFlRxlrwXtZsvkhigNmEN3R55zEyB6yNJPq2sLE2JJh_5IcN6ZswG3vqcL2Gaqs-tYT_DzzW0MoD0KVDkcmrNqRymYfcNjyc0f4hkMD9j1VqL3S2lozmv3c60iT5apymwA7rMsRakTFiTM89kDDuX5wPfBVj3E3Wsivt8a-cy_Qqjf07qdHAvx0uqUDRetAMynFwJfLJ89CeFt-p_4x473HP7B557-XKNa-u7WDIp7eDB_NeF3Ay42dIAGhibNHnc3RK829Sh5hyvZaPsD-LTFFnivjOtBK31rg6iCNjUE1R7Xs6Nt_C9kCInAL7lyrpig1caM5CGI6LwMgushBTScl5kyHPjiG7lPKCBVW80]--></g></svg>