<svg xmlns="http://www.w3.org/2000/svg" xmlns:xlink="http://www.w3.org/1999/xlink" contentStyleType="text/css" height="804px" preserveAspectRatio="none" style="width:729px;height:804px;background:#FFFFFF;" version="1.1" viewBox="0 0 729 804" width="729.5px" zoomAndPan="magnify"><defs/><g><rect fill="#FFFFFF" height="707.1836" style="stroke:#181818;stroke-width:0.5;" width="5" x="38.9207" y="46.8105"/><rect fill="#FFFFFF" height="695.5381" style="stroke:#181818;stroke-width:0.5;" width="5" x="193.0728" y="58.4561"/><rect fill="#FFFFFF" height="16.8105" style="stroke:#181818;stroke-width:0.5;" width="5" x="418.3794" y="79.1016"/><rect fill="#FFFFFF" height="78.2275" style="stroke:#181818;stroke-width:0.5;" width="5" x="418.3794" y="137.8486"/><rect fill="#FFFFFF" height="422.9141" style="stroke:#181818;stroke-width:0.5;" width="5" x="418.3794" y="324.0801"/><rect fill="#FFFFFF" height="15.6455" style="stroke:#181818;stroke-width:0.5;" width="5" x="543.9988" y="184.7852"/><rect fill="#FFFFFF" height="15.6455" style="stroke:#181818;stroke-width:0.5;" width="5" x="543.9988" y="416.4531"/><rect fill="#FFFFFF" height="15.6455" style="stroke:#181818;stroke-width:0.5;" width="5" x="543.9988" y="500.4961"/><rect fill="#FFFFFF" height="15.6455" style="stroke:#181818;stroke-width:0.5;" width="5" x="585.1814" y="153.4941"/><rect fill="#FFFFFF" height="15.6455" style="stroke:#181818;stroke-width:0.5;" width="5" x="585.1814" y="339.7256"/><rect fill="none" height="650.582" style="stroke:#000000;stroke-width:0.75;" width="721.7603" x="5" y="103.4121"/><rect fill="none" height="633.9365" style="stroke:#000000;stroke-width:0.75;" width="711.7603" x="10" y="116.5576"/><rect fill="none" height="492.127" style="stroke:#000000;stroke-width:0.75;" width="701.7603" x="15" y="254.8672"/><rect fill="none" height="380.623" style="stroke:#000000;stroke-width:0.75;" width="691.7603" x="20" y="362.8711"/><rect fill="none" height="300.3955" style="stroke:#000000;stroke-width:0.75;" width="681.7603" x="25" y="439.5986"/><line style="stroke:#181818;stroke-width:0.25;stroke-dasharray:5.0,5.0;" x1="41" x2="41" y1="41.8105" y2="762.4941"/><line style="stroke:#181818;stroke-width:0.25;stroke-dasharray:5.0,5.0;" x1="195.5505" x2="195.5505" y1="41.8105" y2="762.4941"/><line style="stroke:#181818;stroke-width:0.25;stroke-dasharray:5.0,5.0;" x1="420.6848" x2="420.6848" y1="78.3613" y2="762.4941"/><line style="stroke:#181818;stroke-width:0.25;stroke-dasharray:5.0,5.0;" x1="546.1299" x2="546.1299" y1="41.8105" y2="762.4941"/><line style="stroke:#181818;stroke-width:0.25;stroke-dasharray:5.0,5.0;" x1="587.3677" x2="587.3677" y1="41.8105" y2="762.4941"/><line style="stroke:#181818;stroke-width:0.25;stroke-dasharray:5.0,5.0;" x1="637.9951" x2="637.9951" y1="41.8105" y2="762.4941"/><line style="stroke:#181818;stroke-width:0.25;stroke-dasharray:5.0,5.0;" x1="684.4087" x2="684.4087" y1="556.3477" y2="762.4941"/><text fill="#000000" font-family="sans-serif" font-size="7" lengthAdjust="spacing" textLength="19.8413" x="30" y="40.0537">Player</text><ellipse cx="41.4207" cy="6.75" fill="#E2E2F0" rx="4" ry="4" style="stroke:#181818;stroke-width:0.25;"/><path d="M41.4207,10.75 L41.4207,24.25 M34.9207,14.75 L47.9207,14.75 M41.4207,24.25 L34.9207,31.75 M41.4207,24.25 L47.9207,31.75 " fill="none" style="stroke:#181818;stroke-width:0.25;"/><text fill="#000000" font-family="sans-serif" font-size="7" lengthAdjust="spacing" textLength="19.8413" x="30" y="769.5479">Player</text><ellipse cx="41.4207" cy="775.5547" fill="#E2E2F0" rx="4" ry="4" style="stroke:#181818;stroke-width:0.25;"/><path d="M41.4207,779.5547 L41.4207,793.0547 M34.9207,783.5547 L47.9207,783.5547 M41.4207,793.0547 L34.9207,800.5547 M41.4207,793.0547 L47.9207,800.5547 " fill="none" style="stroke:#181818;stroke-width:0.25;"/><rect fill="#E2E2F0" height="16.3105" rx="1.25" ry="1.25" style="stroke:#181818;stroke-width:0.25;" width="77.0444" x="157.0505" y="25"/><text fill="#000000" font-family="sans-serif" font-size="7" lengthAdjust="spacing" textLength="70.0444" x="160.5505" y="36.0537">:AddUpgradeStationUI</text><rect fill="#E2E2F0" height="16.3105" rx="1.25" ry="1.25" style="stroke:#181818;stroke-width:0.25;" width="77.0444" x="157.0505" y="761.9941"/><text fill="#000000" font-family="sans-serif" font-size="7" lengthAdjust="spacing" textLength="70.0444" x="160.5505" y="773.0479">:AddUpgradeStationUI</text><rect fill="#E2E2F0" height="16.3105" rx="1.25" ry="1.25" style="stroke:#181818;stroke-width:0.25;" width="100.3892" x="370.6848" y="761.9941"/><text fill="#000000" font-family="sans-serif" font-size="7" lengthAdjust="spacing" textLength="93.3892" x="374.1848" y="773.0479">:AddUpgradeStationController</text><rect fill="#E2E2F0" height="25.6211" rx="1.25" ry="1.25" style="stroke:#181818;stroke-width:0.25;" width="30.7378" x="531.1299" y="15.6895"/><text fill="#000000" font-family="sans-serif" font-size="7" lengthAdjust="spacing" textLength="20.624" x="536.1868" y="26.7432">station</text><text fill="#000000" font-family="sans-serif" font-size="7" lengthAdjust="spacing" textLength="23.7378" x="534.6299" y="36.0537">:Station</text><rect fill="#E2E2F0" height="25.6211" rx="1.25" ry="1.25" style="stroke:#181818;stroke-width:0.25;" width="30.7378" x="531.1299" y="761.9941"/><text fill="#000000" font-family="sans-serif" font-size="7" lengthAdjust="spacing" textLength="20.624" x="536.1868" y="773.0479">station</text><text fill="#000000" font-family="sans-serif" font-size="7" lengthAdjust="spacing" textLength="23.7378" x="534.6299" y="782.3584">:Station</text><rect fill="#E2E2F0" height="25.6211" rx="1.25" ry="1.25" style="stroke:#181818;stroke-width:0.25;" width="41.6274" x="566.8677" y="15.6895"/><text fill="#000000" font-family="sans-serif" font-size="7" lengthAdjust="spacing" textLength="31.5137" x="571.9246" y="26.7432">simulation</text><text fill="#000000" font-family="sans-serif" font-size="7" lengthAdjust="spacing" textLength="34.6274" x="570.3677" y="36.0537">:Simulation</text><rect fill="#E2E2F0" height="25.6211" rx="1.25" ry="1.25" style="stroke:#181818;stroke-width:0.25;" width="41.6274" x="566.8677" y="761.9941"/><text fill="#000000" font-family="sans-serif" font-size="7" lengthAdjust="spacing" textLength="31.5137" x="571.9246" y="773.0479">simulation</text><text fill="#000000" font-family="sans-serif" font-size="7" lengthAdjust="spacing" textLength="34.6274" x="570.3677" y="782.3584">:Simulation</text><rect fill="#E2E2F0" height="25.6211" rx="1.25" ry="1.25" style="stroke:#181818;stroke-width:0.25;" width="49.4136" x="613.4951" y="15.6895"/><text fill="#000000" font-family="sans-serif" font-size="7" lengthAdjust="spacing" textLength="39.6929" x="618.3555" y="26.7432">buildingType</text><text fill="#000000" font-family="sans-serif" font-size="7" lengthAdjust="spacing" textLength="42.4136" x="616.9951" y="36.0537">:BuildingType</text><rect fill="#E2E2F0" height="25.6211" rx="1.25" ry="1.25" style="stroke:#181818;stroke-width:0.25;" width="49.4136" x="613.4951" y="761.9941"/><text fill="#000000" font-family="sans-serif" font-size="7" lengthAdjust="spacing" textLength="39.6929" x="618.3555" y="773.0479">buildingType</text><text fill="#000000" font-family="sans-serif" font-size="7" lengthAdjust="spacing" textLength="42.4136" x="616.9951" y="782.3584">:BuildingType</text><rect fill="#E2E2F0" height="25.6211" rx="1.25" ry="1.25" style="stroke:#181818;stroke-width:0.25;" width="33.8516" x="667.9087" y="761.9941"/><text fill="#000000" font-family="sans-serif" font-size="7" lengthAdjust="spacing" textLength="24.1309" x="672.769" y="773.0479">building</text><text fill="#000000" font-family="sans-serif" font-size="7" lengthAdjust="spacing" textLength="26.8516" x="671.4087" y="782.3584">:Building</text><rect fill="#FFFFFF" height="707.1836" style="stroke:#181818;stroke-width:0.5;" width="5" x="38.9207" y="46.8105"/><rect fill="#FFFFFF" height="695.5381" style="stroke:#181818;stroke-width:0.5;" width="5" x="193.0728" y="58.4561"/><rect fill="#FFFFFF" height="16.8105" style="stroke:#181818;stroke-width:0.5;" width="5" x="418.3794" y="79.1016"/><rect fill="#FFFFFF" height="78.2275" style="stroke:#181818;stroke-width:0.5;" width="5" x="418.3794" y="137.8486"/><rect fill="#FFFFFF" height="422.9141" style="stroke:#181818;stroke-width:0.5;" width="5" x="418.3794" y="324.0801"/><rect fill="#FFFFFF" height="15.6455" style="stroke:#181818;stroke-width:0.5;" width="5" x="543.9988" y="184.7852"/><rect fill="#FFFFFF" height="15.6455" style="stroke:#181818;stroke-width:0.5;" width="5" x="543.9988" y="416.4531"/><rect fill="#FFFFFF" height="15.6455" style="stroke:#181818;stroke-width:0.5;" width="5" x="543.9988" y="500.4961"/><rect fill="#FFFFFF" height="15.6455" style="stroke:#181818;stroke-width:0.5;" width="5" x="585.1814" y="153.4941"/><rect fill="#FFFFFF" height="15.6455" style="stroke:#181818;stroke-width:0.5;" width="5" x="585.1814" y="339.7256"/><polygon fill="#181818" points="187.0728,56.4561,192.0728,58.4561,187.0728,60.4561,189.0728,58.4561" style="stroke:#181818;stroke-width:0.5;"/><line style="stroke:#181818;stroke-width:0.5;" x1="43.9207" x2="190.0728" y1="58.4561" y2="58.4561"/><text fill="#000000" font-family="sans-serif" font-size="6.5" font-weight="bold" lengthAdjust="spacing" textLength="3.615" x="47.4207" y="55.8247">1</text><text fill="#000000" font-family="sans-serif" font-size="6.5" lengthAdjust="spacing" textLength="134.0371" x="53.0356" y="55.8247">start AddUpgradeStationUI(station, simulation)</text><polygon fill="#181818" points="364.6848,72.1016,369.6848,74.1016,364.6848,76.1016,366.6848,74.1016" style="stroke:#181818;stroke-width:0.5;"/><line style="stroke:#181818;stroke-width:0.5;" x1="198.0728" x2="367.6848" y1="74.1016" y2="74.1016"/><text fill="#000000" font-family="sans-serif" font-size="6.5" font-weight="bold" lengthAdjust="spacing" textLength="3.615" x="201.5728" y="71.4702">2</text><text fill="#000000" font-family="sans-serif" font-size="6.5" lengthAdjust="spacing" textLength="154.9971" x="207.1877" y="71.4702">new AddUpgradeStationController(station, simulation)</text><rect fill="#E2E2F0" height="16.3105" rx="1.25" ry="1.25" style="stroke:#181818;stroke-width:0.25;" width="100.3892" x="370.6848" y="62.4561"/><text fill="#000000" font-family="sans-serif" font-size="7" lengthAdjust="spacing" textLength="93.3892" x="374.1848" y="73.5098">:AddUpgradeStationController</text><polygon fill="#181818" points="203.5728,93.9121,198.5728,95.9121,203.5728,97.9121,201.5728,95.9121" style="stroke:#181818;stroke-width:0.5;"/><line style="stroke:#181818;stroke-width:0.5;stroke-dasharray:2.0,2.0;" x1="200.5728" x2="420.3794" y1="95.9121" y2="95.9121"/><text fill="#000000" font-family="sans-serif" font-size="6.5" font-weight="bold" lengthAdjust="spacing" textLength="3.615" x="206.5728" y="93.2808">3</text><text fill="#000000" font-family="sans-serif" font-size="6.5" lengthAdjust="spacing" textLength="50.2195" x="212.1877" y="93.2808">controller created</text><path d="M5,103.4121 L84.1973,103.4121 L84.1973,108.0576 L79.1973,113.0576 L5,113.0576 L5,103.4121 " fill="#EEEEEE" style="stroke:#000000;stroke-width:0.75;"/><rect fill="none" height="650.582" style="stroke:#000000;stroke-width:0.75;" width="721.7603" x="5" y="103.4121"/><text fill="#000000" font-family="sans-serif" font-size="6.5" font-weight="bold" lengthAdjust="spacing" textLength="56.6973" x="12.5" y="110.9263">Building Selection</text><path d="M10,116.5576 L46.2173,116.5576 L46.2173,121.2031 L41.2173,126.2031 L10,126.2031 L10,116.5576 " fill="#EEEEEE" style="stroke:#000000;stroke-width:0.75;"/><rect fill="none" height="633.9365" style="stroke:#000000;stroke-width:0.75;" width="711.7603" x="10" y="116.5576"/><text fill="#000000" font-family="sans-serif" font-size="6.5" font-weight="bold" lengthAdjust="spacing" textLength="13.7173" x="17.5" y="124.0718">loop</text><text fill="#000000" font-family="sans-serif" font-size="5.5" font-weight="bold" lengthAdjust="spacing" textLength="73.3369" x="53.7173" y="123.4927">[until valid option or cancel]</text><polygon fill="#181818" points="412.3794,135.8486,417.3794,137.8486,412.3794,139.8486,414.3794,137.8486" style="stroke:#181818;stroke-width:0.5;"/><line style="stroke:#181818;stroke-width:0.5;" x1="198.0728" x2="415.3794" y1="137.8486" y2="137.8486"/><text fill="#000000" font-family="sans-serif" font-size="6.5" font-weight="bold" lengthAdjust="spacing" textLength="3.615" x="201.5728" y="135.2173">4</text><text fill="#000000" font-family="sans-serif" font-size="6.5" lengthAdjust="spacing" textLength="80.5708" x="207.1877" y="135.2173">getAvailableBuildingTypes()</text><polygon fill="#181818" points="579.1814,151.4941,584.1814,153.4941,579.1814,155.4941,581.1814,153.4941" style="stroke:#181818;stroke-width:0.5;"/><line style="stroke:#181818;stroke-width:0.5;" x1="423.3794" x2="582.1814" y1="153.4941" y2="153.4941"/><text fill="#000000" font-family="sans-serif" font-size="6.5" font-weight="bold" lengthAdjust="spacing" textLength="3.615" x="426.8794" y="150.8628">5</text><text fill="#000000" font-family="sans-serif" font-size="6.5" lengthAdjust="spacing" textLength="49.4832" x="432.4944" y="150.8628">getCurrentTime()</text><polygon fill="#181818" points="428.8794,167.1396,423.8794,169.1396,428.8794,171.1396,426.8794,169.1396" style="stroke:#181818;stroke-width:0.5;"/><line style="stroke:#181818;stroke-width:0.5;stroke-dasharray:2.0,2.0;" x1="425.8794" x2="587.1814" y1="169.1396" y2="169.1396"/><text fill="#000000" font-family="sans-serif" font-size="6.5" font-weight="bold" lengthAdjust="spacing" textLength="3.615" x="431.8794" y="166.5083">6</text><text fill="#000000" font-family="sans-serif" font-size="6.5" lengthAdjust="spacing" textLength="34.6741" x="437.4944" y="166.5083">currentTime</text><polygon fill="#181818" points="537.9988,182.7852,542.9988,184.7852,537.9988,186.7852,539.9988,184.7852" style="stroke:#181818;stroke-width:0.5;"/><line style="stroke:#181818;stroke-width:0.5;" x1="423.3794" x2="540.9988" y1="184.7852" y2="184.7852"/><text fill="#000000" font-family="sans-serif" font-size="6.5" font-weight="bold" lengthAdjust="spacing" textLength="3.615" x="426.8794" y="182.1538">7</text><text fill="#000000" font-family="sans-serif" font-size="6.5" lengthAdjust="spacing" textLength="39.7427" x="432.4944" y="182.1538">getBuildings()</text><polygon fill="#181818" points="428.8794,198.4307,423.8794,200.4307,428.8794,202.4307,426.8794,200.4307" style="stroke:#181818;stroke-width:0.5;"/><line style="stroke:#181818;stroke-width:0.5;stroke-dasharray:2.0,2.0;" x1="425.8794" x2="545.9988" y1="200.4307" y2="200.4307"/><text fill="#000000" font-family="sans-serif" font-size="6.5" font-weight="bold" lengthAdjust="spacing" textLength="3.615" x="431.8794" y="197.7993">8</text><text fill="#000000" font-family="sans-serif" font-size="6.5" lengthAdjust="spacing" textLength="66.479" x="437.4944" y="197.7993">list of existing buildings</text><polygon fill="#181818" points="203.5728,214.0762,198.5728,216.0762,203.5728,218.0762,201.5728,216.0762" style="stroke:#181818;stroke-width:0.5;"/><line style="stroke:#181818;stroke-width:0.5;stroke-dasharray:2.0,2.0;" x1="200.5728" x2="420.3794" y1="216.0762" y2="216.0762"/><text fill="#000000" font-family="sans-serif" font-size="6.5" font-weight="bold" lengthAdjust="spacing" textLength="3.615" x="206.5728" y="213.4448">9</text><text fill="#000000" font-family="sans-serif" font-size="6.5" lengthAdjust="spacing" textLength="84.189" x="212.1877" y="213.4448">list of available building types</text><polygon fill="#181818" points="49.4207,229.7217,44.4207,231.7217,49.4207,233.7217,47.4207,231.7217" style="stroke:#181818;stroke-width:0.5;"/><line style="stroke:#181818;stroke-width:0.5;stroke-dasharray:2.0,2.0;" x1="46.4207" x2="192.5728" y1="231.7217" y2="231.7217"/><text fill="#000000" font-family="sans-serif" font-size="6.5" font-weight="bold" lengthAdjust="spacing" textLength="7.23" x="52.4207" y="229.0903">10</text><text fill="#000000" font-family="sans-serif" font-size="6.5" lengthAdjust="spacing" textLength="89.6162" x="61.6506" y="229.0903">show available building options</text><polygon fill="#181818" points="187.0728,245.3672,192.0728,247.3672,187.0728,249.3672,189.0728,247.3672" style="stroke:#181818;stroke-width:0.5;"/><line style="stroke:#181818;stroke-width:0.5;" x1="43.9207" x2="190.0728" y1="247.3672" y2="247.3672"/><text fill="#000000" font-family="sans-serif" font-size="6.5" font-weight="bold" lengthAdjust="spacing" textLength="7.23" x="47.4207" y="244.7358">11</text><text fill="#000000" font-family="sans-serif" font-size="6.5" lengthAdjust="spacing" textLength="94.2944" x="56.6506" y="244.7358">selects building type (or cancels)</text><path d="M15,254.8672 L45.0854,254.8672 L45.0854,259.5127 L40.0854,264.5127 L15,264.5127 L15,254.8672 " fill="#EEEEEE" style="stroke:#000000;stroke-width:0.75;"/><rect fill="none" height="492.127" style="stroke:#000000;stroke-width:0.75;" width="701.7603" x="15" y="254.8672"/><text fill="#000000" font-family="sans-serif" font-size="6.5" font-weight="bold" lengthAdjust="spacing" textLength="7.5854" x="22.5" y="262.3813">alt</text><text fill="#000000" font-family="sans-serif" font-size="5.5" font-weight="bold" lengthAdjust="spacing" textLength="20.7861" x="52.5854" y="261.8022">[cancel]</text><polygon fill="#181818" points="49.4207,274.1582,44.4207,276.1582,49.4207,278.1582,47.4207,276.1582" style="stroke:#181818;stroke-width:0.5;"/><line style="stroke:#181818;stroke-width:0.5;stroke-dasharray:2.0,2.0;" x1="46.4207" x2="192.5728" y1="276.1582" y2="276.1582"/><text fill="#000000" font-family="sans-serif" font-size="6.5" font-weight="bold" lengthAdjust="spacing" textLength="7.23" x="52.4207" y="273.5269">12</text><text fill="#000000" font-family="sans-serif" font-size="6.5" lengthAdjust="spacing" textLength="56.3735" x="61.6506" y="273.5269">operation cancelled</text><line style="stroke:#000000;stroke-width:0.5;stroke-dasharray:2.0,2.0;" x1="15" x2="716.7603" y1="280.6582" y2="280.6582"/><text fill="#000000" font-family="sans-serif" font-size="5.5" font-weight="bold" lengthAdjust="spacing" textLength="39.4104" x="17.5" y="286.5933">[invalid option]</text><polygon fill="#181818" points="49.4207,298.1191,44.4207,300.1191,49.4207,302.1191,47.4207,300.1191" style="stroke:#181818;stroke-width:0.5;"/><line style="stroke:#181818;stroke-width:0.5;stroke-dasharray:2.0,2.0;" x1="46.4207" x2="192.5728" y1="300.1191" y2="300.1191"/><text fill="#000000" font-family="sans-serif" font-size="6.5" font-weight="bold" lengthAdjust="spacing" textLength="7.23" x="52.4207" y="297.4878">13</text><text fill="#000000" font-family="sans-serif" font-size="6.5" lengthAdjust="spacing" textLength="41.9041" x="61.6506" y="297.4878">error message</text><line style="stroke:#000000;stroke-width:0.5;stroke-dasharray:2.0,2.0;" x1="15" x2="716.7603" y1="304.6191" y2="304.6191"/><text fill="#000000" font-family="sans-serif" font-size="5.5" font-weight="bold" lengthAdjust="spacing" textLength="34.5227" x="17.5" y="310.5542">[valid option]</text><polygon fill="#181818" points="412.3794,322.0801,417.3794,324.0801,412.3794,326.0801,414.3794,324.0801" style="stroke:#181818;stroke-width:0.5;"/><line style="stroke:#181818;stroke-width:0.5;" x1="198.0728" x2="415.3794" y1="324.0801" y2="324.0801"/><text fill="#000000" font-family="sans-serif" font-size="6.5" font-weight="bold" lengthAdjust="spacing" textLength="7.23" x="201.5728" y="321.4487">14</text><text fill="#000000" font-family="sans-serif" font-size="6.5" lengthAdjust="spacing" textLength="102.9812" x="210.8027" y="321.4487">addBuildingToStation(buildingType)</text><polygon fill="#181818" points="579.1814,337.7256,584.1814,339.7256,579.1814,341.7256,581.1814,339.7256" style="stroke:#181818;stroke-width:0.5;"/><line style="stroke:#181818;stroke-width:0.5;" x1="423.3794" x2="582.1814" y1="339.7256" y2="339.7256"/><text fill="#000000" font-family="sans-serif" font-size="6.5" font-weight="bold" lengthAdjust="spacing" textLength="7.23" x="426.8794" y="337.0942">15</text><text fill="#000000" font-family="sans-serif" font-size="6.5" lengthAdjust="spacing" textLength="50.9399" x="436.1094" y="337.0942">getActualMoney()</text><polygon fill="#181818" points="428.8794,353.3711,423.8794,355.3711,428.8794,357.3711,426.8794,355.3711" style="stroke:#181818;stroke-width:0.5;"/><line style="stroke:#181818;stroke-width:0.5;stroke-dasharray:2.0,2.0;" x1="425.8794" x2="587.1814" y1="355.3711" y2="355.3711"/><text fill="#000000" font-family="sans-serif" font-size="6.5" font-weight="bold" lengthAdjust="spacing" textLength="7.23" x="431.8794" y="352.7397">16</text><text fill="#000000" font-family="sans-serif" font-size="6.5" lengthAdjust="spacing" textLength="36.8545" x="441.1094" y="352.7397">actualMoney</text><path d="M20,362.8711 L50.0854,362.8711 L50.0854,367.5166 L45.0854,372.5166 L20,372.5166 L20,362.8711 " fill="#EEEEEE" style="stroke:#000000;stroke-width:0.75;"/><rect fill="none" height="380.623" style="stroke:#000000;stroke-width:0.75;" width="691.7603" x="20" y="362.8711"/><text fill="#000000" font-family="sans-serif" font-size="6.5" font-weight="bold" lengthAdjust="spacing" textLength="7.5854" x="27.5" y="370.3853">alt</text><text fill="#000000" font-family="sans-serif" font-size="5.5" font-weight="bold" lengthAdjust="spacing" textLength="52.8542" x="57.5854" y="369.8062">[not enough money]</text><polygon fill="#181818" points="203.5728,382.1621,198.5728,384.1621,203.5728,386.1621,201.5728,384.1621" style="stroke:#181818;stroke-width:0.5;"/><line style="stroke:#181818;stroke-width:0.5;stroke-dasharray:2.0,2.0;" x1="200.5728" x2="417.8794" y1="384.1621" y2="384.1621"/><text fill="#000000" font-family="sans-serif" font-size="6.5" font-weight="bold" lengthAdjust="spacing" textLength="7.23" x="206.5728" y="381.5308">17</text><text fill="#000000" font-family="sans-serif" font-size="6.5" lengthAdjust="spacing" textLength="117.3586" x="215.8027" y="381.5308">"Not enough money to add this building."</text><polygon fill="#181818" points="49.4207,397.8076,44.4207,399.8076,49.4207,401.8076,47.4207,399.8076" style="stroke:#181818;stroke-width:0.5;"/><line style="stroke:#181818;stroke-width:0.5;stroke-dasharray:2.0,2.0;" x1="46.4207" x2="192.5728" y1="399.8076" y2="399.8076"/><text fill="#000000" font-family="sans-serif" font-size="6.5" font-weight="bold" lengthAdjust="spacing" textLength="7.23" x="52.4207" y="397.1763">18</text><text fill="#000000" font-family="sans-serif" font-size="6.5" lengthAdjust="spacing" textLength="30.7036" x="61.6506" y="397.1763">show error</text><line style="stroke:#000000;stroke-width:0.5;stroke-dasharray:2.0,2.0;" x1="20" x2="711.7603" y1="404.3076" y2="404.3076"/><polygon fill="#181818" points="537.9988,414.4531,542.9988,416.4531,537.9988,418.4531,539.9988,416.4531" style="stroke:#181818;stroke-width:0.5;"/><line style="stroke:#181818;stroke-width:0.5;" x1="423.3794" x2="540.9988" y1="416.4531" y2="416.4531"/><text fill="#000000" font-family="sans-serif" font-size="6.5" font-weight="bold" lengthAdjust="spacing" textLength="7.23" x="426.8794" y="413.8218">19</text><text fill="#000000" font-family="sans-serif" font-size="6.5" lengthAdjust="spacing" textLength="80.5708" x="436.1094" y="413.8218">getAvailableBuildingTypes()</text><polygon fill="#181818" points="428.8794,430.0986,423.8794,432.0986,428.8794,434.0986,426.8794,432.0986" style="stroke:#181818;stroke-width:0.5;"/><line style="stroke:#181818;stroke-width:0.5;stroke-dasharray:2.0,2.0;" x1="425.8794" x2="545.9988" y1="432.0986" y2="432.0986"/><text fill="#000000" font-family="sans-serif" font-size="6.5" font-weight="bold" lengthAdjust="spacing" textLength="7.23" x="431.8794" y="429.4673">20</text><text fill="#000000" font-family="sans-serif" font-size="6.5" lengthAdjust="spacing" textLength="70.0972" x="441.1094" y="429.4673">list of available buildings</text><path d="M25,439.5986 L55.0854,439.5986 L55.0854,444.2441 L50.0854,449.2441 L25,449.2441 L25,439.5986 " fill="#EEEEEE" style="stroke:#000000;stroke-width:0.75;"/><rect fill="none" height="300.3955" style="stroke:#000000;stroke-width:0.75;" width="681.7603" x="25" y="439.5986"/><text fill="#000000" font-family="sans-serif" font-size="6.5" font-weight="bold" lengthAdjust="spacing" textLength="7.5854" x="32.5" y="447.1128">alt</text><text fill="#000000" font-family="sans-serif" font-size="5.5" font-weight="bold" lengthAdjust="spacing" textLength="62.96" x="62.5854" y="446.5337">[building already exists]</text><polygon fill="#181818" points="203.5728,458.8896,198.5728,460.8896,203.5728,462.8896,201.5728,460.8896" style="stroke:#181818;stroke-width:0.5;"/><line style="stroke:#181818;stroke-width:0.5;stroke-dasharray:2.0,2.0;" x1="200.5728" x2="417.8794" y1="460.8896" y2="460.8896"/><text fill="#000000" font-family="sans-serif" font-size="6.5" font-weight="bold" lengthAdjust="spacing" textLength="7.23" x="206.5728" y="458.2583">21</text><text fill="#000000" font-family="sans-serif" font-size="6.5" lengthAdjust="spacing" textLength="148.4177" x="215.8027" y="458.2583">"A building of this type already exists in the station."</text><polygon fill="#181818" points="49.4207,474.5352,44.4207,476.5352,49.4207,478.5352,47.4207,476.5352" style="stroke:#181818;stroke-width:0.5;"/><line style="stroke:#181818;stroke-width:0.5;stroke-dasharray:2.0,2.0;" x1="46.4207" x2="192.5728" y1="476.5352" y2="476.5352"/><text fill="#000000" font-family="sans-serif" font-size="6.5" font-weight="bold" lengthAdjust="spacing" textLength="7.23" x="52.4207" y="473.9038">22</text><text fill="#000000" font-family="sans-serif" font-size="6.5" lengthAdjust="spacing" textLength="30.7036" x="61.6506" y="473.9038">show error</text><line style="stroke:#000000;stroke-width:0.5;stroke-dasharray:2.0,2.0;" x1="25" x2="706.7603" y1="481.0352" y2="481.0352"/><text fill="#000000" font-family="sans-serif" font-size="5.5" font-weight="bold" lengthAdjust="spacing" textLength="70.5923" x="27.5" y="486.9702">[building replaces another]</text><polygon fill="#181818" points="537.9988,498.4961,542.9988,500.4961,537.9988,502.4961,539.9988,500.4961" style="stroke:#181818;stroke-width:0.5;"/><line style="stroke:#181818;stroke-width:0.5;" x1="423.3794" x2="540.9988" y1="500.4961" y2="500.4961"/><text fill="#000000" font-family="sans-serif" font-size="6.5" font-weight="bold" lengthAdjust="spacing" textLength="7.23" x="426.8794" y="497.8647">23</text><text fill="#000000" font-family="sans-serif" font-size="6.5" lengthAdjust="spacing" textLength="80.5708" x="436.1094" y="497.8647">getAvailableBuildingTypes()</text><polygon fill="#181818" points="428.8794,514.1416,423.8794,516.1416,428.8794,518.1416,426.8794,516.1416" style="stroke:#181818;stroke-width:0.5;"/><line style="stroke:#181818;stroke-width:0.5;stroke-dasharray:2.0,2.0;" x1="425.8794" x2="545.9988" y1="516.1416" y2="516.1416"/><text fill="#000000" font-family="sans-serif" font-size="6.5" font-weight="bold" lengthAdjust="spacing" textLength="7.23" x="431.8794" y="513.5103">24</text><text fill="#000000" font-family="sans-serif" font-size="6.5" lengthAdjust="spacing" textLength="86.3535" x="441.1094" y="513.5103">list of available building Types</text><polygon fill="#181818" points="540.4988,529.7871,545.4988,531.7871,540.4988,533.7871,542.4988,531.7871" style="stroke:#181818;stroke-width:0.5;"/><line style="stroke:#181818;stroke-width:0.5;" x1="423.3794" x2="543.4988" y1="531.7871" y2="531.7871"/><text fill="#000000" font-family="sans-serif" font-size="6.5" font-weight="bold" lengthAdjust="spacing" textLength="7.23" x="426.8794" y="529.1558">25</text><text fill="#000000" font-family="sans-serif" font-size="6.5" lengthAdjust="spacing" textLength="101.8894" x="436.1094" y="529.1558">removeBuilding(building to replace)</text><polygon fill="#181818" points="661.9087,545.4326,666.9087,547.4326,661.9087,549.4326,663.9087,547.4326" style="stroke:#181818;stroke-width:0.5;"/><line style="stroke:#181818;stroke-width:0.5;" x1="423.3794" x2="664.9087" y1="547.4326" y2="547.4326"/><text fill="#000000" font-family="sans-serif" font-size="6.5" font-weight="bold" lengthAdjust="spacing" textLength="7.23" x="426.8794" y="544.8013">26</text><text fill="#000000" font-family="sans-serif" font-size="6.5" lengthAdjust="spacing" textLength="78.0444" x="436.1094" y="544.8013">new Building(buildingType)</text><rect fill="#E2E2F0" height="25.6211" rx="1.25" ry="1.25" style="stroke:#181818;stroke-width:0.25;" width="33.8516" x="667.9087" y="535.7871"/><text fill="#000000" font-family="sans-serif" font-size="7" lengthAdjust="spacing" textLength="24.1309" x="672.769" y="546.8408">building</text><text fill="#000000" font-family="sans-serif" font-size="7" lengthAdjust="spacing" textLength="26.8516" x="671.4087" y="556.1514">:Building</text><polygon fill="#181818" points="540.4988,576.5537,545.4988,578.5537,540.4988,580.5537,542.4988,578.5537" style="stroke:#181818;stroke-width:0.5;"/><line style="stroke:#181818;stroke-width:0.5;" x1="423.3794" x2="543.4988" y1="578.5537" y2="578.5537"/><text fill="#000000" font-family="sans-serif" font-size="6.5" font-weight="bold" lengthAdjust="spacing" textLength="7.23" x="426.8794" y="575.9224">27</text><text fill="#000000" font-family="sans-serif" font-size="6.5" lengthAdjust="spacing" textLength="60.709" x="436.1094" y="575.9224">addBuilding(building)</text><polygon fill="#181818" points="203.5728,592.1992,198.5728,594.1992,203.5728,596.1992,201.5728,594.1992" style="stroke:#181818;stroke-width:0.5;"/><line style="stroke:#181818;stroke-width:0.5;stroke-dasharray:2.0,2.0;" x1="200.5728" x2="417.8794" y1="594.1992" y2="594.1992"/><text fill="#000000" font-family="sans-serif" font-size="6.5" font-weight="bold" lengthAdjust="spacing" textLength="7.23" x="206.5728" y="591.5679">28</text><text fill="#000000" font-family="sans-serif" font-size="6.5" lengthAdjust="spacing" textLength="106.4978" x="215.8027" y="591.5679">"Building was replaced successfully."</text><polygon fill="#181818" points="49.4207,607.8447,44.4207,609.8447,49.4207,611.8447,47.4207,609.8447" style="stroke:#181818;stroke-width:0.5;"/><line style="stroke:#181818;stroke-width:0.5;stroke-dasharray:2.0,2.0;" x1="46.4207" x2="192.5728" y1="609.8447" y2="609.8447"/><text fill="#000000" font-family="sans-serif" font-size="6.5" font-weight="bold" lengthAdjust="spacing" textLength="7.23" x="52.4207" y="607.2134">29</text><text fill="#000000" font-family="sans-serif" font-size="6.5" lengthAdjust="spacing" textLength="40.46" x="61.6506" y="607.2134">show success</text><line style="stroke:#000000;stroke-width:0.5;stroke-dasharray:2.0,2.0;" x1="25" x2="706.7603" y1="614.3447" y2="614.3447"/><text fill="#000000" font-family="sans-serif" font-size="5.5" font-weight="bold" lengthAdjust="spacing" textLength="95.3584" x="27.5" y="620.2798">[building has already been replaced]</text><polygon fill="#181818" points="203.5728,631.8057,198.5728,633.8057,203.5728,635.8057,201.5728,633.8057" style="stroke:#181818;stroke-width:0.5;"/><line style="stroke:#181818;stroke-width:0.5;stroke-dasharray:2.0,2.0;" x1="200.5728" x2="417.8794" y1="633.8057" y2="633.8057"/><text fill="#000000" font-family="sans-serif" font-size="6.5" font-weight="bold" lengthAdjust="spacing" textLength="7.23" x="206.5728" y="631.1743">30</text><text fill="#000000" font-family="sans-serif" font-size="6.5" lengthAdjust="spacing" textLength="186.0181" x="215.8027" y="631.1743">"Cannot add this building because it has already been replaced."</text><polygon fill="#181818" points="49.4207,647.4512,44.4207,649.4512,49.4207,651.4512,47.4207,649.4512" style="stroke:#181818;stroke-width:0.5;"/><line style="stroke:#181818;stroke-width:0.5;stroke-dasharray:2.0,2.0;" x1="46.4207" x2="192.5728" y1="649.4512" y2="649.4512"/><text fill="#000000" font-family="sans-serif" font-size="6.5" font-weight="bold" lengthAdjust="spacing" textLength="7.23" x="52.4207" y="646.8198">31</text><text fill="#000000" font-family="sans-serif" font-size="6.5" lengthAdjust="spacing" textLength="30.7036" x="61.6506" y="646.8198">show error</text><line style="stroke:#000000;stroke-width:0.5;stroke-dasharray:2.0,2.0;" x1="25" x2="706.7603" y1="653.9512" y2="653.9512"/><text fill="#000000" font-family="sans-serif" font-size="5.5" font-weight="bold" lengthAdjust="spacing" textLength="48.5762" x="27.5" y="659.8862">[add new building]</text><polygon fill="#181818" points="678.8345,671.4121,683.8345,673.4121,678.8345,675.4121,680.8345,673.4121" style="stroke:#181818;stroke-width:0.5;"/><line style="stroke:#181818;stroke-width:0.5;" x1="423.3794" x2="681.8345" y1="673.4121" y2="673.4121"/><text fill="#000000" font-family="sans-serif" font-size="6.5" font-weight="bold" lengthAdjust="spacing" textLength="7.23" x="426.8794" y="670.7808">32</text><text fill="#000000" font-family="sans-serif" font-size="6.5" lengthAdjust="spacing" textLength="78.0444" x="436.1094" y="670.7808">new Building(buildingType)</text><polygon fill="#181818" points="540.4988,687.0576,545.4988,689.0576,540.4988,691.0576,542.4988,689.0576" style="stroke:#181818;stroke-width:0.5;"/><line style="stroke:#181818;stroke-width:0.5;" x1="423.3794" x2="543.4988" y1="689.0576" y2="689.0576"/><text fill="#000000" font-family="sans-serif" font-size="6.5" font-weight="bold" lengthAdjust="spacing" textLength="7.23" x="426.8794" y="686.4263">33</text><text fill="#000000" font-family="sans-serif" font-size="6.5" lengthAdjust="spacing" textLength="60.709" x="436.1094" y="686.4263">addBuilding(building)</text><polygon fill="#181818" points="581.6814,702.7031,586.6814,704.7031,581.6814,706.7031,583.6814,704.7031" style="stroke:#181818;stroke-width:0.5;"/><line style="stroke:#181818;stroke-width:0.5;" x1="423.3794" x2="584.6814" y1="704.7031" y2="704.7031"/><text fill="#000000" font-family="sans-serif" font-size="6.5" font-weight="bold" lengthAdjust="spacing" textLength="7.23" x="426.8794" y="702.0718">34</text><text fill="#000000" font-family="sans-serif" font-size="6.5" lengthAdjust="spacing" textLength="105.1267" x="436.1094" y="702.0718">setActualMoney(actualMoney - cost)</text><polygon fill="#181818" points="203.5728,718.3486,198.5728,720.3486,203.5728,722.3486,201.5728,720.3486" style="stroke:#181818;stroke-width:0.5;"/><line style="stroke:#181818;stroke-width:0.5;stroke-dasharray:2.0,2.0;" x1="200.5728" x2="417.8794" y1="720.3486" y2="720.3486"/><text fill="#000000" font-family="sans-serif" font-size="6.5" font-weight="bold" lengthAdjust="spacing" textLength="7.23" x="206.5728" y="717.7173">35</text><text fill="#000000" font-family="sans-serif" font-size="6.5" lengthAdjust="spacing" textLength="138.6646" x="215.8027" y="717.7173">"Building was successfully added to the station!"</text><polygon fill="#181818" points="49.4207,733.9941,44.4207,735.9941,49.4207,737.9941,47.4207,735.9941" style="stroke:#181818;stroke-width:0.5;"/><line style="stroke:#181818;stroke-width:0.5;stroke-dasharray:2.0,2.0;" x1="46.4207" x2="192.5728" y1="735.9941" y2="735.9941"/><text fill="#000000" font-family="sans-serif" font-size="6.5" font-weight="bold" lengthAdjust="spacing" textLength="7.23" x="52.4207" y="733.3628">36</text><text fill="#000000" font-family="sans-serif" font-size="6.5" lengthAdjust="spacing" textLength="40.46" x="61.6506" y="733.3628">show success</text><!--SRC=[nLRBRjim4BphAxO-sK7T3yWXWEDS0YH5q2Y70htGqjecGf42ITdrttUf1qMzR2S8K05vs9eT3dTdbpJlNEPCimnobhop7RxQaq3Gc5WcTm8Zum5cpr9rv787MoPC-4PmYVQK8oXjzofYXLMoo3QeeuWbLccOlGXsGZq3Pk3bwNT4OPOdF6VImknsbQPl-Kwpb1PdbYlvzbWYtnul0TTAMgs4gAdNyQ-dReYfS7_aRHrHubxZ7efdXV10_w72FZvtmPk2YvIo4DE62NuVV2m3xkDnV82jS4yFPNhuWLaiiq8_iBoZRSCja71jOIGpytfBtw5LlMXvA6SKJomk5pStn2Jn26SITu6lJAdx1Sj6Mk9Z8T58e3HAiHiGxRGgScZs2wyeo534704zGgaS2ccvW0CJF0MLktVa7aYOJ52KAFUqMw5rTsXN1yO5smWCisxc2n_GbG71K-tXpjMpubeNMgEqCSym8EYGkDg7BrpiiXMKj0mTM90Dnp0k8wvKD1inanhYheGuL22uiQ2sW7_f7vVencncKb0yfgSfRSF7cZnxGd3ztR8E2XvMZDYSbSd4UtKSuwhgtR9rZ5zQnNGNXhdtXbcqYp5X-uuPQ50vwjBKDLAGNHiWiI5m6PfmcWYr9X4P6aDJiajnbi0NYwMfjwsg-t0UJfC91tGJFEddLM8B9fwLn5FFIsSzFU9hrZ8DeEUytPH4AWieLR7RGpPACZJUx6Sl1gno2GExvwqNVin6gOQUAsirmBfQdT7IDkN5CNDDfvxls65NcD7eCwqRfjnt2nCqajDJDH76AKUolmfwSrlbl6oxBXkr2hr3g4-CYMfyf2A-W_po6dF14ZJ0o4Lxr1TsyCcQNLEtZzGEuivq_4GH1rlIcAc3tyoy7OUgoT7Y8X5TCVmLOC0qd3YJMeB9vSCNrthBNmAETEcffQTWYeIgRBQ54ASF6QaElC9AUrglCV06KVh5hrM-PjADii4O8hQ45UxeiDEBV6LtE0MkXes0Qmh_dyhU74YcUo05HmeiwGPfxEVy4zh6wICdKKC4G-dRbtb93dtI_wv_2-hZchy1ZkxdlM_SpP-0_m00]--></g></svg>