<svg xmlns="http://www.w3.org/2000/svg" xmlns:xlink="http://www.w3.org/1999/xlink" contentStyleType="text/css" height="409px" preserveAspectRatio="none" style="width:633px;height:409px;background:#FFFFFF;" version="1.1" viewBox="0 0 633 409" width="633px" zoomAndPan="magnify"><defs/><g><rect fill="#FFFFFF" height="224.0078" style="stroke:#181818;stroke-width:1.0;" width="10" x="37.8413" y="93.6211"/><rect fill="#FFFFFF" height="224.0078" style="stroke:#181818;stroke-width:1.0;" width="10" x="265.1602" y="93.6211"/><rect fill="none" height="146.4258" style="stroke:#000000;stroke-width:1.5;" width="616.7417" x="10" y="163.2031"/><line style="stroke:#181818;stroke-width:0.5;stroke-dasharray:5.0,5.0;" x1="42" x2="42" y1="83.6211" y2="326.6289"/><line style="stroke:#181818;stroke-width:0.5;stroke-dasharray:5.0,5.0;" x1="270.1157" x2="270.1157" y1="83.6211" y2="326.6289"/><line style="stroke:#181818;stroke-width:0.5;stroke-dasharray:5.0,5.0;" x1="515.9634" x2="515.9634" y1="83.6211" y2="326.6289"/><text fill="#000000" font-family="sans-serif" font-size="14" lengthAdjust="spacing" textLength="39.6826" x="20" y="80.1074">Player</text><ellipse cx="42.8413" cy="13.5" fill="#E2E2F0" rx="8" ry="8" style="stroke:#181818;stroke-width:0.5;"/><path d="M42.8413,21.5 L42.8413,48.5 M29.8413,29.5 L55.8413,29.5 M42.8413,48.5 L29.8413,63.5 M42.8413,48.5 L55.8413,63.5 " fill="none" style="stroke:#181818;stroke-width:0.5;"/><text fill="#000000" font-family="sans-serif" font-size="14" lengthAdjust="spacing" textLength="39.6826" x="20" y="340.7363">Player</text><ellipse cx="42.8413" cy="352.75" fill="#E2E2F0" rx="8" ry="8" style="stroke:#181818;stroke-width:0.5;"/><path d="M42.8413,360.75 L42.8413,387.75 M29.8413,368.75 L55.8413,368.75 M42.8413,387.75 L29.8413,402.75 M42.8413,387.75 L55.8413,402.75 " fill="none" style="stroke:#181818;stroke-width:0.5;"/><rect fill="#E2E2F0" height="32.6211" rx="2.5" ry="2.5" style="stroke:#181818;stroke-width:0.5;" width="154.0889" x="193.1157" y="50"/><text fill="#000000" font-family="sans-serif" font-size="14" lengthAdjust="spacing" textLength="140.0889" x="200.1157" y="72.1074">:AddUpgradeStationUI</text><rect fill="#E2E2F0" height="32.6211" rx="2.5" ry="2.5" style="stroke:#181818;stroke-width:0.5;" width="154.0889" x="193.1157" y="325.6289"/><text fill="#000000" font-family="sans-serif" font-size="14" lengthAdjust="spacing" textLength="140.0889" x="200.1157" y="347.7363">:AddUpgradeStationUI</text><rect fill="#E2E2F0" height="32.6211" rx="2.5" ry="2.5" style="stroke:#181818;stroke-width:0.5;" width="200.7783" x="415.9634" y="50"/><text fill="#000000" font-family="sans-serif" font-size="14" lengthAdjust="spacing" textLength="186.7783" x="422.9634" y="72.1074">:AddUpgradeStationController</text><rect fill="#E2E2F0" height="32.6211" rx="2.5" ry="2.5" style="stroke:#181818;stroke-width:0.5;" width="200.7783" x="415.9634" y="325.6289"/><text fill="#000000" font-family="sans-serif" font-size="14" lengthAdjust="spacing" textLength="186.7783" x="422.9634" y="347.7363">:AddUpgradeStationController</text><rect fill="#FFFFFF" height="224.0078" style="stroke:#181818;stroke-width:1.0;" width="10" x="37.8413" y="93.6211"/><rect fill="#FFFFFF" height="224.0078" style="stroke:#181818;stroke-width:1.0;" width="10" x="265.1602" y="93.6211"/><polygon fill="#181818" points="58.8413,112.9121,48.8413,116.9121,58.8413,120.9121,54.8413,116.9121" style="stroke:#181818;stroke-width:1.0;"/><line style="stroke:#181818;stroke-width:1.0;stroke-dasharray:2.0,2.0;" x1="52.8413" x2="264.1602" y1="116.9121" y2="116.9121"/><text fill="#000000" font-family="sans-serif" font-size="13" font-weight="bold" lengthAdjust="spacing" textLength="7.23" x="64.8413" y="111.6494">1</text><text fill="#000000" font-family="sans-serif" font-size="13" lengthAdjust="spacing" textLength="179.2324" x="76.0713" y="111.6494">show available building options</text><polygon fill="#181818" points="253.1602,144.2031,263.1602,148.2031,253.1602,152.2031,257.1602,148.2031" style="stroke:#181818;stroke-width:1.0;"/><line style="stroke:#181818;stroke-width:1.0;" x1="47.8413" x2="259.1602" y1="148.2031" y2="148.2031"/><text fill="#000000" font-family="sans-serif" font-size="13" font-weight="bold" lengthAdjust="spacing" textLength="7.23" x="54.8413" y="142.9404">2</text><text fill="#000000" font-family="sans-serif" font-size="13" lengthAdjust="spacing" textLength="182.0889" x="66.0713" y="142.9404">selects building type (or cancel)</text><path d="M10,163.2031 L70.1709,163.2031 L70.1709,172.4941 L60.1709,182.4941 L10,182.4941 L10,163.2031 " fill="#EEEEEE" style="stroke:#000000;stroke-width:1.5;"/><rect fill="none" height="146.4258" style="stroke:#000000;stroke-width:1.5;" width="616.7417" x="10" y="163.2031"/><text fill="#000000" font-family="sans-serif" font-size="13" font-weight="bold" lengthAdjust="spacing" textLength="15.1709" x="25" y="178.2314">alt</text><text fill="#000000" font-family="sans-serif" font-size="11" font-weight="bold" lengthAdjust="spacing" textLength="43.3984" x="85.1709" y="177.0732">[Cancel]</text><polygon fill="#181818" points="58.8413,201.7852,48.8413,205.7852,58.8413,209.7852,54.8413,205.7852" style="stroke:#181818;stroke-width:1.0;"/><line style="stroke:#181818;stroke-width:1.0;stroke-dasharray:2.0,2.0;" x1="52.8413" x2="264.1602" y1="205.7852" y2="205.7852"/><text fill="#000000" font-family="sans-serif" font-size="13" font-weight="bold" lengthAdjust="spacing" textLength="7.23" x="64.8413" y="200.5225">3</text><text fill="#000000" font-family="sans-serif" font-size="13" lengthAdjust="spacing" textLength="112.7471" x="76.0713" y="200.5225">operation cancelled</text><line style="stroke:#000000;stroke-width:1.0;stroke-dasharray:2.0,2.0;" x1="10" x2="626.7417" y1="214.7852" y2="214.7852"/><text fill="#000000" font-family="sans-serif" font-size="11" font-weight="bold" lengthAdjust="spacing" textLength="78.8208" x="15" y="226.6553">[Invalid option]</text><polygon fill="#181818" points="58.8413,249.707,48.8413,253.707,58.8413,257.707,54.8413,253.707" style="stroke:#181818;stroke-width:1.0;"/><line style="stroke:#181818;stroke-width:1.0;stroke-dasharray:2.0,2.0;" x1="52.8413" x2="264.1602" y1="253.707" y2="253.707"/><text fill="#000000" font-family="sans-serif" font-size="13" font-weight="bold" lengthAdjust="spacing" textLength="7.23" x="64.8413" y="248.4443">4</text><text fill="#000000" font-family="sans-serif" font-size="13" lengthAdjust="spacing" textLength="83.8081" x="76.0713" y="248.4443">error message</text><line style="stroke:#000000;stroke-width:1.0;stroke-dasharray:2.0,2.0;" x1="10" x2="626.7417" y1="262.707" y2="262.707"/><text fill="#000000" font-family="sans-serif" font-size="11" font-weight="bold" lengthAdjust="spacing" textLength="70.2646" x="15" y="274.5771">[Valid option]</text><polygon fill="#181818" points="504.3525,297.6289,514.3525,301.6289,504.3525,305.6289,508.3525,301.6289" style="stroke:#181818;stroke-width:1.0;"/><line style="stroke:#181818;stroke-width:1.0;" x1="275.1602" x2="510.3525" y1="301.6289" y2="301.6289"/><text fill="#000000" font-family="sans-serif" font-size="13" font-weight="bold" lengthAdjust="spacing" textLength="7.23" x="282.1602" y="296.3662">5</text><text fill="#000000" font-family="sans-serif" font-size="13" lengthAdjust="spacing" textLength="205.9624" x="293.3901" y="296.3662">addBuildingToStation(buildingType)</text><!--SRC=[XP31QiCm38RlVWgHKtle2_HGs78Az53MPB2ZOelCeDh6LZBwzbCoRsDiCDzalj_VRw6LcA6vCDufDu05BkSNap2BjpvX46YE3yuDQShew2eeFeQXsyYX-mziOv0ScUlJRVzqDWPdYM6-ZPGDMl4B2ctIhq7V7Jeu74xhDHoXlCOtm0KzuyW4u-pP-J11JAkZc9LIM3FA4fELyWt9FH7iz8yMWoNUgvy5scqmeEU7AYRAM_EACpb3N0Ywi21xLvs_WvIpEcvK2axq4Nd-At3Qbg01TEwnTknZNTVkitMlfVU6Wdi7]--></g></svg>