<svg xmlns="http://www.w3.org/2000/svg" xmlns:xlink="http://www.w3.org/1999/xlink" contentStyleType="text/css" height="592px" preserveAspectRatio="none" style="width:874px;height:592px;background:#FFFFFF;" version="1.1" viewBox="0 0 874 592" width="874.5px" zoomAndPan="magnify"><defs/><g><!--class Station--><g id="elem_Station"><rect codeLine="7" fill="#F1F1F1" height="79.8633" id="Station" rx="1.25" ry="1.25" style="stroke:#181818;stroke-width:0.25;" width="132.6563" x="323" y="219"/><ellipse cx="376.3066" cy="227" fill="#ADD1B2" rx="5.5" ry="5.5" style="stroke:#181818;stroke-width:0.5;"/><path d="M377.6895,224.9375 Q377.7676,224.8281 377.8613,224.7734 Q377.9551,224.7188 378.0645,224.7188 Q378.252,224.7188 378.3691,224.8516 Q378.4863,224.9766 378.4863,225.2813 L378.4863,226.0078 Q378.4863,226.3125 378.3691,226.4453 Q378.252,226.5781 378.0645,226.5781 Q377.8926,226.5781 377.791,226.4766 Q377.6895,226.3828 377.6348,226.125 Q377.6113,225.9453 377.5176,225.8516 Q377.3535,225.6641 377.0488,225.5547 Q376.7441,225.4453 376.4316,225.4453 Q376.0488,225.4453 375.7285,225.6094 Q375.416,225.7734 375.166,226.1484 Q374.9238,226.5234 374.9238,227.0391 L374.9238,227.5859 Q374.9238,228.2031 375.3691,228.6172 Q375.8145,229.0234 376.6113,229.0234 Q377.0801,229.0234 377.4082,228.8984 Q377.6035,228.8203 377.8145,228.6016 Q377.9473,228.4688 378.0176,228.4297 Q378.0957,228.3906 378.1973,228.3906 Q378.3613,228.3906 378.4863,228.5234 Q378.6191,228.6484 378.6191,228.8203 Q378.6191,228.9922 378.4473,229.1953 Q378.1973,229.4844 377.7988,229.6484 Q377.2598,229.875 376.6113,229.875 Q375.8535,229.875 375.252,229.5625 Q374.7598,229.3125 374.416,228.7813 Q374.0723,228.2422 374.0723,227.6016 L374.0723,227.0234 Q374.0723,226.3594 374.377,225.7891 Q374.6895,225.2109 375.2363,224.9063 Q375.7832,224.5938 376.4004,224.5938 Q376.7676,224.5938 377.0879,224.6797 Q377.416,224.7578 377.6895,224.9375 Z " fill="#000000"/><text fill="#000000" font-family="sans-serif" font-size="7" lengthAdjust="spacing" textLength="21.793" x="386.5566" y="229.8984">Station</text><line style="stroke:#181818;stroke-width:0.25;" x1="323.5" x2="455.1563" y1="235" y2="235"/><text fill="#000000" font-family="sans-serif" font-size="7" lengthAdjust="spacing" textLength="75.8823" x="326" y="244.5537">-List&lt;Building&gt; buildings</text><text fill="#000000" font-family="sans-serif" font-size="7" lengthAdjust="spacing" textLength="5.8345" x="326" y="253.8643">...</text><line style="stroke:#181818;stroke-width:0.25;" x1="323.5" x2="455.1563" y1="257.6211" y2="257.6211"/><text fill="#000000" font-family="sans-serif" font-size="7" lengthAdjust="spacing" textLength="114.9941" x="326" y="267.1748">+addBuilding(building: Building): void</text><text fill="#000000" font-family="sans-serif" font-size="7" lengthAdjust="spacing" textLength="126.6563" x="326" y="276.4854">+removeBuilding(building: Building): void</text><text fill="#000000" font-family="sans-serif" font-size="7" lengthAdjust="spacing" textLength="94.7529" x="326" y="285.7959">+getBuildings(): List&lt;Building&gt;</text><text fill="#000000" font-family="sans-serif" font-size="7" lengthAdjust="spacing" textLength="10.4966" x="326" y="295.1064">...()</text></g><!--class Building--><g id="elem_Building"><rect codeLine="16" fill="#F1F1F1" height="79.8633" id="Building" rx="1.25" ry="1.25" style="stroke:#181818;stroke-width:0.25;" width="97.2461" x="357.25" y="347.5"/><ellipse cx="391.2947" cy="355.5" fill="#ADD1B2" rx="5.5" ry="5.5" style="stroke:#181818;stroke-width:0.5;"/><path d="M392.6775,353.4375 Q392.7556,353.3281 392.8494,353.2734 Q392.9431,353.2188 393.0525,353.2188 Q393.24,353.2188 393.3572,353.3516 Q393.4744,353.4766 393.4744,353.7813 L393.4744,354.5078 Q393.4744,354.8125 393.3572,354.9453 Q393.24,355.0781 393.0525,355.0781 Q392.8806,355.0781 392.7791,354.9766 Q392.6775,354.8828 392.6228,354.625 Q392.5994,354.4453 392.5056,354.3516 Q392.3416,354.1641 392.0369,354.0547 Q391.7322,353.9453 391.4197,353.9453 Q391.0369,353.9453 390.7166,354.1094 Q390.4041,354.2734 390.1541,354.6484 Q389.9119,355.0234 389.9119,355.5391 L389.9119,356.0859 Q389.9119,356.7031 390.3572,357.1172 Q390.8025,357.5234 391.5994,357.5234 Q392.0681,357.5234 392.3962,357.3984 Q392.5916,357.3203 392.8025,357.1016 Q392.9353,356.9688 393.0056,356.9297 Q393.0837,356.8906 393.1853,356.8906 Q393.3494,356.8906 393.4744,357.0234 Q393.6072,357.1484 393.6072,357.3203 Q393.6072,357.4922 393.4353,357.6953 Q393.1853,357.9844 392.7869,358.1484 Q392.2478,358.375 391.5994,358.375 Q390.8416,358.375 390.24,358.0625 Q389.7478,357.8125 389.4041,357.2813 Q389.0603,356.7422 389.0603,356.1016 L389.0603,355.5234 Q389.0603,354.8594 389.365,354.2891 Q389.6775,353.7109 390.2244,353.4063 Q390.7712,353.0938 391.3884,353.0938 Q391.7556,353.0938 392.0759,353.1797 Q392.4041,353.2578 392.6775,353.4375 Z " fill="#000000"/><text fill="#000000" font-family="sans-serif" font-size="7" lengthAdjust="spacing" textLength="24.9067" x="401.5447" y="358.3984">Building</text><line style="stroke:#181818;stroke-width:0.25;" x1="357.75" x2="453.9961" y1="363.5" y2="363.5"/><text fill="#000000" font-family="sans-serif" font-size="7" lengthAdjust="spacing" textLength="57.9756" x="360.25" y="373.0537">-BuildingType type</text><line style="stroke:#181818;stroke-width:0.25;" x1="357.75" x2="453.9961" y1="376.8105" y2="376.8105"/><text fill="#000000" font-family="sans-serif" font-size="7" lengthAdjust="spacing" textLength="91.2461" x="360.25" y="386.3643">+Building(type: BuildingType)</text><text fill="#000000" font-family="sans-serif" font-size="7" lengthAdjust="spacing" textLength="78.4014" x="360.25" y="395.6748">+getType(): BuildingType</text><text fill="#000000" font-family="sans-serif" font-size="7" lengthAdjust="spacing" textLength="59.3291" x="360.25" y="404.9854">+getName(): String</text><text fill="#000000" font-family="sans-serif" font-size="7" lengthAdjust="spacing" textLength="83.4531" x="360.25" y="414.2959">+getConstructionCost(): int</text><text fill="#000000" font-family="sans-serif" font-size="7" lengthAdjust="spacing" textLength="10.4966" x="360.25" y="423.6064">...()</text></g><!--class BuildingType--><g id="elem_BuildingType"><rect codeLine="27" fill="#F1F1F1" height="117.1055" id="BuildingType" rx="1.25" ry="1.25" style="stroke:#181818;stroke-width:0.25;" width="63.5654" x="583" y="471.5"/><ellipse cx="593.6935" cy="479.5" fill="#EB937F" rx="5.5" ry="5.5" style="stroke:#181818;stroke-width:0.5;"/><path d="M593.1232,479.8984 L593.1232,481.1484 L595.2873,481.1484 L595.2873,480.6875 Q595.2873,480.3828 595.4044,480.25 Q595.5294,480.1172 595.7169,480.1172 Q595.9044,480.1172 596.0216,480.25 Q596.1388,480.3828 596.1388,480.6875 L596.1388,482 L592.1388,482 Q591.8263,482 591.6935,481.8828 Q591.5685,481.7656 591.5685,481.5703 Q591.5685,481.3828 591.7013,481.2656 Q591.8341,481.1484 592.1388,481.1484 L592.2716,481.1484 L592.2716,477.8203 L592.1388,477.8203 Q591.8263,477.8203 591.6935,477.7031 Q591.5685,477.5859 591.5685,477.3906 Q591.5685,477.2031 591.6935,477.0859 Q591.8263,476.9688 592.1388,476.9688 L595.9513,476.9688 L595.9513,478.2656 Q595.9513,478.5703 595.8341,478.7031 Q595.7248,478.8281 595.5294,478.8281 Q595.3419,478.8281 595.2248,478.7031 Q595.1076,478.5703 595.1076,478.2656 L595.1076,477.8203 L593.1232,477.8203 L593.1232,479.0469 L593.8654,479.0469 Q593.8654,478.7188 593.9279,478.625 Q594.0607,478.4219 594.2951,478.4219 Q594.4826,478.4219 594.5998,478.5547 Q594.7169,478.6797 594.7169,478.9844 L594.7169,479.9688 Q594.7169,480.2422 594.6544,480.3359 Q594.5216,480.5313 594.2951,480.5313 Q594.0607,480.5313 593.9279,480.3281 Q593.8654,480.2344 593.8654,479.8984 L593.1232,479.8984 Z " fill="#000000"/><text fill="#000000" font-family="sans-serif" font-size="7" lengthAdjust="spacing" textLength="40.4688" x="601.4032" y="482.3984">BuildingType</text><line style="stroke:#181818;stroke-width:0.25;" x1="583.5" x2="646.0654" y1="487.5" y2="487.5"/><text fill="#000000" font-family="sans-serif" font-size="7" lengthAdjust="spacing" textLength="42.3999" x="586" y="497.0537">TELEGRAPH</text><text fill="#000000" font-family="sans-serif" font-size="7" lengthAdjust="spacing" textLength="42.3999" x="586" y="506.3643">TELEPHONE</text><text fill="#000000" font-family="sans-serif" font-size="7" lengthAdjust="spacing" textLength="55.2378" x="586" y="515.6748">SMALL_COFFEE</text><text fill="#000000" font-family="sans-serif" font-size="7" lengthAdjust="spacing" textLength="56.0137" x="586" y="524.9854">LARGE_COFFEE</text><text fill="#000000" font-family="sans-serif" font-size="7" lengthAdjust="spacing" textLength="35" x="586" y="534.2959">CUSTOMS</text><text fill="#000000" font-family="sans-serif" font-size="7" lengthAdjust="spacing" textLength="44.7241" x="586" y="543.6064">POSTOFFICE</text><text fill="#000000" font-family="sans-serif" font-size="7" lengthAdjust="spacing" textLength="50.186" x="586" y="552.917">SMALL_HOTEL</text><text fill="#000000" font-family="sans-serif" font-size="7" lengthAdjust="spacing" textLength="50.9619" x="586" y="562.2275">LARGE_HOTEL</text><text fill="#000000" font-family="sans-serif" font-size="7" lengthAdjust="spacing" textLength="15.9517" x="586" y="571.5381">SILO</text><text fill="#000000" font-family="sans-serif" font-size="7" lengthAdjust="spacing" textLength="57.5654" x="586" y="580.8486">LIQUIDSTORAGE</text><line style="stroke:#181818;stroke-width:0.25;" x1="583.5" x2="646.0654" y1="584.6055" y2="584.6055"/></g><!--class AddUpgradeStationUI--><g id="elem_AddUpgradeStationUI"><rect codeLine="40" fill="#F1F1F1" height="51.9316" id="AddUpgradeStationUI" rx="1.25" ry="1.25" style="stroke:#181818;stroke-width:0.25;" width="201.1318" x="546.75" y="3.5"/><ellipse cx="611.1411" cy="11.5" fill="#ADD1B2" rx="5.5" ry="5.5" style="stroke:#181818;stroke-width:0.5;"/><path d="M612.5239,9.4375 Q612.6021,9.3281 612.6958,9.2734 Q612.7896,9.2188 612.8989,9.2188 Q613.0864,9.2188 613.2036,9.3516 Q613.3208,9.4766 613.3208,9.7813 L613.3208,10.5078 Q613.3208,10.8125 613.2036,10.9453 Q613.0864,11.0781 612.8989,11.0781 Q612.7271,11.0781 612.6255,10.9766 Q612.5239,10.8828 612.4692,10.625 Q612.4458,10.4453 612.3521,10.3516 Q612.188,10.1641 611.8833,10.0547 Q611.5786,9.9453 611.2661,9.9453 Q610.8833,9.9453 610.563,10.1094 Q610.2505,10.2734 610.0005,10.6484 Q609.7583,11.0234 609.7583,11.5391 L609.7583,12.0859 Q609.7583,12.7031 610.2036,13.1172 Q610.6489,13.5234 611.4458,13.5234 Q611.9146,13.5234 612.2427,13.3984 Q612.438,13.3203 612.6489,13.1016 Q612.7817,12.9688 612.8521,12.9297 Q612.9302,12.8906 613.0317,12.8906 Q613.1958,12.8906 613.3208,13.0234 Q613.4536,13.1484 613.4536,13.3203 Q613.4536,13.4922 613.2817,13.6953 Q613.0317,13.9844 612.6333,14.1484 Q612.0942,14.375 611.4458,14.375 Q610.688,14.375 610.0864,14.0625 Q609.5942,13.8125 609.2505,13.2813 Q608.9067,12.7422 608.9067,12.1016 L608.9067,11.5234 Q608.9067,10.8594 609.2114,10.2891 Q609.5239,9.7109 610.0708,9.4063 Q610.6177,9.0938 611.2349,9.0938 Q611.6021,9.0938 611.9224,9.1797 Q612.2505,9.2578 612.5239,9.4375 Z " fill="#000000"/><text fill="#000000" font-family="sans-serif" font-size="7" lengthAdjust="spacing" textLength="68.0996" x="621.3911" y="14.3984">AddUpgradeStationUI</text><line style="stroke:#181818;stroke-width:0.25;" x1="547.25" x2="747.3818" y1="19.5" y2="19.5"/><text fill="#000000" font-family="sans-serif" font-size="7" lengthAdjust="spacing" textLength="124.5098" x="549.75" y="29.0537">-AddUpgradeStationController controller</text><line style="stroke:#181818;stroke-width:0.25;" x1="547.25" x2="747.3818" y1="32.8105" y2="32.8105"/><text fill="#000000" font-family="sans-serif" font-size="7" lengthAdjust="spacing" textLength="195.1318" x="549.75" y="42.3643">+AddUpgradeStationUI(station: Station, simulation: Simulation)</text><text fill="#000000" font-family="sans-serif" font-size="7" lengthAdjust="spacing" textLength="35.5981" x="549.75" y="51.6748">+run(): void</text></g><!--class AddUpgradeStationController--><g id="elem_AddUpgradeStationController"><rect codeLine="46" fill="#F1F1F1" height="89.1738" id="AddUpgradeStationController" rx="1.25" ry="1.25" style="stroke:#181818;stroke-width:0.25;" width="224.4766" x="535" y="86"/><ellipse cx="599.3911" cy="94" fill="#ADD1B2" rx="5.5" ry="5.5" style="stroke:#181818;stroke-width:0.5;"/><path d="M600.7739,91.9375 Q600.8521,91.8281 600.9458,91.7734 Q601.0396,91.7188 601.1489,91.7188 Q601.3364,91.7188 601.4536,91.8516 Q601.5708,91.9766 601.5708,92.2813 L601.5708,93.0078 Q601.5708,93.3125 601.4536,93.4453 Q601.3364,93.5781 601.1489,93.5781 Q600.9771,93.5781 600.8755,93.4766 Q600.7739,93.3828 600.7192,93.125 Q600.6958,92.9453 600.6021,92.8516 Q600.438,92.6641 600.1333,92.5547 Q599.8286,92.4453 599.5161,92.4453 Q599.1333,92.4453 598.813,92.6094 Q598.5005,92.7734 598.2505,93.1484 Q598.0083,93.5234 598.0083,94.0391 L598.0083,94.5859 Q598.0083,95.2031 598.4536,95.6172 Q598.8989,96.0234 599.6958,96.0234 Q600.1646,96.0234 600.4927,95.8984 Q600.688,95.8203 600.8989,95.6016 Q601.0317,95.4688 601.1021,95.4297 Q601.1802,95.3906 601.2817,95.3906 Q601.4458,95.3906 601.5708,95.5234 Q601.7036,95.6484 601.7036,95.8203 Q601.7036,95.9922 601.5317,96.1953 Q601.2817,96.4844 600.8833,96.6484 Q600.3442,96.875 599.6958,96.875 Q598.938,96.875 598.3364,96.5625 Q597.8442,96.3125 597.5005,95.7813 Q597.1567,95.2422 597.1567,94.6016 L597.1567,94.0234 Q597.1567,93.3594 597.4614,92.7891 Q597.7739,92.2109 598.3208,91.9063 Q598.8677,91.5938 599.4849,91.5938 Q599.8521,91.5938 600.1724,91.6797 Q600.5005,91.7578 600.7739,91.9375 Z " fill="#000000"/><text fill="#000000" font-family="sans-serif" font-size="7" lengthAdjust="spacing" textLength="91.4443" x="609.6411" y="96.8984">AddUpgradeStationController</text><line style="stroke:#181818;stroke-width:0.25;" x1="535.5" x2="758.9766" y1="102" y2="102"/><text fill="#000000" font-family="sans-serif" font-size="7" lengthAdjust="spacing" textLength="46.6929" x="538" y="111.5537">-Station station</text><text fill="#000000" font-family="sans-serif" font-size="7" lengthAdjust="spacing" textLength="68.4722" x="538" y="120.8643">-Simulation simulation</text><line style="stroke:#181818;stroke-width:0.25;" x1="535.5" x2="758.9766" y1="124.6211" y2="124.6211"/><text fill="#000000" font-family="sans-serif" font-size="7" lengthAdjust="spacing" textLength="218.4766" x="538" y="134.1748">+AddUpgradeStationController(station: Station, simulation: Simulation)</text><text fill="#000000" font-family="sans-serif" font-size="7" lengthAdjust="spacing" textLength="118.4771" x="538" y="143.4854">+getAllBuildingTypes(): BuildingType[]</text><text fill="#000000" font-family="sans-serif" font-size="7" lengthAdjust="spacing" textLength="181.5249" x="538" y="152.7959">+addBuildingToStation(buildingType: BuildingType): String</text><text fill="#000000" font-family="sans-serif" font-size="7" lengthAdjust="spacing" textLength="65.9565" x="538" y="162.1064">+getStation(): Station</text><text fill="#000000" font-family="sans-serif" font-size="7" lengthAdjust="spacing" textLength="87.7358" x="538" y="171.417">+getSimulation(): Simulation</text></g><!--class Simulation--><g id="elem_Simulation"><rect codeLine="56" fill="#F1F1F1" height="89.1738" id="Simulation" rx="1.25" ry="1.25" style="stroke:#181818;stroke-width:0.25;" width="132.2563" x="488" y="214.5"/><ellipse cx="535.6619" cy="222.5" fill="#ADD1B2" rx="5.5" ry="5.5" style="stroke:#181818;stroke-width:0.5;"/><path d="M537.0447,220.4375 Q537.1228,220.3281 537.2166,220.2734 Q537.3103,220.2188 537.4197,220.2188 Q537.6072,220.2188 537.7244,220.3516 Q537.8416,220.4766 537.8416,220.7813 L537.8416,221.5078 Q537.8416,221.8125 537.7244,221.9453 Q537.6072,222.0781 537.4197,222.0781 Q537.2478,222.0781 537.1462,221.9766 Q537.0447,221.8828 536.99,221.625 Q536.9666,221.4453 536.8728,221.3516 Q536.7087,221.1641 536.4041,221.0547 Q536.0994,220.9453 535.7869,220.9453 Q535.4041,220.9453 535.0837,221.1094 Q534.7712,221.2734 534.5212,221.6484 Q534.2791,222.0234 534.2791,222.5391 L534.2791,223.0859 Q534.2791,223.7031 534.7244,224.1172 Q535.1697,224.5234 535.9666,224.5234 Q536.4353,224.5234 536.7634,224.3984 Q536.9587,224.3203 537.1697,224.1016 Q537.3025,223.9688 537.3728,223.9297 Q537.4509,223.8906 537.5525,223.8906 Q537.7166,223.8906 537.8416,224.0234 Q537.9744,224.1484 537.9744,224.3203 Q537.9744,224.4922 537.8025,224.6953 Q537.5525,224.9844 537.1541,225.1484 Q536.615,225.375 535.9666,225.375 Q535.2087,225.375 534.6072,225.0625 Q534.115,224.8125 533.7712,224.2813 Q533.4275,223.7422 533.4275,223.1016 L533.4275,222.5234 Q533.4275,221.8594 533.7322,221.2891 Q534.0447,220.7109 534.5916,220.4063 Q535.1384,220.0938 535.7556,220.0938 Q536.1228,220.0938 536.4431,220.1797 Q536.7712,220.2578 537.0447,220.4375 Z " fill="#000000"/><text fill="#000000" font-family="sans-serif" font-size="7" lengthAdjust="spacing" textLength="32.6826" x="545.9119" y="225.3984">Simulation</text><line style="stroke:#181818;stroke-width:0.25;" x1="488.5" x2="619.7563" y1="230.5" y2="230.5"/><text fill="#000000" font-family="sans-serif" font-size="7" lengthAdjust="spacing" textLength="49.0103" x="491" y="240.0537">-int currentTime</text><text fill="#000000" font-family="sans-serif" font-size="7" lengthAdjust="spacing" textLength="51.3584" x="491" y="249.3643">-int actualMoney</text><line style="stroke:#181818;stroke-width:0.25;" x1="488.5" x2="619.7563" y1="253.1211" y2="253.1211"/><text fill="#000000" font-family="sans-serif" font-size="7" lengthAdjust="spacing" textLength="10.4966" x="491" y="262.6748">...()</text><text fill="#000000" font-family="sans-serif" font-size="7" lengthAdjust="spacing" textLength="68.6602" x="491" y="271.9854">+getCurrentTime(): int</text><text fill="#000000" font-family="sans-serif" font-size="7" lengthAdjust="spacing" textLength="70.229" x="491" y="281.2959">+getActualMoney(): int</text><text fill="#000000" font-family="sans-serif" font-size="7" lengthAdjust="spacing" textLength="126.2563" x="491" y="290.6064">+setActualMoney(actualMoney: int): void</text><text fill="#000000" font-family="sans-serif" font-size="7" lengthAdjust="spacing" textLength="10.4966" x="491" y="299.917">...()</text></g><!--class Map--><g id="elem_Map"><rect codeLine="66" fill="#F1F1F1" height="70.5527" id="Map" rx="1.25" ry="1.25" style="stroke:#181818;stroke-width:0.25;" width="149.001" x="110.25" y="95.25"/><ellipse cx="175.8169" cy="103.25" fill="#ADD1B2" rx="5.5" ry="5.5" style="stroke:#181818;stroke-width:0.5;"/><path d="M177.1997,101.1875 Q177.2778,101.0781 177.3716,101.0234 Q177.4653,100.9688 177.5747,100.9688 Q177.7622,100.9688 177.8794,101.1016 Q177.9966,101.2266 177.9966,101.5313 L177.9966,102.2578 Q177.9966,102.5625 177.8794,102.6953 Q177.7622,102.8281 177.5747,102.8281 Q177.4028,102.8281 177.3013,102.7266 Q177.1997,102.6328 177.145,102.375 Q177.1216,102.1953 177.0278,102.1016 Q176.8638,101.9141 176.5591,101.8047 Q176.2544,101.6953 175.9419,101.6953 Q175.5591,101.6953 175.2388,101.8594 Q174.9263,102.0234 174.6763,102.3984 Q174.4341,102.7734 174.4341,103.2891 L174.4341,103.8359 Q174.4341,104.4531 174.8794,104.8672 Q175.3247,105.2734 176.1216,105.2734 Q176.5903,105.2734 176.9185,105.1484 Q177.1138,105.0703 177.3247,104.8516 Q177.4575,104.7188 177.5278,104.6797 Q177.606,104.6406 177.7075,104.6406 Q177.8716,104.6406 177.9966,104.7734 Q178.1294,104.8984 178.1294,105.0703 Q178.1294,105.2422 177.9575,105.4453 Q177.7075,105.7344 177.3091,105.8984 Q176.77,106.125 176.1216,106.125 Q175.3638,106.125 174.7622,105.8125 Q174.27,105.5625 173.9263,105.0313 Q173.5825,104.4922 173.5825,103.8516 L173.5825,103.2734 Q173.5825,102.6094 173.8872,102.0391 Q174.1997,101.4609 174.7466,101.1563 Q175.2935,100.8438 175.9106,100.8438 Q176.2778,100.8438 176.5981,100.9297 Q176.9263,101.0078 177.1997,101.1875 Z " fill="#000000"/><text fill="#000000" font-family="sans-serif" font-size="7" lengthAdjust="spacing" textLength="13.6172" x="186.0669" y="106.1484">Map</text><line style="stroke:#181818;stroke-width:0.25;" x1="110.75" x2="258.751" y1="111.25" y2="111.25"/><text fill="#000000" font-family="sans-serif" font-size="7" lengthAdjust="spacing" textLength="121.7788" x="113.25" y="120.8037">-List&lt;MapElement&gt; mapElementsUsed</text><text fill="#000000" font-family="sans-serif" font-size="7" lengthAdjust="spacing" textLength="5.8345" x="113.25" y="130.1143">...</text><line style="stroke:#181818;stroke-width:0.25;" x1="110.75" x2="258.751" y1="133.8711" y2="133.8711"/><text fill="#000000" font-family="sans-serif" font-size="7" lengthAdjust="spacing" textLength="143.001" x="113.25" y="143.4248">+addElement(element: MapElement): boolean</text><text fill="#000000" font-family="sans-serif" font-size="7" lengthAdjust="spacing" textLength="124.3184" x="113.25" y="152.7354">+getOccupiedPositions(): List&lt;Position&gt;</text><text fill="#000000" font-family="sans-serif" font-size="7" lengthAdjust="spacing" textLength="10.4966" x="113.25" y="162.0459">...()</text></g><!--class MapElement--><g id="elem_MapElement"><rect codeLine="74" fill="#F1F1F1" height="89.1738" id="MapElement" rx="1.25" ry="1.25" style="stroke:#181818;stroke-width:0.25;" width="130.3184" x="209" y="343"/><ellipse cx="252.386" cy="351" fill="#A9DCDF" rx="5.5" ry="5.5" style="stroke:#181818;stroke-width:0.5;"/><path d="M253.4797,351.8828 L251.4094,351.8828 L251.1985,352.3984 L251.4094,352.3984 Q251.7141,352.3984 251.8469,352.5156 Q251.9797,352.6328 251.9797,352.8281 Q251.9797,353.0156 251.8469,353.1328 Q251.7141,353.25 251.4094,353.25 L250.261,353.25 Q249.9563,353.25 249.8313,353.1328 Q249.6985,353.0156 249.6985,352.8203 Q249.6985,352.6328 249.8391,352.5156 Q249.9719,352.3906 250.2844,352.3984 L251.6204,349.0703 L251.0657,349.0703 Q250.761,349.0703 250.6282,348.9531 Q250.4954,348.8359 250.4954,348.6406 Q250.4954,348.4531 250.6282,348.3359 Q250.761,348.2188 251.0657,348.2188 L252.9016,348.2188 L254.5969,352.3984 Q254.8938,352.3984 254.9875,352.4688 Q255.1829,352.6016 255.1829,352.8281 Q255.1829,353.0156 255.05,353.1328 Q254.925,353.25 254.6204,353.25 L253.4719,353.25 Q253.1672,353.25 253.0344,353.1328 Q252.9016,353.0156 252.9016,352.8203 Q252.9016,352.6328 253.0344,352.5156 Q253.1672,352.3984 253.4719,352.3984 L253.6829,352.3984 L253.4797,351.8828 Z M253.1204,351.0313 L252.4407,349.3438 L251.7532,351.0313 L253.1204,351.0313 Z " fill="#000000"/><text fill="#000000" font-family="sans-serif" font-size="7" font-style="italic" lengthAdjust="spacing" textLength="39.2964" x="262.636" y="353.8984">MapElement</text><line style="stroke:#181818;stroke-width:0.25;" x1="209.5" x2="338.8184" y1="359" y2="359"/><text fill="#000000" font-family="sans-serif" font-size="7" lengthAdjust="spacing" textLength="53.3066" x="212" y="368.5537">-Position position</text><text fill="#000000" font-family="sans-serif" font-size="7" lengthAdjust="spacing" textLength="104.6719" x="212" y="377.8643">-List&lt;Position&gt; occupiedPositions</text><text fill="#000000" font-family="sans-serif" font-size="7" lengthAdjust="spacing" textLength="5.8345" x="212" y="387.1748">...</text><line style="stroke:#181818;stroke-width:0.25;" x1="209.5" x2="338.8184" y1="390.9316" y2="390.9316"/><text fill="#000000" font-family="sans-serif" font-size="7" lengthAdjust="spacing" textLength="72.1772" x="212" y="400.4854">+getPosition(): Position</text><text fill="#000000" font-family="sans-serif" font-size="7" lengthAdjust="spacing" textLength="112.6426" x="212" y="409.7959">+setPosition(position: Position): void</text><text fill="#000000" font-family="sans-serif" font-size="7" lengthAdjust="spacing" textLength="124.3184" x="212" y="419.1064">+getOccupiedPositions(): List&lt;Position&gt;</text><text fill="#000000" font-family="sans-serif" font-size="7" lengthAdjust="spacing" textLength="10.4966" x="212" y="428.417">...()</text></g><!--class Position--><g id="elem_Position"><rect codeLine="84" fill="#F1F1F1" height="79.8633" id="Position" rx="1.25" ry="1.25" style="stroke:#181818;stroke-width:0.25;" width="73.1084" x="237.75" y="490"/><ellipse cx="259.7423" cy="498" fill="#ADD1B2" rx="5.5" ry="5.5" style="stroke:#181818;stroke-width:0.5;"/><path d="M261.1251,495.9375 Q261.2032,495.8281 261.297,495.7734 Q261.3907,495.7188 261.5001,495.7188 Q261.6876,495.7188 261.8048,495.8516 Q261.922,495.9766 261.922,496.2813 L261.922,497.0078 Q261.922,497.3125 261.8048,497.4453 Q261.6876,497.5781 261.5001,497.5781 Q261.3282,497.5781 261.2267,497.4766 Q261.1251,497.3828 261.0704,497.125 Q261.047,496.9453 260.9532,496.8516 Q260.7892,496.6641 260.4845,496.5547 Q260.1798,496.4453 259.8673,496.4453 Q259.4845,496.4453 259.1642,496.6094 Q258.8517,496.7734 258.6017,497.1484 Q258.3595,497.5234 258.3595,498.0391 L258.3595,498.5859 Q258.3595,499.2031 258.8048,499.6172 Q259.2501,500.0234 260.047,500.0234 Q260.5157,500.0234 260.8438,499.8984 Q261.0392,499.8203 261.2501,499.6016 Q261.3829,499.4688 261.4532,499.4297 Q261.5313,499.3906 261.6329,499.3906 Q261.797,499.3906 261.922,499.5234 Q262.0548,499.6484 262.0548,499.8203 Q262.0548,499.9922 261.8829,500.1953 Q261.6329,500.4844 261.2345,500.6484 Q260.6954,500.875 260.047,500.875 Q259.2892,500.875 258.6876,500.5625 Q258.1954,500.3125 257.8517,499.7813 Q257.5079,499.2422 257.5079,498.6016 L257.5079,498.0234 Q257.5079,497.3594 257.8126,496.7891 Q258.1251,496.2109 258.672,495.9063 Q259.2188,495.5938 259.836,495.5938 Q260.2032,495.5938 260.5235,495.6797 Q260.8517,495.7578 261.1251,495.9375 Z " fill="#000000"/><text fill="#000000" font-family="sans-serif" font-size="7" lengthAdjust="spacing" textLength="24.9033" x="269.9628" y="500.8984">Position</text><line style="stroke:#181818;stroke-width:0.25;" x1="238.25" x2="310.3584" y1="506" y2="506"/><text fill="#000000" font-family="sans-serif" font-size="7" lengthAdjust="spacing" textLength="15.1689" x="240.75" y="515.5537">-int x</text><text fill="#000000" font-family="sans-serif" font-size="7" lengthAdjust="spacing" textLength="15.1689" x="240.75" y="524.8643">-int y</text><line style="stroke:#181818;stroke-width:0.25;" x1="238.25" x2="310.3584" y1="528.6211" y2="528.6211"/><text fill="#000000" font-family="sans-serif" font-size="7" lengthAdjust="spacing" textLength="67.1084" x="240.75" y="538.1748">+Position(x: int, y: int)</text><text fill="#000000" font-family="sans-serif" font-size="7" lengthAdjust="spacing" textLength="34.4326" x="240.75" y="547.4854">+getX(): int</text><text fill="#000000" font-family="sans-serif" font-size="7" lengthAdjust="spacing" textLength="34.4326" x="240.75" y="556.7959">+getY(): int</text><text fill="#000000" font-family="sans-serif" font-size="7" lengthAdjust="spacing" textLength="10.4966" x="240.75" y="566.1064">...()</text></g><g id="elem_GMN22"><path d="M472,376.25 L472,398.541 L665.687,398.541 L665.687,381.25 L660.687,376.25 L472,376.25 " fill="#FEFFDD" style="stroke:#181818;stroke-width:0.25;"/><path d="M660.687,376.25 L660.687,381.25 L665.687,381.25 L660.687,376.25 " fill="#FEFFDD" style="stroke:#181818;stroke-width:0.5;"/><text fill="#000000" font-family="sans-serif" font-size="6.5" lengthAdjust="spacing" textLength="183.187" x="475" y="385.7642">Building represents a specific building associated with a station,</text><text fill="#000000" font-family="sans-serif" font-size="6.5" lengthAdjust="spacing" textLength="161.1416" x="475" y="394.4097">defined by its type (BuildingType) and construction cost.</text></g><g id="elem_GMN25"><path d="M664,518.75 L664,528 L646.615,530 L664,532 L664,541.041 A0,0 0 0 0 664,541.041 L871.4106,541.041 A0,0 0 0 0 871.4106,541.041 L871.4106,523.75 L866.4106,518.75 L664,518.75 A0,0 0 0 0 664,518.75 " fill="#FEFFDD" style="stroke:#181818;stroke-width:0.25;"/><path d="M866.4106,518.75 L866.4106,523.75 L871.4106,523.75 L866.4106,518.75 " fill="#FEFFDD" style="stroke:#181818;stroke-width:0.25;"/><text fill="#000000" font-family="sans-serif" font-size="6.5" lengthAdjust="spacing" textLength="196.9106" x="667" y="528.2642">Enumeration of possible building types, with properties such as cost,</text><text fill="#000000" font-family="sans-serif" font-size="6.5" lengthAdjust="spacing" textLength="169.1079" x="667" y="536.9097">year of operation and replacement ratio between buildings.</text></g><g id="elem_GMN28"><path d="M277,119.25 L277,141.541 A0,0 0 0 0 277,141.541 L517.6724,141.541 A0,0 0 0 0 517.6724,141.541 L517.6724,132.5 L535,130.5 L517.6724,128.5 L517.6724,124.25 L512.6724,119.25 L277,119.25 A0,0 0 0 0 277,119.25 " fill="#FEFFDD" style="stroke:#181818;stroke-width:0.25;"/><path d="M512.6724,119.25 L512.6724,124.25 L517.6724,124.25 L512.6724,119.25 " fill="#FEFFDD" style="stroke:#181818;stroke-width:0.25;"/><text fill="#000000" font-family="sans-serif" font-size="6.5" lengthAdjust="spacing" textLength="230.1724" x="280" y="128.7642">Controller responsible for managing the logic of adding or upgrading buildings in</text><text fill="#000000" font-family="sans-serif" font-size="6.5" lengthAdjust="spacing" textLength="214.9856" x="280" y="137.4097">a station,  checking conditions such as available money and replacements.</text></g><g id="elem_GMN31"><path d="M38.25,247.75 L38.25,270.041 A0,0 0 0 0 38.25,270.041 L239.1702,270.041 A0,0 0 0 0 239.1702,270.041 L239.1702,252.75 L234.1702,247.75 L144.66,247.75 L172.18,165.84 L140.66,247.75 L38.25,247.75 A0,0 0 0 0 38.25,247.75 " fill="#FEFFDD" style="stroke:#181818;stroke-width:0.25;"/><path d="M234.1702,247.75 L234.1702,252.75 L239.1702,252.75 L234.1702,247.75 " fill="#FEFFDD" style="stroke:#181818;stroke-width:0.25;"/><text fill="#000000" font-family="sans-serif" font-size="6.5" lengthAdjust="spacing" textLength="190.4202" x="41.25" y="257.2642">Represents the game map, containing all the elements positioned,</text><text fill="#000000" font-family="sans-serif" font-size="6.5" lengthAdjust="spacing" textLength="119.2375" x="41.25" y="265.9097">including stations and other MapElement.</text></g><g id="elem_GMN34"><path d="M3,376.25 L3,398.541 A0,0 0 0 0 3,398.541 L191.6279,398.541 A0,0 0 0 0 191.6279,398.541 L191.6279,389.5 L208.93,387.5 L191.6279,385.5 L191.6279,381.25 L186.6279,376.25 L3,376.25 A0,0 0 0 0 3,376.25 " fill="#FEFFDD" style="stroke:#181818;stroke-width:0.25;"/><path d="M186.6279,376.25 L186.6279,381.25 L191.6279,381.25 L186.6279,376.25 " fill="#FEFFDD" style="stroke:#181818;stroke-width:0.25;"/><text fill="#000000" font-family="sans-serif" font-size="6.5" lengthAdjust="spacing" textLength="178.1279" x="6" y="385.7642">Abstract class for any element that can be placed on the map,</text><text fill="#000000" font-family="sans-serif" font-size="6.5" lengthAdjust="spacing" textLength="104.0444" x="6" y="394.4097">such as stations, cities or industries.</text></g><!--link Station to Building--><g id="link_Station_Building"><path codeLine="94" d="M394.38,299.145 C396.365,314.495 398.2492,329.0599 400.2392,344.4049 " fill="none" id="Station-to-Building" style="stroke:#181818;stroke-width:0.5;"/><polygon fill="#181818" points="400.625,347.38,402.0297,342.6602,400.3035,344.9008,398.0629,343.1746,400.625,347.38" style="stroke:#181818;stroke-width:0.5;"/><text fill="#000000" font-family="sans-serif" font-size="6.5" lengthAdjust="spacing" textLength="10.48" x="398.25" y="326.0142">has</text><text fill="#000000" font-family="sans-serif" font-size="6.5" lengthAdjust="spacing" textLength="3.615" x="391.1582" y="309.8473">1</text><text fill="#000000" font-family="sans-serif" font-size="6.5" lengthAdjust="spacing" textLength="9.7563" x="390.2151" y="341.8168">0..*</text></g><!--link Building to BuildingType--><g id="link_Building_BuildingType"><path codeLine="95" d="M454.265,425.125 C459.655,429.25 463.25,432 463.25,432 C463.25,432 536.0423,478.8465 580.4673,507.4365 " fill="none" id="Building-to-BuildingType" style="stroke:#181818;stroke-width:0.5;"/><polygon fill="#181818" points="582.99,509.06,580.2882,504.9429,580.8877,507.7071,578.1236,508.3065,582.99,509.06" style="stroke:#181818;stroke-width:0.5;"/><text fill="#000000" font-family="sans-serif" font-size="6.5" lengthAdjust="spacing" textLength="12.2859" x="500.25" y="454.5142">type</text></g><!--link AddUpgradeStationUI to AddUpgradeStationController--><g id="link_AddUpgradeStationUI_AddUpgradeStationController"><path codeLine="96" d="M647.25,55.625 C647.25,64.825 647.25,72.485 647.25,82.805 " fill="none" id="AddUpgradeStationUI-to-AddUpgradeStationController" style="stroke:#181818;stroke-width:0.5;stroke-dasharray:7.0,7.0;"/><polygon fill="#181818" points="647.25,85.805,649.25,81.305,647.25,83.305,645.25,81.305,647.25,85.805" style="stroke:#181818;stroke-width:0.5;"/></g><!--link AddUpgradeStationController to Simulation--><g id="link_AddUpgradeStationController_Simulation"><path codeLine="97" d="M615.115,175.055 C605.82,187.795 597.4482,199.2765 588.1532,212.0165 " fill="none" id="AddUpgradeStationController-to-Simulation" style="stroke:#181818;stroke-width:0.5;stroke-dasharray:7.0,7.0;"/><polygon fill="#181818" points="586.385,214.44,590.653,211.9835,587.8585,212.4204,587.4216,209.6259,586.385,214.44" style="stroke:#181818;stroke-width:0.5;"/></g><!--link AddUpgradeStationController to BuildingType--><g id="link_AddUpgradeStationController_BuildingType"><path codeLine="98" d="M652.86,175.055 C660.77,237.17 674.25,343 674.25,343 C674.25,343 674.25,432 674.25,432 C674.25,432 662.2427,451.6741 648.0677,474.9041 " fill="none" id="AddUpgradeStationController-to-BuildingType" style="stroke:#181818;stroke-width:0.5;stroke-dasharray:7.0,7.0;"/><polygon fill="#181818" points="646.505,477.465,650.5562,474.6654,647.8072,475.3309,647.1417,472.5819,646.505,477.465" style="stroke:#181818;stroke-width:0.5;"/><text fill="#000000" font-family="sans-serif" font-size="6.5" lengthAdjust="spacing" textLength="13.73" x="672.25" y="326.0142">uses</text></g><!--link AddUpgradeStationController to Station--><g id="link_AddUpgradeStationController_Station"><path codeLine="99" d="M558.1,175.055 C524.455,191.685 489.4896,208.9661 458.2896,224.3811 " fill="none" id="AddUpgradeStationController-to-Station" style="stroke:#181818;stroke-width:0.5;stroke-dasharray:7.0,7.0;"/><polygon fill="#181818" points="455.6,225.71,460.5204,225.5098,457.8414,224.6026,458.7485,221.9236,455.6,225.71" style="stroke:#181818;stroke-width:0.5;"/></g><!--link AddUpgradeStationController to Building--><g id="link_AddUpgradeStationController_Building"><path codeLine="100" d="M642.64,175.2 C637.305,226.31 629.25,303.5 629.25,303.5 C629.25,303.5 463.25,343 463.25,343 C463.25,343 462.0374,343.9267 456.6474,348.0517 " fill="none" id="AddUpgradeStationController-to-Building" style="stroke:#181818;stroke-width:0.5;stroke-dasharray:7.0,7.0;"/><polygon fill="#181818" points="454.265,349.875,459.0541,348.7284,456.2503,348.3556,456.6231,345.5519,454.265,349.875" style="stroke:#181818;stroke-width:0.5;"/></g><!--link Station to MapElement--><g id="link_Station_MapElement"><path codeLine="102" d="M353.495,299.145 C340.965,313.03 332.8529,322.0269 320.0179,336.2569 " fill="none" id="Station-to-MapElement" style="stroke:#181818;stroke-width:0.5;"/><polygon fill="none" points="313.99,342.94,322.2456,338.2662,317.7902,334.2476,313.99,342.94" style="stroke:#181818;stroke-width:0.5;"/></g><!--link Map to MapElement--><g id="link_Map_MapElement"><path codeLine="103" d="M214.7184,170.7199 C231.9784,193.5999 247.75,214.5 247.75,214.5 C247.75,214.5 259.1546,288.7248 267.0046,339.8348 " fill="none" id="Map-MapElement" style="stroke:#181818;stroke-width:0.5;"/><polygon fill="#181818" points="211.105,165.93,211.315,169.5294,214.7184,170.7199,214.5083,167.1205,211.105,165.93" style="stroke:#181818;stroke-width:0.5;"/><polygon fill="#181818" points="267.46,342.8,268.7537,338.0485,267.0805,340.329,264.8,338.6558,267.46,342.8" style="stroke:#181818;stroke-width:0.5;"/><text fill="#000000" font-family="sans-serif" font-size="6.5" lengthAdjust="spacing" textLength="24.21" x="261.75" y="261.7642">contains</text><text fill="#000000" font-family="sans-serif" font-size="6.5" lengthAdjust="spacing" textLength="3.615" x="210.0327" y="176.8547">1</text><text fill="#000000" font-family="sans-serif" font-size="6.5" lengthAdjust="spacing" textLength="2.5295" x="264.3277" y="337.4123">*</text></g><!--link Map to Station--><g id="link_Map_Station"><path codeLine="104" d="M245.265,165.83 C267.455,178.605 287.25,190 287.25,190 C287.25,190 305.2544,202.0926 327.8694,217.2776 " fill="none" id="Map-to-Station" style="stroke:#181818;stroke-width:0.5;"/><polygon fill="#181818" points="330.36,218.95,327.739,214.7811,328.2845,217.5564,325.5092,218.1019,330.36,218.95" style="stroke:#181818;stroke-width:0.5;"/><text fill="#000000" font-family="sans-serif" font-size="6.5" lengthAdjust="spacing" textLength="24.21" x="300.25" y="197.5142">contains</text><text fill="#000000" font-family="sans-serif" font-size="6.5" lengthAdjust="spacing" textLength="3.615" x="247.831" y="176.9306">1</text><text fill="#000000" font-family="sans-serif" font-size="6.5" lengthAdjust="spacing" textLength="2.5295" x="322.31" y="213.3933">*</text></g><!--link MapElement to Position--><g id="link_MapElement_Position"><path codeLine="105" d="M274.25,432.19 C274.25,450.68 274.25,468.995 274.25,486.96 " fill="none" id="MapElement-to-Position" style="stroke:#181818;stroke-width:0.5;"/><polygon fill="#181818" points="274.25,489.96,276.25,485.46,274.25,487.46,272.25,485.46,274.25,489.96" style="stroke:#181818;stroke-width:0.5;"/><text fill="#000000" font-family="sans-serif" font-size="6.5" lengthAdjust="spacing" textLength="28.1868" x="274.75" y="454.5142">located at</text><text fill="#000000" font-family="sans-serif" font-size="6.5" lengthAdjust="spacing" textLength="3.615" x="270.6174" y="443.2558">1</text><text fill="#000000" font-family="sans-serif" font-size="6.5" lengthAdjust="spacing" textLength="3.615" x="270.589" y="484.4042">1</text></g><!--link Building to GMN22--><g id="link_Building_GMN22"><path d="M454.27,387.5 C457.84,387.5 460.085,387.5 460.085,387.5 C460.085,387.5 465,387.5 471.875,387.5 " fill="none" id="Building-GMN22" style="stroke:#181818;stroke-width:0.5;stroke-dasharray:7.0,7.0;"/></g><!--SRC=[bLRVR-Cs37xtNq7qPSbT4tGlUmY605cMjW7I9iiFu8PX61HRSOJAac79xMNR_U-Z94kMaxQtvYKIIP4VFvEKr1CJ9Qb80IL9dqXED_h4ALGqrKJad2Og6AWZoUGB4paS25UnXZD1zQcaK4f-Cfj8btAYr4JhYkrhJUUf51lsDuMR9Fa11eC1J8sUAiWax3OtFnbPOi_0HXFDf81_4i3V01PCwPz_gHdF4CCOzirAMVLmEBJ_du5acJVgUPiHU55_1C-IPOrjHGlvJF-tUKwrLwWUghg8F8vUF_cMD3buPKZ22xQ6BiEPbJV-0n2Z67Li-oq4ipNHOtMhVII5rMwGSP6tygaKIbTrQYYTIgMD3HCw0cs1878gwgABqu7VpXQpk_LaTHzsg_lbuypkDW-JnUAlwVBsTkO4YydwRXOBfhlDTlcmiUlL4jUtj_DfVFX-YIwZi-r-CryidMB-ssx-AvvTJ-vcBScJBDkLUKKosfJCRcuX3ouro8Ak9EUqWZGi4qFHAqvwogr6lXIlGR6YvbuOrdtheQf5pzVBszWY10wZB_Ccc9C5rr74rs6s_Zu85sjYmddydTLvLVtnPtBMKLlP-0wzihqirQZuR1X_f1-G1Kt0P9Ljge6_Y0dVGbYraDPLHONUie96KfBgcl07AUZfhAvT2xI7ukftLBH7kphLrKKXh5Ky8Cvw_u6KtTc5WXcd1K8OGn7MQgTeTZd36csFklyHjASnvbvAJebeyI_Jj2uPpLPICSDMEv-yv6m-aJsE0ym60jZ6Uy3i3-9KTuiub-0Lv7dairmGd5SPJAlOcQKtQ7sSrkXY_7uuJPTTI2MkeQ_H-jI425Y-sgzx3SrNRX5ykIYTtoz7wJT_kwsfArvbxpNVwbS_Nk5-35Stm-6dg_QI6C6Hg2HiZKbd3e_SZV7Ql1iEn-_DXkIzEMJEHhttFTCpI3NUtjzthp_cEmbS3GR_ZgFgJ4nN6Vu-MGAHlQXoHtQe4uOrwCsyrSRFnjZ2dmk6-1zAPGHSfaJJ38Zsd_DHQdogs6-P25n3nVAZ1dbeWPiY25-mecL5bMbo8A1Ach83IyFB1R0qPSfiZ1UcZyQccTpMJKOF-9RAO7y2XXxi2wlNcRH0H6Oo2ZSxRfGUuXMUWS7t5ihmP9ZXNKyhnpJgiGCLs-FxBq0qGTMrWrTMigILPaY1gbE4gsmu1_P4IMLS61Fdps130ZX97SjM37kgNoWLxVFj0Ysd1mlslNAsBugsT93a4bcmq0-omkagI6xX7z6Vp95qT8XJrSXGNrk_PXDWO0TRh-qt04YFD7qoLaXnvkPDo9my4yQ92LYOo-0ysqvQBg-zr5eM1WYMdesrRil30CtnwMOkXcjVfBP6EBVAvXvGOHhJp17FHCfhcqi3N5ai4WzLKNEyINFKMyRTf7il63Q9EFdm28MWYk3tmzU-IHOZ2GlG0BSUF4CU3gR3RD6WAoQo6ltZBiBp7m00]--></g></svg>