<svg xmlns="http://www.w3.org/2000/svg" xmlns:xlink="http://www.w3.org/1999/xlink" contentStyleType="text/css" height="855px" preserveAspectRatio="none" style="width:774px;height:855px;background:#FFFFFF;" version="1.1" viewBox="0 0 774 855" width="774px" zoomAndPan="magnify"><defs/><g><rect fill="#FFFFFF" height="661.1602" style="stroke:#181818;stroke-width:1.0;" width="10" x="46.2861" y="93.6211"/><rect fill="#FFFFFF" height="31.291" style="stroke:#181818;stroke-width:1.0;" width="10" x="342.9468" y="116.9121"/><rect fill="#FFFFFF" height="328.25" style="stroke:#181818;stroke-width:1.0;" width="10" x="342.9468" y="179.4941"/><rect fill="#FFFFFF" height="224.7461" style="stroke:#181818;stroke-width:1.0;" width="10" x="342.9468" y="539.0352"/><rect fill="none" height="282.959" style="stroke:#000000;stroke-width:1.5;" width="506.7402" x="10" y="194.4941"/><rect fill="none" height="81.873" style="stroke:#000000;stroke-width:1.5;" width="368.2847" x="20" y="327.6582"/><rect fill="none" height="81.873" style="stroke:#000000;stroke-width:1.5;" width="368.2847" x="20" y="598.3262"/><line style="stroke:#181818;stroke-width:0.5;stroke-dasharray:5.0,5.0;" x1="51" x2="51" y1="83.6211" y2="772.7813"/><line style="stroke:#181818;stroke-width:0.5;stroke-dasharray:5.0,5.0;" x1="347.6089" x2="347.6089" y1="83.6211" y2="772.7813"/><text fill="#000000" font-family="sans-serif" font-size="14" lengthAdjust="spacing" textLength="36.5723" x="30" y="80.1074">Editor</text><ellipse cx="51.2861" cy="13.5" fill="#E2E2F0" rx="8" ry="8" style="stroke:#181818;stroke-width:0.5;"/><path d="M51.2861,21.5 L51.2861,48.5 M38.2861,29.5 L64.2861,29.5 M51.2861,48.5 L38.2861,63.5 M51.2861,48.5 L64.2861,63.5 " fill="none" style="stroke:#181818;stroke-width:0.5;"/><text fill="#000000" font-family="sans-serif" font-size="14" lengthAdjust="spacing" textLength="36.5723" x="30" y="786.8887">Editor</text><ellipse cx="51.2861" cy="798.9023" fill="#E2E2F0" rx="8" ry="8" style="stroke:#181818;stroke-width:0.5;"/><path d="M51.2861,806.9023 L51.2861,833.9023 M38.2861,814.9023 L64.2861,814.9023 M51.2861,833.9023 L38.2861,848.9023 M51.2861,833.9023 L64.2861,848.9023 " fill="none" style="stroke:#181818;stroke-width:0.5;"/><rect fill="#E2E2F0" height="32.6211" rx="2.5" ry="2.5" style="stroke:#181818;stroke-width:0.5;" width="60.6758" x="317.6089" y="50"/><text fill="#000000" font-family="sans-serif" font-size="14" lengthAdjust="spacing" textLength="46.6758" x="324.6089" y="72.1074">System</text><rect fill="#E2E2F0" height="32.6211" rx="2.5" ry="2.5" style="stroke:#181818;stroke-width:0.5;" width="60.6758" x="317.6089" y="771.7813"/><text fill="#000000" font-family="sans-serif" font-size="14" lengthAdjust="spacing" textLength="46.6758" x="324.6089" y="793.8887">System</text><rect fill="#FFFFFF" height="661.1602" style="stroke:#181818;stroke-width:1.0;" width="10" x="46.2861" y="93.6211"/><rect fill="#FFFFFF" height="31.291" style="stroke:#181818;stroke-width:1.0;" width="10" x="342.9468" y="116.9121"/><rect fill="#FFFFFF" height="328.25" style="stroke:#181818;stroke-width:1.0;" width="10" x="342.9468" y="179.4941"/><rect fill="#FFFFFF" height="224.7461" style="stroke:#181818;stroke-width:1.0;" width="10" x="342.9468" y="539.0352"/><polygon fill="#181818" points="330.9468,112.9121,340.9468,116.9121,330.9468,120.9121,334.9468,116.9121" style="stroke:#181818;stroke-width:1.0;"/><line style="stroke:#181818;stroke-width:1.0;" x1="56.2861" x2="336.9468" y1="116.9121" y2="116.9121"/><text fill="#000000" font-family="sans-serif" font-size="13" font-weight="bold" lengthAdjust="spacing" textLength="7.23" x="63.2861" y="111.6494">1</text><text fill="#000000" font-family="sans-serif" font-size="13" lengthAdjust="spacing" textLength="134.4116" x="74.5161" y="111.6494">Run Create Map option</text><polygon fill="#181818" points="67.2861,144.2031,57.2861,148.2031,67.2861,152.2031,63.2861,148.2031" style="stroke:#181818;stroke-width:1.0;"/><line style="stroke:#181818;stroke-width:1.0;stroke-dasharray:2.0,2.0;" x1="61.2861" x2="346.9468" y1="148.2031" y2="148.2031"/><text fill="#000000" font-family="sans-serif" font-size="13" font-weight="bold" lengthAdjust="spacing" textLength="7.23" x="73.2861" y="142.9404">2</text><text fill="#000000" font-family="sans-serif" font-size="13" lengthAdjust="spacing" textLength="160.418" x="84.5161" y="142.9404">Display name options menu</text><polygon fill="#181818" points="330.9468,175.4941,340.9468,179.4941,330.9468,183.4941,334.9468,179.4941" style="stroke:#181818;stroke-width:1.0;"/><line style="stroke:#181818;stroke-width:1.0;" x1="56.2861" x2="336.9468" y1="179.4941" y2="179.4941"/><text fill="#000000" font-family="sans-serif" font-size="13" font-weight="bold" lengthAdjust="spacing" textLength="7.23" x="63.2861" y="174.2314">3</text><text fill="#000000" font-family="sans-serif" font-size="13" lengthAdjust="spacing" textLength="111.2935" x="74.5161" y="174.2314">Select name option</text><path d="M10,194.4941 L70.1709,194.4941 L70.1709,203.7852 L60.1709,213.7852 L10,213.7852 L10,194.4941 " fill="#EEEEEE" style="stroke:#000000;stroke-width:1.5;"/><rect fill="none" height="282.959" style="stroke:#000000;stroke-width:1.5;" width="506.7402" x="10" y="194.4941"/><text fill="#000000" font-family="sans-serif" font-size="13" font-weight="bold" lengthAdjust="spacing" textLength="15.1709" x="25" y="209.5225">alt</text><text fill="#000000" font-family="sans-serif" font-size="11" font-weight="bold" lengthAdjust="spacing" textLength="109.4092" x="85.1709" y="208.3643">[Enter custom name]</text><polygon fill="#181818" points="67.2861,233.0762,57.2861,237.0762,67.2861,241.0762,63.2861,237.0762" style="stroke:#181818;stroke-width:1.0;"/><line style="stroke:#181818;stroke-width:1.0;stroke-dasharray:2.0,2.0;" x1="61.2861" x2="341.9468" y1="237.0762" y2="237.0762"/><text fill="#000000" font-family="sans-serif" font-size="13" font-weight="bold" lengthAdjust="spacing" textLength="7.23" x="73.2861" y="231.8135">4</text><text fill="#000000" font-family="sans-serif" font-size="13" lengthAdjust="spacing" textLength="251.4307" x="84.5161" y="231.8135">Prompt for map name (with validation rules)</text><polygon fill="#181818" points="330.9468,264.3672,340.9468,268.3672,330.9468,272.3672,334.9468,268.3672" style="stroke:#181818;stroke-width:1.0;"/><line style="stroke:#181818;stroke-width:1.0;" x1="56.2861" x2="336.9468" y1="268.3672" y2="268.3672"/><text fill="#000000" font-family="sans-serif" font-size="13" font-weight="bold" lengthAdjust="spacing" textLength="7.23" x="63.2861" y="263.1045">5</text><text fill="#000000" font-family="sans-serif" font-size="13" lengthAdjust="spacing" textLength="96.1035" x="74.5161" y="263.1045">Enter map name</text><line style="stroke:#181818;stroke-width:1.0;" x1="352.9468" x2="394.9468" y1="299.6582" y2="299.6582"/><line style="stroke:#181818;stroke-width:1.0;" x1="394.9468" x2="394.9468" y1="299.6582" y2="312.6582"/><line style="stroke:#181818;stroke-width:1.0;" x1="353.9468" x2="394.9468" y1="312.6582" y2="312.6582"/><polygon fill="#181818" points="363.9468,308.6582,353.9468,312.6582,363.9468,316.6582,359.9468,312.6582" style="stroke:#181818;stroke-width:1.0;"/><text fill="#000000" font-family="sans-serif" font-size="13" font-weight="bold" lengthAdjust="spacing" textLength="7.23" x="359.9468" y="294.3955">6</text><text fill="#000000" font-family="sans-serif" font-size="13" lengthAdjust="spacing" textLength="123.5635" x="371.1768" y="294.3955">Validate name format</text><path d="M20,327.6582 L80.1709,327.6582 L80.1709,336.9492 L70.1709,346.9492 L20,346.9492 L20,327.6582 " fill="#EEEEEE" style="stroke:#000000;stroke-width:1.5;"/><rect fill="none" height="81.873" style="stroke:#000000;stroke-width:1.5;" width="368.2847" x="20" y="327.6582"/><text fill="#000000" font-family="sans-serif" font-size="13" font-weight="bold" lengthAdjust="spacing" textLength="15.1709" x="35" y="342.6865">alt</text><text fill="#000000" font-family="sans-serif" font-size="11" font-weight="bold" lengthAdjust="spacing" textLength="73.96" x="95.1709" y="341.5283">[Invalid name]</text><polygon fill="#181818" points="67.2861,366.2402,57.2861,370.2402,67.2861,374.2402,63.2861,370.2402" style="stroke:#181818;stroke-width:1.0;"/><line style="stroke:#181818;stroke-width:1.0;stroke-dasharray:2.0,2.0;" x1="61.2861" x2="341.9468" y1="370.2402" y2="370.2402"/><text fill="#000000" font-family="sans-serif" font-size="13" font-weight="bold" lengthAdjust="spacing" textLength="7.23" x="73.2861" y="364.9775">7</text><text fill="#000000" font-family="sans-serif" font-size="13" lengthAdjust="spacing" textLength="119.939" x="84.5161" y="364.9775">Show error message</text><polygon fill="#181818" points="330.9468,397.5313,340.9468,401.5313,330.9468,405.5313,334.9468,401.5313" style="stroke:#181818;stroke-width:1.0;"/><line style="stroke:#181818;stroke-width:1.0;" x1="56.2861" x2="336.9468" y1="401.5313" y2="401.5313"/><text fill="#000000" font-family="sans-serif" font-size="13" font-weight="bold" lengthAdjust="spacing" textLength="7.23" x="63.2861" y="396.2686">8</text><text fill="#000000" font-family="sans-serif" font-size="13" lengthAdjust="spacing" textLength="86.709" x="74.5161" y="396.2686">Re-enter name</text><line style="stroke:#000000;stroke-width:1.0;stroke-dasharray:2.0,2.0;" x1="10" x2="516.7402" y1="417.5313" y2="417.5313"/><text fill="#000000" font-family="sans-serif" font-size="11" font-weight="bold" lengthAdjust="spacing" textLength="98.4092" x="15" y="429.4014">[Use default name]</text><line style="stroke:#181818;stroke-width:1.0;" x1="352.9468" x2="394.9468" y1="456.4531" y2="456.4531"/><line style="stroke:#181818;stroke-width:1.0;" x1="394.9468" x2="394.9468" y1="456.4531" y2="469.4531"/><line style="stroke:#181818;stroke-width:1.0;" x1="353.9468" x2="394.9468" y1="469.4531" y2="469.4531"/><polygon fill="#181818" points="363.9468,465.4531,353.9468,469.4531,363.9468,473.4531,359.9468,469.4531" style="stroke:#181818;stroke-width:1.0;"/><text fill="#000000" font-family="sans-serif" font-size="13" font-weight="bold" lengthAdjust="spacing" textLength="7.23" x="359.9468" y="451.1904">9</text><text fill="#000000" font-family="sans-serif" font-size="13" lengthAdjust="spacing" textLength="98.2871" x="371.1768" y="451.1904">Set default name</text><polygon fill="#181818" points="67.2861,503.7441,57.2861,507.7441,67.2861,511.7441,63.2861,507.7441" style="stroke:#181818;stroke-width:1.0;"/><line style="stroke:#181818;stroke-width:1.0;stroke-dasharray:2.0,2.0;" x1="61.2861" x2="346.9468" y1="507.7441" y2="507.7441"/><text fill="#000000" font-family="sans-serif" font-size="13" font-weight="bold" lengthAdjust="spacing" textLength="14.46" x="73.2861" y="502.4814">10</text><text fill="#000000" font-family="sans-serif" font-size="13" lengthAdjust="spacing" textLength="130.0508" x="91.7461" y="502.4814">Prompt for dimensions</text><polygon fill="#181818" points="330.9468,535.0352,340.9468,539.0352,330.9468,543.0352,334.9468,539.0352" style="stroke:#181818;stroke-width:1.0;"/><line style="stroke:#181818;stroke-width:1.0;" x1="56.2861" x2="336.9468" y1="539.0352" y2="539.0352"/><text fill="#000000" font-family="sans-serif" font-size="13" font-weight="bold" lengthAdjust="spacing" textLength="14.46" x="63.2861" y="533.7725">11</text><text fill="#000000" font-family="sans-serif" font-size="13" lengthAdjust="spacing" textLength="129.3652" x="81.7461" y="533.7725">Enter width and height</text><line style="stroke:#181818;stroke-width:1.0;" x1="352.9468" x2="394.9468" y1="570.3262" y2="570.3262"/><line style="stroke:#181818;stroke-width:1.0;" x1="394.9468" x2="394.9468" y1="570.3262" y2="583.3262"/><line style="stroke:#181818;stroke-width:1.0;" x1="353.9468" x2="394.9468" y1="583.3262" y2="583.3262"/><polygon fill="#181818" points="363.9468,579.3262,353.9468,583.3262,363.9468,587.3262,359.9468,583.3262" style="stroke:#181818;stroke-width:1.0;"/><text fill="#000000" font-family="sans-serif" font-size="13" font-weight="bold" lengthAdjust="spacing" textLength="14.46" x="359.9468" y="565.0635">12</text><text fill="#000000" font-family="sans-serif" font-size="13" lengthAdjust="spacing" textLength="116.3462" x="378.4067" y="565.0635">Validate dimensions</text><path d="M20,598.3262 L80.1709,598.3262 L80.1709,607.6172 L70.1709,617.6172 L20,617.6172 L20,598.3262 " fill="#EEEEEE" style="stroke:#000000;stroke-width:1.5;"/><rect fill="none" height="81.873" style="stroke:#000000;stroke-width:1.5;" width="368.2847" x="20" y="598.3262"/><text fill="#000000" font-family="sans-serif" font-size="13" font-weight="bold" lengthAdjust="spacing" textLength="15.1709" x="35" y="613.3545">alt</text><text fill="#000000" font-family="sans-serif" font-size="11" font-weight="bold" lengthAdjust="spacing" textLength="106.3477" x="95.1709" y="612.1963">[Invalid dimensions]</text><polygon fill="#181818" points="67.2861,636.9082,57.2861,640.9082,67.2861,644.9082,63.2861,640.9082" style="stroke:#181818;stroke-width:1.0;"/><line style="stroke:#181818;stroke-width:1.0;stroke-dasharray:2.0,2.0;" x1="61.2861" x2="341.9468" y1="640.9082" y2="640.9082"/><text fill="#000000" font-family="sans-serif" font-size="13" font-weight="bold" lengthAdjust="spacing" textLength="14.46" x="73.2861" y="635.6455">13</text><text fill="#000000" font-family="sans-serif" font-size="13" lengthAdjust="spacing" textLength="119.939" x="91.7461" y="635.6455">Show error message</text><polygon fill="#181818" points="330.9468,668.1992,340.9468,672.1992,330.9468,676.1992,334.9468,672.1992" style="stroke:#181818;stroke-width:1.0;"/><line style="stroke:#181818;stroke-width:1.0;" x1="56.2861" x2="336.9468" y1="672.1992" y2="672.1992"/><text fill="#000000" font-family="sans-serif" font-size="13" font-weight="bold" lengthAdjust="spacing" textLength="14.46" x="63.2861" y="666.9365">14</text><text fill="#000000" font-family="sans-serif" font-size="13" lengthAdjust="spacing" textLength="119.9453" x="81.7461" y="666.9365">Re-enter dimensions</text><line style="stroke:#181818;stroke-width:1.0;" x1="352.9468" x2="394.9468" y1="710.4902" y2="710.4902"/><line style="stroke:#181818;stroke-width:1.0;" x1="394.9468" x2="394.9468" y1="710.4902" y2="723.4902"/><line style="stroke:#181818;stroke-width:1.0;" x1="353.9468" x2="394.9468" y1="723.4902" y2="723.4902"/><polygon fill="#181818" points="363.9468,719.4902,353.9468,723.4902,363.9468,727.4902,359.9468,723.4902" style="stroke:#181818;stroke-width:1.0;"/><text fill="#000000" font-family="sans-serif" font-size="13" font-weight="bold" lengthAdjust="spacing" textLength="14.46" x="359.9468" y="705.2275">15</text><text fill="#000000" font-family="sans-serif" font-size="13" lengthAdjust="spacing" textLength="389.4668" x="378.4067" y="705.2275">create Map(name, width, height) or createMapDefault(width, height)</text><polygon fill="#181818" points="62.2861,750.7813,52.2861,754.7813,62.2861,758.7813,58.2861,754.7813" style="stroke:#181818;stroke-width:1.0;"/><line style="stroke:#181818;stroke-width:1.0;stroke-dasharray:2.0,2.0;" x1="56.2861" x2="341.9468" y1="754.7813" y2="754.7813"/><text fill="#000000" font-family="sans-serif" font-size="13" font-weight="bold" lengthAdjust="spacing" textLength="14.46" x="68.2861" y="749.5186">16</text><text fill="#000000" font-family="sans-serif" font-size="13" lengthAdjust="spacing" textLength="171.2407" x="86.7461" y="749.5186">22. Display success message</text><!--SRC=[bL8xQyCm4DxrAuvE2IGTCcReqcJeK2WrBNIyMfTO8Cb6EYNatrUo4Z_YfAK68snzBtqd35pROBx92O4brmwsKiL5DEXObQf1o_1Gd3oJUG3qK7mLBL8TaEa25dc5vLFQXpMy1mlFZXBa5Hke6rQrxMb9906NaN2chc6ZVAFn11ODdHaU3DaW98sOrsO5QIfvo1ixeMROMYO7PV1ScnOf83wJ36-kDWt3BdwOcBkLd1qLLt10hIGcSN11av-t0jTHiis5sdjSzZ-p2cNbQ6EGMrJA-69RavvwCs9HrKSWvr94yXxtFNOo1LfI6wXJ92i5QK_m4Lz9EmoQxqGjYCU8n1M_DIPLd9PFO_jhOhccevAnMBGIAbBxYc_SZqbl0uzXPOFV_odjRc43lNJiKPQokzUprCiYdsDnFiGSec26HCGc5pWRGwOjhbQFtVtteInZnYxeeCkC_m40]--></g></svg>