<svg xmlns="http://www.w3.org/2000/svg" xmlns:xlink="http://www.w3.org/1999/xlink" contentStyleType="text/css" height="2702px" preserveAspectRatio="none" style="width:547px;height:2702px;background:#FFFFFF;" version="1.1" viewBox="0 0 547 2702" width="547px" zoomAndPan="magnify"><defs/><g><!--cluster Use Cases--><g id="cluster_Use Cases"><rect fill="none" height="2689" rx="2.5" ry="2.5" style="stroke:#181818;stroke-width:1.0;" width="391.48" x="150.28" y="7"/><text fill="#000000" font-family="sans-serif" font-size="14" font-weight="bold" lengthAdjust="spacing" textLength="73.2813" x="309.3794" y="22.5352">Use Cases</text></g><g id="elem_US01"><ellipse cx="346.0164" cy="514.0033" fill="#F1F1F1" rx="87.7664" ry="19.9533" style="stroke:#181818;stroke-width:0.5;"/><text fill="#000000" font-family="sans-serif" font-size="14" lengthAdjust="spacing" textLength="136.1377" x="277.9475" y="517.2943">UC01: Create a map</text></g><g id="elem_US02"><ellipse cx="346.0157" cy="436.9991" fill="#F1F1F1" rx="95.7457" ry="21.5491" style="stroke:#181818;stroke-width:0.5;"/><text fill="#000000" font-family="sans-serif" font-size="14" lengthAdjust="spacing" textLength="154.1641" x="268.9337" y="440.2902">UC02: Add an industry</text></g><g id="elem_US03"><ellipse cx="346.0168" cy="362.0034" fill="#F1F1F1" rx="78.1168" ry="18.0234" style="stroke:#181818;stroke-width:0.5;"/><text fill="#000000" font-family="sans-serif" font-size="14" lengthAdjust="spacing" textLength="113.5928" x="289.2204" y="365.2944">UC03: Add a city</text></g><g id="elem_US04"><ellipse cx="346.0164" cy="287.0033" fill="#F1F1F1" rx="99.9164" ry="22.3833" style="stroke:#181818;stroke-width:0.5;"/><text fill="#000000" font-family="sans-serif" font-size="14" lengthAdjust="spacing" textLength="163.4268" x="264.303" y="290.2943">UC04: Create a scenario</text></g><g id="elem_US05"><ellipse cx="346.0205" cy="1686.0041" fill="#F1F1F1" rx="90.7205" ry="20.5441" style="stroke:#181818;stroke-width:0.5;"/><text fill="#000000" font-family="sans-serif" font-size="14" lengthAdjust="spacing" textLength="142.8643" x="274.5883" y="1689.2951">UC05: Build a station</text></g><g id="elem_US06"><ellipse cx="346.023" cy="1608.0046" fill="#F1F1F1" rx="101.323" ry="22.6646" style="stroke:#181818;stroke-width:0.5;"/><text fill="#000000" font-family="sans-serif" font-size="14" lengthAdjust="spacing" textLength="166.5303" x="262.7579" y="1611.2956">UC06: Upgrade a station</text></g><g id="elem_US07"><ellipse cx="346.0155" cy="1526.9991" fill="#F1F1F1" rx="106.5955" ry="23.7191" style="stroke:#181818;stroke-width:0.5;"/><text fill="#000000" font-family="sans-serif" font-size="14" lengthAdjust="spacing" textLength="178.083" x="256.974" y="1530.2901">UC07: View station details</text></g><g id="elem_US08"><ellipse cx="346.0203" cy="1444.9961" fill="#F1F1F1" rx="104.0803" ry="23.2161" style="stroke:#181818;stroke-width:0.5;"/><text fill="#000000" font-family="sans-serif" font-size="14" lengthAdjust="spacing" textLength="172.5869" x="259.7269" y="1448.2871">UC08: Build a railway line</text></g><g id="elem_US09"><ellipse cx="346.0158" cy="907.9952" fill="#F1F1F1" rx="98.8258" ry="22.1652" style="stroke:#181818;stroke-width:0.5;"/><text fill="#000000" font-family="sans-serif" font-size="14" lengthAdjust="spacing" textLength="161.0137" x="265.5089" y="911.2862">UC09: Buy a locomotive</text></g><g id="elem_US10"><ellipse cx="346.0194" cy="826.0039" fill="#F1F1F1" rx="110.2194" ry="24.4439" style="stroke:#181818;stroke-width:0.5;"/><text fill="#000000" font-family="sans-serif" font-size="14" lengthAdjust="spacing" textLength="185.958" x="253.0403" y="829.2949">UC10: Assign train to route</text></g><g id="elem_US11"><ellipse cx="346.0176" cy="746.9975" fill="#F1F1F1" rx="86.4376" ry="19.6875" style="stroke:#181818;stroke-width:0.5;"/><text fill="#000000" font-family="sans-serif" font-size="14" lengthAdjust="spacing" textLength="133.0889" x="279.4732" y="750.2885">UC11: List all trains</text></g><g id="elem_US12"><ellipse cx="346.0195" cy="669.0039" fill="#F1F1F1" rx="103.2695" ry="23.0539" style="stroke:#181818;stroke-width:0.5;"/><text fill="#000000" font-family="sans-serif" font-size="14" lengthAdjust="spacing" textLength="170.8096" x="260.6148" y="672.2949">UC12: Create a simulator</text></g><g id="elem_US13"><ellipse cx="346.0209" cy="2231.0002" fill="#F1F1F1" rx="119.8509" ry="26.3702" style="stroke:#181818;stroke-width:0.5;"/><text fill="#000000" font-family="sans-serif" font-size="14" lengthAdjust="spacing" textLength="206.6777" x="242.682" y="2234.2912">UC13: Verify train connectivity</text></g><g id="elem_US14"><ellipse cx="346.0233" cy="2143.0007" fill="#F1F1F1" rx="119.4033" ry="26.2807" style="stroke:#181818;stroke-width:0.5;"/><text fill="#000000" font-family="sans-serif" font-size="14" lengthAdjust="spacing" textLength="205.7207" x="243.1629" y="2146.2917">UC14: Plan maintenance route</text></g><g id="elem_US15"><ellipse cx="346.0237" cy="2057.0027" fill="#F1F1F1" rx="113.1637" ry="25.0327" style="stroke:#181818;stroke-width:0.5;"/><text fill="#000000" font-family="sans-serif" font-size="14" lengthAdjust="spacing" textLength="192.3223" x="249.8626" y="2060.2938">UC15: Analyze station profit</text></g><g id="elem_US16"><ellipse cx="346.0211" cy="1967.9982" fill="#F1F1F1" rx="133.2911" ry="29.0582" style="stroke:#181818;stroke-width:0.5;"/><text fill="#000000" font-family="sans-serif" font-size="14" lengthAdjust="spacing" textLength="235.1973" x="228.4225" y="1971.2892">UC16: Compare passenger arrivals</text></g><g id="elem_US17"><ellipse cx="346.0174" cy="1879.0015" fill="#F1F1F1" rx="114.6074" ry="25.3215" style="stroke:#181818;stroke-width:0.5;"/><text fill="#000000" font-family="sans-serif" font-size="14" lengthAdjust="spacing" textLength="195.4326" x="248.3011" y="1882.2925">UC17: Analyze cargo arrivals</text></g><g id="elem_US18"><ellipse cx="346.0179" cy="1779.9976" fill="#F1F1F1" rx="179.7379" ry="38.3476" style="stroke:#181818;stroke-width:0.5;"/><text fill="#000000" font-family="sans-serif" font-size="14" lengthAdjust="spacing" textLength="331.7275" x="180.1542" y="1783.2886">UC18: Analyze train/passenger/mail distribution</text></g><g id="elem_US19"><ellipse cx="346.0162" cy="211.0032" fill="#F1F1F1" rx="81.8662" ry="18.7732" style="stroke:#181818;stroke-width:0.5;"/><text fill="#000000" font-family="sans-serif" font-size="14" lengthAdjust="spacing" textLength="122.4727" x="284.7798" y="214.2942">UC19: Save a map</text></g><g id="elem_US20"><ellipse cx="346.0246" cy="137.9989" fill="#F1F1F1" rx="82.8446" ry="18.9689" style="stroke:#181818;stroke-width:0.5;"/><text fill="#000000" font-family="sans-serif" font-size="14" lengthAdjust="spacing" textLength="124.7627" x="283.6432" y="141.2899">UC20: Load a map</text></g><g id="elem_US21"><ellipse cx="346.0192" cy="62.9958" fill="#F1F1F1" rx="93.7792" ry="21.1558" style="stroke:#181818;stroke-width:0.5;"/><text fill="#000000" font-family="sans-serif" font-size="14" lengthAdjust="spacing" textLength="149.7617" x="271.1383" y="66.2869">UC21: Save a scenario</text></g><g id="elem_US22"><ellipse cx="346.0208" cy="590.0002" fill="#F1F1F1" rx="94.8008" ry="21.3602" style="stroke:#181818;stroke-width:0.5;"/><text fill="#000000" font-family="sans-serif" font-size="14" lengthAdjust="spacing" textLength="152.0518" x="269.9949" y="593.2912">UC22: Load a scenario</text></g><g id="elem_US23"><ellipse cx="346.0244" cy="1363.9989" fill="#F1F1F1" rx="100.2444" ry="22.4489" style="stroke:#181818;stroke-width:0.5;"/><text fill="#000000" font-family="sans-serif" font-size="14" lengthAdjust="spacing" textLength="164.1514" x="263.9487" y="1367.2899">UC23: Save a simulation</text></g><g id="elem_US24"><ellipse cx="346.0227" cy="1283.9965" fill="#F1F1F1" rx="101.2827" ry="22.6565" style="stroke:#181818;stroke-width:0.5;"/><text fill="#000000" font-family="sans-serif" font-size="14" lengthAdjust="spacing" textLength="166.4414" x="262.802" y="1287.2875">UC24: Load a simulation</text></g><g id="elem_US25"><ellipse cx="346.0168" cy="1198.0034" fill="#F1F1F1" rx="127.3668" ry="27.8734" style="stroke:#181818;stroke-width:0.5;"/><text fill="#000000" font-family="sans-serif" font-size="14" lengthAdjust="spacing" textLength="222.6738" x="234.6799" y="1201.2944">UC25: View year financial results</text></g><g id="elem_US26"><ellipse cx="346.0221" cy="2329.0044" fill="#F1F1F1" rx="170.0721" ry="36.4144" style="stroke:#181818;stroke-width:0.5;"/><text fill="#000000" font-family="sans-serif" font-size="14" lengthAdjust="spacing" textLength="311.8145" x="190.1149" y="2332.2954">UC26: Analyze algorithm efficiency (US13/14)</text></g><g id="elem_US27"><ellipse cx="346.0162" cy="1100.9972" fill="#F1F1F1" rx="160.7362" ry="34.5472" style="stroke:#181818;stroke-width:0.5;"/><text fill="#000000" font-family="sans-serif" font-size="14" lengthAdjust="spacing" textLength="292.5098" x="199.7613" y="1104.2882">UC27: Find shortest route through stations</text></g><g id="elem_US28"><ellipse cx="346.0167" cy="2646.0033" fill="#F1F1F1" rx="157.9667" ry="33.9933" style="stroke:#181818;stroke-width:0.5;"/><text fill="#000000" font-family="sans-serif" font-size="14" lengthAdjust="spacing" textLength="286.7676" x="202.6329" y="2649.2943">UC28: Analyze algorithm efficiency (US27)</text></g><g id="elem_US29"><ellipse cx="346.023" cy="2540.0006" fill="#F1F1F1" rx="174.803" ry="37.3606" style="stroke:#181818;stroke-width:0.5;"/><text fill="#000000" font-family="sans-serif" font-size="14" lengthAdjust="spacing" textLength="321.5693" x="185.2383" y="2543.2916">UC29: Graph algorithm performance (US13/14)</text></g><g id="elem_US30"><ellipse cx="346.0215" cy="2433.9983" fill="#F1F1F1" rx="156.1915" ry="33.6383" style="stroke:#181818;stroke-width:0.5;"/><text fill="#000000" font-family="sans-serif" font-size="14" lengthAdjust="spacing" textLength="283.083" x="204.48" y="2437.2893">UC30: Fit curve to algorithm performance</text></g><g id="elem_US31"><ellipse cx="346.0199" cy="998" fill="#F1F1F1" rx="153.5499" ry="33.11" style="stroke:#181818;stroke-width:0.5;"/><text fill="#000000" font-family="sans-serif" font-size="14" lengthAdjust="spacing" textLength="277.5938" x="207.2231" y="1001.291">UC31: Analyze cargo revenue correlation</text></g><!--entity Editor--><g id="elem_Editor"><ellipse cx="56.1454" cy="295.26" fill="#F1F1F1" rx="8" ry="8" style="stroke:#181818;stroke-width:0.5;"/><path d="M56.1454,303.26 L56.1454,330.26 M43.1454,311.26 L69.1454,311.26 M56.1454,330.26 L43.1454,345.26 M56.1454,330.26 L69.1454,345.26 " fill="none" style="stroke:#181818;stroke-width:0.5;"/><text fill="#000000" font-family="sans-serif" font-size="14" lengthAdjust="spacing" textLength="40.0107" x="36.14" y="360.2952">Editor</text></g><!--entity Player--><g id="elem_Player"><ellipse cx="56.1397" cy="1415.26" fill="#F1F1F1" rx="8" ry="8" style="stroke:#181818;stroke-width:0.5;"/><path d="M56.1397,1423.26 L56.1397,1450.26 M43.1397,1431.26 L69.1397,1431.26 M56.1397,1450.26 L43.1397,1465.26 M56.1397,1450.26 L69.1397,1465.26 " fill="none" style="stroke:#181818;stroke-width:0.5;"/><text fill="#000000" font-family="sans-serif" font-size="14" lengthAdjust="spacing" textLength="40.3594" x="35.96" y="1480.2952">Player</text></g><!--entity PO--><g id="elem_PO"><ellipse cx="56.1416" cy="2457.26" fill="#F1F1F1" rx="8" ry="8" style="stroke:#181818;stroke-width:0.5;"/><path d="M56.1416,2465.26 L56.1416,2492.26 M43.1416,2473.26 L69.1416,2473.26 M56.1416,2492.26 L43.1416,2507.26 M56.1416,2492.26 L69.1416,2507.26 " fill="none" style="stroke:#181818;stroke-width:0.5;"/><text fill="#000000" font-family="sans-serif" font-size="14" lengthAdjust="spacing" textLength="100.2832" x="6" y="2522.2952">Product Owner</text></g><!--link Editor to US01--><g id="link_Editor_US01"><path d="M68.49,363.61 C80.84,398.58 104.11,448.67 142.28,476 C175.55,499.82 213.5309,509.3319 252.0109,513.2519 " fill="none" id="Editor-to-US01" style="stroke:#181818;stroke-width:1.0;"/><polygon fill="#181818" points="257.98,513.86,249.4317,508.9685,253.0057,513.3533,248.621,516.9273,257.98,513.86" style="stroke:#181818;stroke-width:1.0;"/></g><!--link Editor to US02--><g id="link_Editor_US02"><path d="M76.61,347.01 C92.59,363.64 116.68,385.65 142.28,398 C177.15,414.82 212.746,423.5024 249.116,428.9424 " fill="none" id="Editor-to-US02" style="stroke:#181818;stroke-width:1.0;"/><polygon fill="#181818" points="255.05,429.83,246.7407,424.5427,250.105,429.0904,245.5573,432.4546,255.05,429.83" style="stroke:#181818;stroke-width:1.0;"/></g><!--link Editor to US03--><g id="link_Editor_US03"><path d="M76.48,327.49 C116.82,332.67 205.6789,344.0952 271.1189,352.5052 " fill="none" id="Editor-to-US03" style="stroke:#181818;stroke-width:1.0;"/><polygon fill="#181818" points="277.07,353.27,268.6533,348.1554,272.1108,352.6327,267.6335,356.0902,277.07,353.27" style="stroke:#181818;stroke-width:1.0;"/></g><!--link Editor to US04--><g id="link_Editor_US04"><path d="M76.48,322.45 C113.23,317.6 189.2316,307.5654 253.0016,299.1454 " fill="none" id="Editor-to-US04" style="stroke:#181818;stroke-width:1.0;"/><polygon fill="#181818" points="258.95,298.36,249.5038,295.5725,253.993,299.0145,250.551,303.5037,258.95,298.36" style="stroke:#181818;stroke-width:1.0;"/></g><!--link Editor to US19--><g id="link_Editor_US19"><path d="M76.58,300.98 C92.37,283.18 116.22,259.87 142.28,247 C180.27,228.24 220.5678,219.8127 259.2978,215.4427 " fill="none" id="Editor-to-US19" style="stroke:#181818;stroke-width:1.0;"/><polygon fill="#181818" points="265.26,214.77,255.8683,211.8043,260.2915,215.3306,256.7652,219.7539,265.26,214.77" style="stroke:#181818;stroke-width:1.0;"/></g><!--link Editor to US20--><g id="link_Editor_US20"><path d="M68.65,286.26 C81.06,251.51 104.32,201.96 142.28,175 C177,150.35 217.2714,141.1264 256.8214,137.7764 " fill="none" id="Editor-to-US20" style="stroke:#181818;stroke-width:1.0;"/><polygon fill="#181818" points="262.8,137.27,253.4945,134.0439,257.8178,137.692,254.1697,142.0153,262.8,137.27" style="stroke:#181818;stroke-width:1.0;"/></g><!--link Editor to US21--><g id="link_Editor_US21"><path d="M60.58,286.58 C67.23,236.2 86.57,148.75 142.28,102 C172.49,76.66 208.204,66.5276 245.914,62.4976 " fill="none" id="Editor-to-US21" style="stroke:#181818;stroke-width:1.0;"/><polygon fill="#181818" points="251.88,61.86,242.5059,58.839,246.9083,62.3913,243.356,66.7937,251.88,61.86" style="stroke:#181818;stroke-width:1.0;"/></g><!--link Editor to US22--><g id="link_Editor_US22"><path d="M60.36,363.48 C66.77,414.46 85.86,503.45 142.28,551 C172.23,576.23 207.5753,586.3798 245.0953,590.4698 " fill="none" id="Editor-to-US22" style="stroke:#181818;stroke-width:1.0;"/><polygon fill="#181818" points="251.06,591.12,242.5465,586.1683,246.0894,590.5782,241.6795,594.1211,251.06,591.12" style="stroke:#181818;stroke-width:1.0;"/></g><!--link Player to US05--><g id="link_Player_US05"><path d="M62.25,1483.7 C70.54,1530.15 91.45,1606.93 142.28,1648 C173.69,1673.37 210.7874,1683.1972 249.1574,1686.8772 " fill="none" id="Player-to-US05" style="stroke:#181818;stroke-width:1.0;"/><polygon fill="#181818" points="255.13,1687.45,246.553,1682.609,250.1528,1686.9726,245.7892,1690.5725,255.13,1687.45" style="stroke:#181818;stroke-width:1.0;"/></g><!--link Player to US06--><g id="link_Player_US06"><path d="M73.96,1483.55 C88.13,1511.4 111.11,1547.57 142.28,1568 C172.82,1588.01 205.1772,1597.5346 240.2272,1602.8246 " fill="none" id="Player-to-US06" style="stroke:#181818;stroke-width:1.0;"/><polygon fill="#181818" points="246.16,1603.72,237.8577,1598.4217,241.216,1602.9738,236.6638,1606.3321,246.16,1603.72" style="stroke:#181818;stroke-width:1.0;"/></g><!--link Player to US07--><g id="link_Player_US07"><path d="M76.51,1456.05 C93.4,1465.26 118.8,1478.11 142.28,1486 C178.71,1498.24 214.1971,1506.3348 250.0471,1512.8648 " fill="none" id="Player-to-US07" style="stroke:#181818;stroke-width:1.0;"/><polygon fill="#181818" points="255.95,1513.94,247.8125,1508.392,251.0309,1513.044,246.3789,1516.2625,255.95,1513.94" style="stroke:#181818;stroke-width:1.0;"/></g><!--link Player to US08--><g id="link_Player_US08"><path d="M76.48,1445 C109.95,1445 174.92,1445 235.49,1445 " fill="none" id="Player-to-US08" style="stroke:#181818;stroke-width:1.0;"/><polygon fill="#181818" points="241.49,1445,232.49,1441,236.49,1445,232.49,1449,241.49,1445" style="stroke:#181818;stroke-width:1.0;"/></g><!--link Player to US09--><g id="link_Player_US09"><path d="M58.25,1406.3 C62.1,1300.89 78.37,1012.25 142.28,947 C169.62,919.09 204.4581,908.4605 242.3181,904.7805 " fill="none" id="Player-to-US09" style="stroke:#181818;stroke-width:1.0;"/><polygon fill="#181818" points="248.29,904.2,238.9452,901.0895,243.3135,904.6837,239.7192,909.0519,248.29,904.2" style="stroke:#181818;stroke-width:1.0;"/></g><!--link Player to US10--><g id="link_Player_US10"><path d="M57.29,1406.64 C58.57,1290.53 68.61,946.06 142.28,868 C166.28,842.58 195.3713,831.332 229.5813,826.012 " fill="none" id="Player-to-US10" style="stroke:#181818;stroke-width:1.0;"/><polygon fill="#181818" points="235.51,825.09,226.0022,822.5205,230.5694,825.8583,227.2315,830.4255,235.51,825.09" style="stroke:#181818;stroke-width:1.0;"/></g><!--link Player to US11--><g id="link_Player_US11"><path d="M59.49,1406.36 C68.01,1271.79 99.13,829.48 142.28,784 C172.88,751.75 215.5433,742.29 257.5133,740.89 " fill="none" id="Player-to-US11" style="stroke:#181818;stroke-width:1.0;"/><polygon fill="#181818" points="263.51,740.69,254.3816,736.9923,258.5128,740.8567,254.6484,744.9878,263.51,740.69" style="stroke:#181818;stroke-width:1.0;"/></g><!--link Player to US12--><g id="link_Player_US12"><path d="M58.98,1406.62 C66.22,1262.86 94.69,761.78 142.28,710 C167.8,682.24 200.5317,671.0565 237.3017,666.6965 " fill="none" id="Player-to-US12" style="stroke:#181818;stroke-width:1.0;"/><polygon fill="#181818" points="243.26,665.99,233.8516,663.0776,238.2948,666.5788,234.7936,671.0219,243.26,665.99" style="stroke:#181818;stroke-width:1.0;"/></g><!--link Player to US13--><g id="link_Player_US13"><path d="M58.98,1483.72 C66.2,1628.77 94.64,2134.37 142.28,2187 C163.73,2210.7 188.7977,2222.0672 220.0777,2228.3572 " fill="none" id="Player-to-US13" style="stroke:#181818;stroke-width:1.0;"/><polygon fill="#181818" points="225.96,2229.54,217.9252,2223.8442,221.0581,2228.5543,216.3481,2231.6872,225.96,2229.54" style="stroke:#181818;stroke-width:1.0;"/></g><!--link Player to US14--><g id="link_Player_US14"><path d="M56.56,1483.49 C55.45,1609.92 58.76,2009.53 142.28,2100 C163.95,2123.46 189.0624,2134.6643 220.3424,2140.8043 " fill="none" id="Player-to-US14" style="stroke:#181818;stroke-width:1.0;"/><polygon fill="#181818" points="226.23,2141.96,218.169,2136.3014,221.3236,2140.9969,216.6281,2144.1516,226.23,2141.96" style="stroke:#181818;stroke-width:1.0;"/></g><!--link Player to US15--><g id="link_Player_US15"><path d="M57.38,1483.71 C58.9,1599.21 69.59,1938.12 142.28,2015 C165.62,2039.68 193.4317,2050.873 226.7117,2056.423 " fill="none" id="Player-to-US15" style="stroke:#181818;stroke-width:1.0;"/><polygon fill="#181818" points="232.63,2057.41,224.4106,2051.984,227.6981,2056.5875,223.0946,2059.8751,232.63,2057.41" style="stroke:#181818;stroke-width:1.0;"/></g><!--link Player to US16--><g id="link_Player_US16"><path d="M58.68,1483.45 C63.56,1585.36 82.09,1858.95 142.28,1922 C161.72,1942.36 182.3354,1953.0714 209.6654,1960.2214 " fill="none" id="Player-to-US16" style="stroke:#181818;stroke-width:1.0;"/><polygon fill="#181818" points="215.47,1961.74,207.7754,1955.5923,210.6328,1960.4745,205.7506,1963.3319,215.47,1961.74" style="stroke:#181818;stroke-width:1.0;"/></g><!--link Player to US17--><g id="link_Player_US17"><path d="M60.3,1483.58 C68.34,1572.21 92.59,1786.58 142.28,1836 C165.82,1859.41 192.8177,1870.4514 225.2677,1876.3814 " fill="none" id="Player-to-US17" style="stroke:#181818;stroke-width:1.0;"/><polygon fill="#181818" points="231.17,1877.46,223.0357,1871.9073,226.2515,1876.5612,221.5976,1879.7769,231.17,1877.46" style="stroke:#181818;stroke-width:1.0;"/></g><!--link Player to US18--><g id="link_Player_US18"><path d="M57.71,1483.37 C60.74,1543.3 75.52,1659 142.28,1724 C157.72,1739.03 171.2433,1747.8712 191.4833,1756.0112 " fill="none" id="Player-to-US18" style="stroke:#181818;stroke-width:1.0;"/><polygon fill="#181818" points="197.05,1758.25,190.1925,1751.1807,192.4111,1756.3844,187.2075,1758.603,197.05,1758.25" style="stroke:#181818;stroke-width:1.0;"/></g><!--link Player to US23--><g id="link_Player_US23"><path d="M76.5,1433.92 C93.38,1424.69 118.78,1411.83 142.28,1404 C180.06,1391.41 217.2782,1383.2347 254.0282,1376.8647 " fill="none" id="Player-to-US23" style="stroke:#181818;stroke-width:1.0;"/><polygon fill="#181818" points="259.94,1375.84,250.3891,1373.4358,255.0135,1376.6939,251.7554,1381.3183,259.94,1375.84" style="stroke:#181818;stroke-width:1.0;"/></g><!--link Player to US24--><g id="link_Player_US24"><path d="M74.41,1406.5 C88.69,1379.18 111.59,1343.94 142.28,1324 C172.89,1304.11 205.2677,1294.6087 240.3177,1289.2987 " fill="none" id="Player-to-US24" style="stroke:#181818;stroke-width:1.0;"/><polygon fill="#181818" points="246.25,1288.4,236.7524,1285.7932,241.3064,1289.1489,237.9507,1293.703,246.25,1288.4" style="stroke:#181818;stroke-width:1.0;"/></g><!--link Player to US25--><g id="link_Player_US25"><path d="M62.7,1406.59 C71.41,1360.85 92.72,1285.46 142.28,1244 C165.26,1224.78 188.81,1214.5666 218.04,1207.6766 " fill="none" id="Player-to-US25" style="stroke:#181818;stroke-width:1.0;"/><polygon fill="#181818" points="223.88,1206.3,214.2024,1204.4716,219.0134,1207.4471,216.0378,1212.2582,223.88,1206.3" style="stroke:#181818;stroke-width:1.0;"/></g><!--link Player to US27--><g id="link_Player_US27"><path d="M56.94,1406.26 C58.81,1343.84 71.9,1221.12 142.28,1153 C159.25,1136.57 175.0206,1127.1328 197.5406,1119.2028 " fill="none" id="Player-to-US27" style="stroke:#181818;stroke-width:1.0;"/><polygon fill="#181818" points="203.2,1117.21,193.3824,1116.4263,198.4839,1118.8707,196.0395,1123.9722,203.2,1117.21" style="stroke:#181818;stroke-width:1.0;"/></g><!--link Player to US31--><g id="link_Player_US31"><path d="M60.32,1406.39 C68.46,1317.11 92.94,1100.08 142.28,1049 C159.37,1031.31 175.9264,1021.3428 199.3964,1013.4028 " fill="none" id="Player-to-US31" style="stroke:#181818;stroke-width:1.0;"/><polygon fill="#181818" points="205.08,1011.48,195.2728,1010.5751,200.3437,1013.0823,197.8365,1018.1532,205.08,1011.48" style="stroke:#181818;stroke-width:1.0;"/></g><!--link PO to US26--><g id="link_PO_US26"><path d="M80.01,2448.42 C95.06,2426.2 116.69,2399.5 142.28,2383 C163.26,2369.48 181.7944,2361.1238 206.0844,2353.5138 " fill="none" id="PO-to-US26" style="stroke:#181818;stroke-width:1.0;"/><polygon fill="#181818" points="211.81,2351.72,202.0258,2350.5937,207.0387,2353.2148,204.4175,2358.2278,211.81,2351.72" style="stroke:#181818;stroke-width:1.0;"/></g><!--link PO to US28--><g id="link_PO_US28"><path d="M78.59,2525.62 C93.53,2549.04 115.53,2577.67 142.28,2595 C164.06,2609.11 183.7299,2617.6302 209.0699,2625.0202 " fill="none" id="PO-to-US28" style="stroke:#181818;stroke-width:1.0;"/><polygon fill="#181818" points="214.83,2626.7,207.3098,2620.3402,210.03,2625.3001,205.07,2628.0203,214.83,2626.7" style="stroke:#181818;stroke-width:1.0;"/></g><!--link PO to US29--><g id="link_PO_US29"><path d="M106.63,2496.11 C135.97,2501.51 168.7793,2507.5532 206.4593,2514.4932 " fill="none" id="PO-to-US29" style="stroke:#181818;stroke-width:1.0;"/><polygon fill="#181818" points="212.36,2515.58,204.2334,2510.0159,207.4427,2514.6743,202.7843,2517.8836,212.36,2515.58" style="stroke:#181818;stroke-width:1.0;"/></g><!--link PO to US30--><g id="link_PO_US30"><path d="M106.63,2477.89 C139.59,2471.82 178.4693,2464.6671 220.3193,2456.9571 " fill="none" id="PO-to-US30" style="stroke:#181818;stroke-width:1.0;"/><polygon fill="#181818" points="226.22,2455.87,216.6442,2453.5668,221.3028,2456.7759,218.0937,2461.4344,226.22,2455.87" style="stroke:#181818;stroke-width:1.0;"/></g><!--SRC=[XPLFYzim4CNl_XH3JkrXsKZE_qDX6zfU5ZQmxDvLU-8872b8SXQtzBjtd4Hsh2aqb_ZXD-EHVazsZVi0mOBJrI50gHqMGLkJPQe8ri6tKjFVJUngrM8KavspPLC4UFamw2QWFEnUigohLwQg4IPl7c6hFFe9_Cw0Vet7WZJTsKx51hOELK1GS5IdI_tRwrGmezp0Krc2Cg1DsVZWskYLp9lVl53eqDjoPflTFTiNQ9JJDhfdp3tVmDT6rrrR7rItET4xPzx51jvEbLCbSlU2kPSRUDVu4OrGOb2wzh5WoGfMmoYEd1-gXLeRZ0KhLh3k2bgorxQmHnlqkJUlKxEOqkvvhoi3WRgRIofi4sA5cB8AWlYiVG1LrzUQEBjW78MyttHzR6f5AOfsXb8GodTqUj_UXYciCLqqpmDPmSWA8aiXDPGeRGA1DGMEry3m2iBxP5JT_iAUmydPlGwnX54MH7bhZoVb44xAUpGLEb3EwRFgwGc6Moo79nNALPQLCE1YDPHSjk6nVzuZBR6cyqe7Glzixd8cM0e4fU1LdSSdJJ3-alW_MrMER991bwBlbfmToQ1BsRTClOoup8U-rtWCQvACj9mDdPcRGPRpsqbhKJdOwouOMjNWq3TrYFil6Mcv6FPVrPLrEXoEWFkzBZIQeeLFNGeVnUnpRC6eIwB-dTvSu0_M1QJ3SiaZX0FzLuUOkNu6bW6v-lyCSjaFmEXBel_3gTFXhlg4Rc_TyN8ys19OCF9fjuG0HUC83xqL_jdeLfwpmEGYpRt3Cvg6b7KEH-XoaVt9ikj71nuUlbm_2MCj4vqdUZRM5FIHfaIFTTAVafbTFtInuJpHYqGl4xrAz7giwJqwrYBHCj5vecU9JkOJoNmYcKyayycalqpwowI_JFeHispt4cykxgvNTzVhuPeYyXS0]--></g></svg>