<svg xmlns="http://www.w3.org/2000/svg" xmlns:xlink="http://www.w3.org/1999/xlink" contentStyleType="text/css" height="619.2px" preserveAspectRatio="none" style="width:1137px;height:619px;background:#FFFFFF;" version="1.1" viewBox="0 0 1137 619" width="1137.6px" zoomAndPan="magnify"><defs/><g><!--class CreateRouteUI--><g id="elem_CreateRouteUI"><rect codeLine="7" fill="#F1F1F1" height="71.3391" id="CreateRouteUI" rx="1" ry="1" style="stroke:#181818;stroke-width:0.20000000000000004;" width="168.991" x="2.8" y="36.4"/><ellipse cx="66.9197" cy="42.8" fill="#ADD1B2" rx="4.4" ry="4.4" style="stroke:#181818;stroke-width:0.4000000000000001;"/><path d="M68.026,41.15 Q68.0885,41.0625 68.1635,41.0188 Q68.2385,40.975 68.326,40.975 Q68.476,40.975 68.5697,41.0813 Q68.6635,41.1813 68.6635,41.425 L68.6635,42.0063 Q68.6635,42.25 68.5697,42.3563 Q68.476,42.4625 68.326,42.4625 Q68.1885,42.4625 68.1072,42.3813 Q68.026,42.3063 67.9822,42.1 Q67.9635,41.9563 67.8885,41.8813 Q67.7572,41.7313 67.5135,41.6438 Q67.2697,41.5563 67.0197,41.5563 Q66.7135,41.5563 66.4572,41.6875 Q66.2072,41.8188 66.0072,42.1188 Q65.8135,42.4188 65.8135,42.8313 L65.8135,43.2688 Q65.8135,43.7625 66.1697,44.0938 Q66.526,44.4188 67.1635,44.4188 Q67.5385,44.4188 67.801,44.3188 Q67.9572,44.2563 68.126,44.0813 Q68.2322,43.975 68.2885,43.9438 Q68.351,43.9125 68.4322,43.9125 Q68.5635,43.9125 68.6635,44.0188 Q68.7697,44.1188 68.7697,44.2563 Q68.7697,44.3938 68.6322,44.5563 Q68.4322,44.7875 68.1135,44.9188 Q67.6822,45.1 67.1635,45.1 Q66.5572,45.1 66.076,44.85 Q65.6822,44.65 65.4072,44.225 Q65.1322,43.7938 65.1322,43.2813 L65.1322,42.8188 Q65.1322,42.2875 65.376,41.8313 Q65.626,41.3688 66.0635,41.125 Q66.501,40.875 66.9947,40.875 Q67.2885,40.875 67.5447,40.9438 Q67.8072,41.0063 68.026,41.15 Z " fill="#000000"/><text fill="#000000" font-family="sans-serif" font-size="5.6" lengthAdjust="spacing" textLength="37.3516" x="75.1197" y="45.1188">CreateRouteUI</text><line style="stroke:#181818;stroke-width:0.20000000000000004;" x1="3.2" x2="171.391" y1="49.2" y2="49.2"/><text fill="#000000" font-family="sans-serif" font-size="5.6" lengthAdjust="spacing" textLength="84.0355" x="5.2" y="56.843">-controller: CreateRouteController</text><line style="stroke:#181818;stroke-width:0.20000000000000004;" x1="3.2" x2="171.391" y1="59.8484" y2="59.8484"/><text fill="#000000" font-family="sans-serif" font-size="5.6" lengthAdjust="spacing" textLength="164.191" x="5.2" y="67.4914">+CreateRouteUI(simulation: Simulation, actualScenario: Scenario)</text><text fill="#000000" font-family="sans-serif" font-size="5.6" lengthAdjust="spacing" textLength="15.0938" x="5.2" y="74.9398">+run()</text><text fill="#000000" font-family="sans-serif" font-size="5.6" lengthAdjust="spacing" textLength="69.4148" x="5.2" y="82.3883">-defineGeneratingRate(): int</text><text fill="#000000" font-family="sans-serif" font-size="5.6" lengthAdjust="spacing" textLength="98.3609" x="5.2" y="89.8367">-defineRoute(train: Train): List&lt;Station&gt;</text><text fill="#000000" font-family="sans-serif" font-size="5.6" lengthAdjust="spacing" textLength="120.452" x="5.2" y="97.2852">-chooseFirstStation(fuelType: FuelType): Station</text><text fill="#000000" font-family="sans-serif" font-size="5.6" lengthAdjust="spacing" textLength="52.2813" x="5.2" y="104.7336">-chooseTrain(): Train</text></g><!--class CreateRouteController--><g id="elem_CreateRouteController"><rect codeLine="17" fill="#F1F1F1" height="138.375" id="CreateRouteController" rx="1" ry="1" style="stroke:#181818;stroke-width:0.20000000000000004;" width="263.1602" x="185.6" y="2.8"/><ellipse cx="287.4664" cy="9.2" fill="#ADD1B2" rx="4.4" ry="4.4" style="stroke:#181818;stroke-width:0.4000000000000001;"/><path d="M288.5727,7.55 Q288.6352,7.4625 288.7102,7.4188 Q288.7852,7.375 288.8727,7.375 Q289.0227,7.375 289.1164,7.4813 Q289.2102,7.5813 289.2102,7.825 L289.2102,8.4063 Q289.2102,8.65 289.1164,8.7563 Q289.0227,8.8625 288.8727,8.8625 Q288.7352,8.8625 288.6539,8.7813 Q288.5727,8.7063 288.5289,8.5 Q288.5102,8.3563 288.4352,8.2813 Q288.3039,8.1313 288.0602,8.0438 Q287.8164,7.9563 287.5664,7.9563 Q287.2602,7.9563 287.0039,8.0875 Q286.7539,8.2188 286.5539,8.5188 Q286.3602,8.8188 286.3602,9.2313 L286.3602,9.6688 Q286.3602,10.1625 286.7164,10.4938 Q287.0727,10.8188 287.7102,10.8188 Q288.0852,10.8188 288.3477,10.7188 Q288.5039,10.6563 288.6727,10.4813 Q288.7789,10.375 288.8352,10.3438 Q288.8977,10.3125 288.9789,10.3125 Q289.1102,10.3125 289.2102,10.4188 Q289.3164,10.5188 289.3164,10.6563 Q289.3164,10.7938 289.1789,10.9563 Q288.9789,11.1875 288.6602,11.3188 Q288.2289,11.5 287.7102,11.5 Q287.1039,11.5 286.6227,11.25 Q286.2289,11.05 285.9539,10.625 Q285.6789,10.1938 285.6789,9.6813 L285.6789,9.2188 Q285.6789,8.6875 285.9227,8.2313 Q286.1727,7.7688 286.6102,7.525 Q287.0477,7.275 287.5414,7.275 Q287.8352,7.275 288.0914,7.3438 Q288.3539,7.4063 288.5727,7.55 Z " fill="#000000"/><text fill="#000000" font-family="sans-serif" font-size="5.6" lengthAdjust="spacing" textLength="56.0273" x="295.6664" y="11.5188">CreateRouteController</text><line style="stroke:#181818;stroke-width:0.20000000000000004;" x1="186" x2="448.3602" y1="15.6" y2="15.6"/><text fill="#000000" font-family="sans-serif" font-size="5.6" lengthAdjust="spacing" textLength="56.3336" x="188" y="23.243">-simulation: Simulation</text><text fill="#000000" font-family="sans-serif" font-size="5.6" lengthAdjust="spacing" textLength="64.1238" x="188" y="30.6914">-actualScenario: Scenario</text><text fill="#000000" font-family="sans-serif" font-size="5.6" lengthAdjust="spacing" textLength="41.7074" x="188" y="38.1398">-actualMap: Map</text><line style="stroke:#181818;stroke-width:0.20000000000000004;" x1="186" x2="448.3602" y1="41.1453" y2="41.1453"/><text fill="#000000" font-family="sans-serif" font-size="5.6" lengthAdjust="spacing" textLength="182.8668" x="188" y="48.7883">+CreateRouteController(simulation: Simulation, actualScenario: Scenario)</text><text fill="#000000" font-family="sans-serif" font-size="5.6" lengthAdjust="spacing" textLength="76.7348" x="188" y="56.2367">+getStationList(): List&lt;Station&gt;</text><text fill="#000000" font-family="sans-serif" font-size="5.6" lengthAdjust="spacing" textLength="102.252" x="188" y="63.6852">+getRailwayLineList(): List&lt;RailwayLine&gt;</text><text fill="#000000" font-family="sans-serif" font-size="5.6" lengthAdjust="spacing" textLength="67.3832" x="188" y="71.1336">+getTrainList(): List&lt;Train&gt;</text><text fill="#000000" font-family="sans-serif" font-size="5.6" lengthAdjust="spacing" textLength="70.1887" x="188" y="78.582">+getSimulation(): Simulation</text><text fill="#000000" font-family="sans-serif" font-size="5.6" lengthAdjust="spacing" textLength="77.6645" x="188" y="86.0305">+getActualScenario(): Scenario</text><text fill="#000000" font-family="sans-serif" font-size="5.6" lengthAdjust="spacing" textLength="211.5176" x="188" y="93.4789">+getAvailableLinesToStation(station: Station, fuelType: FuelType): List&lt;RailwayLine&gt;</text><text fill="#000000" font-family="sans-serif" font-size="5.6" lengthAdjust="spacing" textLength="201.5617" x="188" y="100.9273">+availableStationConnections(station: Station, fuelType: FuelType): List&lt;Station&gt;</text><text fill="#000000" font-family="sans-serif" font-size="5.6" lengthAdjust="spacing" textLength="258.3602" x="188" y="108.3758">-verifyIfLinesPassesInStation(station: Station, fuelAvailableLines: List&lt;RailwayLine&gt;): List&lt;RailwayLine&gt;</text><text fill="#000000" font-family="sans-serif" font-size="5.6" lengthAdjust="spacing" textLength="243.4059" x="188" y="115.8242">-getRailwayLinesByFuelType(allLines: List&lt;RailwayLine&gt;, fuelType: FuelType): List&lt;RailwayLine&gt;</text><text fill="#000000" font-family="sans-serif" font-size="5.6" lengthAdjust="spacing" textLength="153.9207" x="188" y="123.2727">+verifyIfStationsHaveLines(fuelType: FuelType): List&lt;Station&gt;</text><text fill="#000000" font-family="sans-serif" font-size="5.6" lengthAdjust="spacing" textLength="179.766" x="188" y="130.7211">+createRoute(train: Train, route: List&lt;Station&gt;, generatingRate: int): void</text><text fill="#000000" font-family="sans-serif" font-size="5.6" lengthAdjust="spacing" textLength="191.2805" x="188" y="138.1695">+assignAutomaticRoute(stationPath: List&lt;Station&gt;, fuelType: FuelType): void</text></g><!--class Map--><g id="elem_Map"><rect codeLine="36" fill="#F1F1F1" height="41.5453" id="Map" rx="1" ry="1" style="stroke:#181818;stroke-width:0.20000000000000004;" width="101.1375" x="477.4" y="51.2"/><ellipse cx="520.8219" cy="57.6" fill="#ADD1B2" rx="4.4" ry="4.4" style="stroke:#181818;stroke-width:0.4000000000000001;"/><path d="M521.9281,55.95 Q521.9906,55.8625 522.0656,55.8188 Q522.1406,55.775 522.2281,55.775 Q522.3781,55.775 522.4719,55.8813 Q522.5656,55.9813 522.5656,56.225 L522.5656,56.8063 Q522.5656,57.05 522.4719,57.1563 Q522.3781,57.2625 522.2281,57.2625 Q522.0906,57.2625 522.0094,57.1813 Q521.9281,57.1063 521.8844,56.9 Q521.8656,56.7563 521.7906,56.6813 Q521.6594,56.5313 521.4156,56.4438 Q521.1719,56.3563 520.9219,56.3563 Q520.6156,56.3563 520.3594,56.4875 Q520.1094,56.6188 519.9094,56.9188 Q519.7156,57.2188 519.7156,57.6313 L519.7156,58.0688 Q519.7156,58.5625 520.0719,58.8938 Q520.4281,59.2188 521.0656,59.2188 Q521.4406,59.2188 521.7031,59.1188 Q521.8594,59.0563 522.0281,58.8813 Q522.1344,58.775 522.1906,58.7438 Q522.2531,58.7125 522.3344,58.7125 Q522.4656,58.7125 522.5656,58.8188 Q522.6719,58.9188 522.6719,59.0563 Q522.6719,59.1938 522.5344,59.3563 Q522.3344,59.5875 522.0156,59.7188 Q521.5844,59.9 521.0656,59.9 Q520.4594,59.9 519.9781,59.65 Q519.5844,59.45 519.3094,59.025 Q519.0344,58.5938 519.0344,58.0813 L519.0344,57.6188 Q519.0344,57.0875 519.2781,56.6313 Q519.5281,56.1688 519.9656,55.925 Q520.4031,55.675 520.8969,55.675 Q521.1906,55.675 521.4469,55.7438 Q521.7094,55.8063 521.9281,55.95 Z " fill="#000000"/><text fill="#000000" font-family="sans-serif" font-size="5.6" lengthAdjust="spacing" textLength="10.8938" x="529.0219" y="59.9188">Map</text><line style="stroke:#181818;stroke-width:0.20000000000000004;" x1="477.8" x2="578.1375" y1="64" y2="64"/><line style="stroke:#181818;stroke-width:0.20000000000000004;" x1="477.8" x2="578.1375" y1="67.2" y2="67.2"/><text fill="#000000" font-family="sans-serif" font-size="5.6" lengthAdjust="spacing" textLength="76.7348" x="479.8" y="74.843">+getStationList(): List&lt;Station&gt;</text><text fill="#000000" font-family="sans-serif" font-size="5.6" lengthAdjust="spacing" textLength="96.3375" x="479.8" y="82.2914">+getRailwayLines(): List&lt;RailwayLine&gt;</text><text fill="#000000" font-family="sans-serif" font-size="5.6" lengthAdjust="spacing" textLength="8.3973" x="479.8" y="89.7398">...()</text></g><!--class StationRepository--><g id="elem_StationRepository"><rect codeLine="42" fill="#F1F1F1" height="41.5453" id="StationRepository" rx="1" ry="1" style="stroke:#181818;stroke-width:0.20000000000000004;" width="75.6203" x="597.4" y="248.8"/><ellipse cx="611.7786" cy="255.2" fill="#ADD1B2" rx="4.4" ry="4.4" style="stroke:#181818;stroke-width:0.4000000000000001;"/><path d="M612.8849,253.55 Q612.9474,253.4625 613.0224,253.4188 Q613.0974,253.375 613.1849,253.375 Q613.3349,253.375 613.4286,253.4813 Q613.5224,253.5813 613.5224,253.825 L613.5224,254.4063 Q613.5224,254.65 613.4286,254.7563 Q613.3349,254.8625 613.1849,254.8625 Q613.0474,254.8625 612.9661,254.7813 Q612.8849,254.7063 612.8411,254.5 Q612.8224,254.3563 612.7474,254.2813 Q612.6161,254.1313 612.3724,254.0438 Q612.1286,253.9563 611.8786,253.9563 Q611.5724,253.9563 611.3161,254.0875 Q611.0661,254.2188 610.8661,254.5188 Q610.6724,254.8188 610.6724,255.2313 L610.6724,255.6688 Q610.6724,256.1625 611.0286,256.4938 Q611.3849,256.8188 612.0224,256.8188 Q612.3974,256.8188 612.6599,256.7188 Q612.8161,256.6563 612.9849,256.4813 Q613.0911,256.375 613.1474,256.3438 Q613.2099,256.3125 613.2911,256.3125 Q613.4224,256.3125 613.5224,256.4188 Q613.6286,256.5188 613.6286,256.6563 Q613.6286,256.7938 613.4911,256.9563 Q613.2911,257.1875 612.9724,257.3188 Q612.5411,257.5 612.0224,257.5 Q611.4161,257.5 610.9349,257.25 Q610.5411,257.05 610.2661,256.625 Q609.9911,256.1938 609.9911,255.6813 L609.9911,255.2188 Q609.9911,254.6875 610.2349,254.2313 Q610.4849,253.7688 610.9224,253.525 Q611.3599,253.275 611.8536,253.275 Q612.1474,253.275 612.4036,253.3438 Q612.6661,253.4063 612.8849,253.55 Z " fill="#000000"/><text fill="#000000" font-family="sans-serif" font-size="5.6" lengthAdjust="spacing" textLength="44.2012" x="619.2405" y="257.5188">StationRepository</text><line style="stroke:#181818;stroke-width:0.20000000000000004;" x1="597.8" x2="672.6203" y1="261.6" y2="261.6"/><text fill="#000000" font-family="sans-serif" font-size="5.6" lengthAdjust="spacing" textLength="56.9652" x="599.8" y="269.243">-stations: List&lt;Station&gt;</text><line style="stroke:#181818;stroke-width:0.20000000000000004;" x1="597.8" x2="672.6203" y1="272.2484" y2="272.2484"/><text fill="#000000" font-family="sans-serif" font-size="5.6" lengthAdjust="spacing" textLength="70.8203" x="599.8" y="279.8914">+getStations(): List&lt;Station&gt;</text><text fill="#000000" font-family="sans-serif" font-size="5.6" lengthAdjust="spacing" textLength="8.3973" x="599.8" y="287.3398">...()</text></g><!--class RailwayLineRepository--><g id="elem_RailwayLineRepository"><rect codeLine="48" fill="#F1F1F1" height="41.5453" id="RailwayLineRepository" rx="1" ry="1" style="stroke:#181818;stroke-width:0.20000000000000004;" width="107.3609" x="488.8" y="180.4"/><ellipse cx="512.3006" cy="186.8" fill="#ADD1B2" rx="4.4" ry="4.4" style="stroke:#181818;stroke-width:0.4000000000000001;"/><path d="M513.4068,185.15 Q513.4693,185.0625 513.5443,185.0188 Q513.6193,184.975 513.7068,184.975 Q513.8568,184.975 513.9506,185.0813 Q514.0443,185.1813 514.0443,185.425 L514.0443,186.0063 Q514.0443,186.25 513.9506,186.3563 Q513.8568,186.4625 513.7068,186.4625 Q513.5693,186.4625 513.4881,186.3813 Q513.4068,186.3063 513.3631,186.1 Q513.3443,185.9563 513.2693,185.8813 Q513.1381,185.7313 512.8943,185.6438 Q512.6506,185.5563 512.4006,185.5563 Q512.0943,185.5563 511.8381,185.6875 Q511.5881,185.8188 511.3881,186.1188 Q511.1943,186.4188 511.1943,186.8313 L511.1943,187.2688 Q511.1943,187.7625 511.5506,188.0938 Q511.9068,188.4188 512.5443,188.4188 Q512.9193,188.4188 513.1818,188.3188 Q513.3381,188.2563 513.5068,188.0813 Q513.6131,187.975 513.6693,187.9438 Q513.7318,187.9125 513.8131,187.9125 Q513.9443,187.9125 514.0443,188.0188 Q514.1506,188.1188 514.1506,188.2563 Q514.1506,188.3938 514.0131,188.5563 Q513.8131,188.7875 513.4943,188.9188 Q513.0631,189.1 512.5443,189.1 Q511.9381,189.1 511.4568,188.85 Q511.0631,188.65 510.7881,188.225 Q510.5131,187.7938 510.5131,187.2813 L510.5131,186.8188 Q510.5131,186.2875 510.7568,185.8313 Q511.0068,185.3688 511.4443,185.125 Q511.8818,184.875 512.3756,184.875 Q512.6693,184.875 512.9256,184.9438 Q513.1881,185.0063 513.4068,185.15 Z " fill="#000000"/><text fill="#000000" font-family="sans-serif" font-size="5.6" lengthAdjust="spacing" textLength="56.9598" x="520.5006" y="189.1188">RailwayLineRepository</text><line style="stroke:#181818;stroke-width:0.20000000000000004;" x1="489.2" x2="595.7609" y1="193.2" y2="193.2"/><text fill="#000000" font-family="sans-serif" font-size="5.6" lengthAdjust="spacing" textLength="81.2383" x="491.2" y="200.843">-railwayLines: List&lt;RailwayLine&gt;</text><line style="stroke:#181818;stroke-width:0.20000000000000004;" x1="489.2" x2="595.7609" y1="203.8484" y2="203.8484"/><text fill="#000000" font-family="sans-serif" font-size="5.6" lengthAdjust="spacing" textLength="102.5609" x="491.2" y="211.4914">+getAllRailwayLines(): List&lt;RailwayLine&gt;</text><text fill="#000000" font-family="sans-serif" font-size="5.6" lengthAdjust="spacing" textLength="8.3973" x="491.2" y="218.9398">...()</text></g><!--class Scenario--><g id="elem_Scenario"><rect codeLine="54" fill="#F1F1F1" height="48.9938" id="Scenario" rx="1" ry="1" style="stroke:#181818;stroke-width:0.20000000000000004;" width="72.1832" x="281.2" y="176.8"/><ellipse cx="304.5406" cy="183.2" fill="#ADD1B2" rx="4.4" ry="4.4" style="stroke:#181818;stroke-width:0.4000000000000001;"/><path d="M305.6469,181.55 Q305.7094,181.4625 305.7844,181.4188 Q305.8594,181.375 305.9469,181.375 Q306.0969,181.375 306.1906,181.4813 Q306.2844,181.5813 306.2844,181.825 L306.2844,182.4063 Q306.2844,182.65 306.1906,182.7563 Q306.0969,182.8625 305.9469,182.8625 Q305.8094,182.8625 305.7281,182.7813 Q305.6469,182.7063 305.6031,182.5 Q305.5844,182.3563 305.5094,182.2813 Q305.3781,182.1313 305.1344,182.0438 Q304.8906,181.9563 304.6406,181.9563 Q304.3344,181.9563 304.0781,182.0875 Q303.8281,182.2188 303.6281,182.5188 Q303.4344,182.8188 303.4344,183.2313 L303.4344,183.6688 Q303.4344,184.1625 303.7906,184.4938 Q304.1469,184.8188 304.7844,184.8188 Q305.1594,184.8188 305.4219,184.7188 Q305.5781,184.6563 305.7469,184.4813 Q305.8531,184.375 305.9094,184.3438 Q305.9719,184.3125 306.0531,184.3125 Q306.1844,184.3125 306.2844,184.4188 Q306.3906,184.5188 306.3906,184.6563 Q306.3906,184.7938 306.2531,184.9563 Q306.0531,185.1875 305.7344,185.3188 Q305.3031,185.5 304.7844,185.5 Q304.1781,185.5 303.6969,185.25 Q303.3031,185.05 303.0281,184.625 Q302.7531,184.1938 302.7531,183.6813 L302.7531,183.2188 Q302.7531,182.6875 302.9969,182.2313 Q303.2469,181.7688 303.6844,181.525 Q304.1219,181.275 304.6156,181.275 Q304.9094,181.275 305.1656,181.3438 Q305.4281,181.4063 305.6469,181.55 Z " fill="#000000"/><text fill="#000000" font-family="sans-serif" font-size="5.6" lengthAdjust="spacing" textLength="22.102" x="312.7406" y="185.5188">Scenario</text><line style="stroke:#181818;stroke-width:0.20000000000000004;" x1="281.6" x2="352.9832" y1="189.6" y2="189.6"/><text fill="#000000" font-family="sans-serif" font-size="5.6" lengthAdjust="spacing" textLength="52.5984" x="283.6" y="197.243">-trainList: List&lt;Train&gt;</text><line style="stroke:#181818;stroke-width:0.20000000000000004;" x1="281.6" x2="352.9832" y1="200.2484" y2="200.2484"/><text fill="#000000" font-family="sans-serif" font-size="5.6" lengthAdjust="spacing" textLength="67.3832" x="283.6" y="207.8914">+getTrainList(): List&lt;Train&gt;</text><text fill="#000000" font-family="sans-serif" font-size="5.6" lengthAdjust="spacing" textLength="39.684" x="283.6" y="215.3398">+getMap(): Map</text><text fill="#000000" font-family="sans-serif" font-size="5.6" lengthAdjust="spacing" textLength="8.3973" x="283.6" y="222.7883">...()</text></g><!--class Simulation--><g id="elem_Simulation"><rect codeLine="61" fill="#F1F1F1" height="71.3391" id="Simulation" rx="1" ry="1" style="stroke:#181818;stroke-width:0.20000000000000004;" width="80.2906" x="367.4" y="165.6"/><ellipse cx="392.7723" cy="172" fill="#ADD1B2" rx="4.4" ry="4.4" style="stroke:#181818;stroke-width:0.4000000000000001;"/><path d="M393.8785,170.35 Q393.941,170.2625 394.016,170.2188 Q394.091,170.175 394.1785,170.175 Q394.3285,170.175 394.4223,170.2813 Q394.516,170.3813 394.516,170.625 L394.516,171.2063 Q394.516,171.45 394.4223,171.5563 Q394.3285,171.6625 394.1785,171.6625 Q394.041,171.6625 393.9598,171.5813 Q393.8785,171.5063 393.8348,171.3 Q393.816,171.1563 393.741,171.0813 Q393.6098,170.9313 393.366,170.8438 Q393.1223,170.7563 392.8723,170.7563 Q392.566,170.7563 392.3098,170.8875 Q392.0598,171.0188 391.8598,171.3188 Q391.666,171.6188 391.666,172.0313 L391.666,172.4688 Q391.666,172.9625 392.0223,173.2938 Q392.3785,173.6188 393.016,173.6188 Q393.391,173.6188 393.6535,173.5188 Q393.8098,173.4563 393.9785,173.2813 Q394.0848,173.175 394.141,173.1438 Q394.2035,173.1125 394.2848,173.1125 Q394.416,173.1125 394.516,173.2188 Q394.6223,173.3188 394.6223,173.4563 Q394.6223,173.5938 394.4848,173.7563 Q394.2848,173.9875 393.966,174.1188 Q393.5348,174.3 393.016,174.3 Q392.4098,174.3 391.9285,174.05 Q391.5348,173.85 391.2598,173.425 Q390.9848,172.9938 390.9848,172.4813 L390.9848,172.0188 Q390.9848,171.4875 391.2285,171.0313 Q391.4785,170.5688 391.916,170.325 Q392.3535,170.075 392.8473,170.075 Q393.141,170.075 393.3973,170.1438 Q393.6598,170.2063 393.8785,170.35 Z " fill="#000000"/><text fill="#000000" font-family="sans-serif" font-size="5.6" lengthAdjust="spacing" textLength="26.1461" x="400.9723" y="174.3188">Simulation</text><line style="stroke:#181818;stroke-width:0.20000000000000004;" x1="367.8" x2="447.2906" y1="178.4" y2="178.4"/><text fill="#000000" font-family="sans-serif" font-size="5.6" lengthAdjust="spacing" textLength="40.7641" x="369.8" y="186.043">-currentTime: int</text><text fill="#000000" font-family="sans-serif" font-size="5.6" lengthAdjust="spacing" textLength="50.7391" x="369.8" y="193.4914">-routes: List&lt;Route&gt;</text><text fill="#000000" font-family="sans-serif" font-size="5.6" lengthAdjust="spacing" textLength="52.5984" x="369.8" y="200.9398">-trainList: List&lt;Train&gt;</text><line style="stroke:#181818;stroke-width:0.20000000000000004;" x1="367.8" x2="447.2906" y1="203.9453" y2="203.9453"/><text fill="#000000" font-family="sans-serif" font-size="5.6" lengthAdjust="spacing" textLength="54.9281" x="369.8" y="211.5883">+getCurrentTime(): int</text><text fill="#000000" font-family="sans-serif" font-size="5.6" lengthAdjust="spacing" textLength="75.4906" x="369.8" y="219.0367">+addRoute(route: Route): void</text><text fill="#000000" font-family="sans-serif" font-size="5.6" lengthAdjust="spacing" textLength="67.3832" x="369.8" y="226.4852">+getTrainList(): List&lt;Train&gt;</text><text fill="#000000" font-family="sans-serif" font-size="5.6" lengthAdjust="spacing" textLength="8.3973" x="369.8" y="233.9336">...()</text></g><!--class Route--><g id="elem_Route"><rect codeLine="71" fill="#F1F1F1" height="86.2359" id="Route" rx="1" ry="1" style="stroke:#181818;stroke-width:0.20000000000000004;" width="197.6254" x="300" y="343.2"/><ellipse cx="389.641" cy="349.6" fill="#ADD1B2" rx="4.4" ry="4.4" style="stroke:#181818;stroke-width:0.4000000000000001;"/><path d="M390.7473,347.95 Q390.8098,347.8625 390.8848,347.8188 Q390.9598,347.775 391.0473,347.775 Q391.1973,347.775 391.291,347.8813 Q391.3848,347.9813 391.3848,348.225 L391.3848,348.8063 Q391.3848,349.05 391.291,349.1563 Q391.1973,349.2625 391.0473,349.2625 Q390.9098,349.2625 390.8285,349.1813 Q390.7473,349.1063 390.7035,348.9 Q390.6848,348.7563 390.6098,348.6813 Q390.4785,348.5313 390.2348,348.4438 Q389.991,348.3563 389.741,348.3563 Q389.4348,348.3563 389.1785,348.4875 Q388.9285,348.6188 388.7285,348.9188 Q388.5348,349.2188 388.5348,349.6313 L388.5348,350.0688 Q388.5348,350.5625 388.891,350.8938 Q389.2473,351.2188 389.8848,351.2188 Q390.2598,351.2188 390.5223,351.1188 Q390.6785,351.0563 390.8473,350.8813 Q390.9535,350.775 391.0098,350.7438 Q391.0723,350.7125 391.1535,350.7125 Q391.2848,350.7125 391.3848,350.8188 Q391.491,350.9188 391.491,351.0563 Q391.491,351.1938 391.3535,351.3563 Q391.1535,351.5875 390.8348,351.7188 Q390.4035,351.9 389.8848,351.9 Q389.2785,351.9 388.7973,351.65 Q388.4035,351.45 388.1285,351.025 Q387.8535,350.5938 387.8535,350.0813 L387.8535,349.6188 Q387.8535,349.0875 388.0973,348.6313 Q388.3473,348.1688 388.7848,347.925 Q389.2223,347.675 389.716,347.675 Q390.0098,347.675 390.266,347.7438 Q390.5285,347.8063 390.7473,347.95 Z " fill="#000000"/><text fill="#000000" font-family="sans-serif" font-size="5.6" lengthAdjust="spacing" textLength="14.9434" x="397.841" y="351.9188">Route</text><line style="stroke:#181818;stroke-width:0.20000000000000004;" x1="300.4" x2="497.2254" y1="356" y2="356"/><text fill="#000000" font-family="sans-serif" font-size="5.6" lengthAdjust="spacing" textLength="28.6289" x="302.4" y="363.643">-train: Train</text><text fill="#000000" font-family="sans-serif" font-size="5.6" lengthAdjust="spacing" textLength="56.9652" x="302.4" y="371.0914">-stations: List&lt;Station&gt;</text><text fill="#000000" font-family="sans-serif" font-size="5.6" lengthAdjust="spacing" textLength="117.3566" x="302.4" y="378.5398">-cargoesByStation: Map&lt;Station, List&lt;Cargo&gt;&gt;</text><text fill="#000000" font-family="sans-serif" font-size="5.6" lengthAdjust="spacing" textLength="49.1859" x="302.4" y="385.9883">-generatingRate: int</text><line style="stroke:#181818;stroke-width:0.20000000000000004;" x1="300.4" x2="497.2254" y1="388.9938" y2="388.9938"/><text fill="#000000" font-family="sans-serif" font-size="5.6" lengthAdjust="spacing" textLength="192.8254" x="302.4" y="396.6367">+Route(train: Train, stations: List&lt;Station&gt;, startTime: int, generatingRate: int)</text><text fill="#000000" font-family="sans-serif" font-size="5.6" lengthAdjust="spacing" textLength="43.4137" x="302.4" y="404.0852">+getTrain(): Train</text><text fill="#000000" font-family="sans-serif" font-size="5.6" lengthAdjust="spacing" textLength="70.8203" x="302.4" y="411.5336">+getStations(): List&lt;Station&gt;</text><text fill="#000000" font-family="sans-serif" font-size="5.6" lengthAdjust="spacing" textLength="131.5207" x="302.4" y="418.982">+getCargoesByStation(): Map&lt;Station, List&lt;Cargo&gt;&gt;</text><text fill="#000000" font-family="sans-serif" font-size="5.6" lengthAdjust="spacing" textLength="63.3473" x="302.4" y="426.4305">+getGeneratingRate(): int</text></g><!--class Train--><g id="elem_Train"><rect codeLine="83" fill="#F1F1F1" height="41.5453" id="Train" rx="1" ry="1" style="stroke:#181818;stroke-width:0.20000000000000004;" width="79.9707" x="292.4" y="502"/><ellipse cx="324.3061" cy="508.4" fill="#ADD1B2" rx="4.4" ry="4.4" style="stroke:#181818;stroke-width:0.4000000000000001;"/><path d="M325.4123,506.75 Q325.4748,506.6625 325.5498,506.6188 Q325.6248,506.575 325.7123,506.575 Q325.8623,506.575 325.9561,506.6813 Q326.0498,506.7813 326.0498,507.025 L326.0498,507.6063 Q326.0498,507.85 325.9561,507.9563 Q325.8623,508.0625 325.7123,508.0625 Q325.5748,508.0625 325.4936,507.9813 Q325.4123,507.9063 325.3686,507.7 Q325.3498,507.5563 325.2748,507.4813 Q325.1436,507.3313 324.8998,507.2438 Q324.6561,507.1563 324.4061,507.1563 Q324.0998,507.1563 323.8436,507.2875 Q323.5936,507.4188 323.3936,507.7188 Q323.1998,508.0188 323.1998,508.4313 L323.1998,508.8688 Q323.1998,509.3625 323.5561,509.6938 Q323.9123,510.0188 324.5498,510.0188 Q324.9248,510.0188 325.1873,509.9188 Q325.3436,509.8563 325.5123,509.6813 Q325.6186,509.575 325.6748,509.5438 Q325.7373,509.5125 325.8186,509.5125 Q325.9498,509.5125 326.0498,509.6188 Q326.1561,509.7188 326.1561,509.8563 Q326.1561,509.9938 326.0186,510.1563 Q325.8186,510.3875 325.4998,510.5188 Q325.0686,510.7 324.5498,510.7 Q323.9436,510.7 323.4623,510.45 Q323.0686,510.25 322.7936,509.825 Q322.5186,509.3938 322.5186,508.8813 L322.5186,508.4188 Q322.5186,507.8875 322.7623,507.4313 Q323.0123,506.9688 323.4498,506.725 Q323.8873,506.475 324.3811,506.475 Q324.6748,506.475 324.9311,506.5438 Q325.1936,506.6063 325.4123,506.75 Z " fill="#000000"/><text fill="#000000" font-family="sans-serif" font-size="5.6" lengthAdjust="spacing" textLength="12.7586" x="332.5061" y="510.7188">Train</text><line style="stroke:#181818;stroke-width:0.20000000000000004;" x1="292.8" x2="371.9707" y1="514.8" y2="514.8"/><line style="stroke:#181818;stroke-width:0.20000000000000004;" x1="292.8" x2="371.9707" y1="518" y2="518"/><text fill="#000000" font-family="sans-serif" font-size="5.6" lengthAdjust="spacing" textLength="47.4633" x="294.8" y="525.643">+getName(): String</text><text fill="#000000" font-family="sans-serif" font-size="5.6" lengthAdjust="spacing" textLength="75.1707" x="294.8" y="533.0914">+getLocomotive(): Locomotive</text><text fill="#000000" font-family="sans-serif" font-size="5.6" lengthAdjust="spacing" textLength="8.3973" x="294.8" y="540.5398">...()</text></g><!--class Station--><g id="elem_Station"><rect codeLine="89" fill="#F1F1F1" height="34.0969" id="Station" rx="1" ry="1" style="stroke:#181818;stroke-width:0.20000000000000004;" width="52.2633" x="534.2" y="505.8"/><ellipse cx="550.113" cy="512.2" fill="#ADD1B2" rx="4.4" ry="4.4" style="stroke:#181818;stroke-width:0.4000000000000001;"/><path d="M551.2193,510.55 Q551.2818,510.4625 551.3568,510.4188 Q551.4318,510.375 551.5193,510.375 Q551.6693,510.375 551.763,510.4813 Q551.8568,510.5813 551.8568,510.825 L551.8568,511.4063 Q551.8568,511.65 551.763,511.7563 Q551.6693,511.8625 551.5193,511.8625 Q551.3818,511.8625 551.3005,511.7813 Q551.2193,511.7063 551.1755,511.5 Q551.1568,511.3563 551.0818,511.2813 Q550.9505,511.1313 550.7068,511.0438 Q550.463,510.9563 550.213,510.9563 Q549.9068,510.9563 549.6505,511.0875 Q549.4005,511.2188 549.2005,511.5188 Q549.0068,511.8188 549.0068,512.2313 L549.0068,512.6688 Q549.0068,513.1625 549.363,513.4938 Q549.7193,513.8188 550.3568,513.8188 Q550.7318,513.8188 550.9943,513.7188 Q551.1505,513.6563 551.3193,513.4813 Q551.4255,513.375 551.4818,513.3438 Q551.5443,513.3125 551.6255,513.3125 Q551.7568,513.3125 551.8568,513.4188 Q551.963,513.5188 551.963,513.6563 Q551.963,513.7938 551.8255,513.9563 Q551.6255,514.1875 551.3068,514.3188 Q550.8755,514.5 550.3568,514.5 Q549.7505,514.5 549.2693,514.25 Q548.8755,514.05 548.6005,513.625 Q548.3255,513.1938 548.3255,512.6813 L548.3255,512.2188 Q548.3255,511.6875 548.5693,511.2313 Q548.8193,510.7688 549.2568,510.525 Q549.6943,510.275 550.188,510.275 Q550.4818,510.275 550.738,510.3438 Q551.0005,510.4063 551.2193,510.55 Z " fill="#000000"/><text fill="#000000" font-family="sans-serif" font-size="5.6" lengthAdjust="spacing" textLength="17.4344" x="557.9159" y="514.5188">Station</text><line style="stroke:#181818;stroke-width:0.20000000000000004;" x1="534.6" x2="586.0633" y1="518.6" y2="518.6"/><line style="stroke:#181818;stroke-width:0.20000000000000004;" x1="534.6" x2="586.0633" y1="521.8" y2="521.8"/><text fill="#000000" font-family="sans-serif" font-size="5.6" lengthAdjust="spacing" textLength="47.4633" x="536.6" y="529.443">+getName(): String</text><text fill="#000000" font-family="sans-serif" font-size="5.6" lengthAdjust="spacing" textLength="8.3973" x="536.6" y="536.8914">...()</text></g><!--class Locomotive--><g id="elem_Locomotive"><rect codeLine="94" fill="#F1F1F1" height="41.5453" id="Locomotive" rx="1" ry="1" style="stroke:#181818;stroke-width:0.20000000000000004;" width="69.3832" x="297.8" y="575.2"/><ellipse cx="316.473" cy="581.6" fill="#ADD1B2" rx="4.4" ry="4.4" style="stroke:#181818;stroke-width:0.4000000000000001;"/><path d="M317.5793,579.95 Q317.6418,579.8625 317.7168,579.8188 Q317.7918,579.775 317.8793,579.775 Q318.0293,579.775 318.123,579.8813 Q318.2168,579.9813 318.2168,580.225 L318.2168,580.8063 Q318.2168,581.05 318.123,581.1563 Q318.0293,581.2625 317.8793,581.2625 Q317.7418,581.2625 317.6605,581.1813 Q317.5793,581.1063 317.5355,580.9 Q317.5168,580.7563 317.4418,580.6813 Q317.3105,580.5313 317.0668,580.4438 Q316.823,580.3563 316.573,580.3563 Q316.2668,580.3563 316.0105,580.4875 Q315.7605,580.6188 315.5605,580.9188 Q315.3668,581.2188 315.3668,581.6313 L315.3668,582.0688 Q315.3668,582.5625 315.723,582.8938 Q316.0793,583.2188 316.7168,583.2188 Q317.0918,583.2188 317.3543,583.1188 Q317.5105,583.0563 317.6793,582.8813 Q317.7855,582.775 317.8418,582.7438 Q317.9043,582.7125 317.9855,582.7125 Q318.1168,582.7125 318.2168,582.8188 Q318.323,582.9188 318.323,583.0563 Q318.323,583.1938 318.1855,583.3563 Q317.9855,583.5875 317.6668,583.7188 Q317.2355,583.9 316.7168,583.9 Q316.1105,583.9 315.6293,583.65 Q315.2355,583.45 314.9605,583.025 Q314.6855,582.5938 314.6855,582.0813 L314.6855,581.6188 Q314.6855,581.0875 314.9293,580.6313 Q315.1793,580.1688 315.6168,579.925 Q316.0543,579.675 316.548,579.675 Q316.8418,579.675 317.098,579.7438 Q317.3605,579.8063 317.5793,579.95 Z " fill="#000000"/><text fill="#000000" font-family="sans-serif" font-size="5.6" lengthAdjust="spacing" textLength="28.6371" x="324.673" y="583.9188">Locomotive</text><line style="stroke:#181818;stroke-width:0.20000000000000004;" x1="298.2" x2="366.7832" y1="588" y2="588"/><line style="stroke:#181818;stroke-width:0.20000000000000004;" x1="298.2" x2="366.7832" y1="591.2" y2="591.2"/><text fill="#000000" font-family="sans-serif" font-size="5.6" lengthAdjust="spacing" textLength="47.4633" x="300.2" y="598.843">+getName(): String</text><text fill="#000000" font-family="sans-serif" font-size="5.6" lengthAdjust="spacing" textLength="64.5832" x="300.2" y="606.2914">+getFuelType(): FuelType</text><text fill="#000000" font-family="sans-serif" font-size="5.6" lengthAdjust="spacing" textLength="8.3973" x="300.2" y="613.7398">...()</text></g><!--class FuelType--><g id="elem_FuelType"><rect codeLine="100" fill="#F1F1F1" height="41.5453" id="FuelType" rx="1" ry="1" style="stroke:#181818;stroke-width:0.20000000000000004;" width="41.2055" x="225.8" y="180.4"/><ellipse cx="234.0779" cy="186.8" fill="#EB937F" rx="4.4" ry="4.4" style="stroke:#181818;stroke-width:0.4000000000000001;"/><path d="M233.6217,187.1188 L233.6217,188.1188 L235.3529,188.1188 L235.3529,187.75 Q235.3529,187.5063 235.4467,187.4 Q235.5467,187.2938 235.6967,187.2938 Q235.8467,187.2938 235.9404,187.4 Q236.0342,187.5063 236.0342,187.75 L236.0342,188.8 L232.8342,188.8 Q232.5842,188.8 232.4779,188.7063 Q232.3779,188.6125 232.3779,188.4563 Q232.3779,188.3063 232.4842,188.2125 Q232.5904,188.1188 232.8342,188.1188 L232.9404,188.1188 L232.9404,185.4563 L232.8342,185.4563 Q232.5842,185.4563 232.4779,185.3625 Q232.3779,185.2688 232.3779,185.1125 Q232.3779,184.9625 232.4779,184.8688 Q232.5842,184.775 232.8342,184.775 L235.8842,184.775 L235.8842,185.8125 Q235.8842,186.0563 235.7904,186.1625 Q235.7029,186.2625 235.5467,186.2625 Q235.3967,186.2625 235.3029,186.1625 Q235.2092,186.0563 235.2092,185.8125 L235.2092,185.4563 L233.6217,185.4563 L233.6217,186.4375 L234.2154,186.4375 Q234.2154,186.175 234.2654,186.1 Q234.3717,185.9375 234.5592,185.9375 Q234.7092,185.9375 234.8029,186.0438 Q234.8967,186.1438 234.8967,186.3875 L234.8967,187.175 Q234.8967,187.3938 234.8467,187.4688 Q234.7404,187.625 234.5592,187.625 Q234.3717,187.625 234.2654,187.4625 Q234.2154,187.3875 234.2154,187.1188 L233.6217,187.1188 Z " fill="#000000"/><text fill="#000000" font-family="sans-serif" font-size="5.6" lengthAdjust="spacing" textLength="23.3434" x="240.1842" y="189.1188">FuelType</text><line style="stroke:#181818;stroke-width:0.20000000000000004;" x1="226.2" x2="266.6055" y1="193.2" y2="193.2"/><text fill="#000000" font-family="sans-serif" font-size="5.6" lengthAdjust="spacing" textLength="19.291" x="228.2" y="200.843">STEAM</text><text fill="#000000" font-family="sans-serif" font-size="5.6" lengthAdjust="spacing" textLength="19.9199" x="228.2" y="208.2914">DIESEL</text><text fill="#000000" font-family="sans-serif" font-size="5.6" lengthAdjust="spacing" textLength="36.4055" x="228.2" y="215.7398">ELECTRICITY</text><line style="stroke:#181818;stroke-width:0.20000000000000004;" x1="226.2" x2="266.6055" y1="218.7453" y2="218.7453"/></g><!--class RailwayLineType--><g id="elem_RailwayLineType"><rect codeLine="106" fill="#F1F1F1" height="48.9938" id="RailwayLineType" rx="1" ry="1" style="stroke:#181818;stroke-width:0.20000000000000004;" width="82.9074" x="129" y="176.8"/><ellipse cx="147.4324" cy="183.2" fill="#EB937F" rx="4.4" ry="4.4" style="stroke:#181818;stroke-width:0.4000000000000001;"/><path d="M146.9762,183.5188 L146.9762,184.5188 L148.7074,184.5188 L148.7074,184.15 Q148.7074,183.9063 148.8012,183.8 Q148.9012,183.6938 149.0512,183.6938 Q149.2012,183.6938 149.2949,183.8 Q149.3887,183.9063 149.3887,184.15 L149.3887,185.2 L146.1887,185.2 Q145.9387,185.2 145.8324,185.1063 Q145.7324,185.0125 145.7324,184.8563 Q145.7324,184.7063 145.8387,184.6125 Q145.9449,184.5188 146.1887,184.5188 L146.2949,184.5188 L146.2949,181.8563 L146.1887,181.8563 Q145.9387,181.8563 145.8324,181.7625 Q145.7324,181.6688 145.7324,181.5125 Q145.7324,181.3625 145.8324,181.2688 Q145.9387,181.175 146.1887,181.175 L149.2387,181.175 L149.2387,182.2125 Q149.2387,182.4563 149.1449,182.5625 Q149.0574,182.6625 148.9012,182.6625 Q148.7512,182.6625 148.6574,182.5625 Q148.5637,182.4563 148.5637,182.2125 L148.5637,181.8563 L146.9762,181.8563 L146.9762,182.8375 L147.5699,182.8375 Q147.5699,182.575 147.6199,182.5 Q147.7262,182.3375 147.9137,182.3375 Q148.0637,182.3375 148.1574,182.4438 Q148.2512,182.5438 148.2512,182.7875 L148.2512,183.575 Q148.2512,183.7938 148.2012,183.8688 Q148.0949,184.025 147.9137,184.025 Q147.7262,184.025 147.6199,183.8625 Q147.5699,183.7875 147.5699,183.5188 L146.9762,183.5188 Z " fill="#000000"/><text fill="#000000" font-family="sans-serif" font-size="5.6" lengthAdjust="spacing" textLength="42.6426" x="155.6324" y="185.5188">RailwayLineType</text><line style="stroke:#181818;stroke-width:0.20000000000000004;" x1="129.4" x2="211.5074" y1="189.6" y2="189.6"/><text fill="#000000" font-family="sans-serif" font-size="5.6" lengthAdjust="spacing" textLength="60.0605" x="131.4" y="197.243">SINGLE_ELECTRIFIED</text><text fill="#000000" font-family="sans-serif" font-size="5.6" lengthAdjust="spacing" textLength="62.5488" x="131.4" y="204.6914">DOUBLE_ELECTRIFIED</text><text fill="#000000" font-family="sans-serif" font-size="5.6" lengthAdjust="spacing" textLength="75.6191" x="131.4" y="212.1398">SINGLE_NON_ELECTRIFIED</text><text fill="#000000" font-family="sans-serif" font-size="5.6" lengthAdjust="spacing" textLength="78.1074" x="131.4" y="219.5883">DOUBLE_NON_ELECTRIFIED</text><line style="stroke:#181818;stroke-width:0.20000000000000004;" x1="129.4" x2="211.5074" y1="222.5938" y2="222.5938"/></g><!--class RailwayLine--><g id="elem_RailwayLine"><rect codeLine="113" fill="#F1F1F1" height="56.4422" id="RailwayLine" rx="1" ry="1" style="stroke:#181818;stroke-width:0.20000000000000004;" width="97.3941" x="511.8" y="358.2"/><ellipse cx="543.7006" cy="364.6" fill="#ADD1B2" rx="4.4" ry="4.4" style="stroke:#181818;stroke-width:0.4000000000000001;"/><path d="M544.8068,362.95 Q544.8693,362.8625 544.9443,362.8188 Q545.0193,362.775 545.1068,362.775 Q545.2568,362.775 545.3506,362.8813 Q545.4443,362.9813 545.4443,363.225 L545.4443,363.8063 Q545.4443,364.05 545.3506,364.1563 Q545.2568,364.2625 545.1068,364.2625 Q544.9693,364.2625 544.8881,364.1813 Q544.8068,364.1063 544.7631,363.9 Q544.7443,363.7563 544.6693,363.6813 Q544.5381,363.5313 544.2943,363.4438 Q544.0506,363.3563 543.8006,363.3563 Q543.4943,363.3563 543.2381,363.4875 Q542.9881,363.6188 542.7881,363.9188 Q542.5943,364.2188 542.5943,364.6313 L542.5943,365.0688 Q542.5943,365.5625 542.9506,365.8938 Q543.3068,366.2188 543.9443,366.2188 Q544.3193,366.2188 544.5818,366.1188 Q544.7381,366.0563 544.9068,365.8813 Q545.0131,365.775 545.0693,365.7438 Q545.1318,365.7125 545.2131,365.7125 Q545.3443,365.7125 545.4443,365.8188 Q545.5506,365.9188 545.5506,366.0563 Q545.5506,366.1938 545.4131,366.3563 Q545.2131,366.5875 544.8943,366.7188 Q544.4631,366.9 543.9443,366.9 Q543.3381,366.9 542.8568,366.65 Q542.4631,366.45 542.1881,366.025 Q541.9131,365.5938 541.9131,365.0813 L541.9131,364.6188 Q541.9131,364.0875 542.1568,363.6313 Q542.4068,363.1688 542.8443,362.925 Q543.2818,362.675 543.7756,362.675 Q544.0693,362.675 544.3256,362.7438 Q544.5881,362.8063 544.8068,362.95 Z " fill="#000000"/><text fill="#000000" font-family="sans-serif" font-size="5.6" lengthAdjust="spacing" textLength="30.193" x="551.9006" y="366.9188">RailwayLine</text><line style="stroke:#181818;stroke-width:0.20000000000000004;" x1="512.2" x2="608.7941" y1="371" y2="371"/><line style="stroke:#181818;stroke-width:0.20000000000000004;" x1="512.2" x2="608.7941" y1="374.2" y2="374.2"/><text fill="#000000" font-family="sans-serif" font-size="5.6" lengthAdjust="spacing" textLength="55.8797" x="514.2" y="381.843">+getStation1(): Station</text><text fill="#000000" font-family="sans-serif" font-size="5.6" lengthAdjust="spacing" textLength="55.8797" x="514.2" y="389.2914">+getStation2(): Station</text><text fill="#000000" font-family="sans-serif" font-size="5.6" lengthAdjust="spacing" textLength="45.5984" x="514.2" y="396.7398">+getDistance(): int</text><text fill="#000000" font-family="sans-serif" font-size="5.6" lengthAdjust="spacing" textLength="92.5941" x="514.2" y="404.1883">+getRailwayType(): RailwayLineType</text><text fill="#000000" font-family="sans-serif" font-size="5.6" lengthAdjust="spacing" textLength="8.3973" x="514.2" y="411.6367">...()</text></g><!--class Industry--><g id="elem_Industry"><rect codeLine="121" fill="#F1F1F1" height="168.1688" id="Industry" rx="1" ry="1" style="stroke:#181818;stroke-width:0.20000000000000004;" width="158.0945" x="671.4" y="302.4"/><ellipse cx="738.7873" cy="308.8" fill="#ADD1B2" rx="4.4" ry="4.4" style="stroke:#181818;stroke-width:0.4000000000000001;"/><path d="M739.8936,307.15 Q739.9561,307.0625 740.0311,307.0188 Q740.1061,306.975 740.1936,306.975 Q740.3436,306.975 740.4373,307.0813 Q740.5311,307.1813 740.5311,307.425 L740.5311,308.0063 Q740.5311,308.25 740.4373,308.3563 Q740.3436,308.4625 740.1936,308.4625 Q740.0561,308.4625 739.9748,308.3813 Q739.8936,308.3063 739.8498,308.1 Q739.8311,307.9563 739.7561,307.8813 Q739.6248,307.7313 739.3811,307.6438 Q739.1373,307.5563 738.8873,307.5563 Q738.5811,307.5563 738.3248,307.6875 Q738.0748,307.8188 737.8748,308.1188 Q737.6811,308.4188 737.6811,308.8313 L737.6811,309.2688 Q737.6811,309.7625 738.0373,310.0938 Q738.3936,310.4188 739.0311,310.4188 Q739.4061,310.4188 739.6686,310.3188 Q739.8248,310.2563 739.9936,310.0813 Q740.0998,309.975 740.1561,309.9438 Q740.2186,309.9125 740.2998,309.9125 Q740.4311,309.9125 740.5311,310.0188 Q740.6373,310.1188 740.6373,310.2563 Q740.6373,310.3938 740.4998,310.5563 Q740.2998,310.7875 739.9811,310.9188 Q739.5498,311.1 739.0311,311.1 Q738.4248,311.1 737.9436,310.85 Q737.5498,310.65 737.2748,310.225 Q736.9998,309.7938 736.9998,309.2813 L736.9998,308.8188 Q736.9998,308.2875 737.2436,307.8313 Q737.4936,307.3688 737.9311,307.125 Q738.3686,306.875 738.8623,306.875 Q739.1561,306.875 739.4123,306.9438 Q739.6748,307.0063 739.8936,307.15 Z " fill="#000000"/><text fill="#000000" font-family="sans-serif" font-size="5.6" lengthAdjust="spacing" textLength="19.9199" x="746.9873" y="311.1188">Industry</text><line style="stroke:#181818;stroke-width:0.20000000000000004;" x1="671.8" x2="829.0945" y1="315.2" y2="315.2"/><text fill="#000000" font-family="sans-serif" font-size="5.6" lengthAdjust="spacing" textLength="15.2496" x="673.8" y="322.843">-id: int</text><text fill="#000000" font-family="sans-serif" font-size="5.6" lengthAdjust="spacing" textLength="33.6137" x="673.8" y="330.2914">-name: String</text><text fill="#000000" font-family="sans-serif" font-size="5.6" lengthAdjust="spacing" textLength="47.9309" x="673.8" y="337.7398">-type: IndustryType</text><text fill="#000000" font-family="sans-serif" font-size="5.6" lengthAdjust="spacing" textLength="62.2617" x="673.8" y="345.1883">-assignedStation: Station</text><text fill="#000000" font-family="sans-serif" font-size="5.6" lengthAdjust="spacing" textLength="50.7336" x="673.8" y="352.6367">-inventory: Inventory</text><text fill="#000000" font-family="sans-serif" font-size="5.6" lengthAdjust="spacing" textLength="67.8727" x="673.8" y="360.0852">-updatedinventory: boolean</text><line style="stroke:#181818;stroke-width:0.20000000000000004;" x1="671.8" x2="829.0945" y1="363.0906" y2="363.0906"/><text fill="#000000" font-family="sans-serif" font-size="5.6" lengthAdjust="spacing" textLength="153.2945" x="673.8" y="370.7336">+Industry(name: String, type: IndustryType, position: Position)</text><text fill="#000000" font-family="sans-serif" font-size="5.6" lengthAdjust="spacing" textLength="47.4633" x="673.8" y="378.182">+getName(): String</text><text fill="#000000" font-family="sans-serif" font-size="5.6" lengthAdjust="spacing" textLength="28.4813" x="673.8" y="385.6305">+getId(): int</text><text fill="#000000" font-family="sans-serif" font-size="5.6" lengthAdjust="spacing" textLength="44.975" x="673.8" y="393.0789">+getType(): String</text><text fill="#000000" font-family="sans-serif" font-size="5.6" lengthAdjust="spacing" textLength="74.2438" x="673.8" y="400.5273">+getStationIdentifier(): Station</text><text fill="#000000" font-family="sans-serif" font-size="5.6" lengthAdjust="spacing" textLength="85.7609" x="673.8" y="407.9758">+setAssignedStation(Station): void</text><text fill="#000000" font-family="sans-serif" font-size="5.6" lengthAdjust="spacing" textLength="82.6355" x="673.8" y="415.4242">+getIndustryType(): IndustryType</text><text fill="#000000" font-family="sans-serif" font-size="5.6" lengthAdjust="spacing" textLength="102.8727" x="673.8" y="422.8727">+addResourceToInventory(Resource): int</text><text fill="#000000" font-family="sans-serif" font-size="5.6" lengthAdjust="spacing" textLength="118.732" x="673.8" y="430.3211">+removeResourceFromInventory(Resource): int</text><text fill="#000000" font-family="sans-serif" font-size="5.6" lengthAdjust="spacing" textLength="107.8492" x="673.8" y="437.7695">+getResourceQuantity(ResourcesType): int</text><text fill="#000000" font-family="sans-serif" font-size="5.6" lengthAdjust="spacing" textLength="135.2449" x="673.8" y="445.218">+existsResourceInInventory(ResourcesType): boolean</text><text fill="#000000" font-family="sans-serif" font-size="5.6" lengthAdjust="spacing" textLength="63.9652" x="673.8" y="452.6664">+getInventory(): Inventory</text><text fill="#000000" font-family="sans-serif" font-size="5.6" lengthAdjust="spacing" textLength="78.2934" x="673.8" y="460.1148">+isUpdatedInventory(): boolean</text><text fill="#000000" font-family="sans-serif" font-size="5.6" lengthAdjust="spacing" textLength="91.9926" x="673.8" y="467.5633">+setUpdatedInventory(boolean): void</text></g><!--class ResourcesType--><g id="elem_ResourcesType"><rect codeLine="144" fill="#F1F1F1" height="116.0297" id="ResourcesType" rx="1" ry="1" style="stroke:#181818;stroke-width:0.20000000000000004;" width="291.6305" x="843.4" y="328.4"/><ellipse cx="967.907" cy="334.8" fill="#ADD1B2" rx="4.4" ry="4.4" style="stroke:#181818;stroke-width:0.4000000000000001;"/><path d="M969.0133,333.15 Q969.0758,333.0625 969.1508,333.0188 Q969.2258,332.975 969.3133,332.975 Q969.4633,332.975 969.557,333.0813 Q969.6508,333.1813 969.6508,333.425 L969.6508,334.0063 Q969.6508,334.25 969.557,334.3563 Q969.4633,334.4625 969.3133,334.4625 Q969.1758,334.4625 969.0945,334.3813 Q969.0133,334.3063 968.9695,334.1 Q968.9508,333.9563 968.8758,333.8813 Q968.7445,333.7313 968.5008,333.6438 Q968.257,333.5563 968.007,333.5563 Q967.7008,333.5563 967.4445,333.6875 Q967.1945,333.8188 966.9945,334.1188 Q966.8008,334.4188 966.8008,334.8313 L966.8008,335.2688 Q966.8008,335.7625 967.157,336.0938 Q967.5133,336.4188 968.1508,336.4188 Q968.5258,336.4188 968.7883,336.3188 Q968.9445,336.2563 969.1133,336.0813 Q969.2195,335.975 969.2758,335.9438 Q969.3383,335.9125 969.4195,335.9125 Q969.5508,335.9125 969.6508,336.0188 Q969.757,336.1188 969.757,336.2563 Q969.757,336.3938 969.6195,336.5563 Q969.4195,336.7875 969.1008,336.9188 Q968.6695,337.1 968.1508,337.1 Q967.5445,337.1 967.0633,336.85 Q966.6695,336.65 966.3945,336.225 Q966.1195,335.7938 966.1195,335.2813 L966.1195,334.8188 Q966.1195,334.2875 966.3633,333.8313 Q966.6133,333.3688 967.0508,333.125 Q967.4883,332.875 967.982,332.875 Q968.2758,332.875 968.532,332.9438 Q968.7945,333.0063 969.0133,333.15 Z " fill="#000000"/><text fill="#000000" font-family="sans-serif" font-size="5.6" lengthAdjust="spacing" textLength="39.2164" x="976.107" y="337.1188">ResourcesType</text><line style="stroke:#181818;stroke-width:0.20000000000000004;" x1="843.8" x2="1134.6305" y1="341.2" y2="341.2"/><text fill="#000000" font-family="sans-serif" font-size="5.6" lengthAdjust="spacing" textLength="33.6137" x="845.8" y="348.843">-name: String</text><text fill="#000000" font-family="sans-serif" font-size="5.6" lengthAdjust="spacing" textLength="48.2371" x="845.8" y="356.2914">-maxResources: int</text><text fill="#000000" font-family="sans-serif" font-size="5.6" lengthAdjust="spacing" textLength="102.4105" x="845.8" y="363.7398">-intervalBetweenResourceGeneration: int</text><text fill="#000000" font-family="sans-serif" font-size="5.6" lengthAdjust="spacing" textLength="54.477" x="845.8" y="371.1883">-quantityProduced: int</text><line style="stroke:#181818;stroke-width:0.20000000000000004;" x1="843.8" x2="1134.6305" y1="374.1938" y2="374.1938"/><text fill="#000000" font-family="sans-serif" font-size="5.6" lengthAdjust="spacing" textLength="286.8305" x="845.8" y="381.8367">+ResourcesType(name: String, maxResources: int, intervalBetweenResourceGeneration: int, quantityProduced: int)</text><text fill="#000000" font-family="sans-serif" font-size="5.6" lengthAdjust="spacing" textLength="47.4633" x="845.8" y="389.2852">+getName(): String</text><text fill="#000000" font-family="sans-serif" font-size="5.6" lengthAdjust="spacing" textLength="57.4219" x="845.8" y="396.7336">+setName(String): void</text><text fill="#000000" font-family="sans-serif" font-size="5.6" lengthAdjust="spacing" textLength="61.157" x="845.8" y="404.182">+getMaxResources(): int</text><text fill="#000000" font-family="sans-serif" font-size="5.6" lengthAdjust="spacing" textLength="71.1156" x="845.8" y="411.6305">+setMaxResources(int): void</text><text fill="#000000" font-family="sans-serif" font-size="5.6" lengthAdjust="spacing" textLength="115.6422" x="845.8" y="419.0789">+getIntervalBetweenResourceGeneration(): int</text><text fill="#000000" font-family="sans-serif" font-size="5.6" lengthAdjust="spacing" textLength="125.6008" x="845.8" y="426.5273">+setIntervalBetweenResourceGeneration(int): void</text><text fill="#000000" font-family="sans-serif" font-size="5.6" lengthAdjust="spacing" textLength="68.6383" x="845.8" y="433.9758">+getQuantityProduced(): int</text><text fill="#000000" font-family="sans-serif" font-size="5.6" lengthAdjust="spacing" textLength="78.5969" x="845.8" y="441.4242">+setQuantityProduced(int): void</text></g><!--class IndustryType--><g id="elem_IndustryType"><rect codeLine="160" fill="#F1F1F1" height="41.5453" id="IndustryType" rx="1" ry="1" style="stroke:#181818;stroke-width:0.20000000000000004;" width="56.7641" x="769.2" y="502"/><ellipse cx="780.4175" cy="508.4" fill="#EB937F" rx="4.4" ry="4.4" style="stroke:#181818;stroke-width:0.4000000000000001;"/><path d="M779.9613,508.7188 L779.9613,509.7188 L781.6925,509.7188 L781.6925,509.35 Q781.6925,509.1063 781.7863,509 Q781.8863,508.8938 782.0363,508.8938 Q782.1863,508.8938 782.28,509 Q782.3738,509.1063 782.3738,509.35 L782.3738,510.4 L779.1738,510.4 Q778.9238,510.4 778.8175,510.3063 Q778.7175,510.2125 778.7175,510.0563 Q778.7175,509.9063 778.8238,509.8125 Q778.93,509.7188 779.1738,509.7188 L779.28,509.7188 L779.28,507.0563 L779.1738,507.0563 Q778.9238,507.0563 778.8175,506.9625 Q778.7175,506.8688 778.7175,506.7125 Q778.7175,506.5625 778.8175,506.4688 Q778.9238,506.375 779.1738,506.375 L782.2238,506.375 L782.2238,507.4125 Q782.2238,507.6563 782.13,507.7625 Q782.0425,507.8625 781.8863,507.8625 Q781.7363,507.8625 781.6425,507.7625 Q781.5488,507.6563 781.5488,507.4125 L781.5488,507.0563 L779.9613,507.0563 L779.9613,508.0375 L780.555,508.0375 Q780.555,507.775 780.605,507.7 Q780.7113,507.5375 780.8988,507.5375 Q781.0488,507.5375 781.1425,507.6438 Q781.2363,507.7438 781.2363,507.9875 L781.2363,508.775 Q781.2363,508.9938 781.1863,509.0688 Q781.08,509.225 780.8988,509.225 Q780.7113,509.225 780.605,509.0625 Q780.555,508.9875 780.555,508.7188 L779.9613,508.7188 Z " fill="#000000"/><text fill="#000000" font-family="sans-serif" font-size="5.6" lengthAdjust="spacing" textLength="32.3695" x="787.177" y="510.7188">IndustryType</text><line style="stroke:#181818;stroke-width:0.20000000000000004;" x1="769.6" x2="825.5641" y1="514.8" y2="514.8"/><text fill="#000000" font-family="sans-serif" font-size="5.6" lengthAdjust="spacing" textLength="51.9641" x="771.6" y="522.443">PRIMARY_SECTOR</text><text fill="#000000" font-family="sans-serif" font-size="5.6" lengthAdjust="spacing" textLength="45.4207" x="771.6" y="529.8914">TRANSFORMING</text><text fill="#000000" font-family="sans-serif" font-size="5.6" lengthAdjust="spacing" textLength="17.7352" x="771.6" y="537.3398">MIXED</text><line style="stroke:#181818;stroke-width:0.20000000000000004;" x1="769.6" x2="825.5641" y1="540.3453" y2="540.3453"/></g><!--class Inventory--><g id="elem_Inventory"><rect fill="#F1F1F1" height="19.2" id="Inventory" rx="1" ry="1" style="stroke:#181818;stroke-width:0.20000000000000004;" width="35.8344" x="719.2" y="513.2"/><ellipse cx="725.2" cy="519.6" fill="#ADD1B2" rx="4.4" ry="4.4" style="stroke:#181818;stroke-width:0.4000000000000001;"/><path d="M726.3063,517.95 Q726.3688,517.8625 726.4438,517.8188 Q726.5188,517.775 726.6063,517.775 Q726.7563,517.775 726.85,517.8813 Q726.9438,517.9813 726.9438,518.225 L726.9438,518.8063 Q726.9438,519.05 726.85,519.1563 Q726.7563,519.2625 726.6063,519.2625 Q726.4688,519.2625 726.3875,519.1813 Q726.3063,519.1063 726.2625,518.9 Q726.2438,518.7563 726.1688,518.6813 Q726.0375,518.5313 725.7938,518.4438 Q725.55,518.3563 725.3,518.3563 Q724.9938,518.3563 724.7375,518.4875 Q724.4875,518.6188 724.2875,518.9188 Q724.0938,519.2188 724.0938,519.6313 L724.0938,520.0688 Q724.0938,520.5625 724.45,520.8938 Q724.8063,521.2188 725.4438,521.2188 Q725.8188,521.2188 726.0813,521.1188 Q726.2375,521.0563 726.4063,520.8813 Q726.5125,520.775 726.5688,520.7438 Q726.6313,520.7125 726.7125,520.7125 Q726.8438,520.7125 726.9438,520.8188 Q727.05,520.9188 727.05,521.0563 Q727.05,521.1938 726.9125,521.3563 Q726.7125,521.5875 726.3938,521.7188 Q725.9625,521.9 725.4438,521.9 Q724.8375,521.9 724.3563,521.65 Q723.9625,521.45 723.6875,521.025 Q723.4125,520.5938 723.4125,520.0813 L723.4125,519.6188 Q723.4125,519.0875 723.6563,518.6313 Q723.9063,518.1688 724.3438,517.925 Q724.7813,517.675 725.275,517.675 Q725.5688,517.675 725.825,517.7438 Q726.0875,517.8063 726.3063,517.95 Z " fill="#000000"/><text fill="#000000" font-family="sans-serif" font-size="5.6" lengthAdjust="spacing" textLength="23.0344" x="730.8" y="521.9188">Inventory</text><line style="stroke:#181818;stroke-width:0.20000000000000004;" x1="719.6" x2="754.6344" y1="526" y2="526"/><line style="stroke:#181818;stroke-width:0.20000000000000004;" x1="719.6" x2="754.6344" y1="529.2" y2="529.2"/></g><!--link Industry to Station--><g id="link_Industry_Station"><path codeLine="166" d="M671.312,466.196 C657.576,479.984 647.6,490 647.6,490 C647.6,490 614.6057,502.2601 588.9297,511.8001 " fill="none" id="Industry-to-Station" style="stroke:#181818;stroke-width:0.4000000000000001;"/><polygon fill="#181818" points="586.68,512.636,590.6119,512.882,588.5548,511.9394,589.4973,509.8823,586.68,512.636" style="stroke:#181818;stroke-width:0.4000000000000001;"/><text fill="#000000" font-family="sans-serif" font-size="5.2" lengthAdjust="spacing" textLength="20.8152" x="655.2" y="488.4113">assigned</text></g><!--reverse link Industry to Inventory--><g id="link_Industry_Inventory"><path codeLine="167" d="M741.7824,475.3334 C740.0984,492.6134 739.024,503.648 738.1,513.152 " fill="none" id="Industry-backto-Inventory" style="stroke:#181818;stroke-width:0.4000000000000001;"/><polygon fill="#181818" points="742.248,470.556,740.4228,472.7895,741.7824,475.3334,743.6077,473.0999,742.248,470.556" style="stroke:#181818;stroke-width:0.4000000000000001;"/><text fill="#000000" font-family="sans-serif" font-size="5.2" lengthAdjust="spacing" textLength="8.384" x="741.2" y="488.4113">has</text></g><!--reverse link Industry to IndustryType--><g id="link_Industry_IndustryType"><path codeLine="168" d="M781.1301,475.0892 C785.1781,486.7172 787.42,493.148 790.488,501.972 " fill="none" id="Industry-backto-IndustryType" style="stroke:#181818;stroke-width:0.4000000000000001;"/><polygon fill="#181818" points="779.552,470.556,778.83,473.3486,781.1301,475.0892,781.8521,472.2965,779.552,470.556" style="stroke:#181818;stroke-width:0.4000000000000001;"/></g><!--reverse link Industry to ResourcesType--><g id="link_Industry_ResourcesType"><path codeLine="169" d="M834.292,386.4 C834.292,386.4 835.372,386.4 843.324,386.4 " fill="none" id="Industry-backto-ResourcesType" style="stroke:#181818;stroke-width:0.4000000000000001;"/><polygon fill="#181818" points="829.492,386.4,831.892,388,834.292,386.4,831.892,384.8,829.492,386.4" style="stroke:#181818;stroke-width:0.4000000000000001;"/></g><!--reverse link Map to StationRepository--><g id="link_Map_StationRepository"><path codeLine="171" d="M547.4201,96.5957 C569.4361,124.0317 602.8,165.6 602.8,165.6 C602.8,165.6 619.356,218.54 628.8,248.732 " fill="none" id="Map-backto-StationRepository" style="stroke:#181818;stroke-width:0.4000000000000001;"/><polygon fill="#181818" points="544.416,92.852,544.6702,95.7252,547.4201,96.5957,547.166,93.7225,544.416,92.852" style="stroke:#181818;stroke-width:0.4000000000000001;"/></g><!--reverse link Map to RailwayLineRepository--><g id="link_Map_RailwayLineRepository"><path codeLine="172" d="M530.831,97.6581 C533.523,121.6581 537.424,156.416 540.112,180.384 " fill="none" id="Map-backto-RailwayLineRepository" style="stroke:#181818;stroke-width:0.4000000000000001;"/><polygon fill="#181818" points="530.296,92.888,528.9735,95.4514,530.831,97.6581,532.1536,95.0947,530.296,92.888" style="stroke:#181818;stroke-width:0.4000000000000001;"/></g><!--reverse link Map to Scenario--><g id="link_Map_Scenario"><path codeLine="173" d="M502.9926,96.1626 C481.6526,116.4426 455.6,141.2 455.6,141.2 C455.6,141.2 360.4,165.6 360.4,165.6 C360.4,165.6 354.324,170.552 346.732,176.736 " fill="none" id="Map-backto-Scenario" style="stroke:#181818;stroke-width:0.4000000000000001;"/><polygon fill="#181818" points="506.472,92.856,503.6301,93.3495,502.9926,96.1626,505.8345,95.6691,506.472,92.856" style="stroke:#181818;stroke-width:0.4000000000000001;"/></g><!--reverse link Simulation to Route--><g id="link_Simulation_Route"><path codeLine="174" d="M405.6912,241.6225 C404.2472,271.8865 402.388,310.824 400.848,343.116 " fill="none" id="Simulation-backto-Route" style="stroke:#181818;stroke-width:0.4000000000000001;"/><polygon fill="#181818" points="405.92,236.828,404.2074,239.149,405.6912,241.6225,407.4038,239.3015,405.92,236.828" style="stroke:#181818;stroke-width:0.4000000000000001;"/></g><!--reverse link Scenario to Train--><g id="link_Scenario_Train"><path codeLine="175" d="M304.6853,230.0088 C291.5533,259.8248 272.8,302.4 272.8,302.4 C272.8,302.4 272.8,470.4 272.8,470.4 C272.8,470.4 292.32,487.428 309.016,501.996 " fill="none" id="Scenario-backto-Train" style="stroke:#181818;stroke-width:0.4000000000000001;"/><polygon fill="#181818" points="306.62,225.616,304.1884,227.1675,304.6853,230.0088,307.1169,228.4573,306.62,225.616" style="stroke:#181818;stroke-width:0.4000000000000001;"/><text fill="#000000" font-family="sans-serif" font-size="5.2" lengthAdjust="spacing" textLength="19.368" x="273.2" y="388.6113">contains</text></g><!--reverse link Train to Locomotive--><g id="link_Train_Locomotive"><path codeLine="176" d="M332.4,548.552 C332.4,558.376 332.4,565.304 332.4,575.12 " fill="none" id="Train-backto-Locomotive" style="stroke:#181818;stroke-width:0.4000000000000001;"/><polygon fill="#181818" points="332.4,543.752,330.8,546.152,332.4,548.552,334,546.152,332.4,543.752" style="stroke:#181818;stroke-width:0.4000000000000001;"/><text fill="#000000" font-family="sans-serif" font-size="5.2" lengthAdjust="spacing" textLength="8.384" x="332.8" y="561.6113">has</text></g><!--reverse link RailwayLine to Station--><g id="link_RailwayLine_Station"><path codeLine="177" d="M555.9416,419.5259 C554.5576,446.8939 555.04,482.908 556.9,505.616 " fill="none" id="RailwayLine-backto-Station" style="stroke:#181818;stroke-width:0.4000000000000001;"/><polygon fill="#181818" points="556.184,414.732,554.4648,417.0481,555.9416,419.5259,557.6607,417.2097,556.184,414.732" style="stroke:#181818;stroke-width:0.4000000000000001;"/></g><!--reverse link RailwayLine to Station--><g id="link_RailwayLine_Station"><path codeLine="178" d="M565.1204,419.5251 C566.5844,446.8931 566.076,482.908 564.104,505.616 " fill="none" id="RailwayLine-backto-Station-1" style="stroke:#181818;stroke-width:0.4000000000000001;"/><polygon fill="#181818" points="564.864,414.732,563.3945,417.214,565.1204,419.5251,566.5899,417.0431,564.864,414.732" style="stroke:#181818;stroke-width:0.4000000000000001;"/></g><!--reverse link Route to Train--><g id="link_Route_Train"><path codeLine="179" d="M375.6812,434.015 C363.8652,458.147 351.764,482.852 342.432,501.916 " fill="none" id="Route-backto-Train" style="stroke:#181818;stroke-width:0.4000000000000001;"/><polygon fill="#181818" points="377.792,429.704,375.2996,431.1559,375.6812,434.015,378.1736,432.5631,377.792,429.704" style="stroke:#181818;stroke-width:0.4000000000000001;"/><text fill="#000000" font-family="sans-serif" font-size="5.2" lengthAdjust="spacing" textLength="8.384" x="350.8" y="488.4113">has</text></g><!--reverse link Route to Station--><g id="link_Route_Station"><path codeLine="180" d="M453.497,432.6974 C484.297,458.5414 518.132,486.932 540.596,505.784 " fill="none" id="Route-backto-Station" style="stroke:#181818;stroke-width:0.4000000000000001;"/><polygon fill="#181818" points="449.82,429.612,450.6301,432.3804,453.497,432.6974,452.687,429.929,449.82,429.612" style="stroke:#181818;stroke-width:0.4000000000000001;"/><text fill="#000000" font-family="sans-serif" font-size="5.2" lengthAdjust="spacing" textLength="8.384" x="522" y="488.4113">has</text></g><!--link CreateRouteUI to CreateRouteController--><g id="link_CreateRouteUI_CreateRouteController"><path codeLine="182" d="M171.64,72 C175.372,72 177.796,72 183.164,72 " fill="none" id="CreateRouteUI-to-CreateRouteController" style="stroke:#181818;stroke-width:0.4000000000000001;stroke-dasharray:7.0,7.0;"/><polygon fill="#181818" points="185.564,72,181.964,70.4,183.564,72,181.964,73.6,185.564,72" style="stroke:#181818;stroke-width:0.4000000000000001;"/></g><!--link CreateRouteController to Simulation--><g id="link_CreateRouteController_Simulation"><path codeLine="183" d="M365.708,141.3 C371.612,149.688 376.0624,156.0056 381.4104,163.6016 " fill="none" id="CreateRouteController-to-Simulation" style="stroke:#181818;stroke-width:0.4000000000000001;stroke-dasharray:7.0,7.0;"/><polygon fill="#181818" points="382.792,165.564,382.0278,161.6993,381.6406,163.9287,379.4113,163.5415,382.792,165.564" style="stroke:#181818;stroke-width:0.4000000000000001;"/></g><!--link CreateRouteController to Scenario--><g id="link_CreateRouteController_Scenario"><path codeLine="184" d="M317.2,141.3 C317.2,154.028 317.2,164.112 317.2,174.332 " fill="none" id="CreateRouteController-to-Scenario" style="stroke:#181818;stroke-width:0.4000000000000001;stroke-dasharray:7.0,7.0;"/><polygon fill="#181818" points="317.2,176.732,318.8,173.132,317.2,174.732,315.6,173.132,317.2,176.732" style="stroke:#181818;stroke-width:0.4000000000000001;"/></g><!--link CreateRouteController to Map--><g id="link_CreateRouteController_Map"><path codeLine="185" d="M448.836,72 C454.248,72 457.732,72 457.732,72 C457.732,72 463.828,72 474.908,72 " fill="none" id="CreateRouteController-to-Map" style="stroke:#181818;stroke-width:0.4000000000000001;stroke-dasharray:7.0,7.0;"/><polygon fill="#181818" points="477.308,72,473.708,70.4,475.308,72,473.708,73.6,477.308,72" style="stroke:#181818;stroke-width:0.4000000000000001;"/></g><!--link CreateRouteController to FuelType--><g id="link_CreateRouteController_FuelType"><path codeLine="186" d="M279.208,141.3 C271.336,155.576 264.7949,167.4424 258.8349,178.2504 " fill="none" id="CreateRouteController-to-FuelType" style="stroke:#181818;stroke-width:0.4000000000000001;stroke-dasharray:7.0,7.0;"/><polygon fill="#181818" points="257.676,180.352,260.8155,177.9722,258.6418,178.6006,258.0133,176.4269,257.676,180.352" style="stroke:#181818;stroke-width:0.4000000000000001;"/></g><!--link CreateRouteController to RailwayLineType--><g id="link_CreateRouteController_RailwayLineType"><path codeLine="187" d="M238.536,141.204 C223.964,153.952 211.4743,164.8717 199.7743,175.1077 " fill="none" id="CreateRouteController-to-RailwayLineType" style="stroke:#181818;stroke-width:0.4000000000000001;stroke-dasharray:7.0,7.0;"/><polygon fill="#181818" points="197.968,176.688,201.731,175.5218,199.4732,175.3711,199.6239,173.1134,197.968,176.688" style="stroke:#181818;stroke-width:0.4000000000000001;"/></g><!--reverse link StationRepository to Station--><g id="link_StationRepository_Station"><path codeLine="189" d="M632.7784,295.2821 C627.8864,346.3581 616,470.4 616,470.4 C616,470.4 594.552,490.46 578.3,505.66 " fill="none" id="StationRepository-backto-Station" style="stroke:#181818;stroke-width:0.4000000000000001;"/><polygon fill="none" points="633.236,290.504,631.4145,292.7405,632.7784,295.2821,634.5999,293.0456,633.236,290.504" style="stroke:#181818;stroke-width:0.4000000000000001;"/><text fill="#000000" font-family="sans-serif" font-size="5.2" lengthAdjust="spacing" textLength="19.368" x="632.8" y="388.6113">contains</text></g><!--reverse link RailwayLineRepository to RailwayLine--><g id="link_RailwayLineRepository_RailwayLine"><path codeLine="190" d="M544.8624,226.8173 C548.0984,259.9653 554.028,320.72 557.68,358.12 " fill="none" id="RailwayLineRepository-backto-RailwayLine" style="stroke:#181818;stroke-width:0.4000000000000001;"/><polygon fill="none" points="544.396,222.04,543.0368,224.5841,544.8624,226.8173,546.2216,224.2732,544.396,222.04" style="stroke:#181818;stroke-width:0.4000000000000001;"/><text fill="#000000" font-family="sans-serif" font-size="5.2" lengthAdjust="spacing" textLength="19.368" x="551.6" y="271.8113">contains</text></g><!--SRC=[hLXVRzis47_tfz2Zl5Z1jaUZCE0uJYV0JbBB0TQdWf5eXwXCUYJbrXlstKTI94LILEmMwqD3t_tkB- -EPxEl21y11OVa2CglO0yBVgvXGc790TxNSCGiWBs1Ydn3U9_iGCrSJeqmvESZJ8waFiiF3g-i0MDppYbwRJZCIu8Bz3TCVXsD52TPK0Wut131VCcJVqQ9-9Sb0iOfgMj8fovYOSaAT-DBfmmTcXfmHF0qAUnvae2IDw0kIeW1HKJmz6cijT06fsDjkO8x4S17Y24LqdY_4VhJyJH1c7i8PJFb521XR2l_2D0ACVwXuChip8JoHWY33uWohZdfhe7rLkHhcZpeav3LJ4zAwPNMrM7qRoHfNKfiyk9fqCoXN7ZiDJXE4_5VFykTkP_EzXwQHCXqfT6qATG6eFeREAz4jZsaGtVGAaKUJb4SHEUaX0IPKOYvvxf2kUbfCITX7hpMKDfdMs8kbN6J2wuJ4RtceGY0KQl5HQAnQ49nOZ-aEgY-4wHeTyvtojbdKJkGvVXzb_q08nuFHf45jyRkpiQz5DJraBuVp9G9IJlD_W2drjNqogpS96LNq5uBJn8gQO7GH8JbZWCr38Jc4q6LkJt6q1xF6quE0bQscdLwdm5_wscCkgeKsYON_QTR-kTwXWqtpEtjhHXurf9Miu57mX0dz1onozA12jDHiXWtiEFu4RSrh-lh0iWIwk2k3LFticlntQcH9Tom1qQAk2CfQ4PbQD2E6DVaeg4KOhv5X-1XAJj6HnQrLLLjFUdQL1_SyilQghLfa1zc_qU8uVL9nVQLSVlcYb8GuG6w9t8c56RiYBHziAD7YImaPjPDarxRwR1YhJjWNJ5ebzLuDmVfwjxSA_kWlTaWGbqQxyIenEBBXasxyiCje4VGLauXbYgyx-WhKf83uUYakDsdTrh-Wjf0g5DvZJjsz8-x8UThXRWvM9PMMMoNyxKwtUVBOhbIn-LgkTXkyaM-_Mpbd6vtnVF7Zwlb5otma2_lMrrFBtSHiaO_FZqEIOIis2oBJClVqc2ZSvc_HvdteZO0BhsPu8vqayeWxjWzvRXg6BUZDKjGvSuP36GhEDSbcbazHKREwitqmmQh8bWLZ69y4XDBJ74fh8-QrHmhKSsLWtWbf8R0X6oCfQuxauWdaqGz5ShwipwDBvTVNlKoQL8OGdLCUIKyHJiaTjlU1J7nEFcfIFLVVn6GXXtVfQ9ULjkH3XbfQ0ctn2OkDJJFRmeFv0GDwu6ImmK1MJAQ_ga18YBU0PdUD3eq_2xgZXb-ZllAZOn_VIfG0ns7rt-J8FRI5e27ydM8fFP06j7RXZnlR657Ila0lbkiM_NY1Ea9r7UGVuCG6umPlhAwEl1VEd7Fb5HD2IllxN4z2QgtPtnofTr9tEIbEcUQtX9xfRXstF6xWGNCtaQhxlU2vpsLboLYTZu5aVVKzW2E5lCSk5sco-Dvaw_dcyzV2Z6-dpQAjDtC7uk7fyrQ37v5MET_jbFTpimiczdNSMhdNyV_9SkwOXU8Dy12fjFl3iSldD58xlSItzk-BIUwBsjkzytKsJALa5oDHdRNbIIzGapLpohYn4OjGVASDxsDnNtO7FU6wMehb1HZHMcnr2wNaZxoV- -vdGtyl1F_XUDMu9tlxU-0J78683EriW_Bstrb61A-mwF-joZYXM-J7_yQHFmBTmN-0m00]--></g></svg>