<svg xmlns="http://www.w3.org/2000/svg" xmlns:xlink="http://www.w3.org/1999/xlink" contentStyleType="text/css" height="1461px" preserveAspectRatio="none" style="width:794px;height:1461px;background:#FFFFFF;" version="1.1" viewBox="0 0 794 1461" width="794px" zoomAndPan="magnify"><title>System Sequence Diagram (SSD) - US10 - Assign train to route</title><defs/><g><text fill="#000000" font-family="sans-serif" font-size="14" font-weight="bold" lengthAdjust="spacing" textLength="418.5439" x="195.0068" y="30.1074">System Sequence Diagram (SSD) - US10 - Assign train to route</text><rect fill="#FFFFFF" height="1227.1563" style="stroke:#181818;stroke-width:1.0;" width="10" x="47.8413" y="133.2422"/><rect fill="#FFFFFF" height="133.1641" style="stroke:#181818;stroke-width:1.0;" width="10" x="444.979" y="156.5332"/><rect fill="#FFFFFF" height="171.7949" style="stroke:#181818;stroke-width:1.0;" width="10" x="444.979" y="320.9883"/><rect fill="#FFFFFF" height="75.582" style="stroke:#181818;stroke-width:1.0;" width="10" x="444.979" y="516.0742"/><rect fill="#FFFFFF" height="75.582" style="stroke:#181818;stroke-width:1.0;" width="10" x="444.979" y="622.9473"/><rect fill="#FFFFFF" height="101.873" style="stroke:#181818;stroke-width:1.0;" width="10" x="444.979" y="729.8203"/><rect fill="#FFFFFF" height="177.4551" style="stroke:#181818;stroke-width:1.0;" width="10" x="444.979" y="862.9844"/><rect fill="#FFFFFF" height="288.668" style="stroke:#181818;stroke-width:1.0;" width="10" x="444.979" y="1071.7305"/><rect fill="none" height="238.668" style="stroke:#000000;stroke-width:1.5;" width="628.897" x="10" y="247.1152"/><rect fill="none" height="142.7949" style="stroke:#000000;stroke-width:1.5;" width="608.897" x="20" y="335.9883"/><rect fill="none" height="452.4141" style="stroke:#000000;stroke-width:1.5;" width="698.9814" x="10" y="789.1113"/><rect fill="none" height="356.541" style="stroke:#000000;stroke-width:1.5;" width="678.9814" x="20" y="877.9844"/><line style="stroke:#181818;stroke-width:0.5;stroke-dasharray:5.0,5.0;" x1="52" x2="52" y1="123.2422" y2="1378.3984"/><line style="stroke:#181818;stroke-width:0.5;stroke-dasharray:5.0,5.0;" x1="449.6963" x2="449.6963" y1="123.2422" y2="1378.3984"/><text fill="#000000" font-family="sans-serif" font-size="14" lengthAdjust="spacing" textLength="39.6826" x="30" y="119.7285">Player</text><ellipse cx="52.8413" cy="53.1211" fill="#E3E3E3" rx="8" ry="8" style="stroke:#181818;stroke-width:0.5;"/><path d="M52.8413,61.1211 L52.8413,88.1211 M39.8413,69.1211 L65.8413,69.1211 M52.8413,88.1211 L39.8413,103.1211 M52.8413,88.1211 L65.8413,103.1211 " fill="none" style="stroke:#181818;stroke-width:0.5;"/><text fill="#000000" font-family="sans-serif" font-size="14" lengthAdjust="spacing" textLength="39.6826" x="30" y="1392.5059">Player</text><ellipse cx="52.8413" cy="1404.5195" fill="#E3E3E3" rx="8" ry="8" style="stroke:#181818;stroke-width:0.5;"/><path d="M52.8413,1412.5195 L52.8413,1439.5195 M39.8413,1420.5195 L65.8413,1420.5195 M52.8413,1439.5195 L39.8413,1454.5195 M52.8413,1439.5195 L65.8413,1454.5195 " fill="none" style="stroke:#181818;stroke-width:0.5;"/><rect fill="#E3E3E3" height="32.6211" rx="2.5" ry="2.5" style="stroke:#181818;stroke-width:0.5;" width="64.5654" x="417.6963" y="89.6211"/><text fill="#000000" font-family="sans-serif" font-size="14" lengthAdjust="spacing" textLength="50.5654" x="424.6963" y="111.7285">:System</text><rect fill="#E3E3E3" height="32.6211" rx="2.5" ry="2.5" style="stroke:#181818;stroke-width:0.5;" width="64.5654" x="417.6963" y="1377.3984"/><text fill="#000000" font-family="sans-serif" font-size="14" lengthAdjust="spacing" textLength="50.5654" x="424.6963" y="1399.5059">:System</text><rect fill="#FFFFFF" height="1227.1563" style="stroke:#181818;stroke-width:1.0;" width="10" x="47.8413" y="133.2422"/><rect fill="#FFFFFF" height="133.1641" style="stroke:#181818;stroke-width:1.0;" width="10" x="444.979" y="156.5332"/><rect fill="#FFFFFF" height="171.7949" style="stroke:#181818;stroke-width:1.0;" width="10" x="444.979" y="320.9883"/><rect fill="#FFFFFF" height="75.582" style="stroke:#181818;stroke-width:1.0;" width="10" x="444.979" y="516.0742"/><rect fill="#FFFFFF" height="75.582" style="stroke:#181818;stroke-width:1.0;" width="10" x="444.979" y="622.9473"/><rect fill="#FFFFFF" height="101.873" style="stroke:#181818;stroke-width:1.0;" width="10" x="444.979" y="729.8203"/><rect fill="#FFFFFF" height="177.4551" style="stroke:#181818;stroke-width:1.0;" width="10" x="444.979" y="862.9844"/><rect fill="#FFFFFF" height="288.668" style="stroke:#181818;stroke-width:1.0;" width="10" x="444.979" y="1071.7305"/><polygon fill="#181818" points="432.979,152.5332,442.979,156.5332,432.979,160.5332,436.979,156.5332" style="stroke:#181818;stroke-width:1.0;"/><line style="stroke:#181818;stroke-width:1.0;" x1="57.8413" x2="438.979" y1="156.5332" y2="156.5332"/><text fill="#000000" font-family="sans-serif" font-size="13" font-weight="bold" lengthAdjust="spacing" textLength="7.23" x="64.8413" y="151.2705">1</text><text fill="#000000" font-family="sans-serif" font-size="13" lengthAdjust="spacing" textLength="143.0889" x="76.0713" y="151.2705">request to choose a train</text><line style="stroke:#181818;stroke-width:1.0;" x1="454.979" x2="496.979" y1="187.8242" y2="187.8242"/><line style="stroke:#181818;stroke-width:1.0;" x1="496.979" x2="496.979" y1="187.8242" y2="200.8242"/><line style="stroke:#181818;stroke-width:1.0;" x1="455.979" x2="496.979" y1="200.8242" y2="200.8242"/><polygon fill="#181818" points="465.979,196.8242,455.979,200.8242,465.979,204.8242,461.979,200.8242" style="stroke:#181818;stroke-width:1.0;"/><text fill="#000000" font-family="sans-serif" font-size="13" font-weight="bold" lengthAdjust="spacing" textLength="7.23" x="461.979" y="182.5615">2</text><text fill="#000000" font-family="sans-serif" font-size="13" lengthAdjust="spacing" textLength="114.1689" x="473.209" y="182.5615">loads existing trains</text><polygon fill="#181818" points="68.8413,228.1152,58.8413,232.1152,68.8413,236.1152,64.8413,232.1152" style="stroke:#181818;stroke-width:1.0;"/><line style="stroke:#181818;stroke-width:1.0;stroke-dasharray:2.0,2.0;" x1="62.8413" x2="443.979" y1="232.1152" y2="232.1152"/><text fill="#000000" font-family="sans-serif" font-size="13" font-weight="bold" lengthAdjust="spacing" textLength="7.23" x="74.8413" y="226.8525">3</text><text fill="#000000" font-family="sans-serif" font-size="13" lengthAdjust="spacing" textLength="117.7617" x="86.0713" y="226.8525">list the trains (US11)</text><path d="M10,247.1152 L82.4346,247.1152 L82.4346,256.4063 L72.4346,266.4063 L10,266.4063 L10,247.1152 " fill="#EEEEEE" style="stroke:#000000;stroke-width:1.5;"/><rect fill="none" height="238.668" style="stroke:#000000;stroke-width:1.5;" width="628.897" x="10" y="247.1152"/><text fill="#000000" font-family="sans-serif" font-size="13" font-weight="bold" lengthAdjust="spacing" textLength="27.4346" x="25" y="262.1436">loop</text><text fill="#000000" font-family="sans-serif" font-size="11" font-weight="bold" lengthAdjust="spacing" textLength="136.458" x="97.4346" y="260.9854">[While the train isn't valid]</text><polygon fill="#181818" points="68.8413,285.6973,58.8413,289.6973,68.8413,293.6973,64.8413,289.6973" style="stroke:#181818;stroke-width:1.0;"/><line style="stroke:#181818;stroke-width:1.0;stroke-dasharray:2.0,2.0;" x1="62.8413" x2="448.979" y1="289.6973" y2="289.6973"/><text fill="#000000" font-family="sans-serif" font-size="13" font-weight="bold" lengthAdjust="spacing" textLength="7.23" x="74.8413" y="284.4346">4</text><text fill="#000000" font-family="sans-serif" font-size="13" lengthAdjust="spacing" textLength="132.9707" x="86.0713" y="284.4346">request the train to use</text><polygon fill="#181818" points="432.979,316.9883,442.979,320.9883,432.979,324.9883,436.979,320.9883" style="stroke:#181818;stroke-width:1.0;"/><line style="stroke:#181818;stroke-width:1.0;" x1="57.8413" x2="438.979" y1="320.9883" y2="320.9883"/><text fill="#000000" font-family="sans-serif" font-size="13" font-weight="bold" lengthAdjust="spacing" textLength="7.23" x="64.8413" y="315.7256">5</text><text fill="#000000" font-family="sans-serif" font-size="13" lengthAdjust="spacing" textLength="317.2051" x="76.0713" y="315.7256">select train (assuming there is at least 1 train available)</text><path d="M20,335.9883 L80.1709,335.9883 L80.1709,345.2793 L70.1709,355.2793 L20,355.2793 L20,335.9883 " fill="#EEEEEE" style="stroke:#000000;stroke-width:1.5;"/><rect fill="none" height="142.7949" style="stroke:#000000;stroke-width:1.5;" width="608.897" x="20" y="335.9883"/><text fill="#000000" font-family="sans-serif" font-size="13" font-weight="bold" lengthAdjust="spacing" textLength="15.1709" x="35" y="351.0166">alt</text><text fill="#000000" font-family="sans-serif" font-size="11" font-weight="bold" lengthAdjust="spacing" textLength="60.5054" x="95.1709" y="349.8584">[Valid train]</text><line style="stroke:#181818;stroke-width:1.0;" x1="454.979" x2="496.979" y1="378.5703" y2="378.5703"/><line style="stroke:#181818;stroke-width:1.0;" x1="496.979" x2="496.979" y1="378.5703" y2="391.5703"/><line style="stroke:#181818;stroke-width:1.0;" x1="455.979" x2="496.979" y1="391.5703" y2="391.5703"/><polygon fill="#181818" points="465.979,387.5703,455.979,391.5703,465.979,395.5703,461.979,391.5703" style="stroke:#181818;stroke-width:1.0;"/><text fill="#000000" font-family="sans-serif" font-size="13" font-weight="bold" lengthAdjust="spacing" textLength="7.23" x="461.979" y="373.3076">6</text><text fill="#000000" font-family="sans-serif" font-size="13" lengthAdjust="spacing" textLength="133.688" x="473.209" y="373.3076">save the choice of train</text><polygon fill="#181818" points="68.8413,418.8613,58.8413,422.8613,68.8413,426.8613,64.8413,422.8613" style="stroke:#181818;stroke-width:1.0;"/><line style="stroke:#181818;stroke-width:1.0;stroke-dasharray:2.0,2.0;" x1="62.8413" x2="443.979" y1="422.8613" y2="422.8613"/><text fill="#000000" font-family="sans-serif" font-size="13" font-weight="bold" lengthAdjust="spacing" textLength="7.23" x="74.8413" y="417.5986">7</text><text fill="#000000" font-family="sans-serif" font-size="13" lengthAdjust="spacing" textLength="114.8799" x="86.0713" y="417.5986">returns confirmation</text><line style="stroke:#000000;stroke-width:1.0;stroke-dasharray:2.0,2.0;" x1="20" x2="628.897" y1="431.8613" y2="431.8613"/><text fill="#000000" font-family="sans-serif" font-size="11" font-weight="bold" lengthAdjust="spacing" textLength="69.0615" x="25" y="443.7314">[Invalid train]</text><polygon fill="#181818" points="68.8413,466.7832,58.8413,470.7832,68.8413,474.7832,64.8413,470.7832" style="stroke:#181818;stroke-width:1.0;"/><line style="stroke:#181818;stroke-width:1.0;stroke-dasharray:2.0,2.0;" x1="62.8413" x2="443.979" y1="470.7832" y2="470.7832"/><text fill="#000000" font-family="sans-serif" font-size="13" font-weight="bold" lengthAdjust="spacing" textLength="7.23" x="74.8413" y="465.5205">8</text><text fill="#000000" font-family="sans-serif" font-size="13" lengthAdjust="spacing" textLength="302.0405" x="86.0713" y="465.5205">returns message error and continues to show the list</text><polygon fill="#181818" points="432.979,512.0742,442.979,516.0742,432.979,520.0742,436.979,516.0742" style="stroke:#181818;stroke-width:1.0;"/><line style="stroke:#181818;stroke-width:1.0;" x1="57.8413" x2="438.979" y1="516.0742" y2="516.0742"/><text fill="#000000" font-family="sans-serif" font-size="13" font-weight="bold" lengthAdjust="spacing" textLength="7.23" x="64.8413" y="510.8115">9</text><text fill="#000000" font-family="sans-serif" font-size="13" lengthAdjust="spacing" textLength="141.6416" x="76.0713" y="510.8115">request to create a route</text><line style="stroke:#181818;stroke-width:1.0;" x1="454.979" x2="496.979" y1="547.3652" y2="547.3652"/><line style="stroke:#181818;stroke-width:1.0;" x1="496.979" x2="496.979" y1="547.3652" y2="560.3652"/><line style="stroke:#181818;stroke-width:1.0;" x1="455.979" x2="496.979" y1="560.3652" y2="560.3652"/><polygon fill="#181818" points="465.979,556.3652,455.979,560.3652,465.979,564.3652,461.979,560.3652" style="stroke:#181818;stroke-width:1.0;"/><text fill="#000000" font-family="sans-serif" font-size="13" font-weight="bold" lengthAdjust="spacing" textLength="14.46" x="461.979" y="542.1025">10</text><text fill="#000000" font-family="sans-serif" font-size="13" lengthAdjust="spacing" textLength="239.9224" x="480.439" y="542.1025">loads existing stations and possible cargo</text><polygon fill="#181818" points="68.8413,587.6563,58.8413,591.6563,68.8413,595.6563,64.8413,591.6563" style="stroke:#181818;stroke-width:1.0;"/><line style="stroke:#181818;stroke-width:1.0;stroke-dasharray:2.0,2.0;" x1="62.8413" x2="448.979" y1="591.6563" y2="591.6563"/><text fill="#000000" font-family="sans-serif" font-size="13" font-weight="bold" lengthAdjust="spacing" textLength="14.46" x="74.8413" y="586.3936">11</text><text fill="#000000" font-family="sans-serif" font-size="13" lengthAdjust="spacing" textLength="344.6777" x="93.3013" y="586.3936">list available stations (US7) and request for station selection</text><polygon fill="#181818" points="432.979,618.9473,442.979,622.9473,432.979,626.9473,436.979,622.9473" style="stroke:#181818;stroke-width:1.0;"/><line style="stroke:#181818;stroke-width:1.0;" x1="57.8413" x2="438.979" y1="622.9473" y2="622.9473"/><text fill="#000000" font-family="sans-serif" font-size="13" font-weight="bold" lengthAdjust="spacing" textLength="14.46" x="64.8413" y="617.6846">12</text><text fill="#000000" font-family="sans-serif" font-size="13" lengthAdjust="spacing" textLength="333.0996" x="83.3013" y="617.6846">select start station (assuming there are at least 2 stations)</text><line style="stroke:#181818;stroke-width:1.0;" x1="454.979" x2="496.979" y1="654.2383" y2="654.2383"/><line style="stroke:#181818;stroke-width:1.0;" x1="496.979" x2="496.979" y1="654.2383" y2="667.2383"/><line style="stroke:#181818;stroke-width:1.0;" x1="455.979" x2="496.979" y1="667.2383" y2="667.2383"/><polygon fill="#181818" points="465.979,663.2383,455.979,667.2383,465.979,671.2383,461.979,667.2383" style="stroke:#181818;stroke-width:1.0;"/><text fill="#000000" font-family="sans-serif" font-size="13" font-weight="bold" lengthAdjust="spacing" textLength="14.46" x="461.979" y="648.9756">13</text><text fill="#000000" font-family="sans-serif" font-size="13" lengthAdjust="spacing" textLength="138.7534" x="480.439" y="648.9756">validate selected station</text><polygon fill="#181818" points="68.8413,694.5293,58.8413,698.5293,68.8413,702.5293,64.8413,698.5293" style="stroke:#181818;stroke-width:1.0;"/><line style="stroke:#181818;stroke-width:1.0;stroke-dasharray:2.0,2.0;" x1="62.8413" x2="448.979" y1="698.5293" y2="698.5293"/><text fill="#000000" font-family="sans-serif" font-size="13" font-weight="bold" lengthAdjust="spacing" textLength="14.46" x="74.8413" y="693.2666">14</text><text fill="#000000" font-family="sans-serif" font-size="13" lengthAdjust="spacing" textLength="235.5933" x="93.3013" y="693.2666">request which cargo should be picked up</text><polygon fill="#181818" points="432.979,725.8203,442.979,729.8203,432.979,733.8203,436.979,729.8203" style="stroke:#181818;stroke-width:1.0;"/><line style="stroke:#181818;stroke-width:1.0;" x1="57.8413" x2="438.979" y1="729.8203" y2="729.8203"/><text fill="#000000" font-family="sans-serif" font-size="13" font-weight="bold" lengthAdjust="spacing" textLength="14.46" x="64.8413" y="724.5576">15</text><text fill="#000000" font-family="sans-serif" font-size="13" lengthAdjust="spacing" textLength="215.3315" x="83.3013" y="724.5576">select cargo for the respective station</text><line style="stroke:#181818;stroke-width:1.0;" x1="454.979" x2="496.979" y1="761.1113" y2="761.1113"/><line style="stroke:#181818;stroke-width:1.0;" x1="496.979" x2="496.979" y1="761.1113" y2="774.1113"/><line style="stroke:#181818;stroke-width:1.0;" x1="455.979" x2="496.979" y1="774.1113" y2="774.1113"/><polygon fill="#181818" points="465.979,770.1113,455.979,774.1113,465.979,778.1113,461.979,774.1113" style="stroke:#181818;stroke-width:1.0;"/><text fill="#000000" font-family="sans-serif" font-size="13" font-weight="bold" lengthAdjust="spacing" textLength="14.46" x="461.979" y="755.8486">16</text><text fill="#000000" font-family="sans-serif" font-size="13" lengthAdjust="spacing" textLength="130.0762" x="480.439" y="755.8486">assign cargo to station</text><path d="M10,789.1113 L82.4346,789.1113 L82.4346,798.4023 L72.4346,808.4023 L10,808.4023 L10,789.1113 " fill="#EEEEEE" style="stroke:#000000;stroke-width:1.5;"/><rect fill="none" height="452.4141" style="stroke:#000000;stroke-width:1.5;" width="698.9814" x="10" y="789.1113"/><text fill="#000000" font-family="sans-serif" font-size="13" font-weight="bold" lengthAdjust="spacing" textLength="27.4346" x="25" y="804.1396">loop</text><text fill="#000000" font-family="sans-serif" font-size="11" font-weight="bold" lengthAdjust="spacing" textLength="295.3779" x="97.4346" y="802.9814">[While the player hasn't finished the selection operation]</text><polygon fill="#181818" points="68.8413,827.6934,58.8413,831.6934,68.8413,835.6934,64.8413,831.6934" style="stroke:#181818;stroke-width:1.0;"/><line style="stroke:#181818;stroke-width:1.0;stroke-dasharray:2.0,2.0;" x1="62.8413" x2="448.979" y1="831.6934" y2="831.6934"/><text fill="#000000" font-family="sans-serif" font-size="13" font-weight="bold" lengthAdjust="spacing" textLength="14.46" x="74.8413" y="826.4307">17</text><text fill="#000000" font-family="sans-serif" font-size="13" lengthAdjust="spacing" textLength="330.2368" x="93.3013" y="826.4307">lists the remaining stations and request to select a station</text><polygon fill="#181818" points="432.979,858.9844,442.979,862.9844,432.979,866.9844,436.979,862.9844" style="stroke:#181818;stroke-width:1.0;"/><line style="stroke:#181818;stroke-width:1.0;" x1="57.8413" x2="438.979" y1="862.9844" y2="862.9844"/><text fill="#000000" font-family="sans-serif" font-size="13" font-weight="bold" lengthAdjust="spacing" textLength="14.46" x="64.8413" y="857.7217">18</text><text fill="#000000" font-family="sans-serif" font-size="13" lengthAdjust="spacing" textLength="130.7998" x="83.3013" y="857.7217">select available station</text><path d="M20,877.9844 L80.1709,877.9844 L80.1709,887.2754 L70.1709,897.2754 L20,897.2754 L20,877.9844 " fill="#EEEEEE" style="stroke:#000000;stroke-width:1.5;"/><rect fill="none" height="356.541" style="stroke:#000000;stroke-width:1.5;" width="678.9814" x="20" y="877.9844"/><text fill="#000000" font-family="sans-serif" font-size="13" font-weight="bold" lengthAdjust="spacing" textLength="15.1709" x="35" y="893.0127">alt</text><text fill="#000000" font-family="sans-serif" font-size="11" font-weight="bold" lengthAdjust="spacing" textLength="311.1689" x="95.1709" y="891.8545">[There is a railway line between the last 2 selected stations]</text><line style="stroke:#181818;stroke-width:1.0;" x1="454.979" x2="496.979" y1="920.5664" y2="920.5664"/><line style="stroke:#181818;stroke-width:1.0;" x1="496.979" x2="496.979" y1="920.5664" y2="933.5664"/><line style="stroke:#181818;stroke-width:1.0;" x1="455.979" x2="496.979" y1="933.5664" y2="933.5664"/><polygon fill="#181818" points="465.979,929.5664,455.979,933.5664,465.979,937.5664,461.979,933.5664" style="stroke:#181818;stroke-width:1.0;"/><text fill="#000000" font-family="sans-serif" font-size="13" font-weight="bold" lengthAdjust="spacing" textLength="14.46" x="461.979" y="915.3037">19</text><text fill="#000000" font-family="sans-serif" font-size="13" lengthAdjust="spacing" textLength="146.7007" x="480.439" y="915.3037">save the choice of station</text><polygon fill="#181818" points="68.8413,960.8574,58.8413,964.8574,68.8413,968.8574,64.8413,964.8574" style="stroke:#181818;stroke-width:1.0;"/><line style="stroke:#181818;stroke-width:1.0;stroke-dasharray:2.0,2.0;" x1="62.8413" x2="443.979" y1="964.8574" y2="964.8574"/><text fill="#000000" font-family="sans-serif" font-size="13" font-weight="bold" lengthAdjust="spacing" textLength="14.46" x="74.8413" y="959.5947">20</text><text fill="#000000" font-family="sans-serif" font-size="13" lengthAdjust="spacing" textLength="114.8799" x="93.3013" y="959.5947">returns confirmation</text><line style="stroke:#181818;stroke-width:1.0;" x1="454.979" x2="496.979" y1="996.1484" y2="996.1484"/><line style="stroke:#181818;stroke-width:1.0;" x1="496.979" x2="496.979" y1="996.1484" y2="1009.1484"/><line style="stroke:#181818;stroke-width:1.0;" x1="455.979" x2="496.979" y1="1009.1484" y2="1009.1484"/><polygon fill="#181818" points="465.979,1005.1484,455.979,1009.1484,465.979,1013.1484,461.979,1009.1484" style="stroke:#181818;stroke-width:1.0;"/><text fill="#000000" font-family="sans-serif" font-size="13" font-weight="bold" lengthAdjust="spacing" textLength="14.46" x="461.979" y="990.8857">21</text><text fill="#000000" font-family="sans-serif" font-size="13" lengthAdjust="spacing" textLength="196.5425" x="480.439" y="990.8857">check cargo availability at stations</text><polygon fill="#181818" points="68.8413,1036.4395,58.8413,1040.4395,68.8413,1044.4395,64.8413,1040.4395" style="stroke:#181818;stroke-width:1.0;"/><line style="stroke:#181818;stroke-width:1.0;stroke-dasharray:2.0,2.0;" x1="62.8413" x2="448.979" y1="1040.4395" y2="1040.4395"/><text fill="#000000" font-family="sans-serif" font-size="13" font-weight="bold" lengthAdjust="spacing" textLength="14.46" x="74.8413" y="1035.1768">22</text><text fill="#000000" font-family="sans-serif" font-size="13" lengthAdjust="spacing" textLength="235.5933" x="93.3013" y="1035.1768">request which cargo should be picked up</text><polygon fill="#181818" points="432.979,1067.7305,442.979,1071.7305,432.979,1075.7305,436.979,1071.7305" style="stroke:#181818;stroke-width:1.0;"/><line style="stroke:#181818;stroke-width:1.0;" x1="57.8413" x2="438.979" y1="1071.7305" y2="1071.7305"/><text fill="#000000" font-family="sans-serif" font-size="13" font-weight="bold" lengthAdjust="spacing" textLength="14.46" x="64.8413" y="1066.4678">23</text><text fill="#000000" font-family="sans-serif" font-size="13" lengthAdjust="spacing" textLength="215.3315" x="83.3013" y="1066.4678">select cargo for the respective station</text><line style="stroke:#181818;stroke-width:1.0;" x1="454.979" x2="496.979" y1="1103.0215" y2="1103.0215"/><line style="stroke:#181818;stroke-width:1.0;" x1="496.979" x2="496.979" y1="1103.0215" y2="1116.0215"/><line style="stroke:#181818;stroke-width:1.0;" x1="455.979" x2="496.979" y1="1116.0215" y2="1116.0215"/><polygon fill="#181818" points="465.979,1112.0215,455.979,1116.0215,465.979,1120.0215,461.979,1116.0215" style="stroke:#181818;stroke-width:1.0;"/><text fill="#000000" font-family="sans-serif" font-size="13" font-weight="bold" lengthAdjust="spacing" textLength="14.46" x="461.979" y="1097.7588">24</text><text fill="#000000" font-family="sans-serif" font-size="13" lengthAdjust="spacing" textLength="147.4307" x="480.439" y="1097.7588">validate and assign cargo</text><polygon fill="#181818" points="68.8413,1143.3125,58.8413,1147.3125,68.8413,1151.3125,64.8413,1147.3125" style="stroke:#181818;stroke-width:1.0;"/><line style="stroke:#181818;stroke-width:1.0;stroke-dasharray:2.0,2.0;" x1="62.8413" x2="443.979" y1="1147.3125" y2="1147.3125"/><text fill="#000000" font-family="sans-serif" font-size="13" font-weight="bold" lengthAdjust="spacing" textLength="14.46" x="74.8413" y="1142.0498">25</text><text fill="#000000" font-family="sans-serif" font-size="13" lengthAdjust="spacing" textLength="114.8799" x="93.3013" y="1142.0498">returns confirmation</text><line style="stroke:#000000;stroke-width:1.0;stroke-dasharray:2.0,2.0;" x1="20" x2="698.9814" y1="1156.3125" y2="1156.3125"/><text fill="#000000" font-family="sans-serif" font-size="11" font-weight="bold" lengthAdjust="spacing" textLength="134.0464" x="25" y="1168.1826">[There isn't a railway line]</text><polygon fill="#181818" points="68.8413,1191.2344,58.8413,1195.2344,68.8413,1199.2344,64.8413,1195.2344" style="stroke:#181818;stroke-width:1.0;"/><line style="stroke:#181818;stroke-width:1.0;stroke-dasharray:2.0,2.0;" x1="62.8413" x2="443.979" y1="1195.2344" y2="1195.2344"/><text fill="#000000" font-family="sans-serif" font-size="13" font-weight="bold" lengthAdjust="spacing" textLength="14.46" x="74.8413" y="1189.9717">26</text><text fill="#000000" font-family="sans-serif" font-size="13" lengthAdjust="spacing" textLength="127.8799" x="93.3013" y="1189.9717">returns message error</text><polygon fill="#181818" points="68.8413,1222.5254,58.8413,1226.5254,68.8413,1230.5254,64.8413,1226.5254" style="stroke:#181818;stroke-width:1.0;"/><line style="stroke:#181818;stroke-width:1.0;stroke-dasharray:2.0,2.0;" x1="62.8413" x2="443.979" y1="1226.5254" y2="1226.5254"/><text fill="#000000" font-family="sans-serif" font-size="13" font-weight="bold" lengthAdjust="spacing" textLength="14.46" x="74.8413" y="1221.2627">27</text><text fill="#000000" font-family="sans-serif" font-size="13" lengthAdjust="spacing" textLength="297.7368" x="93.3013" y="1221.2627">continues to show the list and request a new station</text><line style="stroke:#181818;stroke-width:1.0;" x1="454.979" x2="496.979" y1="1271.8164" y2="1271.8164"/><line style="stroke:#181818;stroke-width:1.0;" x1="496.979" x2="496.979" y1="1271.8164" y2="1284.8164"/><line style="stroke:#181818;stroke-width:1.0;" x1="455.979" x2="496.979" y1="1284.8164" y2="1284.8164"/><polygon fill="#181818" points="465.979,1280.8164,455.979,1284.8164,465.979,1288.8164,461.979,1284.8164" style="stroke:#181818;stroke-width:1.0;"/><text fill="#000000" font-family="sans-serif" font-size="13" font-weight="bold" lengthAdjust="spacing" textLength="14.46" x="461.979" y="1266.5537">28</text><text fill="#000000" font-family="sans-serif" font-size="13" lengthAdjust="spacing" textLength="126.4834" x="480.439" y="1266.5537">define generating rate</text><line style="stroke:#181818;stroke-width:1.0;" x1="454.979" x2="496.979" y1="1316.1074" y2="1316.1074"/><line style="stroke:#181818;stroke-width:1.0;" x1="496.979" x2="496.979" y1="1316.1074" y2="1329.1074"/><line style="stroke:#181818;stroke-width:1.0;" x1="455.979" x2="496.979" y1="1329.1074" y2="1329.1074"/><polygon fill="#181818" points="465.979,1325.1074,455.979,1329.1074,465.979,1333.1074,461.979,1329.1074" style="stroke:#181818;stroke-width:1.0;"/><text fill="#000000" font-family="sans-serif" font-size="13" font-weight="bold" lengthAdjust="spacing" textLength="14.46" x="461.979" y="1310.8447">29</text><text fill="#000000" font-family="sans-serif" font-size="13" lengthAdjust="spacing" textLength="307.1187" x="480.439" y="1310.8447">save the route with selected train, stations, and cargo</text><polygon fill="#181818" points="63.8413,1356.3984,53.8413,1360.3984,63.8413,1364.3984,59.8413,1360.3984" style="stroke:#181818;stroke-width:1.0;"/><line style="stroke:#181818;stroke-width:1.0;stroke-dasharray:2.0,2.0;" x1="57.8413" x2="448.979" y1="1360.3984" y2="1360.3984"/><text fill="#000000" font-family="sans-serif" font-size="13" font-weight="bold" lengthAdjust="spacing" textLength="14.46" x="69.8413" y="1355.1357">30</text><text fill="#000000" font-family="sans-serif" font-size="13" lengthAdjust="spacing" textLength="183.5107" x="88.3013" y="1355.1357">confirms successful assignment</text><!--SRC=[fLPBRzim3BxxLn2zh05QODrbG0y31lIosu3iSMPbnXOYIvue9yk_7sN9pgEsstG171iH7ny_VgJ3MsrRzDX0uwnJjNSDGV0T5JoUjAYsMD4w70o19nNGLkRKW6iitLxR2ZPec8eYw22cwmC7Qc1DVpgoYk19OnNDRzVhfnNSmy_rmqUvVMNMbPMagENRWNTTa1ZO1MUxvfcyFAlWFDnyDtWWVmF8a1uBoH-qqYtQ03UFAM5_dXvxJxt3G8D3ki7zbm7TerGa-3Z4rAfsZWamWJawvsZPvTJPE2mPwA_c4Ell_NWq5CkSK2nrp55Jje5RAVzXLHJ6kHP-rre86qz1i_qGO8T6bmN8PohWY7lqaWeweJywb7G9FluwKJsJaOxc0BV8t3Lz8JLv4XY00GoXf7d8DhX3RV3PqAeFEPK6JO1V4Nlc4V9dWZ_6NQfRgDUY4RUPyJclF7HUA5JERhHlC6YN74ZK1z_iRY7tL9o6c4NWGDwBpD2MCRBqK-YDd7BjzZt6sCAKnvP5l5wo_9h0F4LZp2A_Nc0S-cgvHzaw6Htf12ZqbPjNtTYoexkex_Eg3pAWsqZf-JYB8hBwjWgpYCJTXp78fPWmNeEQFerGLczXeUzeD4cPg1pSYwN9sDTQrOcSsCJEbF1Cq6grbG1TUrrnAKnaAKh14xUHejt8wLlAmBJgKgYehEnwkGJQXAB6VWrijDLS2-HuDBO6N4l-AFsvvdE6syWml13GYJ9pbJXYUiyMUI6qnHNnOzmn8ADgzdWGn9QaHs5FPDF8PR5Sj9slt2cdSAxUAZDfL4rgctkP2zT6XqCK-IpCzyXqY37TZUMElAhQ8SHSwALXZ18wbVH_BEr12r7lvtAuVeClUinlzhE9GB2qFoDfsFbJSrtI9Wgt8jkFf8oPtAXOqcR_0e2z3lLHtFqRwsuKprrw5Stkzima0tTA2G6RpkHsD6J3n7Ox-IN_7Ve7]--></g></svg>