<svg xmlns="http://www.w3.org/2000/svg" xmlns:xlink="http://www.w3.org/1999/xlink" contentStyleType="text/css" height="960px" preserveAspectRatio="none" style="width:2037px;height:960px;background:#FFFFFF;" version="1.1" viewBox="0 0 2037 960" width="2037px" zoomAndPan="magnify"><defs/><g><!--class CreateRouteUI--><g id="elem_CreateRouteUI"><rect codeLine="7" fill="#F1F1F1" height="178.3477" id="CreateRouteUI" rx="2.5" ry="2.5" style="stroke:#181818;stroke-width:0.5;" width="414.6982" x="7" y="95.5"/><ellipse cx="163.4097" cy="111.5" fill="#ADD1B2" rx="11" ry="11" style="stroke:#181818;stroke-width:1.0;"/><path d="M166.1753,107.375 Q166.3315,107.1563 166.519,107.0469 Q166.7065,106.9375 166.9253,106.9375 Q167.3003,106.9375 167.5347,107.2031 Q167.769,107.4531 167.769,108.0625 L167.769,109.5156 Q167.769,110.125 167.5347,110.3906 Q167.3003,110.6563 166.9253,110.6563 Q166.5815,110.6563 166.3784,110.4531 Q166.1753,110.2656 166.0659,109.75 Q166.019,109.3906 165.8315,109.2031 Q165.5034,108.8281 164.894,108.6094 Q164.2847,108.3906 163.6597,108.3906 Q162.894,108.3906 162.2534,108.7188 Q161.6284,109.0469 161.1284,109.7969 Q160.644,110.5469 160.644,111.5781 L160.644,112.6719 Q160.644,113.9063 161.5347,114.7344 Q162.4253,115.5469 164.019,115.5469 Q164.9565,115.5469 165.6128,115.2969 Q166.0034,115.1406 166.4253,114.7031 Q166.6909,114.4375 166.8315,114.3594 Q166.9878,114.2813 167.1909,114.2813 Q167.519,114.2813 167.769,114.5469 Q168.0347,114.7969 168.0347,115.1406 Q168.0347,115.4844 167.6909,115.8906 Q167.1909,116.4688 166.394,116.7969 Q165.3159,117.25 164.019,117.25 Q162.5034,117.25 161.3003,116.625 Q160.3159,116.125 159.6284,115.0625 Q158.9409,113.9844 158.9409,112.7031 L158.9409,111.5469 Q158.9409,110.2188 159.5503,109.0781 Q160.1753,107.9219 161.269,107.3125 Q162.3628,106.6875 163.5972,106.6875 Q164.3315,106.6875 164.9722,106.8594 Q165.6284,107.0156 166.1753,107.375 Z " fill="#000000"/><text fill="#000000" font-family="sans-serif" font-size="14" lengthAdjust="spacing" textLength="93.3789" x="183.9097" y="117.2969">CreateRouteUI</text><line style="stroke:#181818;stroke-width:0.5;" x1="8" x2="420.6982" y1="127.5" y2="127.5"/><text fill="#000000" font-family="sans-serif" font-size="14" lengthAdjust="spacing" textLength="210.0889" x="13" y="146.6074">-controller: CreateRouteController</text><line style="stroke:#181818;stroke-width:0.5;" x1="8" x2="420.6982" y1="154.1211" y2="154.1211"/><text fill="#000000" font-family="sans-serif" font-size="14" lengthAdjust="spacing" textLength="402.6982" x="13" y="173.2285">+CreateRouteUI(Simulation simulation, Scenario actualScenario)</text><text fill="#000000" font-family="sans-serif" font-size="14" lengthAdjust="spacing" textLength="37.7344" x="13" y="191.8496">+run()</text><text fill="#000000" font-family="sans-serif" font-size="14" lengthAdjust="spacing" textLength="173.5371" x="13" y="210.4707">-defineGeneratingRate(): int</text><text fill="#000000" font-family="sans-serif" font-size="14" lengthAdjust="spacing" textLength="245.9023" x="13" y="229.0918">-defineRoute(train: Train): List&lt;Station&gt;</text><text fill="#000000" font-family="sans-serif" font-size="14" lengthAdjust="spacing" textLength="301.1299" x="13" y="247.7129">-chooseFirstStation(fuelType: FuelType): Station</text><text fill="#000000" font-family="sans-serif" font-size="14" lengthAdjust="spacing" textLength="130.7031" x="13" y="266.334">-chooseTrain(): Train</text></g><!--class CreateRouteController--><g id="elem_CreateRouteController"><rect codeLine="17" fill="#F1F1F1" height="327.3164" id="CreateRouteController" rx="2.5" ry="2.5" style="stroke:#181818;stroke-width:0.5;" width="661.79" x="457.5" y="21"/><ellipse cx="714.1108" cy="37" fill="#ADD1B2" rx="11" ry="11" style="stroke:#181818;stroke-width:1.0;"/><path d="M716.8765,32.875 Q717.0327,32.6563 717.2202,32.5469 Q717.4077,32.4375 717.6265,32.4375 Q718.0015,32.4375 718.2358,32.7031 Q718.4702,32.9531 718.4702,33.5625 L718.4702,35.0156 Q718.4702,35.625 718.2358,35.8906 Q718.0015,36.1563 717.6265,36.1563 Q717.2827,36.1563 717.0796,35.9531 Q716.8765,35.7656 716.7671,35.25 Q716.7202,34.8906 716.5327,34.7031 Q716.2046,34.3281 715.5952,34.1094 Q714.9858,33.8906 714.3608,33.8906 Q713.5952,33.8906 712.9546,34.2188 Q712.3296,34.5469 711.8296,35.2969 Q711.3452,36.0469 711.3452,37.0781 L711.3452,38.1719 Q711.3452,39.4063 712.2358,40.2344 Q713.1265,41.0469 714.7202,41.0469 Q715.6577,41.0469 716.314,40.7969 Q716.7046,40.6406 717.1265,40.2031 Q717.3921,39.9375 717.5327,39.8594 Q717.689,39.7813 717.8921,39.7813 Q718.2202,39.7813 718.4702,40.0469 Q718.7358,40.2969 718.7358,40.6406 Q718.7358,40.9844 718.3921,41.3906 Q717.8921,41.9688 717.0952,42.2969 Q716.0171,42.75 714.7202,42.75 Q713.2046,42.75 712.0015,42.125 Q711.0171,41.625 710.3296,40.5625 Q709.6421,39.4844 709.6421,38.2031 L709.6421,37.0469 Q709.6421,35.7188 710.2515,34.5781 Q710.8765,33.4219 711.9702,32.8125 Q713.064,32.1875 714.2983,32.1875 Q715.0327,32.1875 715.6733,32.3594 Q716.3296,32.5156 716.8765,32.875 Z " fill="#000000"/><text fill="#000000" font-family="sans-serif" font-size="14" lengthAdjust="spacing" textLength="140.0684" x="734.6108" y="42.7969">CreateRouteController</text><line style="stroke:#181818;stroke-width:0.5;" x1="458.5" x2="1118.29" y1="53" y2="53"/><text fill="#000000" font-family="sans-serif" font-size="14" lengthAdjust="spacing" textLength="140.834" x="463.5" y="72.1074">-simulation: Simulation</text><text fill="#000000" font-family="sans-serif" font-size="14" lengthAdjust="spacing" textLength="160.3096" x="463.5" y="90.7285">-actualScenario: Scenario</text><text fill="#000000" font-family="sans-serif" font-size="14" lengthAdjust="spacing" textLength="104.2686" x="463.5" y="109.3496">-actualMap: Map</text><line style="stroke:#181818;stroke-width:0.5;" x1="458.5" x2="1118.29" y1="116.8633" y2="116.8633"/><text fill="#000000" font-family="sans-serif" font-size="14" lengthAdjust="spacing" textLength="457.167" x="463.5" y="135.9707">+CreateRouteController(simulation: Simulation, actualScenario: Scenario)</text><text fill="#000000" font-family="sans-serif" font-size="14" lengthAdjust="spacing" textLength="191.8369" x="463.5" y="154.5918">+getStationList(): List&lt;Station&gt;</text><text fill="#000000" font-family="sans-serif" font-size="14" lengthAdjust="spacing" textLength="255.6299" x="463.5" y="173.2129">+getRailwayLineList(): List&lt;RailwayLine&gt;</text><text fill="#000000" font-family="sans-serif" font-size="14" lengthAdjust="spacing" textLength="168.458" x="463.5" y="191.834">+getTrainList(): List&lt;Train&gt;</text><text fill="#000000" font-family="sans-serif" font-size="14" lengthAdjust="spacing" textLength="175.4717" x="463.5" y="210.4551">+getSimulation(): Simulation</text><text fill="#000000" font-family="sans-serif" font-size="14" lengthAdjust="spacing" textLength="194.1611" x="463.5" y="229.0762">+getActualScenario(): Scenario</text><text fill="#000000" font-family="sans-serif" font-size="14" lengthAdjust="spacing" textLength="528.7939" x="463.5" y="247.6973">+getAvailableLinesToStation(station: Station, fuelType: FuelType): List&lt;RailwayLine&gt;</text><text fill="#000000" font-family="sans-serif" font-size="14" lengthAdjust="spacing" textLength="503.9043" x="463.5" y="266.3184">+availableStationConnections(station: Station, fuelType: FuelType): List&lt;Station&gt;</text><text fill="#000000" font-family="sans-serif" font-size="14" lengthAdjust="spacing" textLength="649.79" x="463.5" y="284.9395">-verifyIfLinesPassesInStation(station: Station, fuelAvailableLines:  List&lt;RailwayLine&gt;): List&lt;RailwayLine&gt;</text><text fill="#000000" font-family="sans-serif" font-size="14" lengthAdjust="spacing" textLength="608.5146" x="463.5" y="303.5605">-getRailwayLinesByFuelType(allLines: List&lt;RailwayLine&gt;, fuelType: FuelType): List&lt;RailwayLine&gt;</text><text fill="#000000" font-family="sans-serif" font-size="14" lengthAdjust="spacing" textLength="384.8018" x="463.5" y="322.1816">+verifyIfStationsHaveLines(fuelType: FuelType): List&lt;Station&gt;</text><text fill="#000000" font-family="sans-serif" font-size="14" lengthAdjust="spacing" textLength="449.415" x="463.5" y="340.8027">+createRoute(train: Train, route: List&lt;Station&gt;, generatingRate: int): void</text></g><!--class Map--><g id="elem_Map"><rect codeLine="35" fill="#F1F1F1" height="103.8633" id="Map" rx="2.5" ry="2.5" style="stroke:#181818;stroke-width:0.5;" width="252.8438" x="1506" y="132.5"/><ellipse cx="1614.5547" cy="148.5" fill="#ADD1B2" rx="11" ry="11" style="stroke:#181818;stroke-width:1.0;"/><path d="M1617.3203,144.375 Q1617.4766,144.1563 1617.6641,144.0469 Q1617.8516,143.9375 1618.0703,143.9375 Q1618.4453,143.9375 1618.6797,144.2031 Q1618.9141,144.4531 1618.9141,145.0625 L1618.9141,146.5156 Q1618.9141,147.125 1618.6797,147.3906 Q1618.4453,147.6563 1618.0703,147.6563 Q1617.7266,147.6563 1617.5234,147.4531 Q1617.3203,147.2656 1617.2109,146.75 Q1617.1641,146.3906 1616.9766,146.2031 Q1616.6484,145.8281 1616.0391,145.6094 Q1615.4297,145.3906 1614.8047,145.3906 Q1614.0391,145.3906 1613.3984,145.7188 Q1612.7734,146.0469 1612.2734,146.7969 Q1611.7891,147.5469 1611.7891,148.5781 L1611.7891,149.6719 Q1611.7891,150.9063 1612.6797,151.7344 Q1613.5703,152.5469 1615.1641,152.5469 Q1616.1016,152.5469 1616.7578,152.2969 Q1617.1484,152.1406 1617.5703,151.7031 Q1617.8359,151.4375 1617.9766,151.3594 Q1618.1328,151.2813 1618.3359,151.2813 Q1618.6641,151.2813 1618.9141,151.5469 Q1619.1797,151.7969 1619.1797,152.1406 Q1619.1797,152.4844 1618.8359,152.8906 Q1618.3359,153.4688 1617.5391,153.7969 Q1616.4609,154.25 1615.1641,154.25 Q1613.6484,154.25 1612.4453,153.625 Q1611.4609,153.125 1610.7734,152.0625 Q1610.0859,150.9844 1610.0859,149.7031 L1610.0859,148.5469 Q1610.0859,147.2188 1610.6953,146.0781 Q1611.3203,144.9219 1612.4141,144.3125 Q1613.5078,143.6875 1614.7422,143.6875 Q1615.4766,143.6875 1616.1172,143.8594 Q1616.7734,144.0156 1617.3203,144.375 Z " fill="#000000"/><text fill="#000000" font-family="sans-serif" font-size="14" lengthAdjust="spacing" textLength="27.2344" x="1635.0547" y="154.2969">Map</text><line style="stroke:#181818;stroke-width:0.5;" x1="1507" x2="1757.8438" y1="164.5" y2="164.5"/><line style="stroke:#181818;stroke-width:0.5;" x1="1507" x2="1757.8438" y1="172.5" y2="172.5"/><text fill="#000000" font-family="sans-serif" font-size="14" lengthAdjust="spacing" textLength="191.8369" x="1512" y="191.6074">+getStationList(): List&lt;Station&gt;</text><text fill="#000000" font-family="sans-serif" font-size="14" lengthAdjust="spacing" textLength="240.8438" x="1512" y="210.2285">+getRailwayLines(): List&lt;RailwayLine&gt;</text><text fill="#000000" font-family="sans-serif" font-size="14" lengthAdjust="spacing" textLength="20.9932" x="1512" y="228.8496">...()</text></g><!--class StationRepository--><g id="elem_StationRepository"><rect codeLine="41" fill="#F1F1F1" height="103.8633" id="StationRepository" rx="2.5" ry="2.5" style="stroke:#181818;stroke-width:0.5;" width="189.0508" x="1538" y="483"/><ellipse cx="1573.9465" cy="499" fill="#ADD1B2" rx="11" ry="11" style="stroke:#181818;stroke-width:1.0;"/><path d="M1576.7122,494.875 Q1576.8684,494.6563 1577.0559,494.5469 Q1577.2434,494.4375 1577.4622,494.4375 Q1577.8372,494.4375 1578.0715,494.7031 Q1578.3059,494.9531 1578.3059,495.5625 L1578.3059,497.0156 Q1578.3059,497.625 1578.0715,497.8906 Q1577.8372,498.1563 1577.4622,498.1563 Q1577.1184,498.1563 1576.9153,497.9531 Q1576.7122,497.7656 1576.6028,497.25 Q1576.5559,496.8906 1576.3684,496.7031 Q1576.0403,496.3281 1575.4309,496.1094 Q1574.8215,495.8906 1574.1965,495.8906 Q1573.4309,495.8906 1572.7903,496.2188 Q1572.1653,496.5469 1571.6653,497.2969 Q1571.1809,498.0469 1571.1809,499.0781 L1571.1809,500.1719 Q1571.1809,501.4063 1572.0715,502.2344 Q1572.9622,503.0469 1574.5559,503.0469 Q1575.4934,503.0469 1576.1497,502.7969 Q1576.5403,502.6406 1576.9622,502.2031 Q1577.2278,501.9375 1577.3684,501.8594 Q1577.5247,501.7813 1577.7278,501.7813 Q1578.0559,501.7813 1578.3059,502.0469 Q1578.5715,502.2969 1578.5715,502.6406 Q1578.5715,502.9844 1578.2278,503.3906 Q1577.7278,503.9688 1576.9309,504.2969 Q1575.8528,504.75 1574.5559,504.75 Q1573.0403,504.75 1571.8372,504.125 Q1570.8528,503.625 1570.1653,502.5625 Q1569.4778,501.4844 1569.4778,500.2031 L1569.4778,499.0469 Q1569.4778,497.7188 1570.0872,496.5781 Q1570.7122,495.4219 1571.8059,494.8125 Q1572.8997,494.1875 1574.134,494.1875 Q1574.8684,494.1875 1575.509,494.3594 Q1576.1653,494.5156 1576.7122,494.875 Z " fill="#000000"/><text fill="#000000" font-family="sans-serif" font-size="14" lengthAdjust="spacing" textLength="110.5029" x="1592.6013" y="504.7969">StationRepository</text><line style="stroke:#181818;stroke-width:0.5;" x1="1539" x2="1726.0508" y1="515" y2="515"/><text fill="#000000" font-family="sans-serif" font-size="14" lengthAdjust="spacing" textLength="142.4131" x="1544" y="534.1074">-stations: List&lt;Station&gt;</text><line style="stroke:#181818;stroke-width:0.5;" x1="1539" x2="1726.0508" y1="541.6211" y2="541.6211"/><text fill="#000000" font-family="sans-serif" font-size="14" lengthAdjust="spacing" textLength="177.0508" x="1544" y="560.7285">+getStations(): List&lt;Station&gt;</text><text fill="#000000" font-family="sans-serif" font-size="14" lengthAdjust="spacing" textLength="20.9932" x="1544" y="579.3496">...()</text></g><!--class RailwayLineRepository--><g id="elem_RailwayLineRepository"><rect codeLine="47" fill="#F1F1F1" height="103.8633" id="RailwayLineRepository" rx="2.5" ry="2.5" style="stroke:#181818;stroke-width:0.5;" width="268.4023" x="1762.5" y="483"/><ellipse cx="1821.2515" cy="499" fill="#ADD1B2" rx="11" ry="11" style="stroke:#181818;stroke-width:1.0;"/><path d="M1824.0171,494.875 Q1824.1733,494.6563 1824.3608,494.5469 Q1824.5483,494.4375 1824.7671,494.4375 Q1825.1421,494.4375 1825.3765,494.7031 Q1825.6108,494.9531 1825.6108,495.5625 L1825.6108,497.0156 Q1825.6108,497.625 1825.3765,497.8906 Q1825.1421,498.1563 1824.7671,498.1563 Q1824.4233,498.1563 1824.2202,497.9531 Q1824.0171,497.7656 1823.9077,497.25 Q1823.8608,496.8906 1823.6733,496.7031 Q1823.3452,496.3281 1822.7358,496.1094 Q1822.1265,495.8906 1821.5015,495.8906 Q1820.7358,495.8906 1820.0952,496.2188 Q1819.4702,496.5469 1818.9702,497.2969 Q1818.4858,498.0469 1818.4858,499.0781 L1818.4858,500.1719 Q1818.4858,501.4063 1819.3765,502.2344 Q1820.2671,503.0469 1821.8608,503.0469 Q1822.7983,503.0469 1823.4546,502.7969 Q1823.8452,502.6406 1824.2671,502.2031 Q1824.5327,501.9375 1824.6733,501.8594 Q1824.8296,501.7813 1825.0327,501.7813 Q1825.3608,501.7813 1825.6108,502.0469 Q1825.8765,502.2969 1825.8765,502.6406 Q1825.8765,502.9844 1825.5327,503.3906 Q1825.0327,503.9688 1824.2358,504.2969 Q1823.1577,504.75 1821.8608,504.75 Q1820.3452,504.75 1819.1421,504.125 Q1818.1577,503.625 1817.4702,502.5625 Q1816.7827,501.4844 1816.7827,500.2031 L1816.7827,499.0469 Q1816.7827,497.7188 1817.3921,496.5781 Q1818.0171,495.4219 1819.1108,494.8125 Q1820.2046,494.1875 1821.439,494.1875 Q1822.1733,494.1875 1822.814,494.3594 Q1823.4702,494.5156 1824.0171,494.875 Z " fill="#000000"/><text fill="#000000" font-family="sans-serif" font-size="14" lengthAdjust="spacing" textLength="142.3994" x="1841.7515" y="504.7969">RailwayLineRepository</text><line style="stroke:#181818;stroke-width:0.5;" x1="1763.5" x2="2029.9023" y1="515" y2="515"/><text fill="#000000" font-family="sans-serif" font-size="14" lengthAdjust="spacing" textLength="203.0957" x="1768.5" y="534.1074">-railwayLines: List&lt;RailwayLine&gt;</text><line style="stroke:#181818;stroke-width:0.5;" x1="1763.5" x2="2029.9023" y1="541.6211" y2="541.6211"/><text fill="#000000" font-family="sans-serif" font-size="14" lengthAdjust="spacing" textLength="256.4023" x="1768.5" y="560.7285">+getAllRailwayLines(): List&lt;RailwayLine&gt;</text><text fill="#000000" font-family="sans-serif" font-size="14" lengthAdjust="spacing" textLength="20.9932" x="1768.5" y="579.3496">...()</text></g><!--class Scenario--><g id="elem_Scenario"><rect codeLine="53" fill="#F1F1F1" height="103.8633" id="Scenario" rx="2.5" ry="2.5" style="stroke:#181818;stroke-width:0.5;" width="180.458" x="412.5" y="483"/><ellipse cx="470.8516" cy="499" fill="#ADD1B2" rx="11" ry="11" style="stroke:#181818;stroke-width:1.0;"/><path d="M473.6172,494.875 Q473.7734,494.6563 473.9609,494.5469 Q474.1484,494.4375 474.3672,494.4375 Q474.7422,494.4375 474.9766,494.7031 Q475.2109,494.9531 475.2109,495.5625 L475.2109,497.0156 Q475.2109,497.625 474.9766,497.8906 Q474.7422,498.1563 474.3672,498.1563 Q474.0234,498.1563 473.8203,497.9531 Q473.6172,497.7656 473.5078,497.25 Q473.4609,496.8906 473.2734,496.7031 Q472.9453,496.3281 472.3359,496.1094 Q471.7266,495.8906 471.1016,495.8906 Q470.3359,495.8906 469.6953,496.2188 Q469.0703,496.5469 468.5703,497.2969 Q468.0859,498.0469 468.0859,499.0781 L468.0859,500.1719 Q468.0859,501.4063 468.9766,502.2344 Q469.8672,503.0469 471.4609,503.0469 Q472.3984,503.0469 473.0547,502.7969 Q473.4453,502.6406 473.8672,502.2031 Q474.1328,501.9375 474.2734,501.8594 Q474.4297,501.7813 474.6328,501.7813 Q474.9609,501.7813 475.2109,502.0469 Q475.4766,502.2969 475.4766,502.6406 Q475.4766,502.9844 475.1328,503.3906 Q474.6328,503.9688 473.8359,504.2969 Q472.7578,504.75 471.4609,504.75 Q469.9453,504.75 468.7422,504.125 Q467.7578,503.625 467.0703,502.5625 Q466.3828,501.4844 466.3828,500.2031 L466.3828,499.0469 Q466.3828,497.7188 466.9922,496.5781 Q467.6172,495.4219 468.7109,494.8125 Q469.8047,494.1875 471.0391,494.1875 Q471.7734,494.1875 472.4141,494.3594 Q473.0703,494.5156 473.6172,494.875 Z " fill="#000000"/><text fill="#000000" font-family="sans-serif" font-size="14" lengthAdjust="spacing" textLength="55.2549" x="491.3516" y="504.7969">Scenario</text><line style="stroke:#181818;stroke-width:0.5;" x1="413.5" x2="591.958" y1="515" y2="515"/><text fill="#000000" font-family="sans-serif" font-size="14" lengthAdjust="spacing" textLength="131.4961" x="418.5" y="534.1074">-trainList: List&lt;Train&gt;</text><line style="stroke:#181818;stroke-width:0.5;" x1="413.5" x2="591.958" y1="541.6211" y2="541.6211"/><text fill="#000000" font-family="sans-serif" font-size="14" lengthAdjust="spacing" textLength="168.458" x="418.5" y="560.7285">+getTrainList(): List&lt;Train&gt;</text><text fill="#000000" font-family="sans-serif" font-size="14" lengthAdjust="spacing" textLength="20.9932" x="418.5" y="579.3496">...()</text></g><!--class Simulation--><g id="elem_Simulation"><rect codeLine="59" fill="#F1F1F1" height="178.3477" id="Simulation" rx="2.5" ry="2.5" style="stroke:#181818;stroke-width:0.5;" width="200.7266" x="1155" y="95.5"/><ellipse cx="1218.4307" cy="111.5" fill="#ADD1B2" rx="11" ry="11" style="stroke:#181818;stroke-width:1.0;"/><path d="M1221.1963,107.375 Q1221.3525,107.1563 1221.54,107.0469 Q1221.7275,106.9375 1221.9463,106.9375 Q1222.3213,106.9375 1222.5557,107.2031 Q1222.79,107.4531 1222.79,108.0625 L1222.79,109.5156 Q1222.79,110.125 1222.5557,110.3906 Q1222.3213,110.6563 1221.9463,110.6563 Q1221.6025,110.6563 1221.3994,110.4531 Q1221.1963,110.2656 1221.0869,109.75 Q1221.04,109.3906 1220.8525,109.2031 Q1220.5244,108.8281 1219.915,108.6094 Q1219.3057,108.3906 1218.6807,108.3906 Q1217.915,108.3906 1217.2744,108.7188 Q1216.6494,109.0469 1216.1494,109.7969 Q1215.665,110.5469 1215.665,111.5781 L1215.665,112.6719 Q1215.665,113.9063 1216.5557,114.7344 Q1217.4463,115.5469 1219.04,115.5469 Q1219.9775,115.5469 1220.6338,115.2969 Q1221.0244,115.1406 1221.4463,114.7031 Q1221.7119,114.4375 1221.8525,114.3594 Q1222.0088,114.2813 1222.2119,114.2813 Q1222.54,114.2813 1222.79,114.5469 Q1223.0557,114.7969 1223.0557,115.1406 Q1223.0557,115.4844 1222.7119,115.8906 Q1222.2119,116.4688 1221.415,116.7969 Q1220.3369,117.25 1219.04,117.25 Q1217.5244,117.25 1216.3213,116.625 Q1215.3369,116.125 1214.6494,115.0625 Q1213.9619,113.9844 1213.9619,112.7031 L1213.9619,111.5469 Q1213.9619,110.2188 1214.5713,109.0781 Q1215.1963,107.9219 1216.29,107.3125 Q1217.3838,106.6875 1218.6182,106.6875 Q1219.3525,106.6875 1219.9932,106.8594 Q1220.6494,107.0156 1221.1963,107.375 Z " fill="#000000"/><text fill="#000000" font-family="sans-serif" font-size="14" lengthAdjust="spacing" textLength="65.3652" x="1238.9307" y="117.2969">Simulation</text><line style="stroke:#181818;stroke-width:0.5;" x1="1156" x2="1354.7266" y1="127.5" y2="127.5"/><text fill="#000000" font-family="sans-serif" font-size="14" lengthAdjust="spacing" textLength="101.9102" x="1161" y="146.6074">-currentTime: int</text><text fill="#000000" font-family="sans-serif" font-size="14" lengthAdjust="spacing" textLength="126.8477" x="1161" y="165.2285">-routes: List&lt;Route&gt;</text><text fill="#000000" font-family="sans-serif" font-size="14" lengthAdjust="spacing" textLength="135.3857" x="1161" y="183.8496">-trainList:  List&lt;Train&gt;</text><line style="stroke:#181818;stroke-width:0.5;" x1="1156" x2="1354.7266" y1="191.3633" y2="191.3633"/><text fill="#000000" font-family="sans-serif" font-size="14" lengthAdjust="spacing" textLength="137.3203" x="1161" y="210.4707">+getCurrentTime(): int</text><text fill="#000000" font-family="sans-serif" font-size="14" lengthAdjust="spacing" textLength="188.7266" x="1161" y="229.0918">+addRoute(route: Route): void</text><text fill="#000000" font-family="sans-serif" font-size="14" lengthAdjust="spacing" textLength="168.458" x="1161" y="247.7129">+getTrainList(): List&lt;Train&gt;</text><text fill="#000000" font-family="sans-serif" font-size="14" lengthAdjust="spacing" textLength="20.9932" x="1161" y="266.334">...()</text></g><!--class route--><g id="elem_Route"><rect codeLine="69" fill="#F1F1F1" height="215.5898" id="Route" rx="2.5" ry="2.5" style="stroke:#181818;stroke-width:0.5;" width="494.0635" x="1008.5" y="427"/><ellipse cx="1232.6025" cy="443" fill="#ADD1B2" rx="11" ry="11" style="stroke:#181818;stroke-width:1.0;"/><path d="M1235.3682,438.875 Q1235.5244,438.6563 1235.7119,438.5469 Q1235.8994,438.4375 1236.1182,438.4375 Q1236.4932,438.4375 1236.7275,438.7031 Q1236.9619,438.9531 1236.9619,439.5625 L1236.9619,441.0156 Q1236.9619,441.625 1236.7275,441.8906 Q1236.4932,442.1563 1236.1182,442.1563 Q1235.7744,442.1563 1235.5713,441.9531 Q1235.3682,441.7656 1235.2588,441.25 Q1235.2119,440.8906 1235.0244,440.7031 Q1234.6963,440.3281 1234.0869,440.1094 Q1233.4775,439.8906 1232.8525,439.8906 Q1232.0869,439.8906 1231.4463,440.2188 Q1230.8213,440.5469 1230.3213,441.2969 Q1229.8369,442.0469 1229.8369,443.0781 L1229.8369,444.1719 Q1229.8369,445.4063 1230.7275,446.2344 Q1231.6182,447.0469 1233.2119,447.0469 Q1234.1494,447.0469 1234.8057,446.7969 Q1235.1963,446.6406 1235.6182,446.2031 Q1235.8838,445.9375 1236.0244,445.8594 Q1236.1807,445.7813 1236.3838,445.7813 Q1236.7119,445.7813 1236.9619,446.0469 Q1237.2275,446.2969 1237.2275,446.6406 Q1237.2275,446.9844 1236.8838,447.3906 Q1236.3838,447.9688 1235.5869,448.2969 Q1234.5088,448.75 1233.2119,448.75 Q1231.6963,448.75 1230.4932,448.125 Q1229.5088,447.625 1228.8213,446.5625 Q1228.1338,445.4844 1228.1338,444.2031 L1228.1338,443.0469 Q1228.1338,441.7188 1228.7432,440.5781 Q1229.3682,439.4219 1230.4619,438.8125 Q1231.5557,438.1875 1232.79,438.1875 Q1233.5244,438.1875 1234.165,438.3594 Q1234.8213,438.5156 1235.3682,438.875 Z " fill="#000000"/><text fill="#000000" font-family="sans-serif" font-size="14" lengthAdjust="spacing" textLength="37.3584" x="1253.1025" y="448.7969">Route</text><line style="stroke:#181818;stroke-width:0.5;" x1="1009.5" x2="1501.5635" y1="459" y2="459"/><text fill="#000000" font-family="sans-serif" font-size="14" lengthAdjust="spacing" textLength="71.5723" x="1014.5" y="478.1074">-train: Train</text><text fill="#000000" font-family="sans-serif" font-size="14" lengthAdjust="spacing" textLength="142.4131" x="1014.5" y="496.7285">-stations: List&lt;Station&gt;</text><text fill="#000000" font-family="sans-serif" font-size="14" lengthAdjust="spacing" textLength="293.3916" x="1014.5" y="515.3496">-cargoesByStation: Map&lt;Station, List&lt;Cargo&gt;&gt;</text><text fill="#000000" font-family="sans-serif" font-size="14" lengthAdjust="spacing" textLength="122.9648" x="1014.5" y="533.9707">-generatingRate: int</text><line style="stroke:#181818;stroke-width:0.5;" x1="1009.5" x2="1501.5635" y1="541.4844" y2="541.4844"/><text fill="#000000" font-family="sans-serif" font-size="14" lengthAdjust="spacing" textLength="482.0635" x="1014.5" y="560.5918">+Route(train: Train, stations: List&lt;Station&gt;, startTime: int, generatingRate: int)</text><text fill="#000000" font-family="sans-serif" font-size="14" lengthAdjust="spacing" textLength="108.5342" x="1014.5" y="579.2129">+getTrain(): Train</text><text fill="#000000" font-family="sans-serif" font-size="14" lengthAdjust="spacing" textLength="177.0508" x="1014.5" y="597.834">+getStations(): List&lt;Station&gt;</text><text fill="#000000" font-family="sans-serif" font-size="14" lengthAdjust="spacing" textLength="328.8018" x="1014.5" y="616.4551">+getCargoesByStation(): Map&lt;Station, List&lt;Cargo&gt;&gt;</text><text fill="#000000" font-family="sans-serif" font-size="14" lengthAdjust="spacing" textLength="158.3682" x="1014.5" y="635.0762">+getGeneratingRate(): int</text></g><!--class Train--><g id="elem_Train"><rect codeLine="81" fill="#F1F1F1" height="103.8633" id="Train" rx="2.5" ry="2.5" style="stroke:#181818;stroke-width:0.5;" width="199.9268" x="1021.5" y="722"/><ellipse cx="1101.2651" cy="738" fill="#ADD1B2" rx="11" ry="11" style="stroke:#181818;stroke-width:1.0;"/><path d="M1104.0308,733.875 Q1104.187,733.6563 1104.3745,733.5469 Q1104.562,733.4375 1104.7808,733.4375 Q1105.1558,733.4375 1105.3901,733.7031 Q1105.6245,733.9531 1105.6245,734.5625 L1105.6245,736.0156 Q1105.6245,736.625 1105.3901,736.8906 Q1105.1558,737.1563 1104.7808,737.1563 Q1104.437,737.1563 1104.2339,736.9531 Q1104.0308,736.7656 1103.9214,736.25 Q1103.8745,735.8906 1103.687,735.7031 Q1103.3589,735.3281 1102.7495,735.1094 Q1102.1401,734.8906 1101.5151,734.8906 Q1100.7495,734.8906 1100.1089,735.2188 Q1099.4839,735.5469 1098.9839,736.2969 Q1098.4995,737.0469 1098.4995,738.0781 L1098.4995,739.1719 Q1098.4995,740.4063 1099.3901,741.2344 Q1100.2808,742.0469 1101.8745,742.0469 Q1102.812,742.0469 1103.4683,741.7969 Q1103.8589,741.6406 1104.2808,741.2031 Q1104.5464,740.9375 1104.687,740.8594 Q1104.8433,740.7813 1105.0464,740.7813 Q1105.3745,740.7813 1105.6245,741.0469 Q1105.8901,741.2969 1105.8901,741.6406 Q1105.8901,741.9844 1105.5464,742.3906 Q1105.0464,742.9688 1104.2495,743.2969 Q1103.1714,743.75 1101.8745,743.75 Q1100.3589,743.75 1099.1558,743.125 Q1098.1714,742.625 1097.4839,741.5625 Q1096.7964,740.4844 1096.7964,739.2031 L1096.7964,738.0469 Q1096.7964,736.7188 1097.4058,735.5781 Q1098.0308,734.4219 1099.1245,733.8125 Q1100.2183,733.1875 1101.4526,733.1875 Q1102.187,733.1875 1102.8276,733.3594 Q1103.4839,733.5156 1104.0308,733.875 Z " fill="#000000"/><text fill="#000000" font-family="sans-serif" font-size="14" lengthAdjust="spacing" textLength="31.8965" x="1121.7651" y="743.7969">Train</text><line style="stroke:#181818;stroke-width:0.5;" x1="1022.5" x2="1220.4268" y1="754" y2="754"/><line style="stroke:#181818;stroke-width:0.5;" x1="1022.5" x2="1220.4268" y1="762" y2="762"/><text fill="#000000" font-family="sans-serif" font-size="14" lengthAdjust="spacing" textLength="118.6582" x="1027.5" y="781.1074">+getName(): String</text><text fill="#000000" font-family="sans-serif" font-size="14" lengthAdjust="spacing" textLength="187.9268" x="1027.5" y="799.7285">+getLocomotive(): Locomotive</text><text fill="#000000" font-family="sans-serif" font-size="14" lengthAdjust="spacing" textLength="20.9932" x="1027.5" y="818.3496">...()</text></g><!--class Station--><g id="elem_Station"><rect codeLine="87" fill="#F1F1F1" height="85.2422" id="Station" rx="2.5" ry="2.5" style="stroke:#181818;stroke-width:0.5;" width="130.6582" x="1257" y="731.5"/><ellipse cx="1296.7825" cy="747.5" fill="#ADD1B2" rx="11" ry="11" style="stroke:#181818;stroke-width:1.0;"/><path d="M1299.5481,743.375 Q1299.7044,743.1563 1299.8919,743.0469 Q1300.0794,742.9375 1300.2981,742.9375 Q1300.6731,742.9375 1300.9075,743.2031 Q1301.1419,743.4531 1301.1419,744.0625 L1301.1419,745.5156 Q1301.1419,746.125 1300.9075,746.3906 Q1300.6731,746.6563 1300.2981,746.6563 Q1299.9544,746.6563 1299.7513,746.4531 Q1299.5481,746.2656 1299.4388,745.75 Q1299.3919,745.3906 1299.2044,745.2031 Q1298.8763,744.8281 1298.2669,744.6094 Q1297.6575,744.3906 1297.0325,744.3906 Q1296.2669,744.3906 1295.6263,744.7188 Q1295.0013,745.0469 1294.5013,745.7969 Q1294.0169,746.5469 1294.0169,747.5781 L1294.0169,748.6719 Q1294.0169,749.9063 1294.9075,750.7344 Q1295.7981,751.5469 1297.3919,751.5469 Q1298.3294,751.5469 1298.9856,751.2969 Q1299.3763,751.1406 1299.7981,750.7031 Q1300.0638,750.4375 1300.2044,750.3594 Q1300.3606,750.2813 1300.5638,750.2813 Q1300.8919,750.2813 1301.1419,750.5469 Q1301.4075,750.7969 1301.4075,751.1406 Q1301.4075,751.4844 1301.0638,751.8906 Q1300.5638,752.4688 1299.7669,752.7969 Q1298.6888,753.25 1297.3919,753.25 Q1295.8763,753.25 1294.6731,752.625 Q1293.6888,752.125 1293.0013,751.0625 Q1292.3138,749.9844 1292.3138,748.7031 L1292.3138,747.5469 Q1292.3138,746.2188 1292.9231,745.0781 Q1293.5481,743.9219 1294.6419,743.3125 Q1295.7356,742.6875 1296.97,742.6875 Q1297.7044,742.6875 1298.345,742.8594 Q1299.0013,743.0156 1299.5481,743.375 Z " fill="#000000"/><text fill="#000000" font-family="sans-serif" font-size="14" lengthAdjust="spacing" textLength="43.5859" x="1316.2897" y="753.2969">Station</text><line style="stroke:#181818;stroke-width:0.5;" x1="1258" x2="1386.6582" y1="763.5" y2="763.5"/><line style="stroke:#181818;stroke-width:0.5;" x1="1258" x2="1386.6582" y1="771.5" y2="771.5"/><text fill="#000000" font-family="sans-serif" font-size="14" lengthAdjust="spacing" textLength="118.6582" x="1263" y="790.6074">+getName(): String</text><text fill="#000000" font-family="sans-serif" font-size="14" lengthAdjust="spacing" textLength="20.9932" x="1263" y="809.2285">...()</text></g><!--class FuelType--><g id="elem_FuelType"><rect codeLine="92" fill="#F1F1F1" height="103.8633" id="FuelType" rx="2.5" ry="2.5" style="stroke:#181818;stroke-width:0.5;" width="103.0137" x="628" y="483"/><ellipse cx="648.6949" cy="499" fill="#EB937F" rx="11" ry="11" style="stroke:#181818;stroke-width:1.0;"/><path d="M647.5542,499.7969 L647.5542,502.2969 L651.8824,502.2969 L651.8824,501.375 Q651.8824,500.7656 652.1167,500.5 Q652.3667,500.2344 652.7417,500.2344 Q653.1167,500.2344 653.3511,500.5 Q653.5855,500.7656 653.5855,501.375 L653.5855,504 L645.5855,504 Q644.9605,504 644.6949,503.7656 Q644.4449,503.5313 644.4449,503.1406 Q644.4449,502.7656 644.7105,502.5313 Q644.9761,502.2969 645.5855,502.2969 L645.8511,502.2969 L645.8511,495.6406 L645.5855,495.6406 Q644.9605,495.6406 644.6949,495.4063 Q644.4449,495.1719 644.4449,494.7813 Q644.4449,494.4063 644.6949,494.1719 Q644.9605,493.9375 645.5855,493.9375 L653.2105,493.9375 L653.2105,496.5313 Q653.2105,497.1406 652.9761,497.4063 Q652.7574,497.6563 652.3667,497.6563 Q651.9917,497.6563 651.7574,497.4063 Q651.523,497.1406 651.523,496.5313 L651.523,495.6406 L647.5542,495.6406 L647.5542,498.0938 L649.0386,498.0938 Q649.0386,497.4375 649.1636,497.25 Q649.4292,496.8438 649.898,496.8438 Q650.273,496.8438 650.5074,497.1094 Q650.7417,497.3594 650.7417,497.9688 L650.7417,499.9375 Q650.7417,500.4844 650.6167,500.6719 Q650.3511,501.0625 649.898,501.0625 Q649.4292,501.0625 649.1636,500.6563 Q649.0386,500.4688 649.0386,499.7969 L647.5542,499.7969 Z " fill="#000000"/><text fill="#000000" font-family="sans-serif" font-size="14" lengthAdjust="spacing" textLength="58.3584" x="663.9604" y="504.7969">FuelType</text><line style="stroke:#181818;stroke-width:0.5;" x1="629" x2="730.0137" y1="515" y2="515"/><text fill="#000000" font-family="sans-serif" font-size="14" lengthAdjust="spacing" textLength="48.2275" x="634" y="534.1074">STEAM</text><text fill="#000000" font-family="sans-serif" font-size="14" lengthAdjust="spacing" textLength="49.7998" x="634" y="552.7285">DIESEL</text><text fill="#000000" font-family="sans-serif" font-size="14" lengthAdjust="spacing" textLength="91.0137" x="634" y="571.3496">ELECTRICITY</text><line style="stroke:#181818;stroke-width:0.5;" x1="629" x2="730.0137" y1="578.8633" y2="578.8633"/></g><!--class RailwayLineType--><g id="elem_RailwayLineType"><rect codeLine="98" fill="#F1F1F1" height="122.4844" id="RailwayLineType" rx="2.5" ry="2.5" style="stroke:#181818;stroke-width:0.5;" width="207.2686" x="766" y="474"/><ellipse cx="812.0811" cy="490" fill="#EB937F" rx="11" ry="11" style="stroke:#181818;stroke-width:1.0;"/><path d="M810.9404,490.7969 L810.9404,493.2969 L815.2686,493.2969 L815.2686,492.375 Q815.2686,491.7656 815.5029,491.5 Q815.7529,491.2344 816.1279,491.2344 Q816.5029,491.2344 816.7373,491.5 Q816.9717,491.7656 816.9717,492.375 L816.9717,495 L808.9717,495 Q808.3467,495 808.0811,494.7656 Q807.8311,494.5313 807.8311,494.1406 Q807.8311,493.7656 808.0967,493.5313 Q808.3623,493.2969 808.9717,493.2969 L809.2373,493.2969 L809.2373,486.6406 L808.9717,486.6406 Q808.3467,486.6406 808.0811,486.4063 Q807.8311,486.1719 807.8311,485.7813 Q807.8311,485.4063 808.0811,485.1719 Q808.3467,484.9375 808.9717,484.9375 L816.5967,484.9375 L816.5967,487.5313 Q816.5967,488.1406 816.3623,488.4063 Q816.1436,488.6563 815.7529,488.6563 Q815.3779,488.6563 815.1436,488.4063 Q814.9092,488.1406 814.9092,487.5313 L814.9092,486.6406 L810.9404,486.6406 L810.9404,489.0938 L812.4248,489.0938 Q812.4248,488.4375 812.5498,488.25 Q812.8154,487.8438 813.2842,487.8438 Q813.6592,487.8438 813.8936,488.1094 Q814.1279,488.3594 814.1279,488.9688 L814.1279,490.9375 Q814.1279,491.4844 814.0029,491.6719 Q813.7373,492.0625 813.2842,492.0625 Q812.8154,492.0625 812.5498,491.6563 Q812.4248,491.4688 812.4248,490.7969 L810.9404,490.7969 Z " fill="#000000"/><text fill="#000000" font-family="sans-serif" font-size="14" lengthAdjust="spacing" textLength="106.6064" x="832.5811" y="495.7969">RailwayLineType</text><line style="stroke:#181818;stroke-width:0.5;" x1="767" x2="972.2686" y1="506" y2="506"/><text fill="#000000" font-family="sans-serif" font-size="14" lengthAdjust="spacing" textLength="150.1514" x="772" y="525.1074">SINGLE_ELECTRIFIED</text><text fill="#000000" font-family="sans-serif" font-size="14" lengthAdjust="spacing" textLength="156.3721" x="772" y="543.7285">DOUBLE_ELECTRIFIED</text><text fill="#000000" font-family="sans-serif" font-size="14" lengthAdjust="spacing" textLength="189.0479" x="772" y="562.3496">SINGLE_NON_ELECTRIFIED</text><text fill="#000000" font-family="sans-serif" font-size="14" lengthAdjust="spacing" textLength="195.2686" x="772" y="580.9707">DOUBLE_NON_ELECTRIFIED</text><line style="stroke:#181818;stroke-width:0.5;" x1="767" x2="972.2686" y1="588.4844" y2="588.4844"/></g><!--class Locomotive--><g id="elem_Locomotive"><rect fill="#F1F1F1" height="48" id="Locomotive" rx="2.5" ry="2.5" style="stroke:#181818;stroke-width:0.5;" width="103.5928" x="1069.5" y="905"/><ellipse cx="1084.5" cy="921" fill="#ADD1B2" rx="11" ry="11" style="stroke:#181818;stroke-width:1.0;"/><path d="M1087.2656,916.875 Q1087.4219,916.6563 1087.6094,916.5469 Q1087.7969,916.4375 1088.0156,916.4375 Q1088.3906,916.4375 1088.625,916.7031 Q1088.8594,916.9531 1088.8594,917.5625 L1088.8594,919.0156 Q1088.8594,919.625 1088.625,919.8906 Q1088.3906,920.1563 1088.0156,920.1563 Q1087.6719,920.1563 1087.4688,919.9531 Q1087.2656,919.7656 1087.1563,919.25 Q1087.1094,918.8906 1086.9219,918.7031 Q1086.5938,918.3281 1085.9844,918.1094 Q1085.375,917.8906 1084.75,917.8906 Q1083.9844,917.8906 1083.3438,918.2188 Q1082.7188,918.5469 1082.2188,919.2969 Q1081.7344,920.0469 1081.7344,921.0781 L1081.7344,922.1719 Q1081.7344,923.4063 1082.625,924.2344 Q1083.5156,925.0469 1085.1094,925.0469 Q1086.0469,925.0469 1086.7031,924.7969 Q1087.0938,924.6406 1087.5156,924.2031 Q1087.7813,923.9375 1087.9219,923.8594 Q1088.0781,923.7813 1088.2813,923.7813 Q1088.6094,923.7813 1088.8594,924.0469 Q1089.125,924.2969 1089.125,924.6406 Q1089.125,924.9844 1088.7813,925.3906 Q1088.2813,925.9688 1087.4844,926.2969 Q1086.4063,926.75 1085.1094,926.75 Q1083.5938,926.75 1082.3906,926.125 Q1081.4063,925.625 1080.7188,924.5625 Q1080.0313,923.4844 1080.0313,922.2031 L1080.0313,921.0469 Q1080.0313,919.7188 1080.6406,918.5781 Q1081.2656,917.4219 1082.3594,916.8125 Q1083.4531,916.1875 1084.6875,916.1875 Q1085.4219,916.1875 1086.0625,916.3594 Q1086.7188,916.5156 1087.2656,916.875 Z " fill="#000000"/><text fill="#000000" font-family="sans-serif" font-size="14" lengthAdjust="spacing" textLength="71.5928" x="1098.5" y="926.7969">Locomotive</text><line style="stroke:#181818;stroke-width:0.5;" x1="1070.5" x2="1172.0928" y1="937" y2="937"/><line style="stroke:#181818;stroke-width:0.5;" x1="1070.5" x2="1172.0928" y1="945" y2="945"/></g><!--link CreateRouteUI to CreateRouteController--><g id="link_CreateRouteUI_CreateRouteController"><path codeLine="105" d="M422.15,184.5 C431.18,184.5 437.37,184.5 451.12,184.5 " fill="none" id="CreateRouteUI-to-CreateRouteController" style="stroke:#181818;stroke-width:1.0;stroke-dasharray:7.0,7.0;"/><polygon fill="#181818" points="457.12,184.5,448.12,180.5,452.12,184.5,448.12,188.5,457.12,184.5" style="stroke:#181818;stroke-width:1.0;"/></g><!--link CreateRouteController to Map--><g id="link_CreateRouteController_Map"><path codeLine="106" d="M1119.53,23.28 C1141.44,12.61 1155,6 1155,6 C1155,6 1356,6 1356,6 C1356,6 1465.1293,76.4456 1546.7393,129.1356 " fill="none" id="CreateRouteController-to-Map" style="stroke:#181818;stroke-width:1.0;stroke-dasharray:7.0,7.0;"/><polygon fill="#181818" points="1551.78,132.39,1546.3886,124.1479,1547.5794,129.678,1542.0493,130.8688,1551.78,132.39" style="stroke:#181818;stroke-width:1.0;"/></g><!--link Map to StationRepository--><g id="link_Map_StationRepository"><path codeLine="107" d="M1632.5,236.55 C1632.5,302.53 1632.5,410.77 1632.5,476.82 " fill="none" id="Map-to-StationRepository" style="stroke:#181818;stroke-width:1.0;"/><polygon fill="#181818" points="1632.5,482.82,1636.5,473.82,1632.5,477.82,1628.5,473.82,1632.5,482.82" style="stroke:#181818;stroke-width:1.0;"/><text fill="#000000" font-family="sans-serif" font-size="13" lengthAdjust="spacing" textLength="100.439" x="1633.5" y="393.0283">stationRepository</text><text fill="#000000" font-family="sans-serif" font-size="13" lengthAdjust="spacing" textLength="7.23" x="1625.0417" y="471.7232">1</text></g><!--link Map to RailwayLineRepository--><g id="link_Map_RailwayLineRepository"><path codeLine="108" d="M1671.17,236.55 C1721.15,302.53 1804.0668,411.9875 1854.1068,478.0375 " fill="none" id="Map-to-RailwayLineRepository" style="stroke:#181818;stroke-width:1.0;"/><polygon fill="#181818" points="1857.73,482.82,1855.4835,473.2308,1854.7106,478.8346,1849.1068,478.0618,1857.73,482.82" style="stroke:#181818;stroke-width:1.0;"/><text fill="#000000" font-family="sans-serif" font-size="13" lengthAdjust="spacing" textLength="127.1689" x="1788.5" y="393.0283">railwayLineRepository</text><text fill="#000000" font-family="sans-serif" font-size="13" lengthAdjust="spacing" textLength="7.23" x="1845.0384" y="471.7232">1</text></g><!--link CreateRouteController to Scenario--><g id="link_CreateRouteController_Scenario"><path codeLine="109" d="M655.13,348.02 C615.08,396.82 577.8264,442.212 548.3964,478.072 " fill="none" id="CreateRouteController-to-Scenario" style="stroke:#181818;stroke-width:1.0;stroke-dasharray:7.0,7.0;"/><polygon fill="#181818" points="544.59,482.71,553.3916,478.2905,547.762,478.845,547.2076,473.2154,544.59,482.71" style="stroke:#181818;stroke-width:1.0;"/></g><!--link CreateRouteController to FuelType--><g id="link_CreateRouteController_FuelType"><path codeLine="110" d="M737.67,348.02 C722.41,396.82 708.5517,441.1237 697.3317,476.9837 " fill="none" id="CreateRouteController-to-FuelType" style="stroke:#181818;stroke-width:1.0;stroke-dasharray:7.0,7.0;"/><polygon fill="#181818" points="695.54,482.71,702.045,475.3151,697.033,477.9381,694.41,472.9262,695.54,482.71" style="stroke:#181818;stroke-width:1.0;"/></g><!--link CreateRouteController to RailwayLineType--><g id="link_CreateRouteController_RailwayLineType"><path codeLine="111" d="M826.27,348.02 C836.71,392.91 846.0205,433.0061 854.1605,467.9961 " fill="none" id="CreateRouteController-to-RailwayLineType" style="stroke:#181818;stroke-width:1.0;stroke-dasharray:7.0,7.0;"/><polygon fill="#181818" points="855.52,473.84,857.3767,464.1677,854.3871,468.97,849.5848,465.9804,855.52,473.84" style="stroke:#181818;stroke-width:1.0;"/></g><!--link CreateRouteController to Simulation--><g id="link_CreateRouteController_Simulation"><path codeLine="112" d="M1119.55,184.5 C1129.12,184.5 1135.42,184.5 1148.69,184.5 " fill="none" id="CreateRouteController-to-Simulation" style="stroke:#181818;stroke-width:1.0;stroke-dasharray:7.0,7.0;"/><polygon fill="#181818" points="1154.69,184.5,1145.69,180.5,1149.69,184.5,1145.69,188.5,1154.69,184.5" style="stroke:#181818;stroke-width:1.0;"/></g><!--link Simulation to route--><g id="link_Simulation_Route"><path codeLine="113" d="M1255.5,273.89 C1255.5,320.37 1255.5,371.72 1255.5,420.73 " fill="none" id="Simulation-to-Route" style="stroke:#181818;stroke-width:1.0;"/><polygon fill="#181818" points="1255.5,426.73,1259.5,417.73,1255.5,421.73,1251.5,417.73,1255.5,426.73" style="stroke:#181818;stroke-width:1.0;"/><text fill="#000000" font-family="sans-serif" font-size="13" lengthAdjust="spacing" textLength="36.1309" x="1256.5" y="393.0283">routes</text><text fill="#000000" font-family="sans-serif" font-size="13" lengthAdjust="spacing" textLength="5.0591" x="1250.3241" y="415.5726">*</text></g><!--link route to Train--><g id="link_Route_Train"><path codeLine="114" d="M1194.97,643.06 C1179.43,670.54 1166.3832,693.6171 1153.2932,716.7671 " fill="none" id="Route-to-Train" style="stroke:#181818;stroke-width:1.0;"/><polygon fill="#181818" points="1150.34,721.99,1158.2518,716.1245,1152.801,717.6376,1151.2879,712.1869,1150.34,721.99" style="stroke:#181818;stroke-width:1.0;"/><text fill="#000000" font-family="sans-serif" font-size="13" lengthAdjust="spacing" textLength="25.2891" x="1177.5" y="688.0283">train</text><text fill="#000000" font-family="sans-serif" font-size="13" lengthAdjust="spacing" textLength="7.23" x="1146.7654" y="710.916">1</text></g><!--link route to Station--><g id="link_Route_Station"><path codeLine="115" d="M1285.77,643.06 C1294.61,674.34 1302.1287,700.916 1309.0787,725.516 " fill="none" id="Route-to-Station" style="stroke:#181818;stroke-width:1.0;"/><polygon fill="#181818" points="1310.71,731.29,1312.1124,721.5415,1309.3506,726.4783,1304.4138,723.7165,1310.71,731.29" style="stroke:#181818;stroke-width:1.0;"/><text fill="#000000" font-family="sans-serif" font-size="13" lengthAdjust="spacing" textLength="44.8018" x="1299.5" y="688.0283">stations</text><text fill="#000000" font-family="sans-serif" font-size="13" lengthAdjust="spacing" textLength="5.0591" x="1303.4645" y="720.1606">*</text></g><!--link Train to Locomotive--><g id="link_Train_Locomotive"><path codeLine="116" d="M1121.5,826.37 C1121.5,852.94 1121.5,878.05 1121.5,898.78 " fill="none" id="Train-to-Locomotive" style="stroke:#181818;stroke-width:1.0;"/><polygon fill="#181818" points="1121.5,904.78,1125.5,895.78,1121.5,899.78,1117.5,895.78,1121.5,904.78" style="stroke:#181818;stroke-width:1.0;"/><text fill="#000000" font-family="sans-serif" font-size="13" lengthAdjust="spacing" textLength="62.1372" x="1122.5" y="871.0283">locomotive</text><text fill="#000000" font-family="sans-serif" font-size="13" lengthAdjust="spacing" textLength="7.23" x="1113.7245" y="893.8683">1</text></g><!--SRC=[dLPBR-8m4BxpAwoUqYwWtMjK8L5Akv4eNP7qiAUL6morQcna6ogssl- -ZkDNWaDfUw2svvlNvvc9nIkcMyZX1cnX-GhNA9S7WW17fOHqJL1FE81uWKlsXkaQh20HeOHWYkHXYy2MaKEr2MGbWKACfUJuUITHLZAQuxy8VE_rj0HCE88IBPWIFcNWlGVKtm0ecEIC4CJJ435nnnhthQcTv7Yp8r1YHe5mopx8IqGXnmp0KkuWiTjBOuFlQ79f_2xHIeL_ZoZYIfck5yfwSfa2J6K3eJqcaaDCKr1K_nHeXeMypgNsEhA9l30cq1tcGXf9ijeXKYYsKd1dLahN21jQscxbNIzw_oAKUK8STJvpPTMjZR39GEgeQOWVu3O5wkUOO-ykYRlfTtgmRA-H9QAYAudIfb4BYCaRFCmKsmraS1wWDKKDd3u943x82j9YHYF6ZT0rAgIdnkoLU_XCKELV5CnUgf2M2sc8Y5vpLmRGcZNgYcYgMb2jnATCjwflZpXU7RAL3lQNgXqaCdewv6Q2AJWEkJEDGUlQnCt1nfT0Gep18zrFKcLpCb6Bdt1VnvgSISitKFgARlHm7_3ghANKLsc5yq1F0sLvp_3IDwNg5zE2NwjnqLtWm-5G3IZdoPXPe2qJM39-YFWLIKT5c4iNCMdBJn17tDUOaFCI600UuCvDqqxjzpExV02a5HyBsyRzbo8mFzbnZgWiyAOrz4ilyCUgQvVBkeXCsUYDhGoJU7NaKgusew-ayr4-shBx18GrVSQzg_mWNxEgNtCx4rGvNxkve5Kc5MRaE_se9KnUiRRgyAu5tDCQxxGMN_w3U6RHrrVRoh22divHgyLV0evs7KTOGNDObqwktZjqxSzdh6GR9l5UI_tkH7z_ODOf8RhRk85dbF9YEdxGgzjicazdUZcTJIV58fjanM-d5pHXg9xDxsVJFqRXBflUrhOUdsuYnmOzVvntQRH5odlpsJSSTRpouayT1Q-U9zN87Gn6uEB7HMGefhRg_5b38pxUqd1K1PhnG0Og4lT6w8ROspa1QLr4T-B1moKOOZgfgmip1r8pTdhrrcPSLsjQZuTGTkNuywo9NWstohvc5ORu0luF]--></g></svg>