<svg xmlns="http://www.w3.org/2000/svg" xmlns:xlink="http://www.w3.org/1999/xlink" contentStyleType="text/css" height="1286px" preserveAspectRatio="none" style="width:1984px;height:1286px;background:#FFFFFF;" version="1.1" viewBox="0 0 1984 1286" width="1984px" zoomAndPan="magnify"><defs/><g><rect fill="#FFFFFF" height="1091.6035" style="stroke:#181818;stroke-width:1.0;" width="10" x="37.8413" y="93.6211"/><rect fill="#FFFFFF" height="1068.3125" style="stroke:#181818;stroke-width:1.0;" width="10" x="302.0146" y="116.9121"/><rect fill="#FFFFFF" height="62.582" style="stroke:#181818;stroke-width:1.0;" width="10" x="660.2051" y="192.4941"/><rect fill="#FFFFFF" height="93.873" style="stroke:#181818;stroke-width:1.0;" width="10" x="660.2051" y="437.5313"/><rect fill="#FFFFFF" height="138.1641" style="stroke:#181818;stroke-width:1.0;" width="10" x="660.2051" y="651.5684"/><rect fill="#FFFFFF" height="219.0371" style="stroke:#181818;stroke-width:1.0;" width="10" x="660.2051" y="934.8965"/><rect fill="#FFFFFF" height="62.582" style="stroke:#181818;stroke-width:1.0;" width="10" x="1131.5923" y="468.8223"/><rect fill="#FFFFFF" height="62.582" style="stroke:#181818;stroke-width:1.0;" width="10" x="1131.5923" y="727.1504"/><rect fill="#FFFFFF" height="62.582" style="stroke:#181818;stroke-width:1.0;" width="10" x="1527.0479" y="966.1875"/><rect fill="none" height="251.3281" style="stroke:#000000;stroke-width:1.5;" width="1494.4238" x="10" y="608.9863"/><line style="stroke:#181818;stroke-width:0.5;stroke-dasharray:5.0,5.0;" x1="42" x2="42" y1="83.6211" y2="1203.2246"/><line style="stroke:#181818;stroke-width:0.5;stroke-dasharray:5.0,5.0;" x1="306.3804" x2="306.3804" y1="83.6211" y2="1203.2246"/><line style="stroke:#181818;stroke-width:0.5;stroke-dasharray:5.0,5.0;" x1="664.2261" x2="664.2261" y1="83.6211" y2="1203.2246"/><line style="stroke:#181818;stroke-width:0.5;stroke-dasharray:5.0,5.0;" x1="978.6309" x2="978.6309" y1="83.6211" y2="1203.2246"/><line style="stroke:#181818;stroke-width:0.5;stroke-dasharray:5.0,5.0;" x1="1066.8857" x2="1066.8857" y1="83.6211" y2="1203.2246"/><line style="stroke:#181818;stroke-width:0.5;stroke-dasharray:5.0,5.0;" x1="1136.0303" x2="1136.0303" y1="83.6211" y2="1203.2246"/><line style="stroke:#181818;stroke-width:0.5;stroke-dasharray:5.0,5.0;" x1="1259.7422" x2="1259.7422" y1="83.6211" y2="1203.2246"/><line style="stroke:#181818;stroke-width:0.5;stroke-dasharray:5.0,5.0;" x1="1414.1348" x2="1414.1348" y1="83.6211" y2="1203.2246"/><line style="stroke:#181818;stroke-width:0.5;stroke-dasharray:5.0,5.0;" x1="1531.4238" x2="1531.4238" y1="83.6211" y2="1203.2246"/><line style="stroke:#181818;stroke-width:0.5;stroke-dasharray:5.0,5.0;" x1="1740.4546" x2="1740.4546" y1="83.6211" y2="1203.2246"/><line style="stroke:#181818;stroke-width:0.5;stroke-dasharray:5.0,5.0;" x1="1806.2407" x2="1806.2407" y1="83.6211" y2="1203.2246"/><line style="stroke:#181818;stroke-width:0.5;stroke-dasharray:5.0,5.0;" x1="1932.6172" x2="1932.6172" y1="83.6211" y2="1203.2246"/><text fill="#000000" font-family="sans-serif" font-size="14" lengthAdjust="spacing" textLength="39.6826" x="20" y="80.1074">Player</text><ellipse cx="42.8413" cy="13.5" fill="#E2E2F0" rx="8" ry="8" style="stroke:#181818;stroke-width:0.5;"/><path d="M42.8413,21.5 L42.8413,48.5 M29.8413,29.5 L55.8413,29.5 M42.8413,48.5 L29.8413,63.5 M42.8413,48.5 L55.8413,63.5 " fill="none" style="stroke:#181818;stroke-width:0.5;"/><text fill="#000000" font-family="sans-serif" font-size="14" lengthAdjust="spacing" textLength="39.6826" x="20" y="1217.332">Player</text><ellipse cx="42.8413" cy="1229.3457" fill="#E2E2F0" rx="8" ry="8" style="stroke:#181818;stroke-width:0.5;"/><path d="M42.8413,1237.3457 L42.8413,1264.3457 M29.8413,1245.3457 L55.8413,1245.3457 M42.8413,1264.3457 L29.8413,1279.3457 M42.8413,1264.3457 L55.8413,1279.3457 " fill="none" style="stroke:#181818;stroke-width:0.5;"/><rect fill="#E2E2F0" height="32.6211" rx="2.5" ry="2.5" style="stroke:#181818;stroke-width:0.5;" width="111.2686" x="251.3804" y="50"/><text fill="#000000" font-family="sans-serif" font-size="14" lengthAdjust="spacing" textLength="97.2686" x="258.3804" y="72.1074">:CreateRouteUI</text><rect fill="#E2E2F0" height="32.6211" rx="2.5" ry="2.5" style="stroke:#181818;stroke-width:0.5;" width="111.2686" x="251.3804" y="1202.2246"/><text fill="#000000" font-family="sans-serif" font-size="14" lengthAdjust="spacing" textLength="97.2686" x="258.3804" y="1224.332">:CreateRouteUI</text><rect fill="#E2E2F0" height="32.6211" rx="2.5" ry="2.5" style="stroke:#181818;stroke-width:0.5;" width="157.958" x="586.2261" y="50"/><text fill="#000000" font-family="sans-serif" font-size="14" lengthAdjust="spacing" textLength="143.958" x="593.2261" y="72.1074">:CreateRouteController</text><rect fill="#E2E2F0" height="32.6211" rx="2.5" ry="2.5" style="stroke:#181818;stroke-width:0.5;" width="157.958" x="586.2261" y="1202.2246"/><text fill="#000000" font-family="sans-serif" font-size="14" lengthAdjust="spacing" textLength="143.958" x="593.2261" y="1224.332">:CreateRouteController</text><rect fill="#E2E2F0" height="51.2422" rx="2.5" ry="2.5" style="stroke:#181818;stroke-width:0.5;" width="83.2549" x="937.6309" y="31.3789"/><text fill="#000000" font-family="sans-serif" font-size="14" lengthAdjust="spacing" textLength="63.0273" x="947.7446" y="53.4863">simulation</text><text fill="#000000" font-family="sans-serif" font-size="14" lengthAdjust="spacing" textLength="69.2549" x="944.6309" y="72.1074">:Simulation</text><rect fill="#E2E2F0" height="51.2422" rx="2.5" ry="2.5" style="stroke:#181818;stroke-width:0.5;" width="83.2549" x="937.6309" y="1202.2246"/><text fill="#000000" font-family="sans-serif" font-size="14" lengthAdjust="spacing" textLength="63.0273" x="947.7446" y="1224.332">simulation</text><text fill="#000000" font-family="sans-serif" font-size="14" lengthAdjust="spacing" textLength="69.2549" x="944.6309" y="1242.9531">:Simulation</text><rect fill="#E2E2F0" height="51.2422" rx="2.5" ry="2.5" style="stroke:#181818;stroke-width:0.5;" width="73.1445" x="1030.8857" y="31.3789"/><text fill="#000000" font-family="sans-serif" font-size="14" lengthAdjust="spacing" textLength="52.917" x="1040.9995" y="53.4863">scenario</text><text fill="#000000" font-family="sans-serif" font-size="14" lengthAdjust="spacing" textLength="59.1445" x="1037.8857" y="72.1074">:Scenario</text><rect fill="#E2E2F0" height="51.2422" rx="2.5" ry="2.5" style="stroke:#181818;stroke-width:0.5;" width="73.1445" x="1030.8857" y="1202.2246"/><text fill="#000000" font-family="sans-serif" font-size="14" lengthAdjust="spacing" textLength="52.917" x="1040.9995" y="1224.332">scenario</text><text fill="#000000" font-family="sans-serif" font-size="14" lengthAdjust="spacing" textLength="59.1445" x="1037.8857" y="1242.9531">:Scenario</text><rect fill="#E2E2F0" height="51.2422" rx="2.5" ry="2.5" style="stroke:#181818;stroke-width:0.5;" width="45.124" x="1114.0303" y="31.3789"/><text fill="#000000" font-family="sans-serif" font-size="14" lengthAdjust="spacing" textLength="27.2344" x="1122.9751" y="53.4863">map</text><text fill="#000000" font-family="sans-serif" font-size="14" lengthAdjust="spacing" textLength="31.124" x="1121.0303" y="72.1074">:Map</text><rect fill="#E2E2F0" height="51.2422" rx="2.5" ry="2.5" style="stroke:#181818;stroke-width:0.5;" width="45.124" x="1114.0303" y="1202.2246"/><text fill="#000000" font-family="sans-serif" font-size="14" lengthAdjust="spacing" textLength="27.2344" x="1122.9751" y="1224.332">map</text><text fill="#000000" font-family="sans-serif" font-size="14" lengthAdjust="spacing" textLength="31.124" x="1121.0303" y="1242.9531">:Map</text><rect fill="#E2E2F0" height="51.2422" rx="2.5" ry="2.5" style="stroke:#181818;stroke-width:0.5;" width="128.3926" x="1195.7422" y="31.3789"/><text fill="#000000" font-family="sans-serif" font-size="14" lengthAdjust="spacing" textLength="108.165" x="1205.856" y="53.4863">stationRepository</text><text fill="#000000" font-family="sans-serif" font-size="14" lengthAdjust="spacing" textLength="114.3926" x="1202.7422" y="72.1074">:StationRepository</text><rect fill="#E2E2F0" height="51.2422" rx="2.5" ry="2.5" style="stroke:#181818;stroke-width:0.5;" width="128.3926" x="1195.7422" y="1202.2246"/><text fill="#000000" font-family="sans-serif" font-size="14" lengthAdjust="spacing" textLength="108.165" x="1205.856" y="1224.332">stationRepository</text><text fill="#000000" font-family="sans-serif" font-size="14" lengthAdjust="spacing" textLength="114.3926" x="1202.7422" y="1242.9531">:StationRepository</text><rect fill="#E2E2F0" height="51.2422" rx="2.5" ry="2.5" style="stroke:#181818;stroke-width:0.5;" width="160.2891" x="1334.1348" y="31.3789"/><text fill="#000000" font-family="sans-serif" font-size="14" lengthAdjust="spacing" textLength="136.9512" x="1345.8037" y="53.4863">railwayLineRepository</text><text fill="#000000" font-family="sans-serif" font-size="14" lengthAdjust="spacing" textLength="146.2891" x="1341.1348" y="72.1074">:RailwayLineRepository</text><rect fill="#E2E2F0" height="51.2422" rx="2.5" ry="2.5" style="stroke:#181818;stroke-width:0.5;" width="160.2891" x="1334.1348" y="1202.2246"/><text fill="#000000" font-family="sans-serif" font-size="14" lengthAdjust="spacing" textLength="136.9512" x="1345.8037" y="1224.332">railwayLineRepository</text><text fill="#000000" font-family="sans-serif" font-size="14" lengthAdjust="spacing" textLength="146.2891" x="1341.1348" y="1242.9531">:RailwayLineRepository</text><rect fill="#E2E2F0" height="51.2422" rx="2.5" ry="2.5" style="stroke:#181818;stroke-width:0.5;" width="55.248" x="1504.4238" y="31.3789"/><text fill="#000000" font-family="sans-serif" font-size="14" lengthAdjust="spacing" textLength="31.9102" x="1516.0928" y="53.4863">route</text><text fill="#000000" font-family="sans-serif" font-size="14" lengthAdjust="spacing" textLength="41.248" x="1511.4238" y="72.1074">:Route</text><rect fill="#E2E2F0" height="51.2422" rx="2.5" ry="2.5" style="stroke:#181818;stroke-width:0.5;" width="55.248" x="1504.4238" y="1202.2246"/><text fill="#000000" font-family="sans-serif" font-size="14" lengthAdjust="spacing" textLength="31.9102" x="1516.0928" y="1224.332">route</text><text fill="#000000" font-family="sans-serif" font-size="14" lengthAdjust="spacing" textLength="41.248" x="1511.4238" y="1242.9531">:Route</text><rect fill="#E2E2F0" height="51.2422" rx="2.5" ry="2.5" style="stroke:#181818;stroke-width:0.5;" width="49.7861" x="1716.4546" y="31.3789"/><text fill="#000000" font-family="sans-serif" font-size="14" lengthAdjust="spacing" textLength="27.2344" x="1727.7305" y="53.4863">train</text><text fill="#000000" font-family="sans-serif" font-size="14" lengthAdjust="spacing" textLength="35.7861" x="1723.4546" y="72.1074">:Train</text><rect fill="#E2E2F0" height="51.2422" rx="2.5" ry="2.5" style="stroke:#181818;stroke-width:0.5;" width="49.7861" x="1716.4546" y="1202.2246"/><text fill="#000000" font-family="sans-serif" font-size="14" lengthAdjust="spacing" textLength="27.2344" x="1727.7305" y="1224.332">train</text><text fill="#000000" font-family="sans-serif" font-size="14" lengthAdjust="spacing" textLength="35.7861" x="1723.4546" y="1242.9531">:Train</text><rect fill="#E2E2F0" height="51.2422" rx="2.5" ry="2.5" style="stroke:#181818;stroke-width:0.5;" width="61.4756" x="1776.2407" y="31.3789"/><text fill="#000000" font-family="sans-serif" font-size="14" lengthAdjust="spacing" textLength="41.248" x="1786.3545" y="53.4863">station</text><text fill="#000000" font-family="sans-serif" font-size="14" lengthAdjust="spacing" textLength="47.4756" x="1783.2407" y="72.1074">:Station</text><rect fill="#E2E2F0" height="51.2422" rx="2.5" ry="2.5" style="stroke:#181818;stroke-width:0.5;" width="61.4756" x="1776.2407" y="1202.2246"/><text fill="#000000" font-family="sans-serif" font-size="14" lengthAdjust="spacing" textLength="41.248" x="1786.3545" y="1224.332">station</text><text fill="#000000" font-family="sans-serif" font-size="14" lengthAdjust="spacing" textLength="47.4756" x="1783.2407" y="1242.9531">:Station</text><rect fill="#E2E2F0" height="51.2422" rx="2.5" ry="2.5" style="stroke:#181818;stroke-width:0.5;" width="89.4824" x="1888.6172" y="31.3789"/><text fill="#000000" font-family="sans-serif" font-size="14" lengthAdjust="spacing" textLength="66.917" x="1899.8999" y="53.4863">locomotive</text><text fill="#000000" font-family="sans-serif" font-size="14" lengthAdjust="spacing" textLength="75.4824" x="1895.6172" y="72.1074">:Locomotive</text><rect fill="#E2E2F0" height="51.2422" rx="2.5" ry="2.5" style="stroke:#181818;stroke-width:0.5;" width="89.4824" x="1888.6172" y="1202.2246"/><text fill="#000000" font-family="sans-serif" font-size="14" lengthAdjust="spacing" textLength="66.917" x="1899.8999" y="1224.332">locomotive</text><text fill="#000000" font-family="sans-serif" font-size="14" lengthAdjust="spacing" textLength="75.4824" x="1895.6172" y="1242.9531">:Locomotive</text><rect fill="#FFFFFF" height="1091.6035" style="stroke:#181818;stroke-width:1.0;" width="10" x="37.8413" y="93.6211"/><rect fill="#FFFFFF" height="1068.3125" style="stroke:#181818;stroke-width:1.0;" width="10" x="302.0146" y="116.9121"/><rect fill="#FFFFFF" height="62.582" style="stroke:#181818;stroke-width:1.0;" width="10" x="660.2051" y="192.4941"/><rect fill="#FFFFFF" height="93.873" style="stroke:#181818;stroke-width:1.0;" width="10" x="660.2051" y="437.5313"/><rect fill="#FFFFFF" height="138.1641" style="stroke:#181818;stroke-width:1.0;" width="10" x="660.2051" y="651.5684"/><rect fill="#FFFFFF" height="219.0371" style="stroke:#181818;stroke-width:1.0;" width="10" x="660.2051" y="934.8965"/><rect fill="#FFFFFF" height="62.582" style="stroke:#181818;stroke-width:1.0;" width="10" x="1131.5923" y="468.8223"/><rect fill="#FFFFFF" height="62.582" style="stroke:#181818;stroke-width:1.0;" width="10" x="1131.5923" y="727.1504"/><rect fill="#FFFFFF" height="62.582" style="stroke:#181818;stroke-width:1.0;" width="10" x="1527.0479" y="966.1875"/><polygon fill="#181818" points="290.0146,112.9121,300.0146,116.9121,290.0146,120.9121,294.0146,116.9121" style="stroke:#181818;stroke-width:1.0;"/><line style="stroke:#181818;stroke-width:1.0;" x1="47.8413" x2="296.0146" y1="116.9121" y2="116.9121"/><text fill="#000000" font-family="sans-serif" font-size="13" font-weight="bold" lengthAdjust="spacing" textLength="7.23" x="54.8413" y="111.6494">1</text><text fill="#000000" font-family="sans-serif" font-size="13" lengthAdjust="spacing" textLength="27.4473" x="66.0713" y="111.6494">run()</text><line style="stroke:#181818;stroke-width:1.0;" x1="312.0146" x2="354.0146" y1="148.2031" y2="148.2031"/><line style="stroke:#181818;stroke-width:1.0;" x1="354.0146" x2="354.0146" y1="148.2031" y2="161.2031"/><line style="stroke:#181818;stroke-width:1.0;" x1="313.0146" x2="354.0146" y1="161.2031" y2="161.2031"/><polygon fill="#181818" points="323.0146,157.2031,313.0146,161.2031,323.0146,165.2031,319.0146,161.2031" style="stroke:#181818;stroke-width:1.0;"/><text fill="#000000" font-family="sans-serif" font-size="13" font-weight="bold" lengthAdjust="spacing" textLength="7.23" x="319.0146" y="142.9404">2</text><text fill="#000000" font-family="sans-serif" font-size="13" lengthAdjust="spacing" textLength="80.1963" x="330.2446" y="142.9404">chooseTrain()</text><polygon fill="#181818" points="648.2051,188.4941,658.2051,192.4941,648.2051,196.4941,652.2051,192.4941" style="stroke:#181818;stroke-width:1.0;"/><line style="stroke:#181818;stroke-width:1.0;" x1="312.0146" x2="654.2051" y1="192.4941" y2="192.4941"/><text fill="#000000" font-family="sans-serif" font-size="13" font-weight="bold" lengthAdjust="spacing" textLength="7.23" x="319.0146" y="187.2314">3</text><text fill="#000000" font-family="sans-serif" font-size="13" lengthAdjust="spacing" textLength="76.5781" x="330.2446" y="187.2314">getTrainList()</text><polygon fill="#181818" points="1055.458,219.7852,1065.458,223.7852,1055.458,227.7852,1059.458,223.7852" style="stroke:#181818;stroke-width:1.0;"/><line style="stroke:#181818;stroke-width:1.0;" x1="670.2051" x2="1061.458" y1="223.7852" y2="223.7852"/><text fill="#000000" font-family="sans-serif" font-size="13" font-weight="bold" lengthAdjust="spacing" textLength="7.23" x="677.2051" y="218.5225">4</text><text fill="#000000" font-family="sans-serif" font-size="13" lengthAdjust="spacing" textLength="76.5781" x="688.4351" y="218.5225">getTrainList()</text><polygon fill="#181818" points="676.2051,251.0762,666.2051,255.0762,676.2051,259.0762,672.2051,255.0762" style="stroke:#181818;stroke-width:1.0;"/><line style="stroke:#181818;stroke-width:1.0;stroke-dasharray:2.0,2.0;" x1="670.2051" x2="1066.458" y1="255.0762" y2="255.0762"/><text fill="#000000" font-family="sans-serif" font-size="13" font-weight="bold" lengthAdjust="spacing" textLength="7.23" x="682.2051" y="249.8135">5</text><text fill="#000000" font-family="sans-serif" font-size="13" lengthAdjust="spacing" textLength="65.0317" x="693.4351" y="249.8135">List&lt;Train&gt;</text><polygon fill="#181818" points="58.8413,282.3672,48.8413,286.3672,58.8413,290.3672,54.8413,286.3672" style="stroke:#181818;stroke-width:1.0;"/><line style="stroke:#181818;stroke-width:1.0;stroke-dasharray:2.0,2.0;" x1="52.8413" x2="301.0146" y1="286.3672" y2="286.3672"/><text fill="#000000" font-family="sans-serif" font-size="13" font-weight="bold" lengthAdjust="spacing" textLength="7.23" x="64.8413" y="281.1045">6</text><text fill="#000000" font-family="sans-serif" font-size="13" lengthAdjust="spacing" textLength="218.9434" x="76.0713" y="281.1045">shows train list and requests selection</text><polygon fill="#181818" points="290.0146,313.6582,300.0146,317.6582,290.0146,321.6582,294.0146,317.6582" style="stroke:#181818;stroke-width:1.0;"/><line style="stroke:#181818;stroke-width:1.0;" x1="47.8413" x2="296.0146" y1="317.6582" y2="317.6582"/><text fill="#000000" font-family="sans-serif" font-size="13" font-weight="bold" lengthAdjust="spacing" textLength="7.23" x="54.8413" y="312.3955">7</text><text fill="#000000" font-family="sans-serif" font-size="13" lengthAdjust="spacing" textLength="69.3608" x="66.0713" y="312.3955">selects train</text><line style="stroke:#181818;stroke-width:1.0;" x1="312.0146" x2="354.0146" y1="348.9492" y2="348.9492"/><line style="stroke:#181818;stroke-width:1.0;" x1="354.0146" x2="354.0146" y1="348.9492" y2="361.9492"/><line style="stroke:#181818;stroke-width:1.0;" x1="313.0146" x2="354.0146" y1="361.9492" y2="361.9492"/><polygon fill="#181818" points="323.0146,357.9492,313.0146,361.9492,323.0146,365.9492,319.0146,361.9492" style="stroke:#181818;stroke-width:1.0;"/><text fill="#000000" font-family="sans-serif" font-size="13" font-weight="bold" lengthAdjust="spacing" textLength="7.23" x="319.0146" y="343.6865">8</text><text fill="#000000" font-family="sans-serif" font-size="13" lengthAdjust="spacing" textLength="104.0571" x="330.2446" y="343.6865">defineRoute(train)</text><line style="stroke:#181818;stroke-width:1.0;" x1="312.0146" x2="354.0146" y1="393.2402" y2="393.2402"/><line style="stroke:#181818;stroke-width:1.0;" x1="354.0146" x2="354.0146" y1="393.2402" y2="406.2402"/><line style="stroke:#181818;stroke-width:1.0;" x1="313.0146" x2="354.0146" y1="406.2402" y2="406.2402"/><polygon fill="#181818" points="323.0146,402.2402,313.0146,406.2402,323.0146,410.2402,319.0146,406.2402" style="stroke:#181818;stroke-width:1.0;"/><text fill="#000000" font-family="sans-serif" font-size="13" font-weight="bold" lengthAdjust="spacing" textLength="7.23" x="319.0146" y="387.9775">9</text><text fill="#000000" font-family="sans-serif" font-size="13" lengthAdjust="spacing" textLength="166.1816" x="330.2446" y="387.9775">chooseFirstStation(fuelType)</text><polygon fill="#181818" points="648.2051,433.5313,658.2051,437.5313,648.2051,441.5313,652.2051,437.5313" style="stroke:#181818;stroke-width:1.0;"/><line style="stroke:#181818;stroke-width:1.0;" x1="312.0146" x2="654.2051" y1="437.5313" y2="437.5313"/><text fill="#000000" font-family="sans-serif" font-size="13" font-weight="bold" lengthAdjust="spacing" textLength="14.46" x="319.0146" y="432.2686">10</text><text fill="#000000" font-family="sans-serif" font-size="13" lengthAdjust="spacing" textLength="205.2007" x="337.4746" y="432.2686">verifyIfStationsHaveLines(fuelType)</text><polygon fill="#181818" points="1119.5923,464.8223,1129.5923,468.8223,1119.5923,472.8223,1123.5923,468.8223" style="stroke:#181818;stroke-width:1.0;"/><line style="stroke:#181818;stroke-width:1.0;" x1="670.2051" x2="1125.5923" y1="468.8223" y2="468.8223"/><text fill="#000000" font-family="sans-serif" font-size="13" font-weight="bold" lengthAdjust="spacing" textLength="14.46" x="677.2051" y="463.5596">11</text><text fill="#000000" font-family="sans-serif" font-size="13" lengthAdjust="spacing" textLength="87.4326" x="695.665" y="463.5596">getStationList()</text><polygon fill="#181818" points="1247.9385,496.1133,1257.9385,500.1133,1247.9385,504.1133,1251.9385,500.1133" style="stroke:#181818;stroke-width:1.0;"/><line style="stroke:#181818;stroke-width:1.0;" x1="1141.5923" x2="1253.9385" y1="500.1133" y2="500.1133"/><text fill="#000000" font-family="sans-serif" font-size="13" font-weight="bold" lengthAdjust="spacing" textLength="14.46" x="1148.5923" y="494.8506">12</text><text fill="#000000" font-family="sans-serif" font-size="13" lengthAdjust="spacing" textLength="73.7026" x="1167.0522" y="494.8506">getStations()</text><polygon fill="#181818" points="1147.5923,527.4043,1137.5923,531.4043,1147.5923,535.4043,1143.5923,531.4043" style="stroke:#181818;stroke-width:1.0;"/><line style="stroke:#181818;stroke-width:1.0;stroke-dasharray:2.0,2.0;" x1="1141.5923" x2="1258.9385" y1="531.4043" y2="531.4043"/><text fill="#000000" font-family="sans-serif" font-size="13" font-weight="bold" lengthAdjust="spacing" textLength="14.46" x="1153.5923" y="526.1416">13</text><text fill="#000000" font-family="sans-serif" font-size="13" lengthAdjust="spacing" textLength="75.8862" x="1172.0522" y="526.1416">List&lt;Station&gt;</text><polygon fill="#181818" points="58.8413,558.6953,48.8413,562.6953,58.8413,566.6953,54.8413,562.6953" style="stroke:#181818;stroke-width:1.0;"/><line style="stroke:#181818;stroke-width:1.0;stroke-dasharray:2.0,2.0;" x1="52.8413" x2="301.0146" y1="562.6953" y2="562.6953"/><text fill="#000000" font-family="sans-serif" font-size="13" font-weight="bold" lengthAdjust="spacing" textLength="14.46" x="64.8413" y="557.4326">14</text><text fill="#000000" font-family="sans-serif" font-size="13" lengthAdjust="spacing" textLength="140.188" x="83.3013" y="557.4326">shows available stations</text><polygon fill="#181818" points="290.0146,589.9863,300.0146,593.9863,290.0146,597.9863,294.0146,593.9863" style="stroke:#181818;stroke-width:1.0;"/><line style="stroke:#181818;stroke-width:1.0;" x1="47.8413" x2="296.0146" y1="593.9863" y2="593.9863"/><text fill="#000000" font-family="sans-serif" font-size="13" font-weight="bold" lengthAdjust="spacing" textLength="14.46" x="54.8413" y="588.7236">15</text><text fill="#000000" font-family="sans-serif" font-size="13" lengthAdjust="spacing" textLength="106.9263" x="73.3013" y="588.7236">selects first station</text><path d="M10,608.9863 L82.4346,608.9863 L82.4346,618.2773 L72.4346,628.2773 L10,628.2773 L10,608.9863 " fill="#EEEEEE" style="stroke:#000000;stroke-width:1.5;"/><rect fill="none" height="251.3281" style="stroke:#000000;stroke-width:1.5;" width="1494.4238" x="10" y="608.9863"/><text fill="#000000" font-family="sans-serif" font-size="13" font-weight="bold" lengthAdjust="spacing" textLength="27.4346" x="25" y="624.0146">loop</text><text fill="#000000" font-family="sans-serif" font-size="11" font-weight="bold" lengthAdjust="spacing" textLength="111.2085" x="97.4346" y="622.8564">[while building route]</text><polygon fill="#181818" points="648.2051,647.5684,658.2051,651.5684,648.2051,655.5684,652.2051,651.5684" style="stroke:#181818;stroke-width:1.0;"/><line style="stroke:#181818;stroke-width:1.0;" x1="312.0146" x2="654.2051" y1="651.5684" y2="651.5684"/><text fill="#000000" font-family="sans-serif" font-size="13" font-weight="bold" lengthAdjust="spacing" textLength="14.46" x="319.0146" y="646.3057">16</text><text fill="#000000" font-family="sans-serif" font-size="13" lengthAdjust="spacing" textLength="310.7305" x="337.4746" y="646.3057">availableStationConnections(currentStation, fuelType)</text><line style="stroke:#181818;stroke-width:1.0;" x1="670.2051" x2="712.2051" y1="682.8594" y2="682.8594"/><line style="stroke:#181818;stroke-width:1.0;" x1="712.2051" x2="712.2051" y1="682.8594" y2="695.8594"/><line style="stroke:#181818;stroke-width:1.0;" x1="671.2051" x2="712.2051" y1="695.8594" y2="695.8594"/><polygon fill="#181818" points="681.2051,691.8594,671.2051,695.8594,681.2051,699.8594,677.2051,695.8594" style="stroke:#181818;stroke-width:1.0;"/><text fill="#000000" font-family="sans-serif" font-size="13" font-weight="bold" lengthAdjust="spacing" textLength="14.46" x="677.2051" y="677.5967">17</text><text fill="#000000" font-family="sans-serif" font-size="13" lengthAdjust="spacing" textLength="261.5933" x="695.665" y="677.5967">getAvailableLinesToStation(station, fuelType)</text><polygon fill="#181818" points="1119.5923,723.1504,1129.5923,727.1504,1119.5923,731.1504,1123.5923,727.1504" style="stroke:#181818;stroke-width:1.0;"/><line style="stroke:#181818;stroke-width:1.0;" x1="670.2051" x2="1125.5923" y1="727.1504" y2="727.1504"/><text fill="#000000" font-family="sans-serif" font-size="13" font-weight="bold" lengthAdjust="spacing" textLength="14.46" x="677.2051" y="721.8877">18</text><text fill="#000000" font-family="sans-serif" font-size="13" lengthAdjust="spacing" textLength="103.3208" x="695.665" y="721.8877">getRailwayLines()</text><polygon fill="#181818" points="1402.2793,754.4414,1412.2793,758.4414,1402.2793,762.4414,1406.2793,758.4414" style="stroke:#181818;stroke-width:1.0;"/><line style="stroke:#181818;stroke-width:1.0;" x1="1141.5923" x2="1408.2793" y1="758.4414" y2="758.4414"/><text fill="#000000" font-family="sans-serif" font-size="13" font-weight="bold" lengthAdjust="spacing" textLength="14.46" x="1148.5923" y="753.1787">19</text><text fill="#000000" font-family="sans-serif" font-size="13" lengthAdjust="spacing" textLength="117.7681" x="1167.0522" y="753.1787">getAllRailwayLines()</text><polygon fill="#181818" points="1147.5923,785.7324,1137.5923,789.7324,1147.5923,793.7324,1143.5923,789.7324" style="stroke:#181818;stroke-width:1.0;"/><line style="stroke:#181818;stroke-width:1.0;stroke-dasharray:2.0,2.0;" x1="1141.5923" x2="1413.2793" y1="789.7324" y2="789.7324"/><text fill="#000000" font-family="sans-serif" font-size="13" font-weight="bold" lengthAdjust="spacing" textLength="14.46" x="1153.5923" y="784.4697">20</text><text fill="#000000" font-family="sans-serif" font-size="13" lengthAdjust="spacing" textLength="105.5044" x="1172.0522" y="784.4697">List&lt;RailwayLine&gt;</text><polygon fill="#181818" points="58.8413,817.0234,48.8413,821.0234,58.8413,825.0234,54.8413,821.0234" style="stroke:#181818;stroke-width:1.0;"/><line style="stroke:#181818;stroke-width:1.0;stroke-dasharray:2.0,2.0;" x1="52.8413" x2="301.0146" y1="821.0234" y2="821.0234"/><text fill="#000000" font-family="sans-serif" font-size="13" font-weight="bold" lengthAdjust="spacing" textLength="14.46" x="64.8413" y="815.7607">21</text><text fill="#000000" font-family="sans-serif" font-size="13" lengthAdjust="spacing" textLength="164.7661" x="83.3013" y="815.7607">shows available connections</text><polygon fill="#181818" points="290.0146,848.3145,300.0146,852.3145,290.0146,856.3145,294.0146,852.3145" style="stroke:#181818;stroke-width:1.0;"/><line style="stroke:#181818;stroke-width:1.0;" x1="47.8413" x2="296.0146" y1="852.3145" y2="852.3145"/><text fill="#000000" font-family="sans-serif" font-size="13" font-weight="bold" lengthAdjust="spacing" textLength="14.46" x="54.8413" y="847.0518">22</text><text fill="#000000" font-family="sans-serif" font-size="13" lengthAdjust="spacing" textLength="163.2998" x="73.3013" y="847.0518">selects next station or saves</text><line style="stroke:#181818;stroke-width:1.0;" x1="312.0146" x2="354.0146" y1="890.6055" y2="890.6055"/><line style="stroke:#181818;stroke-width:1.0;" x1="354.0146" x2="354.0146" y1="890.6055" y2="903.6055"/><line style="stroke:#181818;stroke-width:1.0;" x1="313.0146" x2="354.0146" y1="903.6055" y2="903.6055"/><polygon fill="#181818" points="323.0146,899.6055,313.0146,903.6055,323.0146,907.6055,319.0146,903.6055" style="stroke:#181818;stroke-width:1.0;"/><text fill="#000000" font-family="sans-serif" font-size="13" font-weight="bold" lengthAdjust="spacing" textLength="14.46" x="319.0146" y="885.3428">23</text><text fill="#000000" font-family="sans-serif" font-size="13" lengthAdjust="spacing" textLength="135.8589" x="337.4746" y="885.3428">defineGeneratingRate()</text><polygon fill="#181818" points="648.2051,930.8965,658.2051,934.8965,648.2051,938.8965,652.2051,934.8965" style="stroke:#181818;stroke-width:1.0;"/><line style="stroke:#181818;stroke-width:1.0;" x1="312.0146" x2="654.2051" y1="934.8965" y2="934.8965"/><text fill="#000000" font-family="sans-serif" font-size="13" font-weight="bold" lengthAdjust="spacing" textLength="14.46" x="319.0146" y="929.6338">24</text><text fill="#000000" font-family="sans-serif" font-size="13" lengthAdjust="spacing" textLength="237.7451" x="337.4746" y="929.6338">createRoute(train, route, generatingRate)</text><polygon fill="#181818" points="1515.0479,962.1875,1525.0479,966.1875,1515.0479,970.1875,1519.0479,966.1875" style="stroke:#181818;stroke-width:1.0;"/><line style="stroke:#181818;stroke-width:1.0;" x1="670.2051" x2="1521.0479" y1="966.1875" y2="966.1875"/><text fill="#000000" font-family="sans-serif" font-size="13" font-weight="bold" lengthAdjust="spacing" textLength="14.46" x="677.2051" y="960.9248">25</text><text fill="#000000" font-family="sans-serif" font-size="13" lengthAdjust="spacing" textLength="320.8169" x="695.665" y="960.9248">new Route(train, stations, currentTime, generatingRate)</text><polygon fill="#181818" points="1729.3477,993.4785,1739.3477,997.4785,1729.3477,1001.4785,1733.3477,997.4785" style="stroke:#181818;stroke-width:1.0;"/><line style="stroke:#181818;stroke-width:1.0;" x1="1537.0479" x2="1735.3477" y1="997.4785" y2="997.4785"/><text fill="#000000" font-family="sans-serif" font-size="13" font-weight="bold" lengthAdjust="spacing" textLength="14.46" x="1544.0479" y="992.2158">26</text><text fill="#000000" font-family="sans-serif" font-size="13" lengthAdjust="spacing" textLength="161.8398" x="1562.5078" y="992.2158">getName(), getLocomotive()</text><polygon fill="#181818" points="1921.3584,1024.7695,1931.3584,1028.7695,1921.3584,1032.7695,1925.3584,1028.7695" style="stroke:#181818;stroke-width:1.0;"/><line style="stroke:#181818;stroke-width:1.0;" x1="1741.3477" x2="1927.3584" y1="1028.7695" y2="1028.7695"/><text fill="#000000" font-family="sans-serif" font-size="13" font-weight="bold" lengthAdjust="spacing" textLength="14.46" x="1748.3477" y="1023.5068">27</text><text fill="#000000" font-family="sans-serif" font-size="13" lengthAdjust="spacing" textLength="149.5508" x="1766.8076" y="1023.5068">getName(), getFuelType()</text><polygon fill="#181818" points="967.2583,1056.0605,977.2583,1060.0605,967.2583,1064.0605,971.2583,1060.0605" style="stroke:#181818;stroke-width:1.0;"/><line style="stroke:#181818;stroke-width:1.0;" x1="670.2051" x2="973.2583" y1="1060.0605" y2="1060.0605"/><text fill="#000000" font-family="sans-serif" font-size="13" font-weight="bold" lengthAdjust="spacing" textLength="14.46" x="677.2051" y="1054.7979">28</text><text fill="#000000" font-family="sans-serif" font-size="13" lengthAdjust="spacing" textLength="94.6689" x="695.665" y="1054.7979">addRoute(route)</text><polygon fill="#181818" points="681.2051,1087.3516,671.2051,1091.3516,681.2051,1095.3516,677.2051,1091.3516" style="stroke:#181818;stroke-width:1.0;"/><line style="stroke:#181818;stroke-width:1.0;stroke-dasharray:2.0,2.0;" x1="675.2051" x2="978.2583" y1="1091.3516" y2="1091.3516"/><text fill="#000000" font-family="sans-serif" font-size="13" font-weight="bold" lengthAdjust="spacing" textLength="14.46" x="687.2051" y="1086.0889">29</text><text fill="#000000" font-family="sans-serif" font-size="13" lengthAdjust="spacing" textLength="70.8081" x="705.665" y="1086.0889">confirmation</text><polygon fill="#181818" points="1055.458,1118.6426,1065.458,1122.6426,1055.458,1126.6426,1059.458,1122.6426" style="stroke:#181818;stroke-width:1.0;"/><line style="stroke:#181818;stroke-width:1.0;" x1="670.2051" x2="1061.458" y1="1122.6426" y2="1122.6426"/><text fill="#000000" font-family="sans-serif" font-size="13" font-weight="bold" lengthAdjust="spacing" textLength="14.46" x="677.2051" y="1117.3799">30</text><text fill="#000000" font-family="sans-serif" font-size="13" lengthAdjust="spacing" textLength="76.5781" x="695.665" y="1117.3799">getTrainList()</text><polygon fill="#181818" points="1055.458,1149.9336,1065.458,1153.9336,1055.458,1157.9336,1059.458,1153.9336" style="stroke:#181818;stroke-width:1.0;"/><line style="stroke:#181818;stroke-width:1.0;" x1="665.2051" x2="1061.458" y1="1153.9336" y2="1153.9336"/><text fill="#000000" font-family="sans-serif" font-size="13" font-weight="bold" lengthAdjust="spacing" textLength="14.46" x="672.2051" y="1148.6709">31</text><text fill="#000000" font-family="sans-serif" font-size="13" lengthAdjust="spacing" textLength="106.9136" x="690.665" y="1148.6709">removeTrain(train)</text><polygon fill="#181818" points="53.8413,1181.2246,43.8413,1185.2246,53.8413,1189.2246,49.8413,1185.2246" style="stroke:#181818;stroke-width:1.0;"/><line style="stroke:#181818;stroke-width:1.0;stroke-dasharray:2.0,2.0;" x1="47.8413" x2="306.0146" y1="1185.2246" y2="1185.2246"/><text fill="#000000" font-family="sans-serif" font-size="13" font-weight="bold" lengthAdjust="spacing" textLength="14.46" x="59.8413" y="1179.9619">32</text><text fill="#000000" font-family="sans-serif" font-size="13" lengthAdjust="spacing" textLength="145.2407" x="78.3013" y="1179.9619">shows operation success</text><!--SRC=[dLRRRk8m57pFLrXzOYNw0sY5X13THeA2qlHXfPLMRdAWLXqxQpkm_FqUNnAIa9Hsyy9jPdoPEUUWtvaegQ85AMdsJW_mRCuSY8BCK77W4Ea6eDzeBazC7CYUSWqHhOmKLV4AAefePgGYTpjEpw3k2DLajrxyN2KHKWtBM4c58NUpfG9g896LWPVOmLxYSSXI2gCavq5ncIRhBbYpekBKC2b-YTbpyy6Xd-DD3vo1e8f92mrlFN2vUbeayRQBBcY9m0qj7MQpsFN4Z5ifWL9gXaS_MzN-Tru-_PsiTZrrHHa_qVEQ2UX894FVEvbaFIHZRydIxAk7RL_ILHTaS35xFwbzTQ0qMSHFW-Uvd2BiVP76snwKoqmMqh2ZNNdTV724zNQvTM5WHpInpW31nxybztDqdCo8giJac_kX0MCII7WGKWEpDoarkBq7mWLW0u6G0nZt-vffqy8qmYutfFKu7l9hvySrxDEWxYzBMjXtHvWts1o6LxHxHMQuW1cMaJnfubmX77K85JdMsvyAjD540yVIGmEYHg1tTHuH5AAXEyjXRmDaGp5ngEw1hcxtWIbjWk-JVGKyFPSmn0cdFu9Y-tEy3nJzI8zW8wj7oEDEjDt06lD61Da1ApfYjYR9m6DrhBc-xZgIUa3FMHomzyqsdC61DR_YjApkxs8i1UD9e4SiUlgAJJSKeUwGHjpVMyzgHjHXS2bBSdfZgFXQCPxRZkqwnTKvEgus-mZ7nkuhV1Jr9AkK0b5VuvGC-tpRwxRVb-fTr2kx4AMoZgA-lTnWW5fTTCpncobg9Icqth1NpZyXRv-QrWjLYpqVv7uGhbi1-qp8iekjLzoHh0dusqIDu9ZNMEzTCeZyWqxq0mGeP8j3WjiUQ-FPPV3xhZNrgPtYjRVvN-dmRXoYje0JwIZNfJOb8TefApvOgREQdx5NThkbS4qtNNrOdcY1nxMovZ8e1oBZASYry_EA-X3IFq1iXU5wLysOYpUslFFStu2xrDw8GqHhkc54iBqKlhNy_-0SG2iev35Cyzva-jhubANp2VEegom3xUFOqi1_4wrFuO_8Fm00]--></g></svg>