<svg xmlns="http://www.w3.org/2000/svg" xmlns:xlink="http://www.w3.org/1999/xlink" contentStyleType="text/css" height="468.9px" preserveAspectRatio="none" style="width:541px;height:468px;background:#FFFFFF;" version="1.1" viewBox="0 0 541 468" width="541.8px" zoomAndPan="magnify"><title>System Sequence Diagram (SSD) - US07 - View station details</title><defs/><g><text fill="#000000" font-family="sans-serif" font-size="12.6" font-weight="bold" lengthAdjust="spacing" textLength="370.4142" x="92.1067" y="27.0967">System Sequence Diagram (SSD) - US07 - View station details</text><rect fill="#FFFFFF" height="266.3631" style="stroke:#181818;stroke-width:0.9;" width="9" x="34.0572" y="119.918"/><rect fill="#FFFFFF" height="148.3154" style="stroke:#181818;stroke-width:0.9;" width="9" x="266.4659" y="140.8799"/><rect fill="#FFFFFF" height="68.0238" style="stroke:#181818;stroke-width:0.9;" width="9" x="266.4659" y="310.1572"/><rect fill="none" height="88.6535" style="stroke:#000000;stroke-width:1.35;" width="300.0204" x="9" y="194.2418"/><line style="stroke:#181818;stroke-width:0.45;stroke-dasharray:5.0,5.0;" x1="37.8" x2="37.8" y1="110.918" y2="394.3811"/><line style="stroke:#181818;stroke-width:0.45;stroke-dasharray:5.0,5.0;" x1="270.7115" x2="270.7115" y1="110.918" y2="394.3811"/><text fill="#000000" font-family="sans-serif" font-size="12.6" lengthAdjust="spacing" textLength="35.7144" x="18" y="107.7557">Player</text><ellipse cx="38.5572" cy="47.809" fill="#E3E3E3" rx="7.2" ry="7.2" style="stroke:#181818;stroke-width:0.45;"/><path d="M38.5572,55.009 L38.5572,79.309 M26.8572,62.209 L50.2572,62.209 M38.5572,79.309 L26.8572,92.809 M38.5572,79.309 L50.2572,92.809 " fill="none" style="stroke:#181818;stroke-width:0.45;"/><text fill="#000000" font-family="sans-serif" font-size="12.6" lengthAdjust="spacing" textLength="35.7144" x="18" y="407.0777">Player</text><ellipse cx="38.5572" cy="417.89" fill="#E3E3E3" rx="7.2" ry="7.2" style="stroke:#181818;stroke-width:0.45;"/><path d="M38.5572,425.09 L38.5572,449.39 M26.8572,432.29 L50.2572,432.29 M38.5572,449.39 L26.8572,462.89 M38.5572,449.39 L50.2572,462.89 " fill="none" style="stroke:#181818;stroke-width:0.45;"/><rect fill="#E3E3E3" height="29.359" rx="2.25" ry="2.25" style="stroke:#181818;stroke-width:0.45;" width="58.1089" x="241.9115" y="80.659"/><text fill="#000000" font-family="sans-serif" font-size="12.6" lengthAdjust="spacing" textLength="45.5089" x="248.2115" y="100.5557">:System</text><rect fill="#E3E3E3" height="29.359" rx="2.25" ry="2.25" style="stroke:#181818;stroke-width:0.45;" width="58.1089" x="241.9115" y="393.4811"/><text fill="#000000" font-family="sans-serif" font-size="12.6" lengthAdjust="spacing" textLength="45.5089" x="248.2115" y="413.3777">:System</text><rect fill="#FFFFFF" height="266.3631" style="stroke:#181818;stroke-width:0.9;" width="9" x="34.0572" y="119.918"/><rect fill="#FFFFFF" height="148.3154" style="stroke:#181818;stroke-width:0.9;" width="9" x="266.4659" y="140.8799"/><rect fill="#FFFFFF" height="68.0238" style="stroke:#181818;stroke-width:0.9;" width="9" x="266.4659" y="310.1572"/><polygon fill="#181818" points="255.6659,137.2799,264.6659,140.8799,255.6659,144.4799,259.2659,140.8799" style="stroke:#181818;stroke-width:0.9;"/><line style="stroke:#181818;stroke-width:0.9;" x1="43.0572" x2="261.0659" y1="140.8799" y2="140.8799"/><text fill="#000000" font-family="sans-serif" font-size="11.7" font-weight="bold" lengthAdjust="spacing" textLength="6.507" x="49.3572" y="136.1435">1</text><text fill="#000000" font-family="sans-serif" font-size="11.7" lengthAdjust="spacing" textLength="132.6647" x="59.4642" y="136.1435">Request to list all stations</text><line style="stroke:#181818;stroke-width:0.9;" x1="275.4659" x2="313.2659" y1="169.0418" y2="169.0418"/><line style="stroke:#181818;stroke-width:0.9;" x1="313.2659" x2="313.2659" y1="169.0418" y2="180.7418"/><line style="stroke:#181818;stroke-width:0.9;" x1="276.3659" x2="313.2659" y1="180.7418" y2="180.7418"/><polygon fill="#181818" points="285.3659,177.1418,276.3659,180.7418,285.3659,184.3418,281.7659,180.7418" style="stroke:#181818;stroke-width:0.9;"/><text fill="#000000" font-family="sans-serif" font-size="11.7" font-weight="bold" lengthAdjust="spacing" textLength="6.507" x="281.7659" y="164.3054">2</text><text fill="#000000" font-family="sans-serif" font-size="11.7" lengthAdjust="spacing" textLength="243.8547" x="291.8729" y="164.3054">Retrieve all available stations from current map</text><path d="M9,194.2418 L63.1538,194.2418 L63.1538,202.6037 L54.1538,211.6037 L9,211.6037 L9,194.2418 " fill="#EEEEEE" style="stroke:#000000;stroke-width:1.35;"/><rect fill="none" height="88.6535" style="stroke:#000000;stroke-width:1.35;" width="300.0204" x="9" y="194.2418"/><text fill="#000000" font-family="sans-serif" font-size="11.7" font-weight="bold" lengthAdjust="spacing" textLength="13.6538" x="22.5" y="207.7673">alt</text><text fill="#000000" font-family="sans-serif" font-size="9.9" font-weight="bold" lengthAdjust="spacing" textLength="105.0763" x="76.6538" y="206.7249">[No stations available]</text><polygon fill="#181818" points="52.9572,228.9656,43.9572,232.5656,52.9572,236.1656,49.3572,232.5656" style="stroke:#181818;stroke-width:0.9;"/><line style="stroke:#181818;stroke-width:0.9;stroke-dasharray:2.0,2.0;" x1="47.5572" x2="265.5659" y1="232.5656" y2="232.5656"/><text fill="#000000" font-family="sans-serif" font-size="11.7" font-weight="bold" lengthAdjust="spacing" textLength="6.507" x="58.3572" y="227.8292">3</text><text fill="#000000" font-family="sans-serif" font-size="11.7" lengthAdjust="spacing" textLength="191.7018" x="68.4642" y="227.8292">Display "No stations found" message</text><line style="stroke:#000000;stroke-width:0.9;stroke-dasharray:2.0,2.0;" x1="9" x2="309.0204" y1="240.6656" y2="240.6656"/><text fill="#000000" font-family="sans-serif" font-size="9.9" font-weight="bold" lengthAdjust="spacing" textLength="90.2263" x="13.5" y="251.3487">[Stations available]</text><polygon fill="#181818" points="52.9572,272.0953,43.9572,275.6953,52.9572,279.2953,49.3572,275.6953" style="stroke:#181818;stroke-width:0.9;"/><line style="stroke:#181818;stroke-width:0.9;stroke-dasharray:2.0,2.0;" x1="47.5572" x2="265.5659" y1="275.6953" y2="275.6953"/><text fill="#000000" font-family="sans-serif" font-size="11.7" font-weight="bold" lengthAdjust="spacing" textLength="6.507" x="58.3572" y="270.9589">4</text><text fill="#000000" font-family="sans-serif" font-size="11.7" lengthAdjust="spacing" textLength="127.4489" x="68.4642" y="270.9589">Display list of all stations</text><polygon fill="#181818" points="255.6659,306.5572,264.6659,310.1572,255.6659,313.7572,259.2659,310.1572" style="stroke:#181818;stroke-width:0.9;"/><line style="stroke:#181818;stroke-width:0.9;" x1="43.0572" x2="261.0659" y1="310.1572" y2="310.1572"/><text fill="#000000" font-family="sans-serif" font-size="11.7" font-weight="bold" lengthAdjust="spacing" textLength="6.507" x="49.3572" y="305.4208">5</text><text fill="#000000" font-family="sans-serif" font-size="11.7" lengthAdjust="spacing" textLength="143.7135" x="59.4642" y="305.4208">Select a station from the list</text><line style="stroke:#181818;stroke-width:0.9;" x1="275.4659" x2="313.2659" y1="338.3191" y2="338.3191"/><line style="stroke:#181818;stroke-width:0.9;" x1="313.2659" x2="313.2659" y1="338.3191" y2="350.0191"/><line style="stroke:#181818;stroke-width:0.9;" x1="276.3659" x2="313.2659" y1="350.0191" y2="350.0191"/><polygon fill="#181818" points="285.3659,346.4191,276.3659,350.0191,285.3659,353.6191,281.7659,350.0191" style="stroke:#181818;stroke-width:0.9;"/><text fill="#000000" font-family="sans-serif" font-size="11.7" font-weight="bold" lengthAdjust="spacing" textLength="6.507" x="281.7659" y="333.5827">6</text><text fill="#000000" font-family="sans-serif" font-size="11.7" lengthAdjust="spacing" textLength="109.9103" x="291.8729" y="333.5827">Return station details</text><polygon fill="#181818" points="52.9572,374.5811,43.9572,378.1811,52.9572,381.7811,49.3572,378.1811" style="stroke:#181818;stroke-width:0.9;"/><line style="stroke:#181818;stroke-width:0.9;" x1="47.5572" x2="270.0659" y1="378.1811" y2="378.1811"/><text fill="#000000" font-family="sans-serif" font-size="11.7" font-weight="bold" lengthAdjust="spacing" textLength="6.507" x="58.3572" y="373.4446">7</text><text fill="#000000" font-family="sans-serif" font-size="11.7" lengthAdjust="spacing" textLength="113.1552" x="68.4642" y="373.4446">Display station details</text><!--SRC=[bLAxRiCm3Dpr5OIdTWZGhK26JfwBeaAxCpBj2D73aQW4_llIZfrdXrOBPVYETqSgxspeCQ477qCqsnGz0QT2Af__z6Xss97cmH4aCeoXSzU0lCKc7ctee4MNIIcsB50zP2OFclQ5WY6eBNOZ_4dh-XbMyALVNgLyMpf2PcGR0pJ4Q5rM2Wl7KFo6ajmDnmGV3eVnIpJP6jjZOAZM9v4ACCzw8zeUa6aXd0gitXP3wy_HKMRW2CvAHUSM0_b2dzlDf1iw9qi7cdXu4B-uaRXB1sXbY61AIYGEFVPA4ZY6ztY1d5aAv2mIeZ6RNTSsztA5wfhLnXAQ2ZpbBFjG9BC6_U-MK-JOtgQcq2ZLq7tuNuQdoSaJ03olR8hBMveQ_sry9OM7ZL-0zuRlaOysVm00]--></g></svg>